<svg xmlns="http://www.w3.org/2000/svg" width="420.938" height="373.91" viewBox="0 0 420.938 373.91">
  <g id="Floral" transform="matrix(-0.53, 0.848, -0.848, -0.53, 449.544, 143.11)" opacity="0.101">
    <g id="Group_137" data-name="Group 137" transform="translate(0 0)">
      <g id="Group_136" data-name="Group 136" transform="translate(0 0)">
        <path id="Path_1075" data-name="Path 1075" d="M33.324,48.135c-3.051,2.306-6.467,4.464-10.289,4.7-7.663.475-13.42-6.592-17.724-12.949C1.811,34.723-1.783,28.211.983,22.626,3.118,18.306,8.2,16.49,12.8,15.069l43.53-13.45L63.45,0A80.586,80.586,0,0,1,33.324,48.135Z" transform="translate(0 213.412)" fill="none" stroke="#4c453c" stroke-linecap="round" stroke-linejoin="round" stroke-width="3"/>
        <path id="Path_1076" data-name="Path 1076" d="M28.386,0c3.431,3.3,2.713,8.9,1.44,13.492-1.866,6.721-4.362,13.253-6.854,19.769-1.942,5.08-4.046,10.388-8.23,13.864S3.621,51.4,0,47.341" transform="translate(34.942 215.209)" fill="none" stroke="#4c453c" stroke-linecap="round" stroke-linejoin="round" stroke-width="3"/>
        <path id="Path_1077" data-name="Path 1077" d="M3.412,27.124C-2.185,21.208-.5,10.744,5.593,5.345S20.745-1,28.663.9,43.644,7.184,50.556,11.489" transform="translate(9.604 202.086)" fill="none" stroke="#4c453c" stroke-linecap="round" stroke-linejoin="round" stroke-width="3"/>
        <path id="Path_1078" data-name="Path 1078" d="M209.327,0,165.808,55.123C137.236,91.3,108.444,127.65,74.948,159.171c-4.966,4.658-10.065,9.274-15.3,13.712A407.464,407.464,0,0,1,0,215.125" transform="translate(59.404)" fill="none" stroke="#4c453c" stroke-linecap="round" stroke-linejoin="round" stroke-width="3"/>
      </g>
      <path id="Path_1079" data-name="Path 1079" d="M13.157,25.9a44.668,44.668,0,0,1-6.014,4.742c-.65.429-1.364-.559-.706-.988A44.32,44.32,0,0,0,22.93,9.69,42.958,42.958,0,0,0,25.084,2.9,73.156,73.156,0,0,1,7.546,20.56,73.369,73.369,0,0,1,.984,24.679c-.676.376-1.391-.608-.707-.988a72.39,72.39,0,0,0,20.65-17.2c.426-.521.783-1.094,1.193-1.626a146.292,146.292,0,0,1-16.091,9.9c-.692.361-1.117-.779-.433-1.136a144.874,144.874,0,0,0,18.72-11.74c.388-.555.829-1.071,1.2-1.638.429-.65,1.364.129.939.775-.107.167-.228.319-.346.479a.547.547,0,0,1-.065.578.443.443,0,0,1,.364.555A45.493,45.493,0,0,1,13.157,25.9Z" transform="translate(34.673 214.558)" fill="#4c453c" stroke="#707070" stroke-width="3"/>
      <path id="Path_1080" data-name="Path 1080" d="M17.017,2.943a16.393,16.393,0,0,0-12.7,1.478c-.673.388-1.387-.6-.707-.992a17.672,17.672,0,0,1,6.433-2.151,47.75,47.75,0,0,0-9.392.593C-.126,2-.252.789.516.663A48.62,48.62,0,0,1,17.051.755a.615.615,0,0,1,.3,1.049c.053.015.11.015.164.03C18.26,2.058,17.754,3.163,17.017,2.943Z" transform="translate(38.085 210.628)" fill="#4c453c" stroke="#707070" stroke-width="3"/>
      <path id="Path_1081" data-name="Path 1081" d="M1.185,22.58c-.369.684-1.482.194-1.11-.5A55.091,55.091,0,0,0,6.584.5c.069-.783,1.273-.593,1.2.182A56.041,56.041,0,0,1,1.185,22.58Z" transform="translate(56.095 218.499)" fill="#4c453c" stroke="#707070" stroke-width="3"/>
      <path id="Path_1082" data-name="Path 1082" d="M40.343,15.516A274.336,274.336,0,0,1,0,6.139C8.07,3.346,16.277.527,24.807.06S42.391,1.792,48.454,7.811" transform="translate(50.494 180.148)" fill="none" stroke="#4c453c" stroke-linecap="round" stroke-linejoin="round" stroke-width="3"/>
      <path id="Path_1083" data-name="Path 1083" d="M61.232,4.666C59.557,12.136,52.82,17.641,45.54,20.02S30.43,22.2,22.774,21.973,7.287,21.528,0,23.876C8.173,16.539,16.5,9.1,26.433,4.427S48.318-1.858,58.28,2.751" transform="translate(91.615 133.102)" fill="none" stroke="#4c453c" stroke-linecap="round" stroke-linejoin="round" stroke-width="3"/>
      <path id="Path_1084" data-name="Path 1084" d="M5.988,7.952A53.178,53.178,0,0,0,5.4,55.814c3.412-8.955,6.839-17.952,8.822-27.329S16.7,9.263,14.252,0" transform="translate(176.45 101.761)" fill="none" stroke="#4c453c" stroke-linecap="round" stroke-linejoin="round" stroke-width="3"/>
      <path id="Path_1085" data-name="Path 1085" d="M0,32.3A136.994,136.994,0,0,1,4.837.48c.2-.748,1.41-.57,1.2.182A137.256,137.256,0,0,0,1.205,32.483C1.178,33.265-.022,33.071,0,32.3Z" transform="translate(181.59 105.768)" fill="#4c453c" stroke="#707070" stroke-width="3"/>
      <path id="Path_1086" data-name="Path 1086" d="M31.844,1.186A227.754,227.754,0,0,1,.829,11.418c-.752.19-1.193-.946-.433-1.136A227.715,227.715,0,0,0,31.41.05C32.132-.25,32.566.889,31.844,1.186Z" transform="translate(118.72 135.663)" fill="#4c453c" stroke="#707070" stroke-width="3"/>
      <path id="Path_1087" data-name="Path 1087" d="M24.243,4.675A95.219,95.219,0,0,1,.478,1.229C-.267,1.02-.092-.185.664.024a93.949,93.949,0,0,0,23.45,3.439C24.889,3.478,25.026,4.686,24.243,4.675Z" transform="translate(74.374 186.199)" fill="#4c453c" stroke="#707070" stroke-width="3"/>
    </g>
    <g id="Group_139" data-name="Group 139" transform="translate(118.22 36.357)">
      <g id="Group_138" data-name="Group 138" transform="translate(0 0)">
        <path id="Path_1088" data-name="Path 1088" d="M.37,49.864c-.517,3.792-.718,7.827.95,11.273,3.347,6.907,12.329,8.458,19.978,9.1,6.216.517,13.655.456,17.166-4.7,2.717-3.978,1.8-9.3.787-14.009Q34.433,29.262,29.618,7L27.54,0A80.584,80.584,0,0,0,.37,49.864Z" transform="translate(8.539 288.295)" fill="none" stroke="#4c453c" stroke-linecap="round" stroke-linejoin="round" stroke-width="3"/>
        <path id="Path_1089" data-name="Path 1089" d="M34.574.315c-4.559-1.375-9.092,2-12.466,5.357C17.165,10.6,12.7,15.976,8.244,21.345,4.771,25.528,1.177,29.966.2,35.316S1.929,47.1,7.241,48.268" transform="translate(0 288.972)" fill="none" stroke="#4c453c" stroke-linecap="round" stroke-linejoin="round" stroke-width="3"/>
        <path id="Path_1090" data-name="Path 1090" d="M9.5,48.751c7.9,1.972,16.193-4.628,17.911-12.584s-1.9-16.319-7.447-22.28S7.143,3.91,0,0" transform="translate(37.549 291.248)" fill="none" stroke="#4c453c" stroke-linecap="round" stroke-linejoin="round" stroke-width="3"/>
        <path id="Path_1091" data-name="Path 1091" d="M0,292.65a406.29,406.29,0,0,1,7.572-72.672C17.778,168.035,38.01,118.676,58.12,69.709Q72.437,34.852,86.753,0" transform="translate(36.561 0)" fill="none" stroke="#4c453c" stroke-linecap="round" stroke-linejoin="round" stroke-width="3"/>
      </g>
      <path id="Path_1092" data-name="Path 1092" d="M1.183,24.142A44.648,44.648,0,0,0,0,31.707c-.053.779,1.155.916,1.212.133A44.271,44.271,0,0,1,10.522,7.675,42.79,42.79,0,0,1,15.374,2.47,71.865,71.865,0,0,0,8.22,34.15c0,.775,1.216.916,1.212.133A72.371,72.371,0,0,1,14.3,7.846c.243-.627.57-1.22.828-1.839a147.783,147.783,0,0,0-.733,18.88c.026.783,1.227.593,1.2-.179A144.226,144.226,0,0,1,16.647,2.637c.292-.612.524-1.25.832-1.85.357-.7-.779-1.128-1.132-.437C16.256.525,16.18.7,16.1.886a.54.54,0,0,0-.471.338.445.445,0,0,0-.665-.046A45.487,45.487,0,0,0,1.183,24.142Z" transform="translate(18.984 291.034)" fill="#4c453c" stroke="#707070" stroke-width="3"/>
      <path id="Path_1093" data-name="Path 1093" d="M.2,1.327A16.394,16.394,0,0,1,5.143,13.12c-.008.771,1.2.912,1.208.129a17.634,17.634,0,0,0-1.28-6.66,47.879,47.879,0,0,1,4.092,8.477c.266.737,1.383.255,1.117-.479A48.746,48.746,0,0,0,2.093.221.617.617,0,0,0,1.029.476C.991.438.964.388.922.35.36-.193-.354.791.2,1.327Z" transform="translate(39.834 294.324)" fill="#4c453c" stroke="#707070" stroke-width="3"/>
      <path id="Path_1094" data-name="Path 1094" d="M.1,16.605c-.414.661.563,1.391.981.726A55.174,55.174,0,0,1,16.7,1.069c.646-.441-.11-1.394-.752-.957A56.147,56.147,0,0,0,.1,16.605Z" transform="translate(14.892 290.638)" fill="#4c453c" stroke="#707070" stroke-width="3"/>
      <path id="Path_1095" data-name="Path 1095" d="M0,9.616c6.471,19.605,16.919,22.329,26.991,31.79-1.528-8.4-3.093-16.938-6.873-24.6S9.989,2.333,1.767,0" transform="translate(39.08 244.879)" fill="none" stroke="#4c453c" stroke-linecap="round" stroke-linejoin="round" stroke-width="3"/>
      <path id="Path_1096" data-name="Path 1096" d="M6.228,0C.541,5.125-.952,13.7.544,21.2S6.054,35.445,10.009,42,18,55.278,19.523,62.782C21.905,52.064,24.3,41.16,23.5,30.21S18.25,8.055,9.344,1.634" transform="translate(51.921 173.289)" fill="none" stroke="#4c453c" stroke-linecap="round" stroke-linejoin="round" stroke-width="3"/>
      <path id="Path_1097" data-name="Path 1097" d="M41.418,11.1A53.185,53.185,0,0,1,0,35.088C6.129,27.721,12.287,20.323,19.483,14S35.02,2.409,44.294,0" transform="translate(26.668 122.643)" fill="none" stroke="#4c453c" stroke-linecap="round" stroke-linejoin="round" stroke-width="3"/>
      <path id="Path_1098" data-name="Path 1098" d="M1.012,20.944A137.187,137.187,0,0,0,26.369,1.122c.551-.543-.2-1.508-.752-.957A137.067,137.067,0,0,1,.259,19.986C-.41,20.393.351,21.343,1.012,20.944Z" transform="translate(42.78 127.444)" fill="#4c453c" stroke="#707070" stroke-width="3"/>
      <path id="Path_1099" data-name="Path 1099" d="M.005.683A227.586,227.586,0,0,0,6.3,32.728c.205.748,1.41.574,1.2-.182A226.965,226.965,0,0,1,1.206.5.608.608,0,0,0,.005.683Z" transform="translate(60.067 174.149)" fill="#4c453c" stroke="#707070" stroke-width="3"/>
      <path id="Path_1100" data-name="Path 1100" d="M.084.8a95.228,95.228,0,0,0,14.658,19.02c.547.547,1.508-.2.957-.752A93.925,93.925,0,0,1,1.2.321C.81-.344-.315.127.084.8Z" transform="translate(38.388 245.793)" fill="#4c453c" stroke="#707070" stroke-width="3"/>
    </g>
    <g id="Group_140" data-name="Group 140" transform="translate(197.495 36.467)">
      <path id="Path_1101" data-name="Path 1101" d="M12.248,0C-.484,48.5-.233,99.326.1,149.467q.485,73.44.976,146.887" transform="translate(31.358 0)" fill="none" stroke="#4c453c" stroke-linecap="round" stroke-linejoin="round" stroke-width="3"/>
      <path id="Path_1102" data-name="Path 1102" d="M12.515,1.455a47.443,47.443,0,0,0-9.708,48.1A38.724,38.724,0,0,0,17.17,26.672,38.731,38.731,0,0,0,12.876,0" transform="translate(19.351 294.891)" fill="none" stroke="#4c453c" stroke-linecap="round" stroke-linejoin="round" stroke-width="3"/>
      <path id="Path_1103" data-name="Path 1103" d="M0,0A67.9,67.9,0,0,0,39.374,40.859c-2.344-9.871-6.01-19.666-12.572-27.4S10.4.285.274.893" transform="translate(31.874 253.359)" fill="none" stroke="#4c453c" stroke-linecap="round" stroke-linejoin="round" stroke-width="3"/>
      <path id="Path_1104" data-name="Path 1104" d="M30.061,6.2c.748,5.631-2.158,11.2-6.087,15.3S15.129,28.6,10.619,32.05,1.828,39.676,0,45.056C1.835,32.487,4.514,19.71,11.277,8.957c1.866-2.967,4.115-5.825,7.177-7.534s7.086-2.048,9.989-.084" transform="translate(1.976 231.807)" fill="none" stroke="#4c453c" stroke-linecap="round" stroke-linejoin="round" stroke-width="3"/>
      <path id="Path_1105" data-name="Path 1105" d="M0,10.065c-.171,8.1,4.977,15.308,10.544,21.2S22.478,42.619,25.814,50A74.543,74.543,0,0,0,18.135,8.9C16.7,6.083,15,3.264,12.379,1.5S5.992-.665,3.534,1.322" transform="translate(31.057 106.761)" fill="none" stroke="#4c453c" stroke-linecap="round" stroke-linejoin="round" stroke-width="3"/>
      <path id="Path_1106" data-name="Path 1106" d="M30.9,0C21.885-.149,13.7,5.972,8.879,13.594S1.991,30.2,0,38.993c6.554-3.72,13.158-7.474,18.853-12.405s10.5-11.182,12.485-18.45" transform="translate(0 157.66)" fill="none" stroke="#4c453c" stroke-linecap="round" stroke-linejoin="round" stroke-width="3"/>
      <path id="Path_1107" data-name="Path 1107" d="M1.113,21.042c-.559.532-1.5-.232-.939-.775A179.159,179.159,0,0,0,18.271.228c.479-.619,1.417.152.935.775A178.755,178.755,0,0,1,1.113,21.042Z" transform="translate(12.793 159.646)" fill="#4c453c" stroke="#707070" stroke-width="3"/>
      <path id="Path_1108" data-name="Path 1108" d="M11.741,28.915A170.087,170.087,0,0,1,.031.742C-.2,0,.97-.322,1.205.427A168.472,168.472,0,0,0,12.786,28.3C13.151,28.987,12.106,29.61,11.741,28.915Z" transform="translate(32.443 102.451)" fill="#4c453c" stroke="#707070" stroke-width="3"/>
      <path id="Path_1109" data-name="Path 1109" d="M.937,21.041c-.6.5-1.311-.494-.707-.992A62.754,62.754,0,0,0,16.112.334c.357-.691,1.47-.2,1.109.5A64.283,64.283,0,0,1,.937,21.041Z" transform="translate(13.619 234.298)" fill="#4c453c" stroke="#707070" stroke-width="3"/>
      <path id="Path_1110" data-name="Path 1110" d="M26.623,23.258A248.576,248.576,0,0,1,.194,1.1C-.364.564.4-.382.969.165A248.994,248.994,0,0,0,27.4,22.319C28.033,22.779,27.258,23.718,26.623,23.258Z" transform="translate(34.442 254.787)" fill="#4c453c" stroke="#707070" stroke-width="3"/>
      <path id="Path_1111" data-name="Path 1111" d="M.219,25.351A58.372,58.372,0,0,1,3.517.362c.266-.737,1.375-.236,1.109.5a57.026,57.026,0,0,0-3.2,24.362A.608.608,0,0,1,.219,25.351Z" transform="translate(28.023 298.728)" fill="#4c453c" stroke="#707070" stroke-width="3"/>
    </g>
    <g id="Group_141" data-name="Group 141" transform="translate(21.048 39.374)">
      <path id="Path_1112" data-name="Path 1112" d="M215.354,0c-22.067,19.009-44.188,38.052-68.128,54.64S97.392,85.378,69.489,93.729c-10.171,3.043-20.73,5.323-31.33,4.757S16.832,94.276,9.275,86.818-2.1,67.763,1.189,57.672" transform="translate(1.394 0)" fill="none" stroke="#4c453c" stroke-linecap="round" stroke-linejoin="round" stroke-width="3"/>
      <path id="Path_1113" data-name="Path 1113" d="M1.569,18.279A16.576,16.576,0,0,1,4.411,0a3.626,3.626,0,0,0,6.041.494,4.937,4.937,0,0,0,4.107,4.069A21.25,21.25,0,0,1,3.734,19.32" transform="translate(0 37.25)" fill="none" stroke="#4c453c" stroke-linecap="round" stroke-linejoin="round" stroke-width="3"/>
      <path id="Path_1114" data-name="Path 1114" d="M14.548,30.536A19.731,19.731,0,0,1,1.038,18.12,19.724,19.724,0,0,1,3.94,0" transform="translate(18.651 67.646)" fill="none" stroke="#4c453c" stroke-linecap="round" stroke-linejoin="round" stroke-width="3"/>
      <path id="Path_1115" data-name="Path 1115" d="M20.822,22.139C15.324,20.7,9.667,19,5.381,15.27S-1.443,5.19.883,0" transform="translate(41.253 73.341)" fill="none" stroke="#4c453c" stroke-linecap="round" stroke-linejoin="round" stroke-width="3"/>
      <path id="Path_1116" data-name="Path 1116" d="M14.872,28.355A17.593,17.593,0,0,1,1.065,17.371,17.593,17.593,0,0,1,4.165,0" transform="translate(75.254 57.296)" fill="none" stroke="#4c453c" stroke-linecap="round" stroke-linejoin="round" stroke-width="3"/>
      <path id="Path_1117" data-name="Path 1117" d="M19.931,17.907c-5.323.437-11.022-.342-15.206-3.663S-1.494,4.575,1.257,0" transform="translate(112.939 45.263)" fill="none" stroke="#4c453c" stroke-linecap="round" stroke-linejoin="round" stroke-width="3"/>
      <path id="Path_1118" data-name="Path 1118" d="M5.936,25.662C1.73,23.431-.223,18.256.02,13.507S2.3,4.3,4.348,0A3.667,3.667,0,0,0,6.2,5.1a3.664,3.664,0,0,0,4.635-2.8c.536,2.238,1.5,4.552,3.457,5.771s5.057.718,5.859-1.44c-.368,4.358-.764,8.819-2.622,12.778s-5.521,7.363-9.882,7.652" transform="translate(107.439 19.749)" fill="none" stroke="#4c453c" stroke-linecap="round" stroke-linejoin="round" stroke-width="3"/>
      <path id="Path_1119" data-name="Path 1119" d="M8.18,27.922C2.925,26.6-.114,20.707,0,15.289S2.629,4.829,5.083,0a4.68,4.68,0,0,0,2.77,4.973,4.68,4.68,0,0,0,5.452-1.641A5.664,5.664,0,0,0,20.98,7.926c-.334,4.263-.688,8.617-2.394,12.534s-5.046,7.394-9.263,8.082" transform="translate(70.795 29.659)" fill="none" stroke="#4c453c" stroke-linecap="round" stroke-linejoin="round" stroke-width="3"/>
      <path id="Path_1120" data-name="Path 1120" d="M4.34,27.314C.495,24.123-.615,18.515.3,13.6S3.838,4.29,6.407,0A3.721,3.721,0,0,0,7.98,4.518,3.718,3.718,0,0,0,12.646,3.48a3.451,3.451,0,0,0,2.515,3.872A3.444,3.444,0,0,0,19.12,4.985a76.975,76.975,0,0,1-4.3,17.174c-.8,2.131-1.782,4.331-3.621,5.673s-4.784,1.429-6.144-.4" transform="translate(37.967 47.087)" fill="none" stroke="#4c453c" stroke-linecap="round" stroke-linejoin="round" stroke-width="3"/>
      <path id="Path_1121" data-name="Path 1121" d="M5.2,18.868C1.751,17.782-.126,13.822.007,10.2S1.819,3.23,3.461,0c.706,1.907,1.5,3.921,3.146,5.11s4.426,1.011,5.255-.844A20.6,20.6,0,0,1,7.933,17.933l-2.591.323" transform="translate(18.245 48.69)" fill="none" stroke="#4c453c" stroke-linecap="round" stroke-linejoin="round" stroke-width="3"/>
    </g>
  </g>
</svg>
