<svg xmlns="http://www.w3.org/2000/svg" width="445.299" height="555.426" viewBox="0 0 445.299 555.426">
  <g id="Floral" transform="translate(-45.431 69.773) rotate(-16)" opacity="0.101">
    <g id="Group_137" data-name="Group 137" transform="translate(0 171.239)">
      <g id="Group_136" data-name="Group 136">
        <path id="Path_1075" data-name="Path 1075" d="M447.967,104.1c-4.055-3.066-8.6-5.934-13.676-6.247-10.187-.631-17.838,8.762-23.56,17.212-4.651,6.863-9.429,15.52-5.752,22.944,2.838,5.742,9.6,8.156,15.712,10.045l57.862,17.878,9.459,2.151A107.118,107.118,0,0,0,447.967,104.1Z" transform="translate(-403.672 -97.819)" fill="none" stroke="#4c453c" stroke-linecap="round" stroke-linejoin="round" stroke-width="3"/>
        <path id="Path_1076" data-name="Path 1076" d="M440.779,164.634c4.561-4.384,3.606-11.833,1.914-17.934-2.48-8.934-5.8-17.616-9.111-26.277-2.581-6.752-5.379-13.808-10.939-18.429s-14.782-5.677-19.6-.288" transform="translate(-356.601 -96.762)" fill="none" stroke="#4c453c" stroke-linecap="round" stroke-linejoin="round" stroke-width="3"/>
        <path id="Path_1077" data-name="Path 1077" d="M409.073,107.573c-7.439,7.863-5.2,21.772,2.9,28.949s20.141,8.439,30.666,5.9,19.914-8.348,29.1-14.07" transform="translate(-391.772 -58.312)" fill="none" stroke="#4c453c" stroke-linecap="round" stroke-linejoin="round" stroke-width="3"/>
        <path id="Path_1078" data-name="Path 1078" d="M627.887,397.231,570.04,323.96c-37.979-48.084-76.25-96.406-120.774-138.3-6.6-6.192-13.378-12.328-20.333-18.227a541.611,541.611,0,0,0-79.29-56.15" transform="translate(-270.682 -43.297)" fill="none" stroke="#4c453c" stroke-linecap="round" stroke-linejoin="round" stroke-width="3"/>
      </g>
      <path id="Path_1079" data-name="Path 1079" d="M421.744,109.78a59.379,59.379,0,0,0-7.995-6.3c-.864-.571-1.813.742-.939,1.313a58.911,58.911,0,0,1,21.923,26.54,57.1,57.1,0,0,1,2.863,9.02,95.407,95.407,0,0,0-32.034-28.944c-.9-.5-1.848.808-.939,1.313a96.223,96.223,0,0,1,27.449,22.868c.566.692,1.04,1.455,1.586,2.162a194.456,194.456,0,0,0-21.388-13.156c-.919-.48-1.485,1.035-.576,1.51a192.563,192.563,0,0,1,24.883,15.605c.516.737,1.1,1.424,1.6,2.177.571.864,1.813-.172,1.248-1.03-.142-.222-.3-.424-.459-.636a.727.727,0,0,0-.086-.768.589.589,0,0,0,.484-.737A60.471,60.471,0,0,0,421.744,109.78Z" transform="translate(-358.167 -75.473)" fill="#4c453c" stroke="#707070" stroke-width="3"/>
      <path id="Path_1080" data-name="Path 1080" d="M428.261,113.359a21.79,21.79,0,0,1-16.883-1.965c-.894-.515-1.844.8-.94,1.318a23.49,23.49,0,0,0,8.551,2.859,63.473,63.473,0,0,1-12.485-.788c-1.03-.172-1.2,1.439-.177,1.606a64.627,64.627,0,0,0,21.979-.121.817.817,0,0,0,.4-1.394c.071-.02.146-.02.218-.04C429.913,114.536,429.241,113.066,428.261,113.359Z" transform="translate(-355.018 -43.311)" fill="#4c453c" stroke="#707070" stroke-width="3"/>
      <path id="Path_1081" data-name="Path 1081" d="M405.132,104.8c-.49-.909-1.97-.258-1.475.662a73.229,73.229,0,0,1,8.651,28.686c.091,1.04,1.692.788,1.6-.242A74.491,74.491,0,0,0,405.132,104.8Z" transform="translate(-328.994 -71.316)" fill="#4c453c" stroke="#707070" stroke-width="3"/>
      <path id="Path_1082" data-name="Path 1082" d="M447.953,116.4a364.654,364.654,0,0,0-53.625,12.464c10.727,3.712,21.636,7.459,32.974,8.081s23.373-2.3,31.433-10.3" transform="translate(-327.211 -22.552)" fill="none" stroke="#4c453c" stroke-linecap="round" stroke-linejoin="round" stroke-width="3"/>
      <path id="Path_1083" data-name="Path 1083" d="M461.534,152.119c-2.227-9.929-11.181-17.247-20.858-20.409s-20.085-2.9-30.262-2.6-20.585.591-30.271-2.53c10.863,9.752,21.929,19.636,35.135,25.853s29.09,8.353,42.332,2.227" transform="translate(-258.365 18.689)" fill="none" stroke="#4c453c" stroke-linecap="round" stroke-linejoin="round" stroke-width="3"/>
      <path id="Path_1084" data-name="Path 1084" d="M377.7,190.046a70.685,70.685,0,0,1-.783-63.619c4.535,11.9,9.091,23.863,11.727,36.327s3.293,25.55.041,37.863" transform="translate(-135.204 18.053)" fill="none" stroke="#4c453c" stroke-linecap="round" stroke-linejoin="round" stroke-width="3"/>
      <path id="Path_1085" data-name="Path 1085" d="M370.983,132.288a182.1,182.1,0,0,0,6.429,42.3c.272.995,1.874.758,1.6-.242a182.443,182.443,0,0,1-6.424-42.3C372.549,131.006,370.953,131.263,370.983,132.288Z" transform="translate(-129.608 38.12)" fill="#4c453c" stroke="#707070" stroke-width="3"/>
      <path id="Path_1086" data-name="Path 1086" d="M422.974,142.812a302.739,302.739,0,0,0-41.226-13.6c-1-.253-1.586,1.258-.576,1.51a302.685,302.685,0,0,1,41.226,13.6C423.358,144.721,423.933,143.206,422.974,142.812Z" transform="translate(-222.84 29.217)" fill="#4c453c" stroke="#707070" stroke-width="3"/>
      <path id="Path_1087" data-name="Path 1087" d="M426.5,117.663a126.569,126.569,0,0,0-31.59,4.581c-.99.278-.758,1.879.247,1.6a124.88,124.88,0,0,1,31.171-4.571C427.362,119.254,427.544,117.648,426.5,117.663Z" transform="translate(-295.418 -17.444)" fill="#4c453c" stroke="#707070" stroke-width="3"/>
    </g>
    <g id="Group_139" data-name="Group 139" transform="translate(157.141)">
      <g id="Group_138" data-name="Group 138">
        <path id="Path_1088" data-name="Path 1088" d="M376.9,91.267c-.687-5.04-.955-10.4,1.262-14.984,4.449-9.182,16.388-11.242,26.555-12.091,8.262-.687,18.151-.606,22.817,6.242,3.611,5.288,2.4,12.363,1.046,18.621q-6.4,29.6-12.8,59.19l-2.762,9.3A107.115,107.115,0,0,1,376.9,91.267Z" transform="translate(-365.063 -63.913)" fill="none" stroke="#4c453c" stroke-linecap="round" stroke-linejoin="round" stroke-width="3"/>
        <path id="Path_1089" data-name="Path 1089" d="M426.114,133.311c-6.06,1.828-12.085-2.656-16.57-7.121-6.571-6.545-12.5-13.7-18.429-20.833-4.616-5.56-9.394-11.459-10.7-18.57s2.3-15.666,9.363-17.217" transform="translate(-380.157 -40.995)" fill="none" stroke="#4c453c" stroke-linecap="round" stroke-linejoin="round" stroke-width="3"/>
        <path id="Path_1090" data-name="Path 1090" d="M384.672,69.22c10.5-2.621,21.524,6.151,23.807,16.727s-2.525,21.691-9.9,29.615-17.04,13.262-26.534,18.459" transform="translate(-322.135 -44.311)" fill="none" stroke="#4c453c" stroke-linecap="round" stroke-linejoin="round" stroke-width="3"/>
        <path id="Path_1091" data-name="Path 1091" d="M356.8,81.307a540.051,540.051,0,0,0,10.065,96.6c13.565,69.043,40.458,134.652,67.19,199.741q19.03,46.332,38.06,92.659" transform="translate(-308.203 6.54)" fill="none" stroke="#4c453c" stroke-linecap="round" stroke-linejoin="round" stroke-width="3"/>
      </g>
      <path id="Path_1092" data-name="Path 1092" d="M381.215,86.745a59.348,59.348,0,0,1-1.571-10.055c-.071-1.035,1.535-1.217,1.611-.177a58.847,58.847,0,0,0,12.373,32.12,56.877,56.877,0,0,0,6.45,6.919,95.525,95.525,0,0,1-9.51-42.11c.005-1.03,1.616-1.217,1.611-.177a96.2,96.2,0,0,0,6.465,35.14c.323.833.757,1.621,1.1,2.444a196.43,196.43,0,0,1-.974-25.1c.035-1.04,1.631-.788,1.6.237a191.706,191.706,0,0,0,1.4,29.337c.389.813.7,1.662,1.106,2.46.475.924-1.035,1.5-1.5.581-.121-.232-.222-.47-.328-.712a.718.718,0,0,1-.626-.45.592.592,0,0,1-.884.061A60.463,60.463,0,0,1,381.215,86.745Z" transform="translate(-354.409 -28.841)" fill="#4c453c" stroke="#707070" stroke-width="3"/>
      <path id="Path_1093" data-name="Path 1093" d="M376.323,95.555a21.792,21.792,0,0,0,6.57-15.676c-.01-1.025,1.6-1.212,1.606-.172a23.437,23.437,0,0,1-1.7,8.853,63.647,63.647,0,0,0,5.439-11.267c.354-.98,1.838-.338,1.485.636a64.792,64.792,0,0,1-10.884,19.1.82.82,0,0,1-1.414-.338c-.05.05-.086.116-.141.167C376.534,97.575,375.585,96.267,376.323,95.555Z" transform="translate(-323.108 -11.697)" fill="#4c453c" stroke="#707070" stroke-width="3"/>
      <path id="Path_1094" data-name="Path 1094" d="M381.011,78.52c-.55-.879.748-1.848,1.3-.965A73.339,73.339,0,0,0,403.071,99.17c.859.586-.146,1.854-1,1.273A74.632,74.632,0,0,1,381.011,78.52Z" transform="translate(-361.084 -10.071)" fill="#4c453c" stroke="#707070" stroke-width="3"/>
      <path id="Path_1095" data-name="Path 1095" d="M371.867,125.238c8.6-26.06,22.489-29.681,35.878-42.256-2.031,11.171-4.111,22.514-9.136,32.7s-13.464,19.242-24.393,22.343" transform="translate(-319.92 13.324)" fill="none" stroke="#4c453c" stroke-linecap="round" stroke-linejoin="round" stroke-width="3"/>
      <path id="Path_1096" data-name="Path 1096" d="M377.643,179.65c-7.56-6.813-9.545-18.207-7.555-28.186s7.323-18.929,12.581-27.646,10.616-17.646,12.646-27.62c3.167,14.247,6.354,28.742,5.293,43.3s-6.985,29.449-18.823,37.984" transform="translate(-300.349 66.854)" fill="none" stroke="#4c453c" stroke-linecap="round" stroke-linejoin="round" stroke-width="3"/>
      <path id="Path_1097" data-name="Path 1097" d="M425.633,148.7a70.7,70.7,0,0,0-55.053-31.883c8.146,9.793,16.333,19.626,25.9,28.034s20.651,15.4,32.979,18.606" transform="translate(-335.133 150.368)" fill="none" stroke="#4c453c" stroke-linecap="round" stroke-linejoin="round" stroke-width="3"/>
      <path id="Path_1098" data-name="Path 1098" d="M372.351,119.378a182.353,182.353,0,0,1,33.706,26.348c.733.722-.263,2.005-1,1.273a182.191,182.191,0,0,0-33.706-26.348C370.462,120.11,371.472,118.848,372.351,119.378Z" transform="translate(-314.142 160.226)" fill="#4c453c" stroke="#707070" stroke-width="3"/>
      <path id="Path_1099" data-name="Path 1099" d="M371.474,146.989a302.511,302.511,0,0,1,8.364-42.595c.273-.995,1.874-.763,1.6.242a301.688,301.688,0,0,0-8.368,42.595A.808.808,0,0,1,371.474,146.989Z" transform="translate(-291.624 97.464)" fill="#4c453c" stroke="#707070" stroke-width="3"/>
      <path id="Path_1100" data-name="Path 1100" d="M375.09,113.908a126.582,126.582,0,0,1,19.484-25.282c.728-.727,2.005.263,1.273,1a124.847,124.847,0,0,0-19.272,24.923C376.055,115.433,374.56,114.807,375.09,113.908Z" transform="translate(-323.951 35.154)" fill="#4c453c" stroke="#707070" stroke-width="3"/>
    </g>
    <g id="Group_140" data-name="Group 140" transform="translate(262.516 18.854)">
      <path id="Path_1101" data-name="Path 1101" d="M373.2,474.225c-16.924-64.463-16.59-132.026-16.146-198.676q.644-97.618,1.3-195.246" transform="translate(-315.233 -16.381)" fill="none" stroke="#4c453c" stroke-linecap="round" stroke-linejoin="round" stroke-width="3"/>
      <path id="Path_1102" data-name="Path 1102" d="M375.218,131.578c-15.722-16.661-20.934-42.478-12.9-63.932A50.958,50.958,0,0,1,375.7,133.513" transform="translate(-332.861 -67.646)" fill="none" stroke="#4c453c" stroke-linecap="round" stroke-linejoin="round" stroke-width="3"/>
      <path id="Path_1103" data-name="Path 1103" d="M349.64,135.176a90.258,90.258,0,0,1,52.337-54.311c-3.116,13.121-7.989,26.141-16.711,36.423s-21.8,17.51-35.262,16.7" transform="translate(-307.273 -14.105)" fill="none" stroke="#4c453c" stroke-linecap="round" stroke-linejoin="round" stroke-width="3"/>
      <path id="Path_1104" data-name="Path 1104" d="M399.887,137.078c.995-7.485-2.869-14.888-8.091-20.343s-11.757-9.424-17.752-14.015-11.687-10.136-14.116-17.287c2.439,16.707,6,33.691,14.99,47.983,2.48,3.944,5.47,7.742,9.54,10.015s9.419,2.722,13.277.111" transform="translate(-357.303 4.397)" fill="none" stroke="#4c453c" stroke-linecap="round" stroke-linejoin="round" stroke-width="3"/>
      <path id="Path_1105" data-name="Path 1105" d="M353.331,170.127c-.227-10.767,6.616-20.348,14.015-28.176s15.858-15.1,20.292-24.908a99.085,99.085,0,0,1-10.207,54.635c-1.9,3.742-4.161,7.49-7.651,9.828s-8.49,2.884-11.757.242" transform="translate(-312.044 132.429)" fill="none" stroke="#4c453c" stroke-linecap="round" stroke-linejoin="round" stroke-width="3"/>
      <path id="Path_1106" data-name="Path 1106" d="M401.213,158.371c-11.979.2-22.863-7.934-29.267-18.065s-9.156-22.075-11.8-33.762c8.712,4.944,17.49,9.934,25.06,16.489s13.959,14.863,16.6,24.524" transform="translate(-360.144 89.904)" fill="none" stroke="#4c453c" stroke-linecap="round" stroke-linejoin="round" stroke-width="3"/>
      <path id="Path_1107" data-name="Path 1107" d="M361.414,110.938c-.742-.707-2,.308-1.248,1.03A238.139,238.139,0,0,1,384.221,138.6c.636.823,1.884-.2,1.242-1.03A237.6,237.6,0,0,0,361.414,110.938Z" transform="translate(-342.93 106.732)" fill="#4c453c" stroke="#707070" stroke-width="3"/>
      <path id="Path_1108" data-name="Path 1108" d="M372.074,124.051A226.084,226.084,0,0,0,356.509,161.5c-.313.99,1.248,1.414,1.561.419a223.933,223.933,0,0,1,15.394-37.044C373.948,123.955,372.559,123.127,372.074,124.051Z" transform="translate(-313.344 159.178)" fill="#4c453c" stroke="#707070" stroke-width="3"/>
      <path id="Path_1109" data-name="Path 1109" d="M361.5,91.243c-.8-.662-1.742.656-.939,1.318a83.414,83.414,0,0,1,21.111,26.206c.474.919,1.954.268,1.474-.662A85.446,85.446,0,0,0,361.5,91.243Z" transform="translate(-342.154 27.198)" fill="#4c453c" stroke="#707070" stroke-width="3"/>
      <path id="Path_1110" data-name="Path 1110" d="M387.442,85.254a330.415,330.415,0,0,0-35.13,29.449c-.742.717.278,1.975,1.03,1.247A330.969,330.969,0,0,1,388.472,86.5C389.316,85.89,388.285,84.643,387.442,85.254Z" transform="translate(-306.273 3.006)" fill="#4c453c" stroke="#707070" stroke-width="3"/>
      <path id="Path_1111" data-name="Path 1111" d="M360.079,73.567a77.59,77.59,0,0,0,4.384,33.216c.353.98,1.828.313,1.474-.661a75.8,75.8,0,0,1-4.252-32.383A.808.808,0,0,0,360.079,73.567Z" transform="translate(-322.54 -46.497)" fill="#4c453c" stroke="#707070" stroke-width="3"/>
    </g>
    <g id="Group_141" data-name="Group 141" transform="translate(27.978 341.81)">
      <path id="Path_1112" data-name="Path 1112" d="M644.039,262.618c-29.332-25.267-58.736-50.579-90.558-72.629s-66.24-40.857-103.33-51.958c-13.52-4.045-27.555-7.076-41.645-6.323s-28.347,5.6-38.393,15.509-15.126,25.328-10.747,38.741" transform="translate(-355.933 -131.593)" fill="none" stroke="#4c453c" stroke-linecap="round" stroke-linejoin="round" stroke-width="3"/>
      <path id="Path_1113" data-name="Path 1113" d="M413.085,144.032a22.033,22.033,0,0,0,3.778,24.3c1.313-3.015,6.242-3.419,8.03-.657a6.562,6.562,0,0,1,5.459-5.409,28.246,28.246,0,0,0-14.388-19.615" transform="translate(-411 -86.817)" fill="none" stroke="#4c453c" stroke-linecap="round" stroke-linejoin="round" stroke-width="3"/>
      <path id="Path_1114" data-name="Path 1114" d="M425.432,131.7a25.759,25.759,0,0,0-14.1,40.59" transform="translate(-381.303 -131.177)" fill="none" stroke="#4c453c" stroke-linecap="round" stroke-linejoin="round" stroke-width="3"/>
      <path id="Path_1115" data-name="Path 1115" d="M426.172,132.407c-7.308,1.919-14.828,4.167-20.525,9.131s-9.07,13.4-5.979,20.3" transform="translate(-343.66 -128.297)" fill="none" stroke="#4c453c" stroke-linecap="round" stroke-linejoin="round" stroke-width="3"/>
      <path id="Path_1116" data-name="Path 1116" d="M410.879,134.994a22.9,22.9,0,0,0-14.232,37.691" transform="translate(-291.081 -117.819)" fill="none" stroke="#4c453c" stroke-linecap="round" stroke-linejoin="round" stroke-width="3"/>
      <path id="Path_1117" data-name="Path 1117" d="M406.354,141.029c-7.075-.581-14.651.455-20.212,4.869s-8.267,12.853-4.611,18.934" transform="translate(-229.739 -93.971)" fill="none" stroke="#4c453c" stroke-linecap="round" stroke-linejoin="round" stroke-width="3"/>
      <path id="Path_1118" data-name="Path 1118" d="M389.141,147.068c-5.591,2.965-8.187,9.843-7.864,16.156s3.03,12.242,5.752,17.954a4.662,4.662,0,1,1,8.626-3.045c.712-2.975,2-6.05,4.6-7.672s6.722-.955,7.788,1.914c-.49-5.793-1.015-11.722-3.485-16.984s-7.338-9.787-13.136-10.171" transform="translate(-238.439 -76.404)" fill="none" stroke="#4c453c" stroke-linecap="round" stroke-linejoin="round" stroke-width="3"/>
      <path id="Path_1119" data-name="Path 1119" d="M401.55,143.042c-6.985,1.758-11.025,9.591-10.868,16.792s3.49,13.9,6.752,20.323a6.036,6.036,0,0,1,10.929-4.429c.247-4.667,5.969-8.1,10.2-6.106-.445-5.667-.914-11.454-3.182-16.661s-6.707-9.828-12.313-10.742" transform="translate(-296.574 -88.555)" fill="none" stroke="#4c453c" stroke-linecap="round" stroke-linejoin="round" stroke-width="3"/>
      <path id="Path_1120" data-name="Path 1120" d="M405.576,139.564c-5.111,4.242-6.586,11.7-5.364,18.227s4.7,12.378,8.111,18.08a4.78,4.78,0,0,1,8.293-4.626,4.421,4.421,0,0,1,8.606-2,102.317,102.317,0,0,0-5.717-22.828c-1.066-2.833-2.368-5.757-4.813-7.54s-6.359-1.9-8.167.525" transform="translate(-349.341 -107.434)" fill="none" stroke="#4c453c" stroke-linecap="round" stroke-linejoin="round" stroke-width="3"/>
      <path id="Path_1121" data-name="Path 1121" d="M413.811,139.756c-4.591,1.444-7.085,6.707-6.909,11.52s2.409,9.267,4.591,13.56c.939-2.535,1.99-5.212,4.182-6.793s5.884-1.343,6.985,1.121A27.384,27.384,0,0,0,417.437,141l-3.444-.429" transform="translate(-382.641 -98.531)" fill="none" stroke="#4c453c" stroke-linecap="round" stroke-linejoin="round" stroke-width="3"/>
    </g>
  </g>
</svg>
