<svg xmlns="http://www.w3.org/2000/svg" width="46.492" height="43.096" viewBox="0 0 46.492 43.096">
  <g id="Indor_plant_icon" data-name="Indor plant icon" transform="translate(2.097 1.5)">
    <path id="Path_1151" data-name="Path 1151" d="M325.2,6589.8v26.127h34.626V6589.8" transform="translate(-320.7 -6575.829)" fill="none" stroke="#92ac78" stroke-linecap="round" stroke-linejoin="round" stroke-width="3"/>
    <path id="Path_1152" data-name="Path 1152" d="M320.036,6588.715l21.64-15.951,20.651,15.951" transform="translate(-320.036 -6572.764)" fill="none" stroke="#92ac78" stroke-linecap="round" stroke-linejoin="round" stroke-width="3"/>
    <g id="Group_168" data-name="Group 168" transform="translate(10.254 17.469) rotate(-13)">
      <g id="Path_1149" data-name="Path 1149" fill="none" stroke-linecap="round" stroke-linejoin="round">
        <path d="M3.168,4.363C8.467-.77,20.156.048,20.156.048s-1.68,1.3-2.849,5.7c-.914,3.44-.852,7.426-3.3,9.8-5.3,5.133-13.188.9-13.188.9S-2.131,9.5,3.168,4.363Z" stroke="none"/>
        <path d="M 15.26256561279297 2.928260803222656 C 14.10009384155273 3.02562141418457 12.82699584960938 3.190475463867188 11.5442008972168 3.461404800415039 C 8.682250022888184 4.065854072570801 6.459650039672852 5.073023796081543 5.116690635681152 6.374024391174316 C 3.548880577087402 7.892833709716797 2.769730567932129 9.811313629150391 2.80088996887207 12.07617378234863 C 2.813631057739258 13.00203704833984 2.960836410522461 13.81907653808594 3.106539726257324 14.4088249206543 C 4.08949089050293 14.79013061523438 5.713143348693848 15.29104423522949 7.458290100097656 15.29104423522949 C 9.335720062255859 15.29104423522949 10.84033012390137 14.71757411956787 12.0580997467041 13.53786468505859 C 13.17930030822754 12.45169448852539 13.54961013793945 10.38492393493652 13.94165992736816 8.196804046630859 C 14.12660026550293 7.164604187011719 14.31783008575439 6.097264289855957 14.6006908416748 5.032174110412598 C 14.80676460266113 4.256852149963379 15.03022861480713 3.557825088500977 15.26256561279297 2.928260803222656 M 18.36245727539062 -1.9073486328125e-06 C 19.47336959838867 -1.9073486328125e-06 20.15621948242188 0.04781341552734375 20.15621948242188 0.04781341552734375 C 20.15621948242188 0.04781341552734375 18.47653007507324 1.350254058837891 17.30673980712891 5.75141429901123 C 16.39319038391113 9.191324234008789 16.45448112487793 13.17728424072266 14.0063304901123 15.54893398284912 C 12.00497436523438 17.48774528503418 9.634052276611328 18.09104156494141 7.458287239074707 18.09104156494141 C 3.873268127441406 18.09104156494141 0.8179798126220703 16.45323371887207 0.8179798126220703 16.45323371887207 C 0.8179798126220703 16.45323371887207 -2.130538940429688 9.496354103088379 3.168459892272949 4.362954139709473 C 7.186365127563477 0.4705982208251953 14.87826538085938 -1.9073486328125e-06 18.36245727539062 -1.9073486328125e-06 Z" stroke="none" fill="#92ac78"/>
      </g>
      <path id="Path_1150" data-name="Path 1150" d="M0,13.158S5.275,12.432,7.4,8.7,11.683,1.764,12.232,1C14.738-.254,14.521.027,14.521.027" transform="translate(2.054 1.981)" fill="none" stroke="#92ac78" stroke-linecap="round" stroke-width="2.8"/>
    </g>
  </g>
</svg>
