<svg xmlns="http://www.w3.org/2000/svg" width="114.841" height="142.671" viewBox="0 0 114.841 142.671">
  <g id="Logo" transform="translate(-313.897 -68.422)">
    <rect id="Rectangle_143" data-name="Rectangle 143" width="88.281" height="83.892" transform="translate(340.456 127.2)" fill="#92ac78"/>
    <g id="Group_143" data-name="Group 143" transform="translate(314.397 68.913)">
      <path id="Path_1064" data-name="Path 1064" d="M350.068,98.335H314.4V203.3H419.359V98.335H377.182" transform="translate(-314.397 -70.891)" fill="none" stroke="#4c453c" stroke-linecap="round" stroke-linejoin="round" stroke-width="1"/>
      <path id="Path_1065" data-name="Path 1065" d="M346.059,98.335H314.4V203.3h31.662" transform="translate(-314.397 -70.891)" fill="none" stroke="#4c453c" stroke-linecap="round" stroke-linejoin="round" stroke-width="1"/>
      <g id="Group_135" data-name="Group 135" transform="translate(12.592 34.924)">
        <g id="Group_134" data-name="Group 134">
          <path id="Path_1066" data-name="Path 1066" d="M333.907,109.747a1.447,1.447,0,0,1,.281.9,1.335,1.335,0,0,1-.592,1.169,3.017,3.017,0,0,1-1.722.409h-2.991v-5.785h2.825a2.767,2.767,0,0,1,1.625.4,1.282,1.282,0,0,1,.565,1.1,1.389,1.389,0,0,1-.768,1.273A1.521,1.521,0,0,1,333.907,109.747Zm-3.695-2.293v1.364h1.331a1.349,1.349,0,0,0,.752-.173.58.58,0,0,0,.255-.513.568.568,0,0,0-.255-.508,1.375,1.375,0,0,0-.752-.17Zm2.36,3.6a.6.6,0,0,0,.269-.538q0-.719-1.067-.719h-1.562v1.43h1.562A1.489,1.489,0,0,0,332.571,111.049Z" transform="translate(-328.117 -106.446)" fill="#324d2e"/>
          <path id="Path_1067" data-name="Path 1067" d="M329.675,123.225a2.879,2.879,0,0,1-1.133-1.07,3.082,3.082,0,0,1,0-3.067,2.879,2.879,0,0,1,1.133-1.07,3.573,3.573,0,0,1,3.243,0,2.95,2.95,0,0,1,0,5.206,3.58,3.58,0,0,1-3.243,0Zm2.549-.988a1.687,1.687,0,0,0,.648-.657,2.066,2.066,0,0,0,0-1.918,1.687,1.687,0,0,0-.648-.657,1.933,1.933,0,0,0-1.852,0,1.694,1.694,0,0,0-.648.657,2.066,2.066,0,0,0,0,1.918,1.694,1.694,0,0,0,.648.657,1.94,1.94,0,0,0,1.852,0Z" transform="translate(-328.058 -107.317)" fill="#324d2e"/>
          <path id="Path_1068" data-name="Path 1068" d="M330.683,130.121h-1.851v-1.09h5.041v1.09h-1.852v4.695h-1.339Z" transform="translate(-328.113 -108.205)" fill="#324d2e"/>
          <path id="Path_1069" data-name="Path 1069" d="M332.623,144.868h-2.686l-.513,1.24h-1.372l2.578-5.785h1.322l2.587,5.785h-1.405Zm-.422-1.016-.917-2.215-.918,2.215Z" transform="translate(-328.052 -109.084)" fill="#324d2e"/>
          <path id="Path_1070" data-name="Path 1070" d="M333.994,151.616V157.4h-1.1l-2.884-3.512V157.4h-1.322v-5.785H329.8l2.876,3.511v-3.511Z" transform="translate(-328.102 -109.964)" fill="#324d2e"/>
          <path id="Path_1071" data-name="Path 1071" d="M330.84,162.908h1.338v5.785H330.84Z" transform="translate(-328.269 -110.843)" fill="#324d2e"/>
          <path id="Path_1072" data-name="Path 1072" d="M330.163,179.693a2.871,2.871,0,0,1-1.124-1.067,3.11,3.11,0,0,1,0-3.082,2.865,2.865,0,0,1,1.124-1.067,3.337,3.337,0,0,1,1.607-.385,3.38,3.38,0,0,1,1.36.265,2.717,2.717,0,0,1,1.02.761l-.859.793a1.847,1.847,0,0,0-1.454-.678,1.947,1.947,0,0,0-.959.235,1.685,1.685,0,0,0-.656.657,2.064,2.064,0,0,0,0,1.917,1.679,1.679,0,0,0,.656.657,1.937,1.937,0,0,0,.959.235,1.837,1.837,0,0,0,1.454-.685l.859.793a2.682,2.682,0,0,1-1.024.768,3.4,3.4,0,0,1-1.364.265A3.329,3.329,0,0,1,330.163,179.693Z" transform="translate(-328.097 -111.714)" fill="#324d2e"/>
          <path id="Path_1073" data-name="Path 1073" d="M332.623,190.039h-2.686l-.513,1.239h-1.372l2.578-5.784h1.322l2.587,5.784h-1.405Zm-.422-1.017-.917-2.215-.918,2.215Z" transform="translate(-328.052 -112.602)" fill="#324d2e"/>
          <path id="Path_1074" data-name="Path 1074" d="M329.6,196.786h1.339v4.694h2.9v1.092H329.6Z" transform="translate(-328.173 -113.481)" fill="#324d2e"/>
        </g>
      </g>
      <text id="PLA_NTS" data-name="PLA
NTS" transform="translate(43.351 104.472)" fill="#e5e6ee" font-size="18" font-family="Montserrat-Bold, Montserrat" font-weight="700" letter-spacing="0.16em"><tspan x="0" y="0">PLA</tspan><tspan x="0" y="19">NTS</tspan></text>
      <g id="Group_142" data-name="Group 142" transform="translate(31.424 0)">
        <g id="Group_137" data-name="Group 137" transform="translate(0.003 31.266)">
          <g id="Group_136" data-name="Group 136">
            <path id="Path_1075" data-name="Path 1075" d="M410.984,98.965a4.8,4.8,0,0,1,2.5-1.141c1.86-.115,3.257,1.6,4.3,3.143.849,1.253,1.722,2.834,1.05,4.189a4.392,4.392,0,0,1-2.869,1.834L405.4,110.255l-1.727.393A19.558,19.558,0,0,1,410.984,98.965Z" transform="translate(-353.851 -97.819)" fill="none" stroke="#4c453c" stroke-linecap="round" stroke-linejoin="round" stroke-width="1"/>
            <path id="Path_1076" data-name="Path 1076" d="M403.653,110.232c-.833-.8-.658-2.161-.349-3.274.453-1.631,1.059-3.216,1.664-4.8a7.782,7.782,0,0,1,2-3.365,2.678,2.678,0,0,1,3.578-.053" transform="translate(-353.802 -97.839)" fill="none" stroke="#4c453c" stroke-linecap="round" stroke-linejoin="round" stroke-width="1"/>
            <path id="Path_1077" data-name="Path 1077" d="M415.98,107.573c1.358,1.436.95,3.975-.529,5.286a6.277,6.277,0,0,1-5.6,1.078,18.551,18.551,0,0,1-5.313-2.569" transform="translate(-353.918 -98.579)" fill="none" stroke="#4c453c" stroke-linecap="round" stroke-linejoin="round" stroke-width="1"/>
            <path id="Path_1078" data-name="Path 1078" d="M349.643,163.491l10.562-13.378c6.934-8.78,13.922-17.6,22.052-25.252,1.205-1.131,2.443-2.251,3.712-3.328a98.892,98.892,0,0,1,14.477-10.252" transform="translate(-349.643 -98.867)" fill="none" stroke="#4c453c" stroke-linecap="round" stroke-linejoin="round" stroke-width="1"/>
          </g>
          <path id="Path_1079" data-name="Path 1079" d="M407.508,104.513a10.842,10.842,0,0,1,1.46-1.151c.158-.1.331.136.171.24a10.756,10.756,0,0,0-4,4.846,10.433,10.433,0,0,0-.523,1.647,17.42,17.42,0,0,1,5.849-5.285c.164-.091.337.148.172.24a17.57,17.57,0,0,0-5.012,4.175c-.1.126-.19.266-.289.395a35.51,35.51,0,0,1,3.905-2.4c.168-.088.271.189.105.276a35.159,35.159,0,0,0-4.543,2.849c-.094.135-.2.26-.291.4-.1.158-.331-.031-.228-.188.026-.041.055-.077.084-.116a.133.133,0,0,1,.016-.14.108.108,0,0,1-.088-.135A11.041,11.041,0,0,1,407.508,104.513Z" transform="translate(-353.896 -98.249)" fill="#4c453c"/>
          <path id="Path_1080" data-name="Path 1080" d="M405.851,111.657a3.979,3.979,0,0,0,3.083-.359c.163-.094.337.146.172.241a4.289,4.289,0,0,1-1.561.522,11.588,11.588,0,0,0,2.28-.144c.188-.031.219.263.032.293a11.8,11.8,0,0,1-4.013-.022.149.149,0,0,1-.073-.255c-.013,0-.027,0-.04-.007C405.55,111.872,405.672,111.6,405.851,111.657Z" transform="translate(-354.004 -98.867)" fill="#4c453c"/>
          <path id="Path_1081" data-name="Path 1081" d="M405.161,104.442c.089-.166.36-.047.269.121a13.371,13.371,0,0,0-1.58,5.238c-.017.19-.309.144-.292-.044A13.6,13.6,0,0,1,405.161,104.442Z" transform="translate(-353.842 -98.329)" fill="#4c453c"/>
          <path id="Path_1082" data-name="Path 1082" d="M396.3,116.4a66.576,66.576,0,0,1,9.791,2.276,22.4,22.4,0,0,1-6.021,1.475,7.547,7.547,0,0,1-5.739-1.881" transform="translate(-353.123 -99.266)" fill="none" stroke="#4c453c" stroke-linecap="round" stroke-linejoin="round" stroke-width="1"/>
          <path id="Path_1083" data-name="Path 1083" d="M380.143,131.246a5.5,5.5,0,0,1,3.808-3.726,16.184,16.184,0,0,1,5.525-.474,16.361,16.361,0,0,0,5.527-.462,27.482,27.482,0,0,1-6.415,4.72,9.293,9.293,0,0,1-7.729.407" transform="translate(-352.018 -100.059)" fill="none" stroke="#4c453c" stroke-linecap="round" stroke-linejoin="round" stroke-width="1"/>
          <path id="Path_1084" data-name="Path 1084" d="M372.152,138.043a12.906,12.906,0,0,0,.143-11.616,44.876,44.876,0,0,0-2.141,6.633,15.019,15.019,0,0,0-.007,6.913" transform="translate(-351.208 -100.047)" fill="none" stroke="#4c453c" stroke-linecap="round" stroke-linejoin="round" stroke-width="1"/>
          <path id="Path_1085" data-name="Path 1085" d="M372.454,131.547a33.25,33.25,0,0,1-1.174,7.723c-.05.182-.342.138-.291-.044a33.312,33.312,0,0,0,1.173-7.723C372.168,131.313,372.459,131.36,372.454,131.547Z" transform="translate(-351.305 -100.433)" fill="#4c453c"/>
          <path id="Path_1086" data-name="Path 1086" d="M380.736,131.672a55.275,55.275,0,0,1,7.527-2.483c.183-.046.29.23.105.276a55.27,55.27,0,0,0-7.527,2.483C380.666,132.02,380.561,131.744,380.736,131.672Z" transform="translate(-352.057 -100.262)" fill="#4c453c"/>
          <path id="Path_1087" data-name="Path 1087" d="M394.405,117.663a23.11,23.11,0,0,1,5.768.836c.181.051.138.343-.045.292a22.8,22.8,0,0,0-5.691-.835C394.249,117.953,394.215,117.66,394.405,117.663Z" transform="translate(-353.119 -99.364)" fill="#4c453c"/>
        </g>
        <g id="Group_139" data-name="Group 139" transform="translate(6.603)">
          <g id="Group_138" data-name="Group 138">
            <path id="Path_1088" data-name="Path 1088" d="M386.094,68.907a4.793,4.793,0,0,0-.231-2.736c-.812-1.676-2.992-2.053-4.849-2.208-1.509-.125-3.314-.111-4.166,1.14a4.393,4.393,0,0,0-.191,3.4L379,79.311l.5,1.7A19.558,19.558,0,0,0,386.094,68.907Z" transform="translate(-358.328 -63.913)" fill="none" stroke="#4c453c" stroke-linecap="round" stroke-linejoin="round" stroke-width="1"/>
            <path id="Path_1089" data-name="Path 1089" d="M380.157,81.209c1.106.334,2.207-.485,3.025-1.3,1.2-1.2,2.283-2.5,3.365-3.8a7.793,7.793,0,0,0,1.953-3.391,2.679,2.679,0,0,0-1.71-3.144" transform="translate(-358.62 -64.353)" fill="none" stroke="#4c453c" stroke-linecap="round" stroke-linejoin="round" stroke-width="1"/>
            <path id="Path_1090" data-name="Path 1090" d="M376.5,68.838c-1.917-.479-3.93,1.123-4.347,3.054a6.273,6.273,0,0,0,1.807,5.407,18.511,18.511,0,0,0,4.845,3.37" transform="translate(-357.988 -64.29)" fill="none" stroke="#4c453c" stroke-linecap="round" stroke-linejoin="round" stroke-width="1"/>
            <path id="Path_1091" data-name="Path 1091" d="M377.856,81.307a98.608,98.608,0,0,1-1.838,17.637c-2.477,12.606-7.387,24.586-12.268,36.47L356.8,152.333" transform="translate(-356.801 -65.267)" fill="none" stroke="#4c453c" stroke-linecap="round" stroke-linejoin="round" stroke-width="1"/>
          </g>
          <path id="Path_1092" data-name="Path 1092" d="M383.614,75.159a10.837,10.837,0,0,0,.287-1.836c.013-.189-.28-.222-.294-.032a10.744,10.744,0,0,1-2.259,5.865,10.386,10.386,0,0,1-1.178,1.263,17.441,17.441,0,0,0,1.736-7.689c0-.188-.3-.222-.294-.032a17.564,17.564,0,0,1-1.18,6.416c-.059.152-.138.3-.2.446a35.87,35.87,0,0,0,.178-4.582c-.006-.19-.3-.144-.292.043a35,35,0,0,1-.255,5.357c-.071.148-.127.3-.2.449-.087.169.189.274.275.106.022-.042.041-.086.06-.13a.131.131,0,0,0,.114-.082.108.108,0,0,0,.161.011A11.04,11.04,0,0,0,383.614,75.159Z" transform="translate(-358.58 -64.587)" fill="#4c453c"/>
          <path id="Path_1093" data-name="Path 1093" d="M378.513,80.228a3.979,3.979,0,0,1-1.2-2.862c0-.187-.291-.221-.293-.031a4.28,4.28,0,0,0,.311,1.616,11.624,11.624,0,0,1-.993-2.057c-.065-.179-.336-.062-.271.116a11.83,11.83,0,0,0,1.987,3.487.15.15,0,0,0,.258-.062c.009.009.016.021.026.03C378.474,80.6,378.647,80.358,378.513,80.228Z" transform="translate(-358.301 -64.917)" fill="#4c453c"/>
          <path id="Path_1094" data-name="Path 1094" d="M384.966,77.446c.1-.16-.137-.338-.238-.176a13.391,13.391,0,0,1-3.79,3.947c-.157.107.027.338.183.232A13.627,13.627,0,0,0,384.966,77.446Z" transform="translate(-358.676 -64.948)" fill="#4c453c"/>
          <path id="Path_1095" data-name="Path 1095" d="M378.418,90.7c-1.57-4.758-4.106-5.419-6.551-7.715a22.374,22.374,0,0,0,1.668,5.97,7.541,7.541,0,0,0,4.454,4.079" transform="translate(-357.974 -65.398)" fill="none" stroke="#4c453c" stroke-linecap="round" stroke-linejoin="round" stroke-width="1"/>
          <path id="Path_1096" data-name="Path 1096" d="M373.595,111.435a5.5,5.5,0,0,0,1.379-5.146,16.166,16.166,0,0,0-2.3-5.048,16.36,16.36,0,0,1-2.309-5.043,27.5,27.5,0,0,0-.966,7.905,9.289,9.289,0,0,0,3.437,6.935" transform="translate(-357.779 -66.427)" fill="none" stroke="#4c453c" stroke-linecap="round" stroke-linejoin="round" stroke-width="1"/>
          <path id="Path_1097" data-name="Path 1097" d="M371.278,122.638a12.908,12.908,0,0,1,10.052-5.821,44.81,44.81,0,0,1-4.729,5.119,15.012,15.012,0,0,1-6.021,3.4" transform="translate(-357.874 -68.033)" fill="none" stroke="#4c453c" stroke-linecap="round" stroke-linejoin="round" stroke-width="1"/>
          <path id="Path_1098" data-name="Path 1098" d="M377.207,119.274a33.294,33.294,0,0,0-6.154,4.811c-.134.132.048.366.183.232a33.266,33.266,0,0,1,6.154-4.811C377.552,119.408,377.368,119.177,377.207,119.274Z" transform="translate(-357.907 -68.222)" fill="#4c453c"/>
          <path id="Path_1099" data-name="Path 1099" d="M373.292,111.649a55.234,55.234,0,0,0-1.527-7.777c-.05-.182-.342-.139-.292.044A55.081,55.081,0,0,1,373,111.694.147.147,0,0,0,373.292,111.649Z" transform="translate(-357.943 -67.015)" fill="#4c453c"/>
          <path id="Path_1100" data-name="Path 1100" d="M378.808,93.034a23.108,23.108,0,0,0-3.557-4.616c-.133-.133-.366.048-.232.183a22.794,22.794,0,0,1,3.519,4.551C378.631,93.313,378.9,93.2,378.808,93.034Z" transform="translate(-358.217 -65.817)" fill="#4c453c"/>
        </g>
        <g id="Group_140" data-name="Group 140" transform="translate(0 3.443)">
          <path id="Path_1101" data-name="Path 1101" d="M356.915,152.228c3.09-11.77,3.029-24.106,2.948-36.275q-.118-17.824-.237-35.649" transform="translate(-350.207 -68.632)" fill="none" stroke="#4c453c" stroke-linecap="round" stroke-linejoin="round" stroke-width="1"/>
          <path id="Path_1102" data-name="Path 1102" d="M359.894,79.319a11.514,11.514,0,0,0,2.356-11.673,9.3,9.3,0,0,0-2.444,12.026" transform="translate(-350.336 -67.646)" fill="none" stroke="#4c453c" stroke-linecap="round" stroke-linejoin="round" stroke-width="1"/>
          <path id="Path_1103" data-name="Path 1103" d="M359.2,90.782a16.48,16.48,0,0,0-9.556-9.917,15.781,15.781,0,0,0,3.051,6.65,8.1,8.1,0,0,0,6.438,3.049" transform="translate(-349.64 -68.675)" fill="none" stroke="#4c453c" stroke-linecap="round" stroke-linejoin="round" stroke-width="1"/>
          <path id="Path_1104" data-name="Path 1104" d="M359.958,94.863a4.692,4.692,0,0,1,1.477-3.714,27.047,27.047,0,0,1,3.241-2.559,7.069,7.069,0,0,0,2.577-3.156,22.3,22.3,0,0,1-2.737,8.761,5.13,5.13,0,0,1-1.742,1.829,2.367,2.367,0,0,1-2.424.02" transform="translate(-350.441 -69.031)" fill="none" stroke="#4c453c" stroke-linecap="round" stroke-linejoin="round" stroke-width="1"/>
          <path id="Path_1105" data-name="Path 1105" d="M359.68,126.735c.041-1.966-1.208-3.715-2.559-5.145s-2.9-2.756-3.705-4.548a18.091,18.091,0,0,0,1.864,9.976,4.538,4.538,0,0,0,1.4,1.794,1.862,1.862,0,0,0,2.147.044" transform="translate(-349.927 -71.493)" fill="none" stroke="#4c453c" stroke-linecap="round" stroke-linejoin="round" stroke-width="1"/>
          <path id="Path_1106" data-name="Path 1106" d="M360.251,116.007a6.542,6.542,0,0,0,5.344-3.3,19.3,19.3,0,0,0,2.155-6.164,27.825,27.825,0,0,0-4.576,3.011,9.352,9.352,0,0,0-3.03,4.478" transform="translate(-350.458 -70.675)" fill="none" stroke="#4c453c" stroke-linecap="round" stroke-linejoin="round" stroke-width="1"/>
          <path id="Path_1107" data-name="Path 1107" d="M364.358,110.742c.136-.129.365.056.228.188a43.479,43.479,0,0,0-4.392,4.863c-.116.15-.344-.037-.227-.188A43.386,43.386,0,0,1,364.358,110.742Z" transform="translate(-350.442 -70.999)" fill="#4c453c"/>
          <path id="Path_1108" data-name="Path 1108" d="M356.74,123.721a41.288,41.288,0,0,1,2.842,6.838c.057.181-.228.258-.285.077a40.893,40.893,0,0,0-2.811-6.764C356.4,123.7,356.651,123.552,356.74,123.721Z" transform="translate(-350.172 -72.007)" fill="#4c453c"/>
          <path id="Path_1109" data-name="Path 1109" d="M364.226,91.1c.147-.121.318.12.172.241a15.231,15.231,0,0,0-3.855,4.785c-.087.168-.357.049-.269-.121A15.6,15.6,0,0,1,364.226,91.1Z" transform="translate(-350.467 -69.47)" fill="#4c453c"/>
          <path id="Path_1110" data-name="Path 1110" d="M352.3,85.119a60.331,60.331,0,0,1,6.414,5.377c.136.131-.051.361-.188.228a60.43,60.43,0,0,0-6.414-5.377C351.957,85.236,352.145,85.008,352.3,85.119Z" transform="translate(-349.828 -69.004)" fill="#4c453c"/>
          <path id="Path_1111" data-name="Path 1111" d="M360.868,73a14.168,14.168,0,0,1-.8,6.065c-.065.179-.334.057-.269-.121a13.84,13.84,0,0,0,.776-5.913A.148.148,0,0,1,360.868,73Z" transform="translate(-350.43 -68.053)" fill="#4c453c"/>
        </g>
        <g id="Group_141" data-name="Group 141" transform="translate(7.511 62.41)">
          <path id="Path_1112" data-name="Path 1112" d="M357.785,155.517a201.778,201.778,0,0,1,16.535-13.261,67.43,67.43,0,0,1,18.867-9.487,22.526,22.526,0,0,1,7.6-1.154,10.768,10.768,0,0,1,7.01,2.832,7.139,7.139,0,0,1,1.962,7.074" transform="translate(-357.785 -131.593)" fill="none" stroke="#4c453c" stroke-linecap="round" stroke-linejoin="round" stroke-width="1"/>
          <path id="Path_1113" data-name="Path 1113" d="M414.153,142.9a4.023,4.023,0,0,1-.69,4.436.88.88,0,0,0-1.466-.12,1.2,1.2,0,0,0-1-.988,5.157,5.157,0,0,1,2.627-3.582" transform="translate(-361.929 -132.454)" fill="none" stroke="#4c453c" stroke-linecap="round" stroke-linejoin="round" stroke-width="1"/>
          <path id="Path_1114" data-name="Path 1114" d="M406.094,131.7a4.7,4.7,0,0,1,2.575,7.411" transform="translate(-361.547 -131.601)" fill="none" stroke="#4c453c" stroke-linecap="round" stroke-linejoin="round" stroke-width="1"/>
          <path id="Path_1115" data-name="Path 1115" d="M398.494,132.407a9.053,9.053,0,0,1,3.747,1.667,3.34,3.34,0,0,1,1.092,3.706" transform="translate(-360.955 -131.657)" fill="none" stroke="#4c453c" stroke-linecap="round" stroke-linejoin="round" stroke-width="1"/>
          <path id="Path_1116" data-name="Path 1116" d="M391.111,134.994a4.181,4.181,0,0,1,2.6,6.882" transform="translate(-360.38 -131.858)" fill="none" stroke="#4c453c" stroke-linecap="round" stroke-linejoin="round" stroke-width="1"/>
          <path id="Path_1117" data-name="Path 1117" d="M379.861,140.909a5.226,5.226,0,0,1,3.69.889,2.791,2.791,0,0,1,.842,3.457" transform="translate(-359.504 -132.317)" fill="none" stroke="#4c453c" stroke-linecap="round" stroke-linejoin="round" stroke-width="1"/>
          <path id="Path_1118" data-name="Path 1118" d="M384.7,145.557a3.128,3.128,0,0,1,1.436,2.95,8.861,8.861,0,0,1-1.05,3.278.851.851,0,1,0-1.575-.556,2.184,2.184,0,0,0-.839-1.4.989.989,0,0,0-1.422.349,9.012,9.012,0,0,1,.636-3.1,3.054,3.054,0,0,1,2.4-1.857" transform="translate(-359.612 -132.654)" fill="none" stroke="#4c453c" stroke-linecap="round" stroke-linejoin="round" stroke-width="1"/>
          <path id="Path_1119" data-name="Path 1119" d="M393.784,142.369a3.025,3.025,0,0,1,1.984,3.066,8.847,8.847,0,0,1-1.233,3.711,1.1,1.1,0,0,0-2-.809,1.375,1.375,0,0,0-1.863-1.115,9.393,9.393,0,0,1,.581-3.042,3.178,3.178,0,0,1,2.248-1.961" transform="translate(-360.347 -132.421)" fill="none" stroke="#4c453c" stroke-linecap="round" stroke-linejoin="round" stroke-width="1"/>
          <path id="Path_1120" data-name="Path 1120" d="M403.394,137.924a3.5,3.5,0,0,1,.979,3.328,10.326,10.326,0,0,1-1.481,3.3.873.873,0,0,0-1.514-.845.807.807,0,0,0-1.571-.365,18.682,18.682,0,0,1,1.044-4.168,2.878,2.878,0,0,1,.879-1.377,1.106,1.106,0,0,1,1.491.1" transform="translate(-361.057 -132.058)" fill="none" stroke="#4c453c" stroke-linecap="round" stroke-linejoin="round" stroke-width="1"/>
          <path id="Path_1121" data-name="Path 1121" d="M408.522,139.756a2.085,2.085,0,0,1,1.262,2.1,6.116,6.116,0,0,1-.838,2.476,2.525,2.525,0,0,0-.764-1.24.873.873,0,0,0-1.275.2,5,5,0,0,1,.953-3.317l.629-.078" transform="translate(-361.609 -132.229)" fill="none" stroke="#4c453c" stroke-linecap="round" stroke-linejoin="round" stroke-width="1"/>
        </g>
      </g>
    </g>
  </g>
</svg>
