<svg xmlns="http://www.w3.org/2000/svg" width="25.923" height="25.903" viewBox="0 0 25.923 25.903">
  <path id="PRofile_Icon" data-name="PRofile Icon" d="M441.737,373.6a13.09,13.09,0,0,0-7.188-7.468,7.9,7.9,0,0,0,2.886-6.038,8.2,8.2,0,0,0-7.478-8.033,8.1,8.1,0,0,0-1.991,0,8.2,8.2,0,0,0-7.471,8.033,7.9,7.9,0,0,0,2.886,6.039,13.088,13.088,0,0,0-7.19,7.468,3.124,3.124,0,0,0,.439,2.94A3.44,3.44,0,0,0,419.4,377.9h19.15a3.435,3.435,0,0,0,2.762-1.362A3.114,3.114,0,0,0,441.737,373.6Zm-17.853-13.506a4.928,4.928,0,0,1,4.559-4.824,4.277,4.277,0,0,1,1.051,0,4.871,4.871,0,1,1-5.61,4.824Zm-4.491,14.57a10.317,10.317,0,0,1,19.15,0H419.4Z" transform="translate(-416.005 -352)" fill="#92ac78" fill-rule="evenodd"/>
</svg>
