<svg id="Water_Icon" data-name="Water Icon" xmlns="http://www.w3.org/2000/svg" width="36.526" height="45.619" viewBox="0 0 36.526 45.619">
  <g id="Path_1143" data-name="Path 1143" transform="translate(-214.835 -6570.552)" fill="none" stroke-linecap="square">
    <path d="M226.192,6582.2s10.924,17.4,11.248,22.263-4.362,12.043-11.248,11.7-11.287-5.116-11.357-10.857S226.192,6582.2,226.192,6582.2Z" stroke="none"/>
    <path d="M 226.1458892822266 6587.89501953125 C 225.2266082763672 6589.39794921875 224.1522674560547 6591.20068359375 223.0859069824219 6593.09619140625 C 221.4860687255859 6595.939453125 220.2205963134766 6598.4248046875 219.3246154785156 6600.48193359375 C 217.9272155761719 6603.69091796875 217.8309326171875 6604.955078125 217.834716796875 6605.26611328125 C 217.8596038818359 6607.3173828125 218.6534271240234 6609.220703125 220.0699462890625 6610.62548828125 C 221.615478515625 6612.15869140625 223.7839050292969 6613.0361328125 226.3410034179688 6613.16357421875 C 226.4508972167969 6613.1689453125 226.5573120117188 6613.17138671875 226.6662902832031 6613.17138671875 C 229.076904296875 6613.17138671875 230.8402404785156 6611.82763671875 231.8949890136719 6610.70068359375 C 233.5183258056641 6608.9658203125 234.5673980712891 6606.48095703125 234.4461669921875 6604.658203125 C 234.4199066162109 6604.263671875 234.0381622314453 6601.84619140625 229.0869750976562 6592.98681640625 C 228.0576782226562 6591.14501953125 227.0279388427734 6589.37890625 226.1458892822266 6587.89501953125 M 226.1918487548828 6582.19580078125 C 226.1918487548828 6582.19580078125 237.1158905029297 6599.59375 237.4395446777344 6604.458984375 C 237.7556610107422 6609.2119140625 233.2914428710938 6616.17138671875 226.6662902832031 6616.17138671875 C 226.5089874267578 6616.17138671875 226.3515625 6616.16748046875 226.1918487548828 6616.15966796875 C 219.3057708740234 6615.8173828125 214.9046020507812 6611.04345703125 214.8349304199219 6605.302734375 C 214.7652587890625 6599.5625 226.1918487548828 6582.19580078125 226.1918487548828 6582.19580078125 Z" stroke="none" fill="#92ac78"/>
  </g>
  <g id="Path_1144" data-name="Path 1144" transform="translate(-191.916 -6582.196)" fill="none" stroke-linecap="square">
    <path d="M221.667,6582.2s6.571,10.465,6.766,13.393-2.624,7.245-6.766,7.039-6.79-3.078-6.832-6.531S221.667,6582.2,221.667,6582.2Z" stroke="none"/>
    <path d="M 221.6268005371094 6587.9697265625 C 221.3902587890625 6588.37353515625 221.1485290527344 6588.79248046875 220.9067077636719 6589.220703125 C 217.9562072753906 6594.4443359375 217.839111328125 6595.96875 217.8346710205078 6596.06640625 C 217.8476409912109 6596.9951171875 218.1902618408203 6597.81884765625 218.8257446289062 6598.44921875 C 219.5427856445312 6599.16064453125 220.5766754150391 6599.56884765625 221.8157806396484 6599.630859375 C 221.861083984375 6599.6328125 221.9068756103516 6599.63427734375 221.9518585205078 6599.63427734375 C 222.9737396240234 6599.63427734375 223.7519378662109 6599.03173828125 224.2248077392578 6598.5263671875 C 225.0643920898438 6597.62890625 225.4755096435547 6596.46044921875 225.4403686523438 6595.8046875 C 225.4127349853516 6595.61767578125 225.1218719482422 6594.185546875 222.2835845947266 6589.125 C 222.0628356933594 6588.7314453125 221.8425598144531 6588.3447265625 221.6268005371094 6587.9697265625 M 221.6666107177734 6582.19580078125 C 221.6666107177734 6582.19580078125 228.2380523681641 6592.6611328125 228.4327239990234 6595.58837890625 C 228.6229248046875 6598.44775390625 225.9376831054688 6602.63427734375 221.9518585205078 6602.63427734375 C 221.8574829101562 6602.63427734375 221.7624359130859 6602.6318359375 221.6666107177734 6602.626953125 C 217.5242767333984 6602.4208984375 214.876708984375 6599.54931640625 214.8347930908203 6596.095703125 C 214.7929077148438 6592.642578125 221.6666107177734 6582.19580078125 221.6666107177734 6582.19580078125 Z" stroke="none" fill="#92ac78"/>
  </g>
</svg>
