<svg width="526" height="536" viewBox="0 0 526 536" fill="none" xmlns="http://www.w3.org/2000/svg">
<g opacity="0.502697">
<path fill-rule="evenodd" clip-rule="evenodd" d="M486.366 86.7446L411.363 44.0898L414.413 38.7403L489.416 81.395L486.366 86.7446Z" stroke="#010202"/>
<path d="M401.717 1.67212L503.775 195.881" stroke="#010202"/>
<path fill-rule="evenodd" clip-rule="evenodd" d="M414.15 99.9794C392.882 99.2367 376.244 81.4178 376.985 60.1789C377.727 38.9401 395.568 22.3252 416.836 23.0679C438.103 23.8106 454.742 41.6295 454 62.8683C453.258 84.1072 435.417 100.722 414.15 99.9794Z" fill="#010202"/>
<path d="M445.712 85.3983L412.983 23.1132" stroke="#FEFEFE"/>
<path fill-rule="evenodd" clip-rule="evenodd" d="M459.062 135.287L382.827 175.691L379.937 170.252L456.172 129.849L459.062 135.287Z" stroke="#010202"/>
<path fill-rule="evenodd" clip-rule="evenodd" d="M436.376 125.9C432.007 125.747 428.588 122.085 428.74 117.722C428.893 113.358 432.559 109.944 436.928 110.097C441.297 110.249 444.717 113.911 444.564 118.274C444.412 122.638 440.746 126.052 436.376 125.9Z" stroke="#010202"/>
</g>
<path fill-rule="evenodd" clip-rule="evenodd" d="M151.709 377.429C245.219 377.429 159.898 560.213 80.3712 532.27C0.844506 504.328 0.885406 357.452 0.885406 357.452C0.885406 357.452 58.1987 377.429 151.709 377.429Z" fill="#F6F6F6" stroke="#E0E0E0"/>
</svg>
