<svg width="526" height="536" viewBox="0 0 526 536" fill="none" xmlns="http://www.w3.org/2000/svg">
<g opacity="0.502697">
<path fill-rule="evenodd" clip-rule="evenodd" d="M486.366 86.7451L411.363 44.0903L414.413 38.7408L489.416 81.3955L486.366 86.7451Z" stroke="#010202"/>
<path d="M401.717 1.67261L503.775 195.881" stroke="#010202"/>
<path fill-rule="evenodd" clip-rule="evenodd" d="M414.15 99.9799C392.882 99.2372 376.244 81.4183 376.985 60.1794C377.727 38.9406 395.568 22.3257 416.836 23.0684C438.103 23.8111 454.742 41.63 454 62.8688C453.258 84.1077 435.417 100.723 414.15 99.9799Z" fill="#010202"/>
<path d="M445.712 85.3988L412.983 23.1137" stroke="#FEFEFE"/>
<path fill-rule="evenodd" clip-rule="evenodd" d="M459.062 135.288L382.827 175.692L379.937 170.253L456.172 129.85L459.062 135.288Z" stroke="#010202"/>
<path fill-rule="evenodd" clip-rule="evenodd" d="M436.376 125.9C432.007 125.747 428.588 122.086 428.74 117.722C428.893 113.359 432.559 109.945 436.928 110.097C441.297 110.25 444.717 113.911 444.564 118.275C444.412 122.638 440.746 126.053 436.376 125.9Z" stroke="#010202"/>
</g>
<path fill-rule="evenodd" clip-rule="evenodd" d="M151.709 377.43C245.219 377.43 159.898 560.213 80.3712 532.271C0.844506 504.328 0.885406 357.452 0.885406 357.452C0.885406 357.452 58.1987 377.43 151.709 377.43Z" fill="#F6F6F6" stroke="#E0E0E0"/>
</svg>
