<svg xmlns="http://www.w3.org/2000/svg" viewBox="0 0 393.44 491.42"><defs><style>.cls-1{fill:#bf9c80;}</style></defs><g id="Layer_2" data-name="Layer 2"><g id="Layer_1-2" data-name="Layer 1"><path class="cls-1" d="M72.79,0c.54,4-3.64,8.35-8.3,8.24-4.27-.09-8.41-3.65-8-8.24Z"/><path class="cls-1" d="M90.55,0c-.72,1.39-.57,3-1.62,4.4a7.41,7.41,0,0,1-12.76-1,9.18,9.18,0,0,1-1-3.4Z"/><path class="cls-1" d="M107.83,0c0,5.81-6,8.39-10.4,5.81a5.9,5.9,0,0,1-3-5.81Z"/><path class="cls-1" d="M125.59,0c-.43,1.77-.71,3.61-2.36,4.77-1.93,1.36-4,2-6.28,1C114.47,4.64,113,2.83,113.11,0Z"/><path class="cls-1" d="M142.87,0c.59,2.93-1.79,5.36-5.34,5.71-2.93.29-5.47-2.37-5.7-5.71Z"/><path class="cls-1" d="M160.63,0c-.2,3-2.32,5.26-5,5.26s-4.84-2.21-5-5.26Z"/><path class="cls-1" d="M178.39,0c-.19,2.83-2,4.78-4.56,4.78S169.46,2.83,169.27,0Z"/><path class="cls-1" d="M196.15,0C196,2.36,194.08,4.34,192,4.31c-2.34,0-3.85-1.66-4-4.31Z"/><path class="cls-1" d="M213.91,0a3.75,3.75,0,0,1-3.15,3.81,3.47,3.47,0,0,1-4-2.25A13.71,13.71,0,0,1,206.23,0Z"/><path class="cls-1" d="M232.15,0c-.13.29-.27.57-.38.86C230.9,3,230,3.6,227.86,3.35,226,3.13,225.35,2.35,225,0Z"/><path class="cls-1" d="M249.91,0a7.3,7.3,0,0,1-.44,1.32,3.37,3.37,0,0,1-3.44,2c-1.51-.33-2.21-1.3-2.36-3.27Z"/><path class="cls-1" d="M267.67,0c-.38,1.91-1.19,2.81-2.56,2.87-1.58.06-2.49-.75-3.2-2.87Z"/><path class="cls-1" d="M285.43,0c-.39,2-.77,2.35-2.28,2.4S281,2,280.63,0Z"/><path class="cls-1" d="M303.67,0a2,2,0,0,1-.54,1.27c-1.33,1.49-2.38,1.49-3.71,0A2,2,0,0,1,298.87,0Z"/><path class="cls-1" d="M90.08,489c.79.67.36,1.59.47,2.4H75.19l0-.49a4.14,4.14,0,0,1,3-.71c2.72,0,5.44,0,8.16,0A5,5,0,0,0,90.08,489Z"/><path class="cls-1" d="M56.47,491.42v-.48a2.81,2.81,0,0,1,2.2-.73c4-.07,7.94-.06,11.91,0a3.13,3.13,0,0,1,2.21.73v.48Z"/><path class="cls-1" d="M321.43,0c-.38,1.76-.6,1.93-2,1.93s-1.88-.65-1.8-1.93Z"/><path class="cls-1" d="M113.11,491.42v-.48c2.43-1.41,5.08-.51,7.62-.68,1.58-.11,3.15,0,4.39-1.24.79.67.36,1.59.47,2.4Z"/><path class="cls-1" d="M107.83,490.93v.49H94.39v-.48a2.29,2.29,0,0,1,1.72-.69c3.33-.12,6.65-.12,10,0A2.67,2.67,0,0,1,107.83,490.93Z"/><path class="cls-1" d="M339.67,0a1.87,1.87,0,0,1-2,1.87A1.86,1.86,0,0,1,335.83,0Z"/><path class="cls-1" d="M131.83,491.42v-.48a17.17,17.17,0,0,1,11,0c0,.16,0,.32,0,.48Z"/><path class="cls-1" d="M357.43,0c-.09,1-.55,1.76-1.51,1.72A1.76,1.76,0,0,1,354.07,0Z"/><path class="cls-1" d="M150.55,491.42v-.48a14.53,14.53,0,0,1,10.07,0v.48Z"/><path class="cls-1" d="M206.23,491.42c.07-.66-.22-1.41.48-1.92a8.08,8.08,0,0,0,4.08.77c1.08,0,2.21-.14,3.12.67v.48Z"/><path class="cls-1" d="M169.27,491.42v-.48a12.1,12.1,0,0,1,9.12,0v.48Z"/><path class="cls-1" d="M196.15,490.94v.48H188v-.48A9.92,9.92,0,0,1,196.15,490.94Z"/><path class="cls-1" d="M375.67,0a1.33,1.33,0,0,1-1.44,1.41A1.31,1.31,0,0,1,372.79,0Z"/><path class="cls-1" d="M393.43,0c0,.78-.36,1.37-1.19,1.37S391.08.77,391,0Z"/><path class="cls-1" d="M72.8,436.47a8,8,0,0,1-8.1,8.3,8.35,8.35,0,0,1-8.33-8.62c.19-3.95,3.87-8.13,8.42-8C69.15,428.2,73.22,432.27,72.8,436.47Z"/><path class="cls-1" d="M72.8,200c.26,4.4-3.17,8.24-8.22,8.38-4.49.11-8-3.72-8.15-8.22a8.24,8.24,0,0,1,8.23-8.38C69.11,191.73,73.17,195.9,72.8,200Z"/><path class="cls-1" d="M56.47,90.81a8.13,8.13,0,0,1,8.18-8.16,8.31,8.31,0,0,1,8.22,8.46,8.52,8.52,0,0,1-8.28,8.14C60.52,99.18,56.12,95.88,56.47,90.81Z"/><path class="cls-1" d="M72.8,236.54c0,4.84-3.41,7.92-8.44,8a8.12,8.12,0,0,1-8-8.29,8.46,8.46,0,0,1,8.5-8.1C69.1,228.28,73.12,232,72.8,236.54Z"/><path class="cls-1" d="M72.8,327.48c.34,4-3.72,8.26-8.22,8.13a8.28,8.28,0,0,1,.08-16.55A7.91,7.91,0,0,1,72.8,327.48Z"/><path class="cls-1" d="M72.8,291.21c.15,4.25-3.79,8.09-8.3,8a8.41,8.41,0,0,1-8.11-8.47,8.32,8.32,0,0,1,8.33-8C68.72,282.77,73.28,286.51,72.8,291.21Z"/><path class="cls-1" d="M64.71,246.43c4.34-.22,8.15,3.76,8.14,8.16a8.44,8.44,0,0,1-8.36,8.23,8.32,8.32,0,0,1-8.11-8.45C56.43,250.44,60.18,246,64.71,246.43Z"/><path class="cls-1" d="M72.8,182.13c0,4.25-3.1,7.92-8.34,8a8.23,8.23,0,0,1-8.07-8.81c.26-3.87,3.89-7.94,8.38-7.8A8.2,8.2,0,0,1,72.8,182.13Z"/><path class="cls-1" d="M56.47,163.66c-.42-4.31,3.79-8.35,8-8.32a8.63,8.63,0,0,1,8.37,8.35,8.46,8.46,0,0,1-8.13,8.36C60.69,172.16,55.83,168.12,56.47,163.66Z"/><path class="cls-1" d="M56.47,399.89a8,8,0,0,1,8.16-8.16c4.66,0,8.28,4.26,8.22,8.48a8.56,8.56,0,0,1-8.3,8.22C60.2,408.46,55.72,403.92,56.47,399.89Z"/><path class="cls-1" d="M64.42,226.3c-4.81,0-7.85-3.23-8-8.15-.13-4.53,3.42-8,8.12-8.16a8.36,8.36,0,0,1,8.28,8.32C72.62,223.13,69.45,226.31,64.42,226.3Z"/><path class="cls-1" d="M64.81,64.71c4.84,0,7.84,3.21,8,8.13A8.37,8.37,0,0,1,64.67,81a8.17,8.17,0,0,1-8.26-8.31C56.31,68.52,60.32,64,64.81,64.71Z"/><path class="cls-1" d="M56.47,363.63c-.59-4.06,3.64-8.24,7.86-8.26a8.27,8.27,0,0,1,8.51,8.42A8.57,8.57,0,0,1,64.38,372C60.22,372,56,368,56.47,363.63Z"/><path class="cls-1" d="M56.47,36.42c0-4.94,3.27-8,8.26-8.19,4.2-.16,8.21,3.9,8.14,8.17a8.48,8.48,0,0,1-8.37,8.25C60.37,44.58,56,40.88,56.47,36.42Z"/><path class="cls-1" d="M56.47,417.87c-.25-3.93,3.78-8,8.36-8,3.93.05,8.15,4.2,8,8.48a8.32,8.32,0,0,1-8.47,8.22A8.12,8.12,0,0,1,56.47,417.87Z"/><path class="cls-1" d="M64.39,281c-3.63.38-8.27-3.39-8-8.5.28-4.64,3.52-7.69,8.4-7.85,4.2-.15,8.21,3.92,8,8.52C72.69,277.28,69,281.29,64.39,281Z"/><path class="cls-1" d="M64.62,301.08c5,0,8.07,3.24,8.22,8.24a8.38,8.38,0,0,1-8.1,8.07,8.17,8.17,0,0,1-8.33-8.3C56.3,304.66,60.6,300.37,64.62,301.08Z"/><path class="cls-1" d="M56.47,108.9c0-4.44,4.07-8.5,8.5-8.09a8.35,8.35,0,0,1,7.88,8.33c.07,4.19-4.15,8.37-8.14,8.36C60.42,117.48,56,113.56,56.47,108.9Z"/><path class="cls-1" d="M56.47,345.31c0-4.47,4-8.5,8.46-8.14a8.34,8.34,0,0,1,7.92,8.29c.09,4.28-4.22,8.52-8.34,8.4S56,349.79,56.47,345.31Z"/><path class="cls-1" d="M56.47,381.87c0-4.63,3.76-8.57,8.24-8.35a8.35,8.35,0,0,1,0,16.7A8.13,8.13,0,0,1,56.47,381.87Z"/><path class="cls-1" d="M64.78,10.06c4.29-.37,8.13,3.93,8.08,8.26A8.24,8.24,0,1,1,56.38,18C56.47,14.17,60.07,9.61,64.78,10.06Z"/><path class="cls-1" d="M64.65,46.5c5,0,8.13,3.27,8.16,8.3a8.2,8.2,0,0,1-16.39-.3A7.88,7.88,0,0,1,64.65,46.5Z"/><path class="cls-1" d="M72.8,145.5c.2,5.12-4.41,8.31-8.15,8.33-4.26,0-8.52-4.13-8.25-8.27.3-4.7,3.72-8.53,8.28-8.42C68.91,137.24,73.08,141.07,72.8,145.5Z"/><path class="cls-1" d="M64.61,462.66c-5,0-8.09-3.15-8.16-8.26-.07-4.76,4.14-8.08,8.31-8.06,4.45,0,8.2,4.2,8.08,8.1C72.68,459.42,69.59,462.66,64.61,462.66Z"/><path class="cls-1" d="M64.4,480.88c-4.8,0-7.93-3.26-7.93-8.22s3.68-8,8.23-8.09a8.37,8.37,0,0,1,8.14,8.26C72.63,477.72,69.48,480.89,64.4,480.88Z"/><path class="cls-1" d="M56.47,127.12c-.58-4,4-8.28,8.29-8.15a8.43,8.43,0,0,1,8.09,8.43,8.65,8.65,0,0,1-8.27,8.26A8.26,8.26,0,0,1,56.47,127.12Z"/><path class="cls-1" d="M82.68,10.56c4.72.59,7.55,3,7.66,7.82a7.73,7.73,0,0,1-7.48,7.5,8.12,8.12,0,0,1-7.66-7.69C75.23,14.37,79,10.53,82.68,10.56Z"/><path class="cls-1" d="M82.92,247c4.55.66,7.32,3.06,7.42,7.79a7.74,7.74,0,0,1-7.48,7.5A7.65,7.65,0,1,1,82.92,247Z"/><path class="cls-1" d="M90.4,272.84a8,8,0,0,1-7.73,7.58c-3.68.17-7.44-3.77-7.47-7.59a8.1,8.1,0,0,1,7.64-7.69A8,8,0,0,1,90.4,272.84Z"/><path class="cls-1" d="M90.4,36.41A8,8,0,0,1,83,44c-3.83.28-7.7-3.57-7.78-7.5a8.12,8.12,0,0,1,7.57-7.76C86.66,28.69,90.36,32.4,90.4,36.41Z"/><path class="cls-1" d="M82.9,429.09c4.06,0,7.75,3.38,7.52,7.38-.26,4.34-3.1,7.37-7.49,7.47a7.62,7.62,0,0,1-7.71-7.48C75.31,432.94,77.94,428.75,82.9,429.09Z"/><path class="cls-1" d="M75.2,72.61a7.6,7.6,0,0,1,15.2.27c0,3.69-4.05,7.64-7.67,7.51A8,8,0,0,1,75.2,72.61Z"/><path class="cls-1" d="M82.64,47c4,.27,7.69,2.79,7.7,7.75a7.39,7.39,0,0,1-7.23,7.43C78.23,62,75.33,59,75.3,54.58A7.46,7.46,0,0,1,82.64,47Z"/><path class="cls-1" d="M82.74,98.29c-5,.29-7.54-4.16-7.53-7.52A7.6,7.6,0,0,1,90.4,91,7.53,7.53,0,0,1,82.74,98.29Z"/><path class="cls-1" d="M82.77,283.35a7.84,7.84,0,0,1,7.6,7.63c-.1,4.13-3.13,7.29-7.62,7.6-3.57.25-7.48-3.72-7.55-7.47A8.13,8.13,0,0,1,82.77,283.35Z"/><path class="cls-1" d="M83,244a8.11,8.11,0,0,1-7.75-7.57c-.06-3.72,3.65-7.74,7.37-7.64a7.74,7.74,0,0,1,7.81,7.41C90.63,240.1,86.87,244,83,244Z"/><path class="cls-1" d="M82.82,189.38a7.64,7.64,0,0,1-7.62-7.58c.08-3.54,3.23-7.61,7.8-7.34,4,.24,7.44,3.48,7.4,7.3A7.63,7.63,0,0,1,82.82,189.38Z"/><path class="cls-1" d="M82.91,410.87c4,0,7.76,3.39,7.5,7.38s-2.55,7.48-7.67,7.48a7.43,7.43,0,1,1,.17-14.86Z"/><path class="cls-1" d="M82.86,392.65A7.66,7.66,0,0,1,90.48,400c.13,4-3.52,7.56-7.7,7.53a7.44,7.44,0,1,1,.08-14.87Z"/><path class="cls-1" d="M82.81,371.09a7.43,7.43,0,1,1,0-14.86c4.66,0,7.14,3,7.59,7.33C90.83,367.52,87,371.1,82.81,371.09Z"/><path class="cls-1" d="M82.57,389.3a7.43,7.43,0,1,1,.24-14.86c4.24,0,8,3.6,7.61,7.54C89.94,386.33,87.39,389.35,82.57,389.3Z"/><path class="cls-1" d="M83,171.16a7.44,7.44,0,1,1,7.49-7.5A7.65,7.65,0,0,1,83,171.16Z"/><path class="cls-1" d="M90.4,309.27c0,3.78-3.82,7.51-7.57,7.48-4,0-7.71-3.74-7.63-7.62s3.56-7.71,7.42-7.52C87.44,301.84,90,304.61,90.4,309.27Z"/><path class="cls-1" d="M82.78,210.94c4.21-.44,7.39,3.15,7.58,7.2s-3.54,7.71-7.79,7.67a7.84,7.84,0,0,1-7.37-7.66A7.25,7.25,0,0,1,82.78,210.94Z"/><path class="cls-1" d="M82.83,465.21c4.08.18,7.59,3.26,7.49,7.46-.11,4.73-2.87,7.38-7.49,7.66-3.83.24-7.5-3.56-7.63-7.45S78.8,465.26,82.83,465.21Z"/><path class="cls-1" d="M82.7,134.73a7.43,7.43,0,1,1,.23-14.86c4.18.06,7.18,2.71,7.42,7.67C90.55,131.47,86.86,134.75,82.7,134.73Z"/><path class="cls-1" d="M82.75,334.65c-5,.29-7.54-4.15-7.54-7.5,0-3.81,3.57-7.45,7.37-7.33,4.59.14,7.47,2.59,7.78,7.59C90.6,331.31,86.9,334.67,82.75,334.65Z"/><path class="cls-1" d="M82.83,352.87a7.52,7.52,0,0,1-7.63-7.49,7.6,7.6,0,0,1,15.2.17C90.51,349.42,87,352.87,82.83,352.87Z"/><path class="cls-1" d="M82.64,138.07c4.18,0,7.63,2.49,7.65,7.64,0,4-2.87,7.24-7.57,7.24a7.44,7.44,0,1,1-.08-14.88Z"/><path class="cls-1" d="M82.71,116.51a7.43,7.43,0,1,1,.21-14.86c4.17.06,7.18,2.69,7.43,7.67C90.55,113.25,86.86,116.53,82.71,116.51Z"/><path class="cls-1" d="M83.06,192.72c3.94,0,7.53,3.47,7.31,7.26-.29,4.71-3.06,7.4-7.58,7.57a7.5,7.5,0,0,1-7.56-7.63C75.35,196.56,77.87,192.35,83.06,192.72Z"/><path class="cls-1" d="M82.69,447.3a7.67,7.67,0,0,1,7.79,7.41c0,3.83-3.78,7.47-7.85,7.46a7.81,7.81,0,0,1-7.43-7.57A7.28,7.28,0,0,1,82.69,447.3Z"/><path class="cls-1" d="M107.83,145.47a6.78,6.78,0,0,1-6.74,6.95c-3.3.12-6.78-3.47-6.86-6.63a7.24,7.24,0,0,1,6.79-7.2A6.78,6.78,0,0,1,107.83,145.47Z"/><path class="cls-1" d="M94.39,127.1c-.63-3.15,2.77-6.68,6.63-6.65s6.69,2.42,6.8,7.06a6.84,6.84,0,0,1-6.72,6.72C98.23,134.23,93.64,131.32,94.39,127.1Z"/><path class="cls-1" d="M107.83,381.94a6.76,6.76,0,0,1-6.84,6.84c-3.76,0-6.36-3.23-6.69-7.2-.27-3.17,3.4-6.73,6.57-6.59C105.11,375.17,107.59,377.6,107.83,381.94Z"/><path class="cls-1" d="M107.83,400.08a7,7,0,0,1-6.78,6.95c-3,0-6.82-3.17-6.82-6.94s3.76-7,6.82-6.92A6.79,6.79,0,0,1,107.83,400.08Z"/><path class="cls-1" d="M94.38,436.23c-.49-3.3,3-6.77,6.58-6.67a7,7,0,0,1,6.87,6.83c0,3.76-3.21,7.19-6.74,7A6.69,6.69,0,0,1,94.38,436.23Z"/><path class="cls-1" d="M94.39,363.64c-.71-3.73,3.51-7.06,6.42-6.85,3.75.28,7,2.18,7,7.17a6.89,6.89,0,0,1-6.8,6.63C98,370.54,93.66,367.42,94.39,363.64Z"/><path class="cls-1" d="M94.38,418.18a6.73,6.73,0,1,1,13.45.19c0,3.63-3.1,6.9-6.66,6.82S93.72,422.11,94.38,418.18Z"/><path class="cls-1" d="M94.39,163.55c-.73-3.45,3.61-6.84,6.82-6.77a6.91,6.91,0,0,1,6.62,6.82c0,3.83-3.08,7.14-6.71,7S93.72,167.53,94.39,163.55Z"/><path class="cls-1" d="M94.38,181.85c0-3.61,3.07-6.85,6.49-6.85a6.9,6.9,0,0,1,7,6.71,6.77,6.77,0,0,1-6.87,7.07C97.56,188.74,93.71,185.66,94.38,181.85Z"/><path class="cls-1" d="M94.38,109c-.64-3.46,3.08-6.7,6.79-6.77s6.66,3.33,6.66,7.09a6.9,6.9,0,0,1-6.94,6.74C97.39,116,94.38,112.76,94.38,109Z"/><path class="cls-1" d="M94.38,90.89c0-3.9,2.85-7,6.69-6.78s6.6,2.39,6.75,6.89A6.83,6.83,0,0,1,101,97.8C98,97.83,93.83,95.06,94.38,90.89Z"/><path class="cls-1" d="M94.38,327.28c0-4,2.52-6.54,6.46-6.55,4.35,0,6.86,2.51,7,6.68.14,3.35-3.62,6.81-6.68,6.82C97.69,334.24,93.83,331.06,94.38,327.28Z"/><path class="cls-1" d="M94.38,345.54a6.52,6.52,0,0,1,6.6-6.93,6.89,6.89,0,1,1-.16,13.77A6.6,6.6,0,0,1,94.38,345.54Z"/><path class="cls-1" d="M101.29,284.3c3-.49,6.57,2.91,6.6,6.7,0,3.26-3.58,6.87-6.76,6.77-4.15-.13-7-3-6.78-7S97.07,284.27,101.29,284.3Z"/><path class="cls-1" d="M94.38,199.86c-.49-3.27,3-6.75,6.56-6.66a6.93,6.93,0,0,1,6.89,6.78c0,3.55-2.19,6.74-7,6.86C97.1,206.94,94.37,203.91,94.38,199.86Z"/><path class="cls-1" d="M101.19,47.94c3.24-.51,6.74,3,6.71,6.84,0,2.93-3.38,6.79-6.91,6.63a6.66,6.66,0,0,1-6.69-6.88C94.28,51.25,97.19,47.49,101.19,47.94Z"/><path class="cls-1" d="M101.14,302.51c3.35-.5,6.74,3.08,6.75,6.74,0,3.23-3.56,6.88-6.75,6.73-3.38-.15-6.92-2.07-6.91-6.9A6.39,6.39,0,0,1,101.14,302.51Z"/><path class="cls-1" d="M94.38,36.37c-.42-3.5,3-6.92,6.76-6.7a6.71,6.71,0,0,1,6.69,6.87,6.87,6.87,0,0,1-7.06,6.61C96.91,43.12,94.38,40.44,94.38,36.37Z"/><path class="cls-1" d="M94.39,236.15c-.25-3.24,2.29-6.38,6.69-6.55,3-.12,6.94,3.29,6.81,7-.12,3.24-3.07,6.84-7,6.57S94.35,240.38,94.39,236.15Z"/><path class="cls-1" d="M101,461.23c-3.27.41-6.71-2.79-6.7-6.81a7.15,7.15,0,0,1,7-6.69c2.86,0,6.8,3.31,6.63,6.9C107.68,458.69,105.14,461.24,101,461.23Z"/><path class="cls-1" d="M100.94,479.44c-4.07,0-6.42-2.65-6.6-6.84s3.71-6.62,6.91-6.65c2.85,0,6.73,3.29,6.64,6.91C107.81,476.21,104.72,480,100.94,479.44Z"/><path class="cls-1" d="M101,224.86c-3.17.41-6.69-2.71-6.67-6.83a7.14,7.14,0,0,1,7-6.66c2.88,0,6.78,3.34,6.6,6.92C107.66,222.35,105.13,224.89,101,224.86Z"/><path class="cls-1" d="M94.38,272.59c-.37-3.3,2.9-6.75,6.65-6.55a7,7,0,0,1,6.8,6.84,6.86,6.86,0,0,1-7,6.63C96.87,279.51,94.35,276.81,94.38,272.59Z"/><path class="cls-1" d="M94.39,254.43c-.39-3.45,3-6.8,6.59-6.61a7,7,0,0,1,6.85,6.8,6.89,6.89,0,0,1-7.17,6.68C96.84,261.24,94.36,258.53,94.39,254.43Z"/><path class="cls-1" d="M101.31,66.15c3-.47,6.56,2.92,6.58,6.71,0,3.28-3.6,6.81-6.76,6.79-3.35,0-7.09-3-6.8-7S97.08,66.12,101.31,66.15Z"/><path class="cls-1" d="M101.13,11.5a6.83,6.83,0,0,1,6.7,6.91,6.88,6.88,0,0,1-7.08,6.52c-3.94,0-6.27-2.76-6.41-7C94.23,14.88,97.08,11.11,101.13,11.5Z"/><path class="cls-1" d="M119.09,187.94a5.81,5.81,0,0,1-6-6,6,6,0,0,1,6.27-6.34A6.13,6.13,0,0,1,125.5,182,5.89,5.89,0,0,1,119.09,187.94Z"/><path class="cls-1" d="M119.4,375.87c3.34-.52,6,2.78,6.15,5.94s-3.07,6.6-6.21,6.32-6.3-1.78-6.24-6.37C113.16,378.06,115.49,375.86,119.4,375.87Z"/><path class="cls-1" d="M119.14,84.86a5.89,5.89,0,0,1,6.36,6,6.3,6.3,0,0,1-6.42,6.39,6.12,6.12,0,0,1-6-6.41A5.92,5.92,0,0,1,119.14,84.86Z"/><path class="cls-1" d="M113.11,327.23c0-3.53,2.6-6,6.26-6a6.08,6.08,0,0,1,6.14,6,6.29,6.29,0,0,1-6.43,6.38A5.89,5.89,0,0,1,113.11,327.23Z"/><path class="cls-1" d="M113.11,454.75a5.9,5.9,0,0,1,6-6.39,6.3,6.3,0,0,1,6.45,6.36,6.07,6.07,0,0,1-6.12,6C115.73,460.71,113.11,458.26,113.11,454.75Z"/><path class="cls-1" d="M119.33,121.29c3.66-.55,6.2,3.17,6.22,6.1,0,3.21-3.11,6.22-6.35,6.3a6.17,6.17,0,0,1-6.09-6.38C113.1,123.75,115.64,121.29,119.33,121.29Z"/><path class="cls-1" d="M113.11,200.09c.11-4.56,3-6.35,6.28-6.26a6.15,6.15,0,0,1,6.11,6.4,6.06,6.06,0,0,1-6.2,6C115.66,206.09,113.09,203.63,113.11,200.09Z"/><path class="cls-1" d="M113.11,363.53a5.8,5.8,0,0,1,6.08-5.89,6.1,6.1,0,0,1,6.36,6.05c.12,3.26-3.3,6.48-6.51,6.36A6.15,6.15,0,0,1,113.11,363.53Z"/><path class="cls-1" d="M113.11,308.9c0-3.46,2.7-5.95,6.37-5.9,3.86.06,5.92,3,6,6.35.1,3.1-3.46,6.32-6.53,6.07A6.07,6.07,0,0,1,113.11,308.9Z"/><path class="cls-1" d="M119.25,479a6.22,6.22,0,1,1,.22-12.44c2.94,0,6.33,3.45,6,6.31C125.16,476.58,122.79,479,119.25,479Z"/><path class="cls-1" d="M113.11,436.36c-.06-3.7,2.6-5.93,6.17-6.23,2.91-.25,6.4,3.15,6.24,6.11-.2,3.58-2.16,6.34-6.58,6.28A5.83,5.83,0,0,1,113.11,436.36Z"/><path class="cls-1" d="M119.06,424.31a5.9,5.9,0,0,1-6-6.05,6,6,0,0,1,6.08-6.3,6.5,6.5,0,0,1,6.38,6.44A6.08,6.08,0,0,1,119.06,424.31Z"/><path class="cls-1" d="M113.11,109a5.89,5.89,0,0,1,6.08-5.92,6.1,6.1,0,0,1,6.36,6c.12,3.14-3.24,6.46-6.25,6.41A6.21,6.21,0,0,1,113.11,109Z"/><path class="cls-1" d="M113.11,345.34a5.93,5.93,0,0,1,6.09-5.93,6.29,6.29,0,0,1,6.35,6.09c0,3.16-3.29,6.6-6.29,6.33C115.58,351.5,112.92,349.16,113.11,345.34Z"/><path class="cls-1" d="M119,169.73a5.75,5.75,0,0,1-5.92-6,6.17,6.17,0,0,1,6.09-6.36c3.34.08,6.59,3.32,6.35,6.52A6.08,6.08,0,0,1,119,169.73Z"/><path class="cls-1" d="M119.3,224.38a5.94,5.94,0,0,1-6.2-6.08,6.1,6.1,0,0,1,6.05-6.35c3.15-.12,6.61,3.25,6.37,6.25C125.22,221.84,122.93,224.43,119.3,224.38Z"/><path class="cls-1" d="M119.25,151.51c-3.82,0-6.14-2.28-6.14-6s2.35-5.82,6.38-6.07c3.16-.2,6,2.8,6,6.07C125.54,148.39,123.05,152.05,119.25,151.51Z"/><path class="cls-1" d="M119.31,66.64c3.62,0,5.91,2.54,6.21,6.18.24,3-3.21,6.36-6.36,6.24a6,6,0,0,1-6-6.09A6,6,0,0,1,119.31,66.64Z"/><path class="cls-1" d="M119.21,12a6.53,6.53,0,0,1,6.35,6.18,6.55,6.55,0,0,1-6.49,6.29,6.33,6.33,0,0,1-6-6.43A6.24,6.24,0,0,1,119.21,12Z"/><path class="cls-1" d="M119.28,48.42c3.94-.06,6,3.17,6.23,6.28.2,2.94-3.3,6.29-6.23,6.16a6.12,6.12,0,0,1-6.18-6.27A6,6,0,0,1,119.28,48.42Z"/><path class="cls-1" d="M113.11,254.52a6.2,6.2,0,0,1,6-6.18c3.54-.06,6.25,3.24,6.39,6.25.16,3.37-3.07,6.3-6.56,6.22A6.13,6.13,0,0,1,113.11,254.52Z"/><path class="cls-1" d="M119.12,406.09a5.87,5.87,0,0,1-6-6,6.07,6.07,0,0,1,6.17-6.21c3.41,0,6.45,2.93,6.3,6.2A6.06,6.06,0,0,1,119.12,406.09Z"/><path class="cls-1" d="M119.19,266.57c3.39,0,6.48,2.93,6.33,6.2-.13,3-2.81,6.3-6.12,6.24a6.22,6.22,0,0,1-.21-12.44Z"/><path class="cls-1" d="M119.26,242.6a6.23,6.23,0,0,1,.07-12.45c2.93-.1,6.41,3.28,6.18,6.2C125.26,239.5,123.17,242.67,119.26,242.6Z"/><path class="cls-1" d="M113.11,290.81a6.12,6.12,0,0,1,6.11-6,6.5,6.5,0,0,1,6.34,6.21c0,2.94-3.28,6.31-6.21,6.22A6.09,6.09,0,0,1,113.11,290.81Z"/><path class="cls-1" d="M113.11,36.25a6.14,6.14,0,0,1,6.12-6,6.51,6.51,0,0,1,6.33,6.21c0,2.93-3.26,6.31-6.19,6.22A6.1,6.1,0,0,1,113.11,36.25Z"/><path class="cls-1" d="M72.79,490.94H56.47a1.2,1.2,0,0,1,0-1.44c1.3-4.53,3.89-6.56,8-6.75S73.07,486.32,72.79,490.94Z"/><path class="cls-1" d="M142.88,36.41c.38,3.6-2.8,5.71-5.62,5.74a5.73,5.73,0,0,1,.24-11.46C140.56,30.63,142.88,33.09,142.88,36.41Z"/><path class="cls-1" d="M142.88,254.61c.39,3.79-2.67,5.53-5.41,5.65a5.47,5.47,0,0,1-5.65-5.77c.09-2.81,2.7-5.66,5.44-5.62S143.26,251,142.88,254.61Z"/><path class="cls-1" d="M142.88,272.75c.38,3.61-2.76,5.69-5.59,5.76s-5.77-3.33-5.52-5.82c.29-3,2.83-5.83,5.69-5.6S143.27,269,142.88,272.75Z"/><path class="cls-1" d="M142.88,309.1a5.32,5.32,0,0,1-5.34,5.78c-3.25-.12-6-2.93-5.75-5.82.24-3.21,2.48-5.6,5.62-5.57A5.34,5.34,0,0,1,142.88,309.1Z"/><path class="cls-1" d="M142.88,18.36c.38,3.79-2.94,5.43-5.51,5.57-2.9.15-5.54-2.68-5.54-5.7s2.77-5.86,5.55-5.73S143.27,14.66,142.88,18.36Z"/><path class="cls-1" d="M142.88,291.1c.35,3.28-2.53,5.48-5.47,5.63-2.72.14-5.58-2.91-5.58-5.74a5.81,5.81,0,0,1,5.8-5.72C140.7,285.3,142.89,287.73,142.88,291.1Z"/><path class="cls-1" d="M142.88,454.73a5.35,5.35,0,0,1-5.55,5.53c-3.12,0-5.32-2.45-5.55-5.66a5.74,5.74,0,0,1,5.59-5.69C140.45,448.94,143,450.8,142.88,454.73Z"/><path class="cls-1" d="M142.88,472.71c0,3.33-2.25,5.83-5.32,5.74a5.8,5.8,0,0,1-5.79-5.7c-.1-2.7,2.63-5.66,5.92-5.68C139.91,467.05,143.37,469.3,142.88,472.71Z"/><path class="cls-1" d="M142.88,72.72c.07,4-2.63,5.79-5.58,5.74a5.71,5.71,0,0,1-5.51-5.76c.24-3.2,2.48-5.6,5.62-5.58A5.35,5.35,0,0,1,142.88,72.72Z"/><path class="cls-1" d="M142.88,218.53a5.36,5.36,0,0,1-5.71,5.36,5.51,5.51,0,0,1-5.34-5.82c0-2.76,2.74-5.72,5.47-5.56C140.36,212.7,143.06,214.41,142.88,218.53Z"/><path class="cls-1" d="M142.88,200.19a5.36,5.36,0,0,1-5.58,5.49,5.5,5.5,0,0,1-5.47-5.69,5.7,5.7,0,0,1,5.82-5.63A5.26,5.26,0,0,1,142.88,200.19Z"/><path class="cls-1" d="M142.88,236.78a5.35,5.35,0,0,1-5.26,5.33,5.71,5.71,0,1,1,0-11.42A5.47,5.47,0,0,1,142.88,236.78Z"/><path class="cls-1" d="M142.88,327.35c0,3-2.68,6-5.52,5.75-3.09-.23-5.78-3-5.57-5.79.23-3.23,2.47-5.64,5.63-5.61A5.34,5.34,0,0,1,142.88,327.35Z"/><path class="cls-1" d="M142.88,54.41a5.45,5.45,0,0,1-5.26,5.92c-2.87.21-5.75-2.71-5.79-5.56a5.78,5.78,0,0,1,5.68-5.86A5.35,5.35,0,0,1,142.88,54.41Z"/><path class="cls-1" d="M142.88,381.92c0,3.37-2.14,5.47-5.54,5.47a5.24,5.24,0,0,1-5.51-5.55,5.36,5.36,0,0,1,5.61-5.49C140.79,376.37,142.89,378.52,142.88,381.92Z"/><path class="cls-1" d="M142.88,145.53a5.12,5.12,0,0,1-5.52,5.5,5.4,5.4,0,0,1-5.54-5.57,5.51,5.51,0,0,1,5.59-5.53C140.77,140.18,142.89,142.13,142.88,145.53Z"/><path class="cls-1" d="M137.52,158.21c3.32,0,5.39,2.2,5.36,5.64a5.11,5.11,0,0,1-5.37,5.39,5.49,5.49,0,0,1-5.68-6C131.9,160.23,134.2,158.18,137.52,158.21Z"/><path class="cls-1" d="M142.88,127.44c0,3.32-2.21,5.39-5.63,5.37a5.21,5.21,0,0,1-5.42-5.62c.06-3.29,2.47-5.49,5.95-5.42C140.85,121.83,142.91,124.12,142.88,127.44Z"/><path class="cls-1" d="M137.54,394.57c3.3,0,5.37,2.22,5.34,5.66a5.13,5.13,0,0,1-5.39,5.38,5.41,5.41,0,0,1-5.67-5.7C131.85,396.88,134.53,394.09,137.54,394.57Z"/><path class="cls-1" d="M137.58,431c3.28.05,5.34,2.25,5.3,5.69A5.22,5.22,0,0,1,137.2,442a5.57,5.57,0,0,1-5.38-5.79C131.9,433,134.13,431,137.58,431Z"/><path class="cls-1" d="M137.21,114.59a5.22,5.22,0,0,1-5.38-5.65,5.49,5.49,0,0,1,5.77-5.38c3.22,0,5.32,2.28,5.28,5.71S140.65,114.63,137.21,114.59Z"/><path class="cls-1" d="M142.88,363.83c0,3.3-2.21,5.37-5.65,5.34a5.23,5.23,0,0,1-5.4-5.63,5.48,5.48,0,0,1,5.75-5.4C140.8,358.14,142.92,360.4,142.88,363.83Z"/><path class="cls-1" d="M142.88,90.88a5.12,5.12,0,0,1-5.5,5.5c-3.28,0-5.52-2.1-5.55-5.21a5.49,5.49,0,0,1,5.57-5.83A5.2,5.2,0,0,1,142.88,90.88Z"/><path class="cls-1" d="M137.46,176.42c3.33,0,5.43,2.18,5.42,5.57a5.23,5.23,0,0,1-5.55,5.47,5.54,5.54,0,0,1-5.51-5.65C131.82,178.68,134.63,175.94,137.46,176.42Z"/><path class="cls-1" d="M137.18,351a5.22,5.22,0,0,1-5.35-5.67,5.56,5.56,0,0,1,5.55-5.38,5.48,5.48,0,0,1,5.55,5.78C142.66,348.93,140.62,351,137.18,351Z"/><path class="cls-1" d="M142.88,418.51a5.23,5.23,0,0,1-5.71,5.31,5.56,5.56,0,0,1-5.35-5.57,5.47,5.47,0,0,1,5.81-5.51A5.3,5.3,0,0,1,142.88,418.51Z"/><path class="cls-1" d="M90.08,489c-.22,1.86-.22,1.91-1.84,1.91-4.35,0-8.69,0-13,0,0-.32,0-.63,0-.94.45-.39,0-1.05.47-1.45a7.93,7.93,0,0,1,6.1-5,6.19,6.19,0,0,1,4.32.75C87.92,485.31,89.62,486.71,90.08,489Z"/><path class="cls-1" d="M160.64,272.82a5.05,5.05,0,1,1-5-5.28A5.22,5.22,0,0,1,160.64,272.82Z"/><path class="cls-1" d="M160.64,291.13c0,2.7-2.38,5.25-5,5.05s-5.26-2-5.09-5.24c.14-2.84,2.43-5.29,5.16-5.17C158.72,285.9,161.07,288.79,160.64,291.13Z"/><path class="cls-1" d="M160.64,472.89a5.18,5.18,0,0,1-5,5.08,5.42,5.42,0,0,1-5.17-5.45,5.09,5.09,0,0,1,5.18-4.9C158.61,467.75,160.92,469.83,160.64,472.89Z"/><path class="cls-1" d="M160.64,18.26a5.05,5.05,0,1,1-5.07-5.3A5.34,5.34,0,0,1,160.64,18.26Z"/><path class="cls-1" d="M150.55,236.24c0-2.7,2.4-5.26,5-5s5.25,2,5.08,5.25c-.14,2.84-2.44,5.29-5.17,5.16C152.49,241.47,150.13,238.61,150.55,236.24Z"/><path class="cls-1" d="M160.64,309.37c0,2.69-2.42,5.25-5,5s-5.24-2-5.07-5.26c.14-2.83,2.46-5.28,5.18-5.14C158.72,304.14,161.06,307,160.64,309.37Z"/><path class="cls-1" d="M150.55,36.42a5.05,5.05,0,1,1,10.09.07,5.05,5.05,0,0,1-5,5.1C153.3,41.48,150.3,39.77,150.55,36.42Z"/><path class="cls-1" d="M150.55,254.53a5.06,5.06,0,0,1,4.94-5.1c2.34.08,5.31,1.78,5.17,5.14a5.06,5.06,0,1,1-10.11,0Z"/><path class="cls-1" d="M155.53,350.47c-3.12,0-5-2-5-5.11a5.11,5.11,0,0,1,5.08-5c3.06,0,5.06,2.18,5,5.41C160.59,348.78,158.72,350.49,155.53,350.47Z"/><path class="cls-1" d="M160.64,54.76a5,5,0,1,1-10.09-.2,5.17,5.17,0,0,1,5.15-5.15C158.72,49.55,161.06,52.42,160.64,54.76Z"/><path class="cls-1" d="M160.64,163.65a4.78,4.78,0,0,1-5,5.11,5.2,5.2,0,0,1-5.09-5c-.1-2.38,2.12-5.35,5.06-5.15C158.85,158.86,160.63,160.42,160.64,163.65Z"/><path class="cls-1" d="M155.59,176.9c3.16,0,5,1.74,5,4.72a5,5,0,0,1-5.09,5.36,5.12,5.12,0,0,1-5-5A4.67,4.67,0,0,1,155.59,176.9Z"/><path class="cls-1" d="M155.55,114.11c-2.87.43-5.14-2.71-5-5.12a5.19,5.19,0,0,1,5.1-4.95c3.06,0,5.05,2.17,5,5.4C160.6,112.4,158.72,114.13,155.55,114.11Z"/><path class="cls-1" d="M155.5,95.89c-3.11,0-5-2-4.95-5.12a5.11,5.11,0,0,1,5.08-5,5,5,0,0,1,5,5.21C160.65,94.16,158.8,95.91,155.5,95.89Z"/><path class="cls-1" d="M155.61,413.27c3.1,0,5,1.8,5,4.75,0,3.2-2,5.34-5.08,5.32a5.19,5.19,0,0,1-5-5C150.44,416,152.64,412.82,155.61,413.27Z"/><path class="cls-1" d="M155.45,332.26c-3.07,0-5-2-4.9-5.17a5,5,0,1,1,10.09.37C160.63,330.55,158.76,332.29,155.45,332.26Z"/><path class="cls-1" d="M160.64,400.16c.43,2.8-2.69,5.11-5.15,5a5.21,5.21,0,0,1-4.94-5.11c0-3.05,2.18-5,5.41-5C158.86,395.09,160.66,397.05,160.64,400.16Z"/><path class="cls-1" d="M160.64,200a5,5,0,0,1-4.76,5.21,5.22,5.22,0,0,1-5.33-5c0-3.24,1.89-5.14,5.2-5.11C158.85,195.15,160.65,196.94,160.64,200Z"/><path class="cls-1" d="M155.65,386.91a5,5,0,1,1,.06-10.08c3,.06,5,2.27,4.93,5.48A4.74,4.74,0,0,1,155.65,386.91Z"/><path class="cls-1" d="M160.64,145.48c.44,3-2.73,5.16-5,5.09a5.06,5.06,0,0,1-.06-10.12C157.93,140.35,161.07,142.6,160.64,145.48Z"/><path class="cls-1" d="M155.56,368.69c-2.88.44-5.14-2.7-5-5.1a5.2,5.2,0,0,1,5.07-5c3.07,0,5.07,2.13,5,5.37C160.61,366.9,158.67,368.7,155.56,368.69Z"/><path class="cls-1" d="M155.64,431.48c3.14,0,5,1.76,5,4.76a5,5,0,1,1-10.09.22C150.58,433.34,152.48,431.48,155.64,431.48Z"/><path class="cls-1" d="M155.58,77.68c-3.2,0-5-1.8-5-5a5.18,5.18,0,0,1,5.21-5.07c2.63,0,4.91,2.48,4.88,5.37S158.74,77.68,155.58,77.68Z"/><path class="cls-1" d="M160.64,218.17a5,5,0,1,1-10.08.22c.05-3.26,1.74-5,4.95-5.23A4.8,4.8,0,0,1,160.64,218.17Z"/><path class="cls-1" d="M155.61,449.7c3.16,0,5,1.75,5,4.76a5,5,0,1,1-10.09.3A4.66,4.66,0,0,1,155.61,449.7Z"/><path class="cls-1" d="M160.64,127.63a4.74,4.74,0,0,1-4.91,4.7,4.88,4.88,0,0,1-5.18-5,5.09,5.09,0,0,1,5.26-5C158.75,122.35,160.68,124.5,160.64,127.63Z"/><path class="cls-1" d="M107.83,490.93H94.39a1.2,1.2,0,0,1,0-1.44c1.43-4.35,4.91-6.26,8.94-4.91A7,7,0,0,1,107.83,490.93Z"/><path class="cls-1" d="M178.4,272.93a4.57,4.57,0,1,1-9.13-.28A4.65,4.65,0,0,1,174,268,4.59,4.59,0,0,1,178.4,272.93Z"/><path class="cls-1" d="M178.4,18.34a4.57,4.57,0,1,1-9.13-.22,4.58,4.58,0,0,1,4.66-4.67C176.06,13.56,178.74,15.62,178.4,18.34Z"/><path class="cls-1" d="M178.4,291.06a4.53,4.53,0,0,1-4.69,4.67,4.48,4.48,0,0,1-4.44-4.68,4.57,4.57,0,1,1,9.13,0Z"/><path class="cls-1" d="M178.4,254.78a4.62,4.62,0,0,1-4.57,4.58c-2.68,0-4.56-2.18-4.59-5.06,0-2.62,2.76-4.5,4.47-4.47A4.55,4.55,0,0,1,178.4,254.78Z"/><path class="cls-1" d="M178.4,309.31c0,2.33-2.31,4.8-4.56,4.62s-4.69-1.68-4.59-4.8a4.58,4.58,0,1,1,9.15.18Z"/><path class="cls-1" d="M178.4,54.55a4.57,4.57,0,1,1-9.14.23c0-2.83,1.75-4.8,4.43-4.9A4.62,4.62,0,0,1,178.4,54.55Z"/><path class="cls-1" d="M169.27,218.07a4.4,4.4,0,0,1,4.51-4.58,4.79,4.79,0,0,1,4.67,4.76c-.24,2.74-2,4.74-4.7,4.68A4.51,4.51,0,0,1,169.27,218.07Z"/><path class="cls-1" d="M178.4,36.35a4.57,4.57,0,1,1-9.14.22,4.58,4.58,0,1,1,9.14-.22Z"/><path class="cls-1" d="M178.4,472.89a4.59,4.59,0,1,1-9.16-.34c.18-2.43,2.24-4.71,4.61-4.52S178.83,470.36,178.4,472.89Z"/><path class="cls-1" d="M178.4,236.48a4.64,4.64,0,0,1-4.71,4.66,4.59,4.59,0,0,1-4.42-4.94c0-2.45,2.21-4.73,4.58-4.53S178.58,233.41,178.4,236.48Z"/><path class="cls-1" d="M173.75,77.2a4.25,4.25,0,0,1-4.48-4.39,4.47,4.47,0,0,1,4.28-4.72A4.51,4.51,0,0,1,178.4,73C178.36,75.58,176.54,77.21,173.75,77.2Z"/><path class="cls-1" d="M178.4,200a4.57,4.57,0,1,1-9.13.17,4.4,4.4,0,0,1,4.65-4.58A4.16,4.16,0,0,1,178.4,200Z"/><path class="cls-1" d="M178.4,436.5A4.57,4.57,0,1,1,174,432,4.27,4.27,0,0,1,178.4,436.5Z"/><path class="cls-1" d="M173.71,331.78a4.39,4.39,0,0,1-4.44-4.54,4.49,4.49,0,0,1,4.75-4.58c2.53,0,4.42,2.11,4.38,4.92C178.36,330.17,176.54,331.8,173.71,331.78Z"/><path class="cls-1" d="M173.87,95.42a4.56,4.56,0,1,1,4.53-4.65A4.23,4.23,0,0,1,173.87,95.42Z"/><path class="cls-1" d="M173.74,450.18c2.81,0,4.62,1.62,4.66,4.23a4.57,4.57,0,1,1-9.13.48A4.23,4.23,0,0,1,173.74,450.18Z"/><path class="cls-1" d="M178.4,181.82a4.57,4.57,0,1,1-9.13.17,4.39,4.39,0,0,1,4.36-4.61A4.44,4.44,0,0,1,178.4,181.82Z"/><path class="cls-1" d="M173.86,113.63A4.56,4.56,0,1,1,178.4,109,4.4,4.4,0,0,1,173.86,113.63Z"/><path class="cls-1" d="M173.89,350a4.56,4.56,0,1,1,4.51-4.47A4.41,4.41,0,0,1,173.89,350Z"/><path class="cls-1" d="M173.66,159.17a4.56,4.56,0,1,1-4.39,4.56A4.37,4.37,0,0,1,173.66,159.17Z"/><path class="cls-1" d="M178.4,363.65a4.44,4.44,0,0,1-4.7,4.56,4.56,4.56,0,1,1,4.7-4.56Z"/><path class="cls-1" d="M178.4,418.27a4.57,4.57,0,1,1-4.42-4.52A4.37,4.37,0,0,1,178.4,418.27Z"/><path class="cls-1" d="M173.81,404.65a4.56,4.56,0,1,1,4.59-4.48A4.41,4.41,0,0,1,173.81,404.65Z"/><path class="cls-1" d="M178.4,127.37a4.57,4.57,0,1,1-4.43-4.64A4.41,4.41,0,0,1,178.4,127.37Z"/><path class="cls-1" d="M178.4,381.8a4.57,4.57,0,1,1-4.58-4.49A4.43,4.43,0,0,1,178.4,381.8Z"/><path class="cls-1" d="M173.85,150.07a4.56,4.56,0,1,1,4.55-4.52A4.42,4.42,0,0,1,173.85,150.07Z"/><path class="cls-1" d="M125.12,489c-.22,1.86-.22,1.9-1.83,1.91-3.39,0-6.78,0-10.18,0h0a1.19,1.19,0,0,1,0-1.44c.67-1.36,1.2-2.84,2.59-3.65,2.53-1.46,5.47-1.8,7.81.82A8.7,8.7,0,0,1,125.12,489Z"/><path class="cls-1" d="M188,327.38c0-2.68,1.47-4.22,4-4.24a3.8,3.8,0,0,1,4.15,4.11c0,2.36-1.9,4.52-4.06,4.43S187.49,329.57,188,327.38Z"/><path class="cls-1" d="M196.16,200.19a3.8,3.8,0,0,1-4.21,4.05c-2.53-.05-4-1.6-4-4.3a4.38,4.38,0,0,1,4.17-4.26A4.43,4.43,0,0,1,196.16,200.19Z"/><path class="cls-1" d="M188,90.89c0-2.63,1.56-4.14,4.14-4.11a3.8,3.8,0,0,1,4,4.23c-.06,2.34-2.06,4.5-4.18,4.3S187.54,93.34,188,90.89Z"/><path class="cls-1" d="M188,454.41a4.41,4.41,0,0,1,4-4.16c2.22,0,4.17,2.16,4.12,4.63a3.77,3.77,0,0,1-4.09,3.94C189.42,458.82,188,457.24,188,454.41Z"/><path class="cls-1" d="M196.16,309.09c0,2.37-2,4.55-4.16,4.37-1.94-.17-4.31-1.88-4.06-4.46s1.67-4.14,4.27-4.08A3.83,3.83,0,0,1,196.16,309.09Z"/><path class="cls-1" d="M188,18.17a4,4,0,0,1,4.14-4.25,4.48,4.48,0,0,1,4,4.47A4.47,4.47,0,0,1,192,22.52,4,4,0,0,1,188,18.17Z"/><path class="cls-1" d="M192,440.6c-2.55,0-4-1.61-4-4.34a4.19,4.19,0,0,1,4.28-4.14c2.14,0,4,2.17,3.89,4.61A3.78,3.78,0,0,1,192,440.6Z"/><path class="cls-1" d="M196.16,254.51a4.49,4.49,0,0,1-4.13,4.38,4,4,0,0,1-4-4.11c-.06-2.71,1.63-4.54,4.14-4.5A4.49,4.49,0,0,1,196.16,254.51Z"/><path class="cls-1" d="M188,36.28a4,4,0,0,1,4.23-4.14,4.17,4.17,0,0,1,3.94,4.5,4.09,4.09,0,1,1-8.17-.36Z"/><path class="cls-1" d="M196.16,272.76A4.47,4.47,0,0,1,192,277.1c-2-.05-4.22-2-4.08-4.17.16-2.66,1.74-4.51,4.23-4.43A4.5,4.5,0,0,1,196.16,272.76Z"/><path class="cls-1" d="M196.16,72.57a4.1,4.1,0,1,1-8.17.49c-.06-2.76,1.37-4.46,3.79-4.5C194.38,68.53,196.13,70.13,196.16,72.57Z"/><path class="cls-1" d="M196.16,218.37c0,2.48-1.69,4.08-4.31,4.08-2.35,0-3.66-1.62-3.92-4.18-.23-2.35,2.15-4.26,4.16-4.35C194.25,213.81,196.16,216,196.16,218.37Z"/><path class="cls-1" d="M192,177.86a4.08,4.08,0,0,1,.19,8.16c-2.69.06-4.23-1.5-4.22-4.29C188,179.22,189.4,177.87,192,177.86Z"/><path class="cls-1" d="M196.16,291.11a4.43,4.43,0,0,1-4.3,4.19c-1.89,0-3.89-2.25-3.87-4.35a4,4,0,0,1,4.13-4.24A4.17,4.17,0,0,1,196.16,291.11Z"/><path class="cls-1" d="M196.16,163.69a3.8,3.8,0,0,1-4.15,4.12c-2.55,0-4-1.56-4-4.25,0-2.5,1.43-3.94,4-3.92S196.15,161.13,196.16,163.69Z"/><path class="cls-1" d="M188,54.51a4,4,0,0,1,4.19-4.15c1.74.06,4.18,1.77,4,4.19a4.56,4.56,0,0,1-4.43,4.39C189.87,58.87,188,56.62,188,54.51Z"/><path class="cls-1" d="M188,345.55c0-2.67,1.5-4.19,4.07-4.19a3.79,3.79,0,0,1,4.1,4.16c0,2.62-1.66,4.06-4.5,4C189.34,349.47,188,348,188,345.55Z"/><path class="cls-1" d="M188,472.79c-.5-2.19,2.06-4.22,4.13-4.29s3.93,2.1,4.07,4.46-2.34,4.17-4.13,4.05C189.46,476.84,187.86,475.53,188,472.79Z"/><path class="cls-1" d="M188,418a3.54,3.54,0,0,1,3.89-3.75c2.78,0,4.34,1.54,4.28,4.22a3.79,3.79,0,0,1-4.09,3.95C189.42,422.39,188,420.8,188,418Z"/><path class="cls-1" d="M196.16,236.5c.3,2.38-2.29,4.12-4,4.16a4,4,0,0,1-4.16-4.19c0-2.1,1.92-4.35,3.81-4.39A4.43,4.43,0,0,1,196.16,236.5Z"/><path class="cls-1" d="M192.08,105a3.8,3.8,0,0,1,4.08,4.19c0,2.53-1.6,4-4.29,4-2.5,0-3.92-1.46-3.88-4S189.51,105,192.08,105Z"/><path class="cls-1" d="M192,359.57a3.8,3.8,0,0,1,4.13,4.14c0,2.55-1.56,4-4.24,4A3.53,3.53,0,0,1,188,364C187.94,361.19,189.39,359.59,192,359.57Z"/><path class="cls-1" d="M192,141.43a4.08,4.08,0,1,1,.15,8.16c-2.6,0-4.11-1.49-4.14-4.16A3.71,3.71,0,0,1,192,141.43Z"/><path class="cls-1" d="M188,127.34c0-2.65,1.57-4.17,4.17-4.13a4.08,4.08,0,1,1-.21,8.16A3.71,3.71,0,0,1,188,127.34Z"/><path class="cls-1" d="M196.16,381.87a4.09,4.09,0,1,1-4-4.08A3.8,3.8,0,0,1,196.16,381.87Z"/><path class="cls-1" d="M196.16,400.17a4.09,4.09,0,1,1-3.89-4.16A3.81,3.81,0,0,1,196.16,400.17Z"/><path class="cls-1" d="M142.88,490.94h-11c.31-4.59,4.56-7,8.55-4.84,1.41.75,1.8,2.17,2.49,3.4a1.2,1.2,0,0,1,0,1.44Z"/><path class="cls-1" d="M213.92,18.15a3.77,3.77,0,0,1-3.83,3.93c-1.93.07-3.79-2.16-3.81-3.91a4.13,4.13,0,0,1,3.9-3.78A3.68,3.68,0,0,1,213.92,18.15Z"/><path class="cls-1" d="M213.92,309.13a3.71,3.71,0,0,1-3.57,3.93,4.58,4.58,0,0,1-4.09-3.73,4,4,0,0,1,4-3.93A3.51,3.51,0,0,1,213.92,309.13Z"/><path class="cls-1" d="M213.92,181.85c0,2.48-1.17,3.7-3.63,3.7-2.75,0-3.74-1.57-4-3.58-.19-1.84,1.94-4.15,3.7-4C212.06,178.07,213.92,179,213.92,181.85Z"/><path class="cls-1" d="M213.92,472.68c0,2.32-1.39,3.86-3.56,3.88a3.92,3.92,0,0,1-4.1-3.79c0-1.72,2.1-3.81,4-3.87A3.68,3.68,0,0,1,213.92,472.68Z"/><path class="cls-1" d="M213.92,454.74a3.53,3.53,0,0,1-3.58,3.61c-2.66,0-3.8-1.46-4-3.77-.19-1.81,2.19-4,4.11-3.9A3.75,3.75,0,0,1,213.92,454.74Z"/><path class="cls-1" d="M213.92,218.13a3.51,3.51,0,0,1-3.58,3.85,3.93,3.93,0,0,1-4.08-3.82c0-1.72,2.14-3.8,4-3.84A3.7,3.7,0,0,1,213.92,218.13Z"/><path class="cls-1" d="M213.92,291.09a3.69,3.69,0,0,1-3.75,3.75c-1.85-.08-4-2.19-3.9-3.91a3.89,3.89,0,0,1,4.13-3.75C212.54,287.22,213.94,288.77,213.92,291.09Z"/><path class="cls-1" d="M213.92,145.51a3.65,3.65,0,0,1-3.66,3.92c-1.68.1-3.89-2-4-3.83a4.2,4.2,0,0,1,3.73-4A3.72,3.72,0,0,1,213.92,145.51Z"/><path class="cls-1" d="M213.92,272.68a3.72,3.72,0,0,1-3.54,3.95,4.33,4.33,0,0,1-4.11-3.87,4.19,4.19,0,0,1,3.88-3.79A3.68,3.68,0,0,1,213.92,272.68Z"/><path class="cls-1" d="M210.23,421.91a3.67,3.67,0,0,1-3.94-3.62c0-2,2.09-4.16,4.06-4a3.56,3.56,0,0,1,3.57,3.95C213.91,420.73,212.7,421.94,210.23,421.91Z"/><path class="cls-1" d="M213.92,54.48a3.74,3.74,0,0,1-3.56,4c-1.92,0-4.18-2.14-4.09-3.94a3.88,3.88,0,0,1,4.14-3.72A3.5,3.5,0,0,1,213.92,54.48Z"/><path class="cls-1" d="M213.92,254.68a3.67,3.67,0,0,1-3.76,3.73,4.21,4.21,0,0,1-3.9-3.79,4.57,4.57,0,0,1,3.86-3.87A3.68,3.68,0,0,1,213.92,254.68Z"/><path class="cls-1" d="M213.92,200.17a3.51,3.51,0,0,1-3.58,3.59,3.9,3.9,0,0,1-4.07-3.79c0-1.8,2.26-3.94,4.16-3.87A3.76,3.76,0,0,1,213.92,200.17Z"/><path class="cls-1" d="M213.92,400c0,2.48-1.1,3.66-3.61,3.71a3.64,3.64,0,0,1-4-3.47,4.27,4.27,0,0,1,3.9-4.13A3.87,3.87,0,0,1,213.92,400Z"/><path class="cls-1" d="M213.92,436.45a3.52,3.52,0,0,1-3.5,3.68c-2.79.08-4-1.59-4.12-3.91-.11-1.64,2.14-3.84,3.77-3.71C212.16,432.68,213.92,433.63,213.92,436.45Z"/><path class="cls-1" d="M213.92,381.8a3.85,3.85,0,0,1-3.54,4.08,4.32,4.32,0,0,1-4.08-4,3.62,3.62,0,0,1,3.6-3.65C212.65,378.21,213.89,379.3,213.92,381.8Z"/><path class="cls-1" d="M213.92,72.81a3.73,3.73,0,0,1-3.67,3.89c-1.83,0-4-2.09-4-3.82A3.92,3.92,0,0,1,210.52,69,3.54,3.54,0,0,1,213.92,72.81Z"/><path class="cls-1" d="M213.92,236.26a3.69,3.69,0,0,1-3.78,3.94,3.88,3.88,0,0,1-3.87-3.76c-.06-1.7,2-3.81,3.89-3.9A3.69,3.69,0,0,1,213.92,236.26Z"/><path class="cls-1" d="M210.1,123.69c2.6,0,3.78,1.08,3.82,3.5a3.81,3.81,0,0,1-3.74,4.1,4.33,4.33,0,0,1-3.88-3.92A3.63,3.63,0,0,1,210.1,123.69Z"/><path class="cls-1" d="M210.42,105.47q3.62.06,3.5,3.81a3.63,3.63,0,0,1-3.75,3.79c-2-.12-3.95-2-3.83-3.92A3.58,3.58,0,0,1,210.42,105.47Z"/><path class="cls-1" d="M213.92,36.43a3.7,3.7,0,0,1-3.63,3.83c-1.82,0-4-2-4-3.76A4.21,4.21,0,0,1,210,32.6,3.7,3.7,0,0,1,213.92,36.43Z"/><path class="cls-1" d="M213.92,363.56a3.81,3.81,0,0,1-3.49,4.09,4.29,4.29,0,0,1-4.12-3.89,3.63,3.63,0,0,1,3.82-3.71C212.61,360,213.88,361.16,213.92,363.56Z"/><path class="cls-1" d="M213.92,345.52a3.67,3.67,0,0,1-3.61,3.93c-1.86,0-4.13-2-4-3.74.16-2.34,1.34-4,4.14-3.88A3.51,3.51,0,0,1,213.92,345.52Z"/><path class="cls-1" d="M213.92,91c0,2.85-1.86,3.74-3.89,3.89-1.62.11-3.73-2.11-3.77-3.73a3.92,3.92,0,0,1,4.22-3.89A3.53,3.53,0,0,1,213.92,91Z"/><path class="cls-1" d="M213.92,163.72q0,3.66-3.69,3.61a3.67,3.67,0,0,1-3.94-3.61,4.36,4.36,0,0,1,4-4A3.87,3.87,0,0,1,213.92,163.72Z"/><path class="cls-1" d="M213.92,327.36c0,2.83-1.88,3.74-3.9,3.87-1.63.1-3.73-2.13-3.75-3.75a3.91,3.91,0,0,1,4.23-3.87A3.54,3.54,0,0,1,213.92,327.36Z"/><path class="cls-1" d="M160.63,490.94H150.56a5,5,0,1,1,10.07,0Z"/><path class="cls-1" d="M225,181.94a3.71,3.71,0,0,1,3.7-3.58,3.67,3.67,0,0,1,3.43,3.6c0,1.54-2.12,3.56-3.64,3.51A3.66,3.66,0,0,1,225,181.94Z"/><path class="cls-1" d="M228.58,160.14a3.88,3.88,0,0,1,3.51,3.57c0,1.59-2.18,3.63-3.84,3.58a3.58,3.58,0,0,1,.33-7.15Z"/><path class="cls-1" d="M228.57,396.5c1.57,0,3.58,2.12,3.51,3.67a4.38,4.38,0,0,1-3.73,3.48,3.58,3.58,0,0,1,.22-7.15Z"/><path class="cls-1" d="M225,418.2a3.72,3.72,0,0,1,3.61-3.48,3.67,3.67,0,0,1,3.52,3.55c0,1.49-2.24,3.64-3.7,3.56A3.64,3.64,0,0,1,225,418.2Z"/><path class="cls-1" d="M228.63,112.66a3.72,3.72,0,0,1-3.66-3.41,3.64,3.64,0,0,1,3.6-3.71,4.13,4.13,0,0,1,3.44,3.73A3.53,3.53,0,0,1,228.63,112.66Z"/><path class="cls-1" d="M228.54,130.88a3.58,3.58,0,0,1-.17-7.16,4.3,4.3,0,0,1,3.63,3.86A3.51,3.51,0,0,1,228.54,130.88Z"/><path class="cls-1" d="M225,200.06a3.68,3.68,0,0,1,3.52-3.49,3.49,3.49,0,0,1,3.53,3.49c-.1,1.7-2.08,3.7-3.6,3.62A3.64,3.64,0,0,1,225,200.06Z"/><path class="cls-1" d="M228.55,385.46a3.58,3.58,0,0,1-.19-7.16c1.62,0,3.68,2,3.73,3.51A4.27,4.27,0,0,1,228.55,385.46Z"/><path class="cls-1" d="M228.44,349a3.72,3.72,0,0,1-3.48-3.61,3.67,3.67,0,0,1,3.56-3.51c1.49,0,3.64,2.24,3.55,3.7A3.64,3.64,0,0,1,228.44,349Z"/><path class="cls-1" d="M228.59,367.24a3.58,3.58,0,0,1-.26-7.15,4.14,4.14,0,0,1,3.68,3.75A3.69,3.69,0,0,1,228.59,367.24Z"/><path class="cls-1" d="M228.5,21.58A3.25,3.25,0,0,1,225,18.25c0-2.2,1.3-3.43,3.67-3.39a3.46,3.46,0,0,1,3.38,3.3A3.46,3.46,0,0,1,228.5,21.58Z"/><path class="cls-1" d="M228.5,330.8a3.68,3.68,0,0,1-3.54-3.45,3.49,3.49,0,0,1,3.41-3.58,4,4,0,0,1,3.64,3.78A3.52,3.52,0,0,1,228.5,330.8Z"/><path class="cls-1" d="M225,145.51a3.75,3.75,0,0,1,3.24-3.57c1.67-.08,3.9,2,3.89,3.57s-2.21,3.65-3.89,3.56A3.73,3.73,0,0,1,225,145.51Z"/><path class="cls-1" d="M225,436.46a3.7,3.7,0,0,1,3.54-3.52,3.82,3.82,0,0,1,3.59,3.53c0,1.44-2.2,3.63-3.66,3.58A3.66,3.66,0,0,1,225,436.46Z"/><path class="cls-1" d="M228.59,69.29A3.85,3.85,0,0,1,232,73a3.51,3.51,0,0,1-3.71,3.27A3.56,3.56,0,0,1,225,72.89,3.47,3.47,0,0,1,228.59,69.29Z"/><path class="cls-1" d="M228.46,33.08c1.78-.32,3.35,1.2,3.52,3.36a3.35,3.35,0,0,1-3.28,3.36A3.51,3.51,0,0,1,225,36.38C225,34.28,226.22,33.1,228.46,33.08Z"/><path class="cls-1" d="M228.42,269.44c1.89-.31,3.36,1.24,3.56,3.33a3.35,3.35,0,0,1-3.25,3.39,3.48,3.48,0,0,1-3.77-3.38C225,270.67,226.2,269.48,228.42,269.44Z"/><path class="cls-1" d="M225,454.57a3.53,3.53,0,0,1,7,0A3.75,3.75,0,0,1,228.4,458,3.33,3.33,0,0,1,225,454.57Z"/><path class="cls-1" d="M228.53,221.51c-2.26,0-3.52-1.14-3.57-3.23a3.49,3.49,0,0,1,3.42-3.49,3.64,3.64,0,0,1,3.71,3.58C232.08,219.92,230.27,221.51,228.53,221.51Z"/><path class="cls-1" d="M228.46,257.94c-2.24,0-3.48-1.19-3.5-3.3a3.51,3.51,0,0,1,3.73-3.42,3.35,3.35,0,0,1,3.29,3.35C231.81,256.72,230.25,258.26,228.46,257.94Z"/><path class="cls-1" d="M228.47,94.44a3.7,3.7,0,0,1-3.5-3.78,3.51,3.51,0,0,1,3.48-3.26A4,4,0,0,1,232,91.24,3.52,3.52,0,0,1,228.47,94.44Z"/><path class="cls-1" d="M228.56,51.29A3.47,3.47,0,0,1,232,54.74,3.51,3.51,0,0,1,228.32,58a3.55,3.55,0,0,1-3.36-3.3C224.91,52.51,226.21,51.28,228.56,51.29Z"/><path class="cls-1" d="M228.39,476.09c-2.21-.06-3.44-1.26-3.43-3.36a3.44,3.44,0,0,1,3.53-3.36c2,.07,3.7,1.63,3.49,3.44C231.73,474.9,230.32,476.38,228.39,476.09Z"/><path class="cls-1" d="M228.42,239.72c-2.22,0-3.45-1.22-3.46-3.32a3.52,3.52,0,0,1,3.5-3.4c2,.06,3.71,1.61,3.52,3.42C231.76,238.52,230.3,240,228.42,239.72Z"/><path class="cls-1" d="M228.65,305.87a3.47,3.47,0,0,1,3.36,3.3,3.53,3.53,0,0,1-7,0C225,307,226.29,305.83,228.65,305.87Z"/><path class="cls-1" d="M228.56,287.65A3.47,3.47,0,0,1,232,291.1a3.53,3.53,0,0,1-7,0C224.92,288.87,226.21,287.64,228.56,287.65Z"/><path class="cls-1" d="M178.39,490.94h-9.12a.68.68,0,0,1,0-1,4.74,4.74,0,0,1,2.53-3.18C174.94,485.19,178.8,487.88,178.39,490.94Z"/><path class="cls-1" d="M243.67,36.22a2.94,2.94,0,0,1,2.88-3.11,3.7,3.7,0,0,1,3.34,3.44,3.56,3.56,0,0,1-3.4,3.09C244.71,39.59,243.66,38.33,243.67,36.22Z"/><path class="cls-1" d="M243.67,145.42a2.79,2.79,0,0,1,2.89-3,3.12,3.12,0,1,1,.06,6.23C244.77,148.64,243.64,147.41,243.67,145.42Z"/><path class="cls-1" d="M243.67,54.37a2.93,2.93,0,0,1,2.93-3,3.75,3.75,0,0,1,3.28,3.24,3.49,3.49,0,0,1-3.4,3.29A3.16,3.16,0,0,1,243.67,54.37Z"/><path class="cls-1" d="M246.69,233.16a3.52,3.52,0,0,1,3.19,3.27,3.71,3.71,0,0,1-3.49,3.26,3,3,0,0,1-2.72-3.25A3.16,3.16,0,0,1,246.69,233.16Z"/><path class="cls-1" d="M249.89,382.12a3.14,3.14,0,0,1-3.65,2.86c-1.74-.15-2.74-1.54-2.57-3.57a2.82,2.82,0,0,1,3.25-2.65A3.24,3.24,0,0,1,249.89,382.12Z"/><path class="cls-1" d="M243.67,18.15a3,3,0,0,1,3.07-3.23,3.71,3.71,0,0,1,3.14,3.36,3.64,3.64,0,0,1-3.26,3.21A3,3,0,0,1,243.67,18.15Z"/><path class="cls-1" d="M243.67,127.16a2.78,2.78,0,0,1,3-3,3.57,3.57,0,0,1,3.26,3.18,3.12,3.12,0,0,1-3.53,3C244.66,130.31,243.62,129.06,243.67,127.16Z"/><path class="cls-1" d="M243.67,272.91a3,3,0,0,1,2.94-3.39,3.65,3.65,0,0,1,3.28,3.25,3.74,3.74,0,0,1-3,3.31A3.36,3.36,0,0,1,243.67,272.91Z"/><path class="cls-1" d="M246.6,397a3.08,3.08,0,0,1,3.3,3,3.58,3.58,0,0,1-3.26,3.19c-1.85,0-3-1.2-3-3.21A2.79,2.79,0,0,1,246.6,397Z"/><path class="cls-1" d="M246.49,287.69a3.77,3.77,0,0,1,3.4,3.16,3.53,3.53,0,0,1-3.14,3.37,3.18,3.18,0,0,1-3.08-3A3.1,3.1,0,0,1,246.49,287.69Z"/><path class="cls-1" d="M243.67,254.63a3.12,3.12,0,0,1,2.83-3.26,3.52,3.52,0,0,1,3.38,3.11,3.72,3.72,0,0,1-3.12,3.4A3,3,0,0,1,243.67,254.63Z"/><path class="cls-1" d="M243.67,472.9c0-2.13.91-3,3-3.06a2.94,2.94,0,0,1,3.17,2.81,3.69,3.69,0,0,1-3.37,3.4A3,3,0,0,1,243.67,472.9Z"/><path class="cls-1" d="M246.74,312.12c-2.14,0-3.05-.91-3.07-3a2.94,2.94,0,0,1,2.81-3.17,3.69,3.69,0,0,1,3.4,3.37A2.93,2.93,0,0,1,246.74,312.12Z"/><path class="cls-1" d="M246.69,366.77a2.77,2.77,0,0,1-3-2.91,2.94,2.94,0,0,1,2.92-3.31,3.56,3.56,0,0,1,3.31,3.11A3.06,3.06,0,0,1,246.69,366.77Z"/><path class="cls-1" d="M246.49,160.61a3.09,3.09,0,0,1,3.41,3.15,3.66,3.66,0,0,1-3.11,3.08,3,3,0,0,1-3.12-2.89C243.59,161.91,244.65,160.65,246.49,160.61Z"/><path class="cls-1" d="M246.51,433.41a3.08,3.08,0,0,1,3.39,2.93,3.58,3.58,0,0,1-3.13,3.29,3,3,0,0,1-3.1-3.14A2.77,2.77,0,0,1,246.51,433.41Z"/><path class="cls-1" d="M246.74,75.76c-2.14,0-3.05-.91-3.07-3a2.94,2.94,0,0,1,2.8-3.18,3.68,3.68,0,0,1,3.41,3.36A2.93,2.93,0,0,1,246.74,75.76Z"/><path class="cls-1" d="M246.77,106A3.65,3.65,0,0,1,249.9,109a3.08,3.08,0,0,1-3.39,3.17,2.78,2.78,0,0,1-2.84-3.09A3,3,0,0,1,246.77,106Z"/><path class="cls-1" d="M246.9,197a3,3,0,0,1,3,3,3.7,3.7,0,0,1-3.27,3.22,3,3,0,0,1-3-3.29C243.73,198,244.87,197,246.9,197Z"/><path class="cls-1" d="M243.67,418.36c0-2,1.12-3.2,3-3.17a3,3,0,0,1,3.23,2.81,3.74,3.74,0,0,1-3,3.42A3,3,0,0,1,243.67,418.36Z"/><path class="cls-1" d="M246.37,348.55c-1.76-.09-2.82-1.44-2.7-3.45a3,3,0,0,1,3.2-2.77,3.73,3.73,0,0,1,3,3.45A3.12,3.12,0,0,1,246.37,348.55Z"/><path class="cls-1" d="M243.67,327.09a3,3,0,0,1,3-3,3.77,3.77,0,0,1,3.21,3.31,3,3,0,0,1-3.3,2.91C244.66,330.27,243.62,329.12,243.67,327.09Z"/><path class="cls-1" d="M243.67,454.71a2.81,2.81,0,0,1,3.07-3.09,2.94,2.94,0,0,1,3.14,2.82,3.68,3.68,0,0,1-3.37,3.39A2.93,2.93,0,0,1,243.67,454.71Z"/><path class="cls-1" d="M246.79,215.26a2.93,2.93,0,0,1,3.09,2.88,3.68,3.68,0,0,1-3.42,3.33,2.94,2.94,0,0,1-2.79-3.18A2.79,2.79,0,0,1,246.79,215.26Z"/><path class="cls-1" d="M246.78,185.05a3,3,0,0,1-3.11-3.11,2.77,2.77,0,0,1,2.8-3.11,3.06,3.06,0,0,1,3.41,2.86A3.71,3.71,0,0,1,246.78,185.05Z"/><path class="cls-1" d="M246.7,94a2.76,2.76,0,0,1-3-2.88,3,3,0,0,1,3.11-3.34,3.71,3.71,0,0,1,3.1,3.36A3,3,0,0,1,246.7,94Z"/><path class="cls-1" d="M196.15,490.94H188a.69.69,0,0,1,0-1c1.7-3.83,4.9-4.43,7.48-1.44A3.14,3.14,0,0,1,196.15,490.94Z"/><path class="cls-1" d="M267.67,54.72a2.91,2.91,0,0,1-2.94,2.78,3.06,3.06,0,0,1-2.79-3,2.9,2.9,0,0,1,3-2.72A2.76,2.76,0,0,1,267.67,54.72Z"/><path class="cls-1" d="M267.67,472.75a2.76,2.76,0,0,1-2.82,2.85,2.92,2.92,0,0,1-2.91-2.82,3,3,0,0,1,2.88-2.91A2.91,2.91,0,0,1,267.67,472.75Z"/><path class="cls-1" d="M267.67,272.72a2.91,2.91,0,0,1-2.84,2.93,2.86,2.86,0,1,1,.17-5.72A2.76,2.76,0,0,1,267.67,272.72Z"/><path class="cls-1" d="M264.78,221a2.91,2.91,0,0,1-2.84-2.92,2.87,2.87,0,1,1,5.73.34A2.79,2.79,0,0,1,264.78,221Z"/><path class="cls-1" d="M265,288.15a2.77,2.77,0,0,1,2.64,3,2.93,2.93,0,0,1-3,2.71,2.86,2.86,0,1,1,.35-5.71Z"/><path class="cls-1" d="M267.67,327.25a2.87,2.87,0,1,1-5.73.16,2.9,2.9,0,0,1,2.94-2.83A2.76,2.76,0,0,1,267.67,327.25Z"/><path class="cls-1" d="M264.89,306.36a2.76,2.76,0,0,1,2.78,2.69,2.87,2.87,0,1,1-5.73.13A2.91,2.91,0,0,1,264.89,306.36Z"/><path class="cls-1" d="M267.67,200.06A2.77,2.77,0,0,1,265,202.8a2.91,2.91,0,0,1-3.06-2.88,3.09,3.09,0,0,1,2.69-2.84A3,3,0,0,1,267.67,200.06Z"/><path class="cls-1" d="M265,33.57a2.78,2.78,0,0,1,2.68,3,2.92,2.92,0,0,1-2.95,2.76,3.09,3.09,0,0,1-2.78-2.75A3,3,0,0,1,265,33.57Z"/><path class="cls-1" d="M267.67,454.68a2.77,2.77,0,0,1-2.77,2.7,2.91,2.91,0,0,1-3-2.8,2.87,2.87,0,1,1,5.73.1Z"/><path class="cls-1" d="M267.67,254.66a2.76,2.76,0,0,1-2.68,2.79,2.86,2.86,0,1,1-.15-5.72A2.89,2.89,0,0,1,267.67,254.66Z"/><path class="cls-1" d="M264.85,70a2.77,2.77,0,0,1,2.82,2.59,2.87,2.87,0,1,1-5.73.2A2.91,2.91,0,0,1,264.85,70Z"/><path class="cls-1" d="M267.67,236.46a2.77,2.77,0,0,1-2.64,2.77,2.87,2.87,0,1,1-.11-5.72A2.9,2.9,0,0,1,267.67,236.46Z"/><path class="cls-1" d="M267.67,18.23a2.91,2.91,0,0,1-2.9,2.84,3.08,3.08,0,0,1-2.83-2.74,3,3,0,0,1,2.85-3A2.9,2.9,0,0,1,267.67,18.23Z"/><path class="cls-1" d="M267.67,436.4a2.76,2.76,0,0,1-2.66,2.76,2.91,2.91,0,0,1-3.07-2.88c0-1.15,1.9-2.84,3.13-2.81A3,3,0,0,1,267.67,436.4Z"/><path class="cls-1" d="M264.82,166.37a2.92,2.92,0,0,1-2.88-2.84,3.63,3.63,0,0,1,2.86-2.77,2.87,2.87,0,0,1,2.87,2.87C267.72,165.33,266.64,166.36,264.82,166.37Z"/><path class="cls-1" d="M264.73,379.23c1.83,0,2.94,1,2.94,2.65a2.91,2.91,0,0,1-2.78,3,3.68,3.68,0,0,1-2.95-2.68A2.93,2.93,0,0,1,264.73,379.23Z"/><path class="cls-1" d="M267.67,181.92a2.76,2.76,0,0,1-3,2.66,2.92,2.92,0,0,1-2.74-2.74c-.05-1.15,1.7-2.87,3-2.94A3,3,0,0,1,267.67,181.92Z"/><path class="cls-1" d="M264.86,124.65a2.76,2.76,0,0,1,2.81,2.61,2.92,2.92,0,0,1-2.75,3,3.49,3.49,0,0,1-3-3.13A2.81,2.81,0,0,1,264.86,124.65Z"/><path class="cls-1" d="M267.66,91a3,3,0,0,1-2.63,2.9c-1.24,0-3.08-1.69-3.09-2.85a2.91,2.91,0,0,1,3.1-2.84A2.73,2.73,0,0,1,267.66,91Z"/><path class="cls-1" d="M267.66,109.33a2.89,2.89,0,0,1-3.06,2.7c-1.25-.17-2.77-1.9-2.64-3a2.85,2.85,0,0,1,3.15-2.59A2.74,2.74,0,0,1,267.66,109.33Z"/><path class="cls-1" d="M264.91,342.79a2.77,2.77,0,0,1,2.76,2.71,2.9,2.9,0,0,1-2.88,2.91,3.65,3.65,0,0,1-2.85-2.83A2.91,2.91,0,0,1,264.91,342.79Z"/><path class="cls-1" d="M264.74,421a3,3,0,0,1-2.8-3,3.63,3.63,0,0,1,3-2.64,2.9,2.9,0,0,1,2.7,3.08A2.81,2.81,0,0,1,264.74,421Z"/><path class="cls-1" d="M267.67,363.75a2.87,2.87,0,0,1-2.91,2.87c-1.19-.06-2.86-1.75-2.82-2.85a2.9,2.9,0,0,1,3-2.76A2.77,2.77,0,0,1,267.67,363.75Z"/><path class="cls-1" d="M265.13,397.44a2.4,2.4,0,0,1,2.53,2.73c-.05,1.67-1.21,2.65-3,2.56a3,3,0,0,1-2.68-2.82C261.93,398.52,263.37,397.4,265.13,397.44Z"/><path class="cls-1" d="M267.67,145.49a2.52,2.52,0,0,1-2.72,2.66,2.65,2.65,0,1,1-.27-5.28C266.52,142.8,267.66,143.81,267.67,145.49Z"/><path class="cls-1" d="M213.91,490.94c-1.95,0-3.91,0-5.87,0-1,0-1.38-.52-1.33-1.45a11.91,11.91,0,0,1,.88-1.11c1.08-1.06,2.35-1.68,3.86-1S214.16,489,213.91,490.94Z"/><path class="cls-1" d="M285.44,363.69a2.41,2.41,0,1,1-4.81.25,2.76,2.76,0,0,1,2.49-2.89C284.59,361.08,285.45,362.06,285.44,363.69Z"/><path class="cls-1" d="M285.44,145.54a2.31,2.31,0,0,1-2.45,2.57,2.62,2.62,0,0,1,.07-5.21A2.32,2.32,0,0,1,285.44,145.54Z"/><path class="cls-1" d="M285.44,382a2.36,2.36,0,0,1-2.52,2.5,2.62,2.62,0,0,1,.21-5.22C284.64,379.32,285.47,380.3,285.44,382Z"/><path class="cls-1" d="M285.44,109.3a2.41,2.41,0,0,1-4.81,0,2.76,2.76,0,0,1,2.54-2.87C284.55,106.54,285.45,107.66,285.44,109.3Z"/><path class="cls-1" d="M285.44,163.75a2.29,2.29,0,0,1-2.42,2.58,2.81,2.81,0,0,1-2.38-2.55,2.46,2.46,0,0,1,2.43-2.66A2.31,2.31,0,0,1,285.44,163.75Z"/><path class="cls-1" d="M285.44,400.09a2.34,2.34,0,0,1-2.4,2.61,2.81,2.81,0,0,1-2.4-2.53,2.47,2.47,0,0,1,2.41-2.69A2.31,2.31,0,0,1,285.44,400.09Z"/><path class="cls-1" d="M285.44,127.23c0,1.65-.83,2.62-2.33,2.67a2.46,2.46,0,0,1-2.47-2.63,2.84,2.84,0,0,1,2.34-2.59A2.36,2.36,0,0,1,285.44,127.23Z"/><path class="cls-1" d="M285.44,418c0,1.53-1.19,3-2.48,2.91a2.86,2.86,0,0,1-2.33-2.83A2.26,2.26,0,0,1,283,415.7,2.31,2.31,0,0,1,285.44,418Z"/><path class="cls-1" d="M285.44,218.06a2.73,2.73,0,0,1-2.33,2.81,2.7,2.7,0,0,1-2.48-2.65c0-1.59.69-2.39,2.21-2.47C284.51,215.66,285.4,216.45,285.44,218.06Z"/><path class="cls-1" d="M285.44,309.18a2.41,2.41,0,0,1-4.81.12,2.74,2.74,0,0,1,2.34-2.8A2.71,2.71,0,0,1,285.44,309.18Z"/><path class="cls-1" d="M280.63,345.7a2.86,2.86,0,0,1,2.29-2.87c1.28-.09,2.54,1.34,2.52,2.87a2.41,2.41,0,0,1-4.81,0Z"/><path class="cls-1" d="M285.44,236.45a2.43,2.43,0,1,1-4.81-.19A2.11,2.11,0,0,1,283,234C284.69,234,285.47,234.76,285.44,236.45Z"/><path class="cls-1" d="M285.44,54.57c0,1.69-.76,2.5-2.44,2.48a2.1,2.1,0,0,1-2.37-2.3A2.73,2.73,0,0,1,283,51.93,2.7,2.7,0,0,1,285.44,54.57Z"/><path class="cls-1" d="M283.06,75.27c-1.67,0-2.46-.8-2.43-2.49a2.72,2.72,0,0,1,2.5-2.64,2.76,2.76,0,0,1,2.31,2.6A2.14,2.14,0,0,1,283.06,75.27Z"/><path class="cls-1" d="M283.11,452.11c1.61,0,2.41.92,2.33,2.59a2.77,2.77,0,0,1-2.36,2.54,2.72,2.72,0,0,1-2.45-2.69A2.12,2.12,0,0,1,283.11,452.11Z"/><path class="cls-1" d="M280.63,472.81c0-1.69.76-2.5,2.44-2.48a2.1,2.1,0,0,1,2.37,2.3,2.43,2.43,0,1,1-4.81.18Z"/><path class="cls-1" d="M280.63,181.61a2.31,2.31,0,0,1,2.51-2.27,2.26,2.26,0,0,1,2.3,2.47c0,1.31-1.19,2.71-2.23,2.71A2.87,2.87,0,0,1,280.63,181.61Z"/><path class="cls-1" d="M285.44,327.43c0,1.58-.83,2.46-2.3,2.41a2.29,2.29,0,0,1-2.51-2.28,2.75,2.75,0,0,1,2.34-2.84A2.71,2.71,0,0,1,285.44,327.43Z"/><path class="cls-1" d="M285.44,436.38c0,1.29-1.19,2.72-2.21,2.72a2.86,2.86,0,0,1-2.6-2.89,2.32,2.32,0,0,1,2.49-2.3A2.28,2.28,0,0,1,285.44,436.38Z"/><path class="cls-1" d="M285.44,199.91a2.43,2.43,0,1,1-4.81-.06,2.28,2.28,0,0,1,2.48-2.31A2.1,2.1,0,0,1,285.44,199.91Z"/><path class="cls-1" d="M285.44,272.72A2.13,2.13,0,0,1,283,275.2a2.1,2.1,0,0,1-2.36-2.33c0-1.69.75-2.49,2.45-2.47A2.09,2.09,0,0,1,285.44,272.72Z"/><path class="cls-1" d="M283.13,293.41c-1.7,0-2.51-.74-2.5-2.42a2.41,2.41,0,1,1,2.5,2.42Z"/><path class="cls-1" d="M283.14,38.84a2.14,2.14,0,0,1-2.51-2.42,2.41,2.41,0,0,1,4.81,0A2.1,2.1,0,0,1,283.14,38.84Z"/><path class="cls-1" d="M285.44,91.3a2.39,2.39,0,0,1-2.59,2.16,2.26,2.26,0,0,1-2.22-2.54,2.71,2.71,0,0,1,2.59-2.55A2.76,2.76,0,0,1,285.44,91.3Z"/><path class="cls-1" d="M285.44,18.16c0,1.69-.76,2.48-2.46,2.46a2.11,2.11,0,0,1-2.35-2.34c0-1.7.76-2.49,2.46-2.46A2.1,2.1,0,0,1,285.44,18.16Z"/><path class="cls-1" d="M283.05,257a2.13,2.13,0,0,1-2.42-2.51,2.11,2.11,0,0,1,2.39-2.29,2.14,2.14,0,0,1,2.42,2.51A2.1,2.1,0,0,1,283.05,257Z"/><path class="cls-1" d="M231.8,490.94c-2,0-3.83.05-5.71,0-1.08,0-1.32-.52-.85-1.37a3.83,3.83,0,0,1,4.21-1.92A3.06,3.06,0,0,1,231.8,490.94Z"/><path class="cls-1" d="M301.28,343.29a2.43,2.43,0,0,1,2.37,2.5,2.81,2.81,0,0,1-2.55,2.13,2.67,2.67,0,0,1-2.19-2.48A2.14,2.14,0,0,1,301.28,343.29Z"/><path class="cls-1" d="M303.64,36.39a2.86,2.86,0,0,1-2.22,2.41,2.74,2.74,0,0,1-2.52-2.35,2.48,2.48,0,0,1,2.19-2.38A2.76,2.76,0,0,1,303.64,36.39Z"/><path class="cls-1" d="M303.64,254.47a2.83,2.83,0,0,1-2.2,2.48,2.75,2.75,0,0,1-2.54-2.38,2.37,2.37,0,0,1,4.74-.1Z"/><path class="cls-1" d="M303.64,72.73a2.69,2.69,0,0,1-2.25,2.4A2.76,2.76,0,0,1,298.9,73,2.47,2.47,0,0,1,301,70.51,2.44,2.44,0,0,1,303.64,72.73Z"/><path class="cls-1" d="M301.34,270.43a2.82,2.82,0,0,1,2.3,2.38,2.75,2.75,0,0,1-2.56,2.36,2.89,2.89,0,0,1-2.18-2.5A2.86,2.86,0,0,1,301.34,270.43Z"/><path class="cls-1" d="M303.64,91.16A2.37,2.37,0,0,1,298.9,91a2.37,2.37,0,0,1,4.74.19Z"/><path class="cls-1" d="M303.64,436.39a2.37,2.37,0,0,1-4.74-.15,2.75,2.75,0,0,1,2.45-2.21A2.71,2.71,0,0,1,303.64,436.39Z"/><path class="cls-1" d="M303.64,18.25a2.81,2.81,0,0,1-2.34,2.34,2.75,2.75,0,0,1-2.4-2.53,2.37,2.37,0,0,1,4.74.19Z"/><path class="cls-1" d="M301.2,311.49a2.71,2.71,0,0,1-2.3-2.35,2.37,2.37,0,0,1,4.74.14A2.72,2.72,0,0,1,301.2,311.49Z"/><path class="cls-1" d="M303.65,454.46a2.38,2.38,0,0,1-4.75.14,2.71,2.71,0,0,1,2.3-2.35A2.74,2.74,0,0,1,303.65,454.46Z"/><path class="cls-1" d="M298.9,218.24a2.37,2.37,0,0,1,4.74-.14,2.37,2.37,0,0,1-4.74.14Z"/><path class="cls-1" d="M301.31,384c-1.46,0-2.42-.79-2.4-2a2.37,2.37,0,1,1,2.4,2Z"/><path class="cls-1" d="M303.64,472.67a2.86,2.86,0,0,1-2.22,2.43,2.48,2.48,0,0,1-2.52-2.31,2.37,2.37,0,0,1,4.74-.12Z"/><path class="cls-1" d="M301.29,161.57a2.16,2.16,0,1,1,0,4.31,2.24,2.24,0,0,1-2.42-2.29C298.87,162.38,299.83,161.56,301.29,161.57Z"/><path class="cls-1" d="M301.21,111.23c-1.44,0-2.38-.87-2.31-2.09a2.23,2.23,0,0,1,2.26-2.22,2.45,2.45,0,0,1,2.48,2.34C303.65,110.46,302.67,111.26,301.21,111.23Z"/><path class="cls-1" d="M301.23,416.14a2.2,2.2,0,0,1,2.38,2.09,2.23,2.23,0,0,1-2.22,2.23,2.18,2.18,0,0,1-2.48-2.24C298.84,417,299.79,416.16,301.23,416.14Z"/><path class="cls-1" d="M301,234a2.92,2.92,0,0,1,2.66,2.28A2.37,2.37,0,1,1,301,234Z"/><path class="cls-1" d="M303.6,200.05a2.36,2.36,0,0,1-2.29,2.25,2.48,2.48,0,0,1-2.41-2.17,2.68,2.68,0,0,1,2.18-2.45A2.73,2.73,0,0,1,303.6,200.05Z"/><path class="cls-1" d="M301.27,365.81c-1.45,0-2.41-.83-2.36-2a2.35,2.35,0,0,1,4.7-.07A2.2,2.2,0,0,1,301.27,365.81Z"/><path class="cls-1" d="M301.35,129.45c-1.47,0-2.44-.75-2.44-2a2.26,2.26,0,0,1,2.36-2.36,2.16,2.16,0,1,1,.08,4.32Z"/><path class="cls-1" d="M303.64,327.37a2.72,2.72,0,0,1-2.29,2.34,2.87,2.87,0,0,1-2.42-2.51,2.36,2.36,0,0,1,4.71.17Z"/><path class="cls-1" d="M303.64,291a2.9,2.9,0,0,1-2.61,2.33,3,3,0,0,1-2.13-2.27,2.74,2.74,0,0,1,2.46-2.43A2.82,2.82,0,0,1,303.64,291Z"/><path class="cls-1" d="M301.17,56.91a2.7,2.7,0,0,1-2.27-2.4,2.38,2.38,0,0,1,4.75.2A2.74,2.74,0,0,1,301.17,56.91Z"/><path class="cls-1" d="M301.38,147.67a2.19,2.19,0,0,1-2.44-2.06,2.23,2.23,0,0,1,2.23-2.26,2.18,2.18,0,0,1,2.43,2.05A2.22,2.22,0,0,1,301.38,147.67Z"/><path class="cls-1" d="M301.33,402.25a2.19,2.19,0,0,1-2.39-2.1,2.23,2.23,0,0,1,2.27-2.22,2.19,2.19,0,0,1,2.4,2.1A2.23,2.23,0,0,1,301.33,402.25Z"/><path class="cls-1" d="M301.24,179.78a2.2,2.2,0,0,1,2.37,2.1,2.38,2.38,0,0,1-2.35,2.2,2.46,2.46,0,0,1-2.36-2.22C298.83,180.66,299.81,179.79,301.24,179.78Z"/><path class="cls-1" d="M246.7,490.94c-.64,0-1.28.05-1.9,0-1.06-.1-1.32-.67-.77-1.62a3.26,3.26,0,0,1,2.76-1.61,3,3,0,0,1,2.73,2c.35.76.24,1.22-.68,1.25Z"/><path class="cls-1" d="M319.6,379.74a2.06,2.06,0,0,1,1.82,2.33,2,2,0,0,1-2,1.93,2.06,2.06,0,0,1-1.83-2.33A2,2,0,0,1,319.6,379.74Z"/><path class="cls-1" d="M319.29,470.81a2.1,2.1,0,1,1-1.7,2C317.55,471.38,318,470.81,319.29,470.81Z"/><path class="cls-1" d="M321.43,145.62a1.93,1.93,0,1,1-1.93-2.24A2,2,0,0,1,321.43,145.62Z"/><path class="cls-1" d="M319.46,307a2.08,2.08,0,0,1,0,4.15c-1.28.08-1.83-.46-1.85-1.86A2.05,2.05,0,0,1,319.46,307Z"/><path class="cls-1" d="M319.51,129.42a2.15,2.15,0,0,1-.28-4.22,2.23,2.23,0,0,1,2.2,2A2,2,0,0,1,319.51,129.42Z"/><path class="cls-1" d="M321.43,363.62a1.93,1.93,0,1,1-3.84.11,2.07,2.07,0,0,1,1.71-2.18A2.21,2.21,0,0,1,321.43,363.62Z"/><path class="cls-1" d="M321.43,400.13a2.23,2.23,0,0,1-2.15,2.06,2.06,2.06,0,0,1-1.68-2.2,1.92,1.92,0,1,1,3.83.14Z"/><path class="cls-1" d="M321.43,418.4a2.24,2.24,0,0,1-2.2,2,2.05,2.05,0,0,1-1.63-2.23,2,2,0,0,1,1.91-2A2,2,0,0,1,321.43,418.4Z"/><path class="cls-1" d="M321.43,163.83a2.24,2.24,0,0,1-2.2,2,2.06,2.06,0,0,1-1.63-2.24,2,2,0,0,1,1.92-2A2,2,0,0,1,321.43,163.83Z"/><path class="cls-1" d="M319.49,216.25a2,2,0,0,1,1.94,2,2,2,0,0,1-2,2.15,2.08,2.08,0,0,1,.08-4.14Z"/><path class="cls-1" d="M321.43,72.59a1.92,1.92,0,1,1-2-2A2,2,0,0,1,321.43,72.59Z"/><path class="cls-1" d="M321.43,90.77a1.92,1.92,0,1,1-2-1.93A2,2,0,0,1,321.43,90.77Z"/><path class="cls-1" d="M321.43,200.1a2,2,0,0,1-1.85,2.07,2.08,2.08,0,1,1,1.85-2.07Z"/><path class="cls-1" d="M319.45,256.5c-1.39,0-1.84-.47-1.86-1.86s.48-2,1.74-2a2,2,0,0,1,2.1,2.09C321.45,256,320.88,256.52,319.45,256.5Z"/><path class="cls-1" d="M319.47,434.4a2.07,2.07,0,0,1,0,4.14,2.08,2.08,0,0,1,0-4.14Z"/><path class="cls-1" d="M321.43,345.5a1.92,1.92,0,1,1-1.85-2.08A2,2,0,0,1,321.43,345.5Z"/><path class="cls-1" d="M319.61,270.88c1.3,0,1.8.49,1.82,1.65a2,2,0,0,1-2.25,2.18c-1.15,0-1.58-.56-1.59-1.89C317.58,271.32,318.08,270.84,319.61,270.88Z"/><path class="cls-1" d="M321.43,454.79a1.92,1.92,0,1,1-3.84-.09,2,2,0,0,1,1.85-2.09A2,2,0,0,1,321.43,454.79Z"/><path class="cls-1" d="M319.59,184a2,2,0,0,1-2-1.93,2.06,2.06,0,0,1,1.71-2.21,2.08,2.08,0,0,1,.28,4.14Z"/><path class="cls-1" d="M319.58,238.28c-1.52,0-2-.46-2-2,0-1.31.46-1.82,1.61-1.86a2.05,2.05,0,0,1,2.23,2.2C321.4,237.82,320.9,238.26,319.58,238.28Z"/><path class="cls-1" d="M321.43,109.1a1.93,1.93,0,1,1-3.84-.07,1.92,1.92,0,1,1,3.84.07Z"/><path class="cls-1" d="M317.59,36.55c0-1.53.43-2,1.93-2,1.33,0,1.85.42,1.9,1.57a2,2,0,0,1-2.16,2.26C318.08,38.34,317.63,37.85,317.59,36.55Z"/><path class="cls-1" d="M321.43,327.17a1.92,1.92,0,1,1-2-2A2,2,0,0,1,321.43,327.17Z"/><path class="cls-1" d="M317.59,54.66c0-1.49.5-2,2-1.93,1.31,0,1.8.49,1.81,1.67a2,2,0,0,1-2,2.16C318.13,56.62,317.6,56.06,317.59,54.66Z"/><path class="cls-1" d="M319.61,289.1c1.3,0,1.8.48,1.82,1.65a2,2,0,0,1-2.25,2.18c-1.15-.05-1.58-.57-1.59-1.89C317.58,289.54,318.08,289.06,319.61,289.1Z"/><path class="cls-1" d="M319.42,20.14c-1.35,0-1.81-.48-1.83-1.86s.46-2,1.71-2a2,2,0,0,1,2.11,2A1.78,1.78,0,0,1,319.42,20.14Z"/><path class="cls-1" d="M264.64,491a7.51,7.51,0,0,1-.95,0c-.52-.05-1.26.26-1.48-.38s.25-1.35.82-1.81a3,3,0,0,1,4.35.81c.4.68.3,1.25-.6,1.35-.71.07-1.43,0-2.14,0Z"/><path class="cls-1" d="M337.73,252.69a2.19,2.19,0,0,1,1.88,2.11,2,2,0,0,1-1.76,1.67,1.89,1.89,0,1,1-.12-3.78Z"/><path class="cls-1" d="M337.51,420c-1.18,0-1.71-.57-1.67-1.77a2,2,0,0,1,2-1.91,2.29,2.29,0,0,1,1.78,1.92A2,2,0,0,1,337.51,420Z"/><path class="cls-1" d="M339.62,18.43a2,2,0,0,1-2,1.68,2,2,0,0,1-1.76-1.94,2,2,0,0,1,1.86-1.84A2.18,2.18,0,0,1,339.62,18.43Z"/><path class="cls-1" d="M337.65,292.86a1.89,1.89,0,0,1-1.79-1.83,1.89,1.89,0,0,1,3.76-.24A2.42,2.42,0,0,1,337.65,292.86Z"/><path class="cls-1" d="M337.51,216.29a2.4,2.4,0,0,1,2.09,1.94,1.91,1.91,0,0,1-1.83,1.81,2,2,0,0,1-1.91-1.76A2,2,0,0,1,337.51,216.29Z"/><path class="cls-1" d="M339.53,272.84a1.84,1.84,0,1,1-3.67-.21,1.84,1.84,0,0,1,3.67.21Z"/><path class="cls-1" d="M337.54,311.09a2,2,0,0,1-1.68-2,2,2,0,0,1,1.88-1.79,1.92,1.92,0,0,1,1.86,1.78A2.42,2.42,0,0,1,337.54,311.09Z"/><path class="cls-1" d="M339.61,36.22a2.42,2.42,0,0,1-2,2.06,1.91,1.91,0,0,1-1.78-1.85,2,2,0,0,1,1.78-1.88A2,2,0,0,1,339.61,36.22Z"/><path class="cls-1" d="M339.62,473a2,2,0,0,1-2,1.66,2,2,0,0,1-1.77-1.89,1.9,1.9,0,0,1,1.79-1.84A2.42,2.42,0,0,1,339.62,473Z"/><path class="cls-1" d="M337.64,452.66a2.42,2.42,0,0,1,2,2.07,2,2,0,0,1-2,1.67,2,2,0,0,1-1.78-1.89A1.91,1.91,0,0,1,337.64,452.66Z"/><path class="cls-1" d="M339.61,54.4a2.43,2.43,0,0,1-1.93,2.1,1.89,1.89,0,0,1-1.82-1.81,2,2,0,0,1,1.74-1.93A2,2,0,0,1,339.61,54.4Z"/><path class="cls-1" d="M337.61,234.51a2.43,2.43,0,0,1,2,2,1.94,1.94,0,0,1-1.94,1.7,2,2,0,0,1-1.81-1.85A1.92,1.92,0,0,1,337.61,234.51Z"/><path class="cls-1" d="M339.6,345.57a2.12,2.12,0,0,1-2.07,1.86,1.92,1.92,0,0,1-1.67-1.95,2,2,0,0,1,1.94-1.7A1.89,1.89,0,0,1,339.6,345.57Z"/><path class="cls-1" d="M339.6,200.05a1.92,1.92,0,0,1-1.84,1.77,2,2,0,0,1-1.9-1.74,1.93,1.93,0,0,1,1.7-1.93A2.16,2.16,0,0,1,339.6,200.05Z"/><path class="cls-1" d="M337.76,89.2A1.91,1.91,0,0,1,339.6,91a2.31,2.31,0,0,1-1.8,1.91,2,2,0,0,1-1.94-1.7A2,2,0,0,1,337.76,89.2Z"/><path class="cls-1" d="M337.68,325.56a2,2,0,0,1,1.93,1.68,2.41,2.41,0,0,1-1.73,2,2.12,2.12,0,0,1-2-1.61A2,2,0,0,1,337.68,325.56Z"/><path class="cls-1" d="M337.65,438.18a2,2,0,0,1-1.78-2.09,2.14,2.14,0,0,1,2.05-1.57,2.43,2.43,0,0,1,1.7,2A2,2,0,0,1,337.65,438.18Z"/><path class="cls-1" d="M337.76,71a1.92,1.92,0,0,1,1.84,1.76,2.3,2.3,0,0,1-1.8,1.91A2,2,0,0,1,335.86,73,2,2,0,0,1,337.76,71Z"/><path class="cls-1" d="M339.62,109c0,.76-1.28,2.18-2,2s-1.67-.54-1.77-1.61a1.8,1.8,0,0,1,1.74-2A2.07,2.07,0,0,1,339.62,109Z"/><path class="cls-1" d="M339.61,163.76a2.1,2.1,0,0,1-2.26,1.64c-1.1-.06-1.52-.68-1.51-1.71s.62-1.7,1.82-1.64A2,2,0,0,1,339.61,163.76Z"/><path class="cls-1" d="M339.61,381.81a2,2,0,0,1-1.92,1.73c-1.21.08-1.82-.45-1.85-1.61s.38-1.66,1.48-1.73A2.08,2.08,0,0,1,339.61,381.81Z"/><path class="cls-1" d="M339.6,400.16a2.08,2.08,0,0,1-2.29,1.6c-1.11-.08-1.5-.73-1.47-1.75s.65-1.68,1.86-1.59A2,2,0,0,1,339.6,400.16Z"/><path class="cls-1" d="M337.6,147.18c-1.21,0-1.76-.51-1.76-1.7a1.45,1.45,0,0,1,1.58-1.65c1.11,0,2.21.81,2.19,1.71A2,2,0,0,1,337.6,147.18Z"/><path class="cls-1" d="M339.61,127.2c.06.8-1.16,2-2.07,2a1.77,1.77,0,0,1-1.68-1.67,1.75,1.75,0,0,1,1.66-1.9A2.1,2.1,0,0,1,339.61,127.2Z"/><path class="cls-1" d="M339.61,182a2,2,0,0,1-2.07,1.58,2,2,0,0,1-1.68-2,2.13,2.13,0,0,1,2-1.67A3.11,3.11,0,0,1,339.61,182Z"/><path class="cls-1" d="M339.6,363.76a2.07,2.07,0,0,1-2.28,1.56,1.39,1.39,0,0,1-1.44-1.71,1.64,1.64,0,0,1,1.88-1.63C338.76,362.07,339.67,362.94,339.6,363.76Z"/><path class="cls-1" d="M283,491c-.24,0-.48,0-.71,0-.59-.05-1.43.21-1.56-.63a1.55,1.55,0,0,1,1.36-1.66,3.63,3.63,0,0,1,1.85,0c.78.22,1.49.77,1.33,1.68s-1,.56-1.57.61A5.45,5.45,0,0,1,283,491Z"/><path class="cls-1" d="M356,383.52a2,2,0,0,1-1.84-1.55,1.87,1.87,0,0,1,1.87-1.74c1,0,1.38.61,1.41,1.54C357.47,382.88,357,383.52,356,383.52Z"/><path class="cls-1" d="M357.44,400.28a1.35,1.35,0,0,1-1.47,1.46,2,2,0,0,1-1.82-1.56,1.89,1.89,0,0,1,1.88-1.74C357,398.48,357.41,399.08,357.44,400.28Z"/><path class="cls-1" d="M357.43,127.26c0,1.1-.55,1.73-1.52,1.68a1.65,1.65,0,1,1-.05-3.3C356.82,125.56,357.42,126.17,357.43,127.26Z"/><path class="cls-1" d="M357.43,145.51c0,1.1-.58,1.71-1.55,1.65a1.65,1.65,0,1,1,0-3.3C356.86,143.8,357.43,144.41,357.43,145.51Z"/><path class="cls-1" d="M356.08,362c.94.05,1.42.73,1.35,1.84a1.35,1.35,0,0,1-1.5,1.45,1.66,1.66,0,1,1,.15-3.29Z"/><path class="cls-1" d="M357.43,345.38c0,.9-.26,1.58-1.27,1.7s-2.09-.8-2-1.64a1.69,1.69,0,0,1,1.52-1.6A1.65,1.65,0,0,1,357.43,345.38Z"/><path class="cls-1" d="M355.84,307.39a1.93,1.93,0,0,1,1.56,2c-.12,1-.78,1.28-1.66,1.26a1.68,1.68,0,0,1-1.6-1.65A1.87,1.87,0,0,1,355.84,307.39Z"/><path class="cls-1" d="M357.43,163.59a1.66,1.66,0,0,1-1.57,1.75,1.88,1.88,0,0,1-1.72-1.67,2,2,0,0,1,1.83-1.59C357,162.08,357.39,162.65,357.43,163.59Z"/><path class="cls-1" d="M355.63,107.46a1.71,1.71,0,0,1,1.8,1.62c0,.91-.32,1.56-1.34,1.64s-2-.86-1.94-1.7A1.82,1.82,0,0,1,355.63,107.46Z"/><path class="cls-1" d="M355.6,183.55a1.81,1.81,0,0,1-1.45-1.58c-.09-.84,1-1.76,2-1.67s1.33.76,1.31,1.67A1.71,1.71,0,0,1,355.6,183.55Z"/><path class="cls-1" d="M355.66,89.24a1.71,1.71,0,0,1,1.77,1.64c0,.92-.35,1.56-1.36,1.62s-2-.88-1.91-1.72A1.79,1.79,0,0,1,355.66,89.24Z"/><path class="cls-1" d="M355.73,474.58a1.78,1.78,0,0,1-1.56-1.5,1.63,1.63,0,0,1,1.49-1.79c1.09-.08,1.77.48,1.75,1.46A2,2,0,0,1,355.73,474.58Z"/><path class="cls-1" d="M357.43,436.47a1.64,1.64,0,0,1-1.65,1.66,1.71,1.71,0,0,1-1.62-1.51c-.14-.84.93-1.79,1.89-1.74S357.43,435.55,357.43,436.47Z"/><path class="cls-1" d="M355.6,201.77a1.81,1.81,0,0,1-1.45-1.58c-.09-.84,1-1.76,2-1.67s1.33.76,1.31,1.66A1.71,1.71,0,0,1,355.6,201.77Z"/><path class="cls-1" d="M355.71,74.31a1.64,1.64,0,0,1-1.55-1.75,1.7,1.7,0,0,1,1.6-1.53c.84-.08,1.75,1.08,1.64,2S356.61,74.33,355.71,74.31Z"/><path class="cls-1" d="M355.86,419.92a1.88,1.88,0,0,1-1.72-1.67,2,2,0,0,1,1.83-1.59c1,0,1.43.56,1.46,1.51A1.65,1.65,0,0,1,355.86,419.92Z"/><path class="cls-1" d="M357.4,54.92c-.09.84-.72,1.18-1.62,1.17a1.68,1.68,0,0,1-1.64-1.65A2,2,0,0,1,356,52.89,1.89,1.89,0,0,1,357.4,54.92Z"/><path class="cls-1" d="M357.41,327.33a1.35,1.35,0,0,1-1.4,1.54,2,2,0,0,1-1.86-1.52,1.89,1.89,0,0,1,1.6-1.76A2,2,0,0,1,357.41,327.33Z"/><path class="cls-1" d="M357.42,272.74a1.72,1.72,0,0,1-1.63,1.72,1.7,1.7,0,0,1-1.56-1.56c-.14-.71.81-1.76,1.56-1.86S357.38,271.83,357.42,272.74Z"/><path class="cls-1" d="M357.41,454.41c.06.92-.85,2-1.67,1.93a1.7,1.7,0,0,1-1.58-1.52c-.12-.73.78-1.63,1.63-1.73A1.37,1.37,0,0,1,357.41,454.41Z"/><path class="cls-1" d="M356,289.25a1.83,1.83,0,0,1,1.44,1.88c-.08,1-.72,1.33-1.62,1.32a1.67,1.67,0,0,1-1.64-1.64A2,2,0,0,1,356,289.25Z"/><path class="cls-1" d="M355.8,216.71c.91,0,1.54.36,1.61,1.35a1.82,1.82,0,0,1-1.47,1.85,2,2,0,0,1-1.81-1.58A1.69,1.69,0,0,1,355.8,216.71Z"/><path class="cls-1" d="M357.41,236.19c0,1-.78,2-1.52,1.94a2,2,0,0,1-1.75-1.63,1.66,1.66,0,0,1,1.72-1.57C356.78,234.94,357.35,235.34,357.41,236.19Z"/><path class="cls-1" d="M355.79,16.55a1.76,1.76,0,0,1,1.62,1.74,1.66,1.66,0,0,1-1.74,1.56c-.8-.15-1.55-.5-1.52-1.52A2,2,0,0,1,355.79,16.55Z"/><path class="cls-1" d="M355.93,34.67a1.82,1.82,0,0,1,1.48,1.85c-.07,1-.69,1.35-1.6,1.35a1.68,1.68,0,0,1-1.68-1.61A2,2,0,0,1,355.93,34.67Z"/><path class="cls-1" d="M357.41,254.5c0,1-.86,1.93-1.61,1.84a2,2,0,0,1-1.56-1.87,1.42,1.42,0,0,1,1.66-1.33C356.85,253.2,357.38,253.63,357.41,254.5Z"/><path class="cls-1" d="M301.24,491H301c-.65-.13-1.48.34-1.89-.48-.18-.38.24-.7.49-1,.61-.69,1.32-1.21,2.26-.8a3.7,3.7,0,0,1,1.25,1c.61.69.44,1.12-.47,1.22a13.25,13.25,0,0,1-1.41,0Z"/><path class="cls-1" d="M375.62,127.35a1.81,1.81,0,0,1-1.48,1.53c-.69.15-1.53-.66-1.55-1.48a1.63,1.63,0,0,1,1.45-1.62C374.68,125.63,375.59,126.53,375.62,127.35Z"/><path class="cls-1" d="M375.61,163.57c.05.77-.81,1.77-1.45,1.68a1.7,1.7,0,0,1-1.59-1.52c-.07-.74.79-1.7,1.45-1.61A1.85,1.85,0,0,1,375.61,163.57Z"/><path class="cls-1" d="M374,365.27a1.7,1.7,0,0,1-1.43-1.6,1.39,1.39,0,0,1,1.33-1.4,1.54,1.54,0,0,1,1.7,1.28A1.83,1.83,0,0,1,374,365.27Z"/><path class="cls-1" d="M375.61,381.78c.05.67-.76,1.67-1.4,1.61a1.6,1.6,0,0,1-1.6-1.43c-.08-.93.62-1.39,1.42-1.59C374.66,380.21,375.56,381.07,375.61,381.78Z"/><path class="cls-1" d="M374.23,401.62a1.52,1.52,0,0,1-1.44-1.57c0-.79.24-1.5,1.13-1.55a1.63,1.63,0,0,1,1.66,1.43A1.66,1.66,0,0,1,374.23,401.62Z"/><path class="cls-1" d="M375.61,145.6c-.06.71-1,1.57-1.58,1.41-.8-.2-1.5-.67-1.42-1.59a1.58,1.58,0,0,1,1.6-1.43C374.86,143.93,375.66,144.93,375.61,145.6Z"/><path class="cls-1" d="M375.61,418.4a1.55,1.55,0,0,1-1.63,1.3,1.3,1.3,0,0,1-1.37-1.33,1.5,1.5,0,0,1,1.31-1.66A1.82,1.82,0,0,1,375.61,418.4Z"/><path class="cls-1" d="M374,183.35a1.22,1.22,0,0,1-1.22-1.36c0-.87.22-1.66,1.25-1.63a1.65,1.65,0,0,1,1.56,1.51C375.71,182.55,374.86,183.32,374,183.35Z"/><path class="cls-1" d="M375.6,90.85a1.8,1.8,0,0,1-1.78,1.6,1.6,1.6,0,0,1-1.22-1.55c-.1-.78.65-1.31,1.61-1.24C375,89.72,375.55,90,375.6,90.85Z"/><path class="cls-1" d="M374,437.72a1.18,1.18,0,0,1-1.35-1.26c0-.79.8-1.65,1.47-1.54a1.72,1.72,0,0,1,1.52,1.56C375.68,437.24,375,437.76,374,437.72Z"/><path class="cls-1" d="M374,71.44c.88,0,1.5.29,1.59,1.16a1.83,1.83,0,0,1-1.67,1.65,1.71,1.71,0,0,1-1.34-1.69A1.2,1.2,0,0,1,374,71.44Z"/><path class="cls-1" d="M374,107.65c.73,0,1.69.75,1.63,1.4a1.72,1.72,0,0,1-1.47,1.61c-.77.16-1.31-.53-1.34-1.53A1.29,1.29,0,0,1,374,107.65Z"/><path class="cls-1" d="M375.61,327.11a1.86,1.86,0,0,1-1.65,1.72,1.48,1.48,0,0,1-1.33-1.44,1.12,1.12,0,0,1,1.2-1.37C374.69,326,375.41,326.15,375.61,327.11Z"/><path class="cls-1" d="M374.37,53.24c.7.07,1.33.43,1.2,1.31A1.6,1.6,0,0,1,374,56c-.88,0-1.21-.72-1.34-1.44S373.4,53.22,374.37,53.24Z"/><path class="cls-1" d="M373.87,219.57c-.82,0-1.11-.49-1.07-1.34s.32-1.4,1.21-1.45a1.74,1.74,0,0,1,1.58,1.73C375.43,219.38,374.77,219.58,373.87,219.57Z"/><path class="cls-1" d="M375.6,36.39c-.25.74-.49,1.5-1.52,1.45a1.35,1.35,0,0,1-1.25-1.64A1.27,1.27,0,0,1,374.31,35,1.21,1.21,0,0,1,375.6,36.39Z"/><path class="cls-1" d="M375.54,272.76c-.13.66-.32,1.34-1.21,1.44s-1.46-.52-1.68-1.34.6-1.44,1.46-1.48A1.48,1.48,0,0,1,375.54,272.76Z"/><path class="cls-1" d="M374.06,453.12a1.8,1.8,0,0,1,1.52,1.53c.13.77-.58,1.29-1.59,1.29s-1.23-.5-1.19-1.35S373.13,453.23,374.06,453.12Z"/><path class="cls-1" d="M374.26,347.05a1.31,1.31,0,0,1-1.46-1.37c0-.79.11-1.43,1.1-1.44s1.66.17,1.68,1.2S374.85,346.74,374.26,347.05Z"/><path class="cls-1" d="M374.32,253.17c.83,0,1.16.74,1.25,1.53s-.49,1.25-1.31,1.29a1.3,1.3,0,0,1-1.44-1.45A1.36,1.36,0,0,1,374.32,253.17Z"/><path class="cls-1" d="M375.6,18.16c-.22.68-.42,1.47-1.45,1.46a1.33,1.33,0,0,1-1.33-1.57,1.28,1.28,0,0,1,1.42-1.24A1.25,1.25,0,0,1,375.6,18.16Z"/><path class="cls-1" d="M374.12,198.55a1.77,1.77,0,0,1,1.46,1.52c.13.77-.58,1.29-1.59,1.29s-1.24-.5-1.19-1.35S373.32,198.54,374.12,198.55Z"/><path class="cls-1" d="M374.07,310.63a1.54,1.54,0,0,1-1.43-1.42c-.15-.67.69-1.4,1.56-1.39s1.45.37,1.38,1.26A1.76,1.76,0,0,1,374.07,310.63Z"/><path class="cls-1" d="M375.61,290.92a1.74,1.74,0,0,1-1.61,1.45c-.88,0-1.21-.64-1.18-1.46a1.33,1.33,0,0,1,1.62-1.3A1.23,1.23,0,0,1,375.61,290.92Z"/><path class="cls-1" d="M374.07,471.33a1.76,1.76,0,0,1,1.51,1.55c.07.89-.56,1.25-1.38,1.25a1.32,1.32,0,0,1-1.38-1.55A1.24,1.24,0,0,1,374.07,471.33Z"/><path class="cls-1" d="M375.61,236.44a1.22,1.22,0,0,1-1.16,1.32,1.33,1.33,0,0,1-1.63-1.28c0-.82.29-1.48,1.17-1.47A1.73,1.73,0,0,1,375.61,236.44Z"/><path class="cls-1" d="M319.38,490.94c-.56-.1-1.44.31-1.68-.69-.18-.73.7-1.28,1.89-1.22a2.58,2.58,0,0,1,.92.15,1.26,1.26,0,0,1,.72,1.14c0,.64-.6.59-1.06.62Z"/><path class="cls-1" d="M392.36,37.81a1.22,1.22,0,0,1-1.29-1.21c-.06-.81.24-1.46,1.13-1.52s1.14.48,1.21,1.19A1.29,1.29,0,0,1,392.36,37.81Z"/><path class="cls-1" d="M393.42,290.94c0,.79-.32,1.42-1.2,1.43s-1.13-.53-1.16-1.26.31-1.44,1.2-1.45S393.35,290.2,393.42,290.94Z"/><path class="cls-1" d="M393.42,236.22c0,.84-.3,1.42-1.06,1.48s-1.29-.51-1.29-1.33.37-1.41,1.28-1.35S393.36,235.67,393.42,236.22Z"/><path class="cls-1" d="M393.42,254.59c0,.77-.37,1.39-1.27,1.34a1.15,1.15,0,0,1-1.09-1.32c0-.82.36-1.42,1.26-1.37S393.38,253.84,393.42,254.59Z"/><path class="cls-1" d="M393.42,18.2c0,.78-.35,1.4-1.25,1.37s-1.1-.58-1.11-1.3.35-1.42,1.24-1.4S393.37,17.45,393.42,18.2Z"/><path class="cls-1" d="M392.23,53.27a1.28,1.28,0,0,1,1.17,1.55c-.06.71-.46,1.23-1.21,1.18s-1.18-.71-1.12-1.51A1.21,1.21,0,0,1,392.23,53.27Z"/><path class="cls-1" d="M393.42,272.82c-.06.78-.39,1.39-1.29,1.32s-1.07-.62-1.06-1.34.37-1.41,1.28-1.34C393.11,271.51,393.38,272.08,393.42,272.82Z"/><path class="cls-1" d="M392.22,474.11a1.3,1.3,0,0,1-1.15-1.59c.08-.71.49-1.22,1.25-1.14s1.15.76,1.08,1.55A1.2,1.2,0,0,1,392.22,474.11Z"/><path class="cls-1" d="M393.42,218.05c0,.8-.3,1.42-1.17,1.45s-1.1-.47-1.19-1.18c-.1-.9.51-1.31,1.22-1.43S393.34,217.37,393.42,218.05Z"/><path class="cls-1" d="M393.42,454.59c-.09.79-.45,1.35-1.33,1.26a1.16,1.16,0,0,1-1-1.34,1.23,1.23,0,0,1,1.38-1.25C393.24,453.25,393.4,453.92,393.42,454.59Z"/><path class="cls-1" d="M392.26,326.07a1.25,1.25,0,0,1,1.15,1.47c0,.69-.35,1.29-1.13,1.16s-1.33-.52-1.22-1.43A1.23,1.23,0,0,1,392.26,326.07Z"/><path class="cls-1" d="M393.43,109a1.18,1.18,0,0,1-1.14,1.44,1.07,1.07,0,0,1-1.22-1.12,1.25,1.25,0,0,1,1.2-1.43C393.05,107.83,393.43,108.22,393.43,109Z"/><path class="cls-1" d="M392.43,310.53c-.71-.19-1.37-.43-1.36-1.32,0-.7.3-1.25,1-1.32s1.26.48,1.3,1.29A1.14,1.14,0,0,1,392.43,310.53Z"/><path class="cls-1" d="M339.26,490.77a5.14,5.14,0,0,1-2.1.17c-.38,0-.85.08-1.05-.34s.21-.89.57-1.16C337.84,488.58,338.66,489,339.26,490.77Z"/><path class="cls-1" d="M392.19,437.67a1.25,1.25,0,0,1-1.1-1.56,1.07,1.07,0,0,1,1.35-.95,1.1,1.1,0,0,1,1,1.37A1.21,1.21,0,0,1,392.19,437.67Z"/><path class="cls-1" d="M392.11,162.55c1-.05,1.35.42,1.31,1.28,0,.63-.26,1-.95,1a1.23,1.23,0,0,1-1.4-1.23C391,162.87,391.43,162.5,392.11,162.55Z"/><path class="cls-1" d="M392.37,89.72a1.24,1.24,0,0,1,1,1.56,1.06,1.06,0,0,1-1.36.93,1.09,1.09,0,0,1-.95-1.37A1.19,1.19,0,0,1,392.37,89.72Z"/><path class="cls-1" d="M392.2,71.49a1.23,1.23,0,0,1,1.21,1.21A1.19,1.19,0,0,1,392.14,74a1.12,1.12,0,0,1-1.08-1.28A1.23,1.23,0,0,1,392.2,71.49Z"/><path class="cls-1" d="M393.39,345.32c.09,1-.33,1.41-1,1.49a1.07,1.07,0,0,1-1.29-1c-.06-.8.28-1.43,1.15-1.46A1.08,1.08,0,0,1,393.39,345.32Z"/><path class="cls-1" d="M393.42,418.08c0,.76-.09,1.31-.84,1.37a1.23,1.23,0,0,1-1.49-1.18c-.1-.81.34-1.15,1.13-1.16S393.44,417.42,393.42,418.08Z"/><path class="cls-1" d="M392.2,198.73c.71.17,1.24.45,1.21,1.25s-.33,1.25-1.08,1.29-1.24-.52-1.27-1.33S391.63,198.91,392.2,198.73Z"/><path class="cls-1" d="M393.42,399.94c0,.76-.15,1.31-1,1.3a1.22,1.22,0,0,1-1.34-1.28c-.05-.81.45-1.07,1.18-1.06S393.44,399.21,393.42,399.94Z"/><path class="cls-1" d="M393.42,363.84c0,.72-.45,1-1.18,1s-1.22-.28-1.16-1.08a1.23,1.23,0,0,1,1.37-1.26C393.3,362.5,393.44,363.07,393.42,363.84Z"/><path class="cls-1" d="M393.42,127.39a.93.93,0,0,1-1.19,1,1.1,1.1,0,0,1-1.11-1.25,1.15,1.15,0,0,1,1.31-1.06C393.28,126.12,393.45,126.69,393.42,127.39Z"/><path class="cls-1" d="M392.28,380.71c.94,0,1.16.49,1.15,1.21s-.2,1.09-.92,1.11-1.4-.33-1.39-1.21A1.11,1.11,0,0,1,392.28,380.71Z"/><path class="cls-1" d="M392.28,183.08a1.17,1.17,0,0,1-1.2-1.18c-.07-.79.34-1.15,1.11-1.15s1.24.22,1.21,1.06A1.2,1.2,0,0,1,392.28,183.08Z"/><path class="cls-1" d="M393.42,145.6a.94.94,0,0,1-1.19,1.06,1.1,1.1,0,0,1-1.11-1.25,1.14,1.14,0,0,1,1.3-1.06C393.28,144.34,393.44,144.9,393.42,145.6Z"/><path class="cls-1" d="M354.44,490.7c.06-1.28.95-1.26,1.85-1.15.49.06.95.31.91.88s-.54.51-.91.5C355.67,490.92,355,491.11,354.44,490.7Z"/><path class="cls-1" d="M375.35,490.94c-.51,0-.88,0-1.25,0s-1.27.13-1-.76c.16-.6.74-.75,1.32-.54A1.43,1.43,0,0,1,375.35,490.94Z"/><path class="cls-1" d="M393.25,490.31c0,.52-.41.63-.82.62s-1.06.16-1.17-.48.4-.82.9-.87A1,1,0,0,1,393.25,490.31Z"/><path class="cls-1" d="M56.47,489.5v1.44C55.85,490.46,55.86,490,56.47,489.5Z"/><path class="cls-1" d="M94.39,489.5v1.44C93.77,490.46,93.78,490,94.39,489.5Z"/><path class="cls-1" d="M113.11,489.5v1.44Q112.2,490.22,113.11,489.5Z"/><path class="cls-1" d="M142.88,490.94V489.5Q143.8,490.22,142.88,490.94Z"/><path class="cls-1" d="M75.67,488.54c0,.53.08,1.1-.47,1.45C75.21,489.46,75.11,488.89,75.67,488.54Z"/><path class="cls-1" d="M169.27,490v1Q168.54,490.46,169.27,490Z"/><path class="cls-1" d="M188,490v1C187.5,490.63,187.5,490.31,188,490Z"/><path class="cls-1" d="M32.91,9.1a15.86,15.86,0,0,0,5-5.74,11.82,11.82,0,0,0,6.43,5.78c-4.5,2.21-4.58,2.84-6.48,5.62A16.43,16.43,0,0,0,32.91,9.1Z"/><path class="cls-1" d="M44.41,391.06a10.85,10.85,0,0,0-6.61,5.69c-1.37-2.5-2.74-4.41-5.24-5.68a11.88,11.88,0,0,0,5-5.5c1.43.76,1.65,2.45,2.86,3.21S42.86,390.19,44.41,391.06Z"/><path class="cls-1" d="M37.91,269.63a14.72,14.72,0,0,0-4.9-5.85c1.56-1.62,3.34-2.86,4.31-4.83.4-.79,1-.27,1.26.22a12.29,12.29,0,0,0,3.16,3.19,13,13,0,0,0,2.93,1.29C41.67,264.91,39.27,266.35,37.91,269.63Z"/><path class="cls-1" d="M37.89,294.49c1.94,3.14,2.93,4,6.2,5.38,0,.66-.56.63-1,.78-2,.69-3.21,2.27-4.44,3.85-.78,1-1,1-1.64-.11-1-1.73-2.51-2.84-4-4.25.6-1.16,2-1.53,2.69-2.56S37.09,295.64,37.89,294.49Z"/><path class="cls-1" d="M37.84,21.42a10.31,10.31,0,0,0,6.71,5.73c-2.63,1.24-4.73,2.59-6.08,4.84-.36.61-.91.65-1.26-.07-.93-1.89-2.59-3.14-4.2-4.57C34.89,25.69,36.71,24.16,37.84,21.42Z"/><path class="cls-1" d="M32.48,336.29c2.79-.92,3.82-3.29,5.37-5.5a10.29,10.29,0,0,0,6.55,5.51c-1.33,1-2.71,1.33-3.81,2.18s-1.59,2.36-3,3.23A16.43,16.43,0,0,0,32.48,336.29Z"/><path class="cls-1" d="M37.85,360.39a12.84,12.84,0,0,0-5.45-5.74,10.07,10.07,0,0,0,5.2-5.93c1.72,2.92,3.58,5,7,5.68C41.69,355.88,39.23,357.18,37.85,360.39Z"/><path class="cls-1" d="M37.81,160.36c-1.49-2.47-2.64-4.65-5.32-5.66a12.22,12.22,0,0,0,5-5.51c1.47.81,1.71,2.58,3,3.34s2.64,1.41,4.09,2.18A9.87,9.87,0,0,0,37.81,160.36Z"/><path class="cls-1" d="M44.51,118.17a10.74,10.74,0,0,0-6.62,5.66c-1.53-2.23-2.94-4.23-5.15-5.57,1.06-.85,2.06-1.59,3-2.41s1-2.16,2.08-3.13A10.69,10.69,0,0,0,44.51,118.17Z"/><path class="cls-1" d="M32.86,281.81a14.46,14.46,0,0,0,5-5.69,10.05,10.05,0,0,0,6.8,5.61,12,12,0,0,0-6.33,5c-.32.49-.84.45-1.12-.12C36.32,284.65,34.67,283.4,32.86,281.81Z"/><path class="cls-1" d="M37.62,476.5c2.08,2.26,3.75,4.5,7.11,5.41-3.25,1.11-5.44,2.69-6.77,5.77a14.29,14.29,0,0,0-4.64-5.43c.79-1,1.46-1.95,2.28-2.78A13.06,13.06,0,0,0,37.62,476.5Z"/><path class="cls-1" d="M37.88,94.36A10.19,10.19,0,0,0,44.79,100c-3.28,1.11-5.51,2.73-7,5.65a15.91,15.91,0,0,0-5.33-5.7C35.2,99,36.34,96.71,37.88,94.36Z"/><path class="cls-1" d="M37.79,130.61c1.43,3.14,3.68,4.68,6.75,5.8-3,1.2-5.35,2.61-6.68,5.82a14,14,0,0,0-5.26-5.82C35,135.16,36.4,133.2,37.79,130.61Z"/><path class="cls-1" d="M37.63,458.09c1.94,2.64,3.71,4.66,7,5.52-3.16,1.23-5.39,2.83-6.71,5.67-1.47-1.89-2.48-3.92-4.51-5-.51-.29-.38-.75.1-1.14A12.07,12.07,0,0,0,37.63,458.09Z"/><path class="cls-1" d="M37.69,403.73c1.5,2.83,3.87,4.25,6.82,5.44-3,1.2-5.36,2.57-6.56,5.69-1.67-2.13-2.64-4.52-5.34-5.52C34.63,407.65,36.71,406.29,37.69,403.73Z"/><path class="cls-1" d="M44.27,227.32A10.74,10.74,0,0,0,38,232.9c-1.51-1.8-2.46-3.88-4.49-5-.68-.38-.33-.85.2-1.29a11.53,11.53,0,0,0,3.86-4.75C39.62,224.15,41.29,226.5,44.27,227.32Z"/><path class="cls-1" d="M37.75,378.68a12.6,12.6,0,0,0-5.19-5.95,9.67,9.67,0,0,0,5.07-5.82A10.61,10.61,0,0,0,45,372.76,10.52,10.52,0,0,0,37.75,378.68Z"/><path class="cls-1" d="M32.91,45.45c2-1.6,3.93-3,4.79-5.82,1.67,2.9,3.64,4.81,6.46,5.62-.22.82-.9.69-1.37.92A9.46,9.46,0,0,0,38.65,50c-.45.78-1,1.11-1.52,0C36.22,48.17,34.59,47,32.91,45.45Z"/><path class="cls-1" d="M32.74,209.28c2.07-1.82,3.81-3.23,4.9-5.68,1.9,2.37,3.53,4.76,6.63,5.43-2.75,1.21-5,2.76-6.27,5.74C36.43,212.65,35.27,210.46,32.74,209.28Z"/><path class="cls-1" d="M44.27,445.44c-2.8,1.16-5,2.74-6.24,5.65-1.69-2-2.69-4.43-5.45-5.37,2-1.7,3.91-3.19,5.13-5.83C39.36,442.62,41.33,444.58,44.27,445.44Z"/><path class="cls-1" d="M37.86,76.34c1.89,3,2.45,3.48,6.43,5.64a12.68,12.68,0,0,0-3.8,2c-1,.92-1.74,2-2.75,3.21a16.86,16.86,0,0,0-4.25-4.78c-.56-.4-.43-.89,0-1.15C35.49,80.22,36.51,78.29,37.86,76.34Z"/><path class="cls-1" d="M44.27,190.88A10.87,10.87,0,0,0,38,196.47c-1.62-2-2.66-4.39-5.41-5.33,2-1.69,3.91-3.2,5.16-5.83A11.34,11.34,0,0,0,44.27,190.88Z"/><path class="cls-1" d="M44.65,63.52C41,65.38,41.5,64.4,37.78,69a19.74,19.74,0,0,0-4.42-4.86.57.57,0,0,1,.11-1c2-1.1,3-3,4.37-5C39.4,60.69,41.28,62.74,44.65,63.52Z"/><path class="cls-1" d="M37.9,251.52c-1.2-2.88-3-4.41-4.86-6,1.76-1.6,3.5-3.06,4.59-5.27,2.08,2,3.59,4.46,7.07,5.22C41.55,246.74,39.21,248.21,37.9,251.52Z"/><path class="cls-1" d="M37.68,323.64a14.92,14.92,0,0,0-4.11-4.76c-.48-.37-.65-.83-.12-1.14,2-1.15,3.06-3.14,4.39-4.95,2.32,3.32,2.88,3.79,6.48,5.43-1.31.76-2.75,1.11-3.75,2.1S38.73,322.42,37.68,323.64Z"/><path class="cls-1" d="M32.52,172.62a10.2,10.2,0,0,0,5.15-5.57,11.9,11.9,0,0,0,6.88,5.66,10.73,10.73,0,0,0-6.64,5.62c-1.2-.88-1.26-2.35-2.19-3.17S33.76,173.59,32.52,172.62Z"/><path class="cls-1" d="M37.75,421.45a11,11,0,0,0,6.76,5.86c-3,1.1-5.21,2.67-6.52,5.61-1.81-2-2.56-4.7-5.41-5.51A11.69,11.69,0,0,0,37.75,421.45Z"/><path class="cls-1" d="M23.69,136.63A8.78,8.78,0,0,0,20.81,139c-.73.86-1.36,1-2.07,0a15.19,15.19,0,0,1-1.9-2.35c-.47-1.16,1.18-1.42,1.71-2.27,1-1.65,1.13-1.58,2.53-.22Z"/><path class="cls-1" d="M23.74,373A9.82,9.82,0,0,0,21,375.15c-1.27,1.23-1.39,1.22-2.54-.19-.54-.66-1.37-1.28-1.51-2s1.05-1.28,1.48-2c.15-.27.32-.55.5-.81.51-.75,1.05-.88,1.7-.12a19.69,19.69,0,0,0,1.51,1.52C22.55,371.94,23,372.35,23.74,373Z"/><path class="cls-1" d="M23.21,390.5l-2.61,3.22c-.59.74-1.15.74-1.7-.05-.09-.13-.25-.25-.26-.39-.1-1.24-2.49-1.28-1.69-2.7.49-.87,1.48-1.58,2.13-2.48.41-.59,1-.6,1.34,0A9.48,9.48,0,0,0,23.21,390.5Z"/><path class="cls-1" d="M19.85,121.6c-1.31-.63-1.77-2-2.83-2.68-.43-.29-.54-1-.08-1.23,1.25-.68,1.58-2.2,2.91-3,.84,1.61,2.4,2.43,3.92,3.61C22.07,119.18,21.1,120.57,19.85,121.6Z"/><path class="cls-1" d="M19.78,151.16l3.68,3.45c-.92,1-2.23,1.66-3,2.87-.37.57-.87.63-1.35.05-.05-.06-.13-.11-.15-.18-.36-1.25-2.47-1.83-2.06-2.84A7.65,7.65,0,0,1,19.78,151.16Z"/><path class="cls-1" d="M20,431c-1.43-1-1.88-2.36-2.91-3.22-.44-.36-.34-.84.07-1.23a.65.65,0,0,1,.18-.15c1-.58,1.26-2.13,2.35-2.2s1.6,1.34,2.48,2c.44.32.89.62,1.5,1.05C22.5,428.55,20.62,429,20,431Z"/><path class="cls-1" d="M19.78,59.62c.88,2.19,2.49,2.86,3.93,4a15.87,15.87,0,0,0-3.12,2.66c-.17.17-.37.46-.54.45-1.44-.08-1.91-1.47-2.87-2.22a.88.88,0,0,1-.08-1.45A12,12,0,0,0,19.78,59.62Z"/><path class="cls-1" d="M19.7,231.26a8.61,8.61,0,0,0-2.18-2.87c-1-.84-.83-1.51.05-2.34a19.37,19.37,0,0,0,1.77-2.24c1.81,1.19,2.65,2.74,4.51,3.46C22.25,228.51,20.68,229.32,19.7,231.26Z"/><path class="cls-1" d="M19.85,96.49a8.59,8.59,0,0,0,3.21,3.07c.56.37.57.66,0,1-.34.21-.66.43-1,.66-.88.61-1.34,2.07-2.49,1.93s-1.39-1.62-2.34-2.23c-.55-.35-.73-.92-.18-1.38C18.12,98.71,18.55,97.32,19.85,96.49Z"/><path class="cls-1" d="M19.44,460.19c1.71,1.24,2.61,2.73,4.27,3.42-1.29,1.39-3.15,1.8-3.67,3.91L17,464.17c-.4-.46-.2-.87.14-1.27Z"/><path class="cls-1" d="M23.74,445.53c-1.49,1.15-3.08,1.84-3.73,3.42-1-.07-1-.88-1.4-1.34-.63-.77-2-1.27-1.75-2.38s1.45-1.64,2.18-2.48a.81.81,0,0,1,1.39,0A14.26,14.26,0,0,0,23.74,445.53Z"/><path class="cls-1" d="M19.93,212.68c-1-.44-1.19-1.42-1.85-2-2.11-1.83-1.4-1.92,0-3.31,2-2,1.5-1.81,3.42,0,.62.6,1.32,1.12,2.13,1.8C22.33,210.34,20.65,211,19.93,212.68Z"/><path class="cls-1" d="M19.94,321.47a1.8,1.8,0,0,1-.37-.08c-1-.79-2.23-1.6-2.61-2.72-.5-1.43,1.43-1.86,2-3a1.42,1.42,0,0,1,.91-.94,11.17,11.17,0,0,0,4,3.41A20.65,20.65,0,0,0,19.94,321.47Z"/><path class="cls-1" d="M19.82,405.83c1.35.88,2.16,2.47,3.92,3.09-1.36,1.45-3,2.19-3.91,3.74-1.3-.84-1.73-2.25-2.78-3.1a.59.59,0,0,1,.05-1C18.19,407.85,18.44,406.35,19.82,405.83Z"/><path class="cls-1" d="M19.8,194.9a13,13,0,0,0-2.56-3.24,1,1,0,0,1,0-1.63c.17-.16.34-.33.5-.51,1.94-2.06,1.93-2.05,3.93-.19.58.53,1.22,1,2,1.62C22.4,192.15,20.63,192.75,19.8,194.9Z"/><path class="cls-1" d="M20,351c.69,1.94,2.41,2.49,3.75,3.76-1.65.79-2.61,2.21-3.85,3.21-1.46-.61-1.78-2.16-2.93-2.92-.29-.19-.16-.62.1-.83C18.09,353.34,18.53,351.94,20,351Z"/><path class="cls-1" d="M23.65,82c-1.65.65-2.51,2.2-3.84,3.09-.18-.07-.28-.07-.32-.13-.85-1.15-2.83-1.81-2.48-3.39.28-1.26,2-1.92,2.48-3.33,1.1.54,1.22,1.59,2,2A6,6,0,0,1,23.65,82Z"/><path class="cls-1" d="M23.87,336.45c-1.77.85-2.7,2.19-4,3.26-1.35-.5-1.82-1.94-2.9-2.71-.47-.33-.13-.86.22-1.23l2.65-2.93C20.69,334.44,22.11,335.31,23.87,336.45Z"/><path class="cls-1" d="M23.6,482.16a9.46,9.46,0,0,0-3.87,3.25c-.81-.89-1.55-1.8-2.38-2.61a1.14,1.14,0,0,1,0-2c.3-.26.57-.56.85-.85,1.71-1.72,1.39-1.61,3.07.06.33.33.69.66,1,1S23.25,481.39,23.6,482.16Z"/><path class="cls-1" d="M23.21,27.07c0,.57-3.33,3.51-3.66,3.42a1.39,1.39,0,0,1-.54-.4c-.38-.41-.73-.85-1.11-1.26-1.41-1.51-1.41-1.5,0-3,1.7-1.81,1.7-1.8,3.65-.12a13.63,13.63,0,0,0,1.17.82C23,26.74,23.21,26.94,23.21,27.07Z"/><path class="cls-1" d="M24.1,300c-2.07.87-3,2.36-4.28,3.31A6.44,6.44,0,0,1,17,300.42c-.49-1.38,1.44-1.84,2-2.95.17-.35.3-.74.81-.87A10,10,0,0,0,24.1,300Z"/><path class="cls-1" d="M19.91,176.26c-.81-.4-.91-.91-1.18-1.29-.59-.83-2.06-1.37-1.8-2.33s1.58-1.67,2.18-2.71c.38-.66.9-.45,1.37,0a11.64,11.64,0,0,0,3.16,2.63C22.47,174.05,20.69,174.64,19.91,176.26Z"/><path class="cls-1" d="M23.93,245.59a10.43,10.43,0,0,0-3.39,2.46c-.69.82-1.31.82-1.81-.19,0-.07-.11-.12-.15-.19-.57-.82-2-1.28-1.71-2.38s1.54-1.77,2.36-2.64c.44-.47.83-.23,1.21.14A12.23,12.23,0,0,0,23.93,245.59Z"/><path class="cls-1" d="M23.69,45.32c-.77.64-1.46,1.16-2.08,1.74-1.95,1.81-1.94,1.82-3.76-.06-1.38-1.44-1.38-1.44-.09-2.82a4.47,4.47,0,0,0,.82-.87c.65-1.22,1.33-1.13,2.16-.16a8.58,8.58,0,0,0,1.41,1.28A13.76,13.76,0,0,0,23.69,45.32Z"/><path class="cls-1" d="M23.21,263.83a1.74,1.74,0,0,1-.37.51c-.37.3-.78.54-1.16.81-.76.53-1.33,2-2.14,1.6-1.05-.48-1.79-1.69-2.62-2.63a.71.71,0,0,1,.14-1.05c.93-.83,1.7-2.59,2.75-2.31,1.29.35,2.28,1.8,3.4,2.77C23.25,263.57,23.21,263.69,23.21,263.83Z"/><path class="cls-1" d="M19.76,278.77c1.13.6,1.76,1.78,2.91,2.38.72.37.74,1,.06,1.5-.37.29-.8.51-1.15.82-2,1.71-2,1.72-3.79-.17-1.32-1.41-1.34-1.43,0-2.79A7.25,7.25,0,0,1,19.76,278.77Z"/><path class="cls-1" d="M19.6,12.46c-.8-.85-1.4-1.59-2.1-2.23s-1-1.38-.08-2.15A19.21,19.21,0,0,1,19.68,6c.11,0,.21,0,.26.07C21,7.16,22.4,8,23.12,9.4Z"/><path class="cls-1" d="M3.63,9.1c-.5.43-.84.74-1.2,1s-.74,1-1.37.39c-.45-.41-1.15-.76-1-1.47A2.34,2.34,0,0,1,1.37,7.51c.33-.17.58.14.81.35Z"/><path class="cls-1" d="M.09,391c1.65-2.06,1.65-2.06,3.33,0C1.75,393,1.75,393,.09,391Z"/><path class="cls-1" d="M1.3,84c-.22-1.32-2-1.73-.66-3.12s1.79.51,2.95.36C3.13,82.54,2.32,83,1.3,84Z"/><path class="cls-1" d="M3.39,427.48A2.89,2.89,0,0,1,1.68,429c-.49,0-1.6-1.19-1.57-1.61a2.89,2.89,0,0,1,1.71-1.47C2.31,425.92,3.43,427.07,3.39,427.48Z"/><path class="cls-1" d="M1.83,371.22c.49,0,1.61,1.21,1.56,1.62a2.92,2.92,0,0,1-1.72,1.46c-.49,0-1.6-1.2-1.55-1.62A2.84,2.84,0,0,1,1.83,371.22Z"/><path class="cls-1" d="M1.44,225.52a9.56,9.56,0,0,1,2.19,2c-1,.48-1.41,1.94-2.75,1C-.18,227.77-.12,227.63,1.44,225.52Z"/><path class="cls-1" d="M3.64,299.93c-.93.63-1.17,2-2.45,1.64a1.82,1.82,0,0,1-.69-2.33C1.31,298.23,1.37,298.24,3.64,299.93Z"/><path class="cls-1" d="M3.39,136.47a2.92,2.92,0,0,1-1.71,1.47c-.49,0-1.61-1.19-1.57-1.61a2.84,2.84,0,0,1,1.72-1.47C2.31,134.91,3.43,136.06,3.39,136.47Z"/><path class="cls-1" d="M1.57,247.2c-.74-.45-1.59-.91-1.47-1.73.09-.59.81-1.48,1.29-1.51,1-.07,1.46,1,2.08,1.68Z"/><path class="cls-1" d="M1.68,156.16c-.49,0-1.61-1.19-1.57-1.61a2.83,2.83,0,0,1,1.71-1.47c.49,0,1.61,1.19,1.57,1.61A3,3,0,0,1,1.68,156.16Z"/><path class="cls-1" d="M3.39,100a2.91,2.91,0,0,1-1.72,1.47c-.49-.05-1.6-1.2-1.55-1.62a2.78,2.78,0,0,1,1.71-1.46C2.32,98.48,3.43,99.63,3.39,100Z"/><path class="cls-1" d="M3.42,409.2c-1.68,2.05-1.68,2.05-3.33,0C1.75,407.14,1.75,407.14,3.42,409.2Z"/><path class="cls-1" d="M1.49,461.89A9.6,9.6,0,0,1,3.67,464c-1.1.27-1.46,2-2.84.88C-.19,464-.16,464,1.49,461.89Z"/><path class="cls-1" d="M.06,118.13c1.32-2.09,2.27-1.82,3.36.06C1.74,120.24,1.74,120.24.06,118.13Z"/><path class="cls-1" d="M.09,172.83c1.66-2.06,1.66-2.06,3.33,0C1.74,174.89,1.74,174.89.09,172.83Z"/><path class="cls-1" d="M3.52,282.05l-1.95,1.57c-1.74-1.95-1.75-2-.86-2.81C2.26,279.31,2.46,281.71,3.52,282.05Z"/><path class="cls-1" d="M3.47,45.34a5.9,5.9,0,0,1-2,1.91c-1.66-2-1.66-2-.71-2.89C1.55,43.68,1.55,43.68,3.47,45.34Z"/><path class="cls-1" d="M.09,354.54c1.66-2.05,1.66-2.05,3.33,0C1.74,356.61,1.74,356.61.09,354.54Z"/><path class="cls-1" d="M3.82,482.28c-1.31.2-1.71,2-3.11.68s.28-1.83.54-2.88C2.3,480.44,2.79,481.25,3.82,482.28Z"/><path class="cls-1" d="M1.55,334.91c.74,0,1.88,1,1.85,1.46a2.87,2.87,0,0,1-1.72,1.5c-.5,0-1.71-1.25-1.54-1.62A2.16,2.16,0,0,1,1.55,334.91Z"/><path class="cls-1" d="M3.7,26.73A6.17,6.17,0,0,1,1.56,29C-.18,27.15-.18,27.13.68,26.25,2.28,24.62,2.34,27.22,3.7,26.73Z"/><path class="cls-1" d="M3.49,209.35c-2.12,1.56-2.14,1.53-3,.57s0-1.28.45-1.71C1.82,207.38,1.91,207.44,3.49,209.35Z"/><path class="cls-1" d="M3.4,445.65c-1.95,1.94-2.36,1.73-3.31,0C1.76,443.55,1.76,443.55,3.4,445.65Z"/><path class="cls-1" d="M1.52,262l2.12,1.68-2.11,1.81C.21,263.66.21,263.66,1.52,262Z"/><path class="cls-1" d="M3.41,63.52c-.1.51-.53.76-.85,1.11-.67.73-1.24.45-1.79-.16-.41-.45-1-.82-.33-1.55s1.11-1.17,1.94-.32C2.7,62.92,3.27,63,3.41,63.52Z"/><path class="cls-1" d="M3.5,191.12c-2.14,1.58-2.14,1.55-3,.59s0-1.27.43-1.71C1.81,189.17,1.89,189.22,3.5,191.12Z"/><path class="cls-1" d="M3.45,318.25c-.64.55-1,1.7-2,1.26-.6-.25-1.56-.7-1.17-1.74s1.26-1.09,2.23-.51A1.59,1.59,0,0,1,3.45,318.25Z"/></g></g></svg>