<svg xmlns="http://www.w3.org/2000/svg" viewBox="0 0 361.55 687.73"><defs><style>.cls-1{fill:#bf9c80;}</style></defs><g id="Layer_2" data-name="Layer 2"><g id="Layer_1-2" data-name="Layer 1"><path class="cls-1" d="M15.12,384.32c0,4.12-3.71,7.86-7.65,7.74a7.78,7.78,0,0,1,.14-15.55A7.75,7.75,0,0,1,15.12,384.32Z"/><path class="cls-1" d="M15.12,411.4c0,4-3.55,7.77-7.47,7.46S-.18,416,.07,411.11c.21-4.2,3.63-7.82,7.69-7.64C12.26,403.67,15.75,407.94,15.12,411.4Z"/><path class="cls-1" d="M15.12,680.22a7.69,7.69,0,0,1-7.43,7.51A8,8,0,0,1,0,679.66a7.54,7.54,0,0,1,7.69-7.24C12.09,672.61,15.54,675.69,15.12,680.22Z"/><path class="cls-1" d="M15.12,7.83c0,4.11-3.72,7.84-7.65,7.73A8,8,0,0,1,.1,7.9,7.93,7.93,0,0,1,7.58,0C11.55,0,15.13,3.7,15.12,7.83Z"/><path class="cls-1" d="M.11,330.22c.05-4,3.56-7.77,7.47-7.45s7.82,3,7.57,7.76c-.21,4.2-3.64,7.82-7.69,7.63C3,338-.53,333.73.11,330.22Z"/><path class="cls-1" d="M15.12,438.37c-.06,4-3.6,7.78-7.5,7.44s-7.8-3-7.55-7.78c.22-4.19,3.66-7.82,7.71-7.62C12.26,430.64,15.75,434.85,15.12,438.37Z"/><path class="cls-1" d="M.1,34.69a7.75,7.75,0,0,1,7.57-7.75,7.76,7.76,0,0,1,7.45,7.87c0,4-3.39,7.72-7.39,7.54C4.2,42.19-.28,39.65.1,34.69Z"/><path class="cls-1" d="M.11,357.27c0-4,3.34-7.69,7.35-7.55,3.47.13,7.9,2.64,7.69,7.61-.17,4.22-3.47,7.8-7.53,7.8A7.89,7.89,0,0,1,.11,357.27Z"/><path class="cls-1" d="M7.51,499.17c-4.65,0-7.46-2.9-7.4-7.57a7.58,7.58,0,0,1,7.55-7.33c4.55,0,7.53,3.22,7.45,8C15.05,496.66,12.26,499.19,7.51,499.17Z"/><path class="cls-1" d="M15.12,61.83a7.58,7.58,0,0,1-7.85,7.42A7.6,7.6,0,0,1,.1,61.53,7.68,7.68,0,0,1,7.76,53.9C12.26,54.11,15.75,58.35,15.12,61.83Z"/><path class="cls-1" d="M15.12,222.87c0,4.52-3,7.54-7.48,7.56a7.73,7.73,0,0,1-7.57-7.36c-.15-3.52,3.15-7.91,7.53-7.62C12.46,215.77,15.1,218.08,15.12,222.87Z"/><path class="cls-1" d="M7.6,242.47c4.7,0,7.47,2.56,7.51,7,.05,4.68-3.09,8-7.57,7.94A7.6,7.6,0,0,1,.1,249.93C.1,245.3,2.94,242.47,7.6,242.47Z"/><path class="cls-1" d="M7.54,149.6c-4.27.64-7.64-4-7.47-7.58a7.72,7.72,0,0,1,7.59-7.32c4.55,0,7.52,3.21,7.46,8C15.05,147.08,12.27,149.62,7.54,149.6Z"/><path class="cls-1" d="M7.47,122.66c-4.63,0-7.43-2.92-7.36-7.59a7.58,7.58,0,0,1,7.56-7.31c4.33,0,7.42,3.23,7.45,7.71S12.37,122.69,7.47,122.66Z"/><path class="cls-1" d="M7.63,592c4.61,0,7.45,2.68,7.48,7,0,4.73-3,7.9-7.56,7.88a7.73,7.73,0,0,1-7.48-7.43C-.06,596.07,3.22,591.38,7.63,592Z"/><path class="cls-1" d="M7.4,472.23c-4.57-.05-7.39-3-7.29-7.65a7.58,7.58,0,0,1,7.6-7.25,7.59,7.59,0,0,1,7.41,7.8C15.11,469.71,12.32,472.27,7.4,472.23Z"/><path class="cls-1" d="M15.12,572.65c.64,4.15-4,7.56-7.66,7.37a7.71,7.71,0,0,1-7.35-7.54c0-4.51,3.24-7.46,8.05-7.39C12.48,565.16,15.14,568.05,15.12,572.65Z"/><path class="cls-1" d="M15.11,276.6c0,4.35-3,7.65-7.07,7.71A7.76,7.76,0,0,1,.11,277c-.06-4.8,2.81-7.6,7.73-7.56C12.45,269.45,15.14,272.1,15.11,276.6Z"/><path class="cls-1" d="M7.7,553.05C3.16,553,.08,550,.1,545.56a7.27,7.27,0,0,1,7.69-7.41c4.48.08,7.44,3.35,7.32,8.11A7,7,0,0,1,7.7,553.05Z"/><path class="cls-1" d="M15.12,196c.66,4.43-4.07,7.63-7.51,7.53-4.4-.14-7.57-3.23-7.5-7.62s3.13-7.17,7.41-7.35C11.09,188.4,15.76,191.73,15.12,196Z"/><path class="cls-1" d="M7.56,526.11c-4.29.64-7.65-4-7.49-7.55a7.73,7.73,0,0,1,7.55-7.35c4.57,0,7.55,3.16,7.49,7.94C15.07,523.46,12.18,526.12,7.56,526.11Z"/><path class="cls-1" d="M7.68,619c4.67,0,7.41,2.59,7.44,7a7.59,7.59,0,0,1-7.69,7.87,7.58,7.58,0,0,1-7.32-7.54C.15,621.72,3,619,7.68,619Z"/><path class="cls-1" d="M7.59,95.72c-4.76,0-7.45-2.66-7.48-7.39a7.69,7.69,0,0,1,7.75-7.51c3.91,0,7.31,3.67,7.26,8S12.3,95.72,7.59,95.72Z"/><path class="cls-1" d="M15.12,303.5a7.74,7.74,0,0,1-7.53,7.74,7.7,7.7,0,0,1-7.47-7.42c.07-4.82,2.59-7.43,7.36-7.73A7.13,7.13,0,0,1,15.12,303.5Z"/><path class="cls-1" d="M7.62,645.92c4.72,0,7.47,2.58,7.5,7a7.76,7.76,0,0,1-7.46,7.86A7.75,7.75,0,0,1,.1,653.4C.09,648.75,2.94,645.92,7.62,645.92Z"/><path class="cls-1" d="M15.12,169.59a7,7,0,0,1-7.32,6.95c-4.58,0-7.69-3-7.7-7.44a7.58,7.58,0,0,1,7.83-7.46C12.3,161.78,15.18,165,15.12,169.59Z"/><path class="cls-1" d="M41.54,384.49a6.78,6.78,0,0,1-7,6.84c-3.64.07-6.61-3.22-6.55-7.27a6.9,6.9,0,0,1,7-6.84A6.81,6.81,0,0,1,41.54,384.49Z"/><path class="cls-1" d="M41.54,8A6.8,6.8,0,1,1,28,7.63,6.79,6.79,0,0,1,34.89.73C38.06.88,42.05,3.93,41.54,8Z"/><path class="cls-1" d="M41.54,411.3a6.72,6.72,0,0,1-7,6.91A6.64,6.64,0,0,1,28,411.29a6.8,6.8,0,1,1,13.58,0Z"/><path class="cls-1" d="M41.54,357.64a6.85,6.85,0,0,1-6.79,6.78c-4,0-6.8-3.24-6.83-7.49,0-3.87,4.11-6.65,6.65-6.61C38.87,350.4,41.63,353.35,41.54,357.64Z"/><path class="cls-1" d="M41.54,438.29c0,3.44-3.43,7.09-6.78,6.82s-7-2.47-6.82-7.09c.13-4.08,3-7,6.94-6.91S41.58,434.14,41.54,438.29Z"/><path class="cls-1" d="M41.54,61.51c.26,4.6-3.34,7-6.79,7A6.55,6.55,0,0,1,28,61.86c0-4.19,2.59-7.11,6.59-7.26A6.84,6.84,0,0,1,41.54,61.51Z"/><path class="cls-1" d="M28,303.35c-.12-4.35,3.27-6.67,6.7-6.77,3.6-.11,7.28,3.47,7,7-.36,4.05-3,7-7,6.92S27.92,307.5,28,303.35Z"/><path class="cls-1" d="M41.54,34.6c.25,4.59-3.4,7-6.81,7A6.54,6.54,0,0,1,28,34.92c0-4.08,2.74-7.14,6.64-7.27A6.86,6.86,0,0,1,41.54,34.6Z"/><path class="cls-1" d="M41.54,680.22A6.68,6.68,0,0,1,34.82,687c-4.71-.13-7.17-3.59-6.9-7.29s3.33-7,6.86-6.7S42.19,676.47,41.54,680.22Z"/><path class="cls-1" d="M41.54,330.57A6.8,6.8,0,1,1,28,330.16c.07-3.61,3.28-7,6.82-6.7S41.81,326,41.54,330.57Z"/><path class="cls-1" d="M34.63,95c-3.94,0-6.69-2.7-6.67-6.49s2.77-7,6.38-7c4.41,0,7.27,2.84,7.2,7.27C41.48,92.61,38.78,95,34.63,95Z"/><path class="cls-1" d="M41.54,276.65c0,4.14-2.82,7-6.85,7a6.74,6.74,0,1,1,.2-13.48C39,270.14,41.57,272.69,41.54,276.65Z"/><path class="cls-1" d="M41.54,626.4a6.58,6.58,0,0,1-7,6.77A6.56,6.56,0,0,1,28,626.29c.05-3.92,3-6.66,7.08-6.6A6.31,6.31,0,0,1,41.54,626.4Z"/><path class="cls-1" d="M34.57,471.52A6.51,6.51,0,0,1,28,464.8c0-3.95,2.9-6.73,7.07-6.76,3.77,0,6.58,3.12,6.51,7.27C41.48,469.15,38.78,471.55,34.57,471.52Z"/><path class="cls-1" d="M34.81,122a6.74,6.74,0,1,1-.08-13.48,6.54,6.54,0,0,1,6.81,6.61C41.6,119.31,39,121.94,34.81,122Z"/><path class="cls-1" d="M34.61,646.63c4.19,0,6.88,2.4,6.93,6.25.06,4.16-2.62,7.08-6.61,7.22a6.65,6.65,0,0,1-7-6.51C27.86,649.35,30.44,646.65,34.61,646.63Z"/><path class="cls-1" d="M41.54,249.74a6.57,6.57,0,0,1-6.49,6.92A6.57,6.57,0,0,1,28,250a6.49,6.49,0,0,1,6.49-6.81C38.54,243.12,41.47,245.84,41.54,249.74Z"/><path class="cls-1" d="M34.79,148.89a6.74,6.74,0,1,1-.08-13.48,6.74,6.74,0,1,1,.08,13.48Z"/><path class="cls-1" d="M34.84,498.46A6.74,6.74,0,1,1,34.66,485a6.74,6.74,0,1,1,.18,13.48Z"/><path class="cls-1" d="M34.49,216.23c4.15,0,7,2.74,7,6.69a6.56,6.56,0,0,1-6.94,6.8,6.75,6.75,0,0,1-.11-13.49Z"/><path class="cls-1" d="M41.54,518.66c0,4-2.85,6.71-7,6.74A6.49,6.49,0,0,1,28,518.72a6.56,6.56,0,0,1,6.94-6.8A6.54,6.54,0,0,1,41.54,518.66Z"/><path class="cls-1" d="M41.54,599.44A6.56,6.56,0,0,1,35,606.23a6.56,6.56,0,0,1-7-6.75c0-4,2.86-6.71,7-6.74A6.5,6.5,0,0,1,41.54,599.44Z"/><path class="cls-1" d="M34.72,579.29A6.75,6.75,0,1,1,35,565.8a6.75,6.75,0,0,1-.24,13.49Z"/><path class="cls-1" d="M41.54,169.21a6.53,6.53,0,0,1-6.82,6.62A6.74,6.74,0,1,1,35,162.35,6.55,6.55,0,0,1,41.54,169.21Z"/><path class="cls-1" d="M41.54,545.5a6.54,6.54,0,0,1-6.6,6.84,6.74,6.74,0,1,1-.2-13.48A6.54,6.54,0,0,1,41.54,545.5Z"/><path class="cls-1" d="M34.77,202.78a6.75,6.75,0,1,1,.14-13.49,6.75,6.75,0,0,1-.14,13.49Z"/><path class="cls-1" d="M55.81,465c0-4,2.19-6.23,6-6.27S68,461,68,464.82c0,3.49-2.83,6.69-6,6.55S55.08,468.25,55.81,465Z"/><path class="cls-1" d="M68,276.9c0,3.77-2.42,6.07-6.26,6s-5.9-2.37-5.9-6.36c0-3.3,3.07-6.41,6.21-6.3A6.53,6.53,0,0,1,68,276.9Z"/><path class="cls-1" d="M55.81,115.26c.07-3.9,2.34-6.12,6.17-6.09s6.08,2.44,6,6.27c-.08,3.46-3.07,6.65-6.22,6.35C58.78,121.51,55.14,118.88,55.81,115.26Z"/><path class="cls-1" d="M55.81,652.88a6.54,6.54,0,0,1,6-6.14c3.3,0,6.21,3.19,6.13,6.84s-2.4,5.82-6.08,5.83C58,659.41,55.76,657.06,55.81,652.88Z"/><path class="cls-1" d="M68,438c0,3.5-3,6.73-6.19,6.46-2.88-.25-6.41-2.78-6-6.59s2.48-6.13,6.35-6A5.67,5.67,0,0,1,68,438Z"/><path class="cls-1" d="M55.81,7.71c0-3.76,2.57-6.36,6.17-6.3C65.11,1.47,68,4.69,68,8c0,3.08-3.13,6.15-6.14,6.11C58.19,14.1,55.79,11.54,55.81,7.71Z"/><path class="cls-1" d="M61.73,632.46c-3.8-.06-5.94-2.38-5.92-6.41a6.23,6.23,0,0,1,6.38-6.13c3.19,0,5.9,3.21,5.78,6.81S65.46,632.53,61.73,632.46Z"/><path class="cls-1" d="M68,357.24c0,3.29-3,6.51-6.13,6.47a5.9,5.9,0,0,1-6-6.07c-.08-4,2.43-6.72,6.16-6.66C65,351,68,354.12,68,357.24Z"/><path class="cls-1" d="M55.81,34.49a6,6,0,0,1,6.31-6.13c3.47.16,5.93,3,5.85,6.66-.06,3.06-3.17,6.12-6.17,6.07S55.76,37.82,55.81,34.49Z"/><path class="cls-1" d="M68,384.23c0,3.28-3,6.49-6.16,6.42-2.91-.07-6.27-3-6.07-6.17.25-3.93,2.59-6.67,6.3-6.55A6.65,6.65,0,0,1,68,384.23Z"/><path class="cls-1" d="M68,88.17A6.54,6.54,0,0,1,62,94.89a6.5,6.5,0,0,1-6.21-6c-.09-4.09,2-6.61,5.65-6.66C65.32,82.18,67.93,84.56,68,88.17Z"/><path class="cls-1" d="M68,303.8c0,3.66-2.51,6-6.4,6-3.51,0-5.45-2.4-5.84-6.19-.35-3.48,3.2-6.29,6.19-6.44C65.14,297.05,68,300.29,68,303.8Z"/><path class="cls-1" d="M61.81,243.88c3.9,0,6.16,2.2,6.16,6,0,3.67-2.24,6-5.88,6-4,.09-6.28-2.23-6.28-6.35C55.82,245.89,57.91,243.89,61.81,243.88Z"/><path class="cls-1" d="M68,411.36a6.58,6.58,0,0,1-6.4,6.21c-2.81,0-5.78-3.33-5.76-6.44A5.92,5.92,0,0,1,62,404.87,6.16,6.16,0,0,1,68,411.36Z"/><path class="cls-1" d="M68,222.93c0,3.79-2.34,6.12-6.18,6.08s-6-2.31-6-6.27c0-3.71,2.14-5.83,5.9-5.8C65.68,217,68,219.14,68,222.93Z"/><path class="cls-1" d="M55.81,61.45a5.92,5.92,0,0,1,6.25-6.14c2.57.1,6.22,2.62,6,6.2S64.86,68.13,61.43,68C58.62,67.9,55.77,64.57,55.81,61.45Z"/><path class="cls-1" d="M55.81,491.88c0-3.94,2.24-6.19,6.06-6.2S68,488,68,491.84s-2.46,6-6.7,5.91C57.83,497.68,55.78,495.47,55.81,491.88Z"/><path class="cls-1" d="M55.81,680.07c-.74-3.23,3.07-6.25,6.15-6.35,3.23-.11,5.85,3.11,6.06,6.59.21,3.32-3.49,6.17-6.15,6C58,686.05,55.63,684.11,55.81,680.07Z"/><path class="cls-1" d="M55.81,599c0-3.47,2.21-5.55,5.8-5.54,4.13,0,6.45,2.28,6.36,6.24-.08,3.61-2.4,5.83-6.08,5.83C57.94,605.52,55.76,603.18,55.81,599Z"/><path class="cls-1" d="M68,330.61c.46,3.52-3.4,6.09-6,6.15a5.91,5.91,0,0,1-6.19-6.2c0-3.11,2.86-6.43,5.67-6.5A6.58,6.58,0,0,1,68,330.61Z"/><path class="cls-1" d="M61.91,136.11c3.8,0,6.13,2.39,6.06,6.2s-2.37,5.87-6.38,5.88c-3.72,0-5.83-2.16-5.78-5.92C55.86,138.35,58.08,136.11,61.91,136.11Z"/><path class="cls-1" d="M61.84,512.62c3.81,0,6.17,2.33,6.13,6.13s-2.31,5.92-6.31,5.94c-3.6,0-5.79-2-5.85-5.48C55.74,515,57.9,512.65,61.84,512.62Z"/><path class="cls-1" d="M61.75,190c3.73-.05,6.11,2.14,6.22,5.75.12,3.86-2.19,6.28-6,6.32s-6.12-2.21-6.17-6.15C55.77,192.33,58.05,190.05,61.75,190Z"/><path class="cls-1" d="M55.81,169.17c.06-3.93,2.34-6.17,6.21-6.11s6.09,2.5,5.95,6.36c-.12,3.59-2.52,5.78-6.26,5.71S55.76,172.77,55.81,169.17Z"/><path class="cls-1" d="M68,545.6c0,3.79-2.4,6.11-6.26,6-3.65-.07-5.9-2.37-5.9-6s2.4-6.11,6.26-6C65.72,539.63,68,541.93,68,545.6Z"/><path class="cls-1" d="M68,572.66c0,3.76-2.5,6-6.38,5.92-3.61-.11-5.82-2.47-5.78-6.16s2.5-6,6.38-5.91C65.81,566.62,68,569,68,572.66Z"/><path class="cls-1" d="M94.4,7.67a5.58,5.58,0,0,1-5.7,5.81c-2.87.12-5.64-3.18-5.67-5.77,0-2.8,3-5.65,5.81-5.6A5.45,5.45,0,0,1,94.4,7.67Z"/><path class="cls-1" d="M94.4,438a5.49,5.49,0,0,1-5.31,5.81c-2.71,0-6-2.93-6.08-5.52a5.9,5.9,0,0,1,5.89-5.81A5.21,5.21,0,0,1,94.4,438Z"/><path class="cls-1" d="M94.4,249.78c0,3.66-1.74,5.47-5.4,5.47-4.1,0-5.57-2.31-5.89-5.29-.29-2.72,2.89-6.14,5.51-6C91.64,244.19,94.4,245.54,94.4,249.78Z"/><path class="cls-1" d="M94.4,679.91c0,3.43-2.07,5.7-5.29,5.73A5.8,5.8,0,0,1,83,680c-.05-2.54,3.13-5.64,5.87-5.73A5.47,5.47,0,0,1,94.4,679.91Z"/><path class="cls-1" d="M94.4,653.37a5.23,5.23,0,0,1-5.33,5.34c-4,0-5.65-2.15-6-5.57-.28-2.69,3.26-5.86,6.12-5.77C92.23,647.47,94.41,650,94.4,653.37Z"/><path class="cls-1" d="M94.41,303.44c0,3.41-2.11,5.67-5.34,5.69A5.81,5.81,0,0,1,83,303.49c0-2.55,3.18-5.62,5.91-5.69A5.5,5.5,0,0,1,94.41,303.44Z"/><path class="cls-1" d="M94.41,411.34a5.47,5.47,0,0,1-5.58,5.55c-2.75-.12-5.9-3.25-5.82-5.78a5.79,5.79,0,0,1,6.15-5.55C92.35,405.61,94.44,407.91,94.41,411.34Z"/><path class="cls-1" d="M94.4,196a5.41,5.41,0,0,1-5.44,5.8c-2.5.14-5.79-3-5.89-5.67a6.21,6.21,0,0,1,5.54-5.94A5.5,5.5,0,0,1,94.4,196Z"/><path class="cls-1" d="M94.41,384.12A5.5,5.5,0,0,1,89.14,390C86.17,390,83,387,83,384.24a6.25,6.25,0,0,1,5.79-5.62A5.48,5.48,0,0,1,94.41,384.12Z"/><path class="cls-1" d="M88.91,604.82c-3.43,0-5.88-2.28-5.85-5.36s3.09-6.15,6-5.85c3.16.33,5.33,2,5.32,5.85C94.4,603.08,92.59,604.86,88.91,604.82Z"/><path class="cls-1" d="M94.4,61.41c0,3.37-2.25,5.86-5.29,5.91-2.86.05-6.22-3.16-6.1-5.82A5.78,5.78,0,0,1,89.18,56,5.2,5.2,0,0,1,94.4,61.41Z"/><path class="cls-1" d="M94.41,357.5a5.48,5.48,0,0,1-5.6,5.52,6.26,6.26,0,0,1-5.8-5.61c0-2.51,3.2-5.75,5.75-5.73A5.48,5.48,0,0,1,94.41,357.5Z"/><path class="cls-1" d="M94.4,276.87a5.21,5.21,0,0,1-5.32,5.32,5.79,5.79,0,0,1-6.07-5.6c-.05-2.68,3.37-5.83,6.2-5.73C92.25,271,94.42,273.49,94.4,276.87Z"/><path class="cls-1" d="M94.4,572.38c.06,3.68-1.63,5.41-5.36,5.5-3.38.07-5.79-2-6-5.14-.16-2.92,2.77-6,5.8-6.12S94.35,569.23,94.4,572.38Z"/><path class="cls-1" d="M94.41,626.32a5.21,5.21,0,0,1-5.22,5.44c-4.15.12-5.92-2.34-6.13-5.78-.15-2.42,3.19-5.68,5.61-5.48C91.79,620.75,94.41,622.15,94.41,626.32Z"/><path class="cls-1" d="M94.4,545.5a5.68,5.68,0,0,1-5.26,6c-2.9.14-6-2.87-6.08-5.86a5.37,5.37,0,0,1,5.36-5.39C92.51,540.18,94.36,541.8,94.4,545.5Z"/><path class="cls-1" d="M94.4,88.52c-.08,3.33-2.44,5.8-5.46,5.75-2.72-.06-5.91-3.1-5.93-5.65a5.81,5.81,0,0,1,6.34-5.68A5.25,5.25,0,0,1,94.4,88.52Z"/><path class="cls-1" d="M94.41,330.24a5.47,5.47,0,0,1-5.64,5.83A5.77,5.77,0,0,1,83,330.52c-.08-2.52,3-5.64,5.8-5.77A5.46,5.46,0,0,1,94.41,330.24Z"/><path class="cls-1" d="M88.72,163.76c3.86,0,5.63,1.61,5.68,5.18s-2.47,6.21-5.56,6.07a6.43,6.43,0,0,1-5.77-5.8A5.38,5.38,0,0,1,88.72,163.76Z"/><path class="cls-1" d="M89.19,136.82q5.39.09,5.21,5.64c-.1,3.36-2.51,5.78-5.58,5.6s-5.88-2.95-5.7-5.8C83.33,138.94,85.24,136.68,89.19,136.82Z"/><path class="cls-1" d="M94.41,34.71A5.5,5.5,0,0,1,89,40.38c-2.71,0-5.92-3-6-5.56-.07-2.74,2.84-5.72,5.62-5.77A5.49,5.49,0,0,1,94.41,34.71Z"/><path class="cls-1" d="M94.4,518.52a5.65,5.65,0,0,1-5.2,6.05c-2.87.2-6-2.73-6.13-5.75s2.3-5.4,5.69-5.49C92.46,513.23,94.35,515,94.4,518.52Z"/><path class="cls-1" d="M94.4,491.83c0,3.4-2.27,5.82-5.37,5.82-2.77,0-6.15-2.95-6-5.53.24-3.45,2-5.86,6.16-5.74A5.2,5.2,0,0,1,94.4,491.83Z"/><path class="cls-1" d="M94.4,115.38c0,4.22-2.76,5.55-5.78,5.76-2.42.17-5.56-3.12-5.61-5.52a5.81,5.81,0,0,1,6.27-5.74A5.21,5.21,0,0,1,94.4,115.38Z"/><path class="cls-1" d="M94.4,223c0,3.61-1.82,5.38-5.49,5.34-3.43,0-5.87-2.27-5.85-5.35a6.46,6.46,0,0,1,6-5.92A5.72,5.72,0,0,1,94.4,223Z"/><path class="cls-1" d="M94.4,465c0,4.18-2.79,5.54-5.8,5.72-2.43.16-5.56-3.14-5.59-5.54a5.82,5.82,0,0,1,6.3-5.72A5.24,5.24,0,0,1,94.4,465Z"/><path class="cls-1" d="M110.83,249.91a5.5,5.5,0,0,1,5.5-5.29,5.44,5.44,0,0,1,5.11,5.32c0,2.28-3.16,5.26-5.41,5.2A5.43,5.43,0,0,1,110.83,249.91Z"/><path class="cls-1" d="M116.21,217.67a5.77,5.77,0,0,1,5.24,5.29c0,2.35-3.24,5.36-5.72,5.29a5.3,5.3,0,0,1,.48-10.58Z"/><path class="cls-1" d="M116.21,567.24c2.33,0,5.33,3.14,5.23,5.42s-3.17,5.13-5.57,5.16c-2.58,0-5.13-2.73-5-5.44A5.52,5.52,0,0,1,116.21,567.24Z"/><path class="cls-1" d="M110.84,599.33a5.31,5.31,0,0,1,10.61.11c0,2.2-3.33,5.37-5.51,5.25A5.38,5.38,0,0,1,110.84,599.33Z"/><path class="cls-1" d="M116.3,147.45a5.53,5.53,0,0,1-5.46-5,5.41,5.41,0,0,1,5.36-5.48c2.4.06,5.07,2.94,5.12,5.51A5.23,5.23,0,0,1,116.3,147.45Z"/><path class="cls-1" d="M116.16,174.39a5.51,5.51,0,0,1-5.32-5.18c-.07-2.72,2.49-5.45,5.07-5.39s5.48,3.15,5.41,5.7A5.21,5.21,0,0,1,116.16,174.39Z"/><path class="cls-1" d="M110.84,276.72a5.44,5.44,0,0,1,5.24-5.17,5.18,5.18,0,0,1,5.24,5.17c-.14,2.51-3.09,5.46-5.36,5.35A5.39,5.39,0,0,1,110.84,276.72Z"/><path class="cls-1" d="M116.18,550.9a5.51,5.51,0,0,1-5.34-5.16c-.09-2.72,2.47-5.46,5.06-5.41,2.41,0,5.46,2.9,5.54,5.18S118.52,550.88,116.18,550.9Z"/><path class="cls-1" d="M116,497a5.27,5.27,0,0,1,.12-10.53c2.22,0,5.41,3.32,5.29,5.47A5.4,5.4,0,0,1,116,497Z"/><path class="cls-1" d="M116.23,524a5.52,5.52,0,0,1-5.39-5.11c-.11-2.71,2.42-5.48,5-5.47a6.15,6.15,0,0,1,5.48,5.55A5.47,5.47,0,0,1,116.23,524Z"/><path class="cls-1" d="M116.1,12.75c-3.18,0-5.24-1.94-5.27-4.93,0-3.25,1.94-5.07,5.46-5a5.13,5.13,0,0,1,5,4.89A5.13,5.13,0,0,1,116.1,12.75Z"/><path class="cls-1" d="M116.11,470.08c-2.75,0-5.33-2.53-5.28-5.11a5.19,5.19,0,0,1,5.08-5.3c2.74.07,5.52,2.95,5.41,5.6A5.23,5.23,0,0,1,116.11,470.08Z"/><path class="cls-1" d="M110.83,196a5.56,5.56,0,0,1,4.83-5.27c2.49-.12,5.79,2.89,5.79,5.27s-3.3,5.4-5.79,5.28A5.55,5.55,0,0,1,110.83,196Z"/><path class="cls-1" d="M110.84,626.34a5.5,5.5,0,0,1,5.27-5.21,5.67,5.67,0,0,1,5.33,5.22c.06,2.14-3.27,5.38-5.44,5.29A5.4,5.4,0,0,1,110.84,626.34Z"/><path class="cls-1" d="M116.23,83.31a5.72,5.72,0,0,1,5.09,5.43,5.21,5.21,0,0,1-5.53,4.83,5.28,5.28,0,0,1-5-4.94A5.16,5.16,0,0,1,116.23,83.31Z"/><path class="cls-1" d="M116,29.75c2.65-.47,5,1.79,5.24,5,.2,2.58-2.24,4.89-4.89,5a5.2,5.2,0,0,1-5.56-5C110.86,31.53,112.71,29.79,116,29.75Z"/><path class="cls-1" d="M116,379.32c2.81-.45,5,1.83,5.29,4.92.24,2.58-2.2,4.93-4.84,5a5.16,5.16,0,0,1-5.61-5C110.83,381.14,112.67,379.38,116,379.32Z"/><path class="cls-1" d="M110.83,653.12a5.24,5.24,0,0,1,4.86-5.06c3.15-.09,5.73,2.24,5.63,5.09a5.56,5.56,0,0,1-5.37,5.09A5,5,0,0,1,110.83,653.12Z"/><path class="cls-1" d="M116.15,308.43c-3.37,0-5.24-1.68-5.32-4.78a5.18,5.18,0,0,1,5.09-5.15,5.42,5.42,0,0,1,5.53,5.29C121.42,306.08,118.74,308.44,116.15,308.43Z"/><path class="cls-1" d="M116.05,362.32c-3.34,0-5.19-1.77-5.22-4.88a5.2,5.2,0,0,1,5.55-5.06c2.66.06,5.1,2.36,4.9,4.95C121,360.5,118.71,362.79,116.05,362.32Z"/><path class="cls-1" d="M116.05,120.51a5.5,5.5,0,0,1-5.21-5.6A5.22,5.22,0,0,1,116,110.1c2.74.14,5.47,3.06,5.3,5.68A5.26,5.26,0,0,1,116.05,120.51Z"/><path class="cls-1" d="M116.19,56.69a5.14,5.14,0,0,1,5.13,5.1,5.21,5.21,0,0,1-5.49,4.84,5.27,5.27,0,0,1-5-4.88C110.76,58.5,112.69,56.68,116.19,56.69Z"/><path class="cls-1" d="M115.93,684.94c-3.29-.08-5.11-1.85-5.1-5a5.12,5.12,0,0,1,5.26-5c3,.1,5.5,2.41,5.18,5.09C120.91,683.18,118.81,685.38,115.93,684.94Z"/><path class="cls-1" d="M116,335.37c-3.3-.06-5.14-1.81-5.15-4.92a5.21,5.21,0,0,1,5.21-5c3,.08,5.52,2.37,5.24,5.05C121,333.59,118.78,335.82,116,335.37Z"/><path class="cls-1" d="M116.32,433.2a5.13,5.13,0,0,1,5,4.87,5.25,5.25,0,0,1-10.49.07C110.84,434.91,112.81,433.14,116.32,433.2Z"/><path class="cls-1" d="M116.19,406.26a5.13,5.13,0,0,1,5.13,5.09,5.26,5.26,0,0,1-10.49,0C110.77,408.06,112.69,406.25,116.19,406.26Z"/><path class="cls-1" d="M138.67,34.4A4.36,4.36,0,0,1,143,29.81c2.43,0,5.08,2.7,5,5.09a5.25,5.25,0,0,1-5,4.56C140.22,39.39,138.67,37.52,138.67,34.4Z"/><path class="cls-1" d="M138.67,195.9c0-2.74,1.7-4.46,4.31-4.47,3,0,5,1.95,5,4.73s-2,4.45-4.88,4.48S138.63,198.85,138.67,195.9Z"/><path class="cls-1" d="M138.67,61.24A4.35,4.35,0,0,1,143,56.75a5.57,5.57,0,0,1,4.88,4.78,5.2,5.2,0,0,1-5.06,4.88C140.35,66.24,138.63,64.12,138.67,61.24Z"/><path class="cls-1" d="M143.18,325.66a5.23,5.23,0,0,1,4.74,4.84c-.06,2.41-2.84,5-5.2,4.82a4.38,4.38,0,0,1-4.05-4.81C138.73,327.79,140.79,325.57,143.18,325.66Z"/><path class="cls-1" d="M147.94,546c-.21,2.72-2.49,4.49-5.44,4.23-2.59-.23-4.08-2.28-3.82-5.28a4.19,4.19,0,0,1,4.83-3.92A4.8,4.8,0,0,1,147.94,546Z"/><path class="cls-1" d="M138.67,7.68a4.48,4.48,0,0,1,4.58-4.77c2.16,0,4.73,2.72,4.67,5s-2.7,4.89-4.86,4.75C140.29,12.45,138.63,10.58,138.67,7.68Z"/><path class="cls-1" d="M138.67,168.89a4.15,4.15,0,0,1,4.42-4.41c2.38.05,4.9,2.49,4.86,4.72,0,2.76-2.26,4.66-5.26,4.5C140.15,173.56,138.6,171.71,138.67,168.89Z"/><path class="cls-1" d="M138.67,384.45c-.07-2.9,1.61-4.82,4.38-5,2.18-.15,4.84,2.48,4.87,4.79,0,2.15-2.33,4.77-4.43,4.9C141.17,389.3,138.74,386.93,138.67,384.45Z"/><path class="cls-1" d="M143,567.94c2.86,0,4.87,1.84,4.92,4.49,0,2.22-2.47,4.67-4.85,4.72-2.76.06-4.48-1.78-4.43-4.75C138.72,569.65,140.41,567.92,143,567.94Z"/><path class="cls-1" d="M142.87,406.32c2.25-.07,4.89,2.37,5,4.67s-2.19,4.82-4.66,5c-2.23.15-4.48-2-4.59-4.46C138.55,408.63,140.36,406.39,142.87,406.32Z"/><path class="cls-1" d="M138.67,357.43a4.63,4.63,0,0,1,4.22-4.83,5.23,5.23,0,0,1,5,4.59c.1,2.24-2.48,5-4.65,5C140.57,362.23,138.71,360.29,138.67,357.43Z"/><path class="cls-1" d="M138.67,680.23c0-3.16,1.36-4.5,4.52-4.53a4.38,4.38,0,0,1,4.73,4.16c.08,2.39-2.61,5.08-5,5A4.38,4.38,0,0,1,138.67,680.23Z"/><path class="cls-1" d="M143.24,442.44c-3.18,0-4.53-1.34-4.57-4.48a4.37,4.37,0,0,1,4.18-4.7,5.48,5.48,0,0,1,5.07,5A4.36,4.36,0,0,1,143.24,442.44Z"/><path class="cls-1" d="M143.17,523.27a4.12,4.12,0,0,1-4.5-4.3,4.37,4.37,0,0,1,4.35-4.9c2.23-.14,4.92,2.37,4.93,4.59C148,521.31,146,523.19,143.17,523.27Z"/><path class="cls-1" d="M142.88,218.37c3-.07,5.13,1.88,5.07,4.66,0,2.06-2.57,4.53-4.63,4.55a4.4,4.4,0,0,1-4.65-4.26C138.55,220.29,140.13,218.42,142.88,218.37Z"/><path class="cls-1" d="M142.91,621.82c2.87,0,4.88,1.69,5,4.34.12,2.2-2.43,4.87-4.66,4.87a4.4,4.4,0,0,1-4.61-4.65C138.68,623.59,140.29,621.86,142.91,621.82Z"/><path class="cls-1" d="M143.25,92.88c-3.19,0-4.54-1.34-4.58-4.48a4.37,4.37,0,0,1,4.17-4.71,5.45,5.45,0,0,1,5.08,5A4.36,4.36,0,0,1,143.25,92.88Z"/><path class="cls-1" d="M143.29,137.55a5.42,5.42,0,0,1,4.66,4.52c.07,2.77-2,4.73-5,4.69-2.62,0-4.23-1.77-4.24-4.57A4.39,4.39,0,0,1,143.29,137.55Z"/><path class="cls-1" d="M143.48,272.25a4.38,4.38,0,0,1,4.44,4.45c-.11,2.32-2.71,4.86-4.85,4.75a4.38,4.38,0,0,1-4.4-4.85C138.76,273.73,140.47,272.19,143.48,272.25Z"/><path class="cls-1" d="M138.67,599.56c0-2.94,1.67-4.73,4.44-4.68s4.74,1.81,4.81,4.16-2.41,5-4.54,5.05A4.42,4.42,0,0,1,138.67,599.56Z"/><path class="cls-1" d="M142.7,496.32c-2.63-.13-4.21-2.13-4-5.09a4.43,4.43,0,0,1,4.77-4.11c2.13.08,4.59,2.89,4.48,5.1C147.8,494.68,145.52,496.47,142.7,496.32Z"/><path class="cls-1" d="M138.67,464.59a4.39,4.39,0,0,1,4.47-4.39,5.57,5.57,0,0,1,4.78,4.89c0,2.55-2.08,4.39-4.91,4.3S138.6,467.58,138.67,464.59Z"/><path class="cls-1" d="M138.67,653.32c0-2.9,1.65-4.54,4.57-4.56a4.37,4.37,0,0,1,4.68,4.18c.07,2.38-2.61,5-5,5A4.37,4.37,0,0,1,138.67,653.32Z"/><path class="cls-1" d="M143.32,299.19a4.35,4.35,0,0,1,4.6,4.26,5.47,5.47,0,0,1-5.1,4.93,4.37,4.37,0,0,1-4.15-4.7C138.71,300.79,140.37,299.19,143.32,299.19Z"/><path class="cls-1" d="M143.3,254.52a4.4,4.4,0,0,1-4.63-4.6c0-2.8,1.56-4.54,4.17-4.61,2.85-.08,5.06,1.77,5.08,4.24C147.94,251.81,145.44,254.51,143.3,254.52Z"/><path class="cls-1" d="M143.18,119.82a4.11,4.11,0,0,1-4.51-4.27,4.44,4.44,0,0,1,4.64-4.94c2.13,0,4.64,2.71,4.61,5S145.88,119.74,143.18,119.82Z"/><path class="cls-1" d="M174.39,61.77A4.32,4.32,0,0,1,170,65.88a4.53,4.53,0,0,1-4.14-4.44,4.28,4.28,0,0,1,4.47-4A4.08,4.08,0,0,1,174.39,61.77Z"/><path class="cls-1" d="M174.39,680a4.09,4.09,0,0,1-4.2,4.21,4.31,4.31,0,0,1-4.32-4.17,4.47,4.47,0,0,1,4.28-4.29A4.3,4.3,0,0,1,174.39,680Z"/><path class="cls-1" d="M174.39,384.18a4.29,4.29,0,0,1-4.22,4.32,4.23,4.23,0,1,1,.24-8.45A4.09,4.09,0,0,1,174.39,384.18Z"/><path class="cls-1" d="M170.1,307.71a4.32,4.32,0,0,1-4.23-4.32,4.27,4.27,0,1,1,8.52.5A4.12,4.12,0,0,1,170.1,307.71Z"/><path class="cls-1" d="M170.46,407a4.12,4.12,0,0,1,3.93,4.44,4.37,4.37,0,0,1-4.44,4,4.24,4.24,0,1,1,.51-8.46Z"/><path class="cls-1" d="M174.39,464.82a4.54,4.54,0,0,1-4.16,4.51,4.48,4.48,0,0,1-4.36-4.28,4.29,4.29,0,0,1,4.36-4.18A4.1,4.1,0,0,1,174.39,464.82Z"/><path class="cls-1" d="M170.25,433.92a4.11,4.11,0,0,1,4.14,4,4.26,4.26,0,1,1-8.52.19A4.31,4.31,0,0,1,170.25,433.92Z"/><path class="cls-1" d="M174.38,276.71a4.11,4.11,0,0,1-4,4.06,4.31,4.31,0,0,1-4.55-4.26,4.59,4.59,0,0,1,4-4.21A4.49,4.49,0,0,1,174.38,276.71Z"/><path class="cls-1" d="M170.41,30.48a4.12,4.12,0,0,1,4,4.39A4.33,4.33,0,0,1,170,38.94a4.57,4.57,0,0,1-4.13-4.07A4.52,4.52,0,0,1,170.41,30.48Z"/><path class="cls-1" d="M174.39,653.28a4.12,4.12,0,0,1-4.12,4,4.31,4.31,0,0,1-4.4-4.15,4.26,4.26,0,1,1,8.52.15Z"/><path class="cls-1" d="M174.39,357.46a4.1,4.1,0,0,1-4,4.13,4.24,4.24,0,1,1-.24-8.46A4.3,4.3,0,0,1,174.39,357.46Z"/><path class="cls-1" d="M170.2,84.36a4.11,4.11,0,0,1,4.19,3.83,4.27,4.27,0,1,1-8.52.3A4.31,4.31,0,0,1,170.2,84.36Z"/><path class="cls-1" d="M174.39,330.55a4.11,4.11,0,0,1-3.92,4.1,4.24,4.24,0,1,1-.18-8.46A4.3,4.3,0,0,1,174.39,330.55Z"/><path class="cls-1" d="M174.39,7.8A4.3,4.3,0,0,1,170.07,12a4.54,4.54,0,0,1-4.2-4,4.49,4.49,0,0,1,4.23-4.38A4.31,4.31,0,0,1,174.39,7.8Z"/><path class="cls-1" d="M174.38,626.24a4.07,4.07,0,0,1-3.94,4.09,4.31,4.31,0,0,1-4.57-4.26c0-1.71,2.82-4.2,4.64-4.16S174.31,624,174.38,626.24Z"/><path class="cls-1" d="M170.15,226.88a4.31,4.31,0,0,1-4.28-4.19c0-1.63,2.51-4.05,4.25-4.11a4.27,4.27,0,0,1,4.26,4.25C174.46,225.35,172.86,226.88,170.15,226.88Z"/><path class="cls-1" d="M170,541.69c2.73-.05,4.38,1.42,4.38,3.92a4.3,4.3,0,0,1-4.13,4.38c-1.71,0-4.32-2.33-4.39-4A4.36,4.36,0,0,1,170,541.69Z"/><path class="cls-1" d="M174.39,249.88a4.14,4.14,0,0,1-4.46,4,4.33,4.33,0,0,1-4.06-4.06c-.08-1.71,2.52-4.25,4.44-4.35S174.39,247.54,174.39,249.88Z"/><path class="cls-1" d="M170.21,165.18a4.11,4.11,0,0,1,4.18,3.87,4.32,4.32,0,0,1-4.09,4.43c-2,.07-4.58-2.6-4.45-4.62A4.18,4.18,0,0,1,170.21,165.18Z"/><path class="cls-1" d="M174.38,115.44c-.1,2.2-2,4.28-3.91,4.29s-4.59-2.5-4.6-4.22a4.31,4.31,0,0,1,4.61-4.21A4.08,4.08,0,0,1,174.38,115.44Z"/><path class="cls-1" d="M174.38,142.53a4.29,4.29,0,0,1-4.56,4c-1.86-.25-4.12-2.81-3.93-4.44a4.25,4.25,0,0,1,4.69-3.83A4.09,4.09,0,0,1,174.38,142.53Z"/><path class="cls-1" d="M170.29,487.81a4.11,4.11,0,0,1,4.1,4,4.29,4.29,0,0,1-4.29,4.29c-1.77-.06-4.27-2.54-4.23-4.18A4.31,4.31,0,0,1,170.29,487.81Z"/><path class="cls-1" d="M170,603.39a4.34,4.34,0,0,1-4.16-4.38c.1-1.68,2.77-4,4.5-3.91a4.27,4.27,0,0,1,4,4.55A4.14,4.14,0,0,1,170,603.39Z"/><path class="cls-1" d="M174.38,518.8a4.25,4.25,0,0,1-4.32,4.25c-1.77-.09-4.25-2.59-4.19-4.22a4.29,4.29,0,0,1,4.46-4.08A4.09,4.09,0,0,1,174.38,518.8Z"/><path class="cls-1" d="M170.62,568.63a3.56,3.56,0,0,1,3.76,4c-.07,2.47-1.8,3.91-4.53,3.78a4.36,4.36,0,0,1-4-4.17C165.85,570.22,168,568.57,170.62,568.63Z"/><path class="cls-1" d="M174.39,196c0,2.39-1.49,3.85-4,3.93-2.37.08-4.54-1.92-4.42-4.06a4.26,4.26,0,0,1,4-3.75C172.68,192,174.38,193.52,174.39,196Z"/><path class="cls-1" d="M200.84,518.72c0,2.35-1.37,3.79-3.58,3.79a3.39,3.39,0,0,1-3.58-3.43c0-2.25,1.75-4.32,3.7-4.28C199.57,514.86,200.85,516.31,200.84,518.72Z"/><path class="cls-1" d="M200.83,196.08c0,2.38-1.43,3.85-3.64,3.81a3.87,3.87,0,0,1,.1-7.71C199.52,192.2,200.85,193.67,200.83,196.08Z"/><path class="cls-1" d="M200.83,545.76a3.5,3.5,0,0,1-3.75,3.7,3.87,3.87,0,0,1,.32-7.71C199.65,541.84,200.88,543.28,200.83,545.76Z"/><path class="cls-1" d="M200.83,142.49a3.58,3.58,0,0,1-7.15.06c0-2.27,1.82-4.36,3.78-4.26S200.84,140.06,200.83,142.49Z"/><path class="cls-1" d="M200.83,223c0,2.41-1.39,3.87-3.6,3.81a4.15,4.15,0,0,1-3.54-3.77,3.65,3.65,0,0,1,3.62-3.94C199.54,219.16,200.85,220.61,200.83,223Z"/><path class="cls-1" d="M200.83,572.55c0,2.37-1.39,3.88-3.56,3.85a4.15,4.15,0,0,1-3.58-3.74,3.65,3.65,0,0,1,3.58-4C199.5,568.7,200.84,570.14,200.83,572.55Z"/><path class="cls-1" d="M200.83,169c0,2.44-1.23,3.88-3.47,3.95a3.66,3.66,0,0,1-3.68-3.89,4.21,4.21,0,0,1,3.5-3.83A3.48,3.48,0,0,1,200.83,169Z"/><path class="cls-1" d="M200.83,599c0,2.27-1.77,4.4-3.69,4.31-1.77-.07-3.47-2.13-3.46-4.19a3.35,3.35,0,0,1,3.52-3.52A3.42,3.42,0,0,1,200.83,599Z"/><path class="cls-1" d="M200.83,303.34a4.06,4.06,0,0,1-3.46,4.16c-1.81.09-3.66-1.88-3.69-3.93,0-2.35,1-3.54,3.28-3.66C199.45,299.78,200.77,301,200.83,303.34Z"/><path class="cls-1" d="M200.83,438.09c0,2.5-1.14,3.67-3.66,3.63-2.3,0-3.44-1.17-3.49-3.45a4.06,4.06,0,0,1,3.48-4.13C199,434.06,200.81,436,200.83,438.09Z"/><path class="cls-1" d="M193.68,492.11c0-2.08,1.61-4.13,3.4-4.25s3.78,2,3.75,4.25a3.58,3.58,0,0,1-7.15,0Z"/><path class="cls-1" d="M200.83,330.53c0,2.05-1.91,4-3.71,3.91a4.06,4.06,0,0,1-3.44-4.18c.07-2.28,1.22-3.39,3.54-3.41C199.71,326.84,200.88,328,200.83,330.53Z"/><path class="cls-1" d="M200.83,61.54c0,2.5-1.12,3.69-3.62,3.67-2.31,0-3.47-1.13-3.53-3.41a4.05,4.05,0,0,1,3.44-4.17C198.93,57.53,200.79,59.49,200.83,61.54Z"/><path class="cls-1" d="M197.29,92.16c-2.49,0-3.66-1.19-3.61-3.69,0-2,1.92-4,3.72-3.9a4.09,4.09,0,0,1,3.43,3.84C200.92,90.89,199.73,92.14,197.29,92.16Z"/><path class="cls-1" d="M197.37,649.48c2.4,0,3.58,1.36,3.46,3.83a4.08,4.08,0,0,1-3.51,3.75c-1.83.06-3.63-1.91-3.64-4C193.66,650.59,194.85,649.43,197.37,649.48Z"/><path class="cls-1" d="M193.68,680.09c-.05-2.5,1.13-3.69,3.62-3.67,2.31,0,3.47,1.14,3.53,3.41a4.06,4.06,0,0,1-3.45,4.18C195.58,684.11,193.72,682.14,193.68,680.09Z"/><path class="cls-1" d="M193.68,249.43a3.43,3.43,0,0,1,3.73-3.37,3.35,3.35,0,0,1,3.42,3.67c0,1.93-1.77,4-3.31,4A4.24,4.24,0,0,1,193.68,249.43Z"/><path class="cls-1" d="M200.83,465.09c0,2.33-1.24,3.63-3.41,3.56s-3.67-1.32-3.74-3.37a4.05,4.05,0,0,1,3.48-4.2C199,461,200.83,463,200.83,465.09Z"/><path class="cls-1" d="M200.83,626.22c0,1.91-1.76,4-3.29,4a4.25,4.25,0,0,1-3.86-4.28,3.43,3.43,0,0,1,3.7-3.39A3.36,3.36,0,0,1,200.83,626.22Z"/><path class="cls-1" d="M200.83,276.5c0,2.09-1.77,4.09-3.62,4.05s-3.58-2-3.53-4.14,1.38-3.32,3.68-3.43S200.81,274.18,200.83,276.5Z"/><path class="cls-1" d="M200.83,384.17c0,2.51-1.12,3.69-3.64,3.67-2.3,0-3.46-1.16-3.51-3.44-.05-2.5,1.12-3.69,3.64-3.66C199.63,380.76,200.78,381.89,200.83,384.17Z"/><path class="cls-1" d="M197.39,414.78c-2.52.06-3.73-1.11-3.71-3.59,0-2.3,1.15-3.45,3.44-3.51,2.53-.06,3.73,1.1,3.71,3.59C200.82,413.57,199.68,414.73,197.39,414.78Z"/><path class="cls-1" d="M197.4,38.27c-2.5.07-3.73-1.11-3.72-3.58,0-2.3,1.14-3.46,3.43-3.52,2.51-.06,3.73,1.11,3.72,3.58C200.82,37.06,199.7,38.21,197.4,38.27Z"/><path class="cls-1" d="M200.83,115.86a3.54,3.54,0,0,1-3.86,3.2,3.35,3.35,0,0,1-3.29-3.76c.08-2,2.1-4,3.86-3.78A4.09,4.09,0,0,1,200.83,115.86Z"/><path class="cls-1" d="M200.83,7.69c0,2.5-1.13,3.67-3.66,3.64-2.3,0-3.45-1.18-3.49-3.46,0-2.51,1.13-3.68,3.66-3.64C199.64,4.26,200.79,5.4,200.83,7.69Z"/><path class="cls-1" d="M197.27,360.9c-2.47,0-3.66-1.22-3.59-3.71.07-2.27,1.23-3.39,3.56-3.39s3.66,1.22,3.59,3.71C200.77,359.78,199.6,360.89,197.27,360.9Z"/><path class="cls-1" d="M224.4,488.54a3.61,3.61,0,0,1,3.53,3.7,4.17,4.17,0,0,1-3.79,3.16c-1.68-.19-3.41-2.13-3.27-3.67A3.19,3.19,0,0,1,224.4,488.54Z"/><path class="cls-1" d="M227.92,34.65a4.24,4.24,0,0,1-3.3,3.57,4.07,4.07,0,0,1-3.75-3.48,3.67,3.67,0,0,1,3.25-3.52A4.1,4.1,0,0,1,227.92,34.65Z"/><path class="cls-1" d="M227.92,357.19c.1,1.46-1.73,3.51-3.27,3.66s-3.79-1.85-3.78-3.52a4.2,4.2,0,0,1,3.45-3.49A4.25,4.25,0,0,1,227.92,357.19Z"/><path class="cls-1" d="M227.92,88.4c.09,1.52-1.72,3.43-3.35,3.55a4.1,4.1,0,0,1-3.7-3.21,3.53,3.53,0,0,1,7-.34Z"/><path class="cls-1" d="M224.5,380.79a4.19,4.19,0,0,1,3.42,3.51c0,1.68-2.18,3.67-3.81,3.49s-3.35-2.24-3.24-3.69A4.22,4.22,0,0,1,224.5,380.79Z"/><path class="cls-1" d="M227.93,115.65a4.08,4.08,0,0,1-3.67,3.24c-1.63-.1-3.46-2-3.39-3.51a3.53,3.53,0,0,1,7.06.27Z"/><path class="cls-1" d="M227.92,626.24a3.53,3.53,0,0,1-7-.23,4,4,0,0,1,3.64-3.26C226.13,622.83,228,624.72,227.92,626.24Z"/><path class="cls-1" d="M227.92,7.83a4.16,4.16,0,0,1-3.49,3.45c-1.68,0-3.71-2.1-3.56-3.73a3.53,3.53,0,0,1,7,.28Z"/><path class="cls-1" d="M224.29,441.51a4,4,0,0,1-3.42-3.48,3.53,3.53,0,0,1,7.06.21A4,4,0,0,1,224.29,441.51Z"/><path class="cls-1" d="M227.93,653a3.53,3.53,0,0,1-7.06.21,4,4,0,0,1,3.42-3.48A4.06,4.06,0,0,1,227.93,653Z"/><path class="cls-1" d="M220.87,303.59c-.05-1.51,1.81-3.4,3.43-3.47a4,4,0,0,1,3.62,3.28,3.53,3.53,0,0,1-7,.19Z"/><path class="cls-1" d="M224.45,548.8c-2.17,0-3.61-1.17-3.58-3a3.35,3.35,0,0,1,3.58-3.43,3.2,3.2,0,1,1,0,6.39Z"/><path class="cls-1" d="M227.92,679.89a4.25,4.25,0,0,1-3.31,3.59,3.68,3.68,0,0,1-3.74-3.41,3.53,3.53,0,0,1,7-.18Z"/><path class="cls-1" d="M224.42,219.78a3.2,3.2,0,1,1,.06,6.39,3.35,3.35,0,0,1-3.61-3.4C220.82,221,222.25,219.77,224.42,219.78Z"/><path class="cls-1" d="M224.31,145.34c-2.14,0-3.55-1.29-3.44-3.09a3.28,3.28,0,0,1,3.36-3.28,3.62,3.62,0,0,1,3.69,3.46C227.93,144.2,226.48,145.38,224.31,145.34Z"/><path class="cls-1" d="M224.33,596.29a3.25,3.25,0,0,1,3.54,3.08,3.32,3.32,0,0,1-3.3,3.31,3.26,3.26,0,0,1-3.7-3.32C220.77,597.56,222.18,596.31,224.33,596.29Z"/><path class="cls-1" d="M224,327c1.63-.11,3.91,1.83,3.95,3.38a3.53,3.53,0,0,1-7,.39C220.7,329.29,222.54,327.06,224,327Z"/><path class="cls-1" d="M227.86,276.71a3.5,3.5,0,0,1-3.41,3.31,3.66,3.66,0,0,1-3.58-3.2c-.13-1.52,1.56-3.42,3.23-3.63S227.77,274.94,227.86,276.71Z"/><path class="cls-1" d="M224.39,521.85c-2.16,0-3.59-1.22-3.52-3a3.51,3.51,0,0,1,7-.11A3.28,3.28,0,0,1,224.39,521.85Z"/><path class="cls-1" d="M224.51,172.29c-2.18,0-3.63-1.12-3.64-2.9a3.37,3.37,0,0,1,3.52-3.49,3.2,3.2,0,1,1,.12,6.39Z"/><path class="cls-1" d="M227.92,465c.05,1.5-1.8,3.38-3.4,3.47s-3.63-2.06-3.61-3.71a3.52,3.52,0,0,1,7,.24Z"/><path class="cls-1" d="M227.92,411.24c0,1.55-2.22,3.52-3.89,3.45-1.24-.05-3.11-2-3.16-3.36a4.08,4.08,0,0,1,3.66-3.6A4.19,4.19,0,0,1,227.92,411.24Z"/><path class="cls-1" d="M224.25,65c-1.65-.11-3.51-2.07-3.38-3.56a4.2,4.2,0,0,1,3.68-3.29,4.25,4.25,0,0,1,3.38,3.58A4.07,4.07,0,0,1,224.25,65Z"/><path class="cls-1" d="M224.55,199.23a3.24,3.24,0,0,1-3.62-3,3.3,3.3,0,0,1,3.31-3.35,3.24,3.24,0,0,1,3.62,3A3.31,3.31,0,0,1,224.55,199.23Z"/><path class="cls-1" d="M224.49,575.74a3.27,3.27,0,0,1-3.57-3.11,3.3,3.3,0,0,1,3.39-3.28,3.25,3.25,0,0,1,3.56,3.1A3.31,3.31,0,0,1,224.49,575.74Z"/><path class="cls-1" d="M224.35,246.72a3.26,3.26,0,0,1,3.52,3.11,3.53,3.53,0,0,1-3.5,3.25,3.64,3.64,0,0,1-3.5-3.29C220.77,248,222.21,246.74,224.35,246.72Z"/><path class="cls-1" d="M251.66,542.46a3,3,0,0,1,2.72,3.44,3,3,0,0,1-3,2.85,3.06,3.06,0,0,1-2.72-3.45A2.94,2.94,0,0,1,251.66,542.46Z"/><path class="cls-1" d="M251.2,677.14a3,3,0,0,1,3.19,3,3,3,0,0,1-2.7,3.12,3,3,0,0,1-3-3.17C248.62,678,249.34,677.14,251.2,677.14Z"/><path class="cls-1" d="M254.39,196.19a2.87,2.87,0,1,1-2.87-3.3A3,3,0,0,1,254.39,196.19Z"/><path class="cls-1" d="M251.47,434.86a3.07,3.07,0,0,1,0,6.14c-1.91.12-2.72-.69-2.75-2.75A3,3,0,0,1,251.47,434.86Z"/><path class="cls-1" d="M251.54,172.24a3.17,3.17,0,0,1-.42-6.24,3.32,3.32,0,0,1,3.27,2.95A3,3,0,0,1,251.54,172.24Z"/><path class="cls-1" d="M254.39,518.61a2.87,2.87,0,1,1-5.71.17c-.05-1.64,1.18-3.2,2.53-3.23A3.29,3.29,0,0,1,254.39,518.61Z"/><path class="cls-1" d="M254.39,572.61a3.3,3.3,0,0,1-3.2,3c-1.35,0-2.57-1.61-2.51-3.25a2.87,2.87,0,1,1,5.71.21Z"/><path class="cls-1" d="M254.39,599.63a3.32,3.32,0,0,1-3.27,3,3.05,3.05,0,0,1-2.43-3.31,2.94,2.94,0,0,1,2.85-2.93A3,3,0,0,1,254.39,599.63Z"/><path class="cls-1" d="M254.39,223.13a3.33,3.33,0,0,1-3.28,2.94,3.06,3.06,0,0,1-2.42-3.31,2.93,2.93,0,0,1,2.86-2.93A3,3,0,0,1,254.39,223.13Z"/><path class="cls-1" d="M251.5,300.66a2.94,2.94,0,0,1,2.89,2.94,2.91,2.91,0,0,1-3,3.18,3.08,3.08,0,0,1,.11-6.12Z"/><path class="cls-1" d="M254.39,88.19a3,3,0,0,1-3,3.22,3.08,3.08,0,0,1,0-6.12A3,3,0,0,1,254.39,88.19Z"/><path class="cls-1" d="M254.39,115.08a2.86,2.86,0,1,1-3-2.85A3,3,0,0,1,254.39,115.08Z"/><path class="cls-1" d="M254.39,276.77a2.87,2.87,0,1,1-2.77-3A3,3,0,0,1,254.39,276.77Z"/><path class="cls-1" d="M251.45,360.18c-2.07,0-2.74-.69-2.77-2.75s.71-2.94,2.59-2.91a3,3,0,0,1,3.12,3.09C254.42,359.47,253.57,360.22,251.45,360.18Z"/><path class="cls-1" d="M251.47,623.28a3.07,3.07,0,0,1-.05,6.13,3.08,3.08,0,0,1,.05-6.13Z"/><path class="cls-1" d="M254.39,491.81a2.86,2.86,0,1,1-2.75-3.07A3,3,0,0,1,254.39,491.81Z"/><path class="cls-1" d="M251.68,381.45c1.94.05,2.68.72,2.71,2.45a3,3,0,0,1-3.35,3.22c-1.71-.08-2.35-.83-2.36-2.79C248.67,382.1,249.4,381.39,251.68,381.45Z"/><path class="cls-1" d="M254.39,653.45a2.87,2.87,0,1,1-3-3.22A3,3,0,0,1,254.39,653.45Z"/><path class="cls-1" d="M251.65,252.9a3,3,0,0,1-3-2.85,3.06,3.06,0,0,1,2.56-3.27,3.07,3.07,0,0,1,.41,6.12Z"/><path class="cls-1" d="M251.64,333.24c-2.26,0-3-.68-3-2.91,0-1.94.68-2.7,2.4-2.75a3,3,0,0,1,3.31,3.25C254.34,332.56,253.6,333.21,251.64,333.24Z"/><path class="cls-1" d="M254.39,142.18a2.86,2.86,0,1,1-2.81-3A3,3,0,0,1,254.39,142.18Z"/><path class="cls-1" d="M248.68,34.88c-.07-2.26.64-3,2.87-3,2,0,2.75.63,2.83,2.33a3,3,0,0,1-3.21,3.34C249.41,37.54,248.74,36.81,248.68,34.88Z"/><path class="cls-1" d="M254.39,464.7a3,3,0,0,1-3,3.22,3,3,0,0,1-2.75-3.09,2.86,2.86,0,1,1,5.71-.13Z"/><path class="cls-1" d="M248.68,61.68c0-2.21.74-2.92,3-2.85,1.94.05,2.67.72,2.69,2.46a3,3,0,0,1-3,3.2C249.48,64.58,248.68,63.75,248.68,61.68Z"/><path class="cls-1" d="M251.68,408.39c1.94.05,2.68.72,2.71,2.45a3,3,0,0,1-3.35,3.22c-1.71-.08-2.35-.83-2.36-2.79C248.67,409.05,249.41,408.34,251.68,408.39Z"/><path class="cls-1" d="M251.4,10.62c-2,0-2.69-.71-2.72-2.76s.68-2.92,2.54-2.91a3,3,0,0,1,3.14,3A2.63,2.63,0,0,1,251.4,10.62Z"/><path class="cls-1" d="M278.64,354.56a3.25,3.25,0,0,1,2.81,3.12,2.8,2.8,0,1,1-2.81-3.12Z"/><path class="cls-1" d="M278.31,602c-1.74,0-2.53-.85-2.47-2.62a3,3,0,0,1,2.93-2.83,3.42,3.42,0,0,1,2.67,2.84C281.48,600.73,280,602,278.31,602Z"/><path class="cls-1" d="M281.45,8.09a2.91,2.91,0,0,1-3,2.48,3,3,0,0,1-2.63-2.86A2.92,2.92,0,0,1,278.63,5,3.21,3.21,0,0,1,281.45,8.09Z"/><path class="cls-1" d="M278.53,414a2.82,2.82,0,0,1-2.67-2.71,2.81,2.81,0,0,1,5.6-.36A3.59,3.59,0,0,1,278.53,414Z"/><path class="cls-1" d="M278.31,300.71a3.57,3.57,0,0,1,3.12,2.88,2.82,2.82,0,0,1-2.72,2.67,3,3,0,0,1-2.85-2.59A2.93,2.93,0,0,1,278.31,300.71Z"/><path class="cls-1" d="M281.33,384.35a2.74,2.74,0,1,1-5.47-.31,2.74,2.74,0,0,1,5.47.31Z"/><path class="cls-1" d="M278.36,440.92a2.9,2.9,0,0,1-2.5-2.9,3,3,0,0,1,2.81-2.64,2.83,2.83,0,0,1,2.76,2.62A3.59,3.59,0,0,1,278.36,440.92Z"/><path class="cls-1" d="M281.45,34.4a3.6,3.6,0,0,1-2.94,3.05,2.84,2.84,0,0,1-2.65-2.74,3,3,0,0,1,2.66-2.78A2.91,2.91,0,0,1,281.45,34.4Z"/><path class="cls-1" d="M281.46,680.3a3,3,0,0,1-3,2.47,3,3,0,0,1-2.64-2.81,2.83,2.83,0,0,1,2.67-2.72A3.58,3.58,0,0,1,281.46,680.3Z"/><path class="cls-1" d="M278.51,650.3a3.58,3.58,0,0,1,2.94,3.05,2.91,2.91,0,0,1-2.94,2.47,3,3,0,0,1-2.65-2.79A2.84,2.84,0,0,1,278.51,650.3Z"/><path class="cls-1" d="M281.45,61.28a3.59,3.59,0,0,1-2.88,3.11,2.8,2.8,0,0,1-2.71-2.67,3,3,0,0,1,2.6-2.85A2.94,2.94,0,0,1,281.45,61.28Z"/><path class="cls-1" d="M278.47,327.67a3.61,3.61,0,0,1,3,3,2.9,2.9,0,0,1-2.89,2.51,3,3,0,0,1-2.7-2.75A2.86,2.86,0,0,1,278.47,327.67Z"/><path class="cls-1" d="M281.43,491.92a3.14,3.14,0,0,1-3.08,2.74,2.83,2.83,0,0,1-2.48-2.88,3,3,0,0,1,2.88-2.52A2.81,2.81,0,0,1,281.43,491.92Z"/><path class="cls-1" d="M281.43,276.7a2.84,2.84,0,0,1-2.74,2.61,3,3,0,0,1-2.82-2.57,2.84,2.84,0,0,1,2.53-2.85A3.19,3.19,0,0,1,281.43,276.7Z"/><path class="cls-1" d="M278.69,112.75a2.85,2.85,0,0,1,2.74,2.61,3.4,3.4,0,0,1-2.68,2.82,3,3,0,0,1-2.89-2.51A2.93,2.93,0,0,1,278.69,112.75Z"/><path class="cls-1" d="M278.57,462.32a2.92,2.92,0,0,1,2.88,2.49,3.58,3.58,0,0,1-2.58,2.94,3.15,3.15,0,0,1-3-2.39A2.91,2.91,0,0,1,278.57,462.32Z"/><path class="cls-1" d="M278.52,628.88a2.93,2.93,0,0,1-2.65-3.09,3.21,3.21,0,0,1,3.05-2.33,3.61,3.61,0,0,1,2.54,3A3,3,0,0,1,278.52,628.88Z"/><path class="cls-1" d="M278.69,85.81a2.85,2.85,0,0,1,2.74,2.61,3.41,3.41,0,0,1-2.68,2.82,3,3,0,0,1-2.88-2.51A2.91,2.91,0,0,1,278.69,85.81Z"/><path class="cls-1" d="M281.46,142.08c0,1.13-1.91,3.22-3,3-1.27-.28-2.49-.81-2.64-2.39a2.68,2.68,0,0,1,2.6-3C279.91,139.69,281.41,140.9,281.46,142.08Z"/><path class="cls-1" d="M281.44,223c0,1.32-1.71,2.51-3.35,2.42s-2.28-1-2.25-2.53c0-1.72.92-2.52,2.71-2.42C280.07,220.58,281.48,221.81,281.44,223Z"/><path class="cls-1" d="M281.44,545.51c.06,1.21-1.33,2.47-2.85,2.57-1.8.11-2.7-.68-2.75-2.38,0-1.52.56-2.46,2.2-2.57S281.37,544.16,281.44,545.51Z"/><path class="cls-1" d="M281.43,572.65c-.08,1.36-1.74,2.48-3.4,2.37s-2.23-1.08-2.19-2.59c.05-1.7,1-2.48,2.76-2.36C280.13,570.18,281.51,571.44,281.43,572.65Z"/><path class="cls-1" d="M278.45,198.51c-1.79.05-2.62-.76-2.61-2.52a2.14,2.14,0,0,1,2.34-2.44c1.66,0,3.3,1.2,3.27,2.52S280,198.47,278.45,198.51Z"/><path class="cls-1" d="M281.44,169c.1,1.19-1.72,2.93-3.07,3a2.65,2.65,0,0,1,0-5.29C279.8,166.58,281.35,167.75,281.44,169Z"/><path class="cls-1" d="M281.45,250a3,3,0,0,1-3.08,2.33,2.94,2.94,0,0,1-2.5-2.94,3.14,3.14,0,0,1,3-2.47C279.78,247.09,281.5,249.13,281.45,250Z"/><path class="cls-1" d="M281.43,518.81c-.12,1.35-1.75,2.46-3.4,2.32a2.08,2.08,0,0,1-2.14-2.53,2.43,2.43,0,0,1,2.8-2.41C280.19,516.32,281.53,517.61,281.43,518.81Z"/><path class="cls-1" d="M305.82,548a3,3,0,0,1-2.74-2.29,2.78,2.78,0,0,1,2.78-2.58c1.47.05,2.06.91,2.1,2.28C308,547.1,307.25,548,305.82,548Z"/><path class="cls-1" d="M308,572.83A2,2,0,0,1,305.8,575a3,3,0,0,1-2.72-2.31,2.8,2.8,0,0,1,2.8-2.56C307.36,570.17,307.93,571.05,308,572.83Z"/><path class="cls-1" d="M308,169.05c0,1.62-.82,2.55-2.25,2.48a2.45,2.45,0,1,1-.09-4.88C307.06,166.53,307.94,167.44,308,169.05Z"/><path class="cls-1" d="M308,196c0,1.62-.86,2.53-2.3,2.44a2.45,2.45,0,1,1,0-4.89C307.11,193.5,308,194.42,308,196Z"/><path class="cls-1" d="M306,516.22c1.39.08,2.11,1.08,2,2.73a2,2,0,0,1-2.23,2.15,2.46,2.46,0,1,1,.23-4.88Z"/><path class="cls-1" d="M308,491.63c0,1.33-.39,2.34-1.89,2.51s-3.1-1.17-3-2.41a2.51,2.51,0,0,1,2.27-2.37A2.44,2.44,0,0,1,308,491.63Z"/><path class="cls-1" d="M305.6,435.44a2.89,2.89,0,0,1,2.32,3c-.18,1.45-1.16,1.89-2.47,1.86a2.5,2.5,0,0,1-2.39-2.45A2.82,2.82,0,0,1,305.6,435.44Z"/><path class="cls-1" d="M308,222.78a2.44,2.44,0,0,1-2.33,2.58,2.8,2.8,0,0,1-2.57-2.46,3,3,0,0,1,2.73-2.36C307.27,220.55,307.91,221.39,308,222.78Z"/><path class="cls-1" d="M305.29,139.77a2.52,2.52,0,0,1,2.67,2.39c0,1.34-.48,2.31-2,2.42s-3.05-1.27-2.89-2.51A2.65,2.65,0,0,1,305.29,139.77Z"/><path class="cls-1" d="M305.24,252.29a2.67,2.67,0,0,1-2.16-2.33c-.14-1.24,1.54-2.6,2.93-2.47s2,1.12,1.95,2.46A2.51,2.51,0,0,1,305.24,252.29Z"/><path class="cls-1" d="M305.33,112.82a2.52,2.52,0,0,1,2.63,2.43c0,1.36-.52,2.29-2,2.39s-3-1.3-2.84-2.55A2.65,2.65,0,0,1,305.33,112.82Z"/><path class="cls-1" d="M305.43,682.71a2.64,2.64,0,0,1-2.32-2.21,2.42,2.42,0,0,1,2.21-2.65c1.64-.12,2.64.71,2.62,2.16A3,3,0,0,1,305.43,682.71Z"/><path class="cls-1" d="M308,626.36a2.41,2.41,0,0,1-2.46,2.44,2.52,2.52,0,0,1-2.4-2.23c-.21-1.24,1.38-2.65,2.81-2.57S308,625,308,626.36Z"/><path class="cls-1" d="M305.24,279.24a2.69,2.69,0,0,1-2.16-2.34c-.14-1.24,1.54-2.6,2.94-2.47s2,1.13,1.94,2.47A2.52,2.52,0,0,1,305.24,279.24Z"/><path class="cls-1" d="M305.4,90.73a2.42,2.42,0,0,1-2.3-2.58,2.54,2.54,0,0,1,2.38-2.27c1.24-.11,2.6,1.61,2.44,3S306.74,90.76,305.4,90.73Z"/><path class="cls-1" d="M305.63,601.87a2.79,2.79,0,0,1-2.57-2.46,2.93,2.93,0,0,1,2.72-2.36c1.48,0,2.13.84,2.18,2.24A2.44,2.44,0,0,1,305.63,601.87Z"/><path class="cls-1" d="M307.92,62.06c-.13,1.24-1.07,1.74-2.41,1.73a2.48,2.48,0,0,1-2.44-2.44,3,3,0,0,1,2.72-2.3C306.88,59.09,308,60.57,307.92,62.06Z"/><path class="cls-1" d="M307.94,464.94a2,2,0,0,1-2.09,2.27,3,3,0,0,1-2.77-2.25,2.8,2.8,0,0,1,2.39-2.59A3,3,0,0,1,307.94,464.94Z"/><path class="cls-1" d="M307.94,384.21a2.37,2.37,0,1,1-4.74.23c-.2-1.05,1.2-2.6,2.32-2.75S307.89,382.86,307.94,384.21Z"/><path class="cls-1" d="M307.93,652.88c.09,1.37-1.26,3-2.49,2.87a2.55,2.55,0,0,1-2.35-2.26c-.18-1.08,1.16-2.41,2.44-2.55A2,2,0,0,1,307.93,652.88Z"/><path class="cls-1" d="M305.78,408.62a2.74,2.74,0,0,1,2.15,2.78c-.13,1.47-1.08,2-2.42,2a2.48,2.48,0,0,1-2.44-2.44A3,3,0,0,1,305.78,408.62Z"/><path class="cls-1" d="M305.55,301.33c1.35,0,2.27.53,2.38,2a2.68,2.68,0,0,1-2.19,2.74,2.92,2.92,0,0,1-2.68-2.34A2.5,2.5,0,0,1,305.55,301.33Z"/><path class="cls-1" d="M307.93,330.14c0,1.5-1.15,2.91-2.26,2.88a2.9,2.9,0,0,1-2.6-2.42,2.46,2.46,0,0,1,2.55-2.32C307,328.3,307.85,328.89,307.93,330.14Z"/><path class="cls-1" d="M305.53,5.31a2.62,2.62,0,0,1,2.41,2.57,2.48,2.48,0,0,1-2.6,2.31c-1.19-.21-2.31-.74-2.26-2.25A3,3,0,0,1,305.53,5.31Z"/><path class="cls-1" d="M305.74,32.11a2.69,2.69,0,0,1,2.19,2.74c-.1,1.46-1,2-2.38,2a2.5,2.5,0,0,1-2.49-2.39A2.94,2.94,0,0,1,305.74,32.11Z"/><path class="cls-1" d="M307.94,357.23c0,1.51-1.28,2.85-2.41,2.72s-2.51-1.66-2.32-2.76a2.13,2.13,0,0,1,2.47-2C307.1,355.3,307.89,355.94,307.94,357.23Z"/><path class="cls-1" d="M335,169.18a2.68,2.68,0,0,1-2.2,2.26c-1,.23-2.28-1-2.3-2.18,0-1.41.94-2.1,2.15-2.4C333.63,166.63,335,168,335,169.18Z"/><path class="cls-1" d="M335,222.74c.08,1.15-1.19,2.63-2.16,2.48A2.48,2.48,0,0,1,330.5,223c-.12-1.1,1.17-2.51,2.15-2.38A2.74,2.74,0,0,1,335,222.74Z"/><path class="cls-1" d="M332.63,521.05a2.51,2.51,0,0,1-2.13-2.37,2,2,0,0,1,2-2.06,2.26,2.26,0,0,1,2.52,1.89A2.71,2.71,0,0,1,332.63,521.05Z"/><path class="cls-1" d="M335,545.47c.07,1-1.14,2.47-2.09,2.38a2.37,2.37,0,0,1-2.38-2.12c-.11-1.37.93-2.06,2.12-2.35C333.6,543.14,334.94,544.42,335,545.47Z"/><path class="cls-1" d="M333,574.8a2.23,2.23,0,0,1-2.13-2.31c0-1.17.35-2.22,1.67-2.29a2.43,2.43,0,0,1,2.48,2.11A2.46,2.46,0,0,1,333,574.8Z"/><path class="cls-1" d="M335,196.18c-.09,1-1.44,2.32-2.36,2.08-1.19-.3-2.23-1-2.11-2.36a2.36,2.36,0,0,1,2.39-2.11C333.9,193.7,335.1,195.18,335,196.18Z"/><path class="cls-1" d="M335,599.63a2.31,2.31,0,0,1-2.43,1.92,1.94,1.94,0,0,1-2-2,2.24,2.24,0,0,1,2-2.46A2.72,2.72,0,0,1,335,599.63Z"/><path class="cls-1" d="M332.64,252a1.82,1.82,0,0,1-1.82-2c0-1.28.33-2.45,1.86-2.4a2.44,2.44,0,0,1,2.32,2.23C335.17,250.81,333.9,252,332.64,252Z"/><path class="cls-1" d="M335,115.2c-.07,1.27-1.58,2.58-2.66,2.36a2.35,2.35,0,0,1-1.81-2.29c-.15-1.15,1-1.93,2.39-1.83C334.12,113.52,334.93,114,335,115.2Z"/><path class="cls-1" d="M332.55,628.2a1.76,1.76,0,0,1-2-1.87c0-1.17,1.2-2.44,2.2-2.27a2.56,2.56,0,0,1,2.26,2.31C335.13,627.5,334,628.26,332.55,628.2Z"/><path class="cls-1" d="M332.63,86.48c1.31,0,2.24.44,2.38,1.72a2.73,2.73,0,0,1-2.5,2.45,2.53,2.53,0,0,1-2-2.5A1.8,1.8,0,0,1,332.63,86.48Z"/><path class="cls-1" d="M332.57,140c1.09,0,2.52,1.11,2.44,2.08a2.55,2.55,0,0,1-2.19,2.37c-1.15.24-1.95-.78-2-2.26A1.93,1.93,0,0,1,332.57,140Z"/><path class="cls-1" d="M335,464.61a2.73,2.73,0,0,1-2.45,2.54,2.16,2.16,0,0,1-2-2.12,1.66,1.66,0,0,1,1.79-2C333.64,463,334.72,463.19,335,464.61Z"/><path class="cls-1" d="M333.17,59.57c1.05.1,2,.63,1.79,2a2.38,2.38,0,0,1-2.41,2.16c-1.29,0-1.78-1.06-2-2.13S331.74,59.55,333.17,59.57Z"/><path class="cls-1" d="M332.43,305.57c-1.22.06-1.66-.73-1.6-2s.48-2.08,1.8-2.15A2.58,2.58,0,0,1,335,304C334.75,305.29,333.76,305.59,332.43,305.57Z"/><path class="cls-1" d="M335,34.65c-.36,1.1-.73,2.23-2.26,2.14a2,2,0,0,1-1.86-2.42,1.89,1.89,0,0,1,2.2-1.73A1.8,1.8,0,0,1,335,34.65Z"/><path class="cls-1" d="M334.91,384.24c-.19,1-.48,2-1.8,2.12a2.25,2.25,0,0,1-2.5-2c-.27-1,.9-2.13,2.18-2.19A2.19,2.19,0,0,1,334.91,384.24Z"/><path class="cls-1" d="M332.71,651a2.67,2.67,0,0,1,2.27,2.25c.18,1.15-.88,1.92-2.37,1.92s-1.84-.74-1.78-2A2,2,0,0,1,332.71,651Z"/><path class="cls-1" d="M333,494.1a1.94,1.94,0,0,1-2.17-2c-.07-1.16.16-2.11,1.63-2.12,1.29,0,2.47.25,2.51,1.77C335,493.07,333.89,493.64,333,494.1Z"/><path class="cls-1" d="M333.1,355.26c1.23,0,1.72,1.09,1.86,2.26s-.73,1.86-1.95,1.91a1.94,1.94,0,0,1-2.15-2.15A2,2,0,0,1,333.1,355.26Z"/><path class="cls-1" d="M335,7.69c-.32,1-.62,2.18-2.16,2.16a2,2,0,0,1-2-2.31A1.9,1.9,0,0,1,333,5.7,1.85,1.85,0,0,1,335,7.69Z"/><path class="cls-1" d="M332.8,274.49a2.63,2.63,0,0,1,2.18,2.24c.18,1.14-.88,1.91-2.37,1.91s-1.85-.74-1.77-2S331.61,274.47,332.8,274.49Z"/><path class="cls-1" d="M332.72,440.24a2.28,2.28,0,0,1-2.13-2.09c-.21-1,1-2.08,2.33-2.07s2.16.55,2.05,1.86A2.61,2.61,0,0,1,332.72,440.24Z"/><path class="cls-1" d="M335,411.1a2.57,2.57,0,0,1-2.39,2.13c-1.3,0-1.8-.94-1.76-2.15a2,2,0,0,1,2.41-1.92A1.8,1.8,0,0,1,335,411.1Z"/><path class="cls-1" d="M332.72,677.91A2.61,2.61,0,0,1,335,680.2c.11,1.31-.83,1.84-2.05,1.85a2,2,0,0,1-2.06-2.29A1.86,1.86,0,0,1,332.72,677.91Z"/><path class="cls-1" d="M335,330.52a1.8,1.8,0,0,1-1.71,2,2,2,0,0,1-2.43-1.9c-.06-1.2.43-2.18,1.74-2.17A2.58,2.58,0,0,1,335,330.52Z"/><path class="cls-1" d="M360,36.76A1.82,1.82,0,0,1,358,35c-.09-1.19.36-2.16,1.68-2.24,1.12-.07,1.7.7,1.8,1.76A1.92,1.92,0,0,1,360,36.76Z"/><path class="cls-1" d="M361.52,411.12c0,1.17-.47,2.1-1.79,2.11-1.12,0-1.67-.78-1.71-1.85s.45-2.14,1.77-2.15C360.91,409.22,361.42,410,361.52,411.12Z"/><path class="cls-1" d="M361.52,330.19c0,1.25-.44,2.11-1.58,2.2-1.34.11-1.91-.76-1.92-2s.56-2.08,1.9-2C361.08,328.5,361.42,329.38,361.52,330.19Z"/><path class="cls-1" d="M361.52,357.35c-.07,1.15-.55,2.06-1.89,2-1.13-.07-1.61-.89-1.62-1.95,0-1.22.54-2.1,1.88-2C361,355.42,361.46,356.25,361.52,357.35Z"/><path class="cls-1" d="M361.52,7.76c0,1.15-.52,2.06-1.86,2-1.12,0-1.63-.84-1.65-1.91,0-1.22.51-2.11,1.84-2.07C361,5.82,361.45,6.64,361.52,7.76Z"/><path class="cls-1" d="M359.75,59.62a1.9,1.9,0,0,1,1.75,2.28c-.09,1.07-.69,1.83-1.81,1.76-1.32-.09-1.76-1-1.67-2.24A1.79,1.79,0,0,1,359.75,59.62Z"/><path class="cls-1" d="M361.52,384.33c-.09,1.15-.58,2.05-1.93,1.94-1.12-.08-1.59-.92-1.57-2,0-1.22.56-2.09,1.9-2C361.06,382.39,361.47,383.23,361.52,384.33Z"/><path class="cls-1" d="M359.73,682a1.92,1.92,0,0,1-1.7-2.35c.11-1.06.72-1.8,1.85-1.69,1.33.14,1.72,1.12,1.61,2.3A1.77,1.77,0,0,1,359.73,682Z"/><path class="cls-1" d="M361.52,303.31c0,1.19-.45,2.11-1.74,2.16-1.08,0-1.64-.71-1.77-1.75-.15-1.33.75-1.94,1.82-2.11S361.4,302.32,361.52,303.31Z"/><path class="cls-1" d="M361.52,653.15c-.13,1.18-.67,2-2,1.86a1.7,1.7,0,0,1-1.52-2,1.84,1.84,0,0,1,2.06-1.86C361.25,651.17,361.49,652.16,361.52,653.15Z"/><path class="cls-1" d="M359.8,463.08a1.84,1.84,0,0,1,1.7,2.17c-.05,1-.51,1.91-1.68,1.72s-2-.78-1.81-2.11A1.82,1.82,0,0,1,359.8,463.08Z"/><path class="cls-1" d="M361.53,142.08a1.72,1.72,0,0,1-1.69,2.11,1.59,1.59,0,0,1-1.82-1.64,1.85,1.85,0,0,1,1.79-2.12C361,140.31,361.54,140.89,361.53,142.08Z"/><path class="cls-1" d="M360,440.09c-1-.28-2-.63-2-2a1.7,1.7,0,0,1,1.55-1.94c1.3-.12,1.88.71,1.93,1.9A1.68,1.68,0,0,1,360,440.09Z"/><path class="cls-1" d="M359.69,628.13a1.86,1.86,0,0,1-1.64-2.32,1.58,1.58,0,0,1,2-1.39,1.64,1.64,0,0,1,1.43,2A1.81,1.81,0,0,1,359.69,628.13Z"/><path class="cls-1" d="M359.57,221.24c1.5-.08,2,.62,2,1.89,0,.93-.4,1.55-1.43,1.56a1.83,1.83,0,0,1-2.07-1.83C357.94,221.71,358.56,221.16,359.57,221.24Z"/><path class="cls-1" d="M360,113.53a1.82,1.82,0,0,1,1.51,2.3,1.58,1.58,0,0,1-2,1.38,1.61,1.61,0,0,1-1.41-2A1.77,1.77,0,0,1,360,113.53Z"/><path class="cls-1" d="M359.71,86.57a1.8,1.8,0,0,1,1.79,1.79,1.75,1.75,0,0,1-1.88,2A1.66,1.66,0,0,1,358,88.43,1.81,1.81,0,0,1,359.71,86.57Z"/><path class="cls-1" d="M361.47,491.54c.14,1.42-.49,2.09-1.53,2.21a1.59,1.59,0,0,1-1.92-1.54c-.09-1.19.42-2.11,1.72-2.16A1.6,1.6,0,0,1,361.47,491.54Z"/><path class="cls-1" d="M361.53,599.15c0,1.12-.14,1.94-1.25,2a1.83,1.83,0,0,1-2.23-1.74c-.14-1.2.51-1.71,1.69-1.71S361.55,598.17,361.53,599.15Z"/><path class="cls-1" d="M359.71,274.74c1.05.26,1.84.67,1.79,1.85s-.49,1.85-1.6,1.92c-1.32.08-1.85-.77-1.89-2S358.85,275,359.71,274.74Z"/><path class="cls-1" d="M361.52,572.33c0,1.12-.23,1.94-1.48,1.92a1.83,1.83,0,0,1-2-1.89c-.07-1.21.68-1.58,1.76-1.58S361.54,571.25,361.52,572.33Z"/><path class="cls-1" d="M361.52,518.94c0,1.06-.67,1.48-1.76,1.48S358,520,358,518.81a1.83,1.83,0,0,1,2-1.86C361.34,517,361.55,517.8,361.52,518.94Z"/><path class="cls-1" d="M361.52,169.24a1.38,1.38,0,0,1-1.77,1.55c-1.06-.13-1.75-.73-1.65-1.84a1.7,1.7,0,0,1,1.94-1.58C361.32,167.37,361.56,168.2,361.52,169.24Z"/><path class="cls-1" d="M359.82,543.88c1.4,0,1.73.73,1.71,1.79s-.3,1.61-1.36,1.64c-1.22,0-2.09-.49-2.07-1.78A1.64,1.64,0,0,1,359.82,543.88Z"/><path class="cls-1" d="M359.83,251.6a1.75,1.75,0,0,1-1.8-1.75c-.1-1.17.51-1.69,1.66-1.69s1.85.32,1.8,1.56A1.78,1.78,0,0,1,359.83,251.6Z"/><path class="cls-1" d="M361.52,196.17a1.39,1.39,0,0,1-1.77,1.56c-1.06-.13-1.75-.72-1.65-1.84a1.7,1.7,0,0,1,1.94-1.57C361.31,194.3,361.56,195.14,361.52,196.17Z"/></g></g></svg>