<svg xmlns="http://www.w3.org/2000/svg" viewBox="0 0 280.38 466.98"><defs><style>.cls-1{fill:#01312c;}</style></defs><g id="Layer_2" data-name="Layer 2"><g id="Layer_1-2" data-name="Layer 1"><path class="cls-1" d="M0,78.47c.56-3.42,2.43-5.74,6.29-5.65s6.13,2.3,6.05,6S9.92,85.1,6.09,85.07.28,82.51,0,78.47Z"/><path class="cls-1" d="M.08,23.73C.61,20.17,2.73,18,6.64,18.19s6,2.66,5.73,6.33A5.87,5.87,0,0,1,6,30.4C2.24,30.29.09,28,.08,23.73Z"/><path class="cls-1" d="M5.87,175.92c-3.4-.45-5.75-2.29-5.74-6.13S2.28,163.63,6,163.6a5.89,5.89,0,0,1,6.34,6.14C12.45,173.62,10,175.59,5.87,175.92Z"/><path class="cls-1" d="M0,315c.52-3.5,2.37-5.83,6.22-5.79s6.15,2.22,6.14,5.94a5.9,5.9,0,0,1-6.21,6.28C2.25,321.51.34,319,0,315Z"/><path class="cls-1" d="M6.24,194.13c-3.5-.4-6-2-6.11-5.93s2.22-6.45,6.17-6.41c3.68.05,6,2.56,6.05,6.18S10.07,193.72,6.24,194.13Z"/><path class="cls-1" d="M6.22,448.75c-3.47-.38-6-2-6.09-5.91s2.07-6.37,5.92-6.38,6.28,2.32,6.34,6.13S10.11,448.37,6.22,448.75Z"/><path class="cls-1" d="M6.06,290.92c3.87.31,6.32,2.27,6.29,6s-2.33,6.29-6.14,6.32S.13,300.91.12,297,2.6,291.4,6.06,290.92Z"/><path class="cls-1" d="M5.94,412.34c-3.46-.45-5.81-2.28-5.81-6.12S2.27,400,6,400c3.9,0,6.36,2.45,6.35,6.35S9.85,412,5.94,412.34Z"/><path class="cls-1" d="M5.78,430.55c-3.36-.5-5.7-2.35-5.65-6.19s2.22-6.14,6-6.13a5.88,5.88,0,0,1,6.27,6.2C12.41,428.31,9.89,430.26,5.78,430.55Z"/><path class="cls-1" d="M0,60.7c.43-3.54,2.08-6.05,6-6.1s6.36,2.13,6.33,6S10,66.83,6.15,66.85.41,64.49,0,60.7Z"/><path class="cls-1" d="M6,467c-3.27-.62-5.93-2.12-5.89-6.09s2.28-6.29,6.09-6.24a5.85,5.85,0,0,1,6.16,6.28C12.32,464.56,10,466.69,6,467Z"/><path class="cls-1" d="M6,212.34c-3.43-.49-5.9-2.19-5.88-6.09S2.41,200,6.22,200s6,2.45,6.09,6.1C12.4,210,10.06,212.05,6,212.34Z"/><path class="cls-1" d="M6.14,230.57c-3.6-.54-6.06-2.34-6-6.34s2.55-6.1,6.28-6a5.79,5.79,0,0,1,5.95,6C12.37,227.9,10.19,230.27,6.14,230.57Z"/><path class="cls-1" d="M6.2,36.31c4,.31,6.17,2.51,6.14,6.14a5.83,5.83,0,0,1-6,6.17C2.51,48.69.14,46.4.15,42.48S2.53,36.63,6.2,36.31Z"/><path class="cls-1" d="M5.85,157.7c-3.38-.46-5.73-2.29-5.72-6.13s2.11-6.09,5.89-6.11,6.26,2.31,6.33,6.09S9.94,157.39,5.85,157.7Z"/><path class="cls-1" d="M0,278.52c.36-3.58,2.56-5.64,6.22-5.68s6.12,2.29,6.09,6S10,285,6.14,285,.29,282.58,0,278.52Z"/><path class="cls-1" d="M5.7,327.35c4.13.24,6.65,2.17,6.66,6,0,3.62-2.19,6-6,6.15s-6.17-2-6.25-5.95S2.37,327.88,5.7,327.35Z"/><path class="cls-1" d="M6.45,375.87c-4-.15-6.36-2-6.32-6s2.23-6,6.19-6,6,2.41,6,6S10.23,375.73,6.45,375.87Z"/><path class="cls-1" d="M0,96.51C.57,93.28,2.42,91,6.27,91s6.11,2.25,6.09,6-2.41,6.19-6.24,6.16S.2,100.82,0,96.51Z"/><path class="cls-1" d="M6.38,121.24c-3.95-.16-6.29-2-6.25-6s2.37-5.94,6.23-6,6,2.43,6,6S10.21,121.11,6.38,121.24Z"/><path class="cls-1" d="M6.25,236.26c3.68.59,6.22,2.71,6.1,6.42a5.8,5.8,0,0,1-6.22,5.95c-3.6-.07-6.06-2.09-6-6S2.44,236.75,6.25,236.26Z"/><path class="cls-1" d="M5.92,345.55c4.36.22,6.46,2.53,6.42,6.12s-2.1,6-6,5.93-6.19-2-6.16-6S2.67,345.92,5.92,345.55Z"/><path class="cls-1" d="M6.26,139.5c-3.57-.31-6-2.07-6.12-5.9s2.08-6.08,6.07-6.15,6.06,2.3,6.13,5.9S10.26,139.25,6.26,139.5Z"/><path class="cls-1" d="M0,388.22c.37-3.86,2.07-6.13,6.06-6.16s6.25,2.29,6.27,6S9.86,394.08,6,394C2.24,393.92.47,391.6,0,388.22Z"/><path class="cls-1" d="M0,260.29c.27-3.5,2.48-5.66,6.14-5.65s6.11,2.35,6.12,6a5.76,5.76,0,0,1-6.05,6.14C2.47,266.85.22,264.6,0,260.29Z"/><path class="cls-1" d="M6.09,12.38C2.4,11.81.09,9.83.16,6S2.44,0,6.2,0a5.81,5.81,0,0,1,6.15,6.06C12.38,9.79,9.83,11.89,6.09,12.38Z"/><path class="cls-1" d="M29.85,278.92c0,3.69-2.11,5.64-5.44,5.58s-5.57-2.07-5.54-5.61,2-5.62,5.51-5.56S29.81,275.32,29.85,278.92Z"/><path class="cls-1" d="M29.84,22.11c0,5.93-2.16,7.81-5.49,7.78s-5.48-2.18-5.48-5.66,2.16-5.54,5.57-5.5S29.83,20.77,29.84,22.11Z"/><path class="cls-1" d="M29.86,460.74c0,3.48-2,5.55-5.38,5.57s-5.61-1.95-5.62-5.54a5.24,5.24,0,0,1,5.38-5.59C27.57,455,29.8,456.91,29.86,460.74Z"/><path class="cls-1" d="M29.86,242.56c0,3.52-2,5.59-5.44,5.55a5.59,5.59,0,1,1,.14-11.18C27.85,237,29.81,239,29.86,242.56Z"/><path class="cls-1" d="M29.85,224.41c-.07,3.48-2,5.48-5.33,5.48a5.22,5.22,0,0,1-5.64-5.54c0-3.48,2.17-5.63,5.56-5.6S29.93,220.71,29.85,224.41Z"/><path class="cls-1" d="M29.85,206.67c-.19,3.23-2.28,5-5.54,5.05-3.5,0-5.48-2.18-5.44-5.66a5.22,5.22,0,0,1,5.67-5.51C28,200.59,29.79,202.89,29.85,206.67Z"/><path class="cls-1" d="M29.86,42.2c0,3.68-1.95,5.78-5.21,5.85s-5.71-1.81-5.78-5.4,1.86-5.7,5.36-5.73S29.72,38.78,29.86,42.2Z"/><path class="cls-1" d="M29.86,259.78c0,4.74-2.25,6.57-5.59,6.52a5.16,5.16,0,0,1-5.39-5.53,5.23,5.23,0,0,1,5.58-5.62C27.88,255.13,29.84,257.22,29.86,259.78Z"/><path class="cls-1" d="M29.85,6.16c0,3.49-2,5.52-5.27,5.54-3.48,0-5.76-2.12-5.69-5.73A5.14,5.14,0,0,1,24.39.55C27.74.57,29.9,2.46,29.85,6.16Z"/><path class="cls-1" d="M24.69,139c-3.9-.1-5.72-2.22-5.81-5.6S20.81,128,24.24,128s5.42,1.81,5.55,5.25S27.9,138.59,24.69,139Z"/><path class="cls-1" d="M29.89,115.09c-.28,3.5-2,5.58-5.58,5.59s-5.38-2-5.42-5.39,1.73-5.47,5.24-5.55S29.51,111.66,29.89,115.09Z"/><path class="cls-1" d="M29.88,297c-.25,3.1-1.83,5.52-5.2,5.59s-5.75-1.73-5.81-5.37c-.06-3.48,1.89-5.7,5.41-5.71C27.55,291.54,29.64,293.35,29.88,297Z"/><path class="cls-1" d="M18.77,369.94c.37-3.39,1.91-5.57,5.45-5.58s5.57,1.92,5.57,5.48-2,5.47-5.57,5.47S19.17,373.1,18.77,369.94Z"/><path class="cls-1" d="M18.77,442.55c.25-3.36,2.22-5.42,5.46-5.5,3.44-.1,5.46,2.07,5.57,5.58s-2.07,5.37-5.33,5.49C20.94,448.26,19.15,446.05,18.77,442.55Z"/><path class="cls-1" d="M25,66.13c-3.85-.22-6.06-1.82-6.1-5.43s2.06-5.55,5.52-5.57S29.78,57,29.8,60.5,27.92,65.72,25,66.13Z"/><path class="cls-1" d="M29.89,351.58c-.31,3.48-2.05,5.53-5.64,5.51s-5.39-2.09-5.35-5.43,1.74-5.49,5.3-5.52S29.55,348.13,29.89,351.58Z"/><path class="cls-1" d="M25.14,393.58c-4.07-.1-6.15-2-6.24-5.43s1.71-5.48,5.21-5.56,5.56,1.78,5.69,5.34S27.87,393.09,25.14,393.58Z"/><path class="cls-1" d="M29.88,315.46c-.36,3.26-2.14,5.28-5.72,5.19-3.3-.08-5.24-1.93-5.3-5.24-.07-3.69,2.08-5.69,5.66-5.65C27.9,309.8,29.72,311.83,29.88,315.46Z"/><path class="cls-1" d="M24.36,146.08c3.44.34,5.49,2.09,5.44,5.66-.05,3.3-1.87,5.3-5.18,5.35-3.61,0-5.72-2-5.75-5.62S21,146.38,24.36,146.08Z"/><path class="cls-1" d="M29.89,97c-.31,3.46-2,5.52-5.63,5.51s-5.37-2.08-5.36-5.42,2-5.54,5.55-5.52S29.57,93.64,29.89,97Z"/><path class="cls-1" d="M29.89,424.38c-.27,3.63-2.16,5.56-5.53,5.54s-5.51-2.14-5.49-5.62S21.09,419,24.6,419,29.55,421.35,29.89,424.38Z"/><path class="cls-1" d="M24.24,182.51c3.65.21,5.49,2,5.56,5.46.08,3.67-2.16,5.5-5.52,5.52s-5.45-2.2-5.41-5.68S21.14,182.8,24.24,182.51Z"/><path class="cls-1" d="M29.88,78.88c-.3,3.31-2,5.39-5.6,5.36-3.41,0-5.44-1.92-5.41-5.34s2.05-5.57,5.55-5.55S29.65,75.31,29.88,78.88Z"/><path class="cls-1" d="M24.55,175.4c-3.44-.33-5.59-2-5.66-5.41s1.79-5.59,5.41-5.59c3.4,0,5.36,1.85,5.5,5.27C30,173.3,27.79,174.94,24.55,175.4Z"/><path class="cls-1" d="M24.43,339c-3.56-.22-5.52-2.08-5.54-5.44S20.94,328,24.43,328c3.33,0,5.37,1.9,5.37,5.39S27.74,338.66,24.43,339Z"/><path class="cls-1" d="M24.36,400.72c3.33.27,5.41,2,5.44,5.54s-2,5.38-5.33,5.44-5.56-2-5.58-5.48S20.82,401,24.36,400.72Z"/><path class="cls-1" d="M47.62,24.28c-.22,3.24-2.1,5.11-5,5.11a4.67,4.67,0,0,1-5-5.14c.06-3.12,1.93-5,4.94-5C45.67,19.21,47.36,21.22,47.62,24.28Z"/><path class="cls-1" d="M47.62,260.79c-.26,3.19-2.15,5-5.06,5a4.7,4.7,0,0,1-5-5.21c.09-3.11,2-5,5-5S47.4,257.67,47.62,260.79Z"/><path class="cls-1" d="M47.63,242.64c-.39,3.11-2.08,5.09-5.12,5s-5-2-4.94-5.27a4.7,4.7,0,0,1,5.08-4.88C45.82,237.44,47.42,239.57,47.63,242.64Z"/><path class="cls-1" d="M47.59,387.57c0,3.72-1.88,5.37-4.9,5.42a4.6,4.6,0,0,1-5.07-4.89c0-3,1.49-5,4.81-5.05S47.43,384.74,47.59,387.57Z"/><path class="cls-1" d="M47.61,6c-.16,3.28-2,5.16-5,5.21a4.66,4.66,0,0,1-5.08-4.91c-.08-3.33,2-5.16,5-5.22S47.33,3,47.61,6Z"/><path class="cls-1" d="M42.5,146.6c3.2.11,5.07,1.68,5.07,5s-1.89,4.95-5,5-4.94-1.88-5-5S39.22,146.73,42.5,146.6Z"/><path class="cls-1" d="M47.63,224.1c-.24,3.23-1.87,5.23-4.93,5.29s-5.08-1.84-5.13-5.09,2.07-5,5-5S47.32,221.15,47.63,224.1Z"/><path class="cls-1" d="M37.5,460.87c.17-3.32,2-5.12,5-5.13s5,1.69,5,4.91-1.91,5.17-5.06,5.16S37.77,463.81,37.5,460.87Z"/><path class="cls-1" d="M47.6,133c0,3.54-1.71,5.3-4.85,5.34s-5-1.78-5.13-4.83c-.12-3.25,1.82-5,5.05-5.1S47.43,130.25,47.6,133Z"/><path class="cls-1" d="M47.61,115.44c-.14,2.86-1.62,4.76-4.86,4.75s-5.2-1.76-5.14-5c.07-3.07,2-4.9,5.07-4.91S47.53,112,47.61,115.44Z"/><path class="cls-1" d="M42.77,164.82c3.08.17,4.91,1.83,4.78,5.13a4.64,4.64,0,0,1-5.1,4.84c-3.05,0-4.87-2-4.85-5.1S39.38,164.88,42.77,164.82Z"/><path class="cls-1" d="M42.53,83.82c-3.18-.14-5-1.82-4.94-4.94s1.86-5,4.92-5a4.65,4.65,0,0,1,5,4.91C47.64,82.06,45.78,83.67,42.53,83.82Z"/><path class="cls-1" d="M42.71,419.45c3,.12,4.91,1.71,4.84,5a4.64,4.64,0,0,1-5,4.94c-3,0-4.91-1.92-4.95-5S39.26,419.55,42.71,419.45Z"/><path class="cls-1" d="M42.46,183c3.14.13,5.08,1.58,5.08,4.8,0,3.06-1.72,5.11-4.78,5.16s-5.12-1.79-5.18-5S39.39,183.22,42.46,183Z"/><path class="cls-1" d="M47.64,333.25c-.23,3.48-1.91,5.19-5.2,5.16s-4.84-2.05-4.82-5a4.59,4.59,0,0,1,5-4.92C45.65,328.52,47.34,330.41,47.64,333.25Z"/><path class="cls-1" d="M47.62,297c-.21,3.27-1.82,5-5,5s-5-1.55-5-4.75,2-5.12,5.06-5.16S47.24,294.13,47.62,297Z"/><path class="cls-1" d="M47.64,42.3c-.28,3.4-1.94,5.07-5.12,5s-5-1.66-4.94-4.85,2-5.07,5.15-5.07S47.26,39.62,47.64,42.3Z"/><path class="cls-1" d="M43,65.6c-3.68-.1-5.38-1.85-5.36-4.95s1.87-5,4.92-5,5,2,5,5.19S45.57,65.45,43,65.6Z"/><path class="cls-1" d="M37.49,206.09c.31-3.24,2-4.85,5.18-4.79s4.95,1.74,4.87,4.92-2.12,5.06-5.23,5S37.77,209,37.49,206.09Z"/><path class="cls-1" d="M47.62,406.29c-.41,2.92-2,5-5.21,4.92-3-.11-4.85-2.06-4.8-5.14s1.78-4.85,5-4.8S47.41,403,47.62,406.29Z"/><path class="cls-1" d="M47.62,315.18c-.22,3.29-1.83,5-5,5s-5-1.7-5-4.81,1.77-5,4.81-5.13C45.65,310.14,47.21,312.25,47.62,315.18Z"/><path class="cls-1" d="M47.6,370.24c-.2,2.82-1.75,4.68-5,4.57s-5-1.88-5-4.94,1.9-4.93,5-5S47.58,366.62,47.6,370.24Z"/><path class="cls-1" d="M47.63,96.78c-.19,3.49-1.85,5.22-5.15,5.22s-4.85-2-4.86-5a4.59,4.59,0,0,1,5-5C45.61,92.07,47.3,94,47.63,96.78Z"/><path class="cls-1" d="M47.62,279c-.29,3.18-2,4.81-5.14,4.77s-4.95-1.7-4.9-4.88,1.92-5,4.93-5C45.68,273.84,47.36,275.85,47.62,279Z"/><path class="cls-1" d="M47.63,351.32c-.14,3.5-1.85,5.21-5,5.29s-5-1.8-5-4.86a4.6,4.6,0,0,1,4.9-5.06C45.58,346.66,47.27,348.57,47.63,351.32Z"/><path class="cls-1" d="M42.64,437.67c3,.13,4.91,1.6,4.9,4.83s-1.87,5-4.9,5.09-5-1.77-5-4.91S39.23,437.74,42.64,437.67Z"/><path class="cls-1" d="M65.35,224.19c-.07,3-1.77,4.67-4.45,4.71s-4.62-1.57-4.63-4.61a4.19,4.19,0,0,1,4.42-4.59C63.5,219.65,65.25,221.31,65.35,224.19Z"/><path class="cls-1" d="M65.35,6.26a4.23,4.23,0,0,1-4.67,4.45,4.17,4.17,0,0,1-4.41-4.59c0-3.05,1.85-4.65,4.64-4.61S65.28,3.2,65.35,6.26Z"/><path class="cls-1" d="M65.35,24.2c-.09,3.16-1.87,4.66-4.55,4.65s-4.63-1.61-4.53-4.68c.1-2.87,1.76-4.48,4.52-4.47C63.71,19.7,65.25,21.46,65.35,24.2Z"/><path class="cls-1" d="M65.35,260.67c0,3-1.79,4.69-4.59,4.68a4.2,4.2,0,0,1-4.49-4.53c0-3,1.77-4.68,4.56-4.68S65.23,257.76,65.35,260.67Z"/><path class="cls-1" d="M65.36,206.11c-.17,2.91-1.71,4.61-4.52,4.61S56.26,209,56.27,206s1.87-4.45,4.58-4.43S65.19,203.31,65.36,206.11Z"/><path class="cls-1" d="M56.25,278.77c.1-2.65,1.6-4.39,4.42-4.44S65.29,276,65.31,279s-1.7,4.48-4.5,4.46S56.29,282,56.25,278.77Z"/><path class="cls-1" d="M56.25,461c0-3.22,1.75-4.78,4.48-4.81s4.56,1.43,4.59,4.42-1.78,4.67-4.6,4.71S56.38,463.62,56.25,461Z"/><path class="cls-1" d="M65.34,242.2c0,3.17-1.69,4.85-4.39,4.92s-4.66-1.55-4.68-4.61c0-2.82,1.63-4.47,4.24-4.54C63.28,237.88,65.22,239.34,65.34,242.2Z"/><path class="cls-1" d="M61.05,319.8c-2.95-.28-4.75-1.6-4.75-4.5s1.58-4.56,4.43-4.59,4.47,1.62,4.57,4.45S63.57,319.39,61.05,319.8Z"/><path class="cls-1" d="M60.91,101.59c-2.81-.25-4.61-1.57-4.61-4.48s1.57-4.55,4.42-4.59,4.49,1.62,4.57,4.44S63.63,101.24,60.91,101.59Z"/><path class="cls-1" d="M65.4,187.92c-.38,3-1.84,4.73-4.7,4.64s-4.56-1.95-4.39-4.86,2-4.28,4.82-4.12S65.15,185.5,65.4,187.92Z"/><path class="cls-1" d="M65.37,424.67c-.44,2.78-2,4.47-4.82,4.3s-4.48-2.1-4.23-5,2.15-4.22,5-4S65.28,422,65.37,424.67Z"/><path class="cls-1" d="M65.38,60.34c-.15,2.78-1.44,4.51-4.18,4.71s-4.69-1.2-4.89-4,1.34-4.78,4.32-4.93S64.94,57.71,65.38,60.34Z"/><path class="cls-1" d="M61.25,46.9c-3.44-.08-5-1.62-5-4.49a4.13,4.13,0,0,1,4.52-4.49,4.12,4.12,0,0,1,4.49,4.52C65.3,45.36,63.46,46.63,61.25,46.9Z"/><path class="cls-1" d="M60.54,165.26c3.13.23,4.72,1.82,4.73,4.6a4.1,4.1,0,0,1-4.51,4.48c-2.83,0-4.43-1.72-4.47-4.54S58.09,165.6,60.54,165.26Z"/><path class="cls-1" d="M60.67,401.67c2.84.27,4.63,1.6,4.63,4.5s-1.6,4.54-4.43,4.58a4.11,4.11,0,0,1-4.55-4.44C56.3,403.51,57.92,402,60.67,401.67Z"/><path class="cls-1" d="M60.73,83.36c-2.83-.23-4.41-1.83-4.41-4.6a4.09,4.09,0,0,1,4.51-4.46,4.1,4.1,0,0,1,4.44,4.53C65.23,81.6,63.62,83.18,60.73,83.36Z"/><path class="cls-1" d="M60.53,338c-2.72-.3-4.27-1.92-4.21-4.7a4.1,4.1,0,0,1,4.62-4.35,4.1,4.1,0,0,1,4.33,4.64C65.16,336.34,63.52,337.88,60.53,338Z"/><path class="cls-1" d="M65.37,442.77c-.37,2.94-2,4.51-4.81,4.35s-4.53-2-4.25-4.94,2.16-4.2,5-4S65.26,440.21,65.37,442.77Z"/><path class="cls-1" d="M60.78,301.56c-2.75-.3-4.51-1.65-4.49-4.54a4.12,4.12,0,0,1,4.52-4.47A4.12,4.12,0,0,1,65.3,297C65.3,299.94,63.53,301.27,60.78,301.56Z"/><path class="cls-1" d="M60.92,147.06c2.79.25,4.37,1.85,4.35,4.63a4.1,4.1,0,0,1-4.54,4.43,4.1,4.1,0,0,1-4.41-4.56C56.38,148.78,58,147.22,60.92,147.06Z"/><path class="cls-1" d="M60.43,356.19a4.24,4.24,0,0,1-4.11-4.57,4.1,4.1,0,0,1,4.48-4.47,4.09,4.09,0,0,1,4.47,4.49C65.26,354.61,63.4,356,60.43,356.19Z"/><path class="cls-1" d="M65.36,387.93c-.24,2.81-1.64,4.58-4.52,4.6a4.48,4.48,0,0,1-.21-8.95C63.5,383.48,65,385.17,65.36,387.93Z"/><path class="cls-1" d="M65.36,115.32c-.37,2.76-1.85,4.47-4.72,4.36a4.48,4.48,0,0,1,.19-9C63.7,110.76,65.11,112.51,65.36,115.32Z"/><path class="cls-1" d="M65.37,133.44c-.32,2.78-1.77,4.5-4.64,4.46a4.48,4.48,0,0,1,0-9C63.62,128.91,65.06,130.65,65.37,133.44Z"/><path class="cls-1" d="M65.38,369.83c-.38,2.87-1.85,4.57-4.73,4.48a4.09,4.09,0,0,1-4.33-4.44c0-2.84,1.65-4.5,4.5-4.51S65.07,367.17,65.38,369.83Z"/><path class="cls-1" d="M83.12,442.68c-.26,2.78-1.71,4.21-4.4,4.05S74.9,444.91,75,442.4s1.69-4.1,4.11-4S83.06,440.15,83.12,442.68Z"/><path class="cls-1" d="M83.12,297.44c-.26,2.29-1.68,3.93-4.12,3.87s-4.08-1.69-4-4.38,1.49-4,4.07-4C81.81,293,83,294.61,83.12,297.44Z"/><path class="cls-1" d="M83.12,205.85c-.17,3.25-1.81,4.51-4.39,4.44S74.92,208.51,75,206A3.83,3.83,0,0,1,79.08,202,3.89,3.89,0,0,1,83.12,205.85Z"/><path class="cls-1" d="M83.11,424.57c-.23,2.56-1.59,4-4.19,3.94-2.76-.08-4-1.76-3.92-4.4a3.74,3.74,0,0,1,4.26-3.86C81.72,420.38,83.12,422,83.11,424.57Z"/><path class="cls-1" d="M75,187.78a3.85,3.85,0,0,1,4.09-4c2.64,0,4,1.76,4,4.39a3.61,3.61,0,0,1-3.93,3.89C76.39,192.14,75.08,190.57,75,187.78Z"/><path class="cls-1" d="M74.94,315.38c.2-2.74,1.51-4.24,4.11-4.22s4,1.48,4,4.06-1.53,4.32-4.18,4.22A3.84,3.84,0,0,1,74.94,315.38Z"/><path class="cls-1" d="M75,60.43c.25-2.49,1.55-4,4.18-3.86s4.1,1.69,3.93,4.39a3.76,3.76,0,0,1-4.28,3.84C76.34,64.65,75,63.06,75,60.43Z"/><path class="cls-1" d="M75,242.64c0-2.77,1.51-4.29,4.08-4.25a4.14,4.14,0,0,1,0,8.27C76.6,246.71,75,245.29,75,242.64Z"/><path class="cls-1" d="M74.93,278.93c.25-2.68,1.47-4.3,4-4.16,2.65.15,4.33,1.71,4.16,4.52A3.78,3.78,0,0,1,79,283.1,4,4,0,0,1,74.93,278.93Z"/><path class="cls-1" d="M75,260.71c.19-2.9,1.71-4.3,4.21-4.11a3.86,3.86,0,0,1,3.9,4.26,3.8,3.8,0,0,1-4.12,4A3.9,3.9,0,0,1,75,260.71Z"/><path class="cls-1" d="M79.05,456.43c2.32.53,4,1.67,4,4.27a3.88,3.88,0,0,1-4.23,4.16c-2.55,0-3.91-1.59-3.84-4.18S76.71,456.94,79.05,456.43Z"/><path class="cls-1" d="M75,223.92a3.87,3.87,0,0,1,4-3.75,3.81,3.81,0,0,1,4.08,4.06,3.89,3.89,0,0,1-4.17,4.23C76.35,228.49,75,226.93,75,223.92Z"/><path class="cls-1" d="M75,24.29c.19-2.9,1.72-4.29,4.22-4.1a3.86,3.86,0,0,1,3.89,4.26,3.79,3.79,0,0,1-4.12,4A3.91,3.91,0,0,1,75,24.29Z"/><path class="cls-1" d="M79,165.77c2.85.16,4.1,1.71,4,4.23s-1.6,4-4.18,3.88S75,172.21,75,169.65,76.66,165.86,79,165.77Z"/><path class="cls-1" d="M75,42.4c.21-2.89,1.83-4.18,4.28-4A3.79,3.79,0,0,1,83,42.67c-.15,2.63-1.85,4.18-4.41,4A3.84,3.84,0,0,1,75,42.4Z"/><path class="cls-1" d="M78.69,82.85c-2.32-.17-3.78-1.46-3.69-4.1s1.5-4,4.1-4,4,1.53,4,4.11S81.6,82.84,78.69,82.85Z"/><path class="cls-1" d="M83.11,406.2c-.18,2.62-1.49,4.11-4.1,4.09s-4-1.5-4-4.07,1.42-4,4-4S82.86,403.78,83.11,406.2Z"/><path class="cls-1" d="M74.94,388c.15-2.42,1.33-3.9,3.86-3.93,2.68,0,4.26,1.34,4.25,4.07s-1.5,4-4.08,4S75.12,390.49,74.94,388Z"/><path class="cls-1" d="M78.77,337.48c-2.3-.15-3.76-1.36-3.77-3.88,0-2.68,1.37-4.24,4.1-4.21s4,1.53,4,4.1S81.45,337.34,78.77,337.48Z"/><path class="cls-1" d="M74.94,151.53c.15-2.42,1.34-3.89,3.87-3.92s4.26,1.34,4.24,4.08c0,2.59-1.5,4-4.09,4S75.12,154.07,74.94,151.53Z"/><path class="cls-1" d="M78.89,355.71c-2.42-.16-3.88-1.36-3.9-3.89s1.38-4.24,4.11-4.21,4,1.52,4,4.1S81.43,355.54,78.89,355.71Z"/><path class="cls-1" d="M78.68,101.07c-2.31-.2-3.72-1.46-3.69-4,0-2.7,1.48-4.19,4.2-4.12a3.6,3.6,0,0,1,3.86,4C83.07,99.68,81.48,101,78.68,101.07Z"/><path class="cls-1" d="M83.14,6.05c-.22,2.55-1.62,4.18-4.07,4.2A3.81,3.81,0,0,1,75,6.15,3.81,3.81,0,0,1,79,2C81.45,1.94,82.86,3.57,83.14,6.05Z"/><path class="cls-1" d="M79.07,129.36c2.62.23,4.05,1.59,4,4.18s-1.57,4-4.14,3.9c-2.76-.07-4-1.75-3.92-4.39S76.81,129.55,79.07,129.36Z"/><path class="cls-1" d="M75,115.07c.28-2.61,1.7-4,4.27-3.87s3.92,1.67,3.82,4.22-1.69,3.92-4.24,3.79S74.9,117.65,75,115.07Z"/><path class="cls-1" d="M83.1,369.78c-.15,2.54-1.41,4.05-4,4.07s-4-1.37-4.07-4,1.37-4,4-4.07S82.9,367.24,83.1,369.78Z"/><path class="cls-1" d="M100.88,188.06c-.22,2.16-1.37,3.6-3.79,3.56s-3.79-1.47-3.68-3.79a3.62,3.62,0,0,1,4-3.64C99.57,184.23,100.8,185.63,100.88,188.06Z"/><path class="cls-1" d="M97.39,464.53c-2.56-.14-4-1.39-4-3.73A3.64,3.64,0,0,1,97.25,457a3.31,3.31,0,0,1,3.59,3.62A3.53,3.53,0,0,1,97.39,464.53Z"/><path class="cls-1" d="M100.88,424.29c-.16,2.23-1.26,3.71-3.68,3.75s-3.83-1.35-3.79-3.68a3.64,3.64,0,0,1,3.84-3.77C99.45,420.56,100.73,421.93,100.88,424.29Z"/><path class="cls-1" d="M100.88,315.42c-.16,2.34-1.44,3.71-3.65,3.66a3.62,3.62,0,0,1-3.82-3.77c0-2.34,1.42-3.71,3.81-3.67S100.73,313.17,100.88,315.42Z"/><path class="cls-1" d="M100.85,406.31c-.13,2.4-1.38,3.57-3.69,3.52s-3.82-1.41-3.75-3.73a3.56,3.56,0,0,1,3.89-3.68C99.66,402.49,100.81,404,100.85,406.31Z"/><path class="cls-1" d="M100.88,60.8c-.17,2.34-1.45,3.7-3.66,3.65a3.62,3.62,0,0,1-3.81-3.78c0-2.34,1.43-3.7,3.82-3.66S100.74,58.55,100.88,60.8Z"/><path class="cls-1" d="M100.88,297c-.06,2.45-1.29,3.86-3.5,3.91a3.63,3.63,0,0,1-4-3.62c-.12-2.32,1.25-3.77,3.66-3.82S100.64,294.8,100.88,297Z"/><path class="cls-1" d="M97.49,173.46c-2.69-.15-4.14-1.43-4.08-3.76A3.56,3.56,0,0,1,97.27,166a3.31,3.31,0,0,1,3.57,3.62A3.54,3.54,0,0,1,97.49,173.46Z"/><path class="cls-1" d="M97.16,275.14c2.28.2,3.63,1.39,3.68,3.78a3.31,3.31,0,0,1-3.46,3.72A3.59,3.59,0,0,1,93.43,279C93.35,276.79,94.71,275.35,97.16,275.14Z"/><path class="cls-1" d="M100.85,351.52c0,2.39-1.32,3.85-3.6,3.89a3.5,3.5,0,0,1-3.84-3.69,3.34,3.34,0,0,1,3.53-3.67C99.3,348,100.72,349,100.85,351.52Z"/><path class="cls-1" d="M97.2,202.28c2.27.41,3.69,1.48,3.64,3.81s-1.31,3.74-3.7,3.75a3.44,3.44,0,0,1-3.72-3.77C93.44,203.75,95.17,202.69,97.2,202.28Z"/><path class="cls-1" d="M97.14,111.62c2.4.06,3.72,1.23,3.69,3.68a3.4,3.4,0,0,1-3.54,3.7,3.51,3.51,0,0,1-3.88-3.65A3.39,3.39,0,0,1,97.14,111.62Z"/><path class="cls-1" d="M97.11,446.32c-2.6-.33-3.93-1.74-3.68-4a3.64,3.64,0,0,1,4.11-3.46c2.38.19,3.44,1.9,3.25,4.18S99.07,446.23,97.11,446.32Z"/><path class="cls-1" d="M97.14,391.65c-2.33,0-3.62-1.3-3.68-3.49a3.5,3.5,0,0,1,3.62-3.89,3.41,3.41,0,0,1,3.75,3.71C100.87,390.43,99.52,391.58,97.14,391.65Z"/><path class="cls-1" d="M97.48,75.19a3.44,3.44,0,0,1,3.34,3.68c0,2.37-1.37,3.8-3.69,3.75a3.55,3.55,0,0,1-3.72-3.81C93.43,76.48,94.92,75.27,97.48,75.19Z"/><path class="cls-1" d="M100.86,96.79c-.09,2.56-1.31,4-3.64,4.06a3.56,3.56,0,0,1-3.81-3.73c0-2.31,1.4-3.67,3.77-3.67A3.45,3.45,0,0,1,100.86,96.79Z"/><path class="cls-1" d="M100.85,133.41c-.07,2.29-1.21,3.55-3.53,3.57s-3.85-1.22-3.91-3.56a3.49,3.49,0,0,1,3.73-3.78C99.42,129.61,100.76,131,100.85,133.41Z"/><path class="cls-1" d="M100.87,333.18c-.15,2.68-1.42,4.12-3.74,4.07a3.55,3.55,0,0,1-3.72-3.81c0-2.32,1.5-3.63,3.86-3.58A3.45,3.45,0,0,1,100.87,333.18Z"/><path class="cls-1" d="M97.54,38.76a3.41,3.41,0,0,1,3.27,3.7c0,2.3-1.27,3.87-3.66,3.77a3.57,3.57,0,0,1-3.72-3.83C93.51,40.18,94.88,38.78,97.54,38.76Z"/><path class="cls-1" d="M97.41,155.23c-2.55-.11-4-1.36-4-3.68a3.56,3.56,0,0,1,3.78-3.76c2.32,0,3.66,1.45,3.63,3.82A3.45,3.45,0,0,1,97.41,155.23Z"/><path class="cls-1" d="M100.88,6.1c-.13,2.42-1.5,3.77-3.81,3.73a3.52,3.52,0,0,1-3.63-3.71A3.52,3.52,0,0,1,97.05,2.4C99.38,2.35,100.74,3.69,100.88,6.1Z"/><path class="cls-1" d="M97.34,256.91c2.24.34,3.5,1.57,3.5,3.84a3.31,3.31,0,0,1-3.55,3.67,3.55,3.55,0,0,1-3.85-3.74C93.49,258.44,95.06,257.16,97.34,256.91Z"/><path class="cls-1" d="M97.14,246.36c-2.2-.39-3.71-1.66-3.7-3.79a3.54,3.54,0,0,1,3.81-3.76,3.4,3.4,0,0,1,3.6,3.67C100.88,245,99.32,246,97.14,246.36Z"/><path class="cls-1" d="M100.87,224.49A3.45,3.45,0,0,1,97,228a3.51,3.51,0,0,1-3.56-3.76,3.59,3.59,0,0,1,4-3.63C99.6,220.68,100.82,222.09,100.87,224.49Z"/><path class="cls-1" d="M97.19,20.52c2.3.4,3.75,1.53,3.65,4A3.31,3.31,0,0,1,97.14,28a3.55,3.55,0,0,1-3.7-3.87C93.56,22.05,95,20.77,97.19,20.52Z"/><path class="cls-1" d="M97.06,373.44c-2.15-.06-3.64-1.19-3.65-3.44s1.22-3.76,3.72-3.74c2.27,0,3.64,1.08,3.7,3.44S99.57,373.34,97.06,373.44Z"/><path class="cls-1" d="M112,115.18c.27-2,1.33-3.41,3.37-3.39a3.37,3.37,0,0,1,3.47,3.54,3.05,3.05,0,0,1-3.31,3.33C113.35,118.64,112.24,117.28,112,115.18Z"/><path class="cls-1" d="M118.93,97c-.29,2.12-1.35,3.48-3.43,3.43S112,99.24,112,97c.06-2,1.22-3.43,3.29-3.38S118.56,95.08,118.93,97Z"/><path class="cls-1" d="M118.93,78.81c-.31,2.12-1.37,3.47-3.45,3.4S111.94,81,112,78.75c.08-2,1.24-3.43,3.31-3.36S118.58,76.87,118.93,78.81Z"/><path class="cls-1" d="M118.93,151.64c-.39,1.92-1.54,3.36-3.63,3.39s-3.22-1.41-3.27-3.4c-.07-2.25,1.42-3.39,3.49-3.43S118.65,149.52,118.93,151.64Z"/><path class="cls-1" d="M115.31,348.14c2,.38,3.47,1.43,3.53,3.55a3,3,0,0,1-3.27,3.37c-2.07,0-3.56-1.13-3.55-3.37C112,349.68,113.22,348.48,115.31,348.14Z"/><path class="cls-1" d="M112,169.81a3.36,3.36,0,0,1,3.43-3.38,3.06,3.06,0,0,1,3.45,3.41,3.39,3.39,0,0,1-3.62,3.41C113.12,173.23,112.22,171.69,112,169.81Z"/><path class="cls-1" d="M115.35,391.54c-2.08-.32-3.28-1.5-3.33-3.5,0-2.24,1.43-3.37,3.49-3.43a3.13,3.13,0,0,1,3.31,3.36C118.85,390.09,117.27,391.12,115.35,391.54Z"/><path class="cls-1" d="M118.93,424.47c-.38,1.89-1.45,3.35-3.58,3.35a3.06,3.06,0,0,1-3.29-3.33,3.17,3.17,0,0,1,3.2-3.47C117.43,420.94,118.61,422.22,118.93,424.47Z"/><path class="cls-1" d="M115.61,311.76c1.86.5,3.34,1.57,3.22,3.73a3.06,3.06,0,0,1-3.49,3.13c-1.94-.13-3.35-1.23-3.32-3.35S113.38,312,115.61,311.76Z"/><path class="cls-1" d="M118.93,133.4c-.36,1.92-1.51,3.35-3.59,3.41a3.07,3.07,0,0,1-3.28-3.35,3.22,3.22,0,0,1,3.45-3.48C117.59,130,118.64,131.29,118.93,133.4Z"/><path class="cls-1" d="M119,260.82c-.42,1.92-1.42,3.28-3.51,3.21s-3.47-1.28-3.45-3.44,1.49-3.24,3.63-3.14S118.68,258.9,119,260.82Z"/><path class="cls-1" d="M118.94,333.33c-.32,2.23-1.38,3.56-3.44,3.52a3.24,3.24,0,0,1-3.45-3.48,3.08,3.08,0,0,1,3.33-3.3C117.52,330.07,118.51,331.6,118.94,333.33Z"/><path class="cls-1" d="M115.54,409.7c-2.09-.27-3.47-1.27-3.48-3.34a3.23,3.23,0,0,1,3.39-3.53,3.07,3.07,0,0,1,3.39,3.22C118.89,408.19,117.42,409.26,115.54,409.7Z"/><path class="cls-1" d="M118.92,206.26a3.38,3.38,0,0,1-3.51,3.15c-2.17.06-3.36-1.09-3.38-3.17a3.12,3.12,0,0,1,3.25-3.41C117.46,202.75,118.62,204.06,118.92,206.26Z"/><path class="cls-1" d="M118.91,24.38c-.46,2.15-1.56,3.52-3.82,3.22A3.19,3.19,0,0,1,112,24c.17-2.29,1.76-3.14,3.86-2.93A3.21,3.21,0,0,1,118.91,24.38Z"/><path class="cls-1" d="M118.93,242.34c-.33,2.08-1.26,3.53-3.55,3.49-2.08,0-3.39-1.12-3.35-3.24a3.19,3.19,0,0,1,3.34-3.35C117.48,239.13,118.55,240.41,118.93,242.34Z"/><path class="cls-1" d="M118.92,60.52c-.25,2.19-1.36,3.54-3.55,3.51A3.13,3.13,0,0,1,112,60.7a2.89,2.89,0,0,1,3-3.25A3.43,3.43,0,0,1,118.92,60.52Z"/><path class="cls-1" d="M115.36,293.84c2,.07,3.47,1.07,3.48,3.28a3.41,3.41,0,0,1-6.81.11C111.94,295.18,113,293.92,115.36,293.84Z"/><path class="cls-1" d="M115.74,227.65c-2.37-.13-3.74-1.09-3.71-3.23a3.21,3.21,0,0,1,3.53-3.4,3.08,3.08,0,0,1,3.28,3.37C118.87,226.48,117.43,227.45,115.74,227.65Z"/><path class="cls-1" d="M115.32,39.2c2,.07,3.49,1.07,3.52,3.27a3.41,3.41,0,0,1-6.81.14C111.93,40.58,113,39.3,115.32,39.2Z"/><path class="cls-1" d="M118.92,461c-.4,1.9-1.48,3.1-3.58,3s-3.37-1.14-3.31-3.26a3.13,3.13,0,0,1,3.35-3.29C117.56,457.44,118.68,458.79,118.92,461Z"/><path class="cls-1" d="M118.93,188a3.38,3.38,0,0,1-3.47,3.23c-2.14.08-3.42-1-3.4-3.11a3.17,3.17,0,0,1,3.2-3.47C117.44,184.53,118.59,185.83,118.93,188Z"/><path class="cls-1" d="M115.18,282.28c-1.85-.32-3.17-1.37-3.16-3.44s1.34-3.17,3.4-3.17,3.41,1.15,3.42,3.19S117.44,282.12,115.18,282.28Z"/><path class="cls-1" d="M115.35,366.35c1.92.44,3.55,1.46,3.46,3.59a3.32,3.32,0,0,1-3.44,3.33,3.17,3.17,0,0,1-3.31-3.39C112,367.84,113.27,366.69,115.35,366.35Z"/><path class="cls-1" d="M118.63,6c0,2.1-1,3.44-3.16,3.4A3.2,3.2,0,0,1,112,6.14c-.1-2.12,1.17-3.25,3.26-3.32S118.51,3.91,118.63,6Z"/><path class="cls-1" d="M118.75,442.74a3,3,0,0,1-3.35,3.05c-2.05,0-3.39-1.06-3.37-3.17a3.14,3.14,0,0,1,3.47-3.38C117.55,439.27,118.66,440.5,118.75,442.74Z"/><path class="cls-1" d="M133.49,245.75a3,3,0,0,1-2.81-3.62,2.65,2.65,0,0,1,2.95-2.75,3,3,0,0,1,3,3.3C136.58,244.62,135.21,245.54,133.49,245.75Z"/><path class="cls-1" d="M136.76,6.05c-.24,1.77-1.13,3.07-3,3.15s-3.07-.79-3.1-2.79S131.38,3,133.45,3,136.41,4.2,136.76,6.05Z"/><path class="cls-1" d="M133.68,136.5c-2-.17-3-1.19-3-3.08a2.71,2.71,0,0,1,2.94-3,2.82,2.82,0,0,1,3.11,2.91C136.8,135.35,135.53,136.28,133.68,136.5Z"/><path class="cls-1" d="M133.56,366.77c2,.17,3.22,1.13,3.18,3.15a2.82,2.82,0,0,1-3.08,2.94,2.7,2.7,0,0,1-3-3A2.8,2.8,0,0,1,133.56,366.77Z"/><path class="cls-1" d="M136.76,260.82c-.35,1.75-1.25,3.11-3.13,3a3,3,0,0,1-2.94-3.4,2.61,2.61,0,0,1,2.87-2.81C135.51,257.64,136.5,258.93,136.76,260.82Z"/><path class="cls-1" d="M133.49,118.27a2.81,2.81,0,0,1-2.79-3.18c.05-1.77,1-2.93,2.83-2.88a3,3,0,0,1,3.18,3.17C136.7,117.3,135.37,118.15,133.49,118.27Z"/><path class="cls-1" d="M136.8,442.71c-.33,1.7-1.28,3-3.13,3a2.72,2.72,0,0,1-3-3,2.79,2.79,0,0,1,3-3C135.67,439.62,136.54,440.83,136.8,442.71Z"/><path class="cls-1" d="M136.8,60.63c-.3,1.88-1.2,3-3.17,3a2.77,2.77,0,0,1-2.94-3.07,2.7,2.7,0,0,1,3.05-3C135.57,57.64,136.52,58.91,136.8,60.63Z"/><path class="cls-1" d="M136.79,424.41c-.25,1.72-1.21,3-3,3.06a2.71,2.71,0,0,1-3.06-2.94,2.77,2.77,0,0,1,2.93-3.08C135.59,421.36,136.49,422.52,136.79,424.41Z"/><path class="cls-1" d="M133.66,354.68a2.8,2.8,0,0,1-3-3c0-1.76.86-3,2.68-3a3,3,0,0,1,3.35,3C136.82,353.54,135.54,354.48,133.66,354.68Z"/><path class="cls-1" d="M133.84,391.14c-2-.15-3.06-1.09-3.14-2.88s.8-3.12,2.75-3.22,3.16.84,3.26,2.76S135.39,390.69,133.84,391.14Z"/><path class="cls-1" d="M133.56,100.06c-1.95-.23-2.93-1.31-2.86-3.21s1-2.93,2.85-2.86a3,3,0,0,1,3.16,3.19C136.69,99.11,135.33,99.92,133.56,100.06Z"/><path class="cls-1" d="M133.58,293.93c1.8.45,3.26,1.26,3.14,3.32a2.7,2.7,0,0,1-3,2.76,2.8,2.8,0,0,1-3.05-3.18C130.72,295,131.91,294.2,133.58,293.93Z"/><path class="cls-1" d="M133.65,191.13c-1.85-.28-3-1.17-3-3.13a2.77,2.77,0,0,1,3-3,2.63,2.63,0,0,1,2.95,3A3.15,3.15,0,0,1,133.65,191.13Z"/><path class="cls-1" d="M133.78,312.13a3.21,3.21,0,0,1,2.89,3.46,2.63,2.63,0,0,1-3,2.64,2.78,2.78,0,0,1-2.93-3.07C130.68,313.19,131.91,312.36,133.78,312.13Z"/><path class="cls-1" d="M133.46,403.22c1.87.1,3.18.92,3.26,2.83a2.92,2.92,0,0,1-2.89,3.19,2.69,2.69,0,0,1-3.13-2.83A2.8,2.8,0,0,1,133.46,403.22Z"/><path class="cls-1" d="M133.58,148.58c1.87.16,3.15,1,3.14,3a2.91,2.91,0,0,1-3,3.07,2.7,2.7,0,0,1-3-3A2.82,2.82,0,0,1,133.58,148.58Z"/><path class="cls-1" d="M136.75,78.91c-.22,1.75-1.06,2.89-2.9,2.91a2.8,2.8,0,0,1-3.16-3.07,2.71,2.71,0,0,1,3-3C135.62,75.83,136.4,77.24,136.75,78.91Z"/><path class="cls-1" d="M133.75,336.47c-1.93-.11-3-1.08-3.06-3a2.71,2.71,0,0,1,2.93-3.05,2.93,2.93,0,0,1,3.1,3C136.8,335.32,135.53,336.24,133.75,336.47Z"/><path class="cls-1" d="M133.82,172.93c-2-.29-3.18-1.16-3.13-3.12a2.7,2.7,0,0,1,3-3,2.77,2.77,0,0,1,3,3C136.69,171.69,135.36,172.56,133.82,172.93Z"/><path class="cls-1" d="M136.75,279c-.28,1.77-1.19,2.84-3,2.8a2.79,2.79,0,0,1-3-3.17,2.61,2.61,0,0,1,2.87-2.81C135.51,275.86,136.5,277.16,136.75,279Z"/><path class="cls-1" d="M133.53,21.09c1.93.37,3.2,1.39,3.15,3.35a2.62,2.62,0,0,1-3,2.72,2.81,2.81,0,0,1-3-3.19C130.73,22.11,131.92,21.36,133.53,21.09Z"/><path class="cls-1" d="M136.75,206.11c-.29,1.84-1.3,3.12-3.25,3.12a2.61,2.61,0,0,1-2.81-2.87,2.79,2.79,0,0,1,3.11-3.1C135.63,203.25,136.5,204.35,136.75,206.11Z"/><path class="cls-1" d="M133.6,39.33c1.84.34,3.11,1.36,3.08,3.31a2.62,2.62,0,0,1-3,2.74,2.8,2.8,0,0,1-3-3.18C130.72,40.37,131.87,39.55,133.6,39.33Z"/><path class="cls-1" d="M133.59,227.54c-1.86-.3-2.94-1.2-2.9-3a2.8,2.8,0,0,1,3.17-3,2.61,2.61,0,0,1,2.82,2.86C136.63,226.3,135.31,227.24,133.59,227.54Z"/><path class="cls-1" d="M136.75,460.78c-.33,1.85-1.35,3.12-3.3,3.08a2.62,2.62,0,0,1-2.76-2.93,2.8,2.8,0,0,1,3.17-3C135.69,457.91,136.53,459,136.75,460.78Z"/><path class="cls-1" d="M154.58,442.52a2.68,2.68,0,0,1-2.7,2.74,2.52,2.52,0,0,1-2.8-2.82,2.48,2.48,0,0,1,2.75-2.63A2.64,2.64,0,0,1,154.58,442.52Z"/><path class="cls-1" d="M154.57,460.88a2.65,2.65,0,0,1-2.8,2.6,2.53,2.53,0,0,1-2.69-2.94,2.48,2.48,0,0,1,2.86-2.51A2.63,2.63,0,0,1,154.57,460.88Z"/><path class="cls-1" d="M151.93,39.74a2.66,2.66,0,0,1,2.6,2.81,2.53,2.53,0,0,1-2.94,2.68,2.49,2.49,0,0,1-2.52-2.86A2.65,2.65,0,0,1,151.93,39.74Z"/><path class="cls-1" d="M151.78,58a2.67,2.67,0,0,1,2.75,2.68,2.53,2.53,0,0,1-2.82,2.81,2.47,2.47,0,0,1-2.64-2.74A2.64,2.64,0,0,1,151.78,58Z"/><path class="cls-1" d="M154.59,224.11c-.14,1.76-.93,2.91-2.63,2.93a2.74,2.74,0,1,1-.14-5.47C153.55,221.51,154.32,222.65,154.59,224.11Z"/><path class="cls-1" d="M151.69,208.9a2.64,2.64,0,0,1-2.62-2.83,2.48,2.48,0,0,1,2.72-2.67,2.52,2.52,0,0,1,2.74,2.88A2.69,2.69,0,0,1,151.69,208.9Z"/><path class="cls-1" d="M154.58,242.46c-.15,1.64-.93,2.79-2.64,2.8a2.6,2.6,0,0,1-2.87-2.8,2.57,2.57,0,0,1,2.76-2.67C153.55,239.75,154.37,240.85,154.58,242.46Z"/><path class="cls-1" d="M154.59,187.85c-.21,1.71-1.07,2.76-2.76,2.78a2.52,2.52,0,0,1-2.75-2.87,2.48,2.48,0,0,1,2.8-2.58A2.65,2.65,0,0,1,154.59,187.85Z"/><path class="cls-1" d="M151.68,276.14c1.73.18,2.8,1,2.85,2.7a2.52,2.52,0,0,1-2.82,2.8,2.47,2.47,0,0,1-2.64-2.74A2.65,2.65,0,0,1,151.68,276.14Z"/><path class="cls-1" d="M154.58,24.32a2.65,2.65,0,0,1-2.76,2.7,2.49,2.49,0,0,1-2.75-2.62,2.59,2.59,0,0,1,2.85-2.8C153.62,21.6,154.42,22.73,154.58,24.32Z"/><path class="cls-1" d="M151.7,294.37c1.61.12,2.76.9,2.79,2.59a2.58,2.58,0,0,1-2.73,2.91,2.49,2.49,0,0,1-2.69-2.68A2.64,2.64,0,0,1,151.7,294.37Z"/><path class="cls-1" d="M154.58,6.1a2.64,2.64,0,0,1-2.76,2.7,2.49,2.49,0,0,1-2.75-2.62,2.59,2.59,0,0,1,2.85-2.8C153.62,3.38,154.42,4.51,154.58,6.1Z"/><path class="cls-1" d="M151.75,76.17c1.75.19,2.8,1.11,2.79,2.9A2.46,2.46,0,0,1,152,81.66a2.77,2.77,0,0,1-2.94-2.8C148.94,77.15,150.14,76.37,151.75,76.17Z"/><path class="cls-1" d="M154.58,260.73a2.65,2.65,0,0,1-2.76,2.7,2.49,2.49,0,0,1-2.75-2.62,2.59,2.59,0,0,1,2.85-2.8C153.62,258,154.41,259.14,154.58,260.73Z"/><path class="cls-1" d="M151.59,330.8c1.74.14,2.88.93,2.91,2.65a2.52,2.52,0,0,1-2.6,2.83,2.77,2.77,0,0,1-2.86-2.92C149,331.76,150.18,331,151.59,330.8Z"/><path class="cls-1" d="M154.54,405.85c0,1.75-.85,2.82-2.52,3a2.46,2.46,0,0,1-3-2.38,2.78,2.78,0,0,1,2.79-3C153.47,403.28,154.19,404.47,154.54,405.85Z"/><path class="cls-1" d="M151.81,312.59c1.61.19,2.71,1,2.69,2.72a2.52,2.52,0,0,1-2.66,2.75,2.67,2.67,0,0,1-2.75-2.73A2.58,2.58,0,0,1,151.81,312.59Z"/><path class="cls-1" d="M151.78,154.24c-1.63-.17-2.8-1-2.74-2.67a2.78,2.78,0,0,1,2.79-2.75c1.74-.12,2.63,1.08,2.67,2.7S153.42,154.05,151.78,154.24Z"/><path class="cls-1" d="M151.71,427.09c-1.7-.2-2.71-1.19-2.61-2.82a2.67,2.67,0,0,1,2.83-2.66,2.54,2.54,0,0,1,2.57,2.85C154.47,426.17,153.34,427,151.71,427.09Z"/><path class="cls-1" d="M152,172.47c-1.86-.14-2.89-1.11-2.86-2.74a2.68,2.68,0,0,1,2.74-2.75,2.53,2.53,0,0,1,2.67,2.75C154.54,171.47,153.39,172.23,152,172.47Z"/><path class="cls-1" d="M151.68,94.38c1.74.21,2.84,1,2.82,2.73a2.42,2.42,0,0,1-2.7,2.64A2.67,2.67,0,0,1,149,97C149,95.32,150.2,94.59,151.68,94.38Z"/><path class="cls-1" d="M152.05,354.23c-1.61-.07-2.87-.72-3-2.43a2.41,2.41,0,0,1,2.62-2.72,2.49,2.49,0,0,1,2.83,2.55A2.32,2.32,0,0,1,152.05,354.23Z"/><path class="cls-1" d="M151.64,385.47c1.79,0,2.78.74,2.85,2.34a2.7,2.7,0,0,1-5.39.27C149,386.32,150.24,385.65,151.64,385.47Z"/><path class="cls-1" d="M151.73,372.43c-1.55-.17-2.67-.93-2.69-2.52a2.45,2.45,0,0,1,2.77-2.61,2.42,2.42,0,0,1,2.67,2.47C154.52,371.5,153.34,372.27,151.73,372.43Z"/><path class="cls-1" d="M151.81,136a2.6,2.6,0,0,1-2.72-2.76c0-1.62,1.2-2.36,2.73-2.4a2.36,2.36,0,0,1,2.66,2.44C154.55,135,153.4,135.82,151.81,136Z"/><path class="cls-1" d="M151.81,112.62c1.55.19,2.67.94,2.67,2.54a2.46,2.46,0,0,1-2.79,2.59,2.43,2.43,0,0,1-2.65-2.49C149,113.53,150.19,112.76,151.81,112.62Z"/><path class="cls-1" d="M172.36,97.1c-.11,1.48-.77,2.48-2.38,2.38A2.15,2.15,0,0,1,167.7,97a2.33,2.33,0,0,1,2.43-2.44C171.68,94.57,172.35,95.61,172.36,97.1Z"/><path class="cls-1" d="M172.36,115.1a2.22,2.22,0,0,1-2.22,2.56,2.1,2.1,0,0,1-2.45-2.27,2.37,2.37,0,0,1,2.25-2.61C171.45,112.67,172.26,113.59,172.36,115.1Z"/><path class="cls-1" d="M172.35,60.71c-.16,1.69-1,2.46-2.55,2.37a2.07,2.07,0,0,1-2.11-2.37c.07-1.53.86-2.68,2.5-2.56S172.24,59.46,172.35,60.71Z"/><path class="cls-1" d="M172.36,388c0,1.51-.73,2.5-2.27,2.49A2.33,2.33,0,0,1,167.7,388a2.08,2.08,0,0,1,2.29-2.42A2.2,2.2,0,0,1,172.36,388Z"/><path class="cls-1" d="M172.36,151.72c-.08,1.51-.87,2.44-2.39,2.35a2.35,2.35,0,0,1-2.28-2.57,2.09,2.09,0,0,1,2.42-2.3C171.63,149.25,172.35,150.21,172.36,151.72Z"/><path class="cls-1" d="M172.35,315.3c-.15,1.69-1,2.49-2.51,2.41a2.07,2.07,0,0,1-2.15-2.33c.05-1.54.83-2.7,2.47-2.6S172.22,314.06,172.35,315.3Z"/><path class="cls-1" d="M172.36,351.55a2.21,2.21,0,0,1-2.25,2.52,2.09,2.09,0,0,1-2.42-2.3,2.37,2.37,0,0,1,2.28-2.58C171.49,349.1,172.27,350,172.36,351.55Z"/><path class="cls-1" d="M172.34,297.06c-.08,1.58-.83,2.44-2.37,2.43a2.07,2.07,0,0,1-2.28-2.19,2.34,2.34,0,0,1,2.37-2.68C171.6,294.56,172.17,295.75,172.34,297.06Z"/><path class="cls-1" d="M172.34,188c-.16,1.32-.72,2.51-2.26,2.47a2.34,2.34,0,0,1-2.39-2.67,2.06,2.06,0,0,1,2.26-2.2C171.48,185.53,172.25,186.39,172.34,188Z"/><path class="cls-1" d="M172.34,406.19c-.17,1.34-.8,2.48-2.29,2.49s-2.38-1.16-2.35-2.69,1.1-2.23,2.52-2.21S172.28,404.76,172.34,406.19Z"/><path class="cls-1" d="M172.34,424.38c-.17,1.32-.73,2.51-2.27,2.46a2.34,2.34,0,0,1-2.38-2.68A2.07,2.07,0,0,1,170,422C171.5,422,172.25,422.82,172.34,424.38Z"/><path class="cls-1" d="M172.35,169.81c-.24,1.39-.89,2.53-2.4,2.46s-2.34-1.26-2.25-2.78,1.2-2.18,2.62-2.11S172.3,168.48,172.35,169.81Z"/><path class="cls-1" d="M167.67,333.34c.24-1.31.9-2.44,2.41-2.34a2.33,2.33,0,0,1,2.21,2.82c-.11,1.56-1.23,2.16-2.65,2.06S167.67,334.76,167.67,333.34Z"/><path class="cls-1" d="M169.93,130.94c1.34.1,2.33.68,2.37,2.15s-.7,2.74-2.34,2.74-2.23-1.13-2.27-2.58S168.55,131.12,169.93,130.94Z"/><path class="cls-1" d="M172.36,369.8c0,1.51-.76,2.51-2.3,2.47a2.44,2.44,0,0,1-.08-4.86C171.52,367.34,172.29,368.28,172.36,369.8Z"/><path class="cls-1" d="M172.33,78.79a2.15,2.15,0,0,1-2.18,2.43,2.1,2.1,0,0,1-2.46-2.28A2.32,2.32,0,0,1,170,76.36C171.49,76.33,172.14,77.47,172.33,78.79Z"/><path class="cls-1" d="M170,208.41a2.16,2.16,0,0,1-2.35-2.4,2.07,2.07,0,0,1,2.26-2.23,2.1,2.1,0,0,1,2.36,2.37A2.13,2.13,0,0,1,170,208.41Z"/><path class="cls-1" d="M170,226.63a2.12,2.12,0,0,1-2.27-2.24A2.1,2.1,0,0,1,170,222a2.07,2.07,0,0,1,2.28,2.22A2.16,2.16,0,0,1,170,226.63Z"/><path class="cls-1" d="M170,240.19a2.16,2.16,0,0,1,2.28,2.47,2.07,2.07,0,0,1-2.32,2.17,2.11,2.11,0,0,1-2.29-2.45A2.14,2.14,0,0,1,170,240.19Z"/><path class="cls-1" d="M172.33,279a2.14,2.14,0,0,1-2.28,2.24,2.31,2.31,0,1,1,.13-4.61A2.13,2.13,0,0,1,172.33,279Z"/><path class="cls-1" d="M172.33,24.43a2.16,2.16,0,0,1-2.55,2.2,2.07,2.07,0,0,1-2.09-2.39A2.12,2.12,0,0,1,170.22,22,2.14,2.14,0,0,1,172.33,24.43Z"/><path class="cls-1" d="M170,3.79a2.12,2.12,0,0,1,2.35,2.15,2.31,2.31,0,1,1-4.61.11A2.13,2.13,0,0,1,170,3.79Z"/><path class="cls-1" d="M172.34,42.49c-.12,1.62-.94,2.43-2.48,2.37a2.07,2.07,0,0,1-2.17-2.33,2.33,2.33,0,0,1,4.65,0Z"/><path class="cls-1" d="M172.34,442.42c-.11,1.53-.84,2.36-2.27,2.38a2.31,2.31,0,1,1,.09-4.61A2.13,2.13,0,0,1,172.34,442.42Z"/><path class="cls-1" d="M172.33,460.82A2.13,2.13,0,0,1,170,463a2.31,2.31,0,1,1,.2-4.61A2.14,2.14,0,0,1,172.33,460.82Z"/><path class="cls-1" d="M172.33,260.75a2.13,2.13,0,0,1-2.22,2.3,2.31,2.31,0,1,1,0-4.61A2.13,2.13,0,0,1,172.33,260.75Z"/><path class="cls-1" d="M190.48,315.23a2.13,2.13,0,0,1-2.06,2.22,2,2,0,0,1-2.38-2.11,2,2,0,0,1,2-2.23A2.17,2.17,0,0,1,190.48,315.23Z"/><path class="cls-1" d="M188.19,222.06c1.31.21,2.25.91,2.23,2.29a2.18,2.18,0,1,1-4.36-.1C186.06,223,187,222.32,188.19,222.06Z"/><path class="cls-1" d="M188.3,149.56c1.27.11,2.2.67,2.14,2.05a2.2,2.2,0,0,1-4.39-.12C186.05,150.09,187.05,149.63,188.3,149.56Z"/><path class="cls-1" d="M190.48,242.6c-.29,1.28-1,2.21-2.41,2.1a2.18,2.18,0,0,1,.33-4.35A2.26,2.26,0,0,1,190.48,242.6Z"/><path class="cls-1" d="M188.27,276.7c1.35.35,2.29,1.08,2.14,2.47a2.18,2.18,0,1,1-4.34-.42A2.31,2.31,0,0,1,188.27,276.7Z"/><path class="cls-1" d="M188.32,208.33c-1.32-.18-2.25-.88-2.26-2.26a2.05,2.05,0,0,1,2.07-2.16,2.09,2.09,0,0,1,2.29,2.19C190.44,207.36,189.55,208,188.32,208.33Z"/><path class="cls-1" d="M188.25,62.88C186.94,62.67,186,62,186,60.6a1.9,1.9,0,0,1,2.09-2.07,2.21,2.21,0,0,1,2.29,2.25C190.44,62.09,189.47,62.66,188.25,62.88Z"/><path class="cls-1" d="M188.15,371.93c-1.28-.11-2.17-.73-2.16-2.07a2,2,0,0,1,2.36-2.08,1.91,1.91,0,0,1,2,2.16A2,2,0,0,1,188.15,371.93Z"/><path class="cls-1" d="M190.47,97a2,2,0,0,1-2.18,2c-1.27,0-2.25-.54-2.25-1.92a2,2,0,0,1,2.26-2.22C189.65,94.94,190.27,95.78,190.47,97Z"/><path class="cls-1" d="M190.47,260.82c-.26,1.22-.94,2.11-2.2,2.1a2.18,2.18,0,1,1,.17-4.35A2.23,2.23,0,0,1,190.47,260.82Z"/><path class="cls-1" d="M188.14,3.88a2.25,2.25,0,0,1,2.27,2,2.18,2.18,0,1,1-4.35.18C186,4.82,186.94,4.15,188.14,3.88Z"/><path class="cls-1" d="M188.31,26.6c-1.42-.3-2.35-1-2.25-2.41a2.18,2.18,0,0,1,4.36,0C190.48,25.65,189.48,26.29,188.31,26.6Z"/><path class="cls-1" d="M188.15,76.67c1.48.11,2.26.87,2.28,2.14,0,1.53-1,2.09-2.38,2a1.84,1.84,0,0,1-2-1.91A2.08,2.08,0,0,1,188.15,76.67Z"/><path class="cls-1" d="M190.47,333.65a2,2,0,0,1-2.41,1.81c-1.28-.08-2.16-.76-2-2.14a2,2,0,0,1,2.48-2A2.12,2.12,0,0,1,190.47,333.65Z"/><path class="cls-1" d="M188.21,44.79c-1.3-.25-2.23-1-2.15-2.36a2,2,0,0,1,2.18-2,2.07,2.07,0,0,1,2.17,2.3C190.36,43.92,189.47,44.6,188.21,44.79Z"/><path class="cls-1" d="M190.42,115c-.08,1.38-.73,2.2-2.06,2.25s-2.36-.6-2.37-2.07a2,2,0,0,1,2.15-2.06A2.06,2.06,0,0,1,190.42,115Z"/><path class="cls-1" d="M190.47,297.19a2.26,2.26,0,0,1-2.25,2.11,2,2,0,0,1-2.16-2.06,2.06,2.06,0,0,1,2.28-2.23A2.23,2.23,0,0,1,190.47,297.19Z"/><path class="cls-1" d="M188,440.3c1.31.23,2.35.77,2.4,2.07a2.18,2.18,0,1,1-4.36.17A2.2,2.2,0,0,1,188,440.3Z"/><path class="cls-1" d="M190.42,351.52a2,2,0,0,1-2,2.16c-1.24.06-2.25-.43-2.32-1.81a2,2,0,0,1,2.12-2.32A2,2,0,0,1,190.42,351.52Z"/><path class="cls-1" d="M190.42,169.76a2.19,2.19,0,0,1-4.38.07c-.07-1.37.84-2,2.12-2A2.05,2.05,0,0,1,190.42,169.76Z"/><path class="cls-1" d="M188.28,408.37a2.08,2.08,0,0,1-2.24-2.23c0-1.38,1-1.94,2.22-1.93a1.93,1.93,0,0,1,2.12,2.06A2,2,0,0,1,188.28,408.37Z"/><path class="cls-1" d="M188.33,458.54a2.14,2.14,0,0,1,2.09,2.19,2.05,2.05,0,0,1-2.11,2.16,2.07,2.07,0,0,1-2.25-2.26C186.09,459.31,187.12,458.77,188.33,458.54Z"/><path class="cls-1" d="M190.43,133.36c-.16,1.34-.82,2.12-2.13,2.13a2.07,2.07,0,1,1,0-4.13A2.05,2.05,0,0,1,190.43,133.36Z"/><path class="cls-1" d="M190.42,387.87c-.08,1.35-.7,2.18-2,2.25a2,2,0,0,1-2.32-2.07,1.93,1.93,0,0,1,2.1-2.06A2,2,0,0,1,190.42,387.87Z"/><path class="cls-1" d="M190.49,187.76c-.21,1.33-.89,2.23-2.14,2.28a2.07,2.07,0,0,1-2.29-2.2,2,2,0,0,1,2.18-2A2.22,2.22,0,0,1,190.49,187.76Z"/><path class="cls-1" d="M190.47,424.16a2.26,2.26,0,0,1-2.07,2.29,2.08,2.08,0,0,1-2.34-2.14c-.06-1.26.86-1.81,2-1.88A2.06,2.06,0,0,1,190.47,424.16Z"/><path class="cls-1" d="M206.53,113.23a1.86,1.86,0,0,1,1.73,2.14,1.69,1.69,0,0,1-1.82,1.78,1.76,1.76,0,0,1-1.74-2.1A1.8,1.8,0,0,1,206.53,113.23Z"/><path class="cls-1" d="M206.42,131.44a1.88,1.88,0,0,1,1.84,2.13,1.7,1.7,0,0,1-1.81,1.8,1.76,1.76,0,0,1-1.76-2.09A1.83,1.83,0,0,1,206.42,131.44Z"/><path class="cls-1" d="M206.53,386.08a1.85,1.85,0,0,1,1.73,2.14,1.69,1.69,0,0,1-1.82,1.77,1.74,1.74,0,0,1-1.74-2.09A1.8,1.8,0,0,1,206.53,386.08Z"/><path class="cls-1" d="M208.29,351.59c-.11,1.17-.63,2-1.9,2a1.95,1.95,0,0,1,.17-3.88C207.69,349.72,208.18,350.52,208.29,351.59Z"/><path class="cls-1" d="M206.47,153.64a1.88,1.88,0,0,1-1.77-2.19,1.68,1.68,0,0,1,1.86-1.74,1.77,1.77,0,0,1,1.7,2.14A1.83,1.83,0,0,1,206.47,153.64Z"/><path class="cls-1" d="M208.31,369.8c-.15,1.18-.66,2-1.79,2a1.74,1.74,0,0,1-1.83-2,1.71,1.71,0,0,1,1.75-1.86C207.72,367.88,208.18,368.78,208.31,369.8Z"/><path class="cls-1" d="M208.3,333.21c-.08,1.27-.59,2.12-1.83,2.13a1.71,1.71,0,0,1-1.78-1.81,1.66,1.66,0,0,1,1.53-2A1.85,1.85,0,0,1,208.3,333.21Z"/><path class="cls-1" d="M208.3,315.1c-.1,1.15-.59,1.95-1.7,2a1.73,1.73,0,0,1-1.91-1.91,1.64,1.64,0,0,1,1.63-1.91A1.85,1.85,0,0,1,208.3,315.1Z"/><path class="cls-1" d="M208.29,169.83a1.84,1.84,0,0,1-1.95,1.92,1.63,1.63,0,0,1-1.65-1.89,1.73,1.73,0,0,1,1.89-1.93C207.69,168,208.18,168.77,208.29,169.83Z"/><path class="cls-1" d="M208.29,406.3a1.85,1.85,0,0,1-2,1.86,1.64,1.64,0,0,1-1.59-2,1.72,1.72,0,0,1,1.95-1.87C207.74,404.43,208.22,405.23,208.29,406.3Z"/><path class="cls-1" d="M208.29,424.55a1.83,1.83,0,0,1-2,1.82c-1.13-.07-1.6-.92-1.55-2a1.71,1.71,0,0,1,1.75-1.83C207.69,422.55,208.2,423.39,208.29,424.55Z"/><path class="cls-1" d="M208.29,97c-.1,1.06-.59,1.85-1.7,1.91a1.72,1.72,0,0,1-1.9-1.92,1.63,1.63,0,0,1,1.64-1.9A1.84,1.84,0,0,1,208.29,97Z"/><path class="cls-1" d="M208.29,60.65c-.15,1.07-.66,1.86-1.81,1.84a1.73,1.73,0,0,1-1.78-2.06,1.64,1.64,0,0,1,1.89-1.69A1.74,1.74,0,0,1,208.29,60.65Z"/><path class="cls-1" d="M205.21,22.75h2.65c.81,2.48,0,3.43-2.24,3.31C204.44,25.16,204.43,24.18,205.21,22.75Z"/><path class="cls-1" d="M204.89,225.48v-2.31a1.94,1.94,0,0,1,3.06,2.37A2.22,2.22,0,0,1,204.89,225.48Z"/><path class="cls-1" d="M206.59,298.93a1.79,1.79,0,0,1-1.89-1.75,1.79,1.79,0,1,1,3.56-.22A1.81,1.81,0,0,1,206.59,298.93Z"/><path class="cls-1" d="M204.66,78.81A1.72,1.72,0,0,1,206.42,77a1.65,1.65,0,0,1,1.84,1.75,1.73,1.73,0,0,1-1.85,2C205.27,80.69,204.78,79.88,204.66,78.81Z"/><path class="cls-1" d="M208.07,259.6c.47,2.27-.42,3.16-2.69,2.77a2,2,0,1,1,2.69-2.77Z"/><path class="cls-1" d="M208.29,188.11a1.74,1.74,0,0,1-1.83,1.79,1.66,1.66,0,0,1-1.77-1.82,1.72,1.72,0,0,1,1.92-1.93C207.74,186.22,208.21,187,208.29,188.11Z"/><path class="cls-1" d="M208.1,461.8a2.19,2.19,0,0,1-2.85.37c-.8-.9-.81-1.83,0-3C207.6,458.61,208.48,459.51,208.1,461.8Z"/><path class="cls-1" d="M205,207.35a1.77,1.77,0,0,1,.53-2.67,2.08,2.08,0,0,1,1.74-.06,1.84,1.84,0,0,1,.73,2.6A2.07,2.07,0,0,1,205,207.35Z"/><path class="cls-1" d="M205,277.72a2.3,2.3,0,0,1,2.89-.14c.69,1.15.58,2.14-.43,2.78a2.08,2.08,0,0,1-1.74.08C204.59,279.89,204.49,278.89,205,277.72Z"/><path class="cls-1" d="M207.91,41.29a1.77,1.77,0,0,1-.53,2.67,2,2,0,0,1-1.73,0,1.8,1.8,0,0,1-.67-2.65A2,2,0,0,1,207.91,41.29Z"/><path class="cls-1" d="M204.89,7.43V4.93c1.23-.88,2.24-.81,2.9.16A2.2,2.2,0,0,1,207.88,7C207.3,8.08,206.28,8.11,204.89,7.43Z"/><path class="cls-1" d="M208,443.75a2.2,2.2,0,0,1-2.86.1c-.66-1.13-.56-2.12.46-2.75a2,2,0,0,1,1.73-.08C208.34,441.57,208.52,442.55,208,443.75Z"/><path class="cls-1" d="M205.1,241.14c1.16-.66,2.15-.55,2.78.47a2.05,2.05,0,0,1,.07,1.73,1.8,1.8,0,0,1-2.64.69A2.13,2.13,0,0,1,205.1,241.14Z"/><path class="cls-1" d="M225.14,7.92C223.6,7.7,222.93,7.1,223,6a1.57,1.57,0,0,1,1.72-1.58c1.12,0,1.86.77,1.65,1.84C226.24,6.92,225.49,7.48,225.14,7.92Z"/><path class="cls-1" d="M224.29,262.54c-.34-.43-1.1-1-1.24-1.66a1.51,1.51,0,0,1,1.63-1.84,1.59,1.59,0,0,1,1.74,1.79C226.39,261.83,225.74,262.36,224.29,262.54Z"/><path class="cls-1" d="M224.35,240.7c1.53.28,2.18.9,2.06,2a1.57,1.57,0,0,1-1.78,1.51c-1.11-.08-1.83-.83-1.58-1.89C223.22,241.66,224,241.13,224.35,240.7Z"/><path class="cls-1" d="M226.45,460.4c0,1.36-.69,2.2-1.92,2a2.36,2.36,0,0,1-1.46-1.54,2,2,0,0,1,1-1.62C225.24,458.69,226,459.44,226.45,460.4Z"/><path class="cls-1" d="M224.86,222.53c1.23.5,1.87,1.32,1.35,2.46a2.08,2.08,0,0,1-1.67,1,2.11,2.11,0,0,1-1.45-1.28C222.74,223.44,223.5,222.76,224.86,222.53Z"/><path class="cls-1" d="M226.48,424.09c-.19,1.35-.85,2.13-2.09,1.81a2.11,2.11,0,0,1-1.31-1.42,2,2,0,0,1,.91-1.68C225.11,422.26,226,422.87,226.48,424.09Z"/><path class="cls-1" d="M224.53,317.11c-1.13-.29-1.74-.95-1.48-1.91a2.41,2.41,0,0,1,1.33-1.43c.94-.34,1.64.23,2,1.21A1.91,1.91,0,0,1,224.53,317.11Z"/><path class="cls-1" d="M223.4,407.56c-.88-1.7-.45-2.66,1.49-3.19l1.54,1.39C226.1,408,224.92,408,223.4,407.56Z"/><path class="cls-1" d="M224.33,280.63c-1.17-.42-1.72-1.25-1.13-2.36a2.05,2.05,0,0,1,1.66-.95,2.27,2.27,0,0,1,1.45,1.48C226.42,280,225.55,280.6,224.33,280.63Z"/><path class="cls-1" d="M224.29,26c-1.34-.63-1.86-1.64-.82-2.79s2.09-.76,2.88.51A1.89,1.89,0,0,1,224.29,26Z"/><path class="cls-1" d="M224.37,204.41a2,2,0,0,1,2,1.74c-.23,1.22-.9,1.85-2,1.59a2.13,2.13,0,0,1-1.32-1.17C222.72,205.52,223.26,204.76,224.37,204.41Z"/><path class="cls-1" d="M226.39,42.09c0,1.32-.67,2.18-1.85,2.06a2.23,2.23,0,0,1-1.47-1.47A2,2,0,0,1,224,41C225.17,40.42,225.94,41.09,226.39,42.09Z"/><path class="cls-1" d="M223.86,440.71c1.79.3,2.35,1,2.55,2-.31,1.14-1,1.71-1.93,1.44-.57-.16-1.33-.82-1.38-1.32C223,442.15,223.58,441.42,223.86,440.71Z"/><path class="cls-1" d="M225.33,185.84c.37.4,1,1,1.19,1.28-.31,2-1,2.64-2.08,2.4a2.16,2.16,0,0,1-1.33-1.13C222.7,187.36,223.21,186.59,225.33,185.84Z"/><path class="cls-1" d="M226.38,296.85a2.1,2.1,0,0,1-1.92,2c-1.11-.26-1.7-1-1.39-2a2.15,2.15,0,0,1,1.21-1.26C225.34,295.21,226.07,295.76,226.38,296.85Z"/><path class="cls-1" d="M226.39,60.42c-.07,1.23-.65,2.08-1.91,1.87A2,2,0,0,1,223.09,61a2.08,2.08,0,0,1,.92-1.69C225.13,58.66,226,59.23,226.39,60.42Z"/><path class="cls-1" d="M226.48,151.54c-.72,1.82-1.79,1.91-3.33,1.23v-2.13C224.75,149.67,225.7,150.13,226.48,151.54Z"/><path class="cls-1" d="M226.45,369.84c-.71,1.65-1.72,1.91-3.3,1v-2.05C224.72,367.92,225.74,368.2,226.45,369.84Z"/><path class="cls-1" d="M223.17,389.28V387c1.61-.84,2.63-.57,3.23,1C226,389.7,224.88,389.81,223.17,389.28Z"/><path class="cls-1" d="M225.11,168l1.36,1.7c-.42,1.4-1.19,2-2.23,1.55a2.31,2.31,0,0,1-1.2-1.54C222.89,168.69,223.65,168.18,225.11,168Z"/><path class="cls-1" d="M224.69,335.21c-1-.1-1.78-.61-1.65-1.63a2.31,2.31,0,0,1,1.17-1.55c1-.43,1.82.12,2.17,1.21A2,2,0,0,1,224.69,335.21Z"/><path class="cls-1" d="M223.16,352.71v-2.09c1.42-.91,2.4-.66,3.21.68C226.09,353.24,225,353.5,223.16,352.71Z"/><path class="cls-1" d="M226.45,115.23c-.74,1.64-1.76,1.89-3.29,1v-2.06C224.76,113.3,225.77,113.57,226.45,115.23Z"/><path class="cls-1" d="M226.53,79l-1.47,1.63c-1.31-.06-2.1-.53-2-1.55a2.3,2.3,0,0,1,1.09-1.61C225.15,76.94,226,77.46,226.53,79Z"/><path class="cls-1" d="M226.49,97c-.78,1.64-1.76,1.89-3.33,1.09l-.14-2C224.75,95,225.73,95.42,226.49,97Z"/><path class="cls-1" d="M223.17,134.51v-2.1c1.49-.9,2.51-.65,3.23.87C226,135.05,224.91,135.32,223.17,134.51Z"/><path class="cls-1" d="M243.47,95.57c1,.92,1.06,1.79.18,2.7-1.28.51-2-.08-2.37-1.11A1.67,1.67,0,0,1,243.47,95.57Z"/><path class="cls-1" d="M241.25,388.1c.42-1.34,1.16-1.78,2.39-1.33a1.63,1.63,0,0,1,.07,2.54C242.51,389.84,241.75,389.41,241.25,388.1Z"/><path class="cls-1" d="M243.64,352.91a1.53,1.53,0,1,1-.1-2.65A1.6,1.6,0,0,1,243.64,352.91Z"/><path class="cls-1" d="M243.61,113.89a1.53,1.53,0,1,1-2.32,1.3A1.61,1.61,0,0,1,243.61,113.89Z"/><path class="cls-1" d="M241.26,133.49a1.68,1.68,0,0,1,2.33-1.42,1.75,1.75,0,0,1,.22,2.56C242.51,135.2,241.75,134.78,241.26,133.49Z"/><path class="cls-1" d="M243.54,368.45a1.67,1.67,0,0,1,.18,2.62c-1.23.6-1.93,0-2.43-1C241.48,368.53,242.35,368.22,243.54,368.45Z"/><path class="cls-1" d="M241.26,460.19c1-1,1.85-1,2.71-.23a1.59,1.59,0,0,1-.89,2.36C241.59,462.38,241.21,461.52,241.26,460.19Z"/><path class="cls-1" d="M244,25.11a1.76,1.76,0,0,1-2.58-.06c-.41-1.5.26-2.12,1.56-2.29A1.57,1.57,0,0,1,244,25.11Z"/><path class="cls-1" d="M243.9,261.62a1.71,1.71,0,0,1-2.5-.24c-.42-1.37.23-2,1.55-2.22A1.54,1.54,0,0,1,243.9,261.62Z"/><path class="cls-1" d="M243.06,225.91c-1.33-.21-1.85-.83-1.83-1.88.81-1.37,1.73-1.21,2.72-.57A1.66,1.66,0,0,1,243.06,225.91Z"/><path class="cls-1" d="M241.31,6.66c-.17-1.45.48-2,1.72-2.11a1.61,1.61,0,0,1,1.08,2.17A1.7,1.7,0,0,1,241.31,6.66Z"/><path class="cls-1" d="M242.54,295.35c1.59.72,2,1.49,1.36,2.69-1.27.85-2,.25-2.8-1.12Z"/><path class="cls-1" d="M242.88,77.34c1.31.44,1.58,1.31,1.07,2.52-1.4.76-2.19.3-2.65-.93A1.51,1.51,0,0,1,242.88,77.34Z"/><path class="cls-1" d="M243.85,441.55c.73,1.33.28,2.12-1.25,2.71l-1.38-1.15C241.61,441.37,242.41,440.88,243.85,441.55Z"/><path class="cls-1" d="M244,43.42c-1.44.75-2.23.29-2.78-1.26l1.17-1.33C244,41.16,244.47,41.94,244,43.42Z"/><path class="cls-1" d="M241.15,188.41c.59-1.78,1.45-2.06,2.67-1.55.76,1.4.3,2.19-1.23,2.77Z"/><path class="cls-1" d="M241.27,169.7c.57-1.23,1.34-1.64,2.54-1,.85,1.28.25,2-.73,2.59A1.6,1.6,0,0,1,241.27,169.7Z"/><path class="cls-1" d="M244,334.49c-1.45.75-2.24.29-2.78-1.26l1.17-1.33C244,332.23,244.47,333,244,334.49Z"/><path class="cls-1" d="M241,60.38,242.53,59c1.56.51,2,1.3,1.38,2.62C242.6,62.48,241.86,61.87,241,60.38Z"/><path class="cls-1" d="M243.89,405.16c.67,1.35.2,2.14-1.36,2.65-.42-.37-.9-.82-1.33-1.21C241.67,404.88,242.48,404.41,243.89,405.16Z"/><path class="cls-1" d="M243.86,150.49c.76,1.33.18,2.07-1.18,2.77L241.22,152C241.6,150.3,242.4,149.8,243.86,150.49Z"/><path class="cls-1" d="M243.82,423.21c.73,1.55.25,2.33-1.32,2.82l-1.27-1.2C241.57,423.13,242.44,422.82,243.82,423.21Z"/><path class="cls-1" d="M244,316.31c-1.43.65-2.2.24-2.65-.9a1.49,1.49,0,0,1,1.44-1.67C244.13,314.09,244.44,315,244,316.31Z"/><path class="cls-1" d="M243.92,279.83c-1.35.83-2.08.22-2.8-1.12l1.19-1.47C244.07,277.6,244.55,278.4,243.92,279.83Z"/><path class="cls-1" d="M244.1,241.9c.19,1.23-.26,1.92-1.19,1.87a5.55,5.55,0,0,1-1.86-.92C241.88,240.87,242.85,240.86,244.1,241.9Z"/><path class="cls-1" d="M241.19,206.79c.4-1.86,1.27-2.15,2.46-1.83.92,1.14.66,2-.66,2.8C242.47,207.49,241.85,207.15,241.19,206.79Z"/><path class="cls-1" d="M260.61,113.88a1.41,1.41,0,0,1,1.77,1.21c-.07,1.08-.68,1.5-1.69,1.51C259.57,115.65,259.58,114.77,260.61,113.88Z"/><path class="cls-1" d="M260.93,368.2l1.47,1.19c-.09,1.33-.59,1.87-1.73,1.8C259.56,370.33,259.59,369.45,260.93,368.2Z"/><path class="cls-1" d="M260.55,134.77c-.93-1-.93-1.87.05-2.66a1.4,1.4,0,0,1,1.78,1.19C262.31,134.33,261.79,134.85,260.55,134.77Z"/><path class="cls-1" d="M260.46,352.91c-.87-1.1-.79-1.93.36-2.58a1.31,1.31,0,0,1,1.56,1.42A1.44,1.44,0,0,1,260.46,352.91Z"/><path class="cls-1" d="M262.9,387.79l-1.63,1.75c-1.71-.85-1.76-1.74-.46-3Z"/><path class="cls-1" d="M260.18,243.62l-.12-1.87c1.3-.71,2.19-.58,2.32.7S261.64,243.85,260.18,243.62Z"/><path class="cls-1" d="M260.22,5.06c1.53-.31,2.31.08,2.16,1.18-.18,1.3-1.12,1.27-2.37.69Z"/><path class="cls-1" d="M262.3,314.84c.13,1.1-.37,1.65-1.48,1.73a1.36,1.36,0,0,1-.79-1.9A1.33,1.33,0,0,1,262.3,314.84Z"/><path class="cls-1" d="M260.26,407.09c-.56-1-.43-1.65.44-2.16a1.37,1.37,0,0,1,1.66,1.3C262.07,407.37,261.34,407.52,260.26,407.09Z"/><path class="cls-1" d="M260.67,186.7c1.17.05,1.65.54,1.67,1.54-.47,1-1.18,1.14-2.11.58A1.39,1.39,0,0,1,260.67,186.7Z"/><path class="cls-1" d="M262.41,170c-.69,1-1.36,1.12-2.18.57a1.31,1.31,0,0,1,.39-2C261.76,168.35,262.2,169,262.41,170Z"/><path class="cls-1" d="M260.72,80.16a1.36,1.36,0,0,1-.49-2.12,1.32,1.32,0,0,1,2.06.4C262.45,79.71,261.77,80.12,260.72,80.16Z"/><path class="cls-1" d="M260.29,152.49c-.58-1-.46-1.69.42-2.19,1.13-.11,1.54.52,1.67,1.43C261.9,152.78,261.2,152.84,260.29,152.49Z"/><path class="cls-1" d="M262.32,96.57c0,1.39-.61,1.76-1.52,1.82a1.34,1.34,0,0,1-.62-2.07C261,95.66,261.64,95.91,262.32,96.57Z"/><path class="cls-1" d="M260.73,334.79c-.91-.63-1.05-1.31-.5-2.12a1.32,1.32,0,0,1,2.06.39C262.44,334.16,261.94,334.7,260.73,334.79Z"/><path class="cls-1" d="M262.51,225.37c-.93-.06-1.69.12-2.1-.18-.81-.59-.53-1.35.07-1.95C261.84,223,262.24,223.69,262.51,225.37Z"/><path class="cls-1" d="M260.66,459.55a1.5,1.5,0,0,1,1.73,1.44c-.48,1.05-1.2,1.26-1.95.68S259.75,460.32,260.66,459.55Z"/><path class="cls-1" d="M260.5,205c1.3-.18,1.83.38,1.84,1.53-.51.9-1.23,1.09-2,.46S259.9,205.61,260.5,205Z"/><path class="cls-1" d="M262.34,443.05c-.77.88-1.57.95-2.09.17-.28-.43-.05-1.19-.05-1.77C261.8,441.22,262.32,441.79,262.34,443.05Z"/><path class="cls-1" d="M262.27,60.09c.18,1.29-.37,1.82-1.52,1.84-.91-.51-1.1-1.23-.47-2S261.66,59.46,262.27,60.09Z"/><path class="cls-1" d="M260.64,25.48c-.89-.76-1-1.56-.18-2.08.42-.28,1.18,0,1.77,0C262.46,24.93,261.91,25.46,260.64,25.48Z"/><path class="cls-1" d="M260.72,262c-1-.84-1-1.64-.26-2.16.42-.28,1.18-.05,1.74-.05C262.52,261.4,261.8,261.78,260.72,262Z"/><path class="cls-1" d="M260.64,43.71c-.89-.77-1-1.57-.18-2.09.42-.28,1.19,0,1.77,0C262.46,43.15,261.91,43.68,260.64,43.71Z"/><path class="cls-1" d="M260.57,280.08c-.82-.82-.88-1.62-.05-2.09.44-.25,1.19,0,1.77.07C262.4,279.62,261.85,280.16,260.57,280.08Z"/><path class="cls-1" d="M260.69,423.1a1.5,1.5,0,0,1,1.7,1.52c-.55,1-1.27,1.2-2,.56S259.79,423.81,260.69,423.1Z"/><path class="cls-1" d="M260.64,298.34c-.89-.77-1-1.57-.18-2.09.42-.28,1.19-.05,1.77-.05C262.46,297.79,261.9,298.31,260.64,298.34Z"/><path class="cls-1" d="M279.36,7.39c-1.68-.9-1.37-1.65-.2-2.58C280.58,5.72,280.45,6.47,279.36,7.39Z"/><path class="cls-1" d="M279.2,23.1c1.37.81,1.37,1.56.07,2.46C277.79,24.75,277.79,24,279.2,23.1Z"/><path class="cls-1" d="M279.21,443.72c-1.38-.79-1.37-1.54-.09-2.46C280.61,442.07,280.61,442.82,279.21,443.72Z"/><path class="cls-1" d="M279,41.29c1.52.63,1.54,1.37.46,2.55C277.93,43.16,277.87,42.43,279,41.29Z"/><path class="cls-1" d="M279.18,241.29c1.43.87,1.43,1.62,0,2.47C277.84,242.89,277.83,242.14,279.18,241.29Z"/><path class="cls-1" d="M279.1,459.4c1.5.89,1.32,1.65.29,2.59C277.67,461.13,278,460.37,279.1,459.4Z"/><path class="cls-1" d="M279.24,225.54c-1.45-.86-1.45-1.61,0-2.47C280.58,223.92,280.56,224.67,279.24,225.54Z"/><path class="cls-1" d="M279.22,298.48c-1.38-1-1.39-1.73,0-2.51C280.57,296.71,280.56,297.46,279.22,298.48Z"/><path class="cls-1" d="M279.21,204.85c1.37.83,1.35,1.58.05,2.47C277.8,206.49,277.78,205.74,279.21,204.85Z"/><path class="cls-1" d="M279.23,262.1c-1.45-1.07-1.15-1.79-.24-2.63C280.71,260.3,280.43,261.06,279.23,262.1Z"/><path class="cls-1" d="M279.14,189.16c-1.3-1.06-1.3-1.81.12-2.51C280.59,187.48,280.56,188.23,279.14,189.16Z"/><path class="cls-1" d="M279.08,277.56c1.5,1.08,1.36,1.82.23,2.68C277.8,279.44,278,278.68,279.08,277.56Z"/><path class="cls-1" d="M279.69,316.53c-1.93-.46-1.61-1.28-.91-2.39C280.38,314.6,280.49,315.31,279.69,316.53Z"/><path class="cls-1" d="M279.63,59.52c.16.52.57,1.14.41,1.52s-.89.55-1.38.83C277.91,60.56,278.12,59.91,279.63,59.52Z"/><path class="cls-1" d="M278,151.69c.86-1.22,1.43-1.25,2.34-.4-.28.39-.52,1.06-.9,1.15S278.52,152,278,151.69Z"/><path class="cls-1" d="M278.37,405.37c1.62-.15,2,.31,1.48,1.71C278.55,407.26,278.16,406.81,278.37,405.37Z"/><path class="cls-1" d="M279.68,95.87c.73,1.64.37,2.15-1.09,2.07C277.94,96.73,278.43,96.31,279.68,95.87Z"/><path class="cls-1" d="M280.38,424.51c-1.12,1.22-1.72,1.06-2.26-.29C279,423.24,279.59,423.29,280.38,424.51Z"/><path class="cls-1" d="M279.89,116c-.94.35-1.4,0-1.74-1.15.51-.18,1.09-.62,1.46-.48C280.5,114.7,280.3,115.4,279.89,116Z"/><path class="cls-1" d="M279.93,368.37c.1,1.13.14,1.66.19,2.18-.44.12-.77.3-.86.22a9.72,9.72,0,0,1-.94-1.07Z"/><path class="cls-1" d="M280.34,169.3l-.9,1.77c-.53-.47-1.09-.72-1.12-1C278.22,168.75,278.94,168.68,280.34,169.3Z"/><path class="cls-1" d="M278,333.45c1.2-1.36,1.78-1,2.38.17C279.41,334.69,278.82,334.53,278,333.45Z"/><path class="cls-1" d="M280.13,79.68c-1.58.07-2-.37-1.66-1.65C279.89,77.67,280.18,78.27,280.13,79.68Z"/><path class="cls-1" d="M278.53,388.87c-.45-1.4,0-1.82,1.27-1.71C280.48,388.46,280.14,389,278.53,388.87Z"/><path class="cls-1" d="M278.51,134.24c-.45-1.41.15-1.73,1.23-1.83C280.48,133.82,280.14,134.36,278.51,134.24Z"/><path class="cls-1" d="M280,352.51c-1.51.14-1.76-.44-1.65-1.58C279.88,350.53,280.3,351,280,352.51Z"/></g></g></svg>