<svg xmlns="http://www.w3.org/2000/svg" viewBox="0 0 264.8 466.15"><defs><style>.cls-1{fill:#bf9c80;}</style></defs><g id="Layer_2" data-name="Layer 2"><g id="Layer_2-2" data-name="Layer 2"><path class="cls-1" d="M16.74,278.92c-4,2.83-6.32,5.7-8.14,5.42C6.48,284,3.39,281,3.29,279c-.08-1.81,3.07-5,5.14-5.32C10.31,273.43,12.65,276.21,16.74,278.92Z"/><path class="cls-1" d="M16.69,242.71c-4,2.74-6.3,5.56-8,5.24-2.18-.4-5.34-3.4-5.35-5.3s3.15-5,5.28-5.34C10.4,237,12.72,239.91,16.69,242.71Z"/><path class="cls-1" d="M16.79,460.74c-4.09,2.83-6.41,5.67-8.27,5.39-2.09-.31-5.13-3.36-5.23-5.34-.09-1.79,3.07-5,5.12-5.26S12.65,458,16.79,460.74Z"/><path class="cls-1" d="M16.79,24.59c-4.17,2.7-6.52,5.41-8.43,5.13s-5.18-3.52-5.07-5.3c.12-2,3.18-5,5.28-5.3C10.43,18.86,12.73,21.72,16.79,24.59Z"/><path class="cls-1" d="M16.78,224.31c-4.07,2.84-6.41,5.7-8.23,5.41-2.12-.34-5.1-3.35-5.26-5.4-.14-1.71,3.08-4.94,5.11-5.21S12.65,221.58,16.78,224.31Z"/><path class="cls-1" d="M.14,206.23c4.05-2.74,6.41-5.58,8.35-5.31s4.86,3.47,5,5.54c.11,1.69-3.14,4.92-5.09,5.07S4.15,209,.14,206.23Z"/><path class="cls-1" d="M16.78,261c-4.14,2.72-6.46,5.44-8.38,5.19s-5.25-3.51-5.11-5.22c.17-2.05,3.14-5.05,5.26-5.39C10.38,255.24,12.71,258.11,16.78,261Z"/><path class="cls-1" d="M16.7,6.2c-3.95,2.79-6.33,5.71-8,5.34C6.48,11,3.66,8.21,3.29,6,3,4.53,6.44,1.16,8.48.92S12.68,3.46,16.7,6.2Z"/><path class="cls-1" d="M.12,42.64c4-2.75,6.25-5.48,8.27-5.33s5.19,3.34,5.1,5c-.11,2-3,5.25-5,5.53S4.21,45.35.12,42.64Z"/><path class="cls-1" d="M16.89,370c-4.3,2.72-6.62,5.34-8.6,5.11s-5-3.34-5-5.18,3.07-4.91,5.05-5.12S12.63,367.23,16.89,370Z"/><path class="cls-1" d="M.06,297.37c4.06-2.82,6.29-5.57,8.31-5.43s5.11,3.26,5.12,5.08-2.91,5.2-4.85,5.44S4.25,300,.06,297.37Z"/><path class="cls-1" d="M8.66,125.1c2.57,4.28,5.14,6.64,4.87,8.63s-3.39,3.55-5.26,5.3c-1.79-1.93-4.73-3.7-5-5.83C3,131.39,5.79,129.15,8.66,125.1Z"/><path class="cls-1" d="M8.27,360.16c-2.67-4.19-5.35-6.55-5-8.36.38-2.11,3.4-3.74,5.28-5.58,1.79,1.83,4.82,3.56,5,5.54S11,356,8.27,360.16Z"/><path class="cls-1" d="M16.68,442.82c-4,2.67-6.34,5.42-8.12,5.1-2.14-.38-5.14-3.31-5.27-5.3-.11-1.74,3.11-5,5.09-5.2S12.64,440,16.68,442.82Z"/><path class="cls-1" d="M8.66,69.11C5.8,65,3,62.69,3.25,60.81c.28-2.08,3.37-3.78,5.23-5.64,1.8,1.83,4.76,3.48,5.06,5.52S11.26,64.9,8.66,69.11Z"/><path class="cls-1" d="M8.41,106.78c2.73,4.32,5.34,6.62,5.12,8.61s-3.3,5-5.12,5-4.94-3-5.15-5S5.67,111.1,8.41,106.78Z"/><path class="cls-1" d="M16.81,315.45c-4.24,2.63-6.51,5.15-8.57,5-1.9-.15-3.58-3.17-5.35-4.93,1.9-1.9,3.57-4.9,5.77-5.35C10.36,309.81,12.72,312.64,16.81,315.45Z"/><path class="cls-1" d="M16.8,388.18c-4.12,2.71-6.45,5.44-8.25,5.12-2.12-.37-3.78-3.37-5.65-5.22,1.82-1.81,3.5-4.87,5.48-5.07S12.63,385.46,16.8,388.18Z"/><path class="cls-1" d="M8.27,105.52c-2.67-4.18-5.36-6.54-5-8.34.4-2.12,3.42-3.74,5.3-5.58,1.78,1.83,4.81,3.56,5,5.53S11,101.37,8.27,105.52Z"/><path class="cls-1" d="M0,423.73c4.44-2.28,7-4.67,9-4.28s4.71,3.74,4.53,5.55-3.48,4.71-5.42,4.71S4,426.85,0,423.73Z"/><path class="cls-1" d="M8.52,160.29c-2.79-4.38-5.42-6.7-5.27-8.82.14-1.85,3.43-4.88,5.26-4.83s4.76,3.11,5,5.14S11.22,156,8.52,160.29Z"/><path class="cls-1" d="M16.8,188.1c-4.17,2.74-6.46,5.43-8.42,5.21S4.7,190,2.89,188.16c1.86-1.83,3.55-4.79,5.65-5.13C10.36,182.73,12.67,185.41,16.8,188.1Z"/><path class="cls-1" d="M8.59,87.27C5.76,83.24,3,81,3.24,79.19c.33-2.14,3.28-3.88,5.1-5.8,1.85,1.77,4.94,3.38,5.19,5.35S11.19,83.06,8.59,87.27Z"/><path class="cls-1" d="M8.34,398c2.73,4.14,5.38,6.4,5.19,8.38s-3.23,3.68-5,5.5c-1.87-1.85-4.87-3.5-5.26-5.62C2.93,404.44,5.64,402.1,8.34,398Z"/><path class="cls-1" d="M8.49,325.34c2.61,3.91,5.32,6.2,5,8-.32,2.09-3.3,3.77-5.13,5.63-1.83-1.86-4.86-3.56-5.14-5.63C3,331.52,5.78,329.25,8.49,325.34Z"/><path class="cls-1" d="M16.79,169.9c-4.09,2.75-6.4,5.5-8.19,5.2-2.13-.36-3.82-3.34-5.7-5.19,1.8-1.81,3.47-4.88,5.44-5.09S12.61,167.23,16.79,169.9Z"/><path class="cls-1" d="M19.11,242.77c3.63-2.56,5.67-5.11,7.51-5s4.6,3,4.63,4.74-2.69,4.71-4.46,4.91S22.82,245.18,19.11,242.77Z"/><path class="cls-1" d="M34,24.34c-3.52,2.53-5.61,5.17-7.26,4.92-1.93-.3-4.64-3-4.82-4.88-.15-1.54,2.78-4.6,4.56-4.78S30.44,21.92,34,24.34Z"/><path class="cls-1" d="M19.18,260.86c3.55-2.47,5.6-5,7.43-4.85s4.76,3.16,4.64,4.71c-.16,1.88-2.82,4.63-4.75,5C24.86,266,22.73,263.34,19.18,260.86Z"/><path class="cls-1" d="M26.58,143.94c2.51,3.89,4.93,6,4.72,7.77s-3,3.37-4.66,5c-1.68-1.69-4.4-3.19-4.72-5.1C21.64,150,24.07,147.86,26.58,143.94Z"/><path class="cls-1" d="M34,6.23c-3.49,2.45-5.55,5-7.29,4.82S21.84,7.89,22,6.34c.14-1.87,2.85-4.62,4.79-5C28.38,1.11,30.5,3.76,34,6.23Z"/><path class="cls-1" d="M34.23,115.4c-3.71,2.43-5.85,4.91-7.45,4.6-2-.38-3.47-3.1-5.17-4.81,1.73-1.62,3.32-4.3,5.23-4.56C28.52,110.41,30.56,112.89,34.23,115.4Z"/><path class="cls-1" d="M34,224.47c-3.5,2.43-5.66,5.06-7.28,4.77-1.94-.35-4.6-3.12-4.74-5-.11-1.53,2.92-4.42,4.79-4.62S30.51,222,34,224.47Z"/><path class="cls-1" d="M26.77,162.19c2.41,3.92,4.8,6.08,4.53,7.83s-3.11,3.31-4.82,4.95c-1.62-1.73-4.29-3.32-4.56-5.23C21.69,168.06,24.17,166,26.77,162.19Z"/><path class="cls-1" d="M26.61,416.82c2.49,3.86,4.93,6,4.69,7.73s-3,3.38-4.72,5.05c-1.66-1.7-4.36-3.23-4.66-5.14C21.65,422.79,24.09,420.69,26.61,416.82Z"/><path class="cls-1" d="M19,187.57c3.88-2.17,6.06-4.4,7.79-4.09s4.63,3.19,4.48,4.7c-.18,1.8-3,4.56-4.75,4.64S22.67,190.31,19,187.57Z"/><path class="cls-1" d="M26.65,126c2.43,3.6,4.92,5.69,4.65,7.32-.31,1.94-3,3.48-4.68,5.2-1.67-1.68-4.44-3.21-4.69-5.08C21.69,131.74,24.18,129.67,26.65,126Z"/><path class="cls-1" d="M34.1,297.58c-3.7,2.19-5.83,4.46-7.56,4.19s-3.32-3-4.95-4.62c1.75-1.69,3.36-4.47,5.3-4.73C28.54,292.2,30.57,294.91,34.1,297.58Z"/><path class="cls-1" d="M34.21,315.62c-3.77,2.31-5.87,4.63-7.6,4.37s-4.73-3-4.64-4.57c.1-1.8,2.82-4.65,4.6-4.8S30.46,313,34.21,315.62Z"/><path class="cls-1" d="M19.14,460.79c3.58-2.36,5.63-4.78,7.37-4.57s3.41,2.92,5.1,4.54c-1.69,1.74-3.21,4.57-5.13,4.89C24.83,465.92,22.71,463.3,19.14,460.79Z"/><path class="cls-1" d="M34.11,42.8c-3.66,2.26-5.74,4.58-7.48,4.34s-3.37-2.91-5-4.53c1.72-1.72,3.27-4.52,5.21-4.82C28.44,37.54,30.52,40.2,34.11,42.8Z"/><path class="cls-1" d="M34.33,97.24c-3.85,2.4-6,4.77-7.75,4.55s-4.7-3.07-4.61-4.62c.1-1.78,2.82-4.51,4.68-4.75S30.47,94.67,34.33,97.24Z"/><path class="cls-1" d="M34.37,370c-3.85,2.51-5.95,4.94-7.61,4.68-1.92-.31-3.45-3-5.16-4.65,1.67-1.68,3.19-4.47,5-4.72S30.51,367.47,34.37,370Z"/><path class="cls-1" d="M26.63,380.42c2.5,3.83,4.92,5.89,4.68,7.58-.27,1.9-2.94,3.45-4.57,5.15-1.71-1.63-4.56-3.12-4.81-4.95S24.14,384.3,26.63,380.42Z"/><path class="cls-1" d="M34.2,61.1c-3.8,2.25-5.93,4.54-7.66,4.26S21.85,62.25,22,60.72c.14-1.79,2.9-4.61,4.67-4.73S30.49,58.44,34.2,61.1Z"/><path class="cls-1" d="M34.21,206c-3.73,2.66-5.75,5.22-7.6,5.1s-4.53-2.94-4.65-4.72c-.1-1.54,2.73-4.34,4.58-4.63S30.4,203.7,34.21,206Z"/><path class="cls-1" d="M34.12,279.05c-3.62,2.34-5.65,4.7-7.39,4.5s-3.44-2.83-5.14-4.4c1.68-1.75,3.17-4.59,5.09-4.92C28.32,273.94,30.47,276.53,34.12,279.05Z"/><path class="cls-1" d="M34.2,406.09c-3.75,2.58-5.82,5.11-7.65,5S22,408,22,406.24c-.06-1.56,2.82-4.3,4.68-4.57S30.46,403.76,34.2,406.09Z"/><path class="cls-1" d="M34.2,79c-3.7,2.39-5.82,4.84-7.45,4.55-1.94-.35-4.55-2.91-4.79-4.78-.19-1.42,2.79-4.5,4.49-4.6C28.36,74.1,30.41,76.51,34.2,79Z"/><path class="cls-1" d="M34.19,333.92c-3.77,2.26-5.9,4.57-7.62,4.29s-4.69-3.08-4.6-4.64c.1-1.77,2.88-4.61,4.65-4.73S30.49,331.28,34.19,333.92Z"/><path class="cls-1" d="M34.2,352c-3.76,2.34-5.89,4.72-7.6,4.44-1.87-.29-3.35-3-5-4.72,1.71-1.66,3.29-4.44,5.16-4.65S30.53,349.41,34.2,352Z"/><path class="cls-1" d="M26.6,435.18c2.47,3.69,4.95,5.77,4.69,7.42-.29,1.92-3,3.46-4.65,5.17-1.68-1.68-4.42-3.2-4.72-5.09C21.66,441,24.13,438.91,26.6,435.18Z"/><path class="cls-1" d="M51.61,260.83c-3.27,2.25-5.14,4.54-6.79,4.4s-4.31-2.86-4.2-4.27c.13-1.7,2.53-4.19,4.28-4.5C46.38,256.19,48.32,258.55,51.61,260.83Z"/><path class="cls-1" d="M51.62,224.3c-3.26,2.34-5.16,4.72-6.64,4.49-1.75-.29-4.21-2.73-4.36-4.42-.13-1.41,2.5-4.17,4.12-4.35S48.3,222.11,51.62,224.3Z"/><path class="cls-1" d="M51.61,6.2c-3.27,2.25-5.14,4.54-6.79,4.4s-4.31-2.86-4.2-4.27c.13-1.7,2.53-4.19,4.28-4.5C46.38,1.56,48.32,3.92,51.61,6.2Z"/><path class="cls-1" d="M38.11,242.5c3.22-2.16,5.12-4.43,6.68-4.22s4.37,2.91,4.23,4.28c-.17,1.71-2.63,4.16-4.39,4.44C43.16,247.23,41.26,244.81,38.11,242.5Z"/><path class="cls-1" d="M51.74,460.84c-3.44,2.27-5.36,4.53-7,4.36s-4.11-2.85-4.09-4.41,2.56-4.05,4.24-4.27S48.32,458.56,51.74,460.84Z"/><path class="cls-1" d="M51.55,24.53c-3.23,2.16-5.12,4.4-6.69,4.2s-4.39-2.89-4.24-4.22c.2-1.73,2.61-4.17,4.37-4.46C46.46,19.81,48.37,22.23,51.55,24.53Z"/><path class="cls-1" d="M52,279.26c-3.69,2.1-5.63,4.1-7.2,3.85s-4.27-2.8-4.15-4.14c.15-1.64,2.59-4.15,4.22-4.3S48.36,276.8,52,279.26Z"/><path class="cls-1" d="M37.8,206.16c3.52-2.22,5.44-4.38,7-4.13,1.72.29,4.24,2.73,4.26,4.26s-2.54,4.13-4.17,4.29S41.31,208.5,37.8,206.16Z"/><path class="cls-1" d="M44.94,417.78c2.15,3.33,4.36,5.25,4.12,6.8s-2.78,3-4.31,4.54c-1.49-1.55-4-3-4.17-4.68S42.67,421,44.94,417.78Z"/><path class="cls-1" d="M44.53,49.33c-2.09-3.4-4.24-5.36-4-6.86.32-1.71,2.8-3,4.34-4.5,1.48,1.55,3.95,3,4.14,4.69S46.91,46,44.53,49.33Z"/><path class="cls-1" d="M44.86,181.38c2.19,3.3,4.5,5.28,4.2,6.72-.37,1.76-2.92,3.08-4.53,4.58-1.41-1.52-3.84-3-4-4.6S42.64,184.65,44.86,181.38Z"/><path class="cls-1" d="M44.8,67.46c-2.19-3.29-4.36-5.11-4.23-6.74s2.57-3,4-4.57c1.59,1.53,4.13,2.86,4.48,4.63C49.34,62.22,47,64.19,44.8,67.46Z"/><path class="cls-1" d="M45,163.16c2.13,3.35,4.33,5.28,4.09,6.84s-2.8,3-4.35,4.49c-1.47-1.56-3.93-3-4.12-4.71S42.69,166.4,45,163.16Z"/><path class="cls-1" d="M44.67,322.09c-2.12-3.35-4.31-5.29-4.07-6.85s2.79-3,4.34-4.48c1.47,1.56,3.93,3,4.12,4.71C49.23,317,47,318.85,44.67,322.09Z"/><path class="cls-1" d="M51.53,97.16c-3.15,2.16-5,4.38-6.46,4.18-1.74-.24-3.2-2.59-4.78-4,1.53-1.58,2.88-4.14,4.63-4.45C46.4,92.61,48.33,95,51.53,97.16Z"/><path class="cls-1" d="M44.66,303.86c-2.12-3.32-4.32-5.25-4.08-6.79s2.8-3,4.34-4.47c1.48,1.54,3.95,3,4.14,4.67S46.94,300.64,44.66,303.86Z"/><path class="cls-1" d="M44.83,436c2.2,3.27,4.44,5.15,4.23,6.7s-2.74,3.06-4.25,4.57c-1.51-1.52-4-2.9-4.23-4.59C40.38,441.16,42.63,439.29,44.83,436Z"/><path class="cls-1" d="M44.84,399.68c2.18,3.12,4.5,5,4.23,6.38-.36,1.82-2.74,3.24-4.25,4.84-1.5-1.52-4-2.91-4.22-4.58S42.66,402.88,44.84,399.68Z"/><path class="cls-1" d="M44.9,85.68c-2.24-3.28-4.49-5.13-4.3-6.7s2.68-3.1,4.17-4.63c1.52,1.5,4,2.86,4.28,4.53S47.06,82.36,44.9,85.68Z"/><path class="cls-1" d="M44.69,340.29c-2.14-3.36-4.33-5.29-4.09-6.85s2.8-3,4.34-4.46c1.47,1.55,3.92,3,4.1,4.69S47,337.05,44.69,340.29Z"/><path class="cls-1" d="M44.93,145c2.14,3.35,4.34,5.27,4.11,6.84s-2.78,3-4.32,4.46c-1.47-1.54-3.93-3-4.12-4.66S42.68,148.21,44.93,145Z"/><path class="cls-1" d="M44.79,358.69c-2.24-3.51-4.43-5.42-4.2-7s2.68-4,4.32-4.19c1.35-.12,4,2.52,4.13,4.06C49.15,353.31,47,355.18,44.79,358.69Z"/><path class="cls-1" d="M51.64,388.13c-3.35,2.22-5.25,4.47-6.82,4.25s-4-2.69-4.19-4.35c-.12-1.33,2.54-3.95,4.14-4.1S48.27,385.94,51.64,388.13Z"/><path class="cls-1" d="M51.64,369.86c-3.33,2.25-5.16,4.43-6.81,4.31s-4.3-2.7-4.2-4c.12-1.65,2.46-4.15,4.12-4.41S48.26,367.69,51.64,369.86Z"/><path class="cls-1" d="M44.67,126.71C47,130,49.23,131.89,49,133.46s-2.62,4.09-4.28,4.26c-1.32.15-4-2.47-4.17-4.06S42.54,130.12,44.67,126.71Z"/><path class="cls-1" d="M44.74,108.49c2.25,3.33,4.51,5.22,4.3,6.79s-2.66,4.06-4.32,4.22c-1.33.13-4-2.51-4.13-4.11S42.58,111.87,44.74,108.49Z"/><path class="cls-1" d="M69.19,443.15c-3.1,1.82-5,3.77-6.26,3.45-1.57-.4-3.65-2.72-3.64-4.2s2.5-3.7,3.94-3.73S66.3,440.84,69.19,443.15Z"/><path class="cls-1" d="M57,296.87c2.94-1.85,4.67-3.81,6.08-3.59S67,296,66.79,297.11a6.12,6.12,0,0,1-4,4.06C61.5,301.38,59.81,299.08,57,296.87Z"/><path class="cls-1" d="M56.86,188.24c3-2.16,4.77-4.36,6-4.11,1.6.32,3.54,2.49,3.89,4.16.22,1-2.24,3.59-3.61,3.68C61.63,192.06,60,190.18,56.86,188.24Z"/><path class="cls-1" d="M69.18,424.87c-3.07,1.84-4.92,3.82-6.22,3.51-1.57-.39-3.64-2.68-3.67-4.19,0-1.25,2.52-3.48,4-3.58S66.31,422.65,69.18,424.87Z"/><path class="cls-1" d="M57,206.3c2.87-2.08,4.54-4.21,5.95-4.05s4,2.64,3.81,3.86c-.18,1.57-2.35,3.7-4,4C61.57,210.43,59.81,208.27,57,206.3Z"/><path class="cls-1" d="M62.9,308.92c2.12,3.21,4.1,4.88,3.93,6.29-.19,1.57-2.34,2.9-3.63,4.33-1.4-1.32-3.74-2.51-4-4S60.94,312.26,62.9,308.92Z"/><path class="cls-1" d="M57,60.51c3-1.88,4.68-3.83,6.07-3.62s3.94,2.67,3.77,3.79a6,6,0,0,1-4,4C61.52,64.91,59.82,62.68,57,60.51Z"/><path class="cls-1" d="M57,278.71c2.88-1.89,4.8-4,5.82-3.64a7.17,7.17,0,0,1,4,4.42c.23.88-2.51,3.54-3.86,3.51C61.35,283,59.82,280.87,57,278.71Z"/><path class="cls-1" d="M57,224.42c2.9-2,4.6-4.13,6-3.95s3.9,2.67,3.76,3.91c-.17,1.54-2.39,3.65-4,4C61.51,228.59,59.8,226.42,57,224.42Z"/><path class="cls-1" d="M57,242.5c2.87-2,4.65-4.09,5.91-3.82,1.61.35,3.74,2.56,3.87,4.12.1,1.23-2.39,3.6-3.91,3.76S59.85,244.59,57,242.5Z"/><path class="cls-1" d="M56.87,23.83c3.16-1.78,5-3.67,6.35-3.34,1.54.37,3.64,2.74,3.58,4.15s-2.53,3.7-4,3.72S59.78,26.17,56.87,23.83Z"/><path class="cls-1" d="M57,461c2.86-2.1,4.5-4.24,5.92-4.09s4,2.59,3.84,3.82c-.15,1.55-2.31,3.71-3.94,4.06C61.61,465,59.84,462.91,57,461Z"/><path class="cls-1" d="M56.72,169.71c3.22-1.91,5-3.79,6.37-3.55s2.67,2.51,4,3.89c-1.39,1.32-2.68,3.53-4.19,3.7S59.84,171.87,56.72,169.71Z"/><path class="cls-1" d="M56.93,42.21c3.07-1.83,4.82-3.7,6.34-3.53S67,41.46,66.8,42.53a6.15,6.15,0,0,1-4,4C61.48,46.74,59.81,44.46,56.93,42.21Z"/><path class="cls-1" d="M69.33,406.44c-3.19,2-4.93,3.94-6.32,3.72s-3.7-2.49-3.73-3.9,2.34-3.51,3.84-3.69S66.2,404.37,69.33,406.44Z"/><path class="cls-1" d="M63.13,267c-2-2.92-4.06-4.63-3.88-6,.2-1.58,2.44-2.9,3.8-4.34,1.35,1.4,3.6,2.68,3.78,4.22S65,264.05,63.13,267Z"/><path class="cls-1" d="M63.12,85.22C61,82.08,59.06,80.4,59.24,79s2.4-2.8,3.72-4.19c1.37,1.33,3.62,2.53,3.86,4S65.11,82,63.12,85.22Z"/><path class="cls-1" d="M56.82,151.56c3.08-1.94,4.86-3.92,6.06-3.61,1.63.4,2.82,2.56,4.2,4-1.34,1.29-2.64,3.57-4,3.61C61.51,155.57,59.88,153.63,56.82,151.56Z"/><path class="cls-1" d="M62.87,103.31c-1.95-3.08-3.93-4.85-3.63-6,.4-1.63,2.56-2.83,4-4.21,1.29,1.33,3.57,2.63,3.62,4C66.87,98.61,64.93,100.24,62.87,103.31Z"/><path class="cls-1" d="M62.88,339.72c-2-3.07-3.94-4.84-3.64-6.05.4-1.63,2.55-2.82,4-4.21,1.29,1.33,3.57,2.62,3.62,4C66.87,335,64.94,336.65,62.88,339.72Z"/><path class="cls-1" d="M56.91,388.15c2.92-2,4.62-4,5.83-3.79,1.64.35,2.91,2.46,4.34,3.82-1.36,1.34-2.61,3.57-4.12,3.76S59.88,390.12,56.91,388.15Z"/><path class="cls-1" d="M56.66,133.25c3.33-1.91,5.06-3.71,6.52-3.51s3.74,2.53,3.62,3.71c-.16,1.49-2.3,3.72-3.75,3.85S59.88,135.42,56.66,133.25Z"/><path class="cls-1" d="M63.22,0C65.09,3.06,67,4.83,66.83,6.3s-2.52,2.76-3.91,4.12C61.61,9,59.39,7.62,59.25,6.07S61.18,2.94,63.22,0Z"/><path class="cls-1" d="M63.05,345.35c2,3.27,4,5,3.77,6.39a5.61,5.61,0,0,1-3.88,3.74c-1.17.13-3.61-2.22-3.69-3.57C59.15,350.34,61,348.65,63.05,345.35Z"/><path class="cls-1" d="M56.64,115.29c3.34-2,5-3.88,6.61-3.76,1.37.11,3.68,2.57,3.55,3.75A5.59,5.59,0,0,1,63,119.09C61.6,119.3,59.89,117.36,56.64,115.29Z"/><path class="cls-1" d="M62.87,376.2c-1.93-3.18-3.84-4.93-3.61-6.33s2.51-2.66,3.89-4c1.31,1.38,3.5,2.67,3.67,4.18S65,373.12,62.87,376.2Z"/><path class="cls-1" d="M81.08,291.59c1.84,2.76,3.61,4.25,3.52,5.63s-2.08,2.54-3.25,3.8c-1.33-1.23-3.48-2.31-3.76-3.75C77.36,296,79.26,294.39,81.08,291.59Z"/><path class="cls-1" d="M81.18,455.37c1.74,2.52,3.59,4,3.43,5.26-.2,1.44-2.14,2.66-3.33,4-1.31-1.2-3.54-2.31-3.68-3.64S79.37,458,81.18,455.37Z"/><path class="cls-1" d="M86.68,60.72c-2.58,1.9-4.1,3.85-5.25,3.65-1.51-.26-2.74-2.21-4.08-3.43,1.23-1.28,2.33-3.39,3.73-3.61S84,59,86.68,60.72Z"/><path class="cls-1" d="M86.68,424.47c-2.7,1.78-4.28,3.63-5.56,3.45s-2.53-2.3-3.77-3.57c1.33-1.24,2.53-3.2,4-3.47C82.54,420.67,84.08,422.6,86.68,424.47Z"/><path class="cls-1" d="M81.33,193.65c-2-2.72-3.92-4.28-3.73-5.52a5.54,5.54,0,0,1,3.65-3.64c.9-.21,3.22,2.07,3.36,3.38S83,190.82,81.33,193.65Z"/><path class="cls-1" d="M86.67,315.51c-2.62,1.82-4.18,3.72-5.33,3.5-1.5-.29-2.67-2.27-4-3.52,1.27-1.26,2.43-3.33,3.85-3.53C82.46,311.79,84,313.68,86.67,315.51Z"/><path class="cls-1" d="M81.34,448.2c-1.92-2.61-3.91-4.14-3.74-5.39.19-1.45,2.27-2.64,3.52-3.95,1.24,1.28,3.21,2.42,3.47,3.87C84.81,444,83,445.52,81.34,448.2Z"/><path class="cls-1" d="M81,109.75c1.91,2.75,3.79,4.27,3.62,5.5-.21,1.44-2.12,3.5-3.46,3.64-1.13.12-3.35-2-3.54-3.36S79.18,112.63,81,109.75Z"/><path class="cls-1" d="M81.08,211.87c-1.82-2.81-3.71-4.46-3.48-5.71.27-1.42,2.31-3.19,3.82-3.45.91-.16,3.11,2.22,3.19,3.55S82.91,209.12,81.08,211.87Z"/><path class="cls-1" d="M86.78,169.64c-2.76,1.91-4.29,3.8-5.57,3.65s-3.48-2.16-3.59-3.48c-.09-1.16,2-3.33,3.41-3.52S83.94,167.88,86.78,169.64Z"/><path class="cls-1" d="M81.3,273.38c1.73,2.81,3.44,4.37,3.31,5.75s-2.42,3.61-3.32,3.41c-1.5-.31-3.48-2.16-3.69-3.59C77.42,277.69,79.38,276.12,81.3,273.38Z"/><path class="cls-1" d="M86.63,97c-2.61,1.9-4.13,3.87-5.38,3.71-1.43-.18-2.61-2.26-3.9-3.52C78.62,96,79.76,94,81.21,93.76,82.42,93.54,84,95.34,86.63,97Z"/><path class="cls-1" d="M81.09,400.69c1.78,2.65,3.56,4.13,3.5,5.52s-2.2,3.57-3.24,3.47c-1.43-.13-3.58-2-3.75-3.32S79.3,403.42,81.09,400.69Z"/><path class="cls-1" d="M81,37.06c1.84,2.56,3.71,4,3.56,5.25-.18,1.47-2.08,2.73-3.24,4.08-1.33-1.23-3.49-2.3-3.75-3.72C77.37,41.42,79.26,39.78,81,37.06Z"/><path class="cls-1" d="M81.33,346.15c1.73,2.87,3.44,4.43,3.26,5.73s-2.19,2.47-3.4,3.69c-1.26-1.28-3.32-2.43-3.55-3.87C77.45,350.48,79.38,348.93,81.33,346.15Z"/><path class="cls-1" d="M81.17,328.13c1.77,2.6,3.61,4.13,3.42,5.33-.22,1.46-2.17,2.65-3.37,4-1.29-1.25-3.4-2.38-3.62-3.81C77.4,332.36,79.33,330.78,81.17,328.13Z"/><path class="cls-1" d="M86.63,151.57c-2.58,1.82-4.07,3.68-5.28,3.51-1.46-.21-2.68-2.13-4-3.32,1.24-1.31,2.34-3.43,3.76-3.68C82.35,147.87,84,149.78,86.63,151.57Z"/><path class="cls-1" d="M81.22,127.91c1.72,2.68,3.44,4.19,3.37,5.61-.06,1.24-2.28,3.46-3.27,3.32-1.45-.21-3.56-2-3.72-3.36S79.37,130.58,81.22,127.91Z"/><path class="cls-1" d="M86.78,388.24c-2.82,1.72-4.35,3.42-5.69,3.27s-3.61-2.35-3.43-3.25c.29-1.49,2.1-3.48,3.51-3.7C82.41,384.36,84,386.3,86.78,388.24Z"/><path class="cls-1" d="M86.63,78.9c-2.63,1.87-4.19,3.82-5.44,3.64-1.42-.21-2.57-2.31-3.84-3.59,1.29-1.21,2.46-3.17,3.91-3.41C82.47,75.33,84,77.16,86.63,78.9Z"/><path class="cls-1" d="M81.3,11.71c-1.89-2.58-3.88-4.12-3.7-5.34.22-1.45,2.3-2.63,3.57-3.92,1.22,1.21,3.31,2.35,3.43,3.66S83,9.06,81.3,11.71Z"/><path class="cls-1" d="M75.73,242.33c2.66-1.6,4.28-3.34,5.71-3.2,1.24.11,3.32,2.55,3.14,3.63a5.21,5.21,0,0,1-3.73,3.38C79.58,246.24,78.14,244.23,75.73,242.33Z"/><path class="cls-1" d="M81.25,266.31c-1.85-2.66-3.83-4.27-3.64-5.57s2.46-2.47,3.82-3.68c1.14,1.29,3.06,2.51,3.18,3.89S83,263.74,81.25,266.31Z"/><path class="cls-1" d="M86.71,24.26c-2.61,1.92-4.13,3.87-5.29,3.67-1.51-.26-2.72-2.21-4.07-3.44,1.21-1.27,2.31-3.39,3.66-3.58S83.94,22.53,86.71,24.26Z"/><path class="cls-1" d="M87,369.86c-3,1.87-4.56,3.57-5.9,3.43s-2.5-2.11-3.74-3.28c1.21-1.22,2.3-3.23,3.65-3.42S83.92,368.07,87,369.86Z"/><path class="cls-1" d="M86.7,224.74c-2.82,1.65-4.46,3.4-5.78,3.19s-2.39-2.38-3.57-3.69c1.38-1.18,2.65-3.11,4.17-3.32C82.68,220.75,84.14,222.75,86.7,224.74Z"/><path class="cls-1" d="M99.16,174.9c-1.5-2.36-3.2-3.86-3-5a4.94,4.94,0,0,1,3.41-3.19c1-.11,3.06,2.06,3,3.18C102.62,171.26,100.88,172.59,99.16,174.9Z"/><path class="cls-1" d="M99.1,156.68c-1.47-2.38-3.15-3.9-2.92-5a4.91,4.91,0,0,1,3.45-3.16c1-.1,3,2.09,3,3.22C102.6,153.08,100.85,154.39,99.1,156.68Z"/><path class="cls-1" d="M99.29,84c-1.58-2.49-3.21-3.93-3.1-5.2s2-2.26,3.17-3.38c1.14,1.23,3,2.33,3.21,3.72C102.77,80.2,101,81.63,99.29,84Z"/><path class="cls-1" d="M99.44,120.46c-1.65-2.48-3.31-3.88-3.23-5.18s2-2.3,3.11-3.45c1.15,1.21,3,2.28,3.26,3.66C102.79,116.56,101.07,118,99.44,120.46Z"/><path class="cls-1" d="M99.42,356.79c-1.62-2.37-3.31-3.74-3.24-5s2-2.32,3.07-3.48c1.2,1.17,3.1,2.2,3.38,3.56C102.85,352.91,101.07,354.39,99.42,356.79Z"/><path class="cls-1" d="M99,393.23c-1.44-2.59-3-4.12-2.8-5.4s2.24-3,3.37-2.92,3.08,2.11,3.07,3.25C102.61,389.5,100.84,390.81,99,393.23Z"/><path class="cls-1" d="M99.28,102.19c-1.55-2.48-3.17-3.91-3.06-5.21s2-2.22,3.19-3.33c1.15,1.23,3,2.33,3.22,3.72C102.82,98.42,101,99.84,99.28,102.19Z"/><path class="cls-1" d="M99.39,138.47c-1.6-2.28-3.35-3.7-3.18-4.8.22-1.35,2.05-2.43,3.19-3.63,1.15,1.1,3.17,2.16,3.22,3.31C102.68,134.68,101,136.09,99.39,138.47Z"/><path class="cls-1" d="M104.4,333.5c-2.29,1.66-3.68,3.44-4.78,3.27a5,5,0,0,1-3.38-3.22c-.18-.92,1.86-3.13,3-3.2C100.56,330.28,102,331.93,104.4,333.5Z"/><path class="cls-1" d="M99.41,411.29c-1.62-2.3-3.38-3.72-3.2-4.81a5,5,0,0,1,3.27-3.35c.91-.16,3.1,1.91,3.15,3.05C102.68,407.51,101,408.9,99.41,411.29Z"/><path class="cls-1" d="M104.29,315.42c-2.2,1.56-3.6,3.3-4.71,3.13-1.34-.21-2.42-2-3.62-3.17,1.18-1.13,2.26-3,3.56-3.18C100.66,312.05,102.06,313.82,104.29,315.42Z"/><path class="cls-1" d="M104.59,260.71c-2.47,1.69-3.88,3.4-5,3.23-1.33-.2-2.42-2-3.61-3.14,1.1-1.09,2.15-3,3.33-3.05S102.05,259.19,104.59,260.71Z"/><path class="cls-1" d="M104.61,42.65c-2.62,1.6-4.08,3.21-5.36,3.07s-2.2-2.09-3.29-3.25c1.15-1,2.24-2.84,3.46-2.94S102,41,104.61,42.65Z"/><path class="cls-1" d="M99.44,201.27c1.62,2.42,3.3,3.84,3.19,5.1s-2.14,2.88-3.36,2.91c-1.07,0-3-1.88-3.08-3.05S97.76,203.68,99.44,201.27Z"/><path class="cls-1" d="M99.27,29.38c-1.57-2.48-3.19-3.91-3.07-5.19.1-1.12,2.21-2.9,3.34-2.83s3,1.95,3.09,3.16S101,27,99.27,29.38Z"/><path class="cls-1" d="M99.44,65.79c-1.68-2.4-3.35-3.74-3.25-5s2-3.08,3.08-3.06,3.26,1.77,3.36,2.91S101.06,63.36,99.44,65.79Z"/><path class="cls-1" d="M94.33,296.91c2.47-1.43,3.91-3,5.07-2.75s2.32,2,3.46,3.08c-1.22,1.11-2.35,2.94-3.69,3.11C98.06,300.5,96.69,298.69,94.33,296.91Z"/><path class="cls-1" d="M99.52,237.68c1.61,2.42,3.29,3.84,3.11,5a4.56,4.56,0,0,1-3.25,3c-1.1,0-3.15-1.87-3.18-3C96.15,241.43,97.84,240.08,99.52,237.68Z"/><path class="cls-1" d="M99.29,219.46c1.73,2.37,3.45,3.7,3.34,4.87s-1.94,3.09-3.1,3.15-3.24-1.73-3.33-2.84C96.09,223.36,97.71,221.93,99.29,219.46Z"/><path class="cls-1" d="M99.14,429.53c-1.52-2.46-3.11-3.89-2.93-5s2-2.27,3.13-3.4c1.15,1.16,3.1,2.24,3.21,3.49S100.87,427.16,99.14,429.53Z"/><path class="cls-1" d="M99.11,365c1.75,2.32,3.55,3.68,3.51,5s-2,3.13-3.22,3.22c-1.06.07-3-1.89-3.19-3.15S97.64,367.38,99.11,365Z"/><path class="cls-1" d="M98.89,465.63c-1.38-2.36-3-3.86-2.71-4.95.28-1.24,2.39-3.1,3.35-2.9a4.9,4.9,0,0,1,3.09,3.47C102.73,462.28,100.77,463.54,98.89,465.63Z"/><path class="cls-1" d="M104.6,279.06c-2.6,1.6-4.06,3.2-5.34,3.07s-2.2-2.07-3.3-3.22c1.16-1.05,2.24-2.83,3.48-3S102,277.42,104.6,279.06Z"/><path class="cls-1" d="M99.41,183c1.64,2.41,3.38,3.88,3.16,4.93a5.15,5.15,0,0,1-3.44,3.1c-.8.18-2.95-1.88-2.92-2.88C96.25,186.82,97.78,185.49,99.41,183Z"/><path class="cls-1" d="M104.33,442.54c-2.44,1.67-3.78,3.3-4.9,3.16s-2.32-1.91-3.46-3c1.09-1.14,2.07-3,3.33-3.21C100.39,439.31,101.82,440.94,104.33,442.54Z"/><path class="cls-1" d="M99.43,11.11C97.76,8.73,96,7.35,96.19,6.21a4.6,4.6,0,0,1,3.23-3.07c.94-.1,2.82,1.88,3,3.1S101,8.75,99.43,11.11Z"/><path class="cls-1" d="M122.1,242.74c-2.24,1.45-3.53,2.92-4.74,2.86-1,0-2.56-2-2.54-3s1.74-2.92,2.69-2.91C118.73,239.66,119.94,241.19,122.1,242.74Z"/><path class="cls-1" d="M122.08,6.11c-2.09,1.54-3.28,3.09-4.39,3a4,4,0,0,1-2.85-2.77c0-1.1,1.55-3.08,2.53-3.14C118.57,3.16,119.87,4.67,122.08,6.11Z"/><path class="cls-1" d="M122.17,424.33c-2.14,1.58-3.34,3.14-4.45,3.08a4,4,0,0,1-2.87-2.77c0-1,1.63-2.73,2.74-2.91S120,423,122.17,424.33Z"/><path class="cls-1" d="M117.59,392.66c-1.44-2.1-2.9-3.29-2.77-4.28.16-1.18,1.64-3,2.59-3s3,1.58,3.08,2.57C120.57,389.11,119.07,390.4,117.59,392.66Z"/><path class="cls-1" d="M113.24,260.56c2-1.4,3.37-3,4.17-2.72a5,5,0,0,1,3,3.06c.16.75-1.79,2.77-2.8,2.78C116.49,263.69,115.3,262.11,113.24,260.56Z"/><path class="cls-1" d="M117.48,447.29c-1.37-2.2-2.81-3.5-2.65-4.55s1.87-2.79,2.88-2.77,2.73,1.77,2.8,2.84S119,445.13,117.48,447.29Z"/><path class="cls-1" d="M117.7,347.23c1.42,2.28,2.89,3.61,2.79,4.81-.09,1-2.08,2.56-3.15,2.5s-2.39-1.93-2.51-3.11C114.72,350.44,116.21,349.28,117.7,347.23Z"/><path class="cls-1" d="M117.8,65.3c-1.56-2.22-3.07-3.43-3-4.48s1.73-2.13,2.69-3.18c1.06,1,2.77,1.87,3,3C120.72,61.67,119.23,63,117.8,65.3Z"/><path class="cls-1" d="M117.48,92.59c1.53,2.21,3.06,3.47,3,4.67,0,1-1.94,2.66-3,2.65s-2.49-1.79-2.67-3C114.66,96,116.09,94.73,117.48,92.59Z"/><path class="cls-1" d="M117.31,119.89c-1.3-2.31-2.61-3.59-2.49-4.71s1.74-2,2.7-2.91c1.06,1.08,2.74,2,3,3.29C120.68,116.47,119,117.75,117.31,119.89Z"/><path class="cls-1" d="M117.36,374.52c-1.33-2.29-2.65-3.55-2.54-4.68s1.71-2,2.66-2.94c1.08,1.07,2.76,2,3,3.26C120.69,371.06,119,372.36,117.36,374.52Z"/><path class="cls-1" d="M122.18,297.27c-2.21,1.38-3.49,2.82-4.54,2.66s-2.78-1.83-2.79-2.85,1.75-2.73,2.8-2.79S120,295.74,122.18,297.27Z"/><path class="cls-1" d="M122,187.94c-2,1.53-3.21,3.11-4.32,3.06s-2-1.79-3.06-2.78c1.06-1,2-2.61,3.21-2.91C118.72,185.1,120,186.61,122,187.94Z"/><path class="cls-1" d="M122.09,79.25c-2.14,1.3-3.5,2.75-4.36,2.5a4.89,4.89,0,0,1-2.89-3.08c-.16-.68,1.83-2.69,2.71-2.61C118.82,76.18,120,77.65,122.09,79.25Z"/><path class="cls-1" d="M117.63,338.08c-1.46-2.2-2.93-3.44-2.8-4.48s1.76-2.08,2.74-3.11c1.05,1,2.76,1.91,3,3.06S119.14,335.85,117.63,338.08Z"/><path class="cls-1" d="M117.36,156.2c-1.31-2.21-2.71-3.53-2.53-4.58s2-2.76,2.91-2.69a4,4,0,0,1,2.76,2.9C120.56,152.93,119,154.1,117.36,156.2Z"/><path class="cls-1" d="M122.17,133.21c-2.13,1.6-3.3,3.17-4.41,3.13s-2.85-1.7-2.9-2.72,1.57-2.76,2.66-2.94S119.92,131.9,122.17,133.21Z"/><path class="cls-1" d="M117.48,310.68c1.55,2.36,3,3.58,3,4.85,0,.91-1.86,2.72-2.71,2.61a4.18,4.18,0,0,1-2.93-2.75C114.66,314.34,116.07,313,117.48,310.68Z"/><path class="cls-1" d="M117.72,220.12c1.44,2.08,3,3.41,2.76,4.21-.38,1.27-2,2.19-3,3.26-.94-1-2.54-2-2.63-3.16S116.25,222.19,117.72,220.12Z"/><path class="cls-1" d="M122.1,42.61c-2.08,1.4-3.37,2.91-4.24,2.7a4.9,4.9,0,0,1-3-2.94c-.2-.65,1.69-2.75,2.56-2.71C118.67,39.72,119.88,41.12,122.1,42.61Z"/><path class="cls-1" d="M122.09,278.92c-2,1.44-3.28,3-4.16,2.8a4.93,4.93,0,0,1-3.1-2.87c-.21-.65,1.62-2.8,2.5-2.78C118.6,276.11,119.85,277.48,122.09,278.92Z"/><path class="cls-1" d="M113.07,406.41c2.21-1.51,3.43-3,4.47-2.88s2.09,1.75,3.13,2.72c-1,1.05-1.89,2.73-3.06,2.95C116.63,409.38,115.32,407.88,113.07,406.41Z"/><path class="cls-1" d="M122.11,24.39c-2.09,1.4-3.38,2.91-4.25,2.7a4.93,4.93,0,0,1-3-2.94c-.2-.64,1.69-2.75,2.56-2.71C118.67,21.5,119.88,22.9,122.11,24.39Z"/><path class="cls-1" d="M117.57,456.54c1.51,2,3.12,3.3,2.91,4.1-.34,1.29-1.88,2.26-2.91,3.37-1-1-2.62-2-2.74-3.07S116.17,458.65,117.57,456.54Z"/><path class="cls-1" d="M117.35,210.81c-1.32-2.14-2.78-3.48-2.53-4.36a4.86,4.86,0,0,1,3.05-2.9c.65-.18,2.68,1.79,2.6,2.66C120.36,207.49,118.92,208.65,117.35,210.81Z"/><path class="cls-1" d="M117.44,174.36c-1.36-2.1-2.78-3.32-2.62-4.29.18-1.16,1.69-2.9,2.67-2.93s3,1.65,3,2.61C120.48,171,119,172.18,117.44,174.36Z"/><path class="cls-1" d="M139.7,242.69c-1.84,1.27-3,2.64-3.9,2.52s-1.89-1.61-2.82-2.51c1-.95,1.82-2.45,2.92-2.66C136.75,239.88,137.9,241.36,139.7,242.69Z"/><path class="cls-1" d="M135.78,192c-1.32-1.81-2.71-2.89-2.63-3.85s1.56-1.91,2.43-2.87c1,.93,2.51,1.74,2.73,2.82C138.49,188.92,137.05,190.11,135.78,192Z"/><path class="cls-1" d="M135.85,210.18c-1.35-1.79-2.76-2.85-2.7-3.81s1.53-1.94,2.38-2.91c1,.91,2.54,1.7,2.78,2.78C138.5,207.09,137.09,208.31,135.85,210.18Z"/><path class="cls-1" d="M139.69,442.59c-1.82,1.31-3,2.77-3.84,2.62-1.08-.2-1.93-1.72-2.87-2.67.93-.89,1.79-2.39,2.81-2.49S137.85,441.31,139.69,442.59Z"/><path class="cls-1" d="M135.86,275.08c1.23,1.87,2.64,3.08,2.45,3.94-.24,1.08-1.8,1.86-2.79,2.77-.84-1-2.3-1.9-2.37-2.92S134.51,276.86,135.86,275.08Z"/><path class="cls-1" d="M139.69,460.8c-1.82,1.32-3,2.78-3.84,2.63-1.08-.2-1.93-1.72-2.87-2.67.92-.89,1.79-2.39,2.8-2.49S137.85,459.53,139.69,460.8Z"/><path class="cls-1" d="M139.69,42.56c-1.81,1.32-2.88,2.71-3.84,2.64s-1.92-1.55-2.87-2.42c.92-1,1.73-2.51,2.81-2.74C136.65,39.86,137.84,41.29,139.69,42.56Z"/><path class="cls-1" d="M139.69,6.09c-1.8,1.34-2.85,2.74-3.81,2.67s-1.94-1.52-2.9-2.37c.92-1,1.72-2.51,2.81-2.76C136.63,3.44,137.84,4.85,139.69,6.09Z"/><path class="cls-1" d="M139.69,224.47c-1.83,1.27-3,2.7-3.86,2.52-1.09-.24-1.91-1.75-2.85-2.71.94-.87,1.84-2.34,2.86-2.42S137.87,223.16,139.69,224.47Z"/><path class="cls-1" d="M139.69,24.45c-1.84,1.27-2.94,2.63-3.9,2.53s-1.88-1.58-2.81-2.47c1-.94,1.8-2.44,2.9-2.66C136.72,21.68,137.88,23.14,139.69,24.45Z"/><path class="cls-1" d="M139.69,260.69c-1.79,1.35-2.83,2.76-3.79,2.7s-2-1.51-2.92-2.35c.91-1,1.7-2.52,2.79-2.78C136.61,258.06,137.83,259.46,139.69,260.69Z"/><path class="cls-1" d="M135.62,293.29c1.34,1.79,2.82,2.93,2.66,3.77-.19,1.1-1.68,2-2.62,2.94-.89-.91-2.39-1.76-2.51-2.77S134.38,295.15,135.62,293.29Z"/><path class="cls-1" d="M135.72,329.8c1.26,1.74,2.66,2.83,2.56,3.77s-1.6,1.92-2.49,2.86c-.95-1-2.35-1.88-2.68-3.06C132.92,332.67,134.42,331.5,135.72,329.8Z"/><path class="cls-1" d="M139.72,60.88c-1.88,1.28-3,2.67-3.94,2.52-1.05-.17-1.88-1.7-2.8-2.65.94-.89,1.82-2.4,2.82-2.49S137.87,59.56,139.72,60.88Z"/><path class="cls-1" d="M135.67,75.19c1.29,1.71,2.7,2.76,2.64,3.73s-1.56,1.89-2.43,2.83c-1-1-2.4-1.82-2.77-3C132.9,78.09,134.39,76.88,135.67,75.19Z"/><path class="cls-1" d="M135.81,311.48c1.25,1.89,2.6,3,2.47,4s-1.65,1.85-2.57,2.76c-.91-.95-2.41-1.82-2.55-2.87S134.47,313.32,135.81,311.48Z"/><path class="cls-1" d="M135.62,410.06c-1.25-1.7-2.73-2.92-2.51-3.6.37-1.16,1.79-2,2.78-3,.86,1,2.33,1.88,2.4,2.89S136.92,408.38,135.62,410.06Z"/><path class="cls-1" d="M135.56,173.76c-1.22-1.91-2.57-3.12-2.39-4s1.75-1.82,2.72-2.71c.86,1,2.32,1.9,2.4,2.94S136.93,172,135.56,173.76Z"/><path class="cls-1" d="M135.59,428.39c-1.23-1.9-2.59-3.09-2.42-4s1.73-1.84,2.69-2.74c.87,1,2.34,1.88,2.43,2.91S137,426.58,135.59,428.39Z"/><path class="cls-1" d="M135.68,155.52c-1.29-1.82-2.79-3.09-2.56-3.81a4.94,4.94,0,0,1,3-2.59c.46-.15,2.19,1.64,2.18,2.55S137,153.71,135.68,155.52Z"/><path class="cls-1" d="M139.71,97.67c-2.06,1-3.35,2.27-4.24,2s-1.69-1.85-2.51-2.86c1-.77,2.06-2.13,3.08-2.13S138,96.17,139.71,97.67Z"/><path class="cls-1" d="M135.86,355.46c-1.35-1.72-2.82-2.78-2.73-3.69a3.58,3.58,0,0,1,2.63-2.42c.91,0,2.29,1.51,2.53,2.57C138.46,352.67,137.08,353.78,135.86,355.46Z"/><path class="cls-1" d="M135.69,392c-1.29-1.93-2.59-3-2.52-4a3.49,3.49,0,0,1,2.64-2.22,3.35,3.35,0,0,1,2.47,2.27C138.29,389.05,137,390.1,135.69,392Z"/><path class="cls-1" d="M135.73,111.61c1.28,1.71,2.72,2.84,2.55,3.61a3.87,3.87,0,0,1-2.67,2.47c-.8.09-2.47-1.48-2.49-2.34S134.45,113.33,135.73,111.61Z"/><path class="cls-1" d="M135.69,373.55c-1.25-1.59-2.72-2.68-2.57-3.46.2-1,1.66-2.52,2.58-2.52s2.38,1.49,2.57,2.53C138.42,370.88,137,372,135.69,373.55Z"/><path class="cls-1" d="M135.74,137.22c-1.27-1.73-2.59-2.76-2.57-3.77,0-.84,1.69-2.41,2.46-2.3a3.84,3.84,0,0,1,2.65,2.47C138.44,134.4,137,135.52,135.74,137.22Z"/><path class="cls-1" d="M157.37,315.54c-1.66,1.09-2.6,2.19-3.48,2.14s-2.27-1.53-2.14-2A4.1,4.1,0,0,1,154,313C154.63,312.82,155.74,314.25,157.37,315.54Z"/><path class="cls-1" d="M157.47,388.19c-1.72,1.18-2.75,2.42-3.5,2.27a3.4,3.4,0,0,1-2.2-2.41c-.05-.73,1.36-2.12,2.22-2.21S155.77,387,157.47,388.19Z"/><path class="cls-1" d="M157.47,351.73c-1.71,1.2-2.68,2.4-3.5,2.31s-2.26-1.5-2.2-2.24a3.38,3.38,0,0,1,2.23-2.38C154.75,349.27,155.77,350.53,157.47,351.73Z"/><path class="cls-1" d="M150.58,333.55c1.55-1.15,2.69-2.54,3.32-2.33a3.85,3.85,0,0,1,2.16,2.67c.09.58-1.52,1.86-2.47,2C152.88,336,152,334.7,150.58,333.55Z"/><path class="cls-1" d="M157.39,424.31c-1.63,1.29-2.72,2.7-3.35,2.51a4.12,4.12,0,0,1-2.29-2.59c-.14-.47,1.33-2,2.13-2S155.7,423.23,157.39,424.31Z"/><path class="cls-1" d="M157.38,61.07c-1.72,1-2.71,2.06-3.58,2s-2.21-1.63-2.05-2.11a4.12,4.12,0,0,1,2.37-2.52C154.76,58.26,155.79,59.72,157.38,61.07Z"/><path class="cls-1" d="M157.25,169.94c-1.56,1.14-2.71,2.52-3.33,2.31a3.87,3.87,0,0,1-2.15-2.69c-.08-.57,1.54-1.84,2.49-1.95C155,167.52,155.84,168.78,157.25,169.94Z"/><path class="cls-1" d="M157.29,133.45c-1.59,1.17-2.61,2.48-3.4,2.36a3.33,3.33,0,0,1-2.12-2.48c0-.73,1.42-2,2.34-2.13C154.84,131.09,155.77,132.32,157.29,133.45Z"/><path class="cls-1" d="M157.31,406.56c-1.69,1-2.83,2.23-3.56,2a3.36,3.36,0,0,1-2-2.61c0-.75,1.59-1.85,2.55-1.94C155,404,155.87,405.27,157.31,406.56Z"/><path class="cls-1" d="M157.49,115.33c-1.74,1.19-2.7,2.36-3.55,2.29s-2.22-1.5-2.14-2.19A3.43,3.43,0,0,1,154,113C154.74,112.86,155.76,114.12,157.49,115.33Z"/><path class="cls-1" d="M157.29,97.13c-1.5,1.15-2.42,2.39-3.15,2.28-.93-.13-2.39-1.37-2.37-2.1a3.34,3.34,0,0,1,2.09-2.5C154.65,94.67,155.69,96,157.29,97.13Z"/><path class="cls-1" d="M157.29,79.16c-1.59,1-2.6,2.2-3.31,2-.92-.21-2.28-1.53-2.21-2.27A3.3,3.3,0,0,1,154,76.59C154.83,76.53,155.76,77.89,157.29,79.16Z"/><path class="cls-1" d="M157.49,369.77c-1.69,1.29-2.66,2.59-3.42,2.47a3.43,3.43,0,0,1-2.28-2.34c-.1-.69,1.24-2.16,2.06-2.27S155.71,368.65,157.49,369.77Z"/><path class="cls-1" d="M154,191.78c-1.18-1.87-2.25-2.83-2.23-3.77s1.3-1.58,2-2.36c.83.76,2.2,1.44,2.33,2.3S155.09,189.88,154,191.78Z"/><path class="cls-1" d="M154,148.18c1.08,1.62,2.23,2.59,2.1,3.34-.18,1-1.37,1.79-2.12,2.68-.79-.92-2-1.75-2.24-2.8C151.59,150.74,152.85,149.74,154,148.18Z"/><path class="cls-1" d="M154.07,293.47c1.07,1.94,2.16,3,2,3.89s-1.54,1.5-2.39,2.24c-.7-.81-1.95-1.62-1.95-2.42S152.84,295.3,154.07,293.47Z"/><path class="cls-1" d="M157.34,24.29c-1.55,1.19-2.46,2.41-3.19,2.31-.93-.13-1.71-1.33-2.55-2.07.78-.8,1.46-2.06,2.37-2.27C154.69,22.1,155.7,23.24,157.34,24.29Z"/><path class="cls-1" d="M154,446.15c-1.18-1.74-2.35-2.72-2.21-3.44a3.49,3.49,0,0,1,2.25-2.27c.57-.12,2,1.28,2.1,2.08S155.07,444.37,154,446.15Z"/><path class="cls-1" d="M153.93,202.63c1.13,1.77,2.22,2.73,2.16,3.61s-1.51,2.22-2.09,2.1a3.46,3.46,0,0,1-2.25-2.25C151.6,205.37,152.76,204.38,153.93,202.63Z"/><path class="cls-1" d="M154,464.37c-1.18-1.74-2.35-2.72-2.2-3.44a3.46,3.46,0,0,1,2.24-2.27c.57-.12,2,1.28,2.1,2.08S155.07,462.59,154,464.37Z"/><path class="cls-1" d="M157.47,42.72c-1.79,1.1-2.76,2.18-3.64,2.1s-2.19-1.53-2.07-2.11a3.51,3.51,0,0,1,2.29-2.23C154.77,40.35,155.74,41.52,157.47,42.72Z"/><path class="cls-1" d="M154,257.29c1.12,1.78,2.2,2.75,2.13,3.63s-1.38,1.5-2.14,2.24c-.78-.8-2-1.51-2.2-2.43C151.6,260,152.78,259,154,257.29Z"/><path class="cls-1" d="M153.9,9.77C152.75,8,151.59,7,151.75,6.3A3.46,3.46,0,0,1,154,4.06c.57-.12,2,1.31,2.07,2.11S155.05,8,153.9,9.77Z"/><path class="cls-1" d="M150.36,242.64c1.77-1.14,2.72-2.24,3.6-2.18s1.52,1.35,2.28,2.1c-.8.79-1.49,2-2.41,2.24C153.11,245,152.12,243.79,150.36,242.64Z"/><path class="cls-1" d="M157.47,224.36c-1.75,1.16-2.7,2.26-3.58,2.21s-1.53-1.34-2.29-2.08c.78-.8,1.47-2.05,2.39-2.26C154.7,222.07,155.71,223.22,157.47,224.36Z"/><path class="cls-1" d="M153.91,275.64c1.12,1.59,2.31,2.55,2.18,3.27-.17.93-1.4,1.66-2.17,2.47-.77-.81-2-1.53-2.17-2.46C151.61,278.2,152.79,277.24,153.91,275.64Z"/><path class="cls-1" d="M172,312.05c1.16,1.63,2.24,2.49,2.22,3.33a2.09,2.09,0,0,1-4.16.18C170,314.72,171,313.78,172,312.05Z"/><path class="cls-1" d="M175.24,206.26c-1.45,1-2.34,2-3.19,2s-2.09-1.46-2-2a3.32,3.32,0,0,1,2.18-2.12C172.94,204,173.84,205.19,175.24,206.26Z"/><path class="cls-1" d="M175.12,6.28c-1.3,1-2.22,2.13-2.89,2-.87-.16-1.54-1.36-2.3-2.12.79-.72,1.52-1.89,2.4-2C173,4.05,173.87,5.27,175.12,6.28Z"/><path class="cls-1" d="M175.32,151.52c-1.44,1.1-2.31,2.26-3,2.16-.88-.13-1.61-1.27-2.4-2,.72-.68,1.39-1.8,2.19-1.9S173.79,150.64,175.32,151.52Z"/><path class="cls-1" d="M175.24,224.56c-1.47.93-2.4,2-3.25,1.91s-2.05-1.52-1.91-2.07a3.32,3.32,0,0,1,2.24-2.06C173,222.24,173.86,223.45,175.24,224.56Z"/><path class="cls-1" d="M172.24,100.07c-1.07-1.31-2.31-2.21-2.18-2.78a3.31,3.31,0,0,1,2.16-2.12c.57-.11,1.88,1.18,2,2S173.22,98.7,172.24,100.07Z"/><path class="cls-1" d="M175.33,333.57c-1.49,1-2.35,1.95-3.12,1.88s-1.53-1.15-2.29-1.79c.76-.75,1.43-1.93,2.3-2.1C172.91,331.43,173.84,332.55,175.33,333.57Z"/><path class="cls-1" d="M175.24,24.37c-1.4,1-2.25,2.13-3.1,2.13s-1.48-1.25-2.21-1.95c.73-.78,1.38-2,2.24-2.19C172.84,22.22,173.79,23.36,175.24,24.37Z"/><path class="cls-1" d="M172.06,282c-.95-1.29-2.12-2.21-2-2.89.17-.87,1.37-1.54,2.12-2.3.72.8,1.89,1.53,2,2.41C174.3,279.94,173.08,280.8,172.06,282Z"/><path class="cls-1" d="M172.08,75.93c1,1.31,2.15,2.11,2.12,2.86s-1.29,2.08-1.88,2a3.23,3.23,0,0,1-2.26-1.94C169.91,78.24,171.09,77.29,172.08,75.93Z"/><path class="cls-1" d="M175.12,242.75c-1.32.93-2.26,2.08-2.93,1.94-.87-.18-1.52-1.39-2.26-2.16.8-.7,1.56-1.86,2.44-2C173.05,240.48,173.89,241.72,175.12,242.75Z"/><path class="cls-1" d="M175.28,369.81c-1.45,1.05-2.33,2.18-3,2.07-.88-.14-1.61-1.27-2.4-2,.73-.68,1.4-1.82,2.2-1.92S173.74,368.88,175.28,369.81Z"/><path class="cls-1" d="M172.19,257.59c1,1.62,2.07,2.55,2,3.4a2.07,2.07,0,0,1-4.13-.07C170.05,260.06,171.12,259.17,172.19,257.59Z"/><path class="cls-1" d="M172.29,457.86c.92,1.33,2,2.22,1.92,3s-1.3,1.47-2,2.2c-.75-.77-2-1.47-2.11-2.35C170,460,171.23,459.14,172.29,457.86Z"/><path class="cls-1" d="M172,403.41c1.06,1.32,2.19,2.11,2.15,2.83s-1.31,2.16-1.83,2.07a3.41,3.41,0,0,1-2.27-2C169.88,405.75,171,404.77,172,403.41Z"/><path class="cls-1" d="M172,294.27c1.05,1.27,2.31,2.15,2.19,2.8-.15.88-1.35,1.58-2.1,2.36-.72-.71-2-1.37-2-2.14S171.07,295.63,172,294.27Z"/><path class="cls-1" d="M172,354.7c-1-1.36-2.15-2.33-2-2.89a3.41,3.41,0,0,1,2.25-2c.52-.09,1.8,1.28,1.85,2S173.09,353.36,172,354.7Z"/><path class="cls-1" d="M175.17,42.6c-1.34,1-2.18,2.09-3,2.06s-1.53-1.2-2.29-1.87c.75-.79,1.4-2,2.27-2.2C172.86,40.44,173.81,41.62,175.17,42.6Z"/><path class="cls-1" d="M175.26,169.82c-1.42,1.06-2.29,2.2-3,2.09-.88-.15-1.6-1.28-2.38-2,.71-.68,1.38-1.81,2.16-1.9S173.74,168.9,175.26,169.82Z"/><path class="cls-1" d="M175.26,115.33c-1.47,1-2.32,2-3.09,1.93s-1.5-1.17-2.25-1.81c.76-.74,1.43-1.9,2.3-2.08C172.88,113.23,173.8,114.34,175.26,115.33Z"/><path class="cls-1" d="M172,391.17c-.93-1.47-2-2.39-1.85-3.1a2,2,0,0,1,4,.21C174.2,389,173.06,389.81,172,391.17Z"/><path class="cls-1" d="M172.18,136.54c-1-1.4-2.14-2.24-2.07-3a2.82,2.82,0,0,1,2-2,2.85,2.85,0,0,1,2.06,1.91C174.26,134.23,173.18,135.11,172.18,136.54Z"/><path class="cls-1" d="M175.18,442.44c-1.3,1.08-2.16,2.31-2.83,2.22-.88-.12-1.62-1.29-2.42-2,.71-.71,1.36-1.9,2.15-2S173.77,441.57,175.18,442.44Z"/><path class="cls-1" d="M172,185.08c1,1.25,2.3,2.14,2.18,2.76-.17.88-1.35,1.57-2.1,2.34-.72-.72-1.93-1.37-2-2.17S171.08,186.41,172,185.08Z"/><path class="cls-1" d="M175.19,60.9c-1.38.94-2.25,2-3,1.92s-1.51-1.22-2.25-1.9c.76-.76,1.45-2,2.33-2.11C172.93,58.69,173.84,59.88,175.19,60.9Z"/><path class="cls-1" d="M172.14,421.62c1,1.33,2.18,2.2,2.06,2.83a2.07,2.07,0,0,1-4.13,0C170,423.82,171.11,423,172.14,421.62Z"/><path class="cls-1" d="M190.43,148.83c.84,1.48,1.66,2.29,1.61,3s-1.09,1.23-1.69,1.84c-.6-.7-1.55-1.34-1.67-2.11C188.58,151,189.5,150.22,190.43,148.83Z"/><path class="cls-1" d="M190.58,391.07c-1-1.33-2-2.05-1.89-2.67.08-.78,1-1.47,1.55-2.2.64.57,1.71,1.1,1.79,1.74S191.34,389.54,190.58,391.07Z"/><path class="cls-1" d="M190.15,130.61c1,1.34,1.95,2.07,1.88,2.68-.09.78-1,1.47-1.56,2.2-.64-.58-1.71-1.11-1.78-1.75S189.39,132.14,190.15,130.61Z"/><path class="cls-1" d="M190.21,348.81c1,1.35,1.91,2.1,1.83,2.71-.11.78-1,1.45-1.61,2.16-.62-.59-1.68-1.14-1.75-1.79S189.41,350.31,190.21,348.81Z"/><path class="cls-1" d="M190.45,367c.83,1.48,1.65,2.3,1.59,3.05s-1.1,1.22-1.71,1.82c-.59-.7-1.53-1.35-1.65-2.12C188.59,369.17,189.51,368.4,190.45,367Z"/><path class="cls-1" d="M193,115.34c-1.2.91-2,1.94-2.52,1.81a2.86,2.86,0,0,1-1.76-1.92c-.08-.53,1-1.76,1.6-1.75C191,113.48,191.74,114.42,193,115.34Z"/><path class="cls-1" d="M190.3,403.49c.91,1.35,1.84,2.13,1.74,2.72-.14.76-1.1,1.38-1.71,2.07-.59-.6-1.62-1.18-1.65-1.81S189.46,404.93,190.3,403.49Z"/><path class="cls-1" d="M193,97c-1.29,1-2,1.91-2.72,1.92s-1.6-1.09-1.64-1.74.9-1.84,1.46-1.87C190.88,95.27,191.66,96.14,193,97Z"/><path class="cls-1" d="M193,60.7c-1.2.9-2,1.93-2.53,1.79a2.94,2.94,0,0,1-1.75-2c-.09-.44,1.09-1.54,1.75-1.6S191.78,59.82,193,60.7Z"/><path class="cls-1" d="M190.37,421.76c.86,1.32,1.8,2.13,1.67,2.71-.16.75-1.17,1.32-1.81,2-.56-.65-1.51-1.27-1.56-2S189.5,423.07,190.37,421.76Z"/><path class="cls-1" d="M193,78.86c-1.18.93-2,2-2.49,1.85a2.92,2.92,0,0,1-1.79-1.91c-.1-.44,1.05-1.57,1.71-1.64S191.76,78,193,78.86Z"/><path class="cls-1" d="M193.74,226h-4.92V221.4Z"/><path class="cls-1" d="M193,333.84c-1.29.76-2.23,1.7-2.69,1.51a3.06,3.06,0,0,1-1.55-2.14c-.05-.43,1.25-1.43,1.91-1.4S191.86,332.83,193,333.84Z"/><path class="cls-1" d="M188.59,22.66l4.69.34c-1.65,1.76-2.5,2.68-4.3,4.59C188.78,25,188.7,24.11,188.59,22.66Z"/><path class="cls-1" d="M193.42,259.31,189,264c-.18-2.55-.24-3.48-.33-4.67Z"/><path class="cls-1" d="M193,170.07c-1.23.81-2,1.71-2.62,1.61s-1.77-1.26-1.66-1.7a2.93,2.93,0,0,1,1.86-1.85C191.05,168,191.81,169.11,193,170.07Z"/><path class="cls-1" d="M190.51,312.55c.8,1.37,1.63,2.16,1.54,2.81s-1.08,1.26-1.67,1.88c-.61-.69-1.57-1.32-1.7-2.09C188.59,314.58,189.57,313.82,190.51,312.55Z"/><path class="cls-1" d="M190.4,190.91c-.89-1.3-1.84-2.09-1.73-2.66.16-.76,1.15-1.35,1.78-2,.57.65,1.53,1.25,1.6,2S191.25,189.58,190.4,190.91Z"/><path class="cls-1" d="M188.8,457.73l4.7,4.49-4.7.33Z"/><path class="cls-1" d="M188.77,244.85v-4.09a9.75,9.75,0,0,1,2.85.82,1.9,1.9,0,0,1,.18,1.84A12.34,12.34,0,0,1,188.77,244.85Z"/><path class="cls-1" d="M188.15,277.53h4.32a13.11,13.11,0,0,1-1.25,2.94,1.67,1.67,0,0,1-1.66,0A14.24,14.24,0,0,1,188.15,277.53Z"/><path class="cls-1" d="M188.77,8.44V4.35a9.75,9.75,0,0,1,2.85.82A1.9,1.9,0,0,1,191.8,7,12.16,12.16,0,0,1,188.77,8.44Z"/><path class="cls-1" d="M188.13,207.72a14.23,14.23,0,0,1,1.45-3,1.69,1.69,0,0,1,1.66.07,13.15,13.15,0,0,1,1.21,2.93Z"/><path class="cls-1" d="M192.58,444.18h-4.09a10.23,10.23,0,0,1,.83-2.86,1.89,1.89,0,0,1,1.84-.16A11.93,11.93,0,0,1,192.58,444.18Z"/><path class="cls-1" d="M188.11,295.74h4.33a13.37,13.37,0,0,1-1.19,2.94,1.7,1.7,0,0,1-1.66.07A14.14,14.14,0,0,1,188.11,295.74Z"/><path class="cls-1" d="M192.6,41.11a14.54,14.54,0,0,1-1.46,3,1.69,1.69,0,0,1-1.66-.07,13.47,13.47,0,0,1-1.21-2.94Z"/><path class="cls-1" d="M211,6.37c-1.09.72-1.85,1.59-2.36,1.46-.69-.17-1.18-1.12-1.76-1.73.65-.53,1.26-1.41,2-1.49C209.34,4.55,210,5.52,211,6.37Z"/><path class="cls-1" d="M211,242.64c-1,.78-1.74,1.7-2.25,1.6-.7-.13-1.25-1.05-1.86-1.63.62-.57,1.18-1.48,1.88-1.6C209.24,240.91,209.94,241.85,211,242.64Z"/><path class="cls-1" d="M209.22,221c.48,2.52.85,3.42.73,4.27,0,.34-1.2.85-1.72.73s-1.37-1-1.28-1.4C207.14,223.81,207.83,223.12,209.22,221Z"/><path class="cls-1" d="M212,460.22c-2.12,1.36-2.81,2-3.62,2.22-.38.08-1.27-.76-1.38-1.29s.41-1.68.75-1.72C208.57,459.33,209.48,459.7,212,460.22Z"/><path class="cls-1" d="M208.75,264.3c-1.08-2.29-1.68-3.06-1.75-3.89,0-.39.91-1.17,1.45-1.21s1.6.62,1.6,1C210.06,261,209.57,261.88,208.75,264.3Z"/><path class="cls-1" d="M208,27.29c-.53-1.88-1-2.74-.91-3.54,0-.4,1.13-1.06,1.6-1s1.55,1.06,1.46,1.42C209.94,25,209.18,25.68,208,27.29Z"/><path class="cls-1" d="M211.45,278.53c-1.64,1.16-2.31,1.9-3.12,2.1-.36.09-1.26-.88-1.39-1.48s.58-1.55,1-1.58C208.72,277.51,209.57,278,211.45,278.53Z"/><path class="cls-1" d="M211.44,315c-1.63,1.18-2.3,1.92-3.11,2.12-.35.09-1.26-.87-1.39-1.47s.57-1.55,1-1.58C208.72,314,209.57,314.41,211.44,315Z"/><path class="cls-1" d="M211.62,206.37c-1.91.88-2.62,1.46-3.3,1.44a1.91,1.91,0,0,1-1.35-1.32c0-.69.52-1.41,1.44-3.57Z"/><path class="cls-1" d="M211.64,42.46l-3.23,3.45c-.93-2.15-1.49-2.88-1.44-3.56A1.9,1.9,0,0,1,208.31,41C209,41,209.7,41.58,211.64,42.46Z"/><path class="cls-1" d="M208.08,185l3.41,3.16c-1.77.81-2.48,1.34-3.24,1.4a1.66,1.66,0,0,1-1.25-1.11C207,187.7,207.44,186.93,208.08,185Z"/><path class="cls-1" d="M211.5,443.11c-1.89.66-2.64,1.17-3.32,1.08a1.91,1.91,0,0,1-1.24-1.41c0-.68.61-1.35,1.52-3.12Z"/><path class="cls-1" d="M211.42,296.78l-3.06,3.47c-.82-1.83-1.34-2.55-1.4-3.31a1.69,1.69,0,0,1,1.13-1.24C208.86,295.7,209.62,296.16,211.42,296.78Z"/><path class="cls-1" d="M206.86,390.15c.08-1.69.11-2.42.18-3.79l4.73,1.72Z"/><path class="cls-1" d="M207,349.82l4.77,1.79-4.77,2Z"/><path class="cls-1" d="M211.07,170.45c-1.48.45-2.29.93-3,.84a1.88,1.88,0,0,1-1.1-1.52c.11-.67.83-1.24,1.48-2.13Z"/><path class="cls-1" d="M211.07,332.94l-2.58,2.87c-.68-.84-1.42-1.39-1.55-2.06A1.88,1.88,0,0,1,208,332.2C208.73,332.08,209.56,332.53,211.07,332.94Z"/><path class="cls-1" d="M208.3,422.08c1,1.16,1.59,1.76,2.56,2.85-1.16.49-1.91,1.05-2.66,1a1.89,1.89,0,0,1-1.26-1.4C207,423.89,207.63,423.24,208.3,422.08Z"/><path class="cls-1" d="M207.1,113.27l4.52,2-4.7,2C207,115.64,207,114.86,207.1,113.27Z"/><path class="cls-1" d="M206.86,99.08l.18-3.8L211.77,97Z"/><path class="cls-1" d="M207.07,149.92l4.7,1.81-4.7,1.89Z"/><path class="cls-1" d="M212.41,133.38l-5.37,2-.16-3.49Z"/><path class="cls-1" d="M211.52,78.79l-3,2.66c-.77-1.17-1.46-1.81-1.58-2.54-.07-.42.78-1.39,1.23-1.4C208.93,77.48,209.69,78,211.52,78.79Z"/><path class="cls-1" d="M208.34,63.25c-.72-1.24-1.36-1.9-1.39-2.58a1.88,1.88,0,0,1,1.27-1.39c.68-.08,1.42.46,2.57.9Z"/><path class="cls-1" d="M208.34,404l2.52,2.69c-1.14.52-1.87,1.1-2.61,1.11-.46,0-1.34-.93-1.29-1.35C207,405.67,207.71,405,208.34,404Z"/><path class="cls-1" d="M206.62,368l4.83,1.68-4,2.42C207.16,370.61,207,369.79,206.62,368Z"/><path class="cls-1" d="M226.58,463.68c-.91-1.84-1.27-2.58-1.87-3.78l3.81-.33Z"/><path class="cls-1" d="M228.1,353.86l-3.66-2,3.18-2.37C227.8,351.15,227.9,352,228.1,353.86Z"/><path class="cls-1" d="M224.11,115.26l3.64-1.85v3.87Z"/><path class="cls-1" d="M224.11,388.06l3.65-1.77v3.88Z"/><path class="cls-1" d="M227.73,135.44l-3.44-1.8,3.44-2.22Z"/><path class="cls-1" d="M227.8,367.79v4.08l-3.51-1.82Z"/><path class="cls-1" d="M226.83,409l-2.46-2.6,4.2-2.5C227.78,406.2,227.48,407.09,226.83,409Z"/><path class="cls-1" d="M226.88,331.34c.61,1.38,1,2.17,1.85,4.14l-4.23-1.62Z"/><path class="cls-1" d="M226.81,154.14l-2.14-2.8,3.88-1.75Z"/><path class="cls-1" d="M223.79,224.59l4.39-1.88-.65,3.53Z"/><path class="cls-1" d="M229,44.73l-4.39-1.9,2.22-2.51Z"/><path class="cls-1" d="M228.72,62.72l-4.95-1.95,3-2.58C227.47,59.86,227.83,60.69,228.72,62.72Z"/><path class="cls-1" d="M224.33,442.43l4.18-1.59c-.68,1.86-1,2.7-1.48,4.06Z"/><path class="cls-1" d="M226.89,172.53,224,170l4.55-2.22C227.83,169.83,227.54,170.68,226.89,172.53Z"/><path class="cls-1" d="M223.6,261.69l3.87-2.86c.34,1.3.5,1.93.82,3.17Z"/><path class="cls-1" d="M229,99.36l-4.4-1.84L226.77,95Z"/><path class="cls-1" d="M226.75,190.83l-2.4-2.67,4.38-2.32Z"/><path class="cls-1" d="M223.72,79.17l2.9-2.66,2.23,4.28Z"/><path class="cls-1" d="M224.34,315.58l2.47-2.23c.58,1.07,1,1.87,2.17,4Z"/><path class="cls-1" d="M224.34,297.36l2.48-2.23,2.16,4Z"/><path class="cls-1" d="M226.93,426.61l-2.46-2.19,4.35-2.08C227.83,424.56,227.46,425.39,226.93,426.61Z"/><path class="cls-1" d="M228.91,281.19l-4.34-2,2.28-2.45Z"/><path class="cls-1" d="M229.9,244.25l-6.28-1.32c1.93-1,2.58-1.58,3.14-1.52S227.75,242.25,229.9,244.25Z"/><path class="cls-1" d="M228.22,6.61l-2.75.87L224.9,6l2.66-1.08Z"/><path class="cls-1" d="M227.27,22.26l1.08,3.92-4-1.77Z"/><path class="cls-1" d="M228.29,204.38l-.91,3.77-3.13-1.82Z"/><path class="cls-1" d="M243.85,113l3.23,2.5-2.92,3.17C244,115.8,244,114.92,243.85,113Z"/><path class="cls-1" d="M244.05,372c-.07-1.61-.11-2.46-.18-4.07l2.87,1.88Z"/><path class="cls-1" d="M244.17,349.59c1.26,1,1.7,1.41,2.42,2l-2.42,2.29Z"/><path class="cls-1" d="M245.4,386.64c.19.87.39,1.75.58,2.62l-1.41.36-.75-2.57Z"/><path class="cls-1" d="M244.24,136.32c-.18-2.34-.25-3.2-.38-4.79l2.71,1.61Z"/><path class="cls-1" d="M245.44,240.5l2.36,3.09c-2.33,0-3.13.23-3.51-.07s-.32-1.13-.45-1.73Z"/><path class="cls-1" d="M243.63,6.51l1.8-1.67,1,1.08-1.8,1.67Z"/><path class="cls-1" d="M247.12,188.66l-3.46.67c.22-1.16.35-1.83.59-3.08Z"/><path class="cls-1" d="M243.65,407.6c.23-1.24.36-1.91.59-3.16l2.66,2.21Z"/><path class="cls-1" d="M243.57,314.13l3.16.6-2.2,2.66C244.14,316.05,243.93,315.36,243.57,314.13Z"/><path class="cls-1" d="M247.11,78.28l-2.77,2.56c-.3-1.23-.46-1.9-.73-3Z"/><path class="cls-1" d="M244.21,149.43l2.55,2.77-3,.74C243.89,151.8,244,151.12,244.21,149.43Z"/><path class="cls-1" d="M243.57,96l3.16.59-2.2,2.66Z"/><path class="cls-1" d="M243.28,332.19l3.41.84-2,2.51Z"/><path class="cls-1" d="M244.21,167.65l2.55,2.77-3,.74Z"/><path class="cls-1" d="M243.63,281.83c.41-2.46.32-3.28.69-3.69s1.15-.06,2.62-.06Z"/><path class="cls-1" d="M247,43l-2.75,2.34c-.13-2.13-.42-3-.13-3.28s1.21-.35,1.85-.5Z"/><path class="cls-1" d="M247.77,444c-2.44-.42-3.27-.33-3.67-.7s-.06-1.15-.06-2.64C245.25,441.74,245.82,442.26,247.77,444Z"/><path class="cls-1" d="M247.77,207.58c-2.44-.42-3.28-.33-3.67-.7s-.06-1.16-.06-2.63Z"/><path class="cls-1" d="M244,26.6c0-1.71-.24-2.59.06-2.86s1.23-.28,3.23-.62Z"/><path class="cls-1" d="M243.61,421.62l3.36,3.74c-1.49,0-2.36.24-2.64-.06S244,424.07,243.61,421.62Z"/><path class="cls-1" d="M244.14,222l2.8,3.38c-1.5-.08-2.41.13-2.73-.22S244.14,224,244.14,222Z"/><path class="cls-1" d="M245.35,458.84l2.23,2.85c-2.11,0-3,.25-3.36-.07s-.13-1.23-.17-1.88Z"/><path class="cls-1" d="M243.8,300.11c.26-2.45.13-3.27.47-3.69s1.14-.14,2.62-.24Z"/><path class="cls-1" d="M246.94,261.14l-2.74,2.34c-.13-2.13-.42-3-.13-3.28s1.21-.35,1.85-.5Z"/><path class="cls-1" d="M243.68,63.68c.32-2.47.19-3.28.53-3.62s1.14-.21,2.87-.43Z"/><path class="cls-1" d="M263.53,296.17v2.25l-1.11,0-.15-2.23Z"/><path class="cls-1" d="M263.52,259.71V262h-1v-2.25Z"/><path class="cls-1" d="M262.5,25.57V23.32h1v2.25Z"/><path class="cls-1" d="M262.5,280.17v-2.24h1v2.24Z"/><path class="cls-1" d="M263.51,459.59l.39,2.17-1.2.23-.39-2.18Z"/><path class="cls-1" d="M262.26,207.25l.11-2.21h1.18c0,.75.07,1.5.1,2.25Z"/><path class="cls-1" d="M263.77,5.15c0,.74-.07,1.47-.11,2.21h-1.18c0-.75-.07-1.5-.11-2.25Z"/><path class="cls-1" d="M263.53,241.49v2.25h-1V241.5Z"/><path class="cls-1" d="M262.5,225.54v-2.25h1v2.25Z"/><path class="cls-1" d="M262.5,43.76V41.52h1v2.24Z"/><path class="cls-1" d="M263.53,441.49v2.24h-1v-2.25Z"/><path class="cls-1" d="M262.26,188.93c.16-.7.33-1.41.49-2.11l1.09.2-.26,2.11Z"/><path class="cls-1" d="M263,312.65l1.36,4.31c-1.25-.64-2-.77-2.15-1.15S262.4,314.8,263,312.65Z"/><path class="cls-1" d="M261.89,62.47c.23-1.48.32-2.08.55-3.54l1.55,2Z"/><path class="cls-1" d="M263.38,334.6,262,333.34l.67-.83,1.52,1.07Z"/><path class="cls-1" d="M264.57,405.12c-.75,1.32-1,1.82-1.67,3l-.78-2.14Z"/><path class="cls-1" d="M262.46,370.76l.36-1.82,1,.16-.14,1.79Z"/><path class="cls-1" d="M262.92,116.43c-.25-.59-.51-1.17-.77-1.75l1-.49.95,1.65Z"/><path class="cls-1" d="M261.18,423.58l3.46.32c-.91.84-1.32,1.21-1.72,1.59Z"/><path class="cls-1" d="M260.61,151.14l3.94-.37c-.73,1-1,1.68-1.35,1.77S262.33,152.11,260.61,151.14Z"/><path class="cls-1" d="M260.58,169.57l3.87-.71c-.63,1.07-.8,1.77-1.17,1.89S262.37,170.39,260.58,169.57Z"/><path class="cls-1" d="M264.14,388l-1.53,1.15-.65-.81,1.38-1.28Z"/><path class="cls-1" d="M262.81,77.83l1.29,1.4-.67.7L262,78.72Z"/><path class="cls-1" d="M262,133.77l1.29-1.37.79.75-1.29,1.37Z"/><path class="cls-1" d="M263.51,352.79l-1.57-.88.44-1,1.72.72Z"/><path class="cls-1" d="M264.54,342.7l-5.78,4.81-4.5-4.73,4.48-5.07Z"/><path class="cls-1" d="M264.6,288.12,258.86,293l-4.56-4.82,4.57-5C260.72,284.78,262.65,286.45,264.6,288.12Z"/><path class="cls-1" d="M264.54,397.21l-5.8,4.93c-1.37-1.54-2.91-3.25-4.49-5l4.51-4.8C260.7,394,262.66,395.63,264.54,397.21Z"/><path class="cls-1" d="M258.82,256.58l-4.35-4.81,4.32-4.87,6,4.83Z"/><path class="cls-1" d="M258.83,438.52l-4.53-5,4.5-4.79,5.75,4.82Z"/><path class="cls-1" d="M254.39,51.74l4.43-5,5.78,5c-1.8,1.51-3.7,3.13-5.75,4.86Z"/><path class="cls-1" d="M258.74,319.49l5.77,5-5.7,4.87-4.51-4.78C255.81,322.86,257.3,321.15,258.74,319.49Z"/><path class="cls-1" d="M258.84,192.28l5.77,4.85L258.9,202l-4.61-4.85Z"/><path class="cls-1" d="M258.69,383.93l-4.19-4.81,4.24-5,5.9,5Z"/><path class="cls-1" d="M264.61,415.35c-1.85,1.56-3.75,3.17-5.8,4.92l-4.52-4.95,4.44-4.75Z"/><path class="cls-1" d="M264.59,106.24l-5.86,4.89-4.25-4.72,4.21-5.14Z"/><path class="cls-1" d="M264.61,88.06l-5.85,4.85-4.46-4.72c1.5-1.69,3-3.38,4.47-5C260.73,84.8,262.68,86.45,264.61,88.06Z"/><path class="cls-1" d="M264.6,451.75l-5.73,4.93-4.44-4.91,4.36-4.89Z"/><path class="cls-1" d="M264.59,69.91l-5.84,4.77L254.3,70l4.52-5Z"/><path class="cls-1" d="M258.76,165.71l-4.44-5.05,4.39-4.68,5.89,4.73Z"/><path class="cls-1" d="M264.57,306.31l-5.77,4.83-4.51-4.77,4.58-5Z"/><path class="cls-1" d="M258.8,174.1l5.77,4.83-5.69,4.91-4.58-4.93Z"/><path class="cls-1" d="M254.49,124.47l4.2-4.94,6,4.89-6,4.88Z"/><path class="cls-1" d="M258.68,137.71l6,4.89-6,4.87-4.15-4.94Z"/><path class="cls-1" d="M258.86,274.85l-4.41-4.9,4.37-4.84,5.78,4.74Z"/><path class="cls-1" d="M258.82,210.48l5.8,4.87-5.77,4.91-4.38-5Z"/><path class="cls-1" d="M258.81,28.68l5.81,4.75-5.74,5-4.41-4.8Z"/><path class="cls-1" d="M258.71,356l6,4.83-6,4.9-4.2-4.82Z"/><path class="cls-1" d="M258.87,238.4l-4.41-4.85,4.34-4.87,5.76,4.85Z"/><path class="cls-1" d="M264.46,15.24l-5.55,5-4.46-4.88,4.4-4.9Z"/><path class="cls-1" d="M240.79,139.16l3.66,3.27L241,146.28l-3.26-3.87Z"/><path class="cls-1" d="M244.63,88.08l-4,3.5-2.89-3.17,3.07-3.93Z"/><path class="cls-1" d="M240.75,364.35,238,360.82l2.74-3.44,4,3.41Z"/><path class="cls-1" d="M237.89,342.77l3-3.56,3.75,3.45-4,3.57Z"/><path class="cls-1" d="M241,382.7,237.79,379l3-3.25,3.66,3.1Z"/><path class="cls-1" d="M244.72,124.41l-4,3.49L238,124.43l2.83-3.41Z"/><path class="cls-1" d="M240.8,164.18l-3.25-3.91,3.29-2.77,3.75,3.23Z"/><path class="cls-1" d="M244.6,397.16l-3.84,3.38-3-3.47,3-3.23Z"/><path class="cls-1" d="M244.63,106.3l-3.83,3.33L238,106.3l2.8-3.59Z"/><path class="cls-1" d="M240.79,412.06l3.76,3.28-3.77,3.44-3-3.49Z"/><path class="cls-1" d="M237.63,324.79l3.15-3.63,3.79,3.31L240.65,328Z"/><path class="cls-1" d="M240.79,430.28l3.76,3.28-3.74,3.4-3.06-3.45Z"/><path class="cls-1" d="M244.58,69.86l-3.94,3.52-2.94-3.21,3-3.66Z"/><path class="cls-1" d="M237.74,178.84l3-3.19,3.8,3.3-3.75,3.34Z"/><path class="cls-1" d="M240.75,302.9l3.8,3.38c-1.23,1.12-2.33,2.1-3.93,3.53l-2.81-3.4Z"/><path class="cls-1" d="M240.8,200.54l-3-3.47,3-3.2,3.7,3.24Z"/><path class="cls-1" d="M244.65,288l-4,3.54-2.73-3.34,2.67-3.39Z"/><path class="cls-1" d="M244.54,51.7,240.75,55l-3.18-2.88,3.16-3.81Z"/><path class="cls-1" d="M240.77,448.45l3.73,3.3-3.77,3.36-2.95-3.41Z"/><path class="cls-1" d="M240.75,30.39l3.83,3L240.64,37l-2.94-3.35Z"/><path class="cls-1" d="M241,230l3.29,3.62-3.57,3.11-3-3.22Z"/><path class="cls-1" d="M240.5,18.36l-3-2.78,3.27-3.45,3.75,3.15Z"/><path class="cls-1" d="M240.8,212l3.56,3.36-3.72,3.31-3-3.21Z"/><path class="cls-1" d="M244.45,269.88l-3.65,3.3-3.32-2.95,3.28-3.47Z"/><path class="cls-1" d="M240.8,248.47l3.49,3.21L241,255.26,237.5,252Z"/><path class="cls-1" d="M222,36.08V31.62l2.67,1.55Z"/><path class="cls-1" d="M223.1,162.54l-2.54-2.09,4.72-.89Z"/><path class="cls-1" d="M224.31,88.64h-2.78l0-1.27h2.78Z"/><path class="cls-1" d="M224.22,361.75l-2.77-.2.05-1.4h2.79Z"/><path class="cls-1" d="M224.35,343.33l-2.77.21-.12-1.62,2.77-.2Z"/><path class="cls-1" d="M221.51,69.08h2.79l.06,1.39-2.77.22Z"/><path class="cls-1" d="M223.35,250.34v2.78h-1.3v-2.79Z"/><path class="cls-1" d="M224.28,397.93h-2.79v-1.32h2.79Z"/><path class="cls-1" d="M224.35,106.92l-2.77.2-.11-1.62,2.77-.18Z"/><path class="cls-1" d="M221.45,378.33l2.77-.2.12,1.61-2.77.2Z"/><path class="cls-1" d="M224.28,125.08h-2.79v-1.32h2.79Z"/><path class="cls-1" d="M221.52,323.71h2.78l0,1.4-2.77.2Z"/><path class="cls-1" d="M223.34,232.11v2.78h-1.27v-2.77Z"/><path class="cls-1" d="M221.5,142h2.79v1.3h-2.79Z"/><path class="cls-1" d="M221.59,414.56l2.77.21-.06,1.4h-2.78Z"/><path class="cls-1" d="M221.75,271.27l.21-2.77,1.4.06v2.78Z"/><path class="cls-1" d="M224.27,179.76h-2.75l-.06-1.38,2.77-.2Z"/><path class="cls-1" d="M224.26,52.28h-2.74l0-1.26h2.75Z"/><path class="cls-1" d="M223.42,13.94v2.74l-1.24.09L221.81,14Z"/><path class="cls-1" d="M224.24,452.53H221.5l0-1.35,2.77-.15Z"/><path class="cls-1" d="M223.34,213.92v2.76l-1.21,0v-2.76Z"/><path class="cls-1" d="M224.24,434.31h-2.75l0-1.35,2.77-.15Z"/><path class="cls-1" d="M221.56,305.36l2.75.2,0,1.27h-2.76Z"/><path class="cls-1" d="M224.22,198h-2.7l-.06-1.37,2.76-.19Z"/><path class="cls-1" d="M222.63,286.34l2.3,2.72-4.08-.31Z"/></g></g></svg>