<svg width="1920" height="1366" viewBox="0 0 1920 1366" fill="none" xmlns="http://www.w3.org/2000/svg">
<g clip-path="url(#clip0)">
<rect width="1920" height="1365.47" rx="50" fill="url(#paint0_linear)"/>
<g opacity="0.1">
<path d="M1289.91 723.766C1223.88 758.184 1137.51 787.9 1111.64 796.513C1131.37 791.375 1188.78 784.458 1277.74 839.963C1389.51 909.687 1509.02 863.199 1509.02 863.199C1509.02 863.199 1482.46 914.12 1426.02 917.427C1369.58 920.751 1222.4 827.791 1172.61 854.351C1122.81 880.911 1099.57 847.702 1079.65 914.12C1059.74 980.52 1023.22 1162.01 1065.28 1263.83L1107.31 1365.64H868.292C868.292 1365.64 954.613 1135.45 907.021 993.8C880.379 914.472 842.977 857.02 829.027 827.824C822.026 813.201 820.918 805.68 829.983 806.049C835.137 806.267 843.581 809.037 856.121 814.511C856.121 814.511 798.574 758.066 779.772 758.066C760.954 758.066 672.417 749.218 643.661 719.334C643.661 719.334 602.716 690.558 529.674 761.39C456.633 832.223 474.343 832.223 409.057 826.683C344.795 821.226 294.45 790.049 292.889 789.075C294.752 789.831 369.808 819.833 415.688 804.555C462.172 789.059 502.009 730.398 542.953 710.486C583.898 690.558 608.239 663.997 663.57 692.774L627.108 606.797L617.12 583.242L617.103 583.209C617.103 583.209 604.915 421.632 581.682 410.568C558.448 399.487 572.835 370.727 529.674 365.187C529.674 365.187 582.79 358.539 592.744 395.071C602.716 431.587 671.326 628.589 671.326 628.589C671.326 628.589 713.362 712.685 759.846 692.774C806.33 672.845 742.135 561.081 742.135 561.081L662.462 524.548C662.462 524.548 722.225 522.332 758.738 556.649C795.25 590.949 797.466 701.621 797.466 701.621C797.466 701.621 889.31 714.902 911.453 764.715C911.453 764.715 925.839 720.442 898.174 693.882C891.257 687.233 883.989 675.683 876.988 662.1C850.452 609.969 840.862 550.849 849.558 493.002C853.67 464.695 856.205 437.01 851.69 430.479C841.735 416.091 799.682 327.563 796.359 304.31C793.051 281.074 799.682 232.386 799.682 232.386C799.682 232.386 800.79 292.138 814.069 310.959C827.348 329.779 864.968 422.74 864.968 422.74C864.968 422.74 864.968 540.044 895.958 597.597C926.947 655.15 986.694 719.334 983.386 761.39V785.734C983.386 785.734 1049.78 722.658 1045.35 701.621C1040.92 680.602 1035.39 630.789 993.341 600.921C951.289 571.037 923.623 523.44 953.505 454.823C970.309 416.226 977.662 395.491 980.885 384.729L963.46 459.256C963.46 459.256 952.397 535.612 983.386 562.172C983.47 562.239 983.537 562.306 983.621 562.374C1014.56 588.967 1055.3 637.437 1055.3 637.437L1055.19 635.305L1046.46 478.076L1048.37 482.273L1062.17 512.527L1075.23 541.152C1075.23 541.152 1137.19 461.472 1210.23 434.912C1283.26 408.352 1328.64 315.391 1328.64 315.391L1390.61 266.686L1339.7 327.563C1339.7 327.563 1324.2 399.487 1236.79 450.408C1149.36 501.312 1092.94 576.56 1089.62 623.049C1086.29 669.538 1082.97 710.486 1082.97 710.486C1082.97 710.486 1246.75 704.946 1283.26 633.005C1319.79 561.081 1349.67 557.757 1349.67 557.757L1328.64 619.725L1305.4 672.845C1305.4 672.845 1400.57 675.061 1450.36 731.506C1500.17 787.95 1624.09 804.555 1624.09 804.555L1554.39 823.358C1554.39 823.358 1487.98 801.231 1424.91 760.282C1361.84 719.334 1368.47 682.818 1289.91 723.766Z" fill="#E9E9E9"/>
<path d="M953.606 270.006C954.474 271.988 955.122 274.06 955.536 276.184C954.596 272.944 953.858 270.744 953.606 270.006Z" fill="#E9E9E9"/>
<path d="M983.386 372.653C983.386 372.653 983.386 374.97 980.885 383.331L983.386 372.653Z" fill="#E9E9E9"/>
<path opacity="0.1" d="M1325.19 571.385C1318.19 602.377 1309.95 632.312 1298.37 655.128C1261.86 727.069 1098.08 732.609 1098.08 732.609C1098.08 732.609 1098.85 723.107 1100.03 708.114C1141.61 704.689 1255.27 690.066 1284.94 631.624C1287.66 626.285 1290.18 620.543 1292.56 614.499L1325.19 571.385Z" fill="#E9E9E9"/>
<path opacity="0.1" d="M1070.41 659.561C1070.41 659.561 1029.47 610.856 998.495 584.295C991.696 578.486 986.929 570.26 983.621 560.992C983.353 560.254 983.101 559.498 982.849 558.743C983.571 559.448 984.293 560.136 985.065 560.791C1012.18 584.044 1046.94 624.27 1055.19 633.924C1056.34 635.3 1056.98 636.056 1056.98 636.056L1048.37 480.892L1062.17 511.146L1070.41 659.561Z" fill="#E9E9E9"/>
<path opacity="0.1" d="M1094.11 519.822C1093.87 547.07 1090.34 563.276 1090.34 563.276C1090.34 563.276 1152.28 483.627 1225.29 457.049C1229.61 454.319 1233.99 451.631 1238.47 449.021C1325.89 398.113 1341.38 326.177 1341.38 326.177L1392.29 265.308L1330.32 314.003C1330.32 314.003 1284.95 406.966 1211.91 433.527C1162.13 451.632 1117.49 494.413 1094.11 519.822Z" fill="#E9E9E9"/>
<path opacity="0.1" d="M998.488 783.51V807.857C998.488 807.857 1064.88 744.775 1060.46 723.748C1057.07 707.667 1053.02 674.763 1032.5 646.804C1041.75 667.933 1044.56 688.543 1047.03 700.243C1050.2 715.322 1016.96 752.024 997.895 771.585C998.563 775.522 998.762 779.525 998.488 783.51V783.51Z" fill="#E9E9E9"/>
<path opacity="0.1" d="M909.424 616.424C909.95 617.546 910.492 618.65 911.067 619.717C928.036 651.235 953.619 684.737 972.761 715.512C957.291 685.036 930.368 650.186 909.424 616.424Z" fill="#E9E9E9"/>
<path opacity="0.1" d="M1279.41 838.581C1243.01 815.873 1211.9 803.618 1186.48 797.409C1159.82 807.446 1137.87 814.929 1126.83 818.604C1146.63 813.477 1204.01 806.667 1292.84 862.086C1362.54 905.567 1435.26 903.853 1480.12 896.405C1492.52 887.043 1502.92 875.283 1510.69 861.822C1510.69 861.822 1391.18 908.304 1279.41 838.581Z" fill="#E9E9E9"/>
<path opacity="0.1" d="M963.373 569.308C954.449 547.441 952.979 521.422 963.231 490.932C963.103 479.882 963.74 468.836 965.139 457.875L982.563 383.33C979.351 394.08 972 414.818 955.179 453.448C933.885 502.351 941.832 540.565 963.373 569.308Z" fill="#E9E9E9"/>
<path opacity="0.1" d="M1452.04 730.124C1417.51 690.981 1361.16 677.923 1329.86 673.593L1320.51 694.973C1320.51 694.973 1415.67 697.187 1465.47 753.629C1493.09 784.928 1543.49 803.971 1582.93 814.73L1625.78 803.167C1625.78 803.167 1501.84 786.566 1452.04 730.124Z" fill="#E9E9E9"/>
<path opacity="0.1" d="M774.955 714.894C821.432 694.973 757.25 583.196 757.25 583.196L755.494 582.391C771.495 616.155 794.701 677.17 761.525 691.39C730.481 704.695 701.416 671.592 685.534 648.138C686.111 649.797 686.427 650.705 686.427 650.705C686.427 650.705 728.478 734.815 774.955 714.894Z" fill="#E9E9E9"/>
<path opacity="0.1" d="M926.559 786.83C926.559 786.83 940.564 743.658 914.254 717.002C920.706 739.965 913.129 763.325 913.129 763.325C896.008 724.8 837.179 708.133 811.411 702.559C812.41 715.385 812.579 723.748 812.579 723.748C812.579 723.748 904.427 737.028 926.559 786.83Z" fill="#E9E9E9"/>
<path opacity="0.1" d="M982.564 383.33C985.058 374.985 985.058 372.658 985.058 372.658L982.564 383.33Z" fill="#E9E9E9"/>
<path opacity="0.1" d="M430.132 826.883C430.355 826.811 430.581 826.745 430.803 826.671C477.28 811.178 517.118 752.522 558.062 732.601C599.006 712.681 623.351 686.12 678.681 714.894C678.681 714.894 669.001 675.268 650.243 649.234C656.456 662.825 661.478 676.93 665.251 691.39C609.921 662.615 585.576 689.176 544.632 709.097C503.688 729.018 463.85 787.673 417.373 803.167C370.896 818.661 294.541 787.673 294.541 787.673C294.541 787.673 345.444 819.767 410.734 825.301C418.202 825.934 424.575 826.492 430.132 826.883Z" fill="#E9E9E9"/>
<path opacity="0.1" d="M632.211 605.332C632.211 605.332 630.398 605.366 627.108 605.416L617.12 581.861C618.211 581.844 618.782 581.827 618.782 581.827C618.782 581.827 611.093 479.918 596.287 432.422C596.471 432.506 596.622 432.607 596.79 432.691C620.024 443.755 632.211 605.332 632.211 605.332Z" fill="#E9E9E9"/>
<path opacity="0.1" d="M891.486 1364.27C911.762 1302.1 960.524 1130.21 922.133 1015.92C905.554 966.56 890.186 935.086 877.195 915.007C886.91 934.015 897.532 959.157 908.703 992.413C956.287 1134.07 869.972 1364.27 869.972 1364.27H891.486Z" fill="#E9E9E9"/>
<path opacity="0.1" d="M871.23 836.634C857.878 830.762 843.587 827.311 829.027 826.443C822.026 811.82 820.918 804.298 829.984 804.668C832.502 805.121 835.037 805.658 837.555 806.279C855.35 821.054 871.23 836.634 871.23 836.634Z" fill="#E9E9E9"/>
<path opacity="0.1" d="M571.652 398.436C572.914 400.562 574.443 402.517 576.202 404.254C574.91 402.149 573.384 400.197 571.652 398.436V398.436Z" fill="#E9E9E9"/>
<path opacity="0.1" d="M773.849 578.769C775.559 580.387 777.162 582.115 778.646 583.942C773.799 572.288 767.812 562.211 760.419 555.265C723.901 520.957 664.145 523.17 664.145 523.17L739.085 557.521C751.927 562.312 763.728 569.526 773.849 578.769Z" fill="#E9E9E9"/>
<path opacity="0.1" d="M853.373 429.1C857.889 435.624 855.352 463.309 851.229 491.624C842.537 549.47 852.13 608.586 878.669 660.713C882.194 667.689 886.132 674.448 890.46 680.956C865.169 629.599 856.167 571.742 864.659 515.129C868.781 486.814 871.319 459.129 866.803 452.605C856.843 438.218 814.793 349.681 811.473 326.44C810.477 317.424 810.245 308.34 810.779 299.284C802.183 274.892 801.363 231 801.363 231C801.363 231 794.723 279.695 798.043 302.936C801.363 326.176 843.413 414.713 853.373 429.1Z" fill="#E9E9E9"/>
<path opacity="0.1" d="M957.189 276.102C956.745 273.915 956.072 271.781 955.18 269.735C955.18 269.735 956.03 272.123 957.189 276.102Z" fill="#E9E9E9"/>
<path d="M1112.98 1307.4C1096.47 1332.72 1100.99 1364.91 1100.99 1364.91C1100.99 1364.91 1132.27 1356.06 1148.78 1330.75C1165.28 1305.44 1160.76 1273.25 1160.76 1273.25C1160.76 1273.25 1129.48 1282.09 1112.98 1307.4Z" fill="#E9E9E9"/>
<path d="M1125.37 1311.88C1124.07 1342.07 1101.66 1365.62 1101.66 1365.62C1101.66 1365.62 1081.37 1340.22 1082.67 1310.03C1083.98 1279.85 1106.38 1256.29 1106.38 1256.29C1106.38 1256.29 1126.68 1281.69 1125.37 1311.88Z" fill="#BF9C80"/>
<path d="M841.374 1316.98C849.264 1346.15 876.289 1364.21 876.289 1364.21C876.289 1364.21 890.522 1334.99 882.632 1305.82C874.742 1276.65 847.717 1258.58 847.717 1258.58C847.717 1258.58 833.484 1287.81 841.374 1316.98Z" fill="#E9E9E9"/>
<path d="M852.968 1310.71C874.618 1331.79 877.262 1364.19 877.262 1364.19C877.262 1364.19 844.805 1362.42 823.154 1341.34C801.504 1320.26 798.86 1287.86 798.86 1287.86C798.86 1287.86 831.317 1289.63 852.968 1310.71Z" fill="#BF9C80"/>
<path d="M781.209 519.849C779.327 550.008 756.472 573.125 756.472 573.125C756.472 573.125 736.669 547.345 738.551 517.186C740.434 487.027 763.288 463.91 763.288 463.91C763.288 463.91 783.091 489.69 781.209 519.849Z" fill="#BF9C80"/>
<path d="M542.97 329.191C568.529 345.306 577.851 376.45 577.851 376.45C577.851 376.45 545.734 381.465 520.175 365.349C494.616 349.234 485.294 318.09 485.294 318.09C485.294 318.09 517.411 313.075 542.97 329.191Z" fill="#BF9C80"/>
<path d="M485.893 696.869C511.452 712.985 520.774 744.128 520.774 744.128C520.774 744.128 488.657 749.143 463.098 733.028C437.539 716.912 428.217 685.769 428.217 685.769C428.217 685.769 460.334 680.754 485.893 696.869Z" fill="#BF9C80"/>
<path d="M1005.49 382.942C997.786 412.16 970.875 430.393 970.875 430.393C970.875 430.393 956.46 401.255 964.168 372.038C971.876 342.82 998.787 324.587 998.787 324.587C998.787 324.587 1013.2 353.725 1005.49 382.942Z" fill="#BF9C80"/>
<path d="M1248.64 405.724C1239.58 434.551 1211.84 451.512 1211.84 451.512C1211.84 451.512 1198.8 421.735 1207.86 392.907C1216.92 364.08 1244.65 347.12 1244.65 347.12C1244.65 347.12 1257.69 376.897 1248.64 405.724Z" fill="#BF9C80"/>
<path d="M1511.43 726.556C1495.02 751.928 1463.77 760.888 1463.77 760.888C1463.77 760.888 1459.13 728.712 1475.54 703.34C1491.96 677.968 1523.2 669.008 1523.2 669.008C1523.2 669.008 1527.84 701.185 1511.43 726.556Z" fill="#BF9C80"/>
<path opacity="0.1" d="M566.333 387.562C576.086 388.756 587.304 391.749 595.862 398.689C595.303 396.801 594.816 395.108 594.429 393.686C584.469 357.165 531.353 363.805 531.353 363.805C555.357 366.883 561.557 377.15 566.333 387.562Z" fill="#E9E9E9"/>
</g>
</g>
<defs>
<linearGradient id="paint0_linear" x1="0" y1="0" x2="1920.13" y2="1365.29" gradientUnits="userSpaceOnUse">
<stop offset="0.369792" stop-color="#01312C"/>
<stop offset="0.513633" stop-color="#02352F"/>
<stop offset="1" stop-color="#06413B"/>
</linearGradient>
<clipPath id="clip0">
<rect width="1920" height="1365.47" rx="50" fill="white"/>
</clipPath>
</defs>
</svg>
