<svg width="1073" height="913" viewBox="0 0 1073 913" fill="none" xmlns="http://www.w3.org/2000/svg">
<g opacity="0.1">
<path d="M802.272 395.907C749.19 423.575 679.75 447.464 658.952 454.388C674.81 450.258 720.969 444.697 792.487 489.317C882.347 545.368 978.429 507.996 978.429 507.996C978.429 507.996 957.078 548.931 911.702 551.59C866.327 554.262 748.002 479.532 707.971 500.883C667.927 522.235 649.248 495.539 633.227 548.931C617.221 602.31 587.865 748.208 621.674 830.065L655.47 911.908H463.306C463.306 911.908 532.705 726.856 494.442 612.986C473.023 549.215 442.953 503.029 431.737 479.559C426.109 467.803 425.218 461.757 432.506 462.054C436.65 462.229 443.439 464.456 453.521 468.856C453.521 468.856 407.254 423.481 392.138 423.481C377.008 423.481 305.828 416.368 282.708 392.344C282.708 392.344 249.79 369.211 191.066 426.153C132.343 483.095 146.582 483.095 94.0934 478.641C42.4285 474.255 1.95226 449.191 0.697083 448.409C2.1952 449.016 62.5384 473.134 99.4245 460.853C136.797 448.395 168.824 401.238 201.742 385.231C234.66 369.211 254.23 347.859 298.715 370.992L269.4 301.876L261.37 282.941L261.356 282.914C261.356 282.914 251.558 153.023 232.879 144.129C214.199 135.221 225.766 112.101 191.066 107.647C191.066 107.647 233.769 102.303 241.773 131.671C249.79 161.026 304.95 319.395 304.95 319.395C304.95 319.395 338.746 386.999 376.118 370.992C413.49 354.972 361.879 265.125 361.879 265.125L297.824 235.757C297.824 235.757 345.872 233.975 375.227 261.562C404.582 289.136 406.364 378.105 406.364 378.105C406.364 378.105 480.203 388.781 498.005 428.825C498.005 428.825 509.572 393.235 487.329 371.883C481.769 366.539 475.925 357.253 470.297 346.334C448.963 304.426 441.252 256.9 448.243 210.397C451.55 187.642 453.588 165.386 449.957 160.136C441.954 148.569 408.145 77.4016 405.473 58.7088C402.814 40.0296 408.145 0.889526 408.145 0.889526C408.145 0.889526 409.036 48.9238 419.712 64.0535C430.387 79.1831 460.633 153.914 460.633 153.914C460.633 153.914 460.633 248.214 485.548 294.48C510.463 340.747 558.497 392.344 555.838 426.153V445.723C555.838 445.723 609.217 395.016 605.654 378.105C602.091 361.207 597.65 321.163 563.841 297.153C530.033 273.129 507.79 234.866 531.814 179.706C545.324 148.677 551.236 132.009 553.827 123.357L539.818 183.269C539.818 183.269 530.923 244.651 555.838 266.003C555.905 266.057 555.959 266.111 556.027 266.165C580.901 287.543 613.657 326.508 613.657 326.508L613.563 324.794L606.545 198.398L608.083 201.772L619.177 226.093L629.678 249.105C629.678 249.105 679.494 185.05 738.217 163.699C796.927 142.347 833.408 67.6166 833.408 67.6166L883.238 28.463L842.303 77.4016C842.303 77.4016 829.845 135.221 759.569 176.156C689.279 217.078 643.917 277.569 641.244 314.941C638.572 352.313 635.9 385.231 635.9 385.231C635.9 385.231 767.572 380.777 796.927 322.945C826.296 265.125 850.32 262.453 850.32 262.453L833.408 312.269L814.729 354.972C814.729 354.972 891.241 356.754 931.272 402.129C971.316 447.504 1070.95 460.853 1070.95 460.853L1014.91 475.969C1014.91 475.969 961.518 458.18 910.811 425.262C860.105 392.344 865.436 362.989 802.272 395.907Z" fill="#E9E9E9"/>
<path d="M531.895 32.242C532.593 33.8355 533.114 35.5012 533.447 37.2088C532.691 34.6039 532.097 32.8359 531.895 32.242Z" fill="#E9E9E9"/>
<path d="M555.838 114.76C555.838 114.76 555.838 116.622 553.827 123.344L555.838 114.76Z" fill="#E9E9E9"/>
<path opacity="0.1" d="M830.642 274.519C825.014 299.434 818.387 323.498 809.074 341.84C779.719 399.673 648.047 404.126 648.047 404.126C648.047 404.126 648.667 396.487 649.612 384.435C683.043 381.682 774.428 369.926 798.277 322.945C800.463 318.653 802.488 314.037 804.404 309.178L830.642 274.519Z" fill="#E9E9E9"/>
<path opacity="0.1" d="M625.804 345.403C625.804 345.403 592.886 306.249 567.985 284.898C562.519 280.228 558.686 273.615 556.027 266.165C555.811 265.571 555.608 264.963 555.406 264.356C555.986 264.923 556.567 265.476 557.187 266.003C578.984 284.695 606.936 317.033 613.563 324.794C614.494 325.9 615.007 326.508 615.007 326.508L608.083 201.772L619.177 226.093L625.804 345.403Z" fill="#E9E9E9"/>
<path opacity="0.1" d="M644.859 233.068C644.665 254.972 641.822 268 641.822 268C641.822 268 691.623 203.971 750.325 182.605C753.795 180.41 757.314 178.249 760.917 176.151C831.201 135.226 843.657 77.3976 843.657 77.3976L884.582 28.4656L834.76 67.6112C834.76 67.6112 798.283 142.344 739.565 163.696C699.54 178.251 663.655 212.642 644.859 233.068Z" fill="#E9E9E9"/>
<path opacity="0.1" d="M567.979 445.045V464.618C567.979 464.618 621.359 413.907 617.801 397.003C615.079 384.075 611.821 357.624 595.324 335.148C602.76 352.133 605.023 368.702 607.003 378.107C609.555 390.229 582.829 419.734 567.502 435.458C568.04 438.624 568.2 441.842 567.979 445.045Z" fill="#E9E9E9"/>
<path opacity="0.1" d="M496.374 310.726C496.797 311.628 497.233 312.515 497.695 313.373C511.338 338.71 531.906 365.643 547.295 390.382C534.857 365.882 513.212 337.867 496.374 310.726Z" fill="#E9E9E9"/>
<path opacity="0.1" d="M793.835 489.317C764.568 471.061 739.553 461.21 719.118 456.219C697.683 464.287 680.04 470.303 671.163 473.257C687.084 469.135 733.209 463.661 804.632 508.212C860.671 543.166 919.128 541.789 955.194 535.801C965.169 528.275 973.529 518.821 979.777 508C979.777 508 883.692 545.366 793.835 489.317Z" fill="#E9E9E9"/>
<path opacity="0.1" d="M539.748 272.85C532.573 255.271 531.391 234.354 539.634 209.843C539.53 200.96 540.043 192.081 541.168 183.269L555.176 123.342C552.594 131.984 546.684 148.656 533.16 179.71C516.04 219.023 522.43 249.743 539.748 272.85Z" fill="#E9E9E9"/>
<path opacity="0.1" d="M932.624 402.129C904.859 370.662 859.559 360.164 834.393 356.684L826.874 373.871C826.874 373.871 903.386 375.651 943.421 421.024C965.623 446.185 1006.15 461.494 1037.85 470.143L1072.3 460.847C1072.3 460.847 972.659 447.502 932.624 402.129Z" fill="#E9E9E9"/>
<path opacity="0.1" d="M388.265 389.885C425.631 373.871 374.03 284.014 374.03 284.014L372.619 283.367C385.483 310.509 404.14 359.559 377.468 370.99C352.509 381.687 329.142 355.075 316.373 336.22C316.836 337.554 317.091 338.284 317.091 338.284C317.091 338.284 350.899 405.899 388.265 389.885Z" fill="#E9E9E9"/>
<path opacity="0.1" d="M510.15 447.714C510.15 447.714 521.41 413.008 500.258 391.58C505.445 410.04 499.353 428.819 499.353 428.819C485.588 397.849 438.291 384.45 417.574 379.969C418.378 390.28 418.514 397.003 418.514 397.003C418.514 397.003 492.357 407.679 510.15 447.714Z" fill="#E9E9E9"/>
<path opacity="0.1" d="M555.176 123.342C557.181 116.634 557.182 114.764 557.182 114.764L555.176 123.342Z" fill="#E9E9E9"/>
<path opacity="0.1" d="M111.036 479.912C111.216 479.855 111.398 479.802 111.576 479.742C148.943 467.287 180.971 420.134 213.889 404.12C246.807 388.106 266.379 366.754 310.863 389.885C310.863 389.885 303.081 358.03 288 337.102C292.995 348.027 297.032 359.366 300.066 370.99C255.582 347.859 236.009 369.211 203.092 385.225C170.174 401.239 138.145 448.392 100.779 460.847C63.4126 473.303 2.02515 448.392 2.02515 448.392C2.02515 448.392 42.9501 474.192 95.4409 478.641C101.446 479.149 106.569 479.598 111.036 479.912Z" fill="#E9E9E9"/>
<path opacity="0.1" d="M273.503 301.809C273.503 301.809 272.046 301.836 269.4 301.876L261.37 282.941C262.247 282.927 262.706 282.914 262.706 282.914C262.706 282.914 256.524 200.99 244.62 162.808C244.769 162.875 244.89 162.956 245.025 163.024C263.705 171.918 273.503 301.809 273.503 301.809Z" fill="#E9E9E9"/>
<path opacity="0.1" d="M481.952 911.912C498.254 861.94 537.457 723.755 506.592 631.877C493.262 592.198 480.907 566.897 470.463 550.755C478.274 566.035 486.813 586.247 495.794 612.981C534.05 726.86 464.656 911.912 464.656 911.912H481.952Z" fill="#E9E9E9"/>
<path opacity="0.1" d="M465.667 487.751C454.932 483.031 443.443 480.257 431.737 479.559C426.109 467.803 425.218 461.757 432.506 462.054C434.531 462.418 436.569 462.85 438.593 463.349C452.9 475.226 465.667 487.751 465.667 487.751Z" fill="#E9E9E9"/>
<path opacity="0.1" d="M224.815 135.486C225.829 137.195 227.059 138.767 228.473 140.164C227.435 138.471 226.207 136.902 224.815 135.486Z" fill="#E9E9E9"/>
<path opacity="0.1" d="M387.375 280.455C388.75 281.756 390.039 283.145 391.232 284.614C387.335 275.245 382.522 267.144 376.578 261.56C347.219 233.98 299.176 235.76 299.176 235.76L359.427 263.374C369.751 267.226 379.239 273.025 387.375 280.455Z" fill="#E9E9E9"/>
<path opacity="0.1" d="M451.31 160.137C454.941 165.382 452.901 187.638 449.587 210.4C442.599 256.902 450.311 304.425 471.648 346.329C474.482 351.937 477.648 357.371 481.128 362.603C460.795 321.317 453.557 274.806 460.384 229.295C463.699 206.533 465.739 184.277 462.108 179.033C454.101 167.467 420.293 96.2928 417.624 77.6096C416.824 70.3614 416.637 63.0586 417.067 55.779C410.156 36.1705 409.496 0.88562 409.496 0.88562C409.496 0.88562 404.158 40.0313 406.827 58.7144C409.496 77.3974 443.303 148.572 451.31 160.137Z" fill="#E9E9E9"/>
<path opacity="0.1" d="M534.775 37.1431C534.419 35.3847 533.878 33.6689 533.16 32.0243C533.16 32.0243 533.844 33.9444 534.775 37.1431Z" fill="#E9E9E9"/>
<path d="M660.024 866.202C646.755 886.549 650.391 912.429 650.391 912.429C650.391 912.429 675.539 905.318 688.807 884.971C702.076 864.623 698.44 838.743 698.44 838.743C698.44 838.743 673.292 845.854 660.024 866.202Z" fill="#E9E9E9"/>
<path d="M669.991 869.799C668.942 894.068 650.926 913 650.926 913C650.926 913 634.611 892.584 635.66 868.315C636.709 844.046 654.724 825.114 654.724 825.114C654.724 825.114 671.039 845.53 669.991 869.799Z" fill="#BF9C80"/>
<path d="M441.664 873.899C448.008 897.347 469.735 911.87 469.735 911.87C469.735 911.87 481.178 888.374 474.834 864.926C468.491 841.477 446.764 826.954 446.764 826.954C446.764 826.954 435.321 850.45 441.664 873.899Z" fill="#E9E9E9"/>
<path d="M450.985 868.859C468.392 885.804 470.518 911.851 470.518 911.851C470.518 911.851 444.423 910.426 427.016 893.482C409.61 876.538 407.484 850.49 407.484 850.49C407.484 850.49 433.579 851.915 450.985 868.859Z" fill="#BF9C80"/>
<path d="M393.294 233.089C391.78 257.334 373.406 275.918 373.406 275.918C373.406 275.918 357.485 255.193 358.998 230.949C360.511 206.705 378.886 188.121 378.886 188.121C378.886 188.121 394.807 208.845 393.294 233.089Z" fill="#BF9C80"/>
<path d="M201.755 79.8204C222.304 92.7756 229.799 117.812 229.799 117.812C229.799 117.812 203.978 121.843 183.429 108.888C162.881 95.933 155.386 70.8969 155.386 70.8969C155.386 70.8969 181.207 66.8653 201.755 79.8204Z" fill="#BF9C80"/>
<path d="M155.867 375.395C176.416 388.35 183.911 413.386 183.911 413.386C183.911 413.386 158.09 417.418 137.541 404.463C116.992 391.508 109.497 366.472 109.497 366.472C109.497 366.472 135.319 362.44 155.867 375.395Z" fill="#BF9C80"/>
<path d="M573.612 123.031C567.416 146.519 545.779 161.177 545.779 161.177C545.779 161.177 534.19 137.753 540.387 114.265C546.584 90.7772 568.22 76.1194 568.22 76.1194C568.22 76.1194 579.809 99.5432 573.612 123.031Z" fill="#BF9C80"/>
<path d="M769.091 141.345C761.807 164.519 739.512 178.154 739.512 178.154C739.512 178.154 729.026 154.216 736.309 131.042C743.593 107.868 765.888 94.2334 765.888 94.2334C765.888 94.2334 776.374 118.171 769.091 141.345Z" fill="#BF9C80"/>
<path d="M980.372 399.261C967.178 419.657 942.057 426.86 942.057 426.86C942.057 426.86 938.326 400.994 951.52 380.597C964.713 360.201 989.835 352.998 989.835 352.998C989.835 352.998 993.566 378.864 980.372 399.261Z" fill="#BF9C80"/>
<path opacity="0.1" d="M220.539 126.745C228.38 127.705 237.399 130.111 244.279 135.69C243.83 134.172 243.439 132.811 243.127 131.668C235.12 102.309 192.416 107.647 192.416 107.647C211.714 110.121 216.699 118.375 220.539 126.745Z" fill="#E9E9E9"/>
</g>
</svg>
