<svg width="4000" height="2845" viewBox="0 0 4000 2845" fill="none" xmlns="http://www.w3.org/2000/svg">
<g clip-path="url(#clip0)">
<rect width="4000" height="2844.72" fill="url(#paint0_linear)"/>
<g opacity="0.1">
<path d="M2687.31 1507.85C2549.75 1579.55 2369.82 1641.46 2315.92 1659.4C2357.01 1648.7 2476.62 1634.29 2661.95 1749.92C2894.81 1895.18 3143.78 1798.33 3143.78 1798.33C3143.78 1798.33 3088.45 1904.42 2970.87 1911.31C2853.29 1918.23 2546.68 1724.56 2442.95 1779.9C2339.18 1835.23 2290.77 1766.05 2249.26 1904.42C2207.78 2042.75 2131.71 2420.85 2219.32 2632.99L2306.9 2845.09H1808.94C1808.94 2845.09 1988.78 2365.52 1889.63 2070.42C1834.12 1905.15 1756.2 1785.46 1727.14 1724.63C1712.55 1694.17 1710.25 1678.5 1729.13 1679.27C1739.87 1679.72 1757.46 1685.49 1783.59 1696.9C1783.59 1696.9 1663.7 1579.3 1624.53 1579.3C1585.32 1579.3 1400.87 1560.87 1340.96 1498.61C1340.96 1498.61 1255.66 1438.66 1103.49 1586.23C951.318 1733.8 988.215 1733.8 852.203 1722.26C718.324 1710.89 613.438 1645.94 610.185 1643.91C614.067 1645.48 770.434 1707.98 866.017 1676.16C962.86 1643.87 1045.85 1521.66 1131.15 1480.18C1216.45 1438.66 1267.17 1383.33 1382.44 1443.28L1306.48 1264.16L1285.67 1215.09L1285.63 1215.02C1285.63 1215.02 1260.24 878.399 1211.84 855.349C1163.43 832.265 1193.41 772.349 1103.49 760.806C1103.49 760.806 1214.15 746.955 1234.88 823.066C1255.66 899.141 1398.6 1309.56 1398.6 1309.56C1398.6 1309.56 1486.17 1484.76 1583.01 1443.28C1679.85 1401.76 1546.12 1168.92 1546.12 1168.92L1380.13 1092.81C1380.13 1092.81 1504.64 1088.19 1580.7 1159.68C1656.77 1231.14 1661.39 1461.71 1661.39 1461.71C1661.39 1461.71 1852.73 1489.38 1898.86 1593.16C1898.86 1593.16 1928.83 1500.92 1871.2 1445.59C1856.79 1431.74 1841.64 1407.67 1827.06 1379.38C1771.78 1270.77 1751.8 1147.6 1769.91 1027.09C1778.48 968.115 1783.76 910.438 1774.35 896.832C1753.61 866.857 1666.01 682.423 1659.08 633.98C1652.19 585.571 1666.01 484.138 1666.01 484.138C1666.01 484.138 1668.31 608.621 1695.98 647.831C1723.64 687.04 1802.02 880.708 1802.02 880.708C1802.02 880.708 1802.02 1125.09 1866.58 1244.99C1931.14 1364.89 2055.61 1498.61 2048.72 1586.23V1636.95C2048.72 1636.95 2187.04 1505.54 2177.81 1461.71C2168.58 1417.92 2157.07 1314.14 2069.46 1251.92C1981.85 1189.66 1924.22 1090.5 1986.47 947.549C2021.48 867.137 2036.8 823.94 2043.51 801.52L2007.21 956.783C2007.21 956.783 1984.16 1115.86 2048.72 1171.19C2048.9 1171.33 2049.04 1171.47 2049.21 1171.61C2113.67 1227.02 2198.55 1327.99 2198.55 1327.99L2198.3 1323.55L2180.12 995.992L2184.1 1004.74L2212.85 1067.76L2240.06 1127.4C2240.06 1127.4 2369.15 961.4 2521.32 906.066C2673.46 850.732 2767.99 657.064 2767.99 657.064L2897.11 555.596L2791.04 682.423C2791.04 682.423 2758.76 832.264 2576.65 938.35C2394.51 1044.4 2276.96 1201.17 2270.04 1298.02C2263.11 1394.87 2256.19 1480.18 2256.19 1480.18C2256.19 1480.18 2597.39 1468.64 2673.46 1318.76C2749.56 1168.92 2811.81 1161.99 2811.81 1161.99L2767.99 1291.09L2719.59 1401.76C2719.59 1401.76 2917.85 1406.38 3021.58 1523.97C3125.35 1641.56 3383.53 1676.16 3383.53 1676.16L3238.32 1715.33C3238.32 1715.33 3099.96 1669.23 2968.56 1583.92C2837.17 1498.61 2850.98 1422.54 2687.31 1507.85Z" fill="#E9E9E9"/>
<path d="M1986.68 562.512C1988.49 566.641 1989.84 570.958 1990.7 575.383C1988.74 568.633 1987.2 564.051 1986.68 562.512Z" fill="#E9E9E9"/>
<path d="M2048.72 776.361C2048.72 776.361 2048.72 781.188 2043.51 798.607L2048.72 776.361Z" fill="#E9E9E9"/>
<path opacity="0.1" d="M2760.82 1190.38C2746.24 1254.95 2729.06 1317.32 2704.93 1364.85C2628.86 1514.73 2287.66 1526.27 2287.66 1526.27C2287.66 1526.27 2289.27 1506.47 2291.72 1475.24C2378.35 1468.1 2615.16 1437.64 2676.95 1315.88C2682.62 1304.76 2687.87 1292.8 2692.83 1280.21L2760.82 1190.38Z" fill="#E9E9E9"/>
<path opacity="0.1" d="M2230.03 1374.08C2230.03 1374.08 2144.72 1272.62 2080.2 1217.28C2066.03 1205.18 2056.1 1188.04 2049.21 1168.73C2048.65 1167.2 2048.13 1165.62 2047.6 1164.05C2049.11 1165.52 2050.61 1166.95 2052.22 1168.31C2108.7 1216.76 2181.13 1300.56 2198.3 1320.67C2200.72 1323.54 2202.05 1325.12 2202.05 1325.12L2184.1 1001.86L2212.85 1064.89L2230.03 1374.08Z" fill="#E9E9E9"/>
<path opacity="0.1" d="M2279.4 1082.96C2278.9 1139.73 2271.53 1173.49 2271.53 1173.49C2271.53 1173.49 2400.58 1007.56 2552.7 952.185C2561.69 946.497 2570.81 940.897 2580.14 935.461C2762.27 829.401 2794.55 679.535 2794.55 679.535L2900.6 552.725L2771.49 654.173C2771.49 654.173 2676.97 847.846 2524.81 903.182C2421.1 940.901 2328.11 1030.03 2279.4 1082.96Z" fill="#E9E9E9"/>
<path opacity="0.1" d="M2080.18 1632.31V1683.04C2080.18 1683.04 2218.51 1551.62 2209.28 1507.81C2202.23 1474.31 2193.79 1405.76 2151.04 1347.51C2170.31 1391.53 2176.17 1434.46 2181.31 1458.84C2187.92 1490.25 2118.66 1566.72 2078.95 1607.47C2080.34 1615.67 2080.75 1624.01 2080.18 1632.31V1632.31Z" fill="#E9E9E9"/>
<path opacity="0.1" d="M1894.63 1284.22C1895.73 1286.55 1896.86 1288.85 1898.06 1291.08C1933.41 1356.74 1986.71 1426.54 2026.58 1490.65C1994.36 1427.16 1938.27 1354.55 1894.63 1284.22Z" fill="#E9E9E9"/>
<path opacity="0.1" d="M2665.44 1747.04C2589.61 1699.73 2524.78 1674.2 2471.83 1661.27C2416.28 1682.18 2370.57 1697.77 2347.56 1705.42C2388.82 1694.74 2508.34 1680.56 2693.42 1796.01C2838.63 1886.6 2990.11 1883.03 3083.57 1867.51C3109.42 1848.01 3131.08 1823.51 3147.27 1795.46C3147.27 1795.46 2898.29 1892.3 2665.44 1747.04Z" fill="#E9E9E9"/>
<path opacity="0.1" d="M2007.03 1186.06C1988.44 1140.5 1985.37 1086.3 2006.73 1022.77C2006.46 999.754 2007.79 976.742 2010.71 953.906L2047.01 798.603C2040.31 820.999 2025 864.205 1989.96 944.683C1945.59 1046.56 1962.15 1126.18 2007.03 1186.06Z" fill="#E9E9E9"/>
<path opacity="0.1" d="M3025.09 1521.09C2953.14 1439.54 2835.75 1412.34 2770.54 1403.32L2751.06 1447.86C2751.06 1447.86 2949.32 1452.47 3053.07 1570.06C3110.6 1635.27 3215.61 1674.94 3297.77 1697.35L3387.04 1673.26C3387.04 1673.26 3128.83 1638.68 3025.09 1521.09Z" fill="#E9E9E9"/>
<path opacity="0.1" d="M1614.49 1489.36C1711.32 1447.86 1577.6 1214.99 1577.6 1214.99L1573.95 1213.32C1607.28 1283.66 1655.63 1410.77 1586.51 1440.39C1521.84 1468.12 1461.28 1399.15 1428.2 1350.29C1429.4 1353.74 1430.06 1355.64 1430.06 1355.64C1430.06 1355.64 1517.66 1530.86 1614.49 1489.36Z" fill="#E9E9E9"/>
<path opacity="0.1" d="M1930.33 1639.23C1930.33 1639.23 1959.51 1549.29 1904.7 1493.75C1918.14 1541.59 1902.35 1590.26 1902.35 1590.26C1866.68 1510 1744.12 1475.28 1690.44 1463.66C1692.52 1490.39 1692.87 1507.81 1692.87 1507.81C1692.87 1507.81 1884.22 1535.48 1930.33 1639.23Z" fill="#E9E9E9"/>
<path opacity="0.1" d="M2047.01 798.603C2052.2 781.218 2052.2 776.372 2052.2 776.372L2047.01 798.603Z" fill="#E9E9E9"/>
<path opacity="0.1" d="M896.107 1722.67C896.572 1722.52 897.044 1722.39 897.506 1722.23C994.334 1689.95 1077.33 1567.75 1162.63 1526.25C1247.93 1484.75 1298.65 1429.42 1413.92 1489.36C1413.92 1489.36 1393.75 1406.81 1354.67 1352.57C1367.62 1380.89 1378.08 1410.27 1385.94 1440.39C1270.67 1380.45 1219.95 1435.78 1134.65 1477.29C1049.35 1518.79 966.355 1640.99 869.527 1673.26C772.7 1705.54 613.626 1640.99 613.626 1640.99C613.626 1640.99 719.675 1707.85 855.695 1719.38C871.255 1720.7 884.531 1721.86 896.107 1722.67Z" fill="#E9E9E9"/>
<path opacity="0.1" d="M1317.11 1261.11C1317.11 1261.11 1313.33 1261.18 1306.47 1261.28L1285.67 1212.21C1287.94 1212.18 1289.13 1212.14 1289.13 1212.14C1289.13 1212.14 1273.11 999.83 1242.26 900.88C1242.65 901.055 1242.96 901.264 1243.31 901.439C1291.72 924.489 1317.11 1261.11 1317.11 1261.11Z" fill="#E9E9E9"/>
<path opacity="0.1" d="M1857.26 2842.22C1899.5 2712.72 2001.09 2354.6 1921.11 2116.5C1886.57 2013.67 1854.55 1948.1 1827.49 1906.26C1847.73 1945.86 1869.86 1998.24 1893.13 2067.53C1992.26 2362.65 1812.44 2842.22 1812.44 2842.22H1857.26Z" fill="#E9E9E9"/>
<path opacity="0.1" d="M1815.06 1742.99C1787.24 1730.75 1757.47 1723.57 1727.14 1721.76C1712.55 1691.29 1710.25 1675.62 1729.13 1676.39C1734.38 1677.34 1739.66 1678.45 1744.91 1679.75C1781.98 1710.53 1815.06 1742.99 1815.06 1742.99Z" fill="#E9E9E9"/>
<path opacity="0.1" d="M1190.94 830.075C1193.57 834.504 1196.76 838.577 1200.42 842.196C1197.73 837.81 1194.55 833.744 1190.94 830.075V830.075Z" fill="#E9E9E9"/>
<path opacity="0.1" d="M1612.18 1205.77C1615.75 1209.14 1619.09 1212.74 1622.18 1216.55C1612.08 1192.27 1599.61 1171.27 1584.21 1156.8C1508.13 1085.33 1383.63 1089.94 1383.63 1089.94L1539.76 1161.5C1566.51 1171.48 1591.1 1186.51 1612.18 1205.77Z" fill="#E9E9E9"/>
<path opacity="0.1" d="M1777.86 893.959C1787.27 907.55 1781.98 965.228 1773.39 1024.22C1755.28 1144.73 1775.27 1267.89 1830.56 1376.49C1837.9 1391.02 1846.11 1405.1 1855.13 1418.66C1802.44 1311.67 1783.68 1191.13 1801.37 1073.18C1809.96 1014.2 1815.25 956.518 1805.84 942.927C1785.09 912.954 1697.48 728.503 1690.57 680.084C1688.49 661.3 1688.01 642.374 1689.12 623.509C1671.22 572.693 1669.51 481.25 1669.51 481.25C1669.51 481.25 1655.67 582.698 1662.59 631.116C1669.51 679.534 1757.11 863.986 1777.86 893.959Z" fill="#E9E9E9"/>
<path opacity="0.1" d="M1994.14 575.213C1993.22 570.656 1991.82 566.21 1989.96 561.948C1989.96 561.948 1991.73 566.924 1994.14 575.213Z" fill="#E9E9E9"/>
<path d="M2318.7 2723.76C2284.32 2776.49 2293.74 2843.56 2293.74 2843.56C2293.74 2843.56 2358.9 2825.13 2393.29 2772.4C2427.67 2719.67 2418.25 2652.6 2418.25 2652.6C2418.25 2652.6 2353.08 2671.03 2318.7 2723.76Z" fill="#E9E9E9"/>
<path d="M2344.53 2733.08C2341.81 2795.98 2295.12 2845.04 2295.12 2845.04C2295.12 2845.04 2252.85 2792.13 2255.57 2729.24C2258.28 2666.35 2304.97 2617.28 2304.97 2617.28C2304.97 2617.28 2347.24 2670.19 2344.53 2733.08Z" fill="#BF9C80"/>
<path d="M1752.86 2743.71C1769.3 2804.48 1825.6 2842.11 1825.6 2842.11C1825.6 2842.11 1855.25 2781.22 1838.82 2720.45C1822.38 2659.69 1766.08 2622.05 1766.08 2622.05C1766.08 2622.05 1736.43 2682.94 1752.86 2743.71Z" fill="#E9E9E9"/>
<path d="M1777.02 2730.65C1822.12 2774.56 1827.63 2842.06 1827.63 2842.06C1827.63 2842.06 1760.01 2838.37 1714.91 2794.46C1669.8 2750.55 1664.29 2683.04 1664.29 2683.04C1664.29 2683.04 1731.91 2686.74 1777.02 2730.65Z" fill="#BF9C80"/>
<path d="M1627.52 1083.02C1623.6 1145.85 1575.98 1194.01 1575.98 1194.01C1575.98 1194.01 1534.73 1140.3 1538.65 1077.47C1542.57 1014.64 1590.18 966.479 1590.18 966.479C1590.18 966.479 1631.44 1020.19 1627.52 1083.02Z" fill="#BF9C80"/>
<path d="M1131.19 685.814C1184.43 719.388 1203.86 784.27 1203.86 784.27C1203.86 784.27 1136.95 794.718 1083.7 761.144C1030.45 727.57 1011.03 662.688 1011.03 662.688C1011.03 662.688 1077.94 652.24 1131.19 685.814Z" fill="#BF9C80"/>
<path d="M1012.28 1451.81C1065.53 1485.39 1084.95 1550.27 1084.95 1550.27C1084.95 1550.27 1018.04 1560.72 964.789 1527.14C911.541 1493.57 892.12 1428.69 892.12 1428.69C892.12 1428.69 959.03 1418.24 1012.28 1451.81Z" fill="#BF9C80"/>
<path d="M2094.78 797.796C2078.72 858.666 2022.66 896.652 2022.66 896.652C2022.66 896.652 1992.63 835.949 2008.68 775.079C2024.74 714.208 2080.81 676.222 2080.81 676.222C2080.81 676.222 2110.84 736.926 2094.78 797.796Z" fill="#BF9C80"/>
<path d="M2601.32 845.258C2582.45 905.315 2524.68 940.65 2524.68 940.65C2524.68 940.65 2497.5 878.614 2516.38 818.557C2535.25 758.501 2593.02 723.166 2593.02 723.166C2593.02 723.166 2620.2 785.202 2601.32 845.258Z" fill="#BF9C80"/>
<path d="M3148.82 1513.66C3114.63 1566.52 3049.53 1585.18 3049.53 1585.18C3049.53 1585.18 3039.86 1518.15 3074.05 1465.29C3108.24 1412.43 3173.34 1393.77 3173.34 1393.77C3173.34 1393.77 3183.01 1460.8 3148.82 1513.66Z" fill="#BF9C80"/>
<path opacity="0.1" d="M1179.86 807.421C1200.18 809.909 1223.55 816.143 1241.38 830.602C1240.22 826.668 1239.2 823.142 1238.39 820.179C1217.65 744.093 1106.99 757.927 1106.99 757.927C1156.99 764.339 1169.91 785.73 1179.86 807.421Z" fill="#E9E9E9"/>
</g>
</g>
<defs>
<linearGradient id="paint0_linear" x1="0" y1="0" x2="4000.26" y2="2844.35" gradientUnits="userSpaceOnUse">
<stop offset="0.369792" stop-color="#01312C"/>
<stop offset="0.513633" stop-color="#02352F"/>
<stop offset="1" stop-color="#06413B"/>
</linearGradient>
<clipPath id="clip0">
<rect width="4000" height="2844.72" fill="white"/>
</clipPath>
</defs>
</svg>
