<?xml version="1.0" encoding="UTF-8"?> <svg xmlns="http://www.w3.org/2000/svg" viewBox="0 0 885.41 885.41"><defs><style>.cls-1{fill:#fff;stroke:#231f20;stroke-miterlimit:10;}.cls-2{fill:#2b4261;}</style></defs><title>Asset 2</title><g id="Layer_2" data-name="Layer 2"><g id="Layer_4" data-name="Layer 4"><circle class="cls-1" cx="442.71" cy="442.71" r="442.21"></circle><path class="cls-2" d="M505.49,469.54a90.34,90.34,0,0,1-12.06-7.77m0,0c-5.07-.7-8.16,1.85-.83,9.32a4.7,4.7,0,0,1,1.44,6.28c-12.63-5.83-12.2,1.05-7.07,9.58-18.73-4.61-2.36,10.62-10.59,12.53-10.6-3.88-8.65,8.71-.92,10.5,6.63-6.73,31.06-25.21,30.44-39.44a7.79,7.79,0,0,0-.41-1A90.34,90.34,0,0,1,493.43,461.77Zm-65.18,37.71c-8.22-1.91,8.14-17.14-10.59-12.53,5.14-8.53,5.57-15.41-7.06-9.58a4.68,4.68,0,0,1,1.44-6.28c8.51-8.69,2.95-10.71-3.44-8.72-3.28,2.71-6.61,5.38-9.85,8.13l0,0c-.62,14.23,23.81,32.71,30.45,39.44C436.9,508.19,438.86,495.6,428.25,499.48Zm-56.74-72.65a104.47,104.47,0,0,0,7.73,13.59,74.26,74.26,0,0,0,25.22-18.88c-3.16-5.47-4-13.16-.64-22.8a124.84,124.84,0,0,0,11.27,8.17,109.44,109.44,0,0,0,13.61-37.35c-14.93,1.14-31.55,3.68-44.26,10.41-7.77,7.72-6.73,21.95-4.79,31.75C385.81,424.48,378,420.7,371.51,426.83Zm159.62.23c-4.29,9.38-17.3,30.53-26.86,30.48-3.48-6.37-9.27-6-12.27-13.9-13,4.16-20.69,12.48-22.73,26.44-7.37-8.23-9.06,2-15.06-1.6a3.33,3.33,0,0,0-3.55-1.46c0-.09,0-.17,0-.26a3.59,3.59,0,0,0-2.24,1.5c-6,3.62-7.69-6.64-15.06,1.59-1.43-9.76-5.65-16.76-12.48-21.51.06-.17.15-.34.21-.52-.06.18-.15.35-.21.52a38.39,38.39,0,0,0-10.25-4.93c-3,7.89-8.79,7.53-12.27,13.91-4.45,0-9.64-4.55-14.36-10.39a122.11,122.11,0,0,0,24.75-20.33c9.41,7.71,25.87,5.79,34.63-8.39a72.92,72.92,0,0,1-21.93-7.58,127.07,127.07,0,0,0,18.26-41.72h.08a125.18,125.18,0,0,1,20,.51c17.7.93,44.06,3.19,58.4,10.79,7.77,7.72,6.73,21.94,4.79,31.75C516.83,424.7,524.64,420.93,531.13,427.06Zm-71.2,15.87c-2.12-2.7-5.3-11.37-8.72-14.73-3.33,3.5-6.42,11.86-8.5,14.51-2.85,4.67,3.21,7.45,4.81,9.8a10.77,10.77,0,0,1,4-2.68c1.42.5,2,1.39,3.65,2.91C456.72,450.39,462.78,447.61,459.93,442.93Zm38.89-44c-11.66,9.39-24.06,16.81-39.57,19.47C473.91,442.15,510.15,431.63,498.82,399Zm110.41-48.39c-3.37,8.68-10.23,10.21-16.24,16-40.48,27.77-16.74,64.05-47.09,23.16l6.54-2.71c-17.24-19-57.12-29.35-97.46-29.5-40.39.15-83.15,10.48-100.38,29.5l6.53,2.71c-30.34,40.89-6.6,4.61-47.09-23.16-6-5.79-12.86-7.32-16.23-16l1-1C361.4,371,367.13,274.34,420.5,263c3.95,13.61,17.13,26,32.29,25.44v-.1l.73.05.72-.05v.1c15.17.6,28.34-11.83,32.3-25.44,53.36,11.38,59.09,108,121.65,86.63ZM453.85,331l16.42,11.75,3.8-5.32-15.3-10.94,15.3-10.95-3.8-5.32-16.62,11.89h0L437,310.19l-3.8,5.32,15.3,10.95-15.3,10.94,3.8,5.32L453.4,331m98.71,8.92c-17.21-23.57-29.91-53.15-55.88-67.19-4.42-4.43-14.14,17.51-38.3,23.62a42.81,42.81,0,0,1-4.41-.25,43.16,43.16,0,0,1-4.42.25c-24.15-6.11-33.87-28.05-38.3-23.62-26,14-38.66,43.62-55.88,67.19,21.11-17.52,27.64-39.58,58-57.18,11.28,15.05,26.6,23.14,41.27,23.29,14.68-.15,29.81-8.06,41.09-23.11C525.65,300.49,531,322.37,552.11,339.89ZM694.45,457.47,777,416.71V399.48l-82.55-40.76V351.4L662.3,335.53v23.19l100,49.38-100,49.37v23.2l32.15-15.88ZM746,445.83l66-32.59V403l-66-32.59v-7l-21.67-10.69v17.72l76.42,37.74-76.42,37.73v17.73L746,452.86Zm35.77-6.09,55.32-27.31v-8.66l-55.32-27.32v-5.88l-18.2-9v14.87l64.09,31.65-64.09,31.64v14.87l18.2-9ZM194.43,464.79l32.15,15.88v-23.2l-100-49.37,100-49.38V335.53L194.43,351.4v7.32l-82.55,40.76v17.23l82.55,40.76Zm-51.54-11.93,21.66,10.7V445.83L88.13,408.1l76.42-37.74V352.64l-21.66,10.69v7L76.9,403v10.29l66,32.59Zm-35.77-7.23,18.19,9V439.74L61.22,408.1l64.09-31.65V361.58l-18.19,9v5.88L51.8,403.77v8.66l55.32,27.31Zm163,98.09a27,27,0,0,0-.57-5.32,25.93,25.93,0,0,0-1.84-5.61,28.54,28.54,0,0,0-3.22-5.33,21.55,21.55,0,0,0-4.73-4.49,23.66,23.66,0,0,0-6.42-3.12,26.71,26.71,0,0,0-8.2-1.17H214.62a21,21,0,0,0-6.13,1,18.57,18.57,0,0,0-6.15,3.24,17.82,17.82,0,0,0-4.73,5.87,18.87,18.87,0,0,0-1.9,8.84v55.53h13.51V537.65a4.91,4.91,0,0,1,5.5-5.46h30.45a11.93,11.93,0,0,1,4.67.86,10.27,10.27,0,0,1,3.46,2.36,11.08,11.08,0,0,1,2.25,3.64,17.84,17.84,0,0,1,1.1,4.67v6.13a12.2,12.2,0,0,1-.84,4.65,10,10,0,0,1-2.33,3.51,11.29,11.29,0,0,1-3.61,2.31,15.56,15.56,0,0,1-4.7,1.06H214.62v13.51h30.55a27,27,0,0,0,5.32-.57,26.41,26.41,0,0,0,5.61-1.82,25.76,25.76,0,0,0,5.32-3.22,21.91,21.91,0,0,0,4.5-4.75,23.18,23.18,0,0,0,3.09-6.42,27.58,27.58,0,0,0,1.14-8.26Zm23.74-30.44h-13.5v12.21h13.5Zm0,23.74h-13.5v56.16h13.5ZM356,537h-30.5a20.47,20.47,0,0,0-4,.44,21.16,21.16,0,0,0-4.26,1.38,19.5,19.5,0,0,0-4,2.42,16.36,16.36,0,0,0-3.4,3.58,17.71,17.71,0,0,0-2.36,4.86,20.28,20.28,0,0,0-.89,6.23v37.25H320V555.93a5.42,5.42,0,0,1,1.4-4,5.75,5.75,0,0,1,4.16-1.37H356Zm62.49,18.6a18.34,18.34,0,0,0-1.87-8.65,17.65,17.65,0,0,0-10.68-9,20.79,20.79,0,0,0-6.05-1H370.2v12.83h29.66a5.75,5.75,0,0,1,4.13,1.56,5.54,5.54,0,0,1,1.64,4.21v18.86a5.93,5.93,0,0,1-1.51,4.15,5.44,5.44,0,0,1-4.26,1.66H375.6a6.16,6.16,0,0,1-4.13-1.48,5.11,5.11,0,0,1-1.74-4.13,6,6,0,0,1,1.51-4.18,5.42,5.42,0,0,1,4.26-1.69h24.36V555.93H375.5a18.34,18.34,0,0,0-8.65,1.87,17.62,17.62,0,0,0-9,10.7,21.09,21.09,0,0,0-1,6.08,18.49,18.49,0,0,0,1.87,8.65,17.74,17.74,0,0,0,10.68,9,20.79,20.79,0,0,0,6.05,1h24.36a18.46,18.46,0,0,0,8.65-1.87,17.65,17.65,0,0,0,9-10.68,20.79,20.79,0,0,0,1-6ZM480.85,537H459.79l1.14-23.74-17-.66.49,24.4H426l.14,15.23L444.83,550s5.26,23.84-3,43.18c-12.86,30-30.54,23.08-32.05,28.38-6.46,22.59-38.23,31.13-38.23,31.13s54.46,13.38,78.76-14.27c23.86-27.15,10.1-88.1,10.1-88.1l20.8,1.39Zm67.22,10a18,18,0,0,0-4.65-5.77,18.27,18.27,0,0,0-6-3.19,20.79,20.79,0,0,0-6-1H507a18.46,18.46,0,0,0-8.65,1.87,17.65,17.65,0,0,0-9,10.68,20.79,20.79,0,0,0-1,6v19a18.36,18.36,0,0,0,1.87,8.65,17.76,17.76,0,0,0,10.67,9,20.91,20.91,0,0,0,6.06,1h24.36V580.29H507.08a6.06,6.06,0,0,1-4.18-1.5,5.35,5.35,0,0,1-1.69-4.21V555.72a6,6,0,0,1,1.51-4.18,5.42,5.42,0,0,1,4.26-1.69h24.36a5.91,5.91,0,0,1,4.08,1.51,5.29,5.29,0,0,1,1.68,4.15,6.08,6.08,0,0,1-1.5,4.19,5.44,5.44,0,0,1-4.26,1.68H507v12.84h24.36a18.49,18.49,0,0,0,8.65-1.87,17.87,17.87,0,0,0,5.76-4.65,18.12,18.12,0,0,0,3.2-6,20.79,20.79,0,0,0,1-6A18.46,18.46,0,0,0,548.07,547Zm65.34,32.7H576.9a5.59,5.59,0,0,1-4.11-1.4,5.52,5.52,0,0,1-1.4-4V556a5.57,5.57,0,0,1,1.38-4.15,5.5,5.5,0,0,1,4-1.35h36.62V537H576.79a20.6,20.6,0,0,0-6.23.88,18.27,18.27,0,0,0-4.86,2.34,15.82,15.82,0,0,0-3.58,3.38,19.44,19.44,0,0,0-2.42,4,21.61,21.61,0,0,0-1.38,4.24,20.28,20.28,0,0,0-.44,4v18.29a18.77,18.77,0,0,0,1.9,8.85,18,18,0,0,0,10.88,9.12,21.62,21.62,0,0,0,6.13,1h36.62Zm24.89-66.39H624.79v79.9H638.3ZM687,555.93a20.29,20.29,0,0,0-.88-6.23,18.27,18.27,0,0,0-2.34-4.86,15.6,15.6,0,0,0-3.38-3.58,19.44,19.44,0,0,0-4-2.42,21.31,21.31,0,0,0-4.23-1.38,20.46,20.46,0,0,0-4.06-.44H643.75v13.51h24.36a4.8,4.8,0,0,1,5.41,5.4v37.25H687Z"></path></g></g></svg> 