<?xml version="1.0" encoding="UTF-8"?> <svg xmlns="http://www.w3.org/2000/svg" viewBox="0 0 785.28 392.97"><defs><style>.cls-1{fill:#fff;}</style></defs><title>Asset 1</title><g id="Layer_2" data-name="Layer 2"><g id="Layer_4" data-name="Layer 4"><path class="cls-1" d="M453.7,206.58a90,90,0,0,1-12.06-7.76m0,0c-5.08-.7-8.17,1.84-.84,9.31a4.71,4.71,0,0,1,1.44,6.29c-12.63-5.84-12.2,1-7.07,9.57-18.73-4.6-2.36,10.62-10.58,12.54-10.61-3.89-8.66,8.7-.93,10.49,6.64-6.73,31.07-25.21,30.44-39.44a9.47,9.47,0,0,0-.4-1A90,90,0,0,1,441.64,198.82Zm-65.19,37.71c-8.22-1.92,8.14-17.14-10.58-12.54,5.13-8.53,5.56-15.41-7.07-9.57a4.7,4.7,0,0,1,1.44-6.29c8.52-8.69,3-10.71-3.44-8.72-3.28,2.71-6.6,5.39-9.85,8.14,0,0,0,0,0,0-.63,14.23,23.8,32.71,30.44,39.44C385.1,245.23,387.06,232.64,376.45,236.53Zm-56.74-72.65a105.34,105.34,0,0,0,7.74,13.58,74.09,74.09,0,0,0,25.21-18.88c-3.16-5.47-4-13.16-.64-22.79A126.7,126.7,0,0,0,363.29,144,109.23,109.23,0,0,0,376.9,106.6c-14.93,1.15-31.55,3.68-44.26,10.42-7.77,7.72-6.73,21.94-4.79,31.74C334,161.52,326.2,157.75,319.71,163.88Zm159.63.22c-4.3,9.39-17.3,30.53-26.87,30.49-3.48-6.38-9.27-6-12.26-13.91-13,4.16-20.69,12.48-22.73,26.44-7.38-8.23-9.06,2-15.07-1.6a3.34,3.34,0,0,0-3.54-1.46v-.26a3.61,3.61,0,0,0-2.24,1.5c-6,3.62-7.69-6.63-15.06,1.59-1.43-9.76-5.64-16.75-12.48-21.51.07-.17.15-.34.21-.52-.06.18-.14.35-.21.52a38.39,38.39,0,0,0-10.25-4.93c-3,7.89-8.79,7.53-12.27,13.91-4.45,0-9.64-4.55-14.35-10.39A122.33,122.33,0,0,0,357,163.64c9.41,7.71,25.87,5.79,34.64-8.39a72.61,72.61,0,0,1-21.94-7.58A126.86,126.86,0,0,0,387.92,106H388a125.23,125.23,0,0,1,20,.51c17.7.94,44.05,3.19,58.39,10.79,7.77,7.72,6.73,22,4.79,31.75C465,161.75,472.84,158,479.34,164.1ZM408.14,180c-2.13-2.71-5.31-11.38-8.73-14.73-3.33,3.5-6.42,11.85-8.5,14.5-2.85,4.67,3.21,7.46,4.81,9.8a10.79,10.79,0,0,1,4-2.68c1.41.5,2,1.39,3.64,2.91C404.93,187.43,411,184.65,408.14,180ZM447,136c-11.67,9.39-24.07,16.81-39.58,19.47C422.11,179.19,458.35,168.67,447,136Zm110.4-48.39c-3.37,8.69-10.23,10.21-16.23,16-40.49,27.77-16.75,64.06-47.09,23.16l6.53-2.7c-17.23-19-57.12-29.36-97.46-29.5-40.38.14-83.14,10.48-100.38,29.5l6.54,2.7c-30.35,40.9-6.61,4.61-47.09-23.16-6-5.79-12.87-7.31-16.24-16l1-1C309.61,108,315.34,11.38,368.7,0c4,13.61,17.13,26.05,32.3,25.44v-.1l.72.05.73-.05v.1c15.16.61,28.34-11.83,32.29-25.44,53.37,11.38,59.1,108,121.65,86.64ZM402.05,68l16.42,11.74,3.81-5.32L407,63.5l15.31-11-3.81-5.32L401.86,59.12h-.06L385.18,47.23l-3.8,5.32,15.31,11L381.38,74.44l3.8,5.32L401.6,68m98.72,8.91C483.1,53.36,470.4,23.79,444.44,9.74c-4.43-4.43-14.15,17.51-38.3,23.62a40.5,40.5,0,0,1-4.42-.25,40.17,40.17,0,0,1-4.41.25c-24.16-6.11-33.88-28-38.3-23.62-26,14.05-38.67,43.62-55.88,67.19,21.1-17.52,27.63-39.58,58-57.18C372.41,34.8,387.72,42.9,402.4,43c14.67-.14,29.8-8.06,41.08-23.1C473.85,37.53,479.21,59.41,500.32,76.93ZM642.65,194.51l82.55-40.76V136.52L642.65,95.77V88.44L610.5,72.57v23.2l100,49.37-100,49.37v23.2l32.15-15.88Zm51.54-11.64,66-32.58V140l-66-32.58v-7L672.53,89.68v17.73l76.41,37.73-76.41,37.73V200.6l21.66-10.7ZM730,176.78l55.32-27.31v-8.66L730,113.49v-5.88l-18.19-9v14.86l64.09,31.65-64.09,31.64v14.87l18.19-9ZM142.63,201.83l32.15,15.88v-23.2l-100-49.37,100-49.37V72.57L142.63,88.44v7.33L60.08,136.52v17.23l82.55,40.76ZM91.09,189.9l21.66,10.7V182.87L36.34,145.14l76.41-37.73V89.68L91.09,100.37v7L25.1,140v10.3l66,32.58Zm-35.77-7.23,18.19,9V176.78L9.42,145.14l64.09-31.65V98.63l-18.19,9v5.88L0,140.81v8.66l55.32,27.31Zm163,98.09a27,27,0,0,0-.57-5.32,25.39,25.39,0,0,0-1.84-5.61,27.64,27.64,0,0,0-3.22-5.32A21.36,21.36,0,0,0,208,260a23.43,23.43,0,0,0-6.41-3.11,26.77,26.77,0,0,0-8.21-1.17H162.82a21,21,0,0,0-6.13,1,18.6,18.6,0,0,0-6.15,3.25,17.84,17.84,0,0,0-4.73,5.87,18.92,18.92,0,0,0-1.89,8.83v55.53h13.5V274.69a5.49,5.49,0,0,1,1.4-4.05,5.57,5.57,0,0,1,4.11-1.41h30.44a11.93,11.93,0,0,1,4.67.86,10.27,10.27,0,0,1,3.46,2.36,11.27,11.27,0,0,1,2.26,3.64,18.24,18.24,0,0,1,1.09,4.67v6.13a12.32,12.32,0,0,1-.83,4.65,10.2,10.2,0,0,1-2.34,3.51,11.29,11.29,0,0,1-3.61,2.31,15.8,15.8,0,0,1-4.7,1.07H162.82v13.5h30.55a27,27,0,0,0,5.32-.57,26.41,26.41,0,0,0,5.61-1.82,25.83,25.83,0,0,0,5.33-3.22,21.88,21.88,0,0,0,4.49-4.75,23,23,0,0,0,3.09-6.42,27.53,27.53,0,0,0,1.14-8.26Zm23.74-30.44h-13.5v12.21h13.5Zm0,23.74h-13.5v56.16h13.5Zm62.08,0H273.68a19.8,19.8,0,0,0-4,.45,20.51,20.51,0,0,0-4.26,1.37,19.88,19.88,0,0,0-4,2.42,16.17,16.17,0,0,0-3.41,3.58,18,18,0,0,0-2.36,4.86,20.29,20.29,0,0,0-.88,6.23v37.25h13.5V293a5.36,5.36,0,0,1,1.41-4,5.68,5.68,0,0,1,4.15-1.38h30.39Zm62.49,18.6a18.36,18.36,0,0,0-1.87-8.65,17.76,17.76,0,0,0-10.67-9,20.91,20.91,0,0,0-6.06-1H318.4v12.83h29.66a5.73,5.73,0,0,1,4.13,1.56,5.51,5.51,0,0,1,1.64,4.21v18.86a5.93,5.93,0,0,1-1.51,4.15,5.44,5.44,0,0,1-4.26,1.67H323.81a6.15,6.15,0,0,1-4.13-1.49,5.11,5.11,0,0,1-1.74-4.13,6.07,6.07,0,0,1,1.5-4.18,5.45,5.45,0,0,1,4.26-1.69h24.36V293H323.7a18.49,18.49,0,0,0-8.65,1.87,17.71,17.71,0,0,0-9,10.7,21.1,21.1,0,0,0-1,6.08,18.36,18.36,0,0,0,1.87,8.65,17.87,17.87,0,0,0,4.64,5.77,18.27,18.27,0,0,0,6,3.19,20.79,20.79,0,0,0,6.05,1h24.36a18.46,18.46,0,0,0,8.65-1.87,17.65,17.65,0,0,0,9-10.68,20.79,20.79,0,0,0,1-6.05Zm62.39-18.6H408l1.14-23.74-17-.66.48,24.4h-18.4l.13,15.23L393,287.05s5.27,23.83-3,43.17c-12.87,30-30.55,23.08-32.06,28.38-6.46,22.59-38.23,31.13-38.23,31.13s54.46,13.38,78.76-14.27c23.86-27.15,10.1-88.1,10.1-88.1l20.81,1.4ZM496.27,284a17.74,17.74,0,0,0-10.68-9,20.79,20.79,0,0,0-6-1H455.18a18.46,18.46,0,0,0-8.65,1.87,17.65,17.65,0,0,0-9,10.68,20.79,20.79,0,0,0-1,6.05v19a18.36,18.36,0,0,0,1.87,8.65,17.65,17.65,0,0,0,10.68,9,20.79,20.79,0,0,0,6.05,1h24.36V317.34H455.28a6.08,6.08,0,0,1-4.18-1.51,5.38,5.38,0,0,1-1.69-4.21V292.76a6,6,0,0,1,1.51-4.18,5.42,5.42,0,0,1,4.26-1.69h24.36a6,6,0,0,1,4.08,1.51,5.32,5.32,0,0,1,1.69,4.16,6,6,0,0,1-1.51,4.18,5.42,5.42,0,0,1-4.26,1.69H455.18v12.83h24.36a18.46,18.46,0,0,0,8.65-1.87,17.65,17.65,0,0,0,9-10.68,20.79,20.79,0,0,0,1-6A18.49,18.49,0,0,0,496.27,284Zm65.35,32.7H525.1a5.61,5.61,0,0,1-4.11-1.4,5.52,5.52,0,0,1-1.4-4.05V293.08a5.6,5.6,0,0,1,1.38-4.16,5.52,5.52,0,0,1,4-1.35h36.63V274.06H525a20.33,20.33,0,0,0-6.23.89,18.4,18.4,0,0,0-4.86,2.33,16,16,0,0,0-3.58,3.38,19.68,19.68,0,0,0-2.42,4,20.64,20.64,0,0,0-1.37,4.23,19.57,19.57,0,0,0-.44,4.05v18.29a18.86,18.86,0,0,0,1.89,8.85,18,18,0,0,0,10.88,9.12,21.62,21.62,0,0,0,6.13,1h36.63Zm24.88-66.39H573v79.9H586.5ZM635.22,293a20.29,20.29,0,0,0-.88-6.23,18.27,18.27,0,0,0-2.34-4.86,15.78,15.78,0,0,0-3.37-3.58,20,20,0,0,0-4-2.42,20.64,20.64,0,0,0-4.23-1.37,19.61,19.61,0,0,0-4-.45H592v13.51h24.37a5.43,5.43,0,0,1,4,1.38,5.5,5.5,0,0,1,1.35,4v37.25h13.5Z"></path></g></g></svg> 