<svg width="936" height="1019" viewBox="0 0 936 1019" fill="none" xmlns="http://www.w3.org/2000/svg">
<path fill-rule="evenodd" clip-rule="evenodd" d="M297 631.4C297 631.4 127.409 552.599 26.3332 631.4C-74.7429 710.201 142.333 1007.59 219.667 845.279C297 682.969 297 631.4 297 631.4Z" fill="#F6F6F6"/>
<g opacity="0.37207">
<path d="M802.331 160.305L827.023 228.414" stroke="#020303"/>
<path d="M808.35 159.99L833.042 228.099" stroke="#020303"/>
<path d="M815.715 156.586L840.407 224.695" stroke="#020303"/>
<path d="M821.576 153.262L846.268 221.37" stroke="#020303"/>
<path d="M827.515 151.441L852.207 219.55" stroke="#020303"/>
<path d="M834.96 149.543L859.652 217.652" stroke="#020302"/>
<path d="M840.82 146.218L865.513 214.327" stroke="#020302"/>
<path d="M848.265 144.319L872.957 212.428" stroke="#020302"/>
<path d="M852.621 141.073L877.313 209.182" stroke="#020302"/>
<path d="M858.561 139.253L883.253 207.362" stroke="#020202"/>
<path d="M865.926 135.85L890.618 203.958" stroke="#010202"/>
<path d="M873.449 135.455L898.141 203.564" stroke="#010202"/>
<path d="M880.815 132.052L905.507 200.161" stroke="#010202"/>
<path d="M885.171 128.806L909.863 196.915" stroke="#010202"/>
<path fill-rule="evenodd" clip-rule="evenodd" d="M835.401 155.779C837.871 147.4 838.914 138.636 838.448 129.737C836.966 101.469 820.357 76.7126 795.591 64.5764C784.124 58.9522 771.439 56.3109 758.435 56.9924C717.67 59.1287 685.923 93.3709 686.379 134.461C686.384 135.453 686.418 136.507 686.481 137.702C688.702 180.092 724.515 212.663 766.478 210.464C781.482 209.678 795.61 204.524 807.458 195.746C820.803 185.864 830.657 171.817 835.401 155.779ZM794.855 66.1103C819.073 77.978 835.313 102.185 836.762 129.826C837.218 138.529 836.198 147.098 833.783 155.29C829.145 170.971 819.508 184.708 806.458 194.371C794.874 202.954 781.062 207.993 766.389 208.762C725.357 210.912 690.339 179.063 688.167 137.613C688.105 136.444 688.072 135.417 688.068 134.45C687.622 94.2667 718.665 60.7843 758.524 58.6953C771.241 58.0288 783.642 60.6111 794.855 66.1103Z" fill="#010202"/>
<path d="M621.496 177.326L620.588 175.883L811.027 54.2362L811.935 55.6794L621.496 177.326Z" fill="#010202"/>
<path fill-rule="evenodd" clip-rule="evenodd" d="M860.357 115.954L854.151 118.362L810.948 8.04225L817.154 5.6349L860.357 115.954Z" fill="#BFBFBF"/>
<path fill-rule="evenodd" clip-rule="evenodd" d="M604.092 105.818C611.986 105.404 618.05 98.6692 617.636 90.7748C617.222 82.8803 610.488 76.8162 602.594 77.2299C594.699 77.6436 588.634 84.3788 589.048 92.273C589.462 100.167 596.198 106.232 604.092 105.818ZM602.679 78.8579C609.674 78.4914 615.641 83.8648 616.008 90.8601C616.375 97.8555 611.001 103.823 604.007 104.19C597.011 104.556 591.042 99.1827 590.676 92.1877C590.309 85.1927 595.684 79.2245 602.679 78.8579Z" fill="#010202"/>
<path fill-rule="evenodd" clip-rule="evenodd" d="M648.55 133.663C648.811 138.649 644.981 142.903 639.995 143.164C635.01 143.425 630.756 139.595 630.495 134.609C630.233 129.624 634.064 125.37 639.049 125.108C644.035 124.847 648.289 128.677 648.55 133.663Z" fill="#010202"/>
<path fill-rule="evenodd" clip-rule="evenodd" d="M679.405 89.0464C679.949 99.4345 671.969 108.296 661.582 108.84C651.194 109.384 642.333 101.406 641.789 91.0177C641.244 80.6295 649.223 71.7686 659.611 71.2242C669.997 70.6799 678.86 78.6582 679.405 89.0464Z" fill="#D7D7D7"/>
<path fill-rule="evenodd" clip-rule="evenodd" d="M778.626 283.757L930.549 188.584L823.036 150.168L778.626 283.757ZM926.693 189.004L781.704 279.833L824.087 152.341L926.693 189.004Z" fill="#010202"/>
<path fill-rule="evenodd" clip-rule="evenodd" d="M835.319 156.403C830.795 172.493 821.361 186.43 808.737 196.18L822.77 151.69L835.319 156.403Z" fill="#010202"/>
</g>
<g opacity="0.402088">
<path d="M844.881 798.815L740.159 636.608" stroke="#231F20"/>
<path d="M834.334 804.842L729.612 642.635" stroke="#201C1D"/>
<path d="M826.801 810.868L722.079 648.662" stroke="#1E1A1C"/>
<path d="M816.254 815.389L711.532 653.182" stroke="#1C191A"/>
<path d="M807.214 821.415L702.492 659.209" stroke="#1B1819"/>
<path d="M798.173 827.442L693.451 665.236" stroke="#191718"/>
<path d="M789.133 834.976L684.411 672.769" stroke="#181617"/>
<path d="M780.093 842.509L675.371 680.302" stroke="#171516"/>
<path d="M771.053 847.029L666.331 684.823" stroke="#161415"/>
<path d="M762.013 853.056L657.291 690.849" stroke="#151314"/>
<path d="M751.466 859.083L646.744 696.876" stroke="#151213"/>
<path d="M742.426 865.11L637.704 702.903" stroke="#131111"/>
<path d="M733.386 871.136L628.664 708.93" stroke="#110F0F"/>
<path d="M724.345 877.163L619.624 714.956" stroke="#0F0D0D"/>
<path d="M715.305 883.19L610.584 720.983" stroke="#0C0A0A"/>
<path d="M706.265 890.723L601.543 728.516" stroke="#080607"/>
<path d="M695.719 896.75L590.997 734.543" stroke="#030303"/>
<path d="M686.678 902.777L581.956 740.57" stroke="#010202"/>
<path fill-rule="evenodd" clip-rule="evenodd" d="M816.26 675.343L792.083 765.575L730.998 731.582L816.26 675.343Z" fill="#D7D7D7"/>
<path fill-rule="evenodd" clip-rule="evenodd" d="M816.26 675.343L792.083 765.575L730.998 731.582L816.26 675.343Z" stroke="#A9A9A9"/>
<path fill-rule="evenodd" clip-rule="evenodd" d="M693.394 883.164C685.749 911.698 702.682 941.027 731.216 948.673C759.75 956.319 789.079 939.385 796.724 910.852C804.37 882.318 787.437 852.989 758.903 845.343C730.369 837.697 701.04 854.63 693.394 883.164ZM794.785 910.332C787.426 937.794 759.198 954.092 731.735 946.733C704.273 939.375 687.975 911.147 695.334 883.684C702.693 856.222 730.921 839.924 758.383 847.283C785.846 854.641 802.143 882.869 794.785 910.332Z" fill="#A5A5A5"/>
<path d="M559.785 802.572L559.824 800.566C560.073 800.571 560.533 800.589 561.181 800.628C562.254 800.694 563.468 800.798 564.8 800.948C572.532 801.82 580.393 803.741 587.362 807.088C598.08 812.237 605.098 820.071 606.955 831.047C609.212 844.39 603.657 861.652 589.018 883.313C574.769 904.397 569.665 921.674 572.276 935.507C574.392 946.72 581.498 955.329 592.318 961.69C600.591 966.555 609.956 969.55 618.627 971.115C619.383 971.251 620.057 971.361 620.639 971.447C620.986 971.498 621.223 971.529 621.341 971.543L621.106 973.535C620.969 973.519 620.714 973.485 620.348 973.432C619.744 973.343 619.048 973.23 618.27 973.089C609.387 971.486 599.811 968.423 591.301 963.42C580.021 956.787 572.539 947.724 570.304 935.879C567.583 921.457 572.835 903.675 587.355 882.19C601.732 860.916 607.133 844.133 604.976 831.381C603.24 821.12 596.67 813.786 586.493 808.896C579.757 805.66 572.103 803.79 564.576 802.942C563.279 802.795 562.099 802.694 561.059 802.631C560.439 802.593 560.006 802.576 559.785 802.572Z" fill="#A5A5A5"/>
<path fill-rule="evenodd" clip-rule="evenodd" d="M701.827 639.608L710.817 642.665L636.115 859.097L627.126 856.04L701.827 639.608Z" fill="#D7D7D7"/>
</g>
</svg>
