<svg xmlns="http://www.w3.org/2000/svg" viewBox="0 0 2853.6 1474.4"><defs><style>.cls-1,.cls-4{font-size:633.66px;font-family:Montserrat-Regular, Montserrat;}.cls-1{letter-spacing:-0.03em;}.cls-2{letter-spacing:-0.01em;}.cls-3{letter-spacing:0em;}.cls-5{letter-spacing:-0.01em;}.cls-6{letter-spacing:-0.03em;}.cls-7{font-size:903.74px;fill:#d5d5d5;font-family:Harrington;}.cls-8{font-size:200px;font-family:MSReferenceSansSerif, MS Reference Sans Serif;letter-spacing:2.2em;}.cls-9{fill:#d7d7d7;}.cls-10{fill:#fee67b;}.cls-11{fill:#eed572;}.cls-12{fill:#feeb95;}.cls-13{fill:#f9e8a2;}.cls-14{fill:#e0e0e0;}</style></defs><g id="Layer_2" data-name="Layer 2"><g id="Layer_1-2" data-name="Layer 1"><text class="cls-1" transform="translate(328 748.88) scale(0.86 1)">D<tspan class="cls-2" x="504.39" y="0">Y</tspan><tspan class="cls-3" x="897.26" y="0">ER</tspan></text><text class="cls-4" transform="translate(532.71 1251.88) scale(0.86 1)">PO<tspan class="cls-5" x="986.6" y="0">S</tspan><tspan class="cls-6" x="1369.97" y="0">T</tspan><tspan class="cls-3" x="1711.51" y="0">A</tspan></text><text class="cls-7" transform="translate(0 1238.18)">&amp;</text><text class="cls-8" transform="translate(62.09 1432.41) scale(1.02 1)">salon</text><path class="cls-9" d="M2160.82,200.14a85.59,85.59,0,0,0-77.45,70.67l-12.21,70.27a21.39,21.39,0,1,0,42.15,7.33l12.22-70.27A42.73,42.73,0,0,1,2153,245.28l-20.49,117.83a21.4,21.4,0,0,0,42.16,7.34l20.48-117.81a42.81,42.81,0,0,1,14.75,40.17l-12.22,70.27a21.4,21.4,0,0,0,42.16,7.33L2252,300.14A85.78,85.78,0,0,0,2203,207.48l31.71-182.42a21.4,21.4,0,0,0-42.16-7.33Z"/><path class="cls-10" d="M2269,330.16c-80.94-51.38-188.6-27.32-240,53.62a21.39,21.39,0,0,0,6.6,29.53l257.47,163.42a21.4,21.4,0,0,0,29.53-6.59C2374,489.19,2349.92,381.54,2269,330.16Z"/><path class="cls-11" d="M2226.81,396.59A95.29,95.29,0,0,0,2095.43,426a21.4,21.4,0,0,0,6.59,29.53l124.62,79.09a21.41,21.41,0,0,0,29.53-6.6A95.31,95.31,0,0,0,2226.81,396.59Z"/><path class="cls-11" d="M2356.58,451.91c-80.94-51.38-188.59-27.32-240,53.62a21.39,21.39,0,0,0,6.6,29.53l257.47,163.42a21.39,21.39,0,0,0,29.53-6.6C2461.58,610.94,2437.53,503.29,2356.58,451.91Z"/><path class="cls-12" d="M2090.3,325.6c28.3,25.07,62,44.18,100.76,48.3,68.66,7.3,122.22,62.73,158.16,115.13C2358.61,350.82,2211,257.67,2090.3,325.6Z"/><path class="cls-10" d="M2314.42,518.34A95.29,95.29,0,0,0,2183,547.7a21.4,21.4,0,0,0,6.6,29.53l124.61,79.09a21.4,21.4,0,0,0,29.53-6.6A95.31,95.31,0,0,0,2314.42,518.34Z"/><path class="cls-10" d="M2356.58,451.91c-74.64-47.38-172-30.61-227,35.77,20.11,20.76,60.16,43.11,139.76,45.94,85.24,3,138,38.64,167.58,75.6A174,174,0,0,0,2356.58,451.91Z"/><path class="cls-13" d="M2213.13,517.89c9.17,10.43,23.87,21,46.32,31,37.15,16.62,69.18,21.06,95.23,23C2336.9,511.22,2266.4,484.87,2213.13,517.89Z"/><path class="cls-11" d="M2237.66,570.27c9.4-137.61-137.68-230.93-258.18-163.86a21.4,21.4,0,0,0-1.06,36.75l226.43,143.72A21.41,21.41,0,0,0,2237.66,570.27Z"/><path class="cls-9" d="M2408.58,665.5,1944.07,370.68c-15-9.52-34.49,2.4-32.76,20.13l9.14,94c4.2,43.18,29.39,83.36,67.39,107.47l201.58,128c38,24.11,85.08,29.81,125.94,15.23l88.94-31.74C2421,697.75,2423.61,675.05,2408.58,665.5Z"/><path class="cls-14" d="M2408.58,665.5,1944.07,370.68c-15-9.52-34.49,2.4-32.76,20.13l7.58,77.94c43.34,47.55,93.68,89.75,137.2,91.94,101.67,5.12,140.9-40.76,216.34,75.37,21.79,33.54,41.1,65.82,58.2,93.94l73.67-26.28C2421,697.75,2423.61,675.05,2408.58,665.5Z"/><path class="cls-13" d="M2046,385.35c43.07,68.41,106.33,64.76,184.65,122.88A173.91,173.91,0,0,0,2046,385.35Z"/><path class="cls-14" d="M2446,689.27,1906.63,346.91A21.4,21.4,0,0,0,1883.7,383L2423.08,725.4A21.4,21.4,0,0,0,2446,689.27Z"/></g></g></svg>