<svg width="662" height="178" viewBox="0 0 662 178" fill="none" xmlns="http://www.w3.org/2000/svg">
<g clip-path="url(#clip0)">
<path d="M19.4747 102.017C27.2535 86.0805 42.3906 97.1318 42.3906 97.1318C47.949 87.6597 56.4268 81.9174 65.6948 82.5398C67.6271 82.6771 67.479 85.6098 65.4867 85.4682C57.7549 84.955 50.6603 89.5653 45.6808 97.3415C50.7492 95.7837 60.1529 95.0045 64.3747 108.585C50.9097 113.044 45.3753 105.884 43.3635 101.604C41.9672 104.448 40.8891 107.568 40.0914 110.985C40.0914 110.985 57.0447 109.548 57.1974 124.034C42.4947 128.767 39.5368 113.527 39.5368 113.527C39.2023 115.518 38.6921 119.812 38.6853 119.908C38.6853 119.908 50.8146 129.66 41.849 140.06C27.2615 133.836 35.865 120.045 35.865 120.045C35.8186 119.849 36.008 117.184 36.1499 116.036C36.1499 116.036 29.966 126.333 19.289 121.774C20.9359 105.728 37.227 110.214 37.227 110.214C37.9888 106.963 39.0266 103.901 40.2884 101.084C40.2884 101.084 29.5439 111.393 19.4747 102.017Z" fill="#BF9C80"/>
</g>
<g clip-path="url(#clip1)">
<path d="M141.658 137.479C66.6404 160.414 68.8513 105.287 66.4217 97.6213L49.7944 88.6845L53.8783 87.436L68.3525 95.2291C74.2768 92.6972 86.2371 83.8409 103.804 90.7399C121.403 97.6293 124.725 111.303 141.658 137.479ZM126.933 134.087C135.867 135.388 127.308 132.393 127.308 132.393C118.711 129.667 113.405 123.996 107.387 117.908C99.5509 109.973 88.2755 99.7777 76.6909 98.5145C65.1377 97.2417 70.7192 98.1951 76.1563 100.137C81.6029 102.109 91.043 110.515 96.697 116.2C104.555 124.094 111.969 131.883 126.933 134.087Z" fill="#BF9C80"/>
</g>
<g clip-path="url(#clip2)">
<path d="M63.3559 20.0417C70.9633 27.1401 62.1659 33.7376 62.1659 33.7376C66.5271 38.4812 68.2948 44.223 66.3557 49.3164C65.9472 50.377 64.3271 49.7908 64.7483 48.6973C66.3626 44.4471 64.9928 39.6756 61.4839 35.5477C61.4885 38.6587 60.3125 44.0687 51.9684 44.1078C51.7762 35.7879 56.7431 33.9109 59.4899 33.5163C58.1337 32.245 56.5681 31.1049 54.7875 30.0711C54.7875 30.0711 52.6855 39.8299 44.5316 37.4307C44.398 28.3692 53.4564 29.3239 53.4564 29.3239C52.3968 28.7947 50.075 27.7718 50.0223 27.7515C50.0223 27.7515 42.4699 32.8843 38.1725 26.0698C44.1668 18.9525 50.429 26.1455 50.429 26.1455C50.5471 26.1532 52.0096 26.7165 52.6293 26.993C52.6293 26.993 47.9131 21.7571 52.3023 16.5483C61.0233 20.2251 55.7112 28.5961 55.7112 28.5961C57.4046 29.5812 58.9449 30.6889 60.3092 31.8801C60.3092 31.8801 56.3677 24.083 63.3559 20.0417Z" fill="#BF9C80"/>
</g>
<g clip-path="url(#clip3)">
<path d="M22.4993 82.5144C22.4993 36.4883 53.0509 47.1854 57.769 47.1372L65.6356 39.3409V41.8465L58.78 48.6309C59.1844 52.3893 62.1018 60.6193 55.2174 69.2925C48.3329 77.9851 40.0908 77.5032 22.4993 82.5144ZM26.9285 74.8338C24.6658 79.6233 27.8143 75.3349 27.8143 75.3349C30.8185 70.979 34.9106 68.9745 39.359 66.6424C45.1555 63.6067 52.8102 59.0292 55.5062 52.7459C58.2023 46.4819 56.7098 49.45 54.6878 52.1677C52.6465 54.8853 46.3109 58.7401 42.1513 60.9373C36.3742 63.9922 30.7318 66.8158 26.9285 74.8338Z" fill="#BF9C80"/>
</g>
<path d="M62.6352 84.0005H660.639" stroke="#BF9C80" stroke-width="3"/>
<path d="M76.4688 67V19.336H99.2928C104.189 19.336 108.077 20.68 110.957 23.368C113.885 26.056 115.349 29.68 115.349 34.24C115.349 37.312 114.749 39.76 113.549 41.584C112.397 43.408 110.933 44.8 109.157 45.76C107.381 46.672 105.605 47.344 103.829 47.776L116.357 67H109.949L98.4288 48.712H81.8688V67H76.4688ZM81.8688 43.6H98.3568C100.085 43.6 101.837 43.336 103.613 42.808C105.389 42.28 106.877 41.344 108.077 40C109.325 38.608 109.949 36.688 109.949 34.24C109.949 31.216 108.917 28.84 106.853 27.112C104.789 25.336 102.053 24.448 98.6448 24.448H81.8688V43.6ZM138.621 67.576C134.973 67.576 131.781 66.76 129.045 65.128C126.309 63.448 124.173 61.192 122.637 58.36C121.149 55.528 120.405 52.408 120.405 49C120.405 45.544 121.125 42.424 122.565 39.64C124.005 36.808 126.069 34.576 128.757 32.944C131.445 31.264 134.613 30.424 138.261 30.424C141.957 30.424 145.125 31.264 147.765 32.944C150.453 34.576 152.517 36.808 153.957 39.64C155.397 42.424 156.117 45.544 156.117 49V51.16H125.949C126.237 53.272 126.909 55.216 127.965 56.992C129.069 58.72 130.533 60.112 132.357 61.168C134.181 62.176 136.293 62.68 138.693 62.68C141.237 62.68 143.373 62.128 145.101 61.024C146.829 59.872 148.173 58.408 149.133 56.632H155.037C153.789 59.848 151.797 62.488 149.061 64.552C146.373 66.568 142.893 67.576 138.621 67.576ZM126.021 46.12H150.501C150.021 43.048 148.725 40.48 146.613 38.416C144.501 36.352 141.717 35.32 138.261 35.32C134.805 35.32 132.021 36.352 129.909 38.416C127.845 40.48 126.549 43.048 126.021 46.12ZM181.003 67.576C178.027 67.576 175.459 67 173.299 65.848C171.187 64.696 169.459 63.16 168.115 61.24V67H162.715V16.6H168.115V36.832C169.459 34.864 171.187 33.304 173.299 32.152C175.459 31 178.027 30.424 181.003 30.424C184.507 30.424 187.555 31.264 190.147 32.944C192.787 34.576 194.827 36.808 196.267 39.64C197.707 42.424 198.427 45.544 198.427 49C198.427 52.408 197.707 55.528 196.267 58.36C194.827 61.192 192.787 63.448 190.147 65.128C187.555 66.76 184.507 67.576 181.003 67.576ZM180.283 62.68C182.971 62.68 185.251 62.056 187.123 60.808C189.043 59.56 190.507 57.904 191.515 55.84C192.523 53.728 193.027 51.448 193.027 49C193.027 46.504 192.523 44.224 191.515 42.16C190.507 40.096 189.043 38.44 187.123 37.192C185.251 35.944 182.971 35.32 180.283 35.32C177.643 35.32 175.387 35.944 173.515 37.192C171.643 38.44 170.227 40.096 169.267 42.16C168.307 44.224 167.827 46.504 167.827 49C167.827 51.448 168.307 53.728 169.267 55.84C170.227 57.904 171.643 59.56 173.515 60.808C175.387 62.056 177.643 62.68 180.283 62.68ZM221.16 67.576C217.512 67.576 214.344 66.76 211.656 65.128C208.968 63.448 206.904 61.192 205.464 58.36C204.024 55.528 203.304 52.408 203.304 49C203.304 45.544 204.024 42.424 205.464 39.64C206.904 36.808 208.968 34.576 211.656 32.944C214.344 31.264 217.512 30.424 221.16 30.424C224.856 30.424 228.024 31.264 230.664 32.944C233.352 34.576 235.416 36.808 236.856 39.64C238.296 42.424 239.016 45.544 239.016 49C239.016 52.408 238.296 55.528 236.856 58.36C235.416 61.192 233.352 63.448 230.664 65.128C228.024 66.76 224.856 67.576 221.16 67.576ZM221.16 62.68C223.848 62.68 226.104 62.056 227.928 60.808C229.8 59.56 231.216 57.904 232.176 55.84C233.136 53.728 233.616 51.448 233.616 49C233.616 46.504 233.136 44.224 232.176 42.16C231.216 40.096 229.8 38.44 227.928 37.192C226.104 35.944 223.848 35.32 221.16 35.32C218.52 35.32 216.264 35.944 214.392 37.192C212.52 38.44 211.104 40.096 210.144 42.16C209.184 44.224 208.704 46.504 208.704 49C208.704 51.448 209.184 53.728 210.144 55.84C211.104 57.904 212.52 59.56 214.392 60.808C216.264 62.056 218.52 62.68 221.16 62.68ZM246.176 67V31H251.576V39.856C251.768 39.232 252.128 38.416 252.656 37.408C253.232 36.352 254.048 35.296 255.104 34.24C256.16 33.184 257.48 32.296 259.064 31.576C260.696 30.808 262.616 30.424 264.824 30.424H265.184V35.824H264.536C261.848 35.824 259.52 36.568 257.552 38.056C255.632 39.496 254.144 41.392 253.088 43.744C252.08 46.048 251.576 48.52 251.576 51.16V67H246.176ZM270.997 67V31H276.397V36.616C277.693 34.888 279.277 33.424 281.149 32.224C283.021 31.024 285.421 30.424 288.349 30.424C290.845 30.424 293.173 31.024 295.333 32.224C297.541 33.376 299.317 35.128 300.661 37.48C302.053 39.784 302.749 42.64 302.749 46.048V67H297.349V46.192C297.349 42.928 296.413 40.312 294.541 38.344C292.669 36.328 290.245 35.32 287.269 35.32C285.253 35.32 283.429 35.776 281.797 36.688C280.165 37.6 278.845 38.896 277.837 40.576C276.877 42.208 276.397 44.104 276.397 46.264V67H270.997ZM322.642 67L342.874 19.336H349.642L369.874 67H363.898L358.066 53.176H334.45L328.618 67H322.642ZM336.538 48.208H355.978L346.258 24.952L336.538 48.208ZM390.762 67.576C387.114 67.576 383.922 66.76 381.186 65.128C378.45 63.448 376.314 61.192 374.778 58.36C373.29 55.528 372.546 52.408 372.546 49C372.546 45.544 373.266 42.424 374.706 39.64C376.146 36.808 378.21 34.576 380.898 32.944C383.586 31.264 386.754 30.424 390.402 30.424C394.098 30.424 397.266 31.264 399.906 32.944C402.594 34.576 404.658 36.808 406.098 39.64C407.538 42.424 408.258 45.544 408.258 49V51.16H378.09C378.378 53.272 379.05 55.216 380.106 56.992C381.21 58.72 382.674 60.112 384.498 61.168C386.322 62.176 388.434 62.68 390.834 62.68C393.378 62.68 395.514 62.128 397.242 61.024C398.97 59.872 400.314 58.408 401.274 56.632H407.178C405.93 59.848 403.938 62.488 401.202 64.552C398.514 66.568 395.034 67.576 390.762 67.576ZM378.162 46.12H402.642C402.162 43.048 400.866 40.48 398.754 38.416C396.642 36.352 393.858 35.32 390.402 35.32C386.946 35.32 384.162 36.352 382.05 38.416C379.986 40.48 378.69 43.048 378.162 46.12ZM427.96 67.576C424.648 67.576 421.84 67.024 419.536 65.92C417.28 64.816 415.552 63.376 414.352 61.6C413.152 59.776 412.48 57.808 412.336 55.696H417.952C418.096 56.896 418.504 58.072 419.176 59.224C419.896 60.328 420.976 61.24 422.416 61.96C423.856 62.632 425.728 62.968 428.032 62.968C428.752 62.968 429.64 62.896 430.696 62.752C431.752 62.608 432.76 62.344 433.72 61.96C434.728 61.576 435.568 61 436.24 60.232C436.912 59.464 437.248 58.48 437.248 57.28C437.248 55.792 436.672 54.64 435.52 53.824C434.368 53.008 432.88 52.384 431.056 51.952C429.232 51.472 427.288 51.016 425.224 50.584C423.208 50.152 421.288 49.6 419.464 48.928C417.64 48.208 416.152 47.224 415 45.976C413.848 44.68 413.272 42.928 413.272 40.72C413.272 37.456 414.448 34.936 416.8 33.16C419.2 31.336 422.728 30.424 427.384 30.424C430.552 30.424 433.12 30.928 435.088 31.936C437.104 32.896 438.616 34.144 439.624 35.68C440.68 37.216 441.304 38.872 441.496 40.648H436.024C435.832 39.112 435.064 37.792 433.72 36.688C432.424 35.584 430.264 35.032 427.24 35.032C421.528 35.032 418.672 36.76 418.672 40.216C418.672 41.656 419.248 42.76 420.4 43.528C421.552 44.296 423.04 44.92 424.864 45.4C426.688 45.832 428.608 46.264 430.624 46.696C432.688 47.08 434.632 47.632 436.456 48.352C438.28 49.072 439.768 50.104 440.92 51.448C442.072 52.744 442.648 54.52 442.648 56.776C442.648 60.28 441.304 62.968 438.616 64.84C435.976 66.664 432.424 67.576 427.96 67.576ZM453.478 67V35.752H446.134V31H453.478V18.112H458.878V31H467.158V35.752H458.878V67H453.478ZM473.075 67V16.6H478.475V36.616C479.771 34.888 481.355 33.424 483.227 32.224C485.099 31.024 487.499 30.424 490.427 30.424C492.923 30.424 495.251 31.024 497.411 32.224C499.619 33.376 501.395 35.128 502.739 37.48C504.131 39.784 504.827 42.64 504.827 46.048V67H499.427V46.192C499.427 42.928 498.491 40.312 496.619 38.344C494.747 36.328 492.323 35.32 489.347 35.32C487.331 35.32 485.507 35.776 483.875 36.688C482.243 37.6 480.923 38.896 479.915 40.576C478.955 42.208 478.475 44.104 478.475 46.264V67H473.075ZM529.84 67.576C526.192 67.576 523 66.76 520.264 65.128C517.528 63.448 515.392 61.192 513.856 58.36C512.368 55.528 511.624 52.408 511.624 49C511.624 45.544 512.344 42.424 513.784 39.64C515.224 36.808 517.288 34.576 519.976 32.944C522.664 31.264 525.832 30.424 529.48 30.424C533.176 30.424 536.344 31.264 538.984 32.944C541.672 34.576 543.736 36.808 545.176 39.64C546.616 42.424 547.336 45.544 547.336 49V51.16H517.168C517.456 53.272 518.128 55.216 519.184 56.992C520.288 58.72 521.752 60.112 523.576 61.168C525.4 62.176 527.512 62.68 529.912 62.68C532.456 62.68 534.592 62.128 536.32 61.024C538.048 59.872 539.392 58.408 540.352 56.632H546.256C545.008 59.848 543.016 62.488 540.28 64.552C537.592 66.568 534.112 67.576 529.84 67.576ZM517.24 46.12H541.72C541.24 43.048 539.944 40.48 537.832 38.416C535.72 36.352 532.936 35.32 529.48 35.32C526.024 35.32 523.24 36.352 521.128 38.416C519.064 40.48 517.768 43.048 517.24 46.12ZM557.822 67V35.752H550.478V31H557.822V18.112H563.222V31H571.502V35.752H563.222V67H557.822ZM577.202 24.952V17.896H583.034V24.952H577.202ZM577.418 67V31H582.818V67H577.418ZM607.664 67.576C604.064 67.576 600.944 66.76 598.304 65.128C595.664 63.448 593.6 61.192 592.112 58.36C590.672 55.528 589.952 52.408 589.952 49C589.952 45.544 590.672 42.424 592.112 39.64C593.6 36.808 595.664 34.576 598.304 32.944C600.944 31.264 604.064 30.424 607.664 30.424C611.936 30.424 615.56 31.528 618.536 33.736C621.56 35.944 623.6 38.8 624.656 42.304H618.824C618.008 40.24 616.688 38.56 614.864 37.264C613.088 35.968 610.928 35.32 608.384 35.32C605.744 35.32 603.44 35.944 601.472 37.192C599.504 38.44 597.992 40.096 596.936 42.16C595.88 44.224 595.352 46.504 595.352 49C595.352 51.448 595.88 53.728 596.936 55.84C597.992 57.904 599.504 59.56 601.472 60.808C603.44 62.056 605.744 62.68 608.384 62.68C610.928 62.68 613.088 62.032 614.864 60.736C616.688 59.44 618.008 57.76 618.824 55.696H624.656C623.6 59.2 621.56 62.056 618.536 64.264C615.56 66.472 611.936 67.576 607.664 67.576ZM644.452 67.576C641.14 67.576 638.332 67.024 636.028 65.92C633.772 64.816 632.044 63.376 630.844 61.6C629.644 59.776 628.972 57.808 628.828 55.696H634.444C634.588 56.896 634.996 58.072 635.668 59.224C636.388 60.328 637.468 61.24 638.908 61.96C640.348 62.632 642.22 62.968 644.524 62.968C645.244 62.968 646.132 62.896 647.188 62.752C648.244 62.608 649.252 62.344 650.212 61.96C651.22 61.576 652.06 61 652.732 60.232C653.404 59.464 653.74 58.48 653.74 57.28C653.74 55.792 653.164 54.64 652.012 53.824C650.86 53.008 649.372 52.384 647.548 51.952C645.724 51.472 643.78 51.016 641.716 50.584C639.7 50.152 637.78 49.6 635.956 48.928C634.132 48.208 632.644 47.224 631.492 45.976C630.34 44.68 629.764 42.928 629.764 40.72C629.764 37.456 630.94 34.936 633.292 33.16C635.692 31.336 639.22 30.424 643.876 30.424C647.044 30.424 649.612 30.928 651.58 31.936C653.596 32.896 655.108 34.144 656.116 35.68C657.172 37.216 657.796 38.872 657.988 40.648H652.516C652.324 39.112 651.556 37.792 650.212 36.688C648.916 35.584 646.756 35.032 643.732 35.032C638.02 35.032 635.164 36.76 635.164 40.216C635.164 41.656 635.74 42.76 636.892 43.528C638.044 44.296 639.532 44.92 641.356 45.4C643.18 45.832 645.1 46.264 647.116 46.696C649.18 47.08 651.124 47.632 652.948 48.352C654.772 49.072 656.26 50.104 657.412 51.448C658.564 52.744 659.14 54.52 659.14 56.776C659.14 60.28 657.796 62.968 655.108 64.84C652.468 66.664 648.916 67.576 644.452 67.576Z" fill="white"/>
<defs>
<clipPath id="clip0">
<rect width="46.2032" height="61.6042" fill="white" transform="translate(62.8947 142.822) rotate(-175.935)"/>
</clipPath>
<clipPath id="clip1">
<rect width="73.584" height="84.0233" fill="white" transform="translate(143.194 142.501) rotate(163)"/>
</clipPath>
<clipPath id="clip2">
<rect width="27.1085" height="36.1447" fill="white" transform="translate(33.0126 37.4044) rotate(-68.9353)"/>
</clipPath>
<clipPath id="clip3">
<rect width="43.1736" height="49.2985" fill="white" transform="translate(19.4182 82.5144) rotate(-90)"/>
</clipPath>
</defs>
</svg>
