<svg width="1319" height="1308" viewBox="0 0 1319 1308" fill="none" xmlns="http://www.w3.org/2000/svg">
<rect width="1319" height="1308" rx="654" fill="white"/>
<path d="M235.292 807.903C289.406 696.978 394.707 773.899 394.707 773.899C433.374 707.97 492.35 668 556.823 672.332C570.265 673.288 569.235 693.701 555.375 692.716C501.589 689.143 452.235 721.233 417.595 775.359C452.853 764.517 518.271 759.092 547.64 853.621C453.971 884.656 415.47 834.819 401.475 805.027C391.762 824.822 384.261 846.538 378.712 870.324C378.712 870.324 496.648 860.323 497.711 961.151C395.431 994.095 374.854 888.018 374.854 888.018C372.528 901.876 368.979 931.764 368.931 932.432C368.931 932.432 453.309 1000.31 390.94 1072.7C289.461 1029.38 349.311 933.386 349.311 933.386C348.989 932.022 350.306 913.472 351.293 905.482C351.293 905.482 308.275 977.154 234 945.421C245.457 833.73 358.786 864.961 358.786 864.961C364.085 842.333 371.306 821.017 380.083 801.406C380.083 801.406 305.338 873.167 235.292 807.903Z" fill="#BF9C80"/>
<path d="M1085.26 1054.73C563.402 1214.37 578.782 830.665 561.881 777.306L446.213 715.102L474.623 706.412L575.313 760.656C616.526 743.032 699.727 681.388 821.934 729.409C944.36 777.362 967.47 872.539 1085.26 1054.73ZM982.83 1031.12C1044.98 1040.18 985.438 1019.33 985.438 1019.33C925.633 1000.37 888.722 960.893 846.858 918.511C792.346 863.281 713.908 792.316 633.319 783.524C552.949 774.664 591.777 781.3 629.6 794.814C667.49 808.546 733.159 867.053 772.492 906.622C827.157 961.568 878.732 1015.78 982.83 1031.12Z" fill="#BF9C80"/>
<path d="M540.554 237.315C593.475 286.724 532.276 332.645 532.276 332.645C562.614 365.663 574.912 405.629 561.422 441.081C558.58 448.464 547.31 444.383 550.24 436.772C561.47 407.189 551.941 373.977 527.531 345.245C527.563 366.899 519.383 404.555 461.337 404.827C459.999 346.917 494.552 333.852 513.66 331.105C504.226 322.256 493.334 314.321 480.948 307.125C480.948 307.125 466.326 375.051 409.602 358.351C408.673 295.279 471.688 301.924 471.688 301.924C464.317 298.241 448.165 291.121 447.798 290.979C447.798 290.979 395.26 326.706 365.366 279.274C407.065 229.734 450.628 279.801 450.628 279.801C451.449 279.854 461.623 283.775 465.934 285.7C465.934 285.7 433.126 249.256 463.659 213C524.327 238.592 487.373 296.858 487.373 296.858C499.154 303.715 509.869 311.425 519.359 319.716C519.359 319.716 491.94 265.445 540.554 237.315Z" fill="#BF9C80"/>
<path d="M256.334 672.156C256.334 351.792 468.867 426.248 501.687 425.913L556.412 371.647V389.087L508.721 436.31C511.534 462.47 531.829 519.755 483.937 580.125C436.046 640.629 378.709 637.275 256.334 672.156ZM287.145 618.694C271.404 652.032 293.308 622.182 293.308 622.182C314.206 591.863 342.673 577.911 373.619 561.678C413.941 540.549 467.192 508.687 485.947 464.952C504.702 421.352 494.32 442.012 480.253 460.928C466.053 479.843 421.979 506.675 393.043 521.968C352.854 543.232 313.603 562.886 287.145 618.694Z" fill="#BF9C80"/>
<path d="M937.8 665.8C940.2 669.4 941.4 672.8 941.4 676C941.4 680.4 939.6 684.2 936 687.4C932.8 690.2 929 691.6 924.6 691.6C917.8 691.6 912.4 688.4 908.4 682L827.4 552.4C815.8 534 803.8 521.4 791.4 514.6C779.4 507.8 762.6 504.4 741 504.4H658.8V671.8C658.8 677.8 657 682.6 653.4 686.2C650.2 689.4 645.8 691 640.2 691C634.6 691 630 689.4 626.4 686.2C623.2 682.6 621.6 677.8 621.6 671.8V283.6C621.6 278.4 623.4 274 627 270.4C631 266.8 635.8 265 641.4 265H790.8C835.2 265 869.4 275.2 893.4 295.6C917.4 315.6 929.4 345 929.4 383.8C929.4 417.8 919.2 444.8 898.8 464.8C878.4 484.8 849.6 496.4 812.4 499.6C822 502.8 830.8 508.2 838.8 515.8C846.8 523 855 533.2 863.4 546.4L937.8 665.8ZM788.4 472.6C858 472.6 892.8 442.8 892.8 383.2C892.8 354 884.2 332.4 867 318.4C849.8 304 823.6 296.8 788.4 296.8H658.2V472.6H788.4Z" fill="black"/>
</svg>
