<svg width="662" height="153" viewBox="0 0 662 153" fill="none" xmlns="http://www.w3.org/2000/svg">
<path d="M509.458 97V85.084H514.804C515.74 85.084 516.478 85.246 517.018 85.57C517.57 85.894 517.966 86.302 518.206 86.794C518.446 87.274 518.566 87.754 518.566 88.234C518.566 89.002 518.404 89.596 518.08 90.016C517.756 90.424 517.384 90.724 516.964 90.916C517.3 91.024 517.636 91.198 517.972 91.438C518.32 91.666 518.608 91.978 518.836 92.374C519.064 92.77 519.178 93.268 519.178 93.868C519.178 94.756 518.836 95.5 518.152 96.1C517.48 96.7 516.466 97 515.11 97H509.458ZM510.808 90.412H514.804C515.224 90.412 515.614 90.34 515.974 90.196C516.346 90.052 516.646 89.83 516.874 89.53C517.102 89.218 517.216 88.822 517.216 88.342C517.216 88.006 517.138 87.688 516.982 87.388C516.838 87.088 516.598 86.842 516.262 86.65C515.938 86.458 515.5 86.362 514.948 86.362H510.808V90.412ZM510.808 95.722H515.254C516.07 95.722 516.7 95.554 517.144 95.218C517.6 94.87 517.828 94.384 517.828 93.76C517.828 93.196 517.612 92.704 517.18 92.284C516.748 91.852 516.058 91.636 515.11 91.636H510.808V95.722ZM522.024 100.564L523.662 96.874L519.99 88H521.484L524.382 95.38L527.334 88H528.81L523.482 100.564H522.024ZM537.108 97V86.362H532.95V85.084H542.616V86.362H538.458V97H537.108ZM546.085 97.144C545.209 97.144 544.441 96.94 543.781 96.532C543.133 96.112 542.629 95.548 542.269 94.84C541.909 94.132 541.729 93.352 541.729 92.5C541.729 91.636 541.909 90.856 542.269 90.16C542.629 89.452 543.133 88.894 543.781 88.486C544.441 88.066 545.209 87.856 546.085 87.856C546.829 87.856 547.465 88 547.993 88.288C548.533 88.576 548.971 88.966 549.307 89.458V88H550.657V97H549.307V95.56C548.971 96.04 548.533 96.424 547.993 96.712C547.465 97 546.829 97.144 546.085 97.144ZM546.265 95.92C546.937 95.92 547.501 95.764 547.957 95.452C548.425 95.14 548.779 94.726 549.019 94.21C549.259 93.682 549.379 93.112 549.379 92.5C549.379 91.876 549.259 91.306 549.019 90.79C548.779 90.274 548.425 89.86 547.957 89.548C547.501 89.236 546.937 89.08 546.265 89.08C545.605 89.08 545.035 89.236 544.555 89.548C544.075 89.86 543.709 90.274 543.457 90.79C543.205 91.306 543.079 91.876 543.079 92.5C543.079 93.112 543.205 93.682 543.457 94.21C543.709 94.726 544.075 95.14 544.555 95.452C545.035 95.764 545.605 95.92 546.265 95.92ZM552.993 97V84.4H554.343V97H552.993ZM557.62 100.564L559.258 96.874L555.586 88H557.08L559.978 95.38L562.93 88H564.406L559.078 100.564H557.62ZM569.451 97.144C568.539 97.144 567.741 96.94 567.057 96.532C566.373 96.112 565.839 95.548 565.455 94.84C565.083 94.132 564.897 93.352 564.897 92.5C564.897 91.636 565.077 90.856 565.437 90.16C565.797 89.452 566.313 88.894 566.985 88.486C567.657 88.066 568.449 87.856 569.361 87.856C570.285 87.856 571.077 88.066 571.737 88.486C572.409 88.894 572.925 89.452 573.285 90.16C573.645 90.856 573.825 91.636 573.825 92.5V93.04H566.283C566.355 93.568 566.523 94.054 566.787 94.498C567.063 94.93 567.429 95.278 567.885 95.542C568.341 95.794 568.869 95.92 569.469 95.92C570.105 95.92 570.639 95.782 571.071 95.506C571.503 95.218 571.839 94.852 572.079 94.408H573.555C573.243 95.212 572.745 95.872 572.061 96.388C571.389 96.892 570.519 97.144 569.451 97.144ZM566.301 91.78H572.421C572.301 91.012 571.977 90.37 571.449 89.854C570.921 89.338 570.225 89.08 569.361 89.08C568.497 89.08 567.801 89.338 567.273 89.854C566.757 90.37 566.433 91.012 566.301 91.78ZM575.475 97V88H576.825V90.214C576.873 90.058 576.963 89.854 577.095 89.602C577.239 89.338 577.443 89.074 577.707 88.81C577.971 88.546 578.301 88.324 578.697 88.144C579.105 87.952 579.585 87.856 580.137 87.856H580.227V89.206H580.065C579.393 89.206 578.811 89.392 578.319 89.764C577.839 90.124 577.467 90.598 577.203 91.186C576.951 91.762 576.825 92.38 576.825 93.04V97H575.475ZM584.396 97L589.454 85.084H591.146L596.204 97H594.71L593.252 93.544H587.348L585.89 97H584.396ZM587.87 92.302H592.73L590.3 86.488L587.87 92.302ZM602.002 97.144C601.258 97.144 600.616 97 600.076 96.712C599.548 96.424 599.116 96.04 598.78 95.56V97H597.43V84.4H598.78V89.458C599.116 88.966 599.548 88.576 600.076 88.288C600.616 88 601.258 87.856 602.002 87.856C602.878 87.856 603.64 88.066 604.288 88.486C604.948 88.894 605.458 89.452 605.818 90.16C606.178 90.856 606.358 91.636 606.358 92.5C606.358 93.352 606.178 94.132 605.818 94.84C605.458 95.548 604.948 96.112 604.288 96.532C603.64 96.94 602.878 97.144 602.002 97.144ZM601.822 95.92C602.494 95.92 603.064 95.764 603.532 95.452C604.012 95.14 604.378 94.726 604.63 94.21C604.882 93.682 605.008 93.112 605.008 92.5C605.008 91.876 604.882 91.306 604.63 90.79C604.378 90.274 604.012 89.86 603.532 89.548C603.064 89.236 602.494 89.08 601.822 89.08C601.162 89.08 600.598 89.236 600.13 89.548C599.662 89.86 599.308 90.274 599.068 90.79C598.828 91.306 598.708 91.876 598.708 92.5C598.708 93.112 598.828 93.682 599.068 94.21C599.308 94.726 599.662 95.14 600.13 95.452C600.598 95.764 601.162 95.92 601.822 95.92ZM608.135 97V88H609.485V90.214C609.533 90.058 609.623 89.854 609.755 89.602C609.899 89.338 610.103 89.074 610.367 88.81C610.631 88.546 610.961 88.324 611.357 88.144C611.765 87.952 612.245 87.856 612.797 87.856H612.887V89.206H612.725C612.053 89.206 611.471 89.392 610.979 89.764C610.499 90.124 610.127 90.598 609.863 91.186C609.611 91.762 609.485 92.38 609.485 93.04V97H608.135ZM617.91 97.144C617.034 97.144 616.266 96.94 615.606 96.532C614.958 96.112 614.454 95.548 614.094 94.84C613.734 94.132 613.554 93.352 613.554 92.5C613.554 91.636 613.734 90.856 614.094 90.16C614.454 89.452 614.958 88.894 615.606 88.486C616.266 88.066 617.034 87.856 617.91 87.856C618.654 87.856 619.29 88 619.818 88.288C620.358 88.576 620.796 88.966 621.132 89.458V88H622.482V97H621.132V95.56C620.796 96.04 620.358 96.424 619.818 96.712C619.29 97 618.654 97.144 617.91 97.144ZM618.09 95.92C618.762 95.92 619.326 95.764 619.782 95.452C620.25 95.14 620.604 94.726 620.844 94.21C621.084 93.682 621.204 93.112 621.204 92.5C621.204 91.876 621.084 91.306 620.844 90.79C620.604 90.274 620.25 89.86 619.782 89.548C619.326 89.236 618.762 89.08 618.09 89.08C617.43 89.08 616.86 89.236 616.38 89.548C615.9 89.86 615.534 90.274 615.282 90.79C615.03 91.306 614.904 91.876 614.904 92.5C614.904 93.112 615.03 93.682 615.282 94.21C615.534 94.726 615.9 95.14 616.38 95.452C616.86 95.764 617.43 95.92 618.09 95.92ZM624.817 97V88H626.167V89.368C626.371 89.008 626.695 88.666 627.139 88.342C627.583 88.018 628.171 87.856 628.903 87.856C629.503 87.856 630.055 88.018 630.559 88.342C631.075 88.654 631.477 89.098 631.765 89.674C631.885 89.47 632.071 89.224 632.323 88.936C632.587 88.648 632.929 88.396 633.349 88.18C633.769 87.964 634.273 87.856 634.861 87.856C635.437 87.856 635.977 88.006 636.481 88.306C636.985 88.606 637.393 89.038 637.705 89.602C638.029 90.154 638.191 90.808 638.191 91.564V97H636.841V91.6C636.841 90.844 636.625 90.238 636.193 89.782C635.773 89.314 635.245 89.08 634.609 89.08C633.949 89.08 633.379 89.302 632.899 89.746C632.419 90.19 632.179 90.814 632.179 91.618V97H630.829V91.6C630.829 90.844 630.613 90.238 630.181 89.782C629.761 89.314 629.233 89.08 628.597 89.08C627.937 89.08 627.367 89.302 626.887 89.746C626.407 90.19 626.167 90.814 626.167 91.618V97H624.817Z" fill="#043934"/>
<line x1="470.686" y1="74.0646" x2="506.041" y2="109.42" stroke="#BF9C80" stroke-width="3"/>
<line x1="505.044" y1="109" x2="642.044" y2="109" stroke="#BF9C80" stroke-width="3"/>
<g clip-path="url(#clip0)">
<path d="M19.4746 90.017C27.2535 74.0805 42.3905 85.1318 42.3905 85.1318C47.9489 75.6597 56.4268 69.9174 65.6947 70.5398C67.627 70.6771 67.4789 73.6098 65.4866 73.4682C57.7549 72.955 50.6602 77.5653 45.6807 85.3415C50.7491 83.7837 60.1528 83.0045 64.3746 96.5852C50.9097 101.044 45.3752 93.8841 43.3634 89.6037C41.9672 92.4477 40.889 95.5676 40.0913 98.9849C40.0913 98.9849 57.0446 97.548 57.1973 112.034C42.4946 116.767 39.5367 101.527 39.5367 101.527C39.2023 103.518 38.6921 107.812 38.6852 107.908C38.6852 107.908 50.8146 117.66 41.849 128.06C27.2615 121.836 35.8649 108.045 35.8649 108.045C35.8186 107.849 36.0079 105.184 36.1498 104.036C36.1498 104.036 29.9659 114.333 19.2889 109.774C20.9359 93.7275 37.2269 98.2144 37.2269 98.2144C37.9887 94.9635 39.0266 91.901 40.2883 89.0836C40.2883 89.0836 29.5438 99.3934 19.4746 90.017V90.017Z" fill="#BF9C80"/>
</g>
<g clip-path="url(#clip1)">
<path d="M141.658 125.479C66.6403 148.414 68.8512 93.2872 66.4216 85.6213L49.7944 76.6845L53.8783 75.436L68.3525 83.2291C74.2768 80.6972 86.237 71.8409 103.804 78.7399C121.403 85.6293 124.725 99.3033 141.658 125.479ZM126.933 122.087C135.867 123.388 127.308 120.393 127.308 120.393C118.711 117.667 113.405 111.996 107.387 105.908C99.5509 97.9731 88.2755 87.7777 76.6908 86.5145C65.1376 85.2417 70.7192 86.1951 76.1562 88.1366C81.6029 90.1094 91.0429 98.515 96.697 104.2C104.555 112.094 111.969 119.883 126.933 122.087V122.087Z" fill="#BF9C80"/>
</g>
<g clip-path="url(#clip2)">
<path d="M63.3558 8.04169C70.9632 15.1401 62.1658 21.7376 62.1658 21.7376C66.527 26.4812 68.2946 32.223 66.3556 37.3164C65.947 38.377 64.3269 37.7908 64.7481 36.6973C66.3624 32.4471 64.9927 27.6756 61.4837 23.5477C61.4883 26.6587 60.3124 32.0687 51.9682 32.1078C51.776 23.7879 56.743 21.9109 59.4898 21.5163C58.1335 20.245 56.5679 19.1049 54.7874 18.0711C54.7874 18.0711 52.6854 27.8299 44.5315 25.4307C44.3979 16.3692 53.4563 17.3239 53.4563 17.3239C52.3967 16.7947 50.0748 15.7718 50.0221 15.7515C50.0221 15.7515 42.4697 20.8843 38.1724 14.0698C44.1667 6.95248 50.4289 14.1455 50.4289 14.1455C50.547 14.1532 52.0094 14.7165 52.6292 14.993C52.6292 14.993 47.913 9.75711 52.3022 4.54833C61.0232 8.22507 55.711 16.5961 55.711 16.5961C57.4045 17.5812 58.9447 18.6889 60.3091 19.8801C60.3091 19.8801 56.3675 12.083 63.3558 8.04169V8.04169Z" fill="#BF9C80"/>
</g>
<g clip-path="url(#clip3)">
<path d="M22.499 70.5144C22.499 24.4883 53.0506 35.1854 57.7687 35.1372L65.6352 27.3409V29.8465L58.7797 36.6309C59.1841 40.3893 62.1015 48.6193 55.2171 57.2925C48.3326 65.9851 40.0905 65.5032 22.499 70.5144ZM26.9282 62.8338C24.6655 67.6233 27.814 63.3349 27.814 63.3349C30.8182 58.979 34.9103 56.9745 39.3587 54.6424C45.1552 51.6067 52.8099 47.0292 55.5059 40.7459C58.2019 34.4819 56.7095 37.45 54.6875 40.1677C52.6462 42.8853 46.3106 46.7401 42.151 48.9373C36.3739 51.9922 30.7315 54.8158 26.9282 62.8338V62.8338Z" fill="#BF9C80"/>
</g>
<path d="M62.6353 72.0005H660.639" stroke="#BF9C80" stroke-width="3"/>
<path d="M76.4687 55V7.336H99.2927C104.189 7.336 108.077 8.68 110.957 11.368C113.885 14.056 115.349 17.68 115.349 22.24C115.349 25.312 114.749 27.76 113.549 29.584C112.397 31.408 110.933 32.8 109.157 33.76C107.381 34.672 105.605 35.344 103.829 35.776L116.357 55H109.949L98.4287 36.712H81.8687V55H76.4687ZM81.8687 31.6H98.3567C100.085 31.6 101.837 31.336 103.613 30.808C105.389 30.28 106.877 29.344 108.077 28C109.325 26.608 109.949 24.688 109.949 22.24C109.949 19.216 108.917 16.84 106.853 15.112C104.789 13.336 102.053 12.448 98.6447 12.448H81.8687V31.6ZM138.621 55.576C134.973 55.576 131.781 54.76 129.045 53.128C126.309 51.448 124.173 49.192 122.637 46.36C121.149 43.528 120.405 40.408 120.405 37C120.405 33.544 121.125 30.424 122.565 27.64C124.005 24.808 126.069 22.576 128.757 20.944C131.445 19.264 134.613 18.424 138.261 18.424C141.957 18.424 145.125 19.264 147.765 20.944C150.453 22.576 152.517 24.808 153.957 27.64C155.397 30.424 156.117 33.544 156.117 37V39.16H125.949C126.237 41.272 126.909 43.216 127.965 44.992C129.069 46.72 130.533 48.112 132.357 49.168C134.181 50.176 136.293 50.68 138.693 50.68C141.237 50.68 143.373 50.128 145.101 49.024C146.829 47.872 148.173 46.408 149.133 44.632H155.037C153.789 47.848 151.797 50.488 149.061 52.552C146.373 54.568 142.893 55.576 138.621 55.576ZM126.021 34.12H150.501C150.021 31.048 148.725 28.48 146.613 26.416C144.501 24.352 141.717 23.32 138.261 23.32C134.805 23.32 132.021 24.352 129.909 26.416C127.845 28.48 126.549 31.048 126.021 34.12ZM181.003 55.576C178.027 55.576 175.459 55 173.299 53.848C171.187 52.696 169.459 51.16 168.115 49.24V55H162.715V4.6H168.115V24.832C169.459 22.864 171.187 21.304 173.299 20.152C175.459 19 178.027 18.424 181.003 18.424C184.507 18.424 187.555 19.264 190.147 20.944C192.787 22.576 194.827 24.808 196.267 27.64C197.707 30.424 198.427 33.544 198.427 37C198.427 40.408 197.707 43.528 196.267 46.36C194.827 49.192 192.787 51.448 190.147 53.128C187.555 54.76 184.507 55.576 181.003 55.576ZM180.283 50.68C182.971 50.68 185.251 50.056 187.123 48.808C189.043 47.56 190.507 45.904 191.515 43.84C192.523 41.728 193.027 39.448 193.027 37C193.027 34.504 192.523 32.224 191.515 30.16C190.507 28.096 189.043 26.44 187.123 25.192C185.251 23.944 182.971 23.32 180.283 23.32C177.643 23.32 175.387 23.944 173.515 25.192C171.643 26.44 170.227 28.096 169.267 30.16C168.307 32.224 167.827 34.504 167.827 37C167.827 39.448 168.307 41.728 169.267 43.84C170.227 45.904 171.643 47.56 173.515 48.808C175.387 50.056 177.643 50.68 180.283 50.68ZM221.159 55.576C217.511 55.576 214.343 54.76 211.655 53.128C208.967 51.448 206.903 49.192 205.463 46.36C204.023 43.528 203.303 40.408 203.303 37C203.303 33.544 204.023 30.424 205.463 27.64C206.903 24.808 208.967 22.576 211.655 20.944C214.343 19.264 217.511 18.424 221.159 18.424C224.855 18.424 228.023 19.264 230.663 20.944C233.351 22.576 235.415 24.808 236.855 27.64C238.295 30.424 239.015 33.544 239.015 37C239.015 40.408 238.295 43.528 236.855 46.36C235.415 49.192 233.351 51.448 230.663 53.128C228.023 54.76 224.855 55.576 221.159 55.576ZM221.159 50.68C223.847 50.68 226.103 50.056 227.927 48.808C229.799 47.56 231.215 45.904 232.175 43.84C233.135 41.728 233.615 39.448 233.615 37C233.615 34.504 233.135 32.224 232.175 30.16C231.215 28.096 229.799 26.44 227.927 25.192C226.103 23.944 223.847 23.32 221.159 23.32C218.519 23.32 216.263 23.944 214.391 25.192C212.519 26.44 211.103 28.096 210.143 30.16C209.183 32.224 208.703 34.504 208.703 37C208.703 39.448 209.183 41.728 210.143 43.84C211.103 45.904 212.519 47.56 214.391 48.808C216.263 50.056 218.519 50.68 221.159 50.68ZM246.176 55V19H251.576V27.856C251.768 27.232 252.128 26.416 252.656 25.408C253.232 24.352 254.048 23.296 255.104 22.24C256.16 21.184 257.48 20.296 259.064 19.576C260.696 18.808 262.616 18.424 264.824 18.424H265.184V23.824H264.536C261.848 23.824 259.52 24.568 257.552 26.056C255.632 27.496 254.144 29.392 253.088 31.744C252.08 34.048 251.576 36.52 251.576 39.16V55H246.176ZM270.996 55V19H276.396V24.616C277.692 22.888 279.276 21.424 281.148 20.224C283.02 19.024 285.42 18.424 288.348 18.424C290.844 18.424 293.172 19.024 295.332 20.224C297.54 21.376 299.316 23.128 300.66 25.48C302.052 27.784 302.748 30.64 302.748 34.048V55H297.348V34.192C297.348 30.928 296.412 28.312 294.54 26.344C292.668 24.328 290.244 23.32 287.268 23.32C285.252 23.32 283.428 23.776 281.796 24.688C280.164 25.6 278.844 26.896 277.836 28.576C276.876 30.208 276.396 32.104 276.396 34.264V55H270.996ZM322.642 55L342.874 7.336H349.642L369.874 55H363.898L358.066 41.176H334.45L328.618 55H322.642ZM336.538 36.208H355.978L346.258 12.952L336.538 36.208ZM390.762 55.576C387.114 55.576 383.922 54.76 381.186 53.128C378.45 51.448 376.314 49.192 374.778 46.36C373.29 43.528 372.546 40.408 372.546 37C372.546 33.544 373.266 30.424 374.706 27.64C376.146 24.808 378.21 22.576 380.898 20.944C383.586 19.264 386.754 18.424 390.402 18.424C394.098 18.424 397.266 19.264 399.906 20.944C402.594 22.576 404.658 24.808 406.098 27.64C407.538 30.424 408.258 33.544 408.258 37V39.16H378.09C378.378 41.272 379.05 43.216 380.106 44.992C381.21 46.72 382.674 48.112 384.498 49.168C386.322 50.176 388.434 50.68 390.834 50.68C393.378 50.68 395.514 50.128 397.242 49.024C398.97 47.872 400.314 46.408 401.274 44.632H407.178C405.93 47.848 403.938 50.488 401.202 52.552C398.514 54.568 395.034 55.576 390.762 55.576ZM378.162 34.12H402.642C402.162 31.048 400.866 28.48 398.754 26.416C396.642 24.352 393.858 23.32 390.402 23.32C386.946 23.32 384.162 24.352 382.05 26.416C379.986 28.48 378.69 31.048 378.162 34.12ZM427.96 55.576C424.648 55.576 421.84 55.024 419.536 53.92C417.28 52.816 415.552 51.376 414.352 49.6C413.152 47.776 412.48 45.808 412.336 43.696H417.952C418.096 44.896 418.504 46.072 419.176 47.224C419.896 48.328 420.976 49.24 422.416 49.96C423.856 50.632 425.728 50.968 428.032 50.968C428.752 50.968 429.64 50.896 430.696 50.752C431.752 50.608 432.76 50.344 433.72 49.96C434.728 49.576 435.568 49 436.24 48.232C436.912 47.464 437.248 46.48 437.248 45.28C437.248 43.792 436.672 42.64 435.52 41.824C434.368 41.008 432.88 40.384 431.056 39.952C429.232 39.472 427.288 39.016 425.224 38.584C423.208 38.152 421.288 37.6 419.464 36.928C417.64 36.208 416.152 35.224 415 33.976C413.848 32.68 413.272 30.928 413.272 28.72C413.272 25.456 414.448 22.936 416.8 21.16C419.2 19.336 422.728 18.424 427.384 18.424C430.552 18.424 433.12 18.928 435.088 19.936C437.104 20.896 438.616 22.144 439.624 23.68C440.68 25.216 441.304 26.872 441.496 28.648H436.024C435.832 27.112 435.064 25.792 433.72 24.688C432.424 23.584 430.264 23.032 427.24 23.032C421.528 23.032 418.672 24.76 418.672 28.216C418.672 29.656 419.248 30.76 420.4 31.528C421.552 32.296 423.04 32.92 424.864 33.4C426.688 33.832 428.608 34.264 430.624 34.696C432.688 35.08 434.632 35.632 436.456 36.352C438.28 37.072 439.768 38.104 440.92 39.448C442.072 40.744 442.648 42.52 442.648 44.776C442.648 48.28 441.304 50.968 438.616 52.84C435.976 54.664 432.424 55.576 427.96 55.576ZM453.478 55V23.752H446.134V19H453.478V6.112H458.878V19H467.158V23.752H458.878V55H453.478ZM473.075 55V4.6H478.475V24.616C479.771 22.888 481.355 21.424 483.227 20.224C485.099 19.024 487.499 18.424 490.427 18.424C492.923 18.424 495.251 19.024 497.411 20.224C499.619 21.376 501.395 23.128 502.739 25.48C504.131 27.784 504.827 30.64 504.827 34.048V55H499.427V34.192C499.427 30.928 498.491 28.312 496.619 26.344C494.747 24.328 492.323 23.32 489.347 23.32C487.331 23.32 485.507 23.776 483.875 24.688C482.243 25.6 480.923 26.896 479.915 28.576C478.955 30.208 478.475 32.104 478.475 34.264V55H473.075ZM529.84 55.576C526.192 55.576 523 54.76 520.264 53.128C517.528 51.448 515.392 49.192 513.856 46.36C512.368 43.528 511.624 40.408 511.624 37C511.624 33.544 512.344 30.424 513.784 27.64C515.224 24.808 517.288 22.576 519.976 20.944C522.664 19.264 525.832 18.424 529.48 18.424C533.176 18.424 536.344 19.264 538.984 20.944C541.672 22.576 543.736 24.808 545.176 27.64C546.616 30.424 547.336 33.544 547.336 37V39.16H517.168C517.456 41.272 518.128 43.216 519.184 44.992C520.288 46.72 521.752 48.112 523.576 49.168C525.4 50.176 527.512 50.68 529.912 50.68C532.456 50.68 534.592 50.128 536.32 49.024C538.048 47.872 539.392 46.408 540.352 44.632H546.256C545.008 47.848 543.016 50.488 540.28 52.552C537.592 54.568 534.112 55.576 529.84 55.576ZM517.24 34.12H541.72C541.24 31.048 539.944 28.48 537.832 26.416C535.72 24.352 532.936 23.32 529.48 23.32C526.024 23.32 523.24 24.352 521.128 26.416C519.064 28.48 517.768 31.048 517.24 34.12ZM557.822 55V23.752H550.478V19H557.822V6.112H563.222V19H571.502V23.752H563.222V55H557.822ZM577.202 12.952V5.896H583.034V12.952H577.202ZM577.418 55V19H582.818V55H577.418ZM607.664 55.576C604.064 55.576 600.944 54.76 598.304 53.128C595.664 51.448 593.6 49.192 592.112 46.36C590.672 43.528 589.952 40.408 589.952 37C589.952 33.544 590.672 30.424 592.112 27.64C593.6 24.808 595.664 22.576 598.304 20.944C600.944 19.264 604.064 18.424 607.664 18.424C611.936 18.424 615.56 19.528 618.536 21.736C621.56 23.944 623.6 26.8 624.656 30.304H618.824C618.008 28.24 616.688 26.56 614.864 25.264C613.088 23.968 610.928 23.32 608.384 23.32C605.744 23.32 603.44 23.944 601.472 25.192C599.504 26.44 597.992 28.096 596.936 30.16C595.88 32.224 595.352 34.504 595.352 37C595.352 39.448 595.88 41.728 596.936 43.84C597.992 45.904 599.504 47.56 601.472 48.808C603.44 50.056 605.744 50.68 608.384 50.68C610.928 50.68 613.088 50.032 614.864 48.736C616.688 47.44 618.008 45.76 618.824 43.696H624.656C623.6 47.2 621.56 50.056 618.536 52.264C615.56 54.472 611.936 55.576 607.664 55.576ZM644.452 55.576C641.14 55.576 638.332 55.024 636.028 53.92C633.772 52.816 632.044 51.376 630.844 49.6C629.644 47.776 628.972 45.808 628.828 43.696H634.444C634.588 44.896 634.996 46.072 635.668 47.224C636.388 48.328 637.468 49.24 638.908 49.96C640.348 50.632 642.22 50.968 644.524 50.968C645.244 50.968 646.132 50.896 647.188 50.752C648.244 50.608 649.252 50.344 650.212 49.96C651.22 49.576 652.06 49 652.732 48.232C653.404 47.464 653.74 46.48 653.74 45.28C653.74 43.792 653.164 42.64 652.012 41.824C650.86 41.008 649.372 40.384 647.548 39.952C645.724 39.472 643.78 39.016 641.716 38.584C639.7 38.152 637.78 37.6 635.956 36.928C634.132 36.208 632.644 35.224 631.492 33.976C630.34 32.68 629.764 30.928 629.764 28.72C629.764 25.456 630.94 22.936 633.292 21.16C635.692 19.336 639.22 18.424 643.876 18.424C647.044 18.424 649.612 18.928 651.58 19.936C653.596 20.896 655.108 22.144 656.116 23.68C657.172 25.216 657.796 26.872 657.988 28.648H652.516C652.324 27.112 651.556 25.792 650.212 24.688C648.916 23.584 646.756 23.032 643.732 23.032C638.02 23.032 635.164 24.76 635.164 28.216C635.164 29.656 635.74 30.76 636.892 31.528C638.044 32.296 639.532 32.92 641.356 33.4C643.18 33.832 645.1 34.264 647.116 34.696C649.18 35.08 651.124 35.632 652.948 36.352C654.772 37.072 656.26 38.104 657.412 39.448C658.564 40.744 659.14 42.52 659.14 44.776C659.14 48.28 657.796 50.968 655.108 52.84C652.468 54.664 648.916 55.576 644.452 55.576Z" fill="#043934"/>
<defs>
<clipPath id="clip0">
<rect width="46.2032" height="61.6042" fill="white" transform="translate(62.8945 130.822) rotate(-175.935)"/>
</clipPath>
<clipPath id="clip1">
<rect width="73.584" height="84.0233" fill="white" transform="translate(143.194 130.501) rotate(163)"/>
</clipPath>
<clipPath id="clip2">
<rect width="27.1085" height="36.1447" fill="white" transform="translate(33.0125 25.4044) rotate(-68.9353)"/>
</clipPath>
<clipPath id="clip3">
<rect width="43.1736" height="49.2985" fill="white" transform="translate(19.418 70.5144) rotate(-90)"/>
</clipPath>
</defs>
</svg>
