<svg width="341" height="153" viewBox="0 0 341 153" fill="none" xmlns="http://www.w3.org/2000/svg">
<g clip-path="url(#clip0)">
<path d="M7.4746 90.0171C15.2535 74.0806 30.3905 85.1318 30.3905 85.1318C35.9489 75.6598 44.4268 69.9174 53.6947 70.5398C55.627 70.6771 55.4789 73.6098 53.4866 73.4683C45.7549 72.955 38.6602 77.5653 33.6807 85.3415C38.7491 83.7838 48.1528 83.0045 52.3746 96.5853C38.9097 101.044 33.3752 93.8841 31.3634 89.6038C29.9672 92.4478 28.889 95.5677 28.0913 98.985C28.0913 98.985 45.0446 97.5481 45.1973 112.034C30.4946 116.767 27.5367 101.527 27.5367 101.527C27.2023 103.518 26.6921 107.812 26.6852 107.908C26.6852 107.908 38.8146 117.66 29.849 128.06C15.2615 121.836 23.8649 108.045 23.8649 108.045C23.8186 107.849 24.0079 105.184 24.1498 104.036C24.1498 104.036 17.9659 114.333 7.28892 109.774C8.93585 93.7276 25.2269 98.2145 25.2269 98.2145C25.9887 94.9635 27.0266 91.9011 28.2883 89.0837C28.2883 89.0837 17.5438 99.3934 7.4746 90.0171V90.0171Z" fill="#BF9C80"/>
</g>
<g clip-path="url(#clip1)">
<path d="M129.658 125.479C54.6403 148.414 56.8512 93.2873 54.4216 85.6214L37.7944 76.6846L41.8783 75.4361L56.3525 83.2292C62.2768 80.6972 74.237 71.841 91.8042 78.74C109.403 85.6294 112.725 99.3033 129.658 125.479ZM114.933 122.087C123.867 123.388 115.308 120.393 115.308 120.393C106.711 117.668 101.405 111.997 95.3871 105.908C87.5509 97.9732 76.2755 87.7778 64.6908 86.5146C53.1376 85.2418 58.7192 86.1952 64.1562 88.1367C69.6029 90.1095 79.0429 98.5151 84.697 104.2C92.555 112.094 99.9689 119.883 114.933 122.087V122.087Z" fill="#BF9C80"/>
</g>
<g clip-path="url(#clip2)">
<path d="M51.356 8.04169C58.9634 15.1401 50.166 21.7376 50.166 21.7376C54.5272 26.4812 56.2949 32.223 54.3558 37.3164C53.9473 38.377 52.3272 37.7908 52.7484 36.6973C54.3627 32.4471 52.9929 27.6756 49.484 23.5477C49.4886 26.6587 48.3127 32.0687 39.9685 32.1078C39.7763 23.7879 44.7432 21.9109 47.49 21.5163C46.1338 20.245 44.5682 19.1049 42.7876 18.0711C42.7876 18.0711 40.6857 27.8299 32.5317 25.4307C32.3981 16.3692 41.4565 17.3239 41.4565 17.3239C40.3969 16.7947 38.0751 15.7718 38.0224 15.7515C38.0224 15.7515 30.47 20.8843 26.1727 14.0698C32.1669 6.95248 38.4291 14.1455 38.4291 14.1455C38.5472 14.1532 40.0097 14.7165 40.6294 14.993C40.6294 14.993 35.9132 9.75711 40.3024 4.54833C49.0234 8.22507 43.7113 16.5961 43.7113 16.5961C45.4047 17.5812 46.945 18.6889 48.3093 19.8801C48.3093 19.8801 44.3678 12.083 51.356 8.04169V8.04169Z" fill="#BF9C80"/>
</g>
<g clip-path="url(#clip3)">
<path d="M10.4993 70.5145C10.4993 24.4884 41.0509 35.1854 45.7689 35.1372L53.6355 27.3409V29.8465L46.7799 36.6309C47.1843 40.3893 50.1018 48.6193 43.2173 57.2926C36.3329 65.9851 28.0908 65.5032 10.4993 70.5145ZM14.9284 62.8338C12.6657 67.6234 15.8143 63.3349 15.8143 63.3349C18.8184 58.979 22.9106 56.9745 27.359 54.6424C33.1554 51.6068 40.8102 47.0292 43.5062 40.7459C46.2022 34.4819 44.7098 37.4501 42.6877 40.1677C40.6465 42.8853 34.3108 46.7401 30.1513 48.9373C24.3741 51.9922 18.7317 54.8159 14.9284 62.8338V62.8338Z" fill="#BF9C80"/>
</g>
<path d="M67.832 60V12.336H90.656C95.552 12.336 99.44 13.68 102.32 16.368C105.248 19.056 106.712 22.68 106.712 27.24C106.712 30.312 106.112 32.76 104.912 34.584C103.76 36.408 102.296 37.8 100.52 38.76C98.744 39.672 96.968 40.344 95.192 40.776L107.72 60H101.312L89.792 41.712H73.232V60H67.832ZM73.232 36.6H89.72C91.448 36.6 93.2 36.336 94.976 35.808C96.752 35.28 98.24 34.344 99.44 33C100.688 31.608 101.312 29.688 101.312 27.24C101.312 24.216 100.28 21.84 98.216 20.112C96.152 18.336 93.416 17.448 90.008 17.448H73.232V36.6ZM129.984 60.576C126.336 60.576 123.144 59.76 120.408 58.128C117.672 56.448 115.536 54.192 114 51.36C112.512 48.528 111.768 45.408 111.768 42C111.768 38.544 112.488 35.424 113.928 32.64C115.368 29.808 117.432 27.576 120.12 25.944C122.808 24.264 125.976 23.424 129.624 23.424C133.32 23.424 136.488 24.264 139.128 25.944C141.816 27.576 143.88 29.808 145.32 32.64C146.76 35.424 147.48 38.544 147.48 42V44.16H117.312C117.6 46.272 118.272 48.216 119.328 49.992C120.432 51.72 121.896 53.112 123.72 54.168C125.544 55.176 127.656 55.68 130.056 55.68C132.6 55.68 134.736 55.128 136.464 54.024C138.192 52.872 139.536 51.408 140.496 49.632H146.4C145.152 52.848 143.16 55.488 140.424 57.552C137.736 59.568 134.256 60.576 129.984 60.576ZM117.384 39.12H141.864C141.384 36.048 140.088 33.48 137.976 31.416C135.864 29.352 133.08 28.32 129.624 28.32C126.168 28.32 123.384 29.352 121.272 31.416C119.208 33.48 117.912 36.048 117.384 39.12ZM172.366 60.576C169.39 60.576 166.822 60 164.662 58.848C162.55 57.696 160.822 56.16 159.478 54.24V60H154.078V9.6H159.478V29.832C160.822 27.864 162.55 26.304 164.662 25.152C166.822 24 169.39 23.424 172.366 23.424C175.87 23.424 178.918 24.264 181.51 25.944C184.15 27.576 186.19 29.808 187.63 32.64C189.07 35.424 189.79 38.544 189.79 42C189.79 45.408 189.07 48.528 187.63 51.36C186.19 54.192 184.15 56.448 181.51 58.128C178.918 59.76 175.87 60.576 172.366 60.576ZM171.646 55.68C174.334 55.68 176.614 55.056 178.486 53.808C180.406 52.56 181.87 50.904 182.878 48.84C183.886 46.728 184.39 44.448 184.39 42C184.39 39.504 183.886 37.224 182.878 35.16C181.87 33.096 180.406 31.44 178.486 30.192C176.614 28.944 174.334 28.32 171.646 28.32C169.006 28.32 166.75 28.944 164.878 30.192C163.006 31.44 161.59 33.096 160.63 35.16C159.67 37.224 159.19 39.504 159.19 42C159.19 44.448 159.67 46.728 160.63 48.84C161.59 50.904 163.006 52.56 164.878 53.808C166.75 55.056 169.006 55.68 171.646 55.68ZM212.523 60.576C208.875 60.576 205.707 59.76 203.019 58.128C200.331 56.448 198.267 54.192 196.827 51.36C195.387 48.528 194.667 45.408 194.667 42C194.667 38.544 195.387 35.424 196.827 32.64C198.267 29.808 200.331 27.576 203.019 25.944C205.707 24.264 208.875 23.424 212.523 23.424C216.219 23.424 219.387 24.264 222.027 25.944C224.715 27.576 226.779 29.808 228.219 32.64C229.659 35.424 230.379 38.544 230.379 42C230.379 45.408 229.659 48.528 228.219 51.36C226.779 54.192 224.715 56.448 222.027 58.128C219.387 59.76 216.219 60.576 212.523 60.576ZM212.523 55.68C215.211 55.68 217.467 55.056 219.291 53.808C221.163 52.56 222.579 50.904 223.539 48.84C224.499 46.728 224.979 44.448 224.979 42C224.979 39.504 224.499 37.224 223.539 35.16C222.579 33.096 221.163 31.44 219.291 30.192C217.467 28.944 215.211 28.32 212.523 28.32C209.883 28.32 207.627 28.944 205.755 30.192C203.883 31.44 202.467 33.096 201.507 35.16C200.547 37.224 200.067 39.504 200.067 42C200.067 44.448 200.547 46.728 201.507 48.84C202.467 50.904 203.883 52.56 205.755 53.808C207.627 55.056 209.883 55.68 212.523 55.68ZM237.539 60V24H242.939V32.856C243.131 32.232 243.491 31.416 244.019 30.408C244.595 29.352 245.411 28.296 246.467 27.24C247.523 26.184 248.843 25.296 250.427 24.576C252.059 23.808 253.979 23.424 256.187 23.424H256.547V28.824H255.899C253.211 28.824 250.883 29.568 248.915 31.056C246.995 32.496 245.507 34.392 244.451 36.744C243.443 39.048 242.939 41.52 242.939 44.16V60H237.539ZM262.36 60V24H267.76V29.616C269.056 27.888 270.64 26.424 272.512 25.224C274.384 24.024 276.784 23.424 279.712 23.424C282.208 23.424 284.536 24.024 286.696 25.224C288.904 26.376 290.68 28.128 292.024 30.48C293.416 32.784 294.112 35.64 294.112 39.048V60H288.712V39.192C288.712 35.928 287.776 33.312 285.904 31.344C284.032 29.328 281.608 28.32 278.632 28.32C276.616 28.32 274.792 28.776 273.16 29.688C271.528 30.6 270.208 31.896 269.2 33.576C268.24 35.208 267.76 37.104 267.76 39.264V60H262.36ZM138.857 121L159.089 73.336H165.857L186.089 121H180.113L174.281 107.176H150.665L144.833 121H138.857ZM152.753 102.208H172.193L162.473 78.952L152.753 102.208ZM206.977 121.576C203.329 121.576 200.137 120.76 197.401 119.128C194.665 117.448 192.529 115.192 190.993 112.36C189.505 109.528 188.761 106.408 188.761 103C188.761 99.544 189.481 96.424 190.921 93.64C192.361 90.808 194.425 88.576 197.113 86.944C199.801 85.264 202.969 84.424 206.617 84.424C210.313 84.424 213.481 85.264 216.121 86.944C218.809 88.576 220.873 90.808 222.312 93.64C223.753 96.424 224.473 99.544 224.473 103V105.16H194.305C194.593 107.272 195.265 109.216 196.321 110.992C197.425 112.72 198.889 114.112 200.713 115.168C202.537 116.176 204.649 116.68 207.049 116.68C209.593 116.68 211.729 116.128 213.457 115.024C215.185 113.872 216.529 112.408 217.489 110.632H223.393C222.145 113.848 220.153 116.488 217.417 118.552C214.729 120.568 211.249 121.576 206.977 121.576ZM194.377 100.12H218.857C218.377 97.048 217.081 94.48 214.969 92.416C212.857 90.352 210.073 89.32 206.617 89.32C203.161 89.32 200.377 90.352 198.265 92.416C196.201 94.48 194.905 97.048 194.377 100.12ZM244.175 121.576C240.863 121.576 238.055 121.024 235.751 119.92C233.495 118.816 231.767 117.376 230.567 115.6C229.367 113.776 228.695 111.808 228.551 109.696H234.167C234.311 110.896 234.719 112.072 235.391 113.224C236.111 114.328 237.191 115.24 238.631 115.96C240.071 116.632 241.943 116.968 244.247 116.968C244.967 116.968 245.855 116.896 246.911 116.752C247.967 116.608 248.975 116.344 249.935 115.96C250.943 115.576 251.783 115 252.455 114.232C253.127 113.464 253.463 112.48 253.463 111.28C253.463 109.792 252.887 108.64 251.735 107.824C250.583 107.008 249.095 106.384 247.271 105.952C245.447 105.472 243.503 105.016 241.439 104.584C239.423 104.152 237.503 103.6 235.679 102.928C233.855 102.208 232.367 101.224 231.215 99.976C230.063 98.68 229.487 96.928 229.487 94.72C229.487 91.456 230.663 88.936 233.015 87.16C235.415 85.336 238.943 84.424 243.599 84.424C246.767 84.424 249.335 84.928 251.303 85.936C253.319 86.896 254.831 88.144 255.839 89.68C256.895 91.216 257.519 92.872 257.711 94.648H252.239C252.047 93.112 251.279 91.792 249.935 90.688C248.639 89.584 246.479 89.032 243.455 89.032C237.743 89.032 234.887 90.76 234.887 94.216C234.887 95.656 235.463 96.76 236.615 97.528C237.767 98.296 239.255 98.92 241.079 99.4C242.903 99.832 244.823 100.264 246.839 100.696C248.903 101.08 250.847 101.632 252.671 102.352C254.495 103.072 255.983 104.104 257.135 105.448C258.287 106.744 258.863 108.52 258.863 110.776C258.863 114.28 257.519 116.968 254.831 118.84C252.191 120.664 248.639 121.576 244.175 121.576ZM269.693 121V89.752H262.349V85H269.693V72.112H275.093V85H283.373V89.752H275.093V121H269.693ZM289.289 121V70.6H294.689V90.616C295.985 88.888 297.569 87.424 299.441 86.224C301.313 85.024 303.713 84.424 306.641 84.424C309.137 84.424 311.465 85.024 313.625 86.224C315.833 87.376 317.609 89.128 318.953 91.48C320.345 93.784 321.041 96.64 321.041 100.048V121H315.641V100.192C315.641 96.928 314.705 94.312 312.833 92.344C310.961 90.328 308.537 89.32 305.561 89.32C303.545 89.32 301.721 89.776 300.089 90.688C298.457 91.6 297.137 92.896 296.129 94.576C295.169 96.208 294.689 98.104 294.689 100.264V121H289.289ZM329.207 121V113.656H336.191V121H329.207Z" fill="#063F39"/>
<defs>
<clipPath id="clip0">
<rect width="46.2032" height="61.6042" fill="white" transform="translate(50.8945 130.822) rotate(-175.935)"/>
</clipPath>
<clipPath id="clip1">
<rect width="73.584" height="84.0233" fill="white" transform="translate(131.194 130.501) rotate(163)"/>
</clipPath>
<clipPath id="clip2">
<rect width="27.1085" height="36.1447" fill="white" transform="translate(21.0127 25.4044) rotate(-68.9353)"/>
</clipPath>
<clipPath id="clip3">
<rect width="43.1736" height="49.2985" fill="white" transform="translate(7.41821 70.5145) rotate(-90)"/>
</clipPath>
</defs>
</svg>
