<svg xmlns="http://www.w3.org/2000/svg" viewBox="0 0 1023 648.27"><defs><style>.cls-1{fill:#fff;}.cls-2{fill:#fdfdfd;}.cls-3{fill:#f6f7f8;}.cls-4{fill:#e8eaee;}.cls-5{fill:#e3e6ea;}.cls-6{fill:#dbdfe4;}.cls-7{fill:#fefeff;}.cls-8{fill:#2b4261;}.cls-9{fill:#c0c7d0;}.cls-10{fill:#e5e8ec;}.cls-11{fill:#6a7a90;}.cls-12{fill:#8895a6;}.cls-13{fill:#acb5c1;}.cls-14{fill:#fefefe;}.cls-15{fill:#bfc5cf;}.cls-16{fill:#2c4362;}.cls-17{fill:#304665;}.cls-18{fill:#e2e5e9;}.cls-19{fill:#bbc2cc;}.cls-20{fill:#a0abb8;}.cls-21{fill:#cdd2da;}.cls-22{fill:#4a5e78;}.cls-23{fill:#63748a;}.cls-24{fill:#9ea9b7;}.cls-25{fill:#bcc3cd;}</style></defs><g id="Layer_2" data-name="Layer 2"><g id="Layer_1-2" data-name="Layer 1"><ellipse class="cls-1" cx="511.5" cy="324.14" rx="723.37" ry="458.4"/><path class="cls-2" d="M123.24,199.55c.84.71.53,1.69.53,2.56,0,4.81,0,9.63,0,14.44a6.69,6.69,0,0,0,.19,2.73,2.46,2.46,0,0,0,.78-.09c5.3-2.78,10.84-5.06,16.08-8a2.55,2.55,0,0,0,1.49-2.61c-.06-1.73,0-3.45,0-5.18a2.59,2.59,0,0,1,1.76-2.75,127.54,127.54,0,0,0,12-5.86c4.16-2.21,8.73-3.6,12.66-6.27a3.17,3.17,0,0,1,.49-.24c3-1.27,3.65-.85,3.65,2.47q0,9.41,0,18.81a5.77,5.77,0,0,1-.28,2.62c.87.44,1.35-.13,1.87-.38,3.28-1.54,6.48-3.24,9.82-4.68,2.74-1.18,5.28-2.82,7.94-4.18,4.13-2.1,8.24-4.23,12.53-6,1.83-.74,2.73-1.84,2.51-3.9-.17-1.53,0-3.09-.06-4.63a2.37,2.37,0,0,1,1.59-2.52c8.51-4.25,17-8.61,25.58-12.63,4.17-1.94,8.23-4.13,12.3-6.28,2.19-1.16,3.6-.54,3.61,1.94.06,8.91,0,17.81,0,26.72a3.25,3.25,0,0,1-1.43,2.77,13.83,13.83,0,0,1-2.12,1.21c-4.73,2.29-9.48,4.52-14.18,6.85-7.32,3.61-14.59,7.32-21.91,10.93-6.49,3.2-13,6.3-19.53,9.5-2.27,1.12-4.41,2.54-6.71,3.6-9.32,4.3-18.36,9.16-27.65,13.51-7.65,3.57-15.13,7.49-22.73,11.15-.9.43-1.81.82-2.75,1.18a6.59,6.59,0,0,0-3.4,2.12,4.1,4.1,0,0,0,2,1.36c6.74,3.38,13.43,6.86,20.24,10.08,9.84,4.66,19.48,9.72,29.32,14.36,5,2.35,9.87,4.88,14.79,7.32,5.92,2.94,11.83,5.94,17.75,8.87,12.1,6,24.1,12.19,36.35,17.88a2.87,2.87,0,0,1,1.92,2.92c0,9,0,18,0,27a2.65,2.65,0,0,1-.42,1.82c-.55.67-1,1-2,.52-8-4-16-8.12-24.13-11.92-4.93-2.3-9.74-4.82-14.67-7.09a2.65,2.65,0,0,1-1.86-2.9c.13-1.81,0-3.64.06-5.45a2.56,2.56,0,0,0-1.71-2.72c-3.84-1.86-7.69-3.68-11.55-5.51-6.07-2.88-12-6-18-9a7.55,7.55,0,0,0-2.51-1.05c-.91.55-.53,1.46-.54,2.2,0,6.27,0,12.54,0,18.81,0,.64,0,1.28,0,1.91-.15,1.8-.86,2.28-2.49,1.47-7.49-3.7-15-7.41-22.4-11.25-1.21-.63-2.48-1.08-3.68-1.72a3.18,3.18,0,0,1-2-3.23c.08-1.63-.05-3.28,0-4.91a2.16,2.16,0,0,0-1.45-2.32c-4.6-2.16-9-4.71-13.72-6.65a2.26,2.26,0,0,1-1.21-1,1.29,1.29,0,0,1,.68-.49,4.6,4.6,0,0,1,3.11.74c3.75,1.84,7.46,3.79,11.23,5.59a4.89,4.89,0,0,1,3.15,5.18c-.06.81.05,1.64,0,2.45a3.58,3.58,0,0,0,2.33,3.86c7.3,3.48,14.37,7.42,21.81,10.62,2.59,1.12,2.79,1.05,2.81-1.7,0-5.18-.1-10.36.05-15.54.07-2.47-1-3.79-3.09-4.82q-20.64-9.92-41.09-20.21c-15.42-7.76-31-15.12-46.41-23-1.16-.59-3-.85-3-2.39s1.78-1.88,2.95-2.46c18.46-9.19,37-18.27,55.45-27.42q16.11-8,32.26-15.86c2.06-1,3-2.26,2.94-4.61-.14-5.36,0-10.72-.06-16.08,0-2.41-.38-2.69-2.51-1.65-7.52,3.65-15,7.46-22.45,11.19a3.32,3.32,0,0,0-1.94,3.82c.76,4.55-1.32,7-5.43,8.67-3.87,1.54-7.51,3.66-11.25,5.53-1.21.61-2.41,1.31-3.88,1a1.44,1.44,0,0,1-1.13-1.61c.07-6-.06-11.94.08-17.9A2.18,2.18,0,0,1,123.24,199.55Z"/><path class="cls-2" d="M427.52,209.37a108.43,108.43,0,0,0-19,8.14c-6.05,3.28-12.07,6.65-16.92,11.67-.8.83-2.19,1-2.56,2.47a17.74,17.74,0,0,0,3.88,1.71,7.18,7.18,0,0,1,2.15,1.14,1.32,1.32,0,0,1,.34,1.91c-.35.52-.66,1.08-1.05,1.58-3.59,4.65-6.85,9.53-10.74,14a45.73,45.73,0,0,1-6.92,6.85c-2.78,2.05-5.23,1.68-7.16-1.14a18.47,18.47,0,0,1-2.18-4.94,100.53,100.53,0,0,0-5.3-13.08,83.22,83.22,0,0,0-8.35-13.32,86.56,86.56,0,0,0-10.15-10.9c-2.51-2.38-5.35-4.25-8-6.44-4.44-3.72-9.21-7-13.87-10.41a24.42,24.42,0,0,1-8.2-10.35,2.74,2.74,0,0,1,.62-3.18,2.47,2.47,0,0,1,3.05-.92c4.56,1.46,9.21,2.9,14,3.27,6.12.48,12.28.49,18.35-1.16,9.44-2.57,17.16-7.82,24.25-14.39,7.69-7.12,13.71-15.57,19.84-23.94,5.35-7.29,9.94-15.1,15.29-22.4,4-5.46,7.74-11.13,11.92-16.45a129.65,129.65,0,0,1,15.35-16.51,67.82,67.82,0,0,1,18.46-12.28A65.37,65.37,0,0,1,466.92,76c1.44-.31,2.28.06,2.81,1.36.31.75.66,1.49.93,2.26a43.26,43.26,0,0,0,7.66,13,50.79,50.79,0,0,0,8.76,8,33.05,33.05,0,0,0,15.4,6.29,70.18,70.18,0,0,0,14.11.4c7.52-.35,14.12-3.34,20.14-7.89S547,89.09,550.39,82.54A33.22,33.22,0,0,0,552.12,78c.76-2.12,1.6-2.65,3.63-2.07a74.39,74.39,0,0,1,25,12.23A53.22,53.22,0,0,1,586,92.82c2.59,2.64,5.43,5,8,7.72,4.1,4.37,7.57,9.22,11.3,13.87,6.28,7.85,11.47,16.47,17.22,24.69C626.61,145,630.66,151,635,156.81a100.82,100.82,0,0,0,14.85,16.57c4.81,4.11,9.81,8.18,15.8,10.42,5.55,2.09,11.24,3.78,17.38,3.85a63.73,63.73,0,0,0,21.3-3.44c1.77-.59,2.67,0,3.76,1.12s.81,2.22.24,3.47a25.73,25.73,0,0,1-9.25,10.75c-6.3,4.24-12.3,8.89-18.2,13.65-10,8.07-17.08,18.38-22.39,30a110.65,110.65,0,0,0-4.12,10.6,19.68,19.68,0,0,1-1.71,3.7c-1.55,2.6-3.85,3.26-6.46,1.73a18.83,18.83,0,0,1-5.7-4.92c-3.14-4.19-6.56-8.17-9.86-12.24-1.31-1.62-2.34-3.43-3.75-5-1.22-1.35-.85-2.48.9-3.09a30.31,30.31,0,0,0,5.21-2.39,16.05,16.05,0,0,0-3.45-3.64,111.77,111.77,0,0,0-31.67-17.55A218.16,218.16,0,0,0,575,203.71c-6.67-1.58-13.41-2.74-20.21-3.69-3.74-.53-7.51-.9-11.26-1.41-2.66-.37-5.41-.27-8.09-.69-4.86-.77-9.8-.14-14.64-.66a83.24,83.24,0,0,0-13.84-.34c-5.43.33-10.89.08-16.28.56-4.39.4-8.79.92-13.17,1.38-3.77.4-7.55.79-11.29,1.31a127,127,0,0,0-15.43,2.77c-2.26.61-4.57,1-6.86,1.52-.83,1-2.17,1-3.23,1.17C436.16,206.49,432.15,209,427.52,209.37Z"/><path class="cls-2" d="M490.79,568.14c-4.08,2.05-8.55,2.78-12.94,3.8-3.21.75-6.48.51-9.74.56a4.51,4.51,0,0,1-3.25-1.16c-1.76-1.6-1.64-3.63.51-4.56,1.51-.66,2.86-1.55,4.31-2.29,7-3.6,10.88-9.47,12.43-17.11.78-3.8.37-7.6.44-11.39a7,7,0,0,0-1.19-3.58c-1.47-2.44-2.42-5.19-4.4-7.34a2.08,2.08,0,0,1-.25-2.5c.58-1.3,1.76-2.09,2.44-3.25,1.72-2.87,3.63-5.62,5.19-8.6a121.15,121.15,0,0,0,6.82-14.78,141.15,141.15,0,0,0,6.16-21.32c.83-4.34,1.84-8.66,2.48-13,.46-3.21,1-6.4,1.39-9.63.58-5.13.76-10.28,1.18-15.4.38-4.63.21-9.23.4-13.84a14.22,14.22,0,0,1,.44-4.58c.5-1.36-.49-2.62-.47-4s.64-3.19-.36-4.21-2.93-.37-4.44-.46a12.08,12.08,0,0,0-5.31.82c-1.63.64-3.54.53-5.33.8-2.56.4-4.28-1-5.79-2.75-2.43-2.83-5-5.46-8.63-6.77a4.72,4.72,0,0,1-1.4-.83,2,2,0,0,1,0-3.27,4.24,4.24,0,0,1,3.27-1.1c4.81.38,9.62-.23,14.36-.71,3.59-.36,7.25.18,10.78-.88,3.21-1,4.54-2.52,4.55-5.74a9.67,9.67,0,0,1,.41-3.49,4.24,4.24,0,0,0,0-2.42,77.72,77.72,0,0,1-1.57-11.78c-.32-4-1.19-8-1.83-12-.25-1.52-.63-3-.79-4.53-.27-2.5,1.21-3.66,3.64-2.94a2.7,2.7,0,0,0,1.31.23c5.41-.94,10.87-.18,16.3-.43,1.27-.06,1.79.54,2.26,1.79.81,2.17,0,4.1-.29,6.12a10.8,10.8,0,0,1-.5,2.11,32.49,32.49,0,0,0-1.52,11.51,54.7,54.7,0,0,1-.39,8.66c-.3,2.36.38,4.83.64,7.25,0,.45.24.88.3,1.32.47,3.45,2.65,5.42,6.19,5.39a71.87,71.87,0,0,1,12.68,1.06,1.65,1.65,0,0,0,.54,0c3.27-.64,5.08,1.2,6.43,3.79a49.94,49.94,0,0,1,3.74,7.85c.44,1.42.15,1.82-1.25,2a17.36,17.36,0,0,1-1.91,0c-5.82,0-11.63,0-17.45,0a16.91,16.91,0,0,1-4.58-.39c-1.74-.5-2.32.06-2.15,2s.28,3.81.62,5.64c.46,2.5,0,5.08.88,7.52a4.26,4.26,0,0,1,.1,1.08c.7,12.6.9,25.23.4,37.81-.28,7,.22,14-.53,20.92-.53,5-.08,9.92-.8,14.88a70.9,70.9,0,0,0-.73,8.91c0,2.71-.8,5.35-1.24,8a84.29,84.29,0,0,1-9.07,26.59c-1.93,3.57-3.58,7.29-5.83,10.69a4.91,4.91,0,0,1-1.82,2l-.29-.37a1.93,1.93,0,0,1,0-1.38,130.2,130.2,0,0,0,12.36-26.34c2.63-8.19,3.8-16.63,4.56-25.15.87-9.76,1.16-19.57,1.44-29.35.34-11.78.49-23.58-.15-35.39-.47-8.61-.89-17.21-1.76-25.79-.37-3.61.7-4.59,4.48-4.13,6.72.81,13.44.3,20.15.43,2.55.05,2.72-.31,1.75-2.69-.41-1-1-1.94-1.46-2.92a7.68,7.68,0,0,0-7-4.7c-3.44-.19-6.85-.69-10.32-.7-6.76,0-9.54-2.76-9.92-8.63-.64-9.71-1.31-19.41,1.5-28.94.15-.52.27-1,.39-1.59.86-4,.13-5-3.93-5a100.63,100.63,0,0,0-13.33.47c-1.85.25-2.66.82-2.18,2.75,2.12,8.5,2.25,17.28,3.71,25.87a22,22,0,0,1-.75,9.17c-1,3.6-4.14,4.94-7.58,5.21-3.17.25-6.34.55-9.51.61-3.73.06-7.41.74-11.14.67a6.4,6.4,0,0,0-1.89.27c-.51.15-1.17.17-1.33.77s.46.92.88,1.21a39.41,39.41,0,0,1,7.35,6c.95,1,2.28,1,3.56,1,5,0,10-.06,15,0,2.76.06,3.39.65,3.39,3.43,0,3,.54,6,.64,9,.46,13.24-1.43,26.27-3.15,39.33A164.46,164.46,0,0,1,490,503.62a93.46,93.46,0,0,1-9.87,17.24c-1.3,1.82-1.47,3.18-.05,5.06,8.7,11.51,4.56,29.62-4.68,37.16a43.53,43.53,0,0,1-6.2,3.93c-1,.6-2.76,1-2.34,2.55.35,1.33,2,1,3.1,1a46.48,46.48,0,0,0,15-2.18,18,18,0,0,1,3.69-.95,3.28,3.28,0,0,1,1.82.34Z"/><path class="cls-3" d="M776,199.59a7.31,7.31,0,0,1-2-.76,2.7,2.7,0,0,1-1.82-3c0-9,0-18,0-27,0-1.22,0-2.45,1.64-2.6a5.18,5.18,0,0,0,.54.51l.56,0a5.24,5.24,0,0,0,.54.51l.55,0a5.29,5.29,0,0,0,.54.52l.55,0c.17.18.35.35.54.52l.55,0a5.29,5.29,0,0,0,.54.52l.55,0a6.51,6.51,0,0,0,.54.51l1.09,0a4.69,4.69,0,0,1,2.55,1c.27.18.52.38.8.55s.35.2.53.31.54.29.82.41l.59.23,1,.31c2.91,1.32,5.71,2.86,8.62,4.17l.86.5.53.29c.25.15.49.3.75.43s.33.16.5.25.48.27.74.38.35.16.51.24l.53.26.53.26.54.27q.27.12.54.27c.18.08.36.18.54.27a4.53,4.53,0,0,1,.54.27l.55.27a5.52,5.52,0,0,1,.54.28c.19.08.37.18.55.27a4.53,4.53,0,0,1,.54.27l.55.27a4.58,4.58,0,0,1,.54.28c.19.08.37.18.55.27a5.6,5.6,0,0,1,.55.27l.54.27a5.68,5.68,0,0,1,.55.28l.54.27a5.6,5.6,0,0,1,.55.27l.54.27.55.28.55.27c.18.08.36.18.54.27l.54.27c.19.08.37.18.54.27l.52.26a5.12,5.12,0,0,1,.52.27c.25.14.49.29.73.44a2,2,0,0,1,.57.62,1.4,1.4,0,0,1,.19.53l0,.28v8.18c.17.18.36.36.54.53h.55c.17.18.36.36.54.53l.55,0c.17.18.36.36.54.53h.55l.29,0a2.93,2.93,0,0,1,.57.13,5.42,5.42,0,0,1,.56.22l.93.29a7.55,7.55,0,0,1,1.84.92c.26.18.51.38.78.55a5.39,5.39,0,0,1,.52.3c.26.14.52.28.79.4l.54.23c.29.11.57.2.86.29a3.23,3.23,0,0,1,1.59,1h0c.17.19.37.36.54.55h.55c.16.2.38.35.55.54H830a.81.81,0,0,0,.45.27l.25.11a4.5,4.5,0,0,0,.51.2,4.44,4.44,0,0,1,.49.24c.24.14.48.27.73.39a4.9,4.9,0,0,1,.52.24c.18.08.35.17.52.26s.36.17.54.26l.54.27c.18.08.36.18.54.27l.54.27a5.68,5.68,0,0,1,.55.28c.18.08.36.18.54.27a5.6,5.6,0,0,1,.55.27l.54.27a5.68,5.68,0,0,1,.55.28l.54.27a5.6,5.6,0,0,1,.55.27c.18.08.35.18.53.27l.53.26.51.27a4.66,4.66,0,0,1,.5.25q.36.21.75.39a4.9,4.9,0,0,1,.52.24c.28.13.56.24.86.35l.65.22c.37.1.74.2,1.11.32l.76.29c2.56,1,2.68.93,2.69-1.91,0-5.35,0-10.69,0-16,0-.81,0-1.63,0-2.44.28-2.58,1.49-3.33,3.89-2.36a6.57,6.57,0,0,1,3.37,2.62l.54,0a5.29,5.29,0,0,0,.54.52l1.09,0a69,69,0,0,1,13.09,6.54h0c.17.19.37.35.55.54h.54a8.93,8.93,0,0,0,2.31.7c4.33,1.5,5.64,3.09,5.43,7.67-.13,3,.89,4.71,3.62,5.85,3.9,1.63,7.72,3.5,11.5,5.43.93.47,2.08.76,2.34,2a1.14,1.14,0,0,1-.65.51c-3-.17-5.35-2.12-8-3.15s-5-2.52-7.58-3.71c-2.13-1-3.44-2.57-3-4.93.73-4.3-1.4-6.32-5.08-8-6.64-3-13-6.45-19.55-9.67-2.44-1.2-2.87-1-2.89,1.69-.05,5.36,0,10.72,0,16.08a4.12,4.12,0,0,0,2.33,3.94c2.89,1.75,6,2.93,9.05,4.42,10.9,5.42,21.89,10.67,32.75,16.15,12,6.06,24.14,11.82,36.1,18,3.63,1.87,7.48,3.29,11.06,5.28,1,.58,2.34,1.06,2.38,2.39s-1.38,1.79-2.4,2.31c-3.8,1.94-7.78,3.52-11.56,5.51a2.54,2.54,0,0,1-2.33.35A.79.79,0,0,1,928,266c2.38-2.54,5.77-3.28,8.67-4.9,1.45-.8,4-.83,4.06-2.58,0-1.45-2.4-1.93-3.85-2.57-6-2.64-11.75-5.69-17.85-8.68,0,5.91-.25,11.67.1,17.39.27,4.37-1.09,7.19-5.3,8.51-12.72,6.49-25.7,12.45-38.44,18.89-1.22.62-2.45,1.73-4,.75.15-1.77,1.78-1.91,2.89-2.49,12.74-6.61,25.77-12.66,38.66-19,3.15-1.55,4.45-3.42,4.23-6.94-.29-4.62-.12-9.26,0-13.9a3.74,3.74,0,0,0-2.45-3.79c-14.8-7.15-29.49-14.53-44.22-21.81-16-7.88-31.94-15.71-47.85-23.69-1.79-.9-3.64-1.66-5.48-2.44-2.44-1.05-4-2.83-3.56-5.49.75-4.56-1.58-6.54-5.37-8.36-10.64-5.11-21.29-10.2-31.83-15.53-2.61-1.31-2.89-1.13-2.9,1.81,0,7.45,0,14.9,0,22.35a4.43,4.43,0,0,0,2.78,4.5c10.32,4.95,20.49,10.21,30.79,15.2,10,4.84,19.87,9.83,29.8,14.75,17.34,8.57,34.7,17.11,52,25.77,2.19,1.1,4.57,1.81,6.67,3.1,1.79,1.12,1.77,2.14,0,3.2-.62.37-1.33.59-2,.92-23.14,11.83-46.62,23-69.81,34.71-15.41,7.78-31,15.14-46.49,22.81-2.75,1.37-3.87,3-3.78,6.11.19,6.81,0,13.62.06,20.44,0,3.22,0,3.22,3,3.67a.48.48,0,0,1,.08.73h0c-.3.32-.81.2-1.09.54l-.55,0c-.19.17-.37.35-.54.53h-.55a.77.77,0,0,1-1.09,0c-.89-.8-.53-1.87-.53-2.82,0-9.42,0-18.85,0-28.27a6.88,6.88,0,0,0,.54-.54l.55,0a6.51,6.51,0,0,0,.54-.51c2.91-.89,5.45-2.57,8.18-3.83.19-.17.38-.35.55-.53l.55,0c.18-.17.37-.34.54-.53h.55c.18-.17.37-.35.54-.53l.55,0a6.75,6.75,0,0,0,.54-.53h.55c.19-.17.37-.35.54-.53l.55,0a6.75,6.75,0,0,0,.54-.53l.55,0a6.63,6.63,0,0,0,.54-.52l.55,0a5.29,5.29,0,0,0,.54-.52l.55,0c.19-.17.37-.34.54-.52l.55,0a5.29,5.29,0,0,0,.54-.52l.55,0a6.63,6.63,0,0,0,.54-.52l.55,0c.19-.17.37-.34.55-.53h.54a4.59,4.59,0,0,0,.55-.53l.54,0a6.82,6.82,0,0,0,.55-.53h.54c.19-.17.37-.35.55-.53l.54,0c.19-.17.37-.34.55-.53l1.09,0a6.51,6.51,0,0,0,.54-.51l.55,0a6.51,6.51,0,0,0,.54-.51l.55,0a6.51,6.51,0,0,0,.54-.51l1.64-.59a3.26,3.26,0,0,0,.54-.51l.56,0a5.13,5.13,0,0,0,.53-.51l.55,0a4.42,4.42,0,0,0,.54-.52l.56,0a6.63,6.63,0,0,0,.54-.52l.55,0a5.29,5.29,0,0,0,.54-.52l.55,0c.19-.17.37-.34.54-.52,2.39-1.05,4.56-2.56,7.09-3.3a5.29,5.29,0,0,0,.54-.52l1.09-.55c.17-.19.39-.33.55-.54h.54c.17-.19.39-.34.55-.54h.55c.17-.19.38-.33.54-.54h1.09c.17-.19.39-.33.55-.53l.54,0c.19-.17.37-.34.55-.53h.54c.19-.17.37-.35.55-.53l.54,0a6.88,6.88,0,0,0,.55-.53l.55,0c.18-.16.37-.34.54-.52l.55,0c.18-.17.37-.35.54-.53l.55,0a6.63,6.63,0,0,0,.54-.52l.55,0c.19-.17.37-.35.54-.53l.55,0a6.75,6.75,0,0,0,.54-.53h.55c.19-.17.37-.35.54-.53l.55,0a5.29,5.29,0,0,0,.54-.52l1.64-.57a5.29,5.29,0,0,0,.54-.52l.55,0a6.63,6.63,0,0,0,.54-.52l.55,0c.19-.17.37-.34.55-.53h.54c.19-.17.37-.35.55-.53l.54,0a3.29,3.29,0,0,0,.42-.67,1.18,1.18,0,0,1,.45-.28c.24-.12.47-.23.7-.36a4.23,4.23,0,0,1,.48-.23l.72-.39c.16-.11.33-.2.5-.3l.77-.56a6.34,6.34,0,0,1,1.82-.91c.3-.09.6-.18.9-.29l.53-.21c.25-.11.5-.22.75-.35a2.62,2.62,0,0,1,.48-.22l.71-.37a4.44,4.44,0,0,1,.49-.24l.75-.42.54-.3c.29-.17.57-.35.87-.51,3-1.43,5.81-3.07,8.86-4.31a9.18,9.18,0,0,0,1-.5,50.69,50.69,0,0,1,6.39-3.18c.31-.1.63-.18.93-.29l.55-.21.78-.34a1.59,1.59,0,0,1,.53-.08.84.84,0,0,0,.72-.27h.54c.19-.17.37-.35.55-.54l.48-.45a4.09,4.09,0,0,1,.81-.57,10.53,10.53,0,0,1,2.2-.85,2.31,2.31,0,0,0,.84-.53,6.23,6.23,0,0,1,1.12-.64l.81-.39a4.9,4.9,0,0,1,.52-.24c.25-.12.5-.24.74-.37a4.37,4.37,0,0,1,.49-.23c.25-.12.49-.25.73-.39a4,4,0,0,1,.51-.24,8,8,0,0,0,.78-.38c.37-.16.76-.26,1.14-.39a1.23,1.23,0,0,0,.83-.33h.54c.24-.26.38-.61.69-.82a9.16,9.16,0,0,1,3.25-1.53c.33-.09.71-.07,1-.36H891c.18-.18.37-.35.54-.54h0a4.51,4.51,0,0,1,2.4-1.43.73.73,0,0,1,.76.25.36.36,0,0,0-.26-.39l-.48-.22a2.65,2.65,0,0,1-.48-.23l-.5-.24-.51-.25c-.26-.13-.52-.26-.79-.37l-.59-.22c-.32-.1-.65-.19-1-.3-5.2-2.39-10.29-5-15.35-7.64-.29-.26-.42-.65-.68-.93l-.54,0c-.18-.19-.36-.36-.55-.53l-.55,0A6.63,6.63,0,0,0,872,247l-.55,0c-.27-.31-.64-.24-1-.25a52.41,52.41,0,0,1-4.93-2.14c-.27-.25-.38-.61-.63-.87h-.54c-.16-.21-.38-.35-.55-.54h-.55c-.15-.2-.37-.35-.54-.54h-.54a1.1,1.1,0,0,0-.92-.24,9.54,9.54,0,0,1-2.11-.89l-.8-.44-.52-.28c-.26-.15-.51-.29-.78-.42a4.32,4.32,0,0,1-.53-.26l-.53-.26a4.53,4.53,0,0,1-.54-.27c-.19-.08-.36-.18-.54-.27s-.37-.18-.55-.27l-.54-.27-.55-.28c-.18-.08-.36-.18-.54-.27s-.37-.18-.55-.27l-.54-.28a5.6,5.6,0,0,1-.55-.27l-.54-.27c-.19-.08-.37-.18-.55-.27l-.55-.28q-.27-.12-.54-.27c-.19-.08-.37-.18-.55-.27s-.36-.18-.54-.27l-.55-.28a4.53,4.53,0,0,1-.54-.27c-.19-.08-.37-.18-.55-.27a5.28,5.28,0,0,1-.53-.27l-.53-.26a5.12,5.12,0,0,1-.52-.27l-.8-.38-.58-.22-1-.29a78.5,78.5,0,0,1-8.31-4.15c-.29-.18-.57-.37-.87-.52a7.21,7.21,0,0,1-1.37-.73c-.24-.16-.47-.34-.72-.49a4.67,4.67,0,0,1-.49-.27c-.24-.13-.49-.27-.74-.39s-.35-.15-.53-.24l-.52-.26a5.44,5.44,0,0,1-.54-.27l-.53-.26c-.19-.08-.37-.18-.55-.27l-.54-.28a5.6,5.6,0,0,1-.55-.27c-.18-.08-.36-.18-.54-.27l-.53-.26c-.18-.08-.35-.18-.52-.27a1.93,1.93,0,0,1-.49-.31,5.56,5.56,0,0,0-.47-.72h-.54a6.75,6.75,0,0,0-.54-.53l-.55,0a6.63,6.63,0,0,0-.54-.52l-.55,0a5.29,5.29,0,0,0-.54-.52l-2.18-.57c-.16-.21-.38-.35-.55-.54h-.54c-.16-.2-.38-.35-.55-.54h-.55a6.88,6.88,0,0,0-.54-.54h-.55a5.39,5.39,0,0,0-.54-.53l-.55,0c-.16-.19-.36-.35-.54-.53h-.55a6.75,6.75,0,0,0-.54-.53l-.55,0c-.16-.19-.36-.35-.54-.53-1.65-.7-3.1-1.85-4.91-2.19-.16-.21-.38-.35-.55-.54h-.54a6.82,6.82,0,0,0-.55-.53c-1.65-.7-3.1-1.85-4.9-2.19-.17-.2-.37-.36-.55-.54h-.55a5.39,5.39,0,0,0-.54-.53h-.55a6.88,6.88,0,0,0-.54-.54h-.55a5.39,5.39,0,0,0-.54-.53h-.55a6.75,6.75,0,0,0-.54-.53l-.55,0a6.63,6.63,0,0,0-.54-.52l-.55,0a6.75,6.75,0,0,0-.54-.53l-.55,0a6.63,6.63,0,0,0-.54-.52l-.55,0a5.29,5.29,0,0,0-.54-.52l-.55,0a6.76,6.76,0,0,0-.55-.52l-.55,0a6.75,6.75,0,0,0-.54-.53l-.54,0c-.18-.18-.36-.36-.55-.52l-.54,0-.55-.52-.54,0c-.18-.18-.36-.36-.55-.52l-.55,0c-.17-.18-.35-.35-.54-.52l-.55,0a6.63,6.63,0,0,0-.54-.52l-.55,0c-.17-.18-.35-.35-.54-.52l-.55,0a6.63,6.63,0,0,0-.54-.52l-.55,0c-.17-.18-.35-.35-.54-.52l-.55,0a6.63,6.63,0,0,0-.54-.52l-.55,0a6.51,6.51,0,0,0-.54-.51l-.55,0A6.51,6.51,0,0,0,776,199.59Z"/><path class="cls-2" d="M427,308a1.59,1.59,0,0,1-1.11-1.62c-.29-1.09.54-1.43,1.25-1.8,6.56-3.37,12.38-7.82,18.17-12.33.58-.45,1.28-.68,1.84-1.14a1.86,1.86,0,0,0,1.09-1.09,13.61,13.61,0,0,1,3.82-3.27,26.54,26.54,0,0,0,4.91-4.91c.85-1.66,2.36-2.3,3.81-1.3a30.36,30.36,0,0,0,10,4.49,2.4,2.4,0,0,1,.87.63h2.18c.91-.12,1.82.42,2.73,0h2.18c1.34-1,3-1.15,4.54-1.69a34.12,34.12,0,0,0,13.82-9.28c1.1-1.2.76-1.91-.36-2.66h-1.09a15.44,15.44,0,0,1-5.32-1,93.33,93.33,0,0,1-14.56-6c-3.05-1.61-3.35-2.32-1.55-5.2,2.1-3.36,3.55-7.11,6.16-10.16v-.54c1.89-5.09,4.48-9.87,6.56-14.88a95,95,0,0,1,4.34-9.66c1.62-4.42,3.17-8.86,4.35-13.43.51-2,.93-2.2,3-2.4,3.86-.37,7.75-.31,11.59-1a5.53,5.53,0,0,1,2.7.15,3.63,3.63,0,0,0,1.31.31c3.82-.3,7.56.8,11.38.61a46.84,46.84,0,0,1,9.14.92c2.51.37,5,.28,7.57.58,5.63.67,11.25,1.49,16.88,2.2a157.67,157.67,0,0,1,17.54,3.34,99.26,99.26,0,0,1,15.58,5.55c2.06.89,3.42,2.61,4.79,4.32,2.93,3.67,4.18,8,4.83,12.5a72.25,72.25,0,0,1-.25,21.07c-.6,4-2.44,7.56-3.21,11.47-.5,2.58-.39,3.1,2,4.32s4.71,2.34,7.06,3.54a10.51,10.51,0,0,1,1.86,1.11c2.16,1.74,2.3,2.36,1,4.86a135.79,135.79,0,0,1-10.07,16.72c-2.12,3-4.19,6.1-6.56,8.95A45.27,45.27,0,0,1,582.9,320a19.33,19.33,0,0,1-5.33,2,2.47,2.47,0,0,1-2.85-.94,40.59,40.59,0,0,0-4-4.77c-1.75-1.58-3.93-2.58-5.53-4.38s-3.4-3.28-4.55-5.38a1.86,1.86,0,0,0-2.73-.85,44.69,44.69,0,0,0-13.07,8.15,32.58,32.58,0,0,0-9.3,16,24.63,24.63,0,0,0-1.19,5.84,3.3,3.3,0,0,1-.59,1.5,1.32,1.32,0,0,1-2.25.41c-.82-.72-1.55-1.54-2.34-2.28-2.08-1.94-3.88-2.09-6.39-.7-1.81,1-3.59,2-5.85,1.9-1.69-.1-3.25-.24-4.47-1.55a1.57,1.57,0,0,0-2.4-.07,8.13,8.13,0,0,1-5.62,1.61,6,6,0,0,1-3.55-1.12c-3.32-2.58-6.72-1.95-9.15.91-.65.76-1.28,2-2.57,1.61-1.07-.37-1-1.6-1.2-2.57-.53-2.37-1.05-4.74-1.78-7.08-2.75-8.87-8.36-15.29-16.4-19.73-1.9-1-3.66-2.34-5.81-2.92-1.23-.33-2.14-.2-2.7,1-1.66,3.73-4.83,6.06-7.91,8.43a34.82,34.82,0,0,0-5.61,5.51c-1.33,1.61-1.92,1.82-3.94,1.21a27.47,27.47,0,0,1-9.19-5.07c-2.61-2.07-4.45-4.75-6.81-7A2.11,2.11,0,0,1,427,308a1.14,1.14,0,0,1,.73-.26c2.48,1.71,4.22,4.17,6.37,6.22a23.26,23.26,0,0,0,9.33,5.86c1.36.42,2.5.36,3.39-.86,2-2.75,4.68-4.75,7.32-6.82a22.93,22.93,0,0,0,6-6.59,3.1,3.1,0,0,1,4.33-1.54c9.27,3.76,17,9.29,21.27,18.7a58.87,58.87,0,0,1,3.82,12.83c1.39-.11,1.86-1.26,2.7-1.83a6.65,6.65,0,0,1,8.53-.32c2.67,1.75,5.51,2.27,8.33,0a2.93,2.93,0,0,1,4,.05c2.36,2,4.8,1.78,7.34.4.88-.48,1.78-.91,2.69-1.32a5.37,5.37,0,0,1,5.89.59c1.19.74,1.84,2.86,3.27,2.4,1.17-.37.85-2.39,1.17-3.69.54-2.2,1.29-4.33,2-6.48a5.56,5.56,0,0,1,.29-.71,38.9,38.9,0,0,0,2.1-4.6c4.45-7.63,11.16-12.54,19.19-15.8,2.7-1.1,3.69-.76,5.21,1.72a24.23,24.23,0,0,0,6,6.28c2.55,2,5.35,3.77,7.17,6.62,1,1.55,2.47,1.23,3.91.73,4.6-1.6,8.19-4.65,11.36-8.2,6.82-7.62,12.21-16.24,17.11-25.18,2-3.72,1.77-4.62-2-6.59-1.93-1-3.94-1.88-5.83-3-3.18-1.83-4.13-3.88-2.76-7.26a59.75,59.75,0,0,0,4-24,36.48,36.48,0,0,0-4.51-17.5,14.85,14.85,0,0,0-7.88-6.35c-11.13-4.49-22.82-6.6-34.63-8.26-10.61-1.49-21.27-2.3-32-2.82-3.33-.16-6.7-.65-10-.75a71.25,71.25,0,0,0-13.27,1c-1.29.2-1.69,1.15-2,2.27-4.8,16.26-11.07,31.9-20,46.38-1.69,2.74-1.65,2.78,1.19,4.21a89.58,89.58,0,0,0,19.75,6.92c3.61.85,4,2,1.61,4.91a31.63,31.63,0,0,1-23.4,12.32,23.75,23.75,0,0,1-14.3-3.7c-1.93-1.22-3.16-1-4.69.59a115.82,115.82,0,0,1-28,21.43,9.68,9.68,0,0,1-1.36.42,2.18,2.18,0,0,1-.62.11c-.34-.12.18,0-.18-.07-.08,0,0,.06.1.2a1.27,1.27,0,0,1,.29.52A.84.84,0,0,1,427,308Z"/><path class="cls-2" d="M283.56,436.57v24.54c0,.63,0,1.27,0,1.9,0,1-.43,1.52-1.46,1.52h-12c-1.23,0-1.8-.69-1.8-1.9,0-.63,0-1.27,0-1.91,0-16,0-32,0-48a34.78,34.78,0,0,1,1-8.85c1.95-7.32,9.24-11.86,16.11-12.48,10.79-1,21.58-.24,32.38-.44a31.69,31.69,0,0,1,7.52.76,24.1,24.1,0,0,1,16.32,12,23.28,23.28,0,0,1,3.05,9.2c.26,2.71.42,5.4.44,8.11A24.91,24.91,0,0,1,326.43,446a35.69,35.69,0,0,1-9.39,1.16c-8.63-.1-17.26,0-25.9,0l-1.9,0a1.65,1.65,0,0,1-1.85-1.85c0-3.63-.06-7.27,0-10.9,0-1.79.85-2.46,2.84-2.49,3.73,0,7.45,0,11.18,0,6.09,0,12.18,0,18.27,0a9.64,9.64,0,0,0,9.66-9.64c0-1.82,0-3.63,0-5.45,0-5.8-3.17-9.46-8.82-10.6a26.54,26.54,0,0,0-5.39-.47H290.35a10.11,10.11,0,0,0-3.22.35c-2.84,1-3.47,1.65-3.55,4.68-.07,2.18,0,4.36,0,6.54Z"/><path class="cls-2" d="M775.84,436.81c.86.13,1.19.8,1.44,1.48a21.76,21.76,0,0,1-.14,16.68,15.17,15.17,0,0,1-10,8.58,20.76,20.76,0,0,1-6.12,1c-13.45-.05-26.9,0-40.34,0-.73,0-1.46,0-2.18,0-1,0-1.44-.55-1.44-1.53q0-4.5,0-9a1.73,1.73,0,0,1,2-2c.64,0,1.28,0,1.91,0q19.63,0,39.25,0a5.66,5.66,0,0,0,4.07-1.16,5.8,5.8,0,0,0,1.68-6.21,6.25,6.25,0,0,0-5.29-4.07c-3.63-.06-7.26,0-10.9,0-5,0-10,0-15,0a19.42,19.42,0,0,1-14.49-6.36,14.31,14.31,0,0,1-3.61-8.36c-.62-5-.22-9.92,2.83-14.33,2.59-3.73,6.23-5.74,10.42-6.88a24.45,24.45,0,0,1,6.46-.64c11.09.06,22.17,0,33.26,0,.63,0,1.27,0,1.91,0,1.11,0,1.69.39,1.67,1.58,0,3,0,6,0,9a1.74,1.74,0,0,1-2,2h-1.9c-11.54,0-23.08,0-34.62,0a4.8,4.8,0,0,0-4.93,3.07c-1.84,4.49.65,8.27,5.57,8.37,3.9.09,7.81,0,11.72,0,4.91,0,9.84-.3,14.71.08,5.58.43,10.55,2.47,13.8,7.46a1.75,1.75,0,0,1,.29,1.29c-1.46,0-2.25-1.08-3.13-2a17,17,0,0,0-12.57-5q-11.17,0-22.35,0a23.12,23.12,0,0,1-3.53-.15c-4.35-.68-6.58-3.3-6.5-7.66.07-4.17,2.33-6.67,6.62-7.28a24.47,24.47,0,0,1,3.53-.14q15.27,0,30.53,0c3.2,0,3.39-.22,3.44-3.39.1-5.9.1-5.9-5.69-5.9-9.09,0-18.17,0-27.26,0a36.85,36.85,0,0,0-7.57.8c-8.31,1.68-14.09,9.09-13.41,17.08.76,9,7.26,15.25,16.34,15.4,7.91.13,15.81,0,23.72,0a14.14,14.14,0,0,1,4.57.54,7.44,7.44,0,0,1,5.32,8.44,7,7,0,0,1-7.17,6.19c-6,.19-12,.05-18,.06-7,0-14,0-21,0-2.93,0-3.25.38-3.34,3.32-.18,6-.18,6,5.89,6q16.89,0,33.8,0a25,25,0,0,0,9.08-1.54c8-3,11.77-11.08,9.63-19.88C776.44,440.14,775.27,438.64,775.84,436.81Z"/><path class="cls-2" d="M459.7,254.62a1.16,1.16,0,0,0-1.1-.55,7.41,7.41,0,0,1-2.18-1.63c-.17-.19-.35-.37-.54-.55-.85-.45-1.64-1.22-2.72-.54-.18.73-.36,1.46-.55,2.18a3,3,0,0,1-.53,2.72l0,1.1a3.45,3.45,0,0,1-.51,1.08V265a72,72,0,0,1,3.24,9.26,4.57,4.57,0,0,1-1.72,4.23,42.93,42.93,0,0,0-5.37,5.58,8.81,8.81,0,0,1-3.27,2.73,1.86,1.86,0,0,0-1.09,1.09,57,57,0,0,1-20.73,12.54,2.65,2.65,0,0,1-2.66-1.51c-3-4.86-6-9.68-8.51-14.83-1.14-2.37-1.06-2.27,1-4,2.64-2.17,5.83-3.28,8.77-4.87,2.44-1.32,3-2.19,2.37-4.78a15.16,15.16,0,0,0-1-3.38c-1.94-3.87-2.44-8-2.81-12.31a95.76,95.76,0,0,1-.43-10,37.41,37.41,0,0,1,3.68-16,16.17,16.17,0,0,1,8.85-8.32,114,114,0,0,1,24.22-6.79c2.84-.44,5.66-1,8.49-1.58a26.31,26.31,0,0,1,11.45-1.63h1.64a9.64,9.64,0,0,1,6-1.14c2.06.21,2.53,1.3,1.68,3.32v1.09A135.21,135.21,0,0,1,480,234.42c-1.8,4.94-4,9.69-6.18,14.48a54.3,54.3,0,0,1-5.43,9.07c-1,1.4-2.15,1.49-3.52.64A27.56,27.56,0,0,1,459.7,254.62Z"/><path class="cls-3" d="M871.27,292.73a4.78,4.78,0,0,0,3.08-.88c5-2.51,10-5.17,15.12-7.51,8.08-3.71,15.95-7.84,23.94-11.72,1.87-.11,3.22-1.36,4.79-2.14,3.25-1.6,6.12-4,9.92-4.41l0,.69c-.23,1.31-1.43,1.56-2.35,2-21.65,11.07-43.64,21.46-65.36,32.39-2.51,1.27-5.09,2.39-7.52,3.81a3.54,3.54,0,0,0-2.08,3.23c0,5.72,0,11.44,0,17.15,0,1.89.73,2.19,2.35,1.38q11.55-5.81,23.12-11.57a3.32,3.32,0,0,0,2-3.79c-.81-4.72,1.48-7.34,5.68-8.78,1.57-.54,2.89-2,4.8-1.29a.48.48,0,0,1,.08.73l-8.73,4.38c-.8,2.68.2,5.47-.53,8.16l0,.55a6.88,6.88,0,0,0-.54.54h0a7,7,0,0,0-.55.54H878c-.17.19-.39.33-.55.54-2,.43-3.62,1.58-5.4,2.44-3.49,1.69-6.94,3.46-10.41,5.2-.17.19-.39.33-.55.53l-.54,0a5.49,5.49,0,0,0-.55.53h-.54c-.18.19-.39.33-.55.53l-3.27,1.13a6.51,6.51,0,0,0-.54.51l-.55,0a5.29,5.29,0,0,0-.54.52l-.55,0c-.19.16-.37.34-.55.52l-.54,0c-.19.17-.37.34-.55.53h-.54a.77.77,0,0,1-1.09,0c-.89-.8-.54-1.87-.54-2.82,0-7.24,0-14.49,0-21.73-.18-.54-.36-.06-.54,0-1.61.15-2.77,1.48-4.37,1.66-.19.17-.37.34-.54.52l-3.27,1.64c-.17.19-.39.34-.55.54h-.54c-.17.19-.39.33-.55.54h-.54c-.18.2-.39.34-.55.54h-.54a7,7,0,0,0-.55.54l-3.27,1.11c-.19.17-.37.34-.54.52-2.75,1.26-5.3,2.91-8.19,3.85a5.29,5.29,0,0,0-.54.52c-2.18.51-4,1.85-6,2.74-.19.17-.37.34-.55.53l-.54,0c-.19.16-.37.34-.55.52l-.54,0c-.19.17-.37.34-.55.53-.68.52-.54,1.28-.54,2,0,2.07,0,4.13,0,6.2-.35.28-.23.78-.53,1.08l0,0c-.19.17-.37.35-.54.53l-1.09.55c-.17.19-.39.34-.55.54H812a7,7,0,0,0-.55.54l-3.27,1.12a6.64,6.64,0,0,0-.55.51l-.54,0c-.19.16-.37.34-.55.52l-.54,0-.55.52c-2,.87-3.82,2.21-6,2.75a6.63,6.63,0,0,0-.54.52c-2.55.7-4.71,2.24-7.09,3.29a4.59,4.59,0,0,0-.55.53h-.54c-.19.17-.37.35-.55.54h-.54c-.19.17-.37.35-.55.53h-.54c-.19.17-.37.35-.55.54-1.21,0-2.08,1-3.27,1.13a3.68,3.68,0,0,0-.54.5l-.56,0a5.13,5.13,0,0,0-.53.51l-.56,0a.4.4,0,0,1-.67-.16c.25-1.67,1.73-2,2.91-2.55,8.69-4.09,17.25-8.45,25.89-12.65,2.09-1,3.07-2.35,2.83-4.66-.1-.89,0-1.81,0-2.71a4.33,4.33,0,0,1,2.61-4.38c10.22-5.11,20.35-10.4,30.7-15.24,7.06-3.3,14-7,21-10.32C868.84,293.07,869.87,292.07,871.27,292.73Z"/><path class="cls-2" d="M554,448.72c0-2.79,0-5.59,0-8.38,0-1,0-2,1.1-2.53,5.83-.6,11.69-.08,17.53-.27,1.06,0,2.17.28,3.19-.27h1.09a6.88,6.88,0,0,0,.54-.54c1.43-1.19,1-2.84,1.09-4.37-.19-.17-.35-.37-.54-.54h0c-.18-.18-.35-.38-.55-.55a1.11,1.11,0,0,0-1.09-.54,6.75,6.75,0,0,0-.54-.53c-6.63,0-13.26,0-19.9,0-3.65,0-5.16,1.48-5.18,5.07q0,6.4,0,12.8c0,3,1.52,4.46,4.52,4.47,5.81,0,11.63,0,17.44,0,2.95,0,3.1.16,3.11,3.06,0,2.36,0,4.72,0,7.08,0,1.21-.34,1.87-1.69,1.86-7.17,0-14.37.31-21.52-.1-8.3-.49-14-7-13.89-15.17,0-5,.09-10,0-15-.2-9.74,7.1-16,16.07-16.09,6.72-.07,13.45-.09,20.17,0a16.23,16.23,0,0,1,11.42,4.3,16,16,0,0,1,2.2,20.19c-3.22,5.06-8.09,7-13.85,7.11a146.27,146.27,0,0,1-19.64,0c-.17-.18-.35-.37-.54-.54h0A7,7,0,0,0,554,448.72Z"/><path class="cls-2" d="M443.87,420.37c.48-2.12.48-2.17,2.62-2.17,7.72,0,15.45-.09,23.17,0a17.14,17.14,0,0,1,7.57,1.9,13.79,13.79,0,0,1,8.06,12.57c.18,5.72.18,11.46,0,17.18-.24,7.63-5.31,12.52-11.86,14.5a8.58,8.58,0,0,1-2.44.15c-7.54,0-15.09-.12-22.63.05a15.89,15.89,0,0,1-10.7-4,13.27,13.27,0,0,1-4.6-9c-.71-6.86,1.61-12.48,7.64-16.23a16.86,16.86,0,0,1,6.46-1.92,177.41,177.41,0,0,1,21.26,0c1.27.11,1.65.91,1.64,2.06,0,2.54,0,5.08,0,7.63,0,2-.36,2.3-2.47,2.31-6.18,0-12.35,0-18.53,0-2.47,0-3.61,1.31-3.52,3.78.07,2,1.3,3.16,3.56,3.27,2,.1,4,0,6,0,4.63,0,9.26,0,13.89,0a4.06,4.06,0,0,0,4.34-4.17c.09-4.44.13-8.9,0-13.34-.12-3.78-2.2-4.91-5.16-4.87-7.9.1-15.8,0-23.7,0-.17-.2-.37-.36-.55-.54h0A34.26,34.26,0,0,1,443.87,420.37Z"/><path class="cls-4" d="M126.68,298.15l-.72.14a3.19,3.19,0,0,0-.54-.05,3.68,3.68,0,0,0-.54-.5l-.55-.05c-1.55.2-.78,1.41-.79,2.1-.07,5.14,0,10.29-.05,15.43a4.91,4.91,0,0,1-.25,2.65h0c-.18.18-.38.35-.56.54h-.52c-.18-.18-.36-.35-.55-.51l-.55,0a6.63,6.63,0,0,0-.54-.52l-.55,0c-.17-.18-.35-.35-.54-.52l-.55,0a6.51,6.51,0,0,0-.54-.51l-.55,0a5.08,5.08,0,0,0-.54-.5l-.55,0c-.29-.35-.8-.23-1.1-.55h0c-.28-.34-.79-.22-1.08-.53l-.54,0c-.17-.19-.37-.35-.55-.53l-.54,0c-.17-.18-.37-.35-.55-.52l-.54,0c-.17-.19-.37-.35-.55-.52s-.36,0-.54,0a4.6,4.6,0,0,0-.56-.52h0a.49.49,0,0,1,.12-.73c1.07-.41,1.94.2,2.83.6,2.31,1.06,4.69,1.95,6.92,3.19,1.44.79,2,.26,2-1.26,0-4.62,0-9.25,0-13.88a3.09,3.09,0,0,0-2-2.95q-21.75-11-43.63-21.68c-7.49-3.68-14.88-7.56-22.43-11.11-.75-.36-1.8-.64-1.61-1.88,1.34-.86,2.42.06,3.56.52a11.84,11.84,0,0,0,3.23,1.32c.57-4.66-.43-9.38.75-14,.51-1.36,1.85-1.65,2.94-2.21,8.28-4.27,16.66-8.35,25-12.51,4.85-2.43,9.72-4.84,14.57-7.28a8.48,8.48,0,0,1,3.54-1.27,2.09,2.09,0,0,1,1.49.51.85.85,0,0,1,.06.76,6.37,6.37,0,0,1-1.08,1.18,17.41,17.41,0,0,1-3.54,2c-12.66,6.32-25.29,12.72-38,18.94-2.28,1.11-3.32,2.49-3.11,5a61.69,61.69,0,0,1,0,6.8A3.52,3.52,0,0,0,64,266.21c14,6.45,27.54,13.86,41.56,20.26,6.6,3,12.74,6.95,19.45,9.75C125.81,296.56,126.64,297,126.68,298.15Z"/><path class="cls-2" d="M599.29,456.35c-.36-1.09-.73-2.18-1.09-3.27-.33-.29-.19-.81-.54-1.09,0-5.72.1-11.44,0-17.15A17.93,17.93,0,0,1,602,422.89a11.68,11.68,0,0,1,5.42-3.5,20.15,20.15,0,0,1,6.63-1.21c9.17,0,18.34,0,27.51,0,3.24,0,3.5.27,3.52,3.6,0,2.09,0,4.18,0,6.27s-.56,2.66-2.8,2.66c-9.08,0-18.16,0-27.24,0-1,0-2-.23-2.87.51a3.44,3.44,0,0,0-1.44,2.77c0,4.9,0,9.8,0,14.7,0,2.22,1.27,3.26,3.75,3.26,7.35,0,14.7,0,22.06,0,2,0,4,0,6,0,1.77,0,2.42.49,2.48,2.14.11,2.9.05,5.81,0,8.71a1.57,1.57,0,0,1-1.74,1.67H613.11a14.77,14.77,0,0,1-12.19-6c-.19-.17-.33-.38-.53-.54l-.56-1.09A5.6,5.6,0,0,0,599.29,456.35Z"/><path class="cls-2" d="M958.11,234.45a8.67,8.67,0,0,0,2.72,1.09c5.68,1.88,10.68,5.22,16.1,7.66,4.51,2,8.93,4.32,13.31,6.64a7,7,0,0,1,2.22,1.51,4.64,4.64,0,0,1,.56,2.35c0,3.27-.06,6.54,0,9.81a2.43,2.43,0,0,1-1.57,2.53c-11.06,5.49-22,11.18-33.17,16.47q-9.18,4.35-18.25,8.93c-4.3,2.15-8.63,4.24-13,6.21-2,.91-3.11,2.14-2.73,4.4.52,3.07-.51,5-3.57,6.29-2.56,1.09-4.92,2.67-7.55,3.7a24.38,24.38,0,0,0-3.85,2,5.2,5.2,0,0,1-3,1.09,1,1,0,0,1-.24-.78c.45-1.14,1.55-1.47,2.5-1.95,3.81-1.94,7.62-3.87,11.47-5.71,1.8-.86,2.73-2.1,2.44-4.07-.48-3.33,1.13-5.29,4-6.56,10.65-4.68,20.83-10.32,31.35-15.27,4.59-2.16,9.16-4.39,13.6-6.88,5.63-3.15,11.67-5.48,17.41-8.43,2-1,3-2.27,2.93-4.63-.23-9,1.19-7.19-6.95-11.14-18.31-8.88-36.48-18-54.68-27.13-1.63-.81-3.34-1.43-5-2.19a4.08,4.08,0,0,1-2.68-4.27,13.13,13.13,0,0,0-.68-5.63,1.05,1.05,0,0,1,.34-.75c2.34-.25,3,1.48,2.73,3.08-.59,4.19,1.7,5.94,5.1,7.39a42.15,42.15,0,0,1,9,5l.55.53c.71-.29,1.16.15,1.63.56,1.29.52,2.39,1.46,3.82,1.63.5.43,1.12.69,1.64,1.09,1.65.69,3.09,1.85,4.9,2.19,1.28.54,2.69.75,3.82,1.63C956.24,233.45,957.45,233.48,958.11,234.45Z"/><path class="cls-2" d="M537.31,370.21a11.78,11.78,0,0,1,2.69.29c2,.5,2.81-.18,2.54-2.2s-.86-4.24-1.36-6.34a7.12,7.12,0,0,1,.05-3.75c.81-2.7,2.95-3.5,5.4-3.78a5.75,5.75,0,0,1,3.22.31.92.92,0,0,0,1,0c.46-.41.14-.83,0-1.22a19.19,19.19,0,0,1-1.79-5.37c-.92-5.54,2.52-8.6,8-6.95,1.47.44,2.92,1,4.4,1.4,1.08.3,1.52-.16,1.24-1.24a5.7,5.7,0,0,0-1.77-2.69,28.56,28.56,0,0,1-4.82-5.84c-1.22-2-1-4-.84-6.05a2.76,2.76,0,0,1,2.16-2.24c2.84-.75,5.54-1.25,8.12,1.15,3,2.78,6.75,4.5,10.23,6.58,4,2.39,4.54,3.82,3.71,8.49a34,34,0,0,1-5.17,12.14A89.69,89.69,0,0,1,566.58,363a70.05,70.05,0,0,1-6.56,6.77c-2.88,2.6-5.65,5.33-8.59,7.88a88.77,88.77,0,0,0-9.19,8.47,2.85,2.85,0,0,1-3.54,1c-4.31-1.64-7.71-5.17-8.11-9.93S532.4,370.06,537.31,370.21Z"/><path class="cls-2" d="M443.34,344V343a7,7,0,0,0-.54-.55,9.28,9.28,0,0,0-.31-2.39,7.65,7.65,0,0,1,.06-4.24,3.68,3.68,0,0,1,1.91-2.42c3.73-2.12,7.64-4,10.85-6.92a3.71,3.71,0,0,1,2.2-.95c.05.13.1.26.16.39a2.26,2.26,0,0,1-.38,1.18c-3,2.87-6.59,4.76-10.12,6.81-3.12,1.82-3.54,2.85-2.81,6.46,1.42,7,5.23,12.71,9.72,18a213.66,213.66,0,0,0,23.4,23.11,22,22,0,0,1,2.57,2.43c1.6,2,3.31,1.82,5.25.55a10.36,10.36,0,0,0,4.59-7.4,4.27,4.27,0,0,0-3.9-5,13.37,13.37,0,0,0-3.51.24c-3.32.46-5.23-1.47-4.75-4.8.26-1.79.89-3.52,1.23-5.3.87-4.59-.62-6.25-5.32-6l-.55,0c-1.22.05-2.68.94-3.6-.26-1.08-1.41.2-2.74.76-4a16.05,16.05,0,0,0,1.41-4.67c.33-3.25-1.11-4.8-4.34-4.73-1.95.05-3.69.89-5.52,1.41-1.12.31-2.32.91-3.26-.3-.81-1.05-.55-2.23-.12-3.37a11.1,11.1,0,0,1,2.82-4,18.86,18.86,0,0,0,3.77-4.62c.85-1.6,1.24-3.22.3-4.92-.27-1-1.45-1.2-1.89-2.06,0-.12.08-.23.11-.35,3.37.3,4.86,3.26,3.39,6.81a22.88,22.88,0,0,1-5.75,7.82c-1,.9-1.83,1.81-1.27,3.52,2-.09,3.85-1.14,5.83-1.55a7.74,7.74,0,0,1,4.52.3,4.51,4.51,0,0,1,3.07,4.1,11.13,11.13,0,0,1-1,6.09,7,7,0,0,0-.94,3.23,12.62,12.62,0,0,1,6.14.18,4.51,4.51,0,0,1,3.41,4.06,12.15,12.15,0,0,1-.52,5.1,17.86,17.86,0,0,0-1,3.92c-.27,2.08.9,3.15,2.9,2.59a11.25,11.25,0,0,1,3.77-.33c3.23.18,5,1.91,5.27,5.1.55,6.28-4,10.66-8.89,12.13a1.61,1.61,0,0,1-1.74-.38c-.46-.44-.93-.87-1.36-1.34A154.17,154.17,0,0,0,467.83,375c-4-3.59-7.86-7.3-11.5-11.2-5.25-5.63-10-11.67-12.46-19.17A5.39,5.39,0,0,0,443.34,344Z"/><path class="cls-2" d="M110.19,311.76c0,.22,0,.44,0,.66a69.8,69.8,0,0,1-10.74-5.17,3.14,3.14,0,0,1-1.78-3.39c.77-3.78-1.08-5.56-4.39-7.09-8.15-3.78-16.09-8-24.17-12-4.64-2.27-9.39-4.3-14.05-6.53-3-1.44-5.93-3.07-8.93-4.56-4.86-2.42-9.73-4.84-14.65-7.15a3.9,3.9,0,0,1-2.57-4.25c.16-2.72.09-5.45,0-8.17a2.68,2.68,0,0,1,2-3c2.85-1.13,5.47-2.84,8.24-4.17,3.09-1.49,6.15-3,9.25-4.51,6.32-3,12.44-6.4,18.8-9.3,9.41-4.3,18.45-9.36,27.93-13.52,1.74-.77,3.15-1.78,2.56-4.06a3.13,3.13,0,0,1,0-.81c0-4.26.22-4.56,4.37-5.89a1,1,0,0,1,.21.78c-2.53,1.71-3.14,4.15-2.84,7,.21,2-1.2,3-2.85,3.86-6.17,3.09-12.29,6.26-18.52,9.22-13.93,6.63-27.56,13.89-41.55,20.37-4.95,2.3-7.08,5-6.41,10.45.31,2.62,1.07,4.08,3.43,5.15,12.06,5.48,23.82,11.58,35.73,17.39,9,4.38,17.75,9.1,26.82,13.25,2.49,1.13,3.81,2.68,3.39,5.44s.79,4.42,3.37,5.41a46,46,0,0,1,5.37,2.64C109,310.28,110.07,310.52,110.19,311.76Z"/><path class="cls-5" d="M906.27,314.51c0,.21,0,.42.05.64h0a4.69,4.69,0,0,0-.57.52l-.53,0c-.19.18-.38.34-.56.52l-.53,0c-.29.32-.8.19-1.08.54h0c-.3.31-.81.2-1.09.54l-.56.06a4.1,4.1,0,0,0-.53.49l-.56,0c-.79.51-1.21,0-1.62-.59q0-9.81,0-19.62c-.16-.58-1.67,0-1.08-1.22a9.57,9.57,0,0,1,3.22-2q18.95-9.54,38-18.93c6.27-3.07,12.52-6.17,18.83-9.16,2.29-1.08,3.28-2.57,3.1-5.09-.15-2.26-.06-4.53,0-6.8,0-1-.14-2,.79-2.76a.75.75,0,0,1,.75.37,43.3,43.3,0,0,1-.11,14.5c-.34,1.34-1.54,1.72-2.57,2.22-10.36,5-20.61,10.28-31,15.35-8.54,4.18-17.16,8.25-25.61,12.64a4,4,0,0,0-2.55,4c.08,4.44,0,8.89,0,13.33,0,1.36.3,1.82,1.74,1.24C903.47,314.9,904.7,313.86,906.27,314.51Z"/><path class="cls-2" d="M397.53,448.62c0,4.63,0,9.26,0,13.88,0,1.91-.12,2-2,2-2.9,0-5.81.05-8.71,0-2,0-2.32-.36-2.32-2.46,0-8.89-.14-17.78.05-26.67a18.86,18.86,0,0,1,1.9-8.65,15.64,15.64,0,0,1,10.7-8,26.62,26.62,0,0,1,6.47-.54H424c3.24,0,3.5.27,3.52,3.6,0,2.09.06,4.18,0,6.26s-.56,2.67-2.8,2.67c-7.44,0-14.88,0-22.32,0-3.8,0-4.84,1-4.85,4.83C397.52,439.91,397.53,444.27,397.53,448.62Z"/><path class="cls-2" d="M654.37,432.06V403.48c0-.64,0-1.27,0-1.91,0-1.19.55-1.9,1.78-1.9,3.18,0,6.35,0,9.53,0a1.58,1.58,0,0,1,1.75,1.66c0,.63,0,1.27,0,1.9v58.52c-.06,2.54-.25,2.75-2.85,2.78s-5.08,0-7.62,0-2.6,0-2.61-2.53c0-3.63,0-7.26,0-10.89Z"/><path class="cls-2" d="M357.72,441.43q0-9.66,0-19.33a12.09,12.09,0,0,1,.08-2.17,1.88,1.88,0,0,1,2-1.75c3.08,0,6.17.05,9.25,0a2,2,0,0,1,2.19,1.9,12,12,0,0,1,.06,1.9q0,19.61,0,39.2c0,.54,0,1.09,0,1.63a1.57,1.57,0,0,1-1.7,1.71c-3.45,0-6.9,0-10.34,0a1.48,1.48,0,0,1-1.55-1.56c0-.63,0-1.27,0-1.9Z"/><path class="cls-2" d="M707.27,447.46c0,4.9,0,9.79,0,14.69,0,2.31,0,2.35-2.22,2.37-2.81,0-5.63,0-8.44,0-1.42,0-2-.55-1.88-1.93,0-.63,0-1.27,0-1.91,0-8.43-.08-16.87,0-25.31,0-2.91-1.24-4.81-4.77-4.71-5.8.15-11.61.05-17.42,0-2.74,0-2.91-.19-2.94-3,0-2.17,0-4.35,0-6.53.05-2.59.48-3,3-3.05,6.08,0,12.17-.13,18.24,0a17.83,17.83,0,0,1,11.91,4.42A13.72,13.72,0,0,1,707.24,433C707.35,437.84,707.27,442.65,707.27,447.46Z"/><path class="cls-1" d="M897.6,219.65a121.52,121.52,0,0,0-11.85-6c-1.48-.66-2.93-1.41-4.41-2.1a2.88,2.88,0,0,1-1.76-3.05c.07-1.53-.08-3.08,0-4.61a2.91,2.91,0,0,0-1.91-3.19,21.1,21.1,0,0,1-5.22-2.82c2.55-.21,4.93,0,6.37,2.55,2.71.8,2.63,3,2.32,5.07-.51,3.41,1.18,5.05,4,6.46,3.25,1.6,6.68,2.73,9.92,4.31,1.36.66,1.83.39,1.88-1.12.08-2.26,0-4.53,0-6.79,0-2.54,0-5.08,0-7.61.07-2.75,1.79-4,4.32-2.91a61.45,61.45,0,0,1,5.77,3c.77.41,1,1.29,1.35,2l-.38.25c-2.31.11-4-1.57-6-2.24-2.33-.77-2.66-.61-2.69,1.89-.07,4.87.05,9.74-.08,14.6C899.32,218.31,899.84,220.13,897.6,219.65Z"/><path class="cls-1" d="M842.5,209.37l-.54,0-.55-.53-.55,0-.54-.52-.55,0-.54-.52-.55,0-.54-.52-.55,0-.54-.53-.55,0-.54-.52-.55,0-.54-.53h-.55c-.17-.19-.37-.34-.54-.54h-.55l-.54-.53-.55,0-.54-.53-.55,0-.54-.52h0a.34.34,0,0,1-.13-.37c0-.12.09-.18.13-.18a6.32,6.32,0,0,1,2.63.48c4.17,1.74,8.33,3.49,12.32,5.63.32.17.65.32,1,.47.95.44,1.37,0,1.48-.91a17.13,17.13,0,0,0,0-1.9c0-5.34,0-10.68,0-16a4.48,4.48,0,0,1,.31-2.39c1.2-2.14,3.23-2.78,5.15-1.26,1.09.85,3,1.26,2.72,3.33-1.62-.58-2.8-2-4.57-2.29-1.43-.27-1.8-.11-2,1.3a17,17,0,0,0,0,1.89q0,9.22,0,18.43a6.19,6.19,0,0,1-.27,2.79c-1.94,0-3.3-1.72-5.17-1.93l-.55-.53h-.54Z"/><path class="cls-1" d="M846.87,235h.54c.17.2.38.34.55.54h.54c.18.18.36.36.55.53h.54l.55.54h.54c.17.2.38.34.55.53h.54c.17.2.38.34.55.54h.54l.55.53.55,0,.54.53h.55l.54.53.55,0,.54.53h.55l.54.53h.55c.17.2.37.35.54.54a8.21,8.21,0,0,1,2.73,1.1c.14.12.18.23.14.35s-.09.19-.14.19c-.9,1-1.82.43-2.71,0-4.68-2.33-9.3-4.77-14-7-2.79-1.29-5.85-2.06-8.42-3.76-3.7-2.45-8-3.66-11.65-6.27-.79-.57-1.51-1-1.35-2.09a.33.33,0,0,1,.54,0l.55,0,.54.53.55,0,.54.52.55,0,.54.52.55,0c.19.17.37.35.54.52l.55,0c.19.17.37.34.54.52l.55,0c.19.17.37.35.54.52l.55,0c.19.17.37.34.54.52l1.65.58c.18.16.36.33.53.51,3.12,1.4,6,3.32,9.28,4.38l.54.53h.55c.16.19.38.34.54.53h.55c.16.2.38.34.54.54h.55C846.48,234.65,846.7,234.8,846.87,235Z"/><path class="cls-1" d="M459.7,254.62c1.95.59,3.28,2.16,5,3.15,2.13,1.26,2.28,1.3,3.7-.65,2.42-3.31,4-7,5.82-10.7a123.93,123.93,0,0,0,6.89-17.1c1.48-4.74,2.66-9.56,3.67-14.42a1.65,1.65,0,0,1,.57-1.17,1.38,1.38,0,0,1,.43,1.71c-1.85,5.39-2.33,11.14-4.3,16.47-1.62,4.38-3.25,8.76-5.1,13.07a67.28,67.28,0,0,1-4.89,9.61c-1,1.61-2.37,3-3.46,4.5-.41.58-1.06,1.2-1.84.85C463.54,258.77,461,257.47,459.7,254.62Z"/><path class="cls-6" d="M102,209.5l-.06-.68h0c.3-.32.81-.22,1.1-.55h0c.3-.32.81-.22,1.1-.54h0c.29-.33.81-.22,1.1-.55a4.9,4.9,0,0,0,.54,0l.56-.5.53,0,.56-.51a4.73,4.73,0,0,0,.53,0c.19-.16.37-.33.55-.51h0c.29-.32.8-.23,1.1-.55h0c.29-.32.8-.22,1.09-.55h0c.3-.32.8-.23,1.09-.55h0c.3-.32.8-.22,1.1-.55h0c.3-.32.8-.23,1.1-.55h0c.3-.32.8-.22,1.09-.55h0c.3-.31.8-.22,1.09-.55h0c.3-.32.8-.22,1.09-.55h0c.3-.31.8-.21,1.09-.55h0c.31-.31.81-.21,1.12-.53a4.53,4.53,0,0,0,.52,0l.56-.52h0c.29-.34.81-.23,1.11-.55a4.47,4.47,0,0,0,.52,0c.65-.39.77.27,1.09.54h0c0,6.62.19,13.24-.14,19.85,0,1.16.78.68,1.26.89.1,1.06-.79,1.34-1.46,1.69-4.25,2.19-8.53,4.3-12.82,6.41a2.3,2.3,0,0,1-2.54.17,1.7,1.7,0,0,0-1.35-.73c.23-1.31,1.39-1.61,2.33-2.05,3.86-1.81,7.48-4.1,11.34-5.92a3.38,3.38,0,0,0,2.12-3.43c0-4.35,0-8.7,0-13.06,0-2.15-.43-2.38-2.47-1.4-4.65,2.26-9.25,4.62-13.89,6.91C104.49,209.42,103.39,210.28,102,209.5Z"/><path class="cls-1" d="M939,225.18c-3.52-1.19-6.58-3.4-10-4.69s-5.5-3.38-4.72-7.43a2.38,2.38,0,0,0-2.13-3.15c-1,.48-1.76-.1-2.5-.54-3-1.76-6.51-2.53-9-5.07l.09-.39c2.91-.46,5.27,1.15,7.66,2.3,1.85.89,3.64,2,5.51,2.91,1.45.71,2.36,1.7,2.09,3.4-.59,3.6.74,5.71,4.39,6.76,2.85.82,5,3.27,7.77,4.36A1.56,1.56,0,0,1,939,225.18Z"/><path class="cls-1" d="M848,281.87h-.55l-.54.53a8.92,8.92,0,0,0-2.73,1.11l-.54.52-.55,0-.55.53-.54,0-.55.52-.54,0a.33.33,0,0,1-.55,0c.51-2.4,2.62-3.3,4.44-4a57.75,57.75,0,0,0,7.81-3.74c5-2.79,10.53-4.38,15.52-7.18,1-.54,2.12-1.18,3.31-.34a.32.32,0,0,1,.13.35c0,.12-.09.18-.13.18h-.54l-.54.52-.55,0-.54.51c-2.54.74-4.71,2.26-7.1,3.3-.17.18-.35.35-.54.52-2.37.65-4.38,2.08-6.6,3.05-1.06.46-2,1.23-3.22,1.34-.16.2-.38.34-.54.54h-.55c-.16.19-.38.33-.54.53h-.55c-.16.2-.38.34-.54.54h-.55C848.33,281.53,848.12,281.67,848,281.87Z"/><path class="cls-1" d="M992.46,251.35a13.07,13.07,0,0,1-1.53-.51c-7.07-3.46-14.07-7.07-21.22-10.38-2.76-1.28-5.37-2.92-8.19-4.11-.29-.12-.46-.54-.69-.81,1.2-.84,2.31-.15,3.32.33,3.26,1.56,6.47,3.22,9.69,4.86.24.12.42.41.66.47,3.68.89,6.38,3.74,9.86,5a26.73,26.73,0,0,1,6.71,3.37C991.76,250,992.46,250.38,992.46,251.35Z"/><path class="cls-1" d="M480.42,249.71a77.19,77.19,0,0,1-5.81,10.39c-1.61,2.48-1.57,2.78,1,4.09a80.56,80.56,0,0,0,19.72,7.53c.15,0,.26.23.4.35-.24.28-.53.57-.91.49-3.14-.65-6.36-.75-9.3-2.48-2.3-1.36-5-2-7.56-2.94a29.92,29.92,0,0,1-3.2-1.49c-1.84-1-2.57-2.32-1.82-4.25.58-1.48.94-3.17,2.13-4.33a11.11,11.11,0,0,0,2.47-4.13C478.05,251.57,478.49,249.91,480.42,249.71Z"/><path class="cls-1" d="M806,182.11l-.55,0-.54-.52-.55,0c-.18-.17-.37-.35-.54-.53l-.55,0c-.19-.17-.37-.34-.54-.52l-.55,0-.55-.53-.54,0-.55-.52-.54,0c-.19-.17-.37-.35-.55-.53h-.54l-.55-.53-.54,0c-.19-.17-.37-.35-.55-.53l-.55,0-.54-.52c-2.22-.53-4.06-1.9-6.12-2.79-1.24-.53-2.33-1.38-3.7-1.6l-.54-.52-.55,0-.54-.51-.55,0-.54-.52c-.91-.55-2-.76-2.73-1.63.85-1,1.65-.25,2.4.11,3.63,1.78,7.18,3.76,10.89,5.38,6.78,3,13.26,6.55,19.93,9.75a8.68,8.68,0,0,1,.95.51,1.28,1.28,0,0,1,.19,2.24h0l-.51-.54-.59-.58-.54-.52-.55,0-.54-.51-.55,0q-.27-.24-.54-.51l-.55,0-.54-.51-.55,0-.54-.52-.55,0-.54-.52-.55,0-.54-.53-.55,0Z"/><path class="cls-2" d="M364.46,399.66c1.63,0,3.26,0,4.89,0a1.73,1.73,0,0,1,2,2c0,2.35.06,4.71,0,7.05a2.16,2.16,0,0,1-2.36,2.39c-3,.08-6,.06-9,0a2.13,2.13,0,0,1-2.25-2.24c-.06-2.44,0-4.88,0-7.32a1.64,1.64,0,0,1,1.84-1.85Z"/><path class="cls-1" d="M496.78,272.07l2.45.72c-2.75,4.73-7.07,7.48-11.51,10a21.28,21.28,0,0,1-8.94,2.86c0-1.13.78-1.48,1.74-1.75a46.47,46.47,0,0,0,11-5.16c1.91-1.14,3.21-2.9,4.77-4.4C497,273.76,496.74,272.87,496.78,272.07Z"/><path class="cls-1" d="M874.68,248.62c2.71.77,5,2.38,7.57,3.53,3,1.33,5.71,3.09,8.79,4.15.19.16.37.33.54.5l.55,0q.27.24.54.51l.55,0,.54.51.55,0q.27.24.54.51h0a.3.3,0,0,1,.1.33c0,.1-.07.16-.1.16-1.19.1-2.06,1.1-3.27,1.14,0-.76,0-1.56-.91-1.77-2.56-.6-4.35-2.53-6.59-3.7-2.65-1.38-5.4-2.55-8.05-3.93-.87-.46-1.91-.77-1.9-2A.34.34,0,0,1,874.68,248.62Z"/><path class="cls-1" d="M447.15,291.15c-1.87,2.34-4.39,4-6.74,5.69-3,2.21-6,4.63-9.35,6.32-1,.52-2.06,1.09-3.08,1.66-.77.44-1.72.64-2.09,1.6-.89-.78-.53-1.46.24-2a14.81,14.81,0,0,1,2.56-1.53c4.48-1.88,7.94-5.33,12-7.83a18.74,18.74,0,0,0,4-3.08A2.86,2.86,0,0,1,447.15,291.15Z"/><path class="cls-1" d="M422.61,300.42c.2-.18.36-.46.59-.54,3.78-1.33,7.06-3.59,10.52-5.52,2.6-1.46,4.88-3.38,7.33-5.06a17.45,17.45,0,0,1,2.29-1.42c-.18,2.24-2.12,3.14-3.58,4.14a87.84,87.84,0,0,1-14.45,8.41C424.41,300.83,423.51,301.42,422.61,300.42Z"/><path class="cls-1" d="M491.32,224.63c-1.12,4.18-3.11,8-4.68,12-1.52,3.84-3.41,7.53-5.3,11.21a2.67,2.67,0,0,1-.92,1.3,3.69,3.69,0,0,1,.17-2.59c2.79-5.16,4.67-10.74,7.3-16C488.91,228.58,489.33,226.13,491.32,224.63Z"/><path class="cls-1" d="M471.69,285.7a20,20,0,0,1-10-3.74c-2.14-1.61-2.33-1.61-4.74-.08.22-2.82,1.4-3.57,3.78-2.15a29.77,29.77,0,0,0,9,4A2,2,0,0,1,471.69,285.7Z"/><path class="cls-1" d="M476.05,210.46c-1.26.9-2.82.67-4.2.85-2.4.3-4.79.93-7.25.78a2.91,2.91,0,0,1,2-1.66,35.3,35.3,0,0,1,8.19-1.06A1.12,1.12,0,0,1,476.05,210.46Z"/><path class="cls-1" d="M485.33,212.64c.21-2.16-.13-2.62-2.07-2.73s-3.67.83-5.57.55c.05-.67.26-1.35.95-1.46,1.93-.3,3.81-1,5.81-.69a2.55,2.55,0,0,1,2.33,1.92A1.78,1.78,0,0,1,485.33,212.64Z"/><path class="cls-1" d="M427.52,209.37a133.21,133.21,0,0,1,16.36-4.91c-.08.35-.09.85-.49.9-2.48.3-4.59,1.9-7.21,1.91-1.62,0-3,1.13-4.4,2A3.68,3.68,0,0,1,427.52,209.37Z"/><path class="cls-1" d="M871.4,197.37a90.32,90.32,0,0,1-13.09-6.54,1,1,0,0,1,1.42-.36c3.58,1.84,7.3,3.42,10.65,5.68A5.56,5.56,0,0,1,871.4,197.37Z"/><path class="cls-7" d="M579.83,463.42a7.12,7.12,0,0,1-.8,0c-1-.13-1.87-.61-1.79-1.6s1.1-1,1.91-1.09a3.57,3.57,0,0,1,.8,0c1,.08,2,.18,2.32,1.35C582.48,463,581.49,463.46,579.83,463.42Z"/><path class="cls-1" d="M824,200.1l-.54,0-.55-.53a8.65,8.65,0,0,0-2.73-1.1l-.54-.53h-.55a4.59,4.59,0,0,0-.54-.54h0a1.27,1.27,0,0,1,1.67-.43c2.33,1.09,4.63,2.25,6.92,3.42a1.5,1.5,0,0,1,.68,1.37l-2.18-.56c-.19-.18-.37-.35-.54-.53l-.55,0Z"/><path class="cls-2" d="M506.6,556.14a2,2,0,0,1-.65,1.44c-2.18,1.87-3.74,4.33-6,6.11a10.81,10.81,0,0,1-4.22,2.26l-.12-.36c3.8-3,6.56-7.21,11-9.5Z"/><path class="cls-1" d="M454.79,274.25c-1.64-1.81-2.07-4.15-2.64-6.38a15.34,15.34,0,0,1-.6-2.88c1.23.65,1.51,1.95,2,3.06.62,1.47,1,3,1.53,4.54C455.29,273.22,455.44,273.79,454.79,274.25Z"/><path class="cls-2" d="M123.24,317.87q0-9.08,0-18.16a8.38,8.38,0,0,1,.09-1.88c.15-.64.59-.51,1-.14-.83.7-.53,1.66-.53,2.53,0,5,0,10.08,0,15.12C123.77,316.2,124.07,317.16,123.24,317.87Z"/><path class="cls-7" d="M468.42,433.44H447.16c.52-.68,1.28-.54,2-.54h17.27C467.13,432.91,467.88,432.77,468.42,433.44Z"/><path class="cls-7" d="M575.85,437.27c-.8.89-1.87.52-2.82.53-6,0-11.93,0-17.9,0,.8-.89,1.86-.52,2.81-.52C563.91,437.25,569.88,437.27,575.85,437.27Z"/><path class="cls-7" d="M555.12,449.81h19.64c-.53.68-1.29.54-2,.54H557.11C556.41,450.35,555.65,450.49,555.12,449.81Z"/><path class="cls-1" d="M884.49,263.88a3.56,3.56,0,0,1-1.63.55l-.55.54h-.55l-.54.53h-.55l-.54.53-.55,0-.54.53a3.57,3.57,0,0,1-1.64.56l-.27.22-.27-.22c.54-1.87,2.09-2.61,3.72-3.12a29.59,29.59,0,0,1,3.91-.7.34.34,0,0,1,.12.36Q884.55,263.88,884.49,263.88Z"/><path class="cls-2" d="M897.51,297.11c.32.34,1.22-.49,1.17.58a75.59,75.59,0,0,0-9.82,4.36l-.06-.7A12.81,12.81,0,0,1,897.51,297.11Z"/><path class="cls-1" d="M865.41,244.26a19.19,19.19,0,0,1,5.44,2.2c.15.12.19.23.15.35s-.09.18-.14.18-.27.36-.37.34c-2.25-.33-4.33-1-5.63-3.07A.34.34,0,0,1,865.41,244.26Z"/><path class="cls-1" d="M452.06,286.79c-1.08,1.32-1.95,2.87-3.82,3.27C448.59,287.65,449.36,287,452.06,286.79Z"/><path class="cls-7" d="M443.87,420.37v9.27c-.15-.22-.44-.43-.43-.64C443.51,426.12,442.77,423.2,443.87,420.37Z"/><path class="cls-1" d="M444.43,286.79a6.36,6.36,0,0,1,3.27-2.73C447.23,286.48,447.08,286.61,444.43,286.79Z"/><path class="cls-2" d="M781.81,346.14l.7.12c-1.81,1.43-4,2.11-6,3.23l-.06-.69A5.66,5.66,0,0,1,781.81,346.14Z"/><path class="cls-1" d="M889.94,261.15c-1.27.54-2.38,1.46-3.81,1.65a.34.34,0,0,1-.55,0,4.3,4.3,0,0,1,4.36-2.18.32.32,0,0,1,.13.35C890,261.09,890,261.15,889.94,261.15Z"/><path class="cls-1" d="M873.59,269.33H873c.34-2.36,2.11-2.2,3.82-2.18a.34.34,0,0,1,.12.36c0,.12-.08.17-.13.17a7.89,7.89,0,0,1-2.72,1.11C874,269,873.74,269.13,873.59,269.33Z"/><path class="cls-2" d="M879.6,314.59c0-2.06,0-4.12,0-6.18,0-.7-.14-1.46.54-2,0,2.06,0,4.11,0,6.17C880.12,313.3,880.27,314.06,879.6,314.59Z"/><path class="cls-1" d="M955.38,232.81a5.59,5.59,0,0,1-3.82-1.63C953.11,231.08,954.61,231.09,955.38,232.81Z"/><path class="cls-1" d="M453.16,251.35c.09-1,.61-1.29,1.47-.84a2.9,2.9,0,0,1,1.25,1.38A4.44,4.44,0,0,1,453.16,251.35Z"/><path class="cls-1" d="M452.08,256.25a4.23,4.23,0,0,1,.53-2.72C453.92,254.81,453.92,254.81,452.08,256.25Z"/><path class="cls-1" d="M958.11,234.45a3.38,3.38,0,0,1-2.73-1.64C956.61,232.82,958,232.63,958.11,234.45Z"/><path class="cls-1" d="M476.6,285.7a1.87,1.87,0,0,1-2.73,0C474.78,284.62,475.69,285.6,476.6,285.7Z"/><path class="cls-1" d="M456.42,252.44a2.57,2.57,0,0,1,2.18,1.63C457.44,254.11,456.26,254.18,456.42,252.44Z"/><path class="cls-2" d="M494.61,566.5a5.76,5.76,0,0,1-3.82,1.64l0,0c.54-1.84,1.94-2.07,3.55-1.87Z"/><path class="cls-2" d="M459.13,324.39a4.32,4.32,0,0,1,4.39,0l0,0a3.9,3.9,0,0,1-4,.3Z"/><path class="cls-2" d="M471.14,414.12a.47.47,0,0,1-.44-.51c0-.37.15-.71.58-.59.15.05.27.39.31.62S471.43,414.09,471.14,414.12Z"/><path class="cls-1" d="M941.2,226.27a3.57,3.57,0,0,1-1.63-.56C940.48,224.83,941,225.11,941.2,226.27Z"/><path class="cls-1" d="M946.66,229A1.64,1.64,0,0,1,945,227.9,1.67,1.67,0,0,1,946.66,229Z"/><path class="cls-2" d="M898.67,317.31a3.77,3.77,0,0,0,1.63.59C899.37,318.75,898.87,318.46,898.67,317.31Z"/><path class="cls-2" d="M123.24,199.55l-1.09-.54C123,198.18,123.13,198.86,123.24,199.55Z"/><path class="cls-1" d="M451.55,258.43a1,1,0,0,1,.51-1.08C452.75,258.11,451.86,258.14,451.55,258.43Z"/><path class="cls-2" d="M814.71,330.4a1.08,1.08,0,0,1,.53-1.08A1.12,1.12,0,0,1,814.71,330.4Z"/><path class="cls-2" d="M775.43,350a1.16,1.16,0,0,1,1.09-.54A1.12,1.12,0,0,1,775.43,350Z"/><path class="cls-2" d="M772.7,350.59h1.09C773.43,351.14,773.07,351.14,772.7,350.59Z"/><path class="cls-2" d="M105.26,207.19a1.22,1.22,0,0,1-1.1.55A1.09,1.09,0,0,1,105.26,207.19Z"/><path class="cls-2" d="M109.62,205a1.2,1.2,0,0,1-1.1.55A1.09,1.09,0,0,1,109.62,205Z"/><path class="cls-2" d="M121.63,199a1.23,1.23,0,0,1-1.11.55A1.08,1.08,0,0,1,121.63,199Z"/><path class="cls-2" d="M111.79,203.92a1.18,1.18,0,0,1-1.09.55A1.09,1.09,0,0,1,111.79,203.92Z"/><path class="cls-2" d="M110.7,204.46a1.17,1.17,0,0,1-1.09.55A1.1,1.1,0,0,1,110.7,204.46Z"/><path class="cls-1" d="M909.58,203.37a1.12,1.12,0,0,1,1.09.54h0c-.47.44-.85.29-1.17-.2Z"/><path class="cls-2" d="M112.89,203.37a1.19,1.19,0,0,1-1.1.55A1.11,1.11,0,0,1,112.89,203.37Z"/><path class="cls-2" d="M119.45,200.11a1.26,1.26,0,0,1-1.12.53A1.14,1.14,0,0,1,119.45,200.11Z"/><path class="cls-1" d="M908.49,202.82a1.13,1.13,0,0,1,1.09.55h0c-.62.35-1.09.38-1.09-.54Z"/><path class="cls-2" d="M114,202.83a1.21,1.21,0,0,1-1.1.55A1.09,1.09,0,0,1,114,202.83Z"/><path class="cls-2" d="M115.06,202.28a1.17,1.17,0,0,1-1.09.55A1.1,1.1,0,0,1,115.06,202.28Z"/><path class="cls-2" d="M116.15,201.73a1.17,1.17,0,0,1-1.09.55A1.12,1.12,0,0,1,116.15,201.73Z"/><path class="cls-2" d="M849.05,304.78c.15-.29.32-.54.71-.37-.06.12-.11.25-.17.37Z"/><path class="cls-2" d="M458.05,325a1.19,1.19,0,0,1,1.08-.56l0,.05c.13.72-.31.77-.84.73Z"/><path class="cls-2" d="M117.24,201.19a1.19,1.19,0,0,1-1.09.55A1.1,1.1,0,0,1,117.24,201.19Z"/><path class="cls-2" d="M103.07,208.28a1.23,1.23,0,0,1-1.1.55A1.13,1.13,0,0,1,103.07,208.28Z"/><path class="cls-2" d="M114.52,314.61a1.12,1.12,0,0,1,1.08.53A1.12,1.12,0,0,1,114.52,314.61Z"/><path class="cls-2" d="M118.33,200.64a1.19,1.19,0,0,1-1.09.55A1.12,1.12,0,0,1,118.33,200.64Z"/><path class="cls-2" d="M115.6,315.14a1.16,1.16,0,0,1,1.1.55A1.14,1.14,0,0,1,115.6,315.14Z"/><path class="cls-2" d="M903,316.78a1.15,1.15,0,0,1,1.08-.54A1.13,1.13,0,0,1,903,316.78Z"/><path class="cls-7" d="M597.66,452a1.12,1.12,0,0,1,.54,1.09A1.12,1.12,0,0,1,597.66,452Z"/><path class="cls-2" d="M901.94,317.32a1.2,1.2,0,0,1,1.09-.54A1.11,1.11,0,0,1,901.94,317.32Z"/><path class="cls-2" d="M104.16,207.74a1.19,1.19,0,0,1-1.1.54A1.1,1.1,0,0,1,104.16,207.74Z"/><path class="cls-2" d="M495.69,566a1.16,1.16,0,0,1-1.08.55l-.05,0c.05-.81.48-.85,1.09-.56Z"/><path class="cls-2" d="M850.14,329.33h1.09C850.86,329.87,850.5,329.87,850.14,329.33Z"/><path class="cls-2" d="M793.43,208.3l.54.52Z"/><path class="cls-2" d="M794.52,208.84l.54.53Z"/><path class="cls-2" d="M795.61,209.38l.54.53Z"/><path class="cls-2" d="M796.7,209.92l.54.54Z"/><path class="cls-2" d="M797.79,210.47l.54.53Z"/><path class="cls-2" d="M798.88,211l.55.54Z"/><path class="cls-2" d="M804.33,213.74l.55.53Z"/><path class="cls-2" d="M805.42,214.28l.55.54Z"/><path class="cls-2" d="M810.88,217l.54.53Z"/><path class="cls-2" d="M812,217.56l.54.53Z"/><path class="cls-2" d="M813.06,218.1l.54.53Z"/><path class="cls-2" d="M814.15,218.65l.54.53Z"/><path class="cls-2" d="M815.24,219.19l.54.54Z"/><path class="cls-2" d="M816.33,219.73l.55.54Z"/><path class="cls-2" d="M817.42,220.28l.55.54Z"/><path class="cls-2" d="M820.15,221.39l.54.52Z"/><path class="cls-2" d="M821.24,221.93l.54.52Z"/><path class="cls-2" d="M822.33,222.47l.54.53Z"/><path class="cls-2" d="M824,223.54h-.54c0-.17,0-.35,0-.53Z"/><path class="cls-2" d="M861.59,242.63v-.54l.55.53Z"/><path class="cls-2" d="M862.68,242.63l.54.54Z"/><path class="cls-2" d="M863.77,243.18l.55.54Z"/><path class="cls-2" d="M865.41,244.26h-.55v-.53Z"/><path class="cls-2" d="M870.86,247c0-.18,0-.35,0-.53l.55.53Z"/><path class="cls-2" d="M872,247l.54.52Z"/><path class="cls-2" d="M873,247.55l.55.53Z"/><path class="cls-2" d="M874.68,248.62h-.55v-.52Z"/><path class="cls-1" d="M455.88,251.89l.54.55Z"/><path class="cls-2" d="M891.58,260.07l-.54.54Z"/><path class="cls-2" d="M889.94,261.15v-.53h.55Z"/><path class="cls-2" d="M885.58,262.8h.55l-.55.53Z"/><path class="cls-2" d="M884.49,263.88v-.54H885Z"/><path class="cls-2" d="M873,269.34l-.55.54Z"/><path class="cls-2" d="M871.4,270.42v-.53H872Z"/><path class="cls-2" d="M840.32,285.15h.55l-.55.53Z"/><path class="cls-2" d="M839.78,285.7c-.19.17-.37.35-.55.53C839.41,286.05,839.59,285.87,839.78,285.7Z"/><path class="cls-2" d="M838.69,286.24l-.55.53Z"/><path class="cls-2" d="M774.33,166.8l-.54-.51Z"/><path class="cls-2" d="M837.59,286.79l-.54.52Z"/><path class="cls-2" d="M775.43,167.35l-.54-.51Z"/><path class="cls-2" d="M776.52,167.9l-.54-.52Z"/><path class="cls-2" d="M836.5,287.33l-.54.52Z"/><path class="cls-2" d="M777.61,168.45l-.54-.52Z"/><path class="cls-2" d="M834.32,288.42l-.54.52Z"/><path class="cls-2" d="M833.23,289l-.54.53Z"/><path class="cls-2" d="M832.14,289.51l-.54.53Z"/><path class="cls-2" d="M831.05,290.06l-.54.53Z"/><path class="cls-2" d="M830,290.61l-.54.52Z"/><path class="cls-2" d="M778.7,169l-.54-.52Z"/><path class="cls-2" d="M828.87,291.15l-.54.53Z"/><path class="cls-2" d="M827.78,291.7l-.55.52Z"/><path class="cls-2" d="M826.69,292.24l-.55.53Z"/><path class="cls-2" d="M825.6,292.79l-.55.53Z"/><path class="cls-2" d="M824.51,293.33l-.55.53Z"/><path class="cls-2" d="M823.42,293.88l-.55.53Z"/><path class="cls-2" d="M821.78,294.42l-.54.54Z"/><path class="cls-2" d="M820.69,295l-.55.54Z"/><path class="cls-2" d="M819.6,295.51l-.55.54Z"/><path class="cls-2" d="M818,296.6l-.54.52Z"/><path class="cls-2" d="M779.79,169.53l-.54-.51Z"/><path class="cls-2" d="M124.88,297.74l.54.5Z"/><path class="cls-2" d="M810.33,300.42l-.54.52Z"/><path class="cls-2" d="M809.24,301l-.54.52Z"/><path class="cls-2" d="M808.15,301.51l-.54.52Z"/><path class="cls-2" d="M807.05,302.05l-.54.52Z"/><path class="cls-2" d="M806,302.6l-.54.51Z"/><path class="cls-2" d="M804.87,303.14l-.54.52Z"/><path class="cls-2" d="M802.69,304.24l-.54.51Z"/><path class="cls-2" d="M801.6,304.78l-.54.51Z"/><path class="cls-2" d="M800.51,305.33l-.54.51Z"/><path class="cls-2" d="M798.88,305.87c-.18.18-.36.36-.55.53C798.52,306.23,798.7,306.05,798.88,305.87Z"/><path class="cls-2" d="M797.79,306.42l-.55.53Z"/><path class="cls-2" d="M844.14,307l.54-.52Z"/><path class="cls-2" d="M796.7,307l-.55.54Z"/><path class="cls-2" d="M795.61,307.51l-.55.53Z"/><path class="cls-2" d="M794.52,308.05l-.55.53Z"/><path class="cls-2" d="M793.42,308.6l-.54.52Z"/><path class="cls-2" d="M840.32,309.14l.55-.54Z"/><path class="cls-2" d="M792.33,309.14l-.54.53Z"/><path class="cls-2" d="M839.23,309.69l.55-.54Z"/><path class="cls-2" d="M791.24,309.69l-.54.52Z"/><path class="cls-2" d="M838.14,310.23l.55-.54Z"/><path class="cls-2" d="M790.15,310.23l-.54.52Z"/><path class="cls-2" d="M837.05,310.78l.55-.54Z"/><path class="cls-2" d="M789.06,310.78l-.54.52Z"/><path class="cls-2" d="M788,311.32l-.54.53Z"/><path class="cls-2" d="M786.88,311.87l-.54.53Z"/><path class="cls-2" d="M833.24,312.41l.54-.52Z"/><path class="cls-2" d="M110.15,312.43l.56.53Z"/><path class="cls-2" d="M785.79,312.41l-.54.53Z"/><path class="cls-2" d="M111.25,313l.55.52Z"/><path class="cls-2" d="M784.7,313l-.54.53Z"/><path class="cls-2" d="M112.34,313.52l.55.52Z"/><path class="cls-2" d="M783.61,313.5l-.54.53Z"/><path class="cls-2" d="M782.52,314.05l-.55.53Z"/><path class="cls-2" d="M879,315.68l.54-.54Z"/><path class="cls-2" d="M905.74,315.68l.57-.52Z"/><path class="cls-2" d="M117.25,315.73l.54.5Z"/><path class="cls-2" d="M878.49,316.23l.55-.54Z"/><path class="cls-2" d="M904.65,316.22l.56-.52Z"/><path class="cls-2" d="M118.34,316.26l.54.51Z"/><path class="cls-2" d="M824.51,316.78l.54-.52Z"/><path class="cls-2" d="M877.4,316.78l.55-.54Z"/><path class="cls-2" d="M119.43,316.8l.54.52Z"/><path class="cls-2" d="M120.52,317.35l.54.52Z"/><path class="cls-2" d="M900.85,317.87l.53-.49Z"/><path class="cls-2" d="M121.61,317.9l.55.51Z"/><path class="cls-2" d="M122.68,318.41l.56-.54Z"/><path class="cls-2" d="M773.79,318.41l-.54.51Z"/><path class="cls-2" d="M772.7,319l-.54.54Z"/><path class="cls-2" d="M818,320.05l.55-.53Z"/><path class="cls-2" d="M816.87,320.59l.55-.52Z"/><path class="cls-2" d="M815.78,321.14l.55-.53Z"/><path class="cls-2" d="M861,325l.55-.53Z"/><path class="cls-2" d="M457.5,325.48l.55-.53.05.06c0,.43-.12.63-.57.5Z"/><path class="cls-2" d="M860,325.5l.55-.53Z"/><path class="cls-2" d="M858.86,326l.55-.53Z"/><path class="cls-2" d="M855.05,327.68l.54-.51Z"/><path class="cls-2" d="M854,328.23l.54-.52Z"/><path class="cls-2" d="M852.86,328.77l.55-.52Z"/><path class="cls-2" d="M851.77,329.32l.55-.53Z"/><path class="cls-1" d="M857.22,190.8l-.54-.52Z"/><path class="cls-2" d="M815.78,196.27l-.54-.53Z"/><path class="cls-2" d="M814.15,331l.54-.53Z"/><path class="cls-2" d="M812.51,332l.55-.54Z"/><path class="cls-2" d="M811.42,332.59l.55-.54Z"/><path class="cls-2" d="M807.6,334.22l.55-.51Z"/><path class="cls-2" d="M816.87,196.81l-.54-.53Z"/><path class="cls-2" d="M806.51,334.77l.55-.52Z"/><path class="cls-2" d="M805.42,335.31l.55-.52Z"/><path class="cls-2" d="M798.88,338.58l.54-.52Z"/><path class="cls-2" d="M791.24,342.4l.55-.53Z"/><path class="cls-7" d="M442.79,342.4l.54.55Z"/><path class="cls-2" d="M790.15,343l.55-.54Z"/><path class="cls-2" d="M113.43,314.06l.55.53Z"/><path class="cls-2" d="M788,344l.55-.54Z"/><path class="cls-7" d="M443.34,344l.53.54Z"/><path class="cls-2" d="M784.16,345.67l.54-.5Z"/><path class="cls-2" d="M783.07,346.22l.53-.51Z"/><path class="cls-2" d="M818,197.36l-.54-.53Z"/><path class="cls-1" d="M872,197.91l-.55-.54Z"/><path class="cls-2" d="M774.34,350.58l.54-.53Z"/><path class="cls-2" d="M120.53,199.56l-.56.52Z"/><path class="cls-2" d="M776,199.59l.54.51Z"/><path class="cls-2" d="M777.07,200.13l.54.51Z"/><path class="cls-2" d="M778.16,200.67l.54.52Z"/><path class="cls-2" d="M779.25,201.21l.54.52Z"/><path class="cls-2" d="M780.34,201.76l.54.52Z"/><path class="cls-2" d="M828.32,202.28l-.54-.55Z"/><path class="cls-2" d="M781.43,202.3l.54.52Z"/><path class="cls-2" d="M829.42,202.82l-.55-.54Z"/><path class="cls-2" d="M782.52,202.85l.54.52Z"/><path class="cls-2" d="M830.51,202.82v.55l-.55-.54Z"/><path class="cls-2" d="M783.61,203.39l.54.52Z"/><path class="cls-2" d="M784.7,203.94l.55.52Z"/><path class="cls-2" d="M785.79,204.48l.55.52Z"/><path class="cls-2" d="M786.88,205l.55.52Z"/><path class="cls-2" d="M108.53,205.55l-.55.51Z"/><path class="cls-2" d="M788,205.57l.54.53Z"/><path class="cls-7" d="M443.88,429.64l.55.54Z"/><path class="cls-7" d="M575.85,430.2l.54.53Z"/><path class="cls-7" d="M577.48,431.27l.55.55Z"/><path class="cls-7" d="M578,431.82l.54.54Z"/><path class="cls-2" d="M107.45,206.1l-.56.51Z"/><path class="cls-7" d="M577.48,436.73l-.54.54Z"/><path class="cls-2" d="M789.06,206.12l.55.52Z"/><path class="cls-7" d="M554,448.72l.55.54Z"/><path class="cls-7" d="M554.58,449.27l.54.54Z"/><path class="cls-2" d="M106.36,206.65l-.56.5Z"/><path class="cls-2" d="M790.16,206.67l.54.52Z"/><path class="cls-7" d="M599.29,456.35l.54.55Z"/><path class="cls-7" d="M600.39,458l.53.54Z"/><path class="cls-2" d="M791.25,207.21l.54.52Z"/><path class="cls-2" d="M792.34,207.75l.54.53Z"/><path class="cls-2" d="M789.06,343.49l.55-.53Z"/><path class="cls-8" d="M125.58,258.77l7.45,3.69,49.84,24.63L219,305q14.17,7,28.37,13.94c1.07.52,1.8,1,1.79,2.39,0,9.27,0,18.54-.05,27.81,0,.15-.15.3-.29.57a9.91,9.91,0,0,1-3.49-1.26c-6.5-3.25-13-6.53-19.49-9.76-5.05-2.5-10.05-5.1-15.21-7.34-2.43-1.05-3.29-2.46-3-5,.16-1.34,0-2.72,0-4.08a2.36,2.36,0,0,0-1.59-2.53c-3.38-1.56-6.73-3.19-10.07-4.84q-22-10.87-43.95-21.79c-14.9-7.37-29.79-14.76-44.73-22.05-2-.95-2.85-2-2.77-4.29.19-5.72.12-11.45,0-17.18a3.05,3.05,0,0,1,2.12-3.25c7.05-3.35,14-6.92,21-10.38q24.19-12,48.38-23.9c9.7-4.78,19.4-9.55,29.15-14.21,1.83-.87,2.67-1.9,2.43-3.92-.14-1.26.09-2.56-.05-3.81-.22-2,.55-3,2.39-3.95,11.93-5.79,23.79-11.74,35.68-17.6,1-.47,1.81-1.24,3-1.15.66.48.46,1.16.46,1.75,0,8.63,0,17.27,0,25.9a3.18,3.18,0,0,1-2.11,3.31q-22.89,11.21-45.72,22.51c-14.75,7.28-29.46,14.62-44.21,21.9-9.69,4.79-19.41,9.52-29.1,14.3A5.13,5.13,0,0,0,125.58,258.77Z"/><path class="cls-8" d="M107.54,228.56a3.31,3.31,0,0,0,2-.65q6.89-3.41,13.75-6.84a2.07,2.07,0,0,0,1.06-.78q8.91-4.08,17.63-8.57a2.25,2.25,0,0,0,1.35-2.39c-.05-1.72.06-3.45,0-5.17A2.55,2.55,0,0,1,145,201.4c7.92-3.65,15.65-7.69,23.44-11.6a5.51,5.51,0,0,1,3-.91,4.19,4.19,0,0,1,.32,2.46c0,6-.05,12,0,18a3.33,3.33,0,0,1-2.13,3.57c-18.76,9.19-37.46,18.5-56.2,27.75-11.07,5.47-22.18,10.88-33.26,16.34a5.09,5.09,0,0,0-2.58,1.74,29.87,29.87,0,0,0,4.73,2.52l23.46,11.57,48.36,23.91c5.21,2.58,10.41,5.17,15.67,7.64a3,3,0,0,1,1.94,3.14c-.08,6.18,0,12.36,0,18.54,0,.27,0,.54,0,.81-.11,1.57-.37,1.75-1.83,1.06-3.7-1.75-7.39-3.51-11.05-5.32-4.56-2.26-9.06-4.63-13.65-6.83a2.84,2.84,0,0,1-1.94-3.13c.13-1.62,0-3.27,0-4.9,0-.85-.06-1.63-1-2.07-5.22-2.53-10.23-5.52-15.69-7.53a5.4,5.4,0,0,0-2.28-1.42Q99.52,284.45,74.62,272.2c-3.9-1.92-7.75-4-11.68-5.83a3.09,3.09,0,0,1-2-3.36c.13-3,.12-6,0-9a2.91,2.91,0,0,1,1.93-3.12c9-4.36,17.9-8.8,26.84-13.24q7.42-3.69,14.83-7.44a5.08,5.08,0,0,0,1.85-1.11c.24-.47.77-.37,1.14-.58Z"/><path class="cls-1" d="M103.67,270.72c-8.32-4.12-16.19-8.18-24.32-11.84,1.68-1.66,17.42-9.57,24.32-12.26Z"/><polygon class="cls-1" points="103.61 270.43 103.84 270.56 103.73 270.66 103.61 270.43"/><path class="cls-8" d="M387.46,232c1.62,1.22,3.61,1.65,5.41,2.47,2,.9,2.07,1,.84,2.68-4.45,6-8.92,11.93-13.75,17.59a17.82,17.82,0,0,1-3.85,3.45c-2.55,1.64-4.28,1.21-5.9-1.43a36.61,36.61,0,0,1-2.9-7,85.47,85.47,0,0,0-14.37-26.11c-5-6.1-11.06-10.94-17.18-15.83-5-4-10.44-7.25-15.14-11.55a23.85,23.85,0,0,1-5.74-7.86,2.23,2.23,0,0,1-.12-2.32c.73-1.08,1.63-1.14,2.84-.75a73.59,73.59,0,0,0,11.9,2.84c13.83,2.07,26.28-1.21,37.56-9.38,8.71-6.31,15.57-14.39,22-22.88,7.4-9.78,14-20.12,20.95-30.23,7-10.27,14.36-20.34,23.29-29.08,9.19-9,19.61-16.14,32.34-19.31.44-.11.88-.23,1.31-.36,1.21-.38,1.83.11,2.2,1.29a39.51,39.51,0,0,0,4.73,10.08c6.82,10.38,15.88,17.62,28.38,19.82,4.22.75,8.53.16,12.79.31a28.41,28.41,0,0,0,8.88-1.18,40.72,40.72,0,0,0,18.34-11.29A45.93,45.93,0,0,0,553,78.44c.61-1.86.79-1.9,2.82-1.39a65.93,65.93,0,0,1,24.49,12.07c8.42,6.48,15.38,14.34,21.84,22.7,8.17,10.58,15.35,21.84,22.91,32.84,6,8.68,12.17,17.21,19.46,24.84,6.25,6.53,13.31,12.09,21.76,15.61a49.64,49.64,0,0,0,28.61,2.7,88.81,88.81,0,0,0,9.75-2.51c.91-.28,1.66-.52,2.47.31s.62,1.78.21,2.74c-2.14,4.93-5.84,8.51-10.17,11.45-5.71,3.89-11.08,8.23-16.47,12.53-12.26,9.77-20.55,22.37-25.73,37.1a45.07,45.07,0,0,1-2.69,6.83c-1.86,3.37-3.69,3.76-6.82,1.48a32.78,32.78,0,0,1-6.17-6.5c-3.66-4.63-7.2-9.34-10.76-14-1.28-1.68-1.2-1.83.74-2.67a46,46,0,0,0,5.69-2.6c-1.42-2.22-3.52-3.66-5.43-5.23-7.91-6.55-16.89-11.26-26.35-15.17a193.83,193.83,0,0,0-33.6-10,261.76,261.76,0,0,0-32.85-4.63c-4.88-.41-9.78-.53-14.68-.72-4.26-.16-8.52-.37-12.78-.29-17.52.29-35,1.48-52.21,4.82-14.39,2.78-28.47,6.5-41.89,12.48-9.43,4.2-18.26,9.35-25.86,16.43C388.55,230.31,387.62,230.84,387.46,232Z"/><path class="cls-8" d="M489.09,568.08c-4.3,1.14-8.54,2.5-13,3a49.55,49.55,0,0,1-8.17.14,4.29,4.29,0,0,1-.8-.12c-.83-.2-1.59-.53-1.8-1.46a1.83,1.83,0,0,1,1.08-2c1.09-.65,2.18-1.32,3.32-1.88,8.84-4.35,12.8-11.83,14-21.26a24.72,24.72,0,0,0-5.81-20,1.41,1.41,0,0,1,0-2.1c12.51-16.62,18.49-35.84,22.15-56,1.9-10.46,3-21,4-31.61.32-3.51,0-7.08.12-10.62.13-4.63-.19-9.24-.31-13.87-.05-1.87-.14-2-2.05-2-5.45,0-10.9,0-16.35.07a4.39,4.39,0,0,1-4-1.71,27.81,27.81,0,0,0-7.13-5.85c-.74-.47-1.72-.67-2.12-1.87a11.9,11.9,0,0,1,5.6-1.5l19.85-1.23a9.2,9.2,0,0,0,4-.76c2.5-1.33,3.62-3.29,4-6.26.67-5.27-.74-10.28-1.08-15.42a129.38,129.38,0,0,0-2.73-18c-.45-2.15-.32-2.32,1.9-2.52,5.71-.5,11.44-.33,17.16-.62,1.47-.08,2.12.53,2.35,1.95a11.93,11.93,0,0,1-.46,5.38c-3,10.25-2.69,20.64-1.31,31.06.48,3.58,2.44,5.34,6.13,5.68s7.63.1,11.42.72a14.37,14.37,0,0,0,3.23.41c2.58-.17,3.93,1.28,5.12,3.27a42.07,42.07,0,0,1,3.75,7.8c-.76.75-1.62.5-2.38.51-7.18.12-14.36.09-21.53-.32-.18,0-.36,0-.54,0-3.56-.13-3.52-.13-3.21,3.3.41,4.52,1.07,9,1.31,13.54.71,13.43.9,26.86.72,40.31-.13,9.18-.72,18.33-1,27.49a159.61,159.61,0,0,1-2.85,26,78.14,78.14,0,0,1-6.24,18.83c-2.69,5.65-5.22,11.4-8.88,16.53C501.72,560.69,496.37,565.68,489.09,568.08Z"/><path class="cls-9" d="M489.09,568.08c.12-.13.22-.32.37-.38,6.48-2.59,11.54-7.09,16.27-12.05a6.08,6.08,0,0,1,.87-.6l-.06,1c-1,1-2.13,1.9-3.1,2.94a65,65,0,0,1-7.79,6.86,1.32,1.32,0,0,0-1.09.56,7.22,7.22,0,0,0-3.81,1.64Z"/><path class="cls-8" d="M781.81,346.14a20.52,20.52,0,0,0-5.34,2.66,3,3,0,0,0-.53.07c-3,1-3,1-3-2.06,0-8.08.05-16.17,0-24.25a3.66,3.66,0,0,1,2.5-3.9c7-3.3,13.84-6.84,20.76-10.27l49.57-24.5,47.15-23.27,3.74-1.84c-.93-1.31-2.32-1.62-3.49-2.21-7.32-3.64-14.66-7.22-22-10.84q-24.92-12.31-49.82-24.63-23.09-11.4-46.21-22.73a3.36,3.36,0,0,1-2.21-3.54c.09-8.35,0-16.71,0-25.07,0-.45,0-.9,0-1.36,0-1.06.62-1.19,1.46-.82.25.11.49.25.73.37,12.37,6.11,24.73,12.26,37.13,18.31a3.23,3.23,0,0,1,2.15,3.59c-.14,1.53,0,3.09,0,4.63s.61,2.43,2,3.11c6.88,3.31,13.7,6.72,20.54,10.1q14.16,7,28.32,14c9.46,4.65,18.93,9.25,28.39,13.9,7.58,3.72,15.13,7.5,22.72,11.2a2.27,2.27,0,0,1,1.25,2.44c0,5.09,0,10.17,0,15.26-.08,6.19,1.05,4.6-4.63,7.45-12.82,6.44-25.69,12.77-38.53,19.18a12.65,12.65,0,0,0-3.12,1.61,30.79,30.79,0,0,0-5.41,2.49q-20.25,10-40.48,20c-3.09,1.53-6.17,3.08-9.29,4.52a2.57,2.57,0,0,0-1.75,2.72c.07,1.81-.05,3.63,0,5.44a2.6,2.6,0,0,1-1.69,2.76c-3.52,1.68-7,3.46-10.5,5.17-5.45,2.68-10.92,5.33-16.37,8A15.43,15.43,0,0,0,781.81,346.14Z"/><path class="cls-8" d="M897.51,297.11a50.79,50.79,0,0,0-8.71,4.24,70.92,70.92,0,0,0-8.59,4.06,2.09,2.09,0,0,0-1.3,2.15c.06,1.91,0,3.81,0,5.72a2,2,0,0,1-1.31,2.13c-8.91,4.3-17.62,9-26.56,13-.78-.26-.74-.84-.75-1.37,0-6.63,0-13.25,0-19.88a2.64,2.64,0,0,1,1.83-2.66q9.42-4.59,18.81-9.24,20.24-10,40.48-20.11c4.88-2.42,9.78-4.79,14.66-7.19a5.51,5.51,0,0,0,2.09-1.22l16.16-7.67c-.15-1.29-1.09-1.42-1.74-1.75-4.71-2.36-9.45-4.66-14.17-7q-20.14-10-40.28-20-17.71-8.75-35.48-17.38a3.72,3.72,0,0,1-2.38-4c.13-5.72,0-11.45.05-17.17,0-3.51.12-3.6,3.17-2.08,5.93,3,11.86,5.95,17.79,8.9,1.79.9,3.58,1.79,5.41,2.58,1.59.67,2.52,1.57,2.27,3.48-.18,1.43,0,2.91-.06,4.36a2.7,2.7,0,0,0,1.78,3c3.37,1.59,6.65,3.36,10,4.89,2.07.93,4,2.24,6.16,2.86,4.72.95,8.61,3.75,12.79,5.85,16.11,8.07,32.41,15.76,48.48,23.9,1.17.59,2.66.84,3.11,2.39,0,3.63-.1,7.26,0,10.89a3.29,3.29,0,0,1-2.18,3.56c-9.8,4.75-19.55,9.59-29.31,14.43q-15.73,7.8-31.45,15.65A6.52,6.52,0,0,0,897.51,297.11Z"/><path class="cls-1" d="M928.12,266.07c-4.2,2.09-8.38,4.21-12.59,6.26-.62.3-1.28,1.25-2.12.29,5.78-3,4.83-1.82,4.89-7.93,0-4.9,0-9.8,0-14.7,0-1.31.18-2.65-.7-3.93,8.46,4.13,16.87,8,25.14,12.2l-.07.74Z"/><path class="cls-10" d="M961.26,251.94q-27-13.37-54.06-26.74c-3.48-1.72-6.88-3.6-10.32-5.4l.72-.14c1.45-.13,1-1.26,1.06-2.07,0-5,0-10,0-15a9.18,9.18,0,0,1,.16-2.16c.24-1,.75-1.59,1.95-1,1.53.77,3.12,1.43,4.7,2.11a9.55,9.55,0,0,0,3,1.23,166,166,0,0,1,2.18,1.09c3.62,2.38,7.67,4,11.47,6,0,.21,0,.42,0,.63-1.29.68-2.28-.22-3.29-.71-5.14-2.52-10.2-5.21-15.4-7.6-2.67-1.23-2.92-1-2.93,1.87,0,3.82.12,7.64-.06,11.45-.11,2.54.84,3.93,3.12,5.07,19.64,9.9,39.49,19.37,59.13,29.25,1.18.59,2.64.88,3.21,2.33-1.45,1.57-2.64,0-3.94-.31Z"/><path class="cls-2" d="M840.32,208.28l.55.52Z"/><path class="cls-2" d="M841.41,208.82l.55.53Z"/><path class="cls-2" d="M842.5,209.37l.55.53Z"/><path class="cls-2" d="M843.59,209.91l.55.53Z"/><path class="cls-2" d="M825.05,224.09l-.54-.53Z"/><path class="cls-2" d="M826.14,224.63l-.54-.52Z"/><path class="cls-2" d="M827.23,225.18l-.54-.52Z"/><path class="cls-2" d="M828.32,225.72l-.54-.52Z"/><path class="cls-2" d="M829.41,226.27l-.54-.52Z"/><path class="cls-2" d="M830.5,226.81l-.54-.52Z"/><path class="cls-2" d="M831.59,227.36l-.54-.52Z"/><path class="cls-2" d="M833.77,228.45l-.53-.51Z"/><path class="cls-2" d="M843.59,233.36l-.54-.53Z"/><path class="cls-2" d="M844.68,233.9l-.54-.53Z"/><path class="cls-2" d="M845.77,234.45l-.54-.54Z"/><path class="cls-2" d="M846.87,235l-.55-.53Z"/><path class="cls-2" d="M848,235.54l-.55-.54Z"/><path class="cls-2" d="M849.05,236.08l-.55-.53Z"/><path class="cls-2" d="M850.14,236.63l-.55-.54Z"/><path class="cls-2" d="M851.23,237.17l-.55-.53Z"/><path class="cls-2" d="M852.32,237.72l-.55-.54Z"/><path class="cls-2" d="M853.41,238.26l-.55-.53Z"/><path class="cls-2" d="M854.5,238.81l-.54-.53Z"/><path class="cls-2" d="M855.59,239.35l-.54-.53Z"/><path class="cls-2" d="M856.68,239.9l-.54-.53Z"/><path class="cls-2" d="M857.77,240.44l-.54-.53Z"/><path class="cls-2" d="M858.86,241l-.54-.54Z"/><path class="cls-2" d="M891.58,256.8l-.54-.5Z"/><path class="cls-2" d="M892.67,257.35l-.54-.51Z"/><path class="cls-2" d="M893.76,257.89l-.54-.51Z"/><path class="cls-2" d="M894.85,258.44l-.54-.51Z"/><path class="cls-2" d="M894.85,258.93v-.49c.21.07.3.2.21.36S894.92,258.89,894.85,258.93Z"/><path class="cls-2" d="M882.31,265l.55-.54Z"/><path class="cls-2" d="M881.22,265.51l.54-.53Z"/><path class="cls-2" d="M880.13,266.05l.54-.53Z"/><path class="cls-2" d="M879,266.6l.54-.53Z"/><path class="cls-2" d="M876.85,267.69c0-.17,0-.35,0-.53h.54Z"/><path class="cls-2" d="M873.59,269.33l.54-.53Z"/><path class="cls-2" d="M870.32,271l.54-.52Z"/><path class="cls-2" d="M869.23,271.49l.54-.51Z"/><path class="cls-2" d="M861.59,275.31l.54-.52Z"/><path class="cls-2" d="M851.23,280.24l.54-.54Z"/><path class="cls-2" d="M850.14,280.78l.54-.53Z"/><path class="cls-2" d="M849.05,281.33l.54-.54Z"/><path class="cls-2" d="M848,281.87l.54-.53Z"/><path class="cls-2" d="M846.87,282.41l.54-.53Z"/><path class="cls-2" d="M843.6,284l.54-.52Z"/><path class="cls-2" d="M842.5,284.59l.55-.53Z"/><path class="cls-2" d="M841.41,285.13l.55-.52Z"/><path class="cls-2" d="M783.61,171.2l.54.52Z"/><path class="cls-2" d="M784.7,171.75l.54.51Z"/><path class="cls-2" d="M785.79,172.29l.54.52Z"/><path class="cls-2" d="M796.15,177.2l.55.52Z"/><path class="cls-2" d="M797.24,177.74c.18.18.36.36.55.53C797.6,178.1,797.42,177.92,797.24,177.74Z"/><path class="cls-2" d="M798.33,178.29l.55.53Z"/><path class="cls-2" d="M799.42,178.83l.55.53Z"/><path class="cls-2" d="M800.51,179.38l.55.52Z"/><path class="cls-2" d="M801.6,179.92l.55.53Z"/><path class="cls-2" d="M802.7,180.47l.54.52Z"/><path class="cls-2" d="M803.79,181l.54.53Z"/><path class="cls-2" d="M804.88,181.56l.54.52Z"/><path class="cls-2" d="M806,182.11l.54.52Z"/><path class="cls-2" d="M807.06,182.65l.54.53Z"/><path class="cls-2" d="M808.15,183.2l.54.52Z"/><path class="cls-2" d="M809.24,183.74l.54.52Z"/><path class="cls-2" d="M810.33,184.29l.54.51Z"/><path class="cls-2" d="M811.42,184.83l.54.51Z"/><path class="cls-2" d="M812.51,185.38l.54.51Z"/><path class="cls-2" d="M813.6,185.92l.54.52Z"/><path class="cls-2" d="M814.73,187l.51.54Z"/><path class="cls-2" d="M818.51,197.37l.54.54Z"/><path class="cls-2" d="M819.6,197.92l.54.53Z"/><path class="cls-2" d="M822.87,199.55l.55.53Z"/><path class="cls-2" d="M824,200.1l.55.52Z"/><path class="cls-2" d="M825.06,200.64l.54.53Z"/><path class="cls-2" d="M830.51,203.37l.54.52Z"/><path class="cls-2" d="M831.6,203.91l.54.53Z"/><path class="cls-2" d="M832.69,204.46l.54.53Z"/><path class="cls-2" d="M833.78,205l.54.54Z"/><path class="cls-2" d="M834.87,205.55l.54.53Z"/><path class="cls-2" d="M836,206.1l.54.53Z"/><path class="cls-2" d="M837.05,206.64l.54.53Z"/><path class="cls-2" d="M838.14,207.19l.54.52Z"/><path class="cls-2" d="M839.23,207.73l.54.52Z"/><path class="cls-8" d="M428,305.82a118.2,118.2,0,0,0,28.59-21.6,15.62,15.62,0,0,0,1.33-1.37c.91-1.18,1.76-1.17,3-.27A23.06,23.06,0,0,0,475.21,287a29.05,29.05,0,0,0,19.78-7.9,26.67,26.67,0,0,0,5.1-5.65c.85-1.4.82-1.55-.79-1.89a90.58,90.58,0,0,1-22.55-7.89c-.48-.25-1-.48-1.46-.73-.7-.35-.92-.83-.46-1.53.31-.45.58-.92.87-1.39,9-14.42,15.38-30,20.34-46.25,1.12-3.7,1.07-3.56,4.84-4.08,3.06-.42,6.14-.53,9.21-.77a36.14,36.14,0,0,1,7,.31c6,.69,12.12.8,18.17,1.32,14.92,1.31,29.78,3,44.26,7.06,3.86,1.08,7.57,2.56,11.3,4s6,4.6,7.68,8.09a38.58,38.58,0,0,1,3.29,15.33,90.62,90.62,0,0,1-1.44,17.32,29.19,29.19,0,0,1-1.39,3.81c-.47,1.47-1.06,2.91-1.44,4.4-.66,2.56-.13,3.9,2.2,5.21,2,1.12,4.06,2,6.1,3a21.21,21.21,0,0,1,3.21,2,2.06,2.06,0,0,1,.63,3c-2.15,4.21-4.46,8.31-6.93,12.34a101.32,101.32,0,0,1-11.67,15.7c-3.51,3.81-7.33,7.35-12.6,8.69-2.32.59-2.34.61-3.81-1.39a22.25,22.25,0,0,0-5-5c-3.48-2.51-6.79-5.19-8.68-9.21-.6-1.28-1.57-1-2.53-.6A44.89,44.89,0,0,0,546.58,311a34.57,34.57,0,0,0-8.37,9.58A20.24,20.24,0,0,0,536,325h0c-1.63,3.66-2.36,7.57-3.22,11.72-1.74-.66-2.48-2.29-3.89-3a6,6,0,0,0-6.88.1,21.08,21.08,0,0,1-2.16,1.13,6.1,6.1,0,0,1-7.06-.8c-1.71-1.41-1.83-1.43-3.42-.07a6.27,6.27,0,0,1-7.06.94,7.24,7.24,0,0,1-1.69-.85c-2.79-2.13-5.52-1.8-8.26.06-2.85,2.26-2.74,2.23-3.6-1.29a46.23,46.23,0,0,0-3.51-10.13,37.42,37.42,0,0,0-12.92-14.07,53.63,53.63,0,0,0-8.77-4.31,1.76,1.76,0,0,0-2.63,1,21.05,21.05,0,0,1-6.83,7.63c-2.71,2-5.34,4.07-7.18,7a2.11,2.11,0,0,1-2.61.83,19.7,19.7,0,0,1-7.54-3.63,48.72,48.72,0,0,1-8.11-8c-.33-.42-.73-.8-1.1-1.19-.46-.2-.27-.77-.61-1h0c-.12-.13-.15-.24-.1-.34s.11-.14.15-.14h0C427.23,306.08,427.82,306.25,428,305.82Z"/><path class="cls-11" d="M485.29,322.79c1.17.86,1.36,2.25,1.85,3.48a66.84,66.84,0,0,1,2.54,9.26c1.24,0,1.57-1.48,2.72-1.32a5.24,5.24,0,0,1-1.77,2c-1,.91-1.52.75-1.77-.65a72,72,0,0,0-1.85-7.67C486.5,326.18,485.39,324.65,485.29,322.79Z"/><path class="cls-12" d="M528.93,333.7c1.64,0,2.07,1.88,3.6,2.32.78-3,1.14-6,2.27-8.78.32-.81.34-1.79,1.24-2.29-.81,3.7-2.22,7.25-2.73,11-.15,1.08-.86,1.24-1.77.43S529.79,334.61,528.93,333.7Z"/><path class="cls-12" d="M536,325a5.5,5.5,0,0,1,2.17-4.37A12,12,0,0,1,536,325Z"/><path class="cls-13" d="M428,305.82a1,1,0,0,1-1,.66C427.09,305.88,427.49,305.77,428,305.82Z"/><path class="cls-13" d="M427,307a1,1,0,0,1,.61,1l-.61,0h0C427,307.68,427,307.32,427,307Z"/><path class="cls-13" d="M427,306.48a.38.38,0,0,1-.05.48l-.33-.29Z"/><path class="cls-8" d="M269.44,434.61c0-8.54-.09-17.08,0-25.61.11-7.3,3.93-12.28,10.4-15.31a18.43,18.43,0,0,1,7.92-1.76c10.81,0,21.63-.13,32.44.05,12.8.22,22.26,9.23,23.47,22a65.1,65.1,0,0,1,.05,10.07c-.67,10.84-7.88,18.53-18.46,21.24a31,31,0,0,1-7.56.74q-13.37,0-26.72,0c-2.7,0-2.71,0-2.72-2.7s0-5.27,0-7.91c0-2.4,0-2.44,2.41-2.44,8.72,0,17.44,0,26.17,0a19.4,19.4,0,0,0,5.66-.62c4.68-1.41,7.65-5.18,7.68-9.75,0-3.26.42-6.53-.54-9.74-1.36-4.56-4.34-7.23-9.08-7.86a25.4,25.4,0,0,0-3.26-.24q-13.77,0-27.53,0h-.55c-5.22.05-6.43,2.44-6.41,6.44.07,16.44,0,32.89,0,49.33,0,3.36.32,3.31-3.21,3.3-2.46,0-4.91,0-7.36,0-2.89,0-2.9,0-2.91-2.8,0-4.63,0-9.26,0-13.9V434.61Z"/><path class="cls-8" d="M775.84,436.81a38,38,0,0,1,2.15,6.13c1.91,9.94-4,18.7-14,20.47a28.37,28.37,0,0,1-4.87.45q-19.22,0-38.44,0c-.45,0-.91,0-1.36,0-1,0-1.54-.38-1.54-1.43,0-2.63,0-5.27,0-7.9,0-1.07.59-1.43,1.57-1.41.63,0,1.27,0,1.91,0H758c1,0,2,0,3-.05,3.83-.29,6.07-2.59,6.15-6.27.09-4-2.18-6.69-6-7.11a19.78,19.78,0,0,0-2.18,0c-8.18,0-16.36.07-24.54,0a17.33,17.33,0,0,1-11.71-4.44c-4.62-4.17-6.07-9.48-5.35-15.54.92-7.61,7-14.6,18.1-14.79,11.72-.21,23.44-.06,35.16,0,2,0,2,.08,2.07,2,0,2.36,0,4.72,0,7.08,0,1.13-.38,1.72-1.57,1.66-.64,0-1.27,0-1.91,0h-31.9c-.81,0-1.63,0-2.45,0-5.42.3-7.33,4.37-6.28,9,.62,2.74,3,4.4,6.1,4.53,2.26.1,4.54,0,6.81,0,6,0,12,0,18,0a18.79,18.79,0,0,1,15.71,7.26,4.35,4.35,0,0,0,.59.54Z"/><path class="cls-8" d="M450.75,262.13a25.68,25.68,0,0,0,2.54,11.45,2.65,2.65,0,0,1-.47,3.41c-8.08,8.63-17.09,16-27.82,21.15-.65.31-1.33.58-2,.9a1.52,1.52,0,0,1-2.27-.65c-3-4.73-5.81-9.63-8.38-14.64-.69-1.35-.31-2.16.79-3a32.4,32.4,0,0,1,6.66-3.7c5.41-2.37,6.16-3.7,3.95-9.19-3.88-9.66-4-19.63-2.71-29.71a27,27,0,0,1,4.23-11.39,13.46,13.46,0,0,1,6.37-5.28A113.83,113.83,0,0,1,453,215.11a258.65,258.65,0,0,1,28.26-4c.45,0,.91-.11,1.36-.11,1.77,0,1.92.15,1.56,1.86-3,14.3-7.59,28.05-14.76,40.83-3.19,5.68-2.32,4.59-6.95,1.53-2.58-1.7-5-3.61-7.49-5.45-1.73-1.28-1.91-1.27-2.5.74A39.46,39.46,0,0,0,450.75,262.13Z"/><path class="cls-8" d="M564.64,419.22c3.45,0,6.9-.09,10.35,0,4.92.17,9.29,1.71,12.4,5.78,3.62,4.74,3.73,10,1.48,15.19A13.06,13.06,0,0,1,577,448.53c-6.8.33-13.62.11-20.43.17-1.36,0-1.7-.65-1.67-1.85.05-2.18.07-4.36,0-6.54,0-1.45.58-1.86,1.94-1.85,5.45.05,10.9,0,16.35,0,.82,0,1.64,0,2.45,0a4.21,4.21,0,0,0,4-4.61c0-2.48-1.41-4-4-4.27a7.54,7.54,0,0,0-.82-.06c-6.63,0-13.26-.06-19.89,0-3.2,0-4.67,1.57-4.7,4.71-.06,4.82,0,9.63,0,14.44,0,3.11,1.52,4.63,4.65,4.87.72.06,1.45,0,2.17,0,5.27,0,10.54,0,15.81,0,2.06,0,2.14.1,2.18,2.15s0,4.18,0,6.26c0,1.17-.29,1.88-1.67,1.87-6.36-.05-12.72,0-19.07-.11a15.26,15.26,0,0,1-8-2.39,13.44,13.44,0,0,1-6.61-11.53c-.11-5.36-.09-10.72,0-16.07a14.25,14.25,0,0,1,13.51-14.41c3.79-.26,7.62,0,11.44,0Z"/><path class="cls-8" d="M458.21,419.2c3.46,0,6.91-.05,10.36,0a16.74,16.74,0,0,1,10.87,3.66,14.37,14.37,0,0,1,5.1,11.3c.11,4.72.18,9.45,0,14.16-.22,5.75-2.27,10.62-7.6,13.59a16.14,16.14,0,0,1-7.86,1.91q-9.68.07-19.34,0a22.24,22.24,0,0,1-4.59-.56,14,14,0,0,1-11.29-14.34c.26-7.53,4.88-13.1,12-14.4a50.52,50.52,0,0,1,8.68-.44c4.18,0,8.36,0,12.53,0,1.94,0,2,.07,2,2,0,2.09,0,4.18,0,6.27s-.08,2.07-2.23,2.08c-5.27,0-10.54,0-15.81,0a19.79,19.79,0,0,0-3,.18,4.46,4.46,0,0,0-.78,8.55,7.16,7.16,0,0,0,2.68.4c6.17,0,12.35,0,18.52,0,3.84,0,5.45-1.69,5.47-5.52,0-4.45,0-8.9,0-13.35,0-3.55-1.55-5.15-5.14-5.18-7-.07-14,0-21,0l-1.91,0a1.1,1.1,0,0,1-1.18-1.2c0-2.64,0-5.27,0-7.9,0-1.12.94-1.16,1.79-1.16h11.71Z"/><path class="cls-8" d="M102,209.5c1.82-.32,3.32-1.4,4.94-2.18,4.65-2.24,9.28-4.52,13.93-6.78a1.51,1.51,0,0,1,1.32-.25c.54.46.34,1.13.34,1.72,0,5.08,0,10.16.05,15.24a3,3,0,0,1-2,3.11c-4.85,2.45-9.81,4.68-14.47,7.47a3.39,3.39,0,0,0-1.8.54L61,250a9,9,0,0,0-1.09.77l-.15.34a3.45,3.45,0,0,1-1.24.82c-4,1.59-7.64,3.74-11.46,5.58-.54.26-1.35.41-1.28,1.21,0,.57.75.71,1.2,1,1.73,1.1,3.93,1.42,5.25,3.2,4.77,2.39,9.53,4.79,14.31,7.16q27.06,13.43,54.14,26.81a2.94,2.94,0,0,1,2,3.09c-.1,5.17,0,10.34-.05,15.52a1.91,1.91,0,0,1-.49,1.74c-4-1.7-7.77-3.92-11.92-5.42a81.11,81.11,0,0,0-9.19-4.7c-1.68-.8-2.69-1.76-2.31-3.71.68-3.55-.79-5.42-4.11-7C81,290,67.67,283.2,54.23,276.58c-7.66-3.77-15.3-7.56-23-11.28a2.53,2.53,0,0,1-1.74-2.69c.09-2.63.08-5.26,0-7.9A2.58,2.58,0,0,1,31.15,252c12.55-6.17,25.06-12.41,37.6-18.61,9.28-4.58,18.56-9.15,27.88-13.64,1.51-.73,2.33-1.59,2.07-3.3,0-.26,0-.55,0-.81C98.19,212.67,99.07,210.51,102,209.5Z"/><path class="cls-14" d="M52.23,262.86,44.17,259c1.34-1.51,10.74-6.41,14.57-7.68.39-.22.95-.07,1.2-.57h0a3.48,3.48,0,0,1,.67.34c-1.23,4.86-.41,9.78-.43,15.05-1.61-.79-3.1-1.55-4.61-2.27C54.49,263.34,53.51,262.58,52.23,262.86Z"/><path class="cls-6" d="M107.52,228.54a1.16,1.16,0,0,1-1.14.58C106.56,228.53,107,228.45,107.52,228.54Z"/><path class="cls-8" d="M627.51,419.2c4.81,0,9.62,0,14.44,0,2.12,0,2.15.06,2.18,2.11,0,2.27,0,4.54,0,6.81.05,1.45-.57,2-1.94,1.86-.54-.05-1.09,0-1.63,0h-24c-.64,0-1.27,0-1.91,0-3.94.11-5,1.17-5.07,5,0,4.27,0,8.54,0,12.8,0,.37,0,.73,0,1.09.19,2.52,1.37,3.79,3.88,4.08a22.36,22.36,0,0,0,2.72.07h25.33c2.52,0,2.53,0,2.55,2.54,0,2.09,0,4.18,0,6.27.05,1.32-.26,2-1.79,2-9.44-.06-18.89,0-28.33-.08a16.25,16.25,0,0,1-8.57-2.37c-4.2-2.65-6.7-6.38-6.82-11.41-.13-5.44-.19-10.89,0-16.33.24-8,5.7-13.6,13.64-14.34,1.18-.11,2.36-.13,3.54-.14Z"/><path class="cls-8" d="M965.88,252.37c-2.09-1.08-4.16-2.18-6.27-3.22l-52.74-26.06c-2-1-3.87-2-5.82-3a2.1,2.1,0,0,1-1.37-2.1c.05-5.72,0-11.44.07-17.16,0-.17.13-.33.26-.61a16.13,16.13,0,0,1,4.47,1.73q8.16,4.08,16.34,8.13a12.62,12.62,0,0,0,1.27.43,2.43,2.43,0,0,1,1.3,2.46c-.1.71.07,1.46,0,2.17-.37,2.47.52,4,2.91,5,8.15,3.58,16,7.82,23.94,11.76,12.86,6.36,25.75,12.64,38.62,19,3.63,1.78,3.63,1.78,3.63,5.89,0,1.81-.11,3.64,0,5.44a3,3,0,0,1-2.1,3.32c-4,1.87-8,3.82-12,5.8q-20,9.9-40,19.84c-4.31,2.14-8.62,4.28-13,6.32-1.51.71-2.36,1.66-2,3.36.74,3.82-.89,5.89-4.46,7.34-4.35,1.77-8.45,4.17-12.65,6.3-2.21.43-4,2-6.13,2.45-.59-.55-.43-1.12-.43-1.64,0-5.17,0-10.34,0-15.5a2.78,2.78,0,0,1,1.78-2.95c6.74-3.33,13.42-6.8,20.24-10,4.28-2,8.44-4.21,12.66-6.31Q947,274.3,959.67,268a5.51,5.51,0,0,0,2.29-1.38c.06-.11.13-.22.19-.34,2.84-2.25,6.57-2.83,9.48-5,1.71-1,3.58-1.64,5.36-2.8-2.89-1.53-5.75-2.87-8.55-4.31C967.5,253.74,966.38,253.47,965.88,252.37Z"/><path class="cls-8" d="M552.66,355.68c-.85-2.2-1.64-4.2-2.38-6.22a8.7,8.7,0,0,1-.58-3.74,3.74,3.74,0,0,1,3.86-3.76,13.35,13.35,0,0,1,5.86.92c1.09.41,2.2.78,3.51,1.24.69-2.13.71-3.93-1-5.52a31.66,31.66,0,0,1-4.94-5.77,7.62,7.62,0,0,1-1.42-4.33,2.93,2.93,0,0,1,1.72-2.87c2.23-.9,4.49-1.35,6.71.3a102.92,102.92,0,0,0,12.82,8.21,3.19,3.19,0,0,1,1.82,3.06c.1,4.33-1.38,8.2-3.37,11.91-3.2,6-7.55,11.1-12.16,16-5.67,6-11.81,11.53-18,17-1.29,1.14-2.5,2.37-3.71,3.6a2,2,0,0,1-2.2.61,10.65,10.65,0,0,1-7.57-10.71,4.24,4.24,0,0,1,4.17-4.21,12.88,12.88,0,0,1,4,.31c2.68.63,4.27-.8,3.88-3.52-.26-1.88-.81-3.72-1.22-5.58a17.53,17.53,0,0,1-.41-1.85c-.39-3.16,1.17-5.1,4.32-5.3a9.94,9.94,0,0,1,3.52.19A4.75,4.75,0,0,0,552.66,355.68Z"/><path class="cls-8" d="M465.66,326.11c1.65,2.19.88,4.3-.3,6.34a25.63,25.63,0,0,1-4.89,5.81,4.71,4.71,0,0,0-1.71,3.83c.08,1.89.29,2.11,2,1.49,2.39-.86,4.74-1.79,7.37-1.65,3.18.18,4.65,2,4.2,5.23a25.73,25.73,0,0,1-2.19,6.69c-.25.56-.7,1.06-.58,1.73a2.87,2.87,0,0,0,2.41.05,10,10,0,0,1,3.52-.21c3.42.21,5.07,2.3,4.44,5.68-.34,1.87-.89,3.7-1.32,5.55a9.15,9.15,0,0,0-.31,1.86c0,2.5,1.37,3.74,3.78,3.18a13.78,13.78,0,0,1,3.78-.36c2.79.15,4.37,1.64,4.66,4.35.48,4.39-3.39,9.71-7.71,10.65a2.21,2.21,0,0,1-2.18-.74c-6.94-6.78-14.49-12.91-21.16-20-4.8-5.09-9.36-10.37-12.7-16.57A25.28,25.28,0,0,1,443.43,338a3.94,3.94,0,0,1,2.37-4.11,71.54,71.54,0,0,0,11.19-7.2C460.26,324.1,462,324,465.66,326.11Z"/><path class="cls-15" d="M465.66,326.11a7.94,7.94,0,0,0-8.67.53l.54-1.13.57-.5a1.36,1.36,0,0,0,1.07-.57h4.33C464.1,325.14,465.5,324.82,465.66,326.11Z"/><path class="cls-14" d="M965.88,252.37l12.57,6.08a29.05,29.05,0,0,1-6.57,3.33c-3.25,1.74-6.89,2.71-9.94,4.87h0c-.23-.11-.66-.32-.65-.33,1.25-2.75.44-5.65.61-8.47.11-2,0-4,0-5.95.42-.6.89-.37,1.39-.11A3.57,3.57,0,0,0,965.88,252.37Z"/><path class="cls-8" d="M385.67,447.18c0-4.62-.09-9.25,0-13.88.14-6.07,3.24-10.22,8.73-12.65a17.43,17.43,0,0,1,7.16-1.44q11.16,0,22.33,0c2.29,0,2.33.06,2.37,2.25s0,4.35,0,6.53c0,1.86-.14,2-2,2-7,0-14,0-21,0a29.52,29.52,0,0,0-3.26.15,3.36,3.36,0,0,0-3.13,2.92,15.44,15.44,0,0,0-.26,3.25v24.23c0,.63,0,1.27,0,1.9,0,.86-.37,1.4-1.28,1.4q-4.21,0-8.44,0c-1.34,0-1.27-1-1.27-1.93V447.18Z"/><path class="cls-8" d="M666.4,432.2v28.3c0,.55,0,1.09,0,1.63.05,1.1-.36,1.72-1.55,1.71h-8.17a1.18,1.18,0,0,1-1.36-1.3c0-.64,0-1.27,0-1.91V403.48c0-.45,0-.91,0-1.36-.13-1.45.58-1.89,1.94-1.85,2.36.07,4.72,0,7.08,0,2,0,2.06.09,2.07,2.23,0,4.63,0,9.25,0,13.88Z"/><path class="cls-16" d="M370.17,441.35c0,6.72,0,13.44,0,20.15,0,2.29,0,2.31-2.25,2.34-1.9,0-3.81,0-5.72,0-3.17,0-3.18,0-3.18-3.08q0-12.52,0-25c0-4.72,0-9.44,0-14.16,0-2.24.11-2.32,2.28-2.36s4.18,0,6.26,0c2.57,0,2.6,0,2.61,2.55Q370.19,431.54,370.17,441.35Z"/><path class="cls-8" d="M706.51,447.5c0,4.72,0,9.45,0,14.17,0,2.11-.06,2.14-2.14,2.17q-3.4,0-6.81,0c-2.23,0-2.26,0-2.27-2.29q0-12,0-24c0-.82-.06-1.64,0-2.45.31-4.22-1.71-5.18-5.18-5.16-5.26.05-10.53,0-15.8,0h-1.91c-1,0-1.53-.45-1.53-1.48,0-2.64,0-5.27,0-7.9a1.25,1.25,0,0,1,1.36-1.36c.45,0,.91,0,1.36,0h16.62a17.22,17.22,0,0,1,10.51,3.19,13.88,13.88,0,0,1,5.75,11.49C706.59,438.42,706.51,443,706.51,447.5Z"/><path class="cls-17" d="M364.74,400.29h4.07c.89,0,1.35.41,1.35,1.31v7.07a1.19,1.19,0,0,1-1.35,1.32c-2.81,0-5.62,0-8.43,0a1.22,1.22,0,0,1-1.36-1.34c0-2.36,0-4.71,0-7.07,0-.89.5-1.3,1.37-1.3Z"/><path class="cls-1" d="M622.12,158.71c-4.57-5.18-8.67-10.73-12.89-16.18-5.88-7.61-11.82-15.17-18.75-21.88a126.12,126.12,0,0,0-23.54-18c-2.14-1.26-2.19-1.28-3.73.69a75.29,75.29,0,0,1-22,19.25,57.36,57.36,0,0,1-26.11,7.72c-9.91.42-19.46-.74-28.57-4.88a73.12,73.12,0,0,1-27-21.42c-2.16-2.7-2.2-2.72-5.16-.87A140.58,140.58,0,0,0,435,117.62,160.93,160.93,0,0,0,418,136a6.53,6.53,0,0,1-1.82,2c-4.69,5.6-8.91,11.58-13.57,17.2a48.49,48.49,0,0,1-5.17,5.93,2.12,2.12,0,0,1-.62.44.79.79,0,0,1-.67-.82,1.36,1.36,0,0,1,.31-.69q5.37-8,10.27-16.2c2.41-4.38,5.3-8.44,8.1-12.56a197,197,0,0,1,14-18.42,102.38,102.38,0,0,1,27-22.61c1.79-1,3.22-1,4.7.34,1.15,1,2.35,2,3.44,3.08a150.27,150.27,0,0,0,16.67,14.81,66.82,66.82,0,0,0,21.6,10.68,9.92,9.92,0,0,0,2.95.34c3.6-.06,7.2-.25,10.81,0,4.41.28,8.32-1.6,12.22-3.3A78.7,78.7,0,0,0,551.59,100c3-3,6.13-5.93,9.32-8.76,2.58-2.3,3-2.19,6-.57,10.89,6,19.82,14.33,27.78,23.75,7.75,9.18,14.34,19.19,20.82,29.27,3.2,5,6.34,9.95,9.51,14.93a10.06,10.06,0,0,0,1,1.68h0c.38.54.68,1.12,1.08,1.65h0c.33,1.26-.09,1.59-1.08.73A39.42,39.42,0,0,1,622.12,158.71Z"/><path class="cls-1" d="M537,171a18.4,18.4,0,0,1-3.26,4.38c-.66.6-1.35-.2-1.91-.59-3.86-2.72-7.69-5.47-11.54-8.21-1.85-1.32-3.74-2.57-5.56-3.94A3,3,0,0,0,512,162c-.26.08-.58.39-.73.32-2.65-1.35-4.25.68-6,1.91-4.84,3.38-9.61,6.86-14.43,10.27-2.14,1.52-2.16,1.49-3.61-.51-2.5-3.49-2.5-3.49,1-6q6.54-4.66,13.1-9.31c.37-.27.71-.56,1.06-.86,1.39-1.17,1.4-1.26-.09-2.34q-6.73-4.87-13.49-9.71a5.29,5.29,0,0,1-.67-.46c-.95-.95-3-1.35-2.88-2.65.18-1.84,1.81-3.27,3.06-4.68.67-.77,1.31,0,1.87.41q4.68,3.28,9.34,6.62c2.88,2.06,5.78,4.09,8.61,6.21.74.56,1.29.94,2.11.23a1.07,1.07,0,0,1,1.49-.13c1,.94,1.71.33,2.58-.3q8.72-6.3,17.51-12.5c1.68-1.19,1.78-1.21,3,.52,3,4.41,3.49,3.17-1,6.44s-8.86,6.34-13.27,9.55c-2.27,1.65-2.27,1.71.13,3.44,4.64,3.34,9.31,6.64,14,10,.67.48,1.34,1,2,1.45A1,1,0,0,1,537,171Z"/><path class="cls-18" d="M397,161.39c6.25-7.29,12-14.94,17.92-22.51a1.91,1.91,0,0,1,1.3-.89c-.73,2-2.34,3.39-3.58,5-4.63,6.1-9.22,12.23-14.38,17.9a7.55,7.55,0,0,1-.59.54A.45.45,0,0,1,397,161.39Z"/><path class="cls-18" d="M406.75,143.85a2.37,2.37,0,0,1-.52,1.78q-4.53,7.11-9.09,14.18a3.19,3.19,0,0,1-.6.56c-.34-.15-.38-.36-.1-.62C399.76,154.37,403,148.91,406.75,143.85Z"/><path class="cls-19" d="M622.12,158.71c1.76.78,2.62,2.53,4,3.7.75.61.82.07,1-.47.71.24.83.95,1.17,1.49a1.36,1.36,0,0,0,.47.68h0c.41.73.29,1.18-.63,1.21v0a.81.81,0,0,0-.59-.58C625.55,162.88,623.47,161.12,622.12,158.71Z"/><path class="cls-20" d="M628.11,165.32a1.25,1.25,0,0,0,.63-1.21,9.18,9.18,0,0,1,1.63,2.19c0,.94-.45.9-1.09.54A2.12,2.12,0,0,1,628.11,165.32Z"/><path class="cls-21" d="M394.22,163l.47-.58.27.07a2,2,0,0,1,.42.71c0,.18.06.36.08.54a.43.43,0,0,1-.22.38.94.94,0,0,1-.48.48l-.05.05a.94.94,0,0,1-.5.5l0,0a2,2,0,0,1-.47.57h0a5.57,5.57,0,0,0-.52.57h0c-.88,0-1-.38-.51-1.05l0,0c.11-.24.33-.39.44-.63v0c.39-.23.26-.78.62-1v0A4.69,4.69,0,0,0,394.22,163Z"/><path class="cls-22" d="M392.09,167.42a2.31,2.31,0,0,1-1.91,1.45c.27-1.05.13-2.15,1.46-2.51A1.27,1.27,0,0,1,392.09,167.42Z"/><path class="cls-23" d="M629.28,166.84c.44,0,.87-.08,1.09-.54a1.5,1.5,0,0,1,1,1.88A2.33,2.33,0,0,1,629.28,166.84Z"/><path class="cls-24" d="M392.09,167.42a1,1,0,0,1-.45-1.06c.4-.31.48-.92,1-1.1,0,.42.09.82.51,1.05C393,166.88,392.46,167.05,392.09,167.42Z"/><path class="cls-21" d="M394.69,162.38a2.7,2.7,0,0,1,1.09-1.64l.32.23c.18,1-.11,1.58-1.2,1.57Z"/><path class="cls-19" d="M627.1,161.94a1.42,1.42,0,0,1-1.08-1.65A1.79,1.79,0,0,1,627.1,161.94Z"/><path class="cls-19" d="M626,160.29a1.43,1.43,0,0,1-1-1.68A1.68,1.68,0,0,1,626,160.29Z"/><path class="cls-21" d="M396.44,159.75c0,.2.07.41.1.62a3.45,3.45,0,0,0-.12.46c-.1.25-.24.28-.44.1a1.8,1.8,0,0,0-.2-.19A1.13,1.13,0,0,1,396.44,159.75Z"/><path class="cls-24" d="M393.74,163.61a.92.92,0,0,1-.62,1A1,1,0,0,1,393.74,163.61Z"/><path class="cls-21" d="M397,161.39l.67.06a.74.74,0,0,1-.54.6l-.28-.13a.44.44,0,0,1,.15-.54Z"/><path class="cls-21" d="M397.11,162.05a.73.73,0,0,1-.55.55l-.24-.32a.58.58,0,0,1,.59-.41Z"/><path class="cls-21" d="M396.56,162.6a.75.75,0,0,1-.54.55l-.24-.33a.56.56,0,0,1,.6-.4Z"/><path class="cls-24" d="M394.22,163a.68.68,0,0,1-.47.63A.65.65,0,0,1,394.22,163Z"/><path class="cls-21" d="M396,163.15l-.56.55-.17-.24c-.06-.43.13-.58.55-.5Z"/><path class="cls-20" d="M628.74,164.11a.75.75,0,0,1-.47-.68A.83.83,0,0,1,628.74,164.11Z"/><path class="cls-24" d="M394.76,164.56l.48-.48A.46.46,0,0,1,394.76,164.56Z"/><path class="cls-24" d="M393.13,164.61a.66.66,0,0,1-.44.63A.6.6,0,0,1,393.13,164.61Z"/><path class="cls-24" d="M394.21,165.11a.63.63,0,0,1,.5-.5A.5.5,0,0,1,394.21,165.11Z"/><path class="cls-20" d="M627.53,164.72a.64.64,0,0,1,.59.58C627.93,165.1,627.73,164.91,627.53,164.72Z"/><path class="cls-24" d="M393.7,165.73a.61.61,0,0,1,.47-.57A.55.55,0,0,1,393.7,165.73Z"/><path class="cls-24" d="M393.18,166.31a.67.67,0,0,1,.52-.57A.56.56,0,0,1,393.18,166.31Z"/><path class="cls-1" d="M571.52,261.36c-.35,8.83-3,16.21-10.29,21.24-6.45,4.45-13.6,5.41-21.06,3.54a31.6,31.6,0,0,1-18-12.45c-1.16-1.57-1.09-1.7.9-2.12a99.41,99.41,0,0,0,36.55-16.29c2.68-1.87,5.27-3.87,7.93-5.76,1.31-.93,1.55-.85,2,.68A53.34,53.34,0,0,1,571.52,261.36Z"/><path class="cls-1" d="M512.1,287.85c2,2.83,3.29,6,4.92,9.07,1,1.83,2,3.64,3.08,5.44,1.37,2.34,1.31,3.86-.4,6a22.87,22.87,0,0,1-2.27,2.35c-.85.8-1.47,2.06-2.63,2.25s-1.69-1.19-2.52-1.83a1.64,1.64,0,0,0-2.41,0c-.47.44-.95.85-1.38,1.32-.7.78-1.32.73-2,0-1.31-1.38-2.75-2.64-4-4.09s-2.08-3.34-.83-5.22c3.13-4.69,5-10.06,8.11-14.75.47-.2.36-.74.63-1.05h0C511.2,286.69,511.62,287.36,512.1,287.85Z"/><path class="cls-25" d="M512.1,287.85l-1.72-.54c0-.51.23-1,.75-.86A1.29,1.29,0,0,1,512.1,287.85Z"/><path class="cls-25" d="M510.38,287.31a.82.82,0,0,1-.63,1.05A.92.92,0,0,1,510.38,287.31Z"/><path class="cls-4" d="M59.94,250.71c-.2.6-.66.66-1.2.57A1.21,1.21,0,0,1,59.94,250.71Z"/><path class="cls-5" d="M961.94,266.65c.55-1.34,1.94-1.54,3-2.07a28.7,28.7,0,0,1,6.92-2.8A57.21,57.21,0,0,1,961.94,266.65Z"/><path class="cls-18" d="M395.84,163l-.55.5c-.45-.17-.45-.53-.4-.92a2.38,2.38,0,0,0,1.09-1.61,1.4,1.4,0,0,1,.44-.1l.56.55a1.61,1.61,0,0,1-.07.49l-.53.55Z"/></g></g></svg>