<svg xmlns="http://www.w3.org/2000/svg" viewBox="0 0 1023 648.27"><defs><style>.cls-1{fill:#fff;}.cls-2{fill:#fdfdfd;}.cls-3{fill:#e7eaed;}.cls-4{fill:#e9ebee;}.cls-5{fill:#2b4261;}.cls-6{fill:#feffff;}.cls-7{fill:#e8ebee;}.cls-8{fill:#65768c;}.cls-9{fill:#77869a;}.cls-10{fill:#425772;}.cls-11{fill:#fdfefe;}.cls-12{fill:#b4bdc7;}.cls-13{fill:#e4e7eb;}.cls-14{fill:#d0d5dc;}.cls-15{fill:#b8c0ca;}.cls-16{fill:#768599;}.cls-17{fill:#707f94;}.cls-18{fill:#a3adbb;}.cls-19{fill:#c0c7d0;}.cls-20{fill:#b0b8c4;}.cls-21{fill:#8391a3;}</style></defs><g id="Layer_2" data-name="Layer 2"><g id="Layer_1-2" data-name="Layer 1"><ellipse class="cls-1" cx="511.5" cy="324.14" rx="723.37" ry="458.4"/><path class="cls-2" d="M901.91,317.33c-.79-.73-.5-1.7-.5-2.57,0-4.82,0-9.63,0-14.45a6.42,6.42,0,0,0-.23-2.76c-2.55.39-4.64,1.92-6.91,2.94-3.4,1.53-6.66,3.35-10,4.93a2.89,2.89,0,0,0-1.93,3.17c.11,1.63,0,3.27,0,4.91a2.27,2.27,0,0,1-1.44,2.36c-7.85,3.76-15.46,8-23.47,11.49-1,.43-1.89,1.07-2.86,1.57-1.16.6-1.95.25-2.17-1a11,11,0,0,1-.06-1.91c0-6.27,0-12.54,0-18.8a6,6,0,0,0-.35-2.91c-1.94.86-3.89,1.55-5.68,2.52-4.78,2.62-9.65,5-14.6,7.3-4.1,1.9-8.12,4-12.2,6a2.38,2.38,0,0,0-1.54,2.55c.09,1.82,0,3.64,0,5.45a2.92,2.92,0,0,1-1.9,3c-4.32,2.06-8.65,4.12-12.9,6.29-5.55,2.84-11.33,5.24-16.74,8.38-2.88,1.67-6,3-9,4.37-1.67.76-2.36.33-2.52-1.44a9.91,9.91,0,0,1,0-1.09c0-8.73,0-17.45,0-26.17,0-2,.72-2.94,2.59-3.84,7.85-3.75,15.56-7.79,23.35-11.68,3.06-1.53,6.13-3,9.29-4.34,2.27-.94,4.27-2.34,6.49-3.36,2.38-1.09,4.66-2.4,7.09-3.42a54.61,54.61,0,0,0,7.75-3.91c1.56-1,3.29-1.49,4.89-2.32,5.07-2.61,10.09-5.33,15.31-7.61,7.87-3.46,15.31-7.75,23.16-11.25,6.86-3.05,13.37-6.86,20.05-10.32.71-.37,1.49-.63,2.55-1.07a21.94,21.94,0,0,0-3-1.9c-4.17-1.8-8.15-3.95-12.15-6.08-3.82-2-7.78-3.82-11.66-5.76-5.41-2.7-11-5.11-16.3-8-3.82-2-7.82-3.73-11.7-5.65-6-3-12-6-18-9-5.68-2.8-11.47-5.37-17.06-8.32-5-2.66-10.24-5-15.32-7.59s-10.18-5.16-15.33-7.63a3.22,3.22,0,0,1-2.06-3.38c.07-8.81,0-17.62,0-26.43a9.87,9.87,0,0,1,0-1.09c.19-1.62,1.26-2.28,2.66-1.43,4.27,2.59,8.89,4.49,13.31,6.77,5.16,2.67,10.45,5.07,15.67,7.62,3.09,1.51,6.13,3.11,9.24,4.59a3.36,3.36,0,0,1,2.21,3.63c-.12,1.54.09,3.1-.06,4.63a2.73,2.73,0,0,0,2,3.1c5.7,2.37,11.12,5.31,16.64,8.05,4,2,7.87,4.08,12,5.75a18.7,18.7,0,0,1,2.09,1.26c1.25.68,1.62.49,1.68-.9.06-1.18,0-2.36,0-3.55V190.43a13.51,13.51,0,0,1,0-1.91c.2-1.3.88-1.71,2.12-1.21s2.29,1.1,3.42,1.68c7.57,3.88,15.17,7.72,22.93,11.21a2.14,2.14,0,0,1,1.5,2.28c-.08,1.63.11,3.28-.05,4.9a3.19,3.19,0,0,0,2,3.48c3.24,1.64,6.43,3.39,9.77,4.81,1.91.82,3.65,2,5.63,2.65a3.43,3.43,0,0,0,1.75.4v-9.24c0-2.72,0-5.45,0-8.17,0-.8-.22-1.66.5-2.31.87.75.78,1.79.79,2.77q0,7.59,0,15.18c0,1.08.06,2.2-.92,3a3.25,3.25,0,0,1-3.11-.28c-4.82-2.35-9.73-4.5-14.5-6.93a5,5,0,0,1-3.11-5.21c.06-.72-.06-1.46,0-2.18.26-2.35-.83-3.52-3-4.5-7.1-3.25-14-6.91-21-10.38-2.87-1.43-3-1.37-3,1.79,0,5.36,0,10.72,0,16.08a3.93,3.93,0,0,0,2.52,4c13.27,6.14,26.15,13.07,39.44,19.18,6.19,2.84,12.05,6.31,18.23,9.19,10.13,4.71,20,10,30.11,14.69a17.85,17.85,0,0,1,1.94,1c2.06,1.29,2,2.21-.11,3.5a27.88,27.88,0,0,1-2.67,1.36c-22.81,10.81-45.38,22.13-67.95,33.43-6.17,3.09-12.49,5.88-18.64,9a4.52,4.52,0,0,0-2.88,4.67c.12,5.27,0,10.54,0,15.8,0,2.89.21,3,2.67,1.81,7.25-3.58,14.44-7.27,21.7-10.81,1.9-.93,2.89-2.21,2.55-4.27-.74-4.4,1.13-6.9,5.23-8.46s7.9-4.1,12.05-5.73c1.09-.43,2.18-1,3.41-.39a2.73,2.73,0,0,1,.94,2.43q.09,8.16,0,16.3A2.69,2.69,0,0,1,901.91,317.33Z"/><path class="cls-2" d="M197.4,315.69c-1.3-2-3.66-2.21-5.52-3.22-5.09-2.77-10.34-5.24-15.53-7.82a3,3,0,0,0-.71-.19,1.36,1.36,0,0,0-.3.15.38.38,0,0,0-.15.21c-.33,7.62-.06,15.24-.15,22.86.1,1.6-1,2.37-2.16,1.82-2.21-1.09-4.82-1.48-6.56-3.45l-1.09-.55c-3.32-.16-5.73-2.45-8.6-3.68a28.76,28.76,0,0,1-6.12-3.41c-1.85-.33-3.39-1.41-5-2.17-.63-.28-1.23-.76-1-1.64q0-3.56,0-7.09c-2.38-2.2-5.55-3.1-8.16-4.91-1.53-.42-2.83-1.36-4.34-1.85-.59-.19-1.39-.53-1-1.51a1.8,1.8,0,0,1,1.15-.43c4.56,1.36,8.56,3.89,12.73,6.07a3.19,3.19,0,0,1,1.4,3.6c-.77,4.46,1.31,6.69,5.28,8.41,6.49,2.81,12.64,6.36,19.14,9.2,2.41,1.06,2.55,1,2.56-1.66,0-5.45,0-10.9,0-16.34a3.78,3.78,0,0,0-2.4-3.83c-21.69-10.82-43.4-21.59-65.26-32.07-6.22-3-12.14-6.55-18.42-9.44-1-1-3.13-.69-3.16-2.78,1.35-.84,2.42.09,3.54.59,5.13,2.29,10,5,15.07,7.52a4.12,4.12,0,0,0,2.45.75c0-7.18,0-14.29,0-21.77-7.85,3.66-15,7.88-22.63,11.12.76.39,1.7.66,1.58,1.85-1.16.85-2.08.05-3-.49-1.37-.85-1.32-1.84,0-2.76.74-.52,1.53-1,2.27-1.48,18.63-9.43,37.45-18.51,56.22-27.67Q155.31,219.94,171,212a3.66,3.66,0,0,0,2.28-3.64c-.05-5.63-.06-11.26,0-16.89,0-1.95-.62-2.48-2.42-1.58q-11.34,5.67-22.67,11.34a3.11,3.11,0,0,0-1.87,3c0,.82-.07,1.64,0,2.45.28,3.05-1.08,4.91-3.86,6.13-4.73,2.07-9.1,5-14.15,6.3a1.79,1.79,0,0,1-1.14-.43c-.18-1.45,1.14-1.42,1.9-1.79,4.69-2.24,9.28-4.68,13.95-7a5.49,5.49,0,0,0,1.48-1.13v-7.09c-.24-.9.36-1.3,1-1.66,3.58-2,7.34-3.71,11.05-5.47a1.34,1.34,0,0,1,1,0l1.09-.54a4.36,4.36,0,0,1,2.73-1.64,3.66,3.66,0,0,0,1.64-.54c3.17-2.23,6.25-4.65,10.36-4.91H174c1.31-.08,1.23.76,1.09,1.64v21.26c.76,1.28,1.65.57,2.55.19,6.52-2.69,12.67-6.13,19-9.24,3.24-1.6,6.53-3.09,9.71-4.81a7.11,7.11,0,0,0,2.56-2V187c-.21-1.45,1-1.72,1.89-2.2,2.58-1.4,5.25-2.6,7.93-3.8a3.51,3.51,0,0,0,1.63-.54c.43-.54,1.15-.64,1.64-1.09,1.1-.53,2-1.44,3.27-1.64l3.27-1.09a43,43,0,0,1,14.18-7.09l1.09-.54c1.7-2.06,4.08-2.76,6.55-3.27,1.66-.11,2.21.75,2.19,2.32,0,4.15,0,8.31,0,12.47v15.2c.78,1.38-.39,2-1.16,2.63-1.39,1.21-3.18,1.73-4.79,2.56-12.36,6.32-24.89,12.32-37.36,18.43-13.12,6.42-26.12,13.09-39.26,19.47-7.25,3.53-14.48,7.12-21.73,10.64a15.31,15.31,0,0,1-2.58.79c-3.17.88-5.85,2.79-8.73,4.25-1.37.69-2.84,1.13-4.16,1.92-.84.5-1.87.69-2.66,1.66a35.47,35.47,0,0,0,7.23,4c3.52,1.6,6.81,3.63,10.33,5.22,4.26,1.92,8.21,4.49,12.71,5.88,3.93,1.19,7.44,3.32,11.11,5.08,14.58,7,28.95,14.38,43.45,21.53,11.81,5.82,23.68,11.53,35.44,17.46,1.34.68,3,1.25,2.16,3.36V348.4a1.23,1.23,0,0,1,.28,1.12,2.06,2.06,0,0,1-1.34,1.44,2.46,2.46,0,0,1-.81,0,58.16,58.16,0,0,1-14.49-7.51l-2.18-1.09a3,3,0,0,1-2.56-.55c-6.7-3.4-13.44-6.69-20.16-10-1-.52-2.59-.71-2.37-2.49v-7.09c-1.29-2.13-3.72-2.47-5.66-3.55S199.24,316.85,197.4,315.69Z"/><path class="cls-2" d="M608,113.41a1.64,1.64,0,0,0,1.09,1.63c3.13,2.95,5.26,6.65,7.65,10.15C626,138.7,634.7,152.62,645.56,165a19,19,0,0,1,1.72,2.42,5.6,5.6,0,0,0,2.18,2.19c3.6,2.41,6.73,5.42,10.22,8a46.16,46.16,0,0,0,19.53,8.33,5,5,0,0,1,3,1.11H692a9,9,0,0,1,3.61-1.09,52.06,52.06,0,0,0,10.81-2.58c1.67-.66,3.1-.85,4.43.66s1.33,3.21.4,5a32.4,32.4,0,0,1-10.7,11.75c-7,4.83-13.53,10.33-20.09,15.76-6.33,5.22-10.79,11.92-15,18.83a41.18,41.18,0,0,1-2.94,4.56,116.47,116.47,0,0,0-5.66,13.44,26.63,26.63,0,0,1-1.51,3.46c-1.58,2.88-3.92,3.59-6.84,1.95a19.66,19.66,0,0,1-5.64-5.06c-3.94-4.95-7.69-10-11.53-15.06-.55-.72-1.25-1.33-1.78-2.06-1.09-1.49-.85-2.52.88-3.13s3.39-1.26,5.23-2.08a11.9,11.9,0,0,0-4.11-4.45c-3.48-2.59-7-5.08-10.61-7.55a26.67,26.67,0,0,0-3.77-2.1c-4-1.88-8-3.81-12.13-5.5q-3.35-1.38-6.8-2.54c-5.24-1.74-10.53-3.28-15.78-5a10.73,10.73,0,0,0-2.87-.77c-3-.05-5.76-1.43-8.7-1.86-4.54-.67-9.06-1.54-13.61-2.14-2.14-.28-4.3-.43-6.43-.86a116.93,116.93,0,0,0-11.83-1.32c-5.25-.51-10.53,0-15.73-.6a97.61,97.61,0,0,0-15.75-.31c-5,.27-10,.13-14.93.51-4.31.32-8.62.72-12.94,1.06-2.69.21-5.31,1-8,1.19-3.22.27-6.4,1.06-9.61,1.43-1.18.13-2.26.72-3.47.6-2.26,1.49-4.92,1.88-7.46,2.37a155.79,155.79,0,0,0-28,8.51c-10.56,4.25-20.65,9.37-29.09,17.23-1.77,1.65-1.74,1.85.55,2.78a20.73,20.73,0,0,1,2,.78c2,1,2.52,2.4,1.21,4.2a223.08,223.08,0,0,1-16.09,20.21,11.92,11.92,0,0,1-2.58,2c-3.28,2-6.55,1.06-8.17-2.39-2.07-4.44-3.49-9.15-5.43-13.64A75.21,75.21,0,0,0,351,220.79a18,18,0,0,1-3.06-3.79c-4-2.83-7.79-5.94-11.62-9-3.43-2.7-6.89-5.34-10.46-7.83a31.19,31.19,0,0,1-9.37-10.06,7.75,7.75,0,0,1-1.29-3.82c0-2.05,1.82-4,3.69-3.39,4.78,1.45,9.66,2.42,14.53,3.44.36.07.6.4.88.62h10.91a11.34,11.34,0,0,1,8.18-1.63l1.09-.54c2.5-2,5.65-2.73,8.4-4.3,8.25-4.74,14.92-11.19,21-18.36,8.52-10.06,15.7-21.1,23.1-32a3.3,3.3,0,0,1,1.5-1.52,1.82,1.82,0,0,0,1.08-1.09c.21-2.94,2.48-4.77,4-7,6.42-9.45,13.36-18.54,21.69-26.42,9.34-8.84,19.72-16,32.44-19.15,3.69-.92,4.59-.53,5.87,3.12a44.48,44.48,0,0,0,6.9,12.58c.61.79,1.13,1.63,1.66,2.47a1.86,1.86,0,0,0,1.09,1.09c3.23,2,5.82,4.9,9.13,6.86a34,34,0,0,0,12.16,4.52,4.61,4.61,0,0,1,2.71,1.16h12.54a5.57,5.57,0,0,1,3-1.13c12.77-2.47,21.53-10.26,28.06-21.06a35,35,0,0,0,2.9-6.67c1.15-3.27,2.27-3.76,5.6-3,9.74,2.3,18.22,7.08,25.92,13.33a133,133,0,0,1,20.2,20.94A24.58,24.58,0,0,1,608,113.41Z"/><path class="cls-2" d="M489.67,544.13V536.5c-2-4.45-4.79-8.47-7.17-12.72-.78-1.4-.3-2.59.48-3.8a88.68,88.68,0,0,0,6.79-11.43,164.74,164.74,0,0,0,7-17.93c.47-1.45.63-3,1.64-4.28a54.3,54.3,0,0,1,2-10.27c1.35-5.44,1.88-11,2.72-16.51a5.38,5.38,0,0,1,1.29-3.21l0-4.36c-.92-1.58-.2-3,.52-4.35,0-3.82,0-7.64,0-11.47-.7-1.38-1.52-2.76-.53-4.35,0-1.27,0-2.55,0-3.82-1.43-2.27-1-4.94-1.59-7.39-.33-1.42-.48-2.88-.92-4.26-.67-2.07-1.85-2.67-4-2.12a28.09,28.09,0,0,0-3.1,1c-2.73,1.07-5,3.27-8.21,3.23-.91,0-1.37,1.09-1.82,1.89v4.36a3,3,0,0,1,.68,2.29,12.58,12.58,0,0,0,.33,5.56c.27,1.22.37,2.76-1.22,3.2s-2.29-.89-2.79-2c-2-4.56-3.89-9.17-6.09-13.65-2.7-5.53-5.41-11.06-7.76-16.76-2.16-5.25-1.19-6.86,4.41-7.59,1.22-.16,2.5-.65,3.71.09h.55c4.19-1.79,8.48-3,13.09-2.18h2.18c2.07-1,4.11-2.24,6.54-1.09H499c3.12-.83,5.67-2.4,7.08-5.45v-4.36a5.84,5.84,0,0,1-1.19-3.25,50.72,50.72,0,0,0-3.13-10.87c-1.14-2.87-3.75-5-5.15-7.83-.49-1-1.68-1.78-.89-3.13,0-1.09,0-2.18,0-3.27-.78-2.6.23-4.61,2.79-5.46a12.45,12.45,0,0,1,3.46-.65c5.6-.18,11.17-.75,16.77-.92a2.32,2.32,0,0,1,1.52.48h15.26c.71-.49,1.42-.5,1.87.27a2,2,0,0,1-.27,2.3,11.31,11.31,0,0,1-2.9,2.44c-6.3,4.06-9.14,10.11-10.14,17.26a51.39,51.39,0,0,1-.9,5.81c-1.27,4.84.62,9.32,1,13.95a2.43,2.43,0,0,0,1,1.59c7.42.53,14.86.36,22.27.67,3.61.15,7.22.33,10.84.43,2.36.07,2.68.78,1.55,2.79-2.1,3.76-5.62,5-9.52,5.33-2.33.21-4.63.91-7,.61-.79-.09-1.31.57-2,.83a81.46,81.46,0,0,0-9.7,4.88c-2,1.09-3,2.86-4,4.66a2.15,2.15,0,0,0-.25,1.59,36.9,36.9,0,0,1,.59,5.1c.49,3.4.83,6.79,1.08,10.22.4,5.49.57,11,1.14,16.47.51,4.9.34,9.77.4,14.65.07,5.71.74,11.38.69,17.1,0,2.21.62,4.49.4,6.74-.72,7.1-.46,14.22-.52,21.34a52.73,52.73,0,0,1-.59,14.52c-2.36,13.65-8.81,25.3-16.8,36.46-6.23,8.71-15.06,12.13-24.56,14.86-1.92.55-3.89,1.73-6,.68l-5.45,0c-1.1.88-2.39.7-3.64.58a2.93,2.93,0,0,1-2.79-2.21,3.43,3.43,0,0,1,1.14-3.9,11.94,11.94,0,0,1,2.34-1.37,26,26,0,0,0,10.92-9.88,26.52,26.52,0,0,0,2.93-8.08A4.92,4.92,0,0,1,489.67,544.13Z"/><path class="cls-2" d="M536.59,334.77v1.63c.07,1.5-.9,1.55-2,1.4a1.59,1.59,0,0,1-1-.51c-3.54-4.11-7.35-3.59-11.59-1-2.13,1.3-4.62.86-6.73-.56a2.91,2.91,0,0,0-3.52-.07c-3.06,1.91-6,1.36-9-.23-4.07-2.16-4.63-2.06-7.9.9-2.83,2.56-4.33,2.09-5.06-1.71-.4-2.09-1.24-4.16-.69-6.37l-.53-1.09c-1.91-2.13-2.88-4.82-4.32-7.22-4.1-6.83-10.46-10.65-17.42-13.8-1.35-.61-2.22-.1-3,1A30.87,30.87,0,0,1,456,315a21.55,21.55,0,0,0-4.82,4.76c-1.76,2.48-2.84,2.8-5.8,1.94-5-1.46-8.73-4.75-12.26-8.33a51.34,51.34,0,0,1-4.25-4.6c-1.69-2.18-1.54-3.11.66-4.7a22.68,22.68,0,0,1,3.05-1.78c1.12-.51,2.08-1.29,3.19-1.79a5.08,5.08,0,0,0,1.45-1c.87-.55,1.74-1.09,2.56-1.71l.52-.41c.17-.15.34-.28.52-.42s.35-.25.54-.37a8.43,8.43,0,0,0,1.53-1.2,4.19,4.19,0,0,1,.54-.4,7.4,7.4,0,0,0,1.11-.82,5.93,5.93,0,0,1,.56-.46c4.82-3.21,8.85-7.31,12.92-11.37.93-.93,1.71-2.12,3.14-2.44a1.14,1.14,0,0,1,.69.3H463a3.7,3.7,0,0,0,1,.53c2.86,1.53,5.61,3.33,8.95,3.74a5.29,5.29,0,0,1,.78.13c1.15.37,2.44.26,3.46,1h1.1a4.17,4.17,0,0,1,3.81-.54l1.64,0a4.45,4.45,0,0,1,1.91-1.48c3.49-.84,6.27-3.19,9.54-4.49.18-.19.38-.35.55-.55l.54-.55c.2-.16.36-.36.55-.54s.37-.36.54-.55a11.14,11.14,0,0,1,2-2.16c1.23-1.25,1.58-2.4-.37-3.29a36.06,36.06,0,0,0-6.55-1.63,6.51,6.51,0,0,1-3.27-1.09c-.85-1.52-2.67-.79-3.81-1.64-1.91,1-2.85-1-4.26-1.52-6.05-2.09-7.69-3.34-2.29-9.38a15.07,15.07,0,0,1,2.14-4.28c3.31-5.84,6-12,8.77-18.08,1.57-1.62,2.06-3.83,2.81-5.81,2.13-5.65,4.32-11.3,5.41-17.29.33-1.83,1-2.52,2.63-2.5,5,.07,9.91-.85,14.91-.6,4.24.21,8.46.44,12.67,1.05a12,12,0,0,0,1.9.07,113.68,113.68,0,0,1,14,1c2.41.28,4.85.29,7.28.58a130.76,130.76,0,0,1,16.27,2.54c2.29.58,4.64.67,6.91,1.28,7.31,2,14.72,3.67,21.47,7.23,2.48,1.31,4,3.69,5.26,6.07a30.94,30.94,0,0,1,3.45,10.17,68.5,68.5,0,0,1-.24,21.05,43.62,43.62,0,0,1-2.82,9.27c-.19.51-.36,1-.5,1.55-.73,2.79.1,4.63,2.83,5.59,2.51.88,4.55,2.61,7,3.6a5,5,0,0,1,1.43,1.23c1.92,1.94,1.8,1.57.64,3.89-1.61,3.23-3.44,6.34-5.19,9.5A95.73,95.73,0,0,1,598.65,307c-3.44,4.28-7,8.48-11.77,11.51A24,24,0,0,1,581,321.3c-2.29.71-2.71.58-4.11-1.34a9.27,9.27,0,0,0-2.69-2.64c-4.18-3-8.41-5.95-11.3-10.35a1.92,1.92,0,0,0-2.71-.85c-9.6,3.61-16.21,10.4-20.57,19.46a26.45,26.45,0,0,0-1.91,6.49A4.73,4.73,0,0,1,536.59,334.77Z"/><path class="cls-2" d="M811.91,471.08H785.19c-3,0-4.07-.88-4.27-3.95a55.26,55.26,0,0,1,0-6.81c.2-3.08,1.23-3.95,4.28-3.95h46.89c.72,0,1.45,0,2.18,0a2.79,2.79,0,0,0,2.65-2,11.94,11.94,0,0,0,.29-7.47c-.61-2.13-1.69-2.93-3.92-3.06-.63,0-1.27,0-1.91,0-11.81,0-23.62.11-35.43,0-6.24-.07-10.9-2.95-13.5-8.81a17.42,17.42,0,0,1-1.37-5.77c-.38-5.59-.8-11.26,1.43-16.63a12.64,12.64,0,0,1,6.7-6.82,20.59,20.59,0,0,1,8.44-1.76c16.35.07,32.71,0,49.06,0,3.35,0,4.36.93,4.5,4.3.09,2.18.07,4.36,0,6.54-.08,2.79-1.24,3.88-4.05,3.88q-22.63,0-45.25,0c-1.62,0-3.06.14-4,1.73a3.77,3.77,0,0,0-.67,2c0,1.45,0,2.91,0,4.36a3.68,3.68,0,0,0,3.93,3.9c.64,0,1.27,0,1.91,0q17.17,0,34.35,0a19.22,19.22,0,0,1,8.85,2.22c4.06,2.06,5.81,5.7,6.6,10a60.51,60.51,0,0,1,.47,12.47c-.1,3.74-.82,7.48-3.29,10.43a14.14,14.14,0,0,1-11.17,5.2C829.9,471.11,820.9,471.08,811.91,471.08Z"/><path class="cls-2" d="M579.47,445.45h-24c-.84,0-1.37.32-1.43,1.25-.2,3.07.08,6.07,2.4,8.31a9.78,9.78,0,0,0,6.75,2.39c3.82.11,7.64,0,11.45,0h27a15.69,15.69,0,0,1,2.17.05c1.83.26,2.52,1,2.55,2.87,0,2.54,0,5.09,0,7.63s-.67,3.06-3.1,3.08c-6.18,0-12.36,0-18.54,0-8.09,0-16.18,0-24.27,0a23.52,23.52,0,0,1-13.35-3.77c-4.24-2.82-6.3-7.08-7.27-12s-.42-9.76-.52-14.65c-.09-3.81,0-7.63,0-11.45a24.13,24.13,0,0,1,2.51-11.54,14.38,14.38,0,0,1,5.59-6.1c5-2.91,10.3-3.76,15.87-3.77q19.35,0,38.71,0c3.5,0,4.39.87,4.4,4.28,0,2.09,0,4.18,0,6.27a3.27,3.27,0,0,1-3.24,3.59,17.57,17.57,0,0,1-2.18,0c-12.81,0-25.63.17-38.44-.07-5.56-.11-8.65,4.13-8.49,9.31,0,1.11.4,1.72,1.59,1.67.72,0,1.45,0,2.18,0,14.45,0,28.9.07,43.35-.06,3.29,0,5.08,1.19,4.71,4.87-.14,1.44,0,2.91,0,4.36-.1,2.68-.79,3.36-3.46,3.36C594.74,445.46,587.1,445.45,579.47,445.45Z"/><path class="cls-2" d="M698,439.57v-27a15.84,15.84,0,0,1,0-2.18c.26-1.83,1-2.53,2.86-2.56,2.91,0,5.81,0,8.72,0,2.53,0,3.62,1.12,3.63,3.66,0,5.91,0,11.82,0,17.72,0,.64,0,1.27,0,1.91a1.11,1.11,0,0,0,1.18,1.2c.63,0,1.27,0,1.9,0h33c.37,0,.73,0,1.09,0,1.95-.08,2-.11,2.06-2,0-2.27,0-4.55,0-6.82,0-3.91,0-7.81,0-11.72,0-2.93,1-4,3.86-4s5.45,0,8.18,0c2.33,0,3,.73,3.22,3.06,0,.45,0,.91,0,1.36V467c0,.55,0,1.1,0,1.64-.16,1.55-.84,2.33-2.42,2.36-3.45.08-6.9,0-10.35,0a2.25,2.25,0,0,1-2.21-1.68,6.42,6.42,0,0,1-.27-2.68c0-6.09,0-12.18,0-18.27,0-2.41,0-2.45-2.42-2.45H715.75c-2.45,0-2.48,0-2.48,2.67,0,5.91,0,11.82,0,17.72a14.37,14.37,0,0,1,0,2.18c-.27,1.8-1,2.47-2.92,2.49q-4.49.06-9,0c-2.73,0-3.29-.61-3.3-3.43Q698,453.6,698,439.57Z"/><path class="cls-2" d="M190.31,394.2h63.8c2.88-1,5.29.71,7.75,1.56,5.59,1.92,8.86,6.19,10.32,11.78.62,2.39,1.91,4.75,1,7.38v12.54c.94,4-.74,7.51-2.33,10.87-3.27,6.9-9.17,9.41-16.62,10.26-15,1.71-30.09.44-45.11.94-1.23,0-2.59-.36-3.56.83v18c.08,1.55-.31,2.73-2.18,2.73H189.22c-1.48,0-2.25-.66-2.18-2.19V397.47c-.18-1.93.92-2.94,2.55-3.57A1.07,1.07,0,0,1,190.31,394.2Z"/><path class="cls-1" d="M347.91,217a39.81,39.81,0,0,1,8.36,8.84A79.6,79.6,0,0,1,365.21,241c2,4.72,3.84,9.5,5.7,14.27.16.42.37.83.57,1.24,1.7,3.44,4.72,4.12,7.82,1.9a30,30,0,0,0,5.85-6c3.71-4.65,7.3-9.41,11-14.11,2.11-2.72,3.58-4-1.49-5.51-.26-.08-.53-.15-.78-.25-3.05-1.24-2.92-1.25-.52-3.58a64.51,64.51,0,0,1,7.15-5.8A63.78,63.78,0,0,1,413,215.85c4-1.68,7.76-3.77,11.86-5.2,6-2.08,11.93-4.1,18-5.78,5.2-1.42,10.49-2.38,15.7-3.68-.07.26-.08.65-.25.75-2.23,1.3-4.42,2.74-7.08,3a2.72,2.72,0,0,1-1.32-.2,1.74,1.74,0,0,0-2.2.5,3.53,3.53,0,0,1-2.19.95c-3.8.68-7.34,2.5-11.27,2.71a2.84,2.84,0,0,0-1.17.62c-.38.25-.78.82-1.08.77-3.13-.59-5,2.88-8,2.5-5.48,2.68-11.43,4.44-16.44,8.06-2,1.43-4.4,2.07-6.25,3.74s-4,3.09-5.7,4.93c-1,1-.88,1.38.36,2l.25.11c1.11.36,2.52.5,2.78,1.85a5.8,5.8,0,0,1-.86,4.94c-2.28,2.91-4.5,5.87-6.77,8.79a52.49,52.49,0,0,0-3.87,4.81,27.73,27.73,0,0,1-8.22,8.56,5.85,5.85,0,0,1-8.88-2.43c-1.44-3.18-3.21-6.24-4-9.65-.46-1.91-1.53-3.63-1.63-5.64,0-.34-.07-.86-.3-1-1.62-1-1.9-2.8-2.88-4.15a38,38,0,0,1-3.6-6c-1.84-3.84-4.81-6.65-7.55-9.71C349.21,220.56,347.87,219.1,347.91,217Z"/><path class="cls-2" d="M425.34,267.71l-.56-1.64c-1.69-1-2-2.59-2.27-4.33-.33-2.19-1.23-4.32-.44-6.57v-1.1c-.66-.81-1.29-1.63-.55-2.72v-8.72c-.83-3.89.45-7.49,1.78-11,1-2.53,1.48-5.49,4.22-7,1.91-3.08,5.27-4,8.27-5.34A92.8,92.8,0,0,1,453.41,214c6-1.29,12-2.42,18.08-3.12,4.37-.5,8.79-.65,13.14-1.47,2.62-.49,3.2.07,3.42,2.67s-1,4.91-1.58,7.31c-1.29,5.29-2.55,10.64-5,15.59-.19.18-.37.36-.54.55-.19.72-.37,1.45-.55,2.18-.23,2.78-1.69,5.1-2.86,7.52a99.12,99.12,0,0,1-5.81,11.27c-1.73,2.64-3.05,3-5.59,1.12-2.77-2-5.81-3.67-8.1-6.28-.74-.48-1.62-.78-1.84-1.54a20.34,20.34,0,0,1-1.43,5.36v.54c.32.71-.15,1.16-.55,1.64-1.1,2.11-.34,4.36-.47,6.54a10,10,0,0,1,1.45,2.54c.08.35.13.71.19,1.07s.18.94.27,1.41a1.12,1.12,0,0,1-.34,1l.54,1.09a4.69,4.69,0,0,1,.46.54c.47,1.11,1.05,2.16,1.49,3.29a2.09,2.09,0,0,1,0,.75c-2.55,3.84-6.28,6.58-9.35,9.94a6.88,6.88,0,0,1-.55.53c-.19.17-.39.33-.59.49s-.41.32-.62.47a83.27,83.27,0,0,1-19.12,12.29c-3.83,1.81-4.36,1.67-6.64-1.73a13.8,13.8,0,0,0-.92-1.34c-2.19-3.76-4.3-7.56-6.38-11.37-1.52-2.79-1.13-4.09,1.37-6a36.79,36.79,0,0,1,6.64-3.68c3.87-1.92,3.93-1.94,3.35-6.14A1.4,1.4,0,0,1,425.34,267.71Z"/><path class="cls-2" d="M325.55,407.82h51.26c4.51-.36,8.46.74,11.45,4.36l.55.55a12.88,12.88,0,0,1,4.36,10.9v10.9c.92,5.38-3.21,12.58-8.57,14.93-2.7,1.18-2.63,1.12-.76,3.48,3.65,4.61,7.53,9,11.05,13.73,1.7,2.27,1.27,3.54-1.18,4.4H380.63c-2.12.72-2.91-1.11-3.79-2.25-2.5-3.3-5.15-6.5-7.57-9.86-1.75-2.41-3.58-4.75-5.55-7H339.87c-2.26.06-2.3.06-2.31,2.27,0,3.88,0,7.77,0,11.65v3c.44,1.9-.29,2.62-2.18,2.19H324.46c-1.92,0-2.76-.78-2.18-2.73v-56.7C321.68,408.86,322.78,407.56,325.55,407.82Z"/><path class="cls-2" d="M660.08,471.08c-7.18,0-14.36.06-21.54,0A22.83,22.83,0,0,1,626,467.23a16.75,16.75,0,0,1-5.1-6.19c-2.15-3.88-2.58-8-2.54-12.3,0-6.17.15-12.36,0-18.53a29.27,29.27,0,0,1,2.87-13.09c1.06-2.34,3.09-3.95,5.19-5.4,2.9-2,6.21-2.75,9.61-3.4a48.27,48.27,0,0,1,9.21-.48c12.09,0,24.18,0,36.26,0,.64,0,1.28,0,1.91,0,1.75.12,2.54.79,2.58,2.48.08,3.27,0,6.54,0,9.81a1.65,1.65,0,0,1-1.84,1.86L682,422c-12.55,0-25.09,0-37.63,0a23.82,23.82,0,0,0-5.36.76,7.12,7.12,0,0,0-5.3,6.8q-.13,10.23,0,20.45a6.91,6.91,0,0,0,5.66,6.4,30,30,0,0,0,6.2.53q17.44,0,34.9,0c.73,0,1.46,0,2.18,0,2.84.28,3.36.87,3.37,3.77,0,2.63,0,5.27,0,7.9,0,1.75-.51,2.27-2.19,2.46a17.39,17.39,0,0,1-1.91,0Z"/><path class="cls-1" d="M145.6,250.26a42.38,42.38,0,0,1,7.41-3.93c3.49-1.65,6.84-3.62,10.37-5.16,6.47-2.82,12.57-6.4,19.07-9.15,3.39-1.43,6.52-3.44,9.82-5.08,4.44-2.21,9-4.14,13.38-6.51,3.33-1.82,6.79-3.33,10.19-5,7-3.43,14.06-6.67,20.94-10.29C240.86,203,245,201,249.12,199c1.34-.66,3.15-1.22,3.36-3.22,1.3,1.06,1.51,2.27.47,3.24a11.25,11.25,0,0,1-3.51,2.05c-2.25.92-4.36,2.16-6.55,3.15-3.94,1.79-7.57,4.15-11.56,5.85a138.64,138.64,0,0,0-13.83,6.7,1.34,1.34,0,0,1-.23.13c-4.24,1.09-7.72,3.74-11.52,5.7-3.37,1.72-6.94,3-10.18,5a57.89,57.89,0,0,1-9.43,4.68c-2.11.85-3.9,2.31-5.92,3-4.09,1.32-7.36,4.26-11.55,5.3a10.36,10.36,0,0,0-2.84,1.54,4.93,4.93,0,0,1-3.25,1.12,1.48,1.48,0,0,0-1.43.64c-.89,1.3-2.28,1.71-3.67,2.16-3,.95-5.3,3.08-8.12,4.35A3.46,3.46,0,0,1,145.6,250.26Z"/><path class="cls-1" d="M608,113.41c-2.26-1.62-3.46-4.14-5.18-6.2a145.58,145.58,0,0,0-16.19-16.66,72.73,72.73,0,0,0-14.25-9.8,55.67,55.67,0,0,0-14.59-5.43,2.22,2.22,0,0,0-2.87,1.38c-.54,1.34-1.26,2.62-1.69,4-1.3,4.17-4,7.42-6.51,10.88-3.19,4.44-7.49,7.56-12,10.45a30.75,30.75,0,0,1-11.35,4.25c-1.23.22-2.42.82-3.73.59a1.62,1.62,0,0,1,1.15-1.91,21.57,21.57,0,0,1,2.6-.78,37.34,37.34,0,0,0,10.74-4.11,42.23,42.23,0,0,0,9.3-7.42c.51-.5,1.17-.84,1.72-1.3,1.26-1.06,2.52-2.14,2.82-3.88a9,9,0,0,1,3.21-5.21,2.69,2.69,0,0,0,1.18-2.52,7.71,7.71,0,0,1,.85-4c1.12-2.57,3.22-3.53,5.76-2.35,3.87,1.8,8,2.88,12,4.43a27.69,27.69,0,0,1,4.78,2.55c2.73,1.72,5.23,3.79,8.18,5.15a1.93,1.93,0,0,1,.69.43c2.46,3,6,4.87,8.49,7.89a73.68,73.68,0,0,0,5.39,5.36,20.75,20.75,0,0,1,3.68,5c.88,1.65,2.59,2.68,3.85,4.09S608.27,111.34,608,113.41Z"/><path class="cls-2" d="M487.51,471.09l-12.55,0c-1.33.27-1.65-.86-2.12-1.65-1.47-2.46-2.88-5-4.19-7.51a6.47,6.47,0,0,0-2.95-3.36H429.84c-1.25,0-2.67-.25-2.86,1.63-1.06,3.37-3,6.28-4.75,9.31-.55,1-1.2,2.4-2.89,1.6H406.26c-1.24,0-1.62-.5-1.1-1.64v-.55c-.82-1.29.14-2.25.67-3.22,7.59-13.92,15.11-27.87,22.73-41.76,2-3.58,4.07-7.07,6-10.67a12.78,12.78,0,0,1,5.21-5c.91-.51,1.91-1.17,3-.39h8.73c3.5-.36,6.05,1.51,7.66,4.17,7.58,12.49,14.2,25.52,21.39,38.23,2.64,4.66,5,9.49,7.76,14.08a11.53,11.53,0,0,1,1.86,4.21C490.5,470.59,489.63,471.39,487.51,471.09Z"/><path class="cls-1" d="M252.48,320.59a3,3,0,0,0-1.78-2.52c-7.26-3.6-14.47-7.29-21.74-10.85-4.63-2.26-9.37-4.29-14-6.52-2.52-1.21-4.91-2.69-7.41-3.93-8-4-16.1-7.75-24-11.86-5.15-2.67-10.52-4.87-15.63-7.58-2.53-1.34-5.38-2.17-7.55-4.17,3-.27,5.58.93,8.19,2.33,3.63,1.95,7.44,3.58,11.19,5.29a17.82,17.82,0,0,1,4.75,2.59,2.11,2.11,0,0,0,.66.47c4,1.37,7.66,3.48,11.48,5.24,2,.94,4.1,2,6,3,2.63,1.47,5.32,2.89,8,4.32a52.12,52.12,0,0,0,7.16,3.07,31.66,31.66,0,0,1,2.83,1.58c2.43,1.2,4.81,2.47,7.33,3.51a79.09,79.09,0,0,1,9.31,4.74,48.31,48.31,0,0,0,6.78,3.41c3,1.14,5.52,3,8.34,4.35C254,317.87,253.93,319.44,252.48,320.59Z"/><path class="cls-2" d="M561.12,323.86c.91,0,1.82,0,2.73,0a5.51,5.51,0,0,1,3.75,1.28,114.55,114.55,0,0,0,11.64,7.48c2.71,1.57,3.67,3.09,3.08,6.23a37.43,37.43,0,0,1-4.08,11c-3.45,6.39-8.31,11.54-13.22,16.7-2.82,3-5.71,5.86-8.68,8.67-4,3.79-8.4,7.17-12.22,11.16a2.08,2.08,0,0,1-2.49.61c-2.12-1.31-4.59-2-6.2-4.23a11.71,11.71,0,0,1-2.12-8.2c-.23-2.53,1.34-4.44,4.14-4.94a19.52,19.52,0,0,1,4.89,0c2.3.15,2.81-.66,2.25-3-.46-1.87-1.75-3.64-.92-5.73v-2.73c-.86-1.79.51-2.47,1.64-3.27,2.69-1.58,2.69-1.58,7.11-1.4,0-2.33-2.32-4.27-1.12-6.78v-1.64c-.68-1.44-.09-2.45,1.1-3.26l.54-.55c2.22-1.81,4.76-1.26,7.26-.95,1.14.14,2.18.84,3.58.59-.1-1.54-1.23-2.38-2.15-3.28a18.49,18.49,0,0,1-4.5-6.36c-1-2.65-.63-5.35,1.1-6.75C559.05,323.89,559.92,323.1,561.12,323.86Z"/><path class="cls-2" d="M462.42,323.83l3.82,0c1.74-.24,3.1.07,3.27,2.18l0,3.82c.75,1.59-.25,2.77-1,3.94a28,28,0,0,1-4.64,5.6c-1.51,1.38-.77,2,.71,2.44l1.09-.53c2.48-1.92,5.21-1.55,7.89-.68a2.6,2.6,0,0,1,1.93,2.86c0,1.46,0,2.91,0,4.36,1,1.94-.8,3.4-.81,5.3a32,32,0,0,0,3.78.47c3.21.3,4.85,2,4.68,4.59,0,1.09,0,2.18,0,3.27.87,1.75-.22,3.31-.51,4.94-.47,2.66,0,3.27,2.65,3.14a14.75,14.75,0,0,1,5.34.35,4.5,4.5,0,0,1,3.42,5.2v2.19c.86,1.69-.37,2.88-1,4.19a11.36,11.36,0,0,1-4.37,4.69c-3.77,2.22-4.94,2.14-7.91-1.08-1.83-2-4.25-3.34-5.77-5.62a1.84,1.84,0,0,0-1.09-1.09c-5.15-4.1-10.21-8.3-14.17-13.63-6.59-6.3-12-13.4-14.73-22.22-.24-.75-.65-1.55,0-2.32v-4.91c-.55-1.45.42-2.21,1.44-2.75,4.64-2.41,8.92-5.38,13.3-8.21C460.51,323.83,461.35,323.13,462.42,323.83Z"/><path class="cls-1" d="M482.05,93.23a10.18,10.18,0,0,1-2.82-2.88,50.28,50.28,0,0,1-6.85-13.21c-.6-1.84-1.34-2.32-3.26-1.81a72.08,72.08,0,0,0-15.86,6.12,72.84,72.84,0,0,0-11.95,8.27A118.1,118.1,0,0,0,428.66,102c-5.12,5.77-9.55,12-14.13,18.18-1.78,2.39-3.34,4.94-5,7.41a2.68,2.68,0,0,1,0-3.49c2.27-3.14,4.45-6.38,7-9.3,2.3-2.63,3.35-6.08,6-8.42,2.5-2.18,3.88-5.41,6.85-7.2a5.56,5.56,0,0,0,2.65-3.29c.4-1.38,1.76-2.32,2.89-3.18,3-2.31,5.73-5,8.74-7.3,2.09-1.61,4.52-2.64,6.55-4.31,3-2.45,6.79-3.29,10.14-5a1.49,1.49,0,0,1,.77-.23c2.48.4,4.19-1.43,6.29-2.14a7.16,7.16,0,0,1,1.75-.64c2.83-.26,3.87.26,4.65,3a48.62,48.62,0,0,0,3.44,8.11A22.52,22.52,0,0,0,481,89.7,4.45,4.45,0,0,1,482.05,93.23Z"/><path class="cls-1" d="M487.51,471.09c2.21-.5,2.75-1.33,1.82-3.35a50.18,50.18,0,0,0-3.37-6.2c-1.88-2.89-3.32-6-4.92-9.05-3.22-6.07-6.75-11.95-10-18-2.95-5.58-6.12-11-9.19-16.54L459.13,413a9.92,9.92,0,0,0-6.62-4.72,7.8,7.8,0,0,1-1-.43c.07-.6.35-1.15,1-1.05,2.47.38,5.18.37,6.36,3.26.41,1,1.4,1.7,1.41,2.9a.77.77,0,0,0,.62.8c1.28.25,1.56,1.39,2.09,2.31,1.34,2.35,2.71,4.67,4,7a4.68,4.68,0,0,1,.85,2.54c0,.46,0,1,.38,1.26,1.74,1.1,2,3.17,3.23,4.64s1.54,3.19,2.19,4.85c.55,1.41,1.9,2.54,2.62,4.16a26.05,26.05,0,0,0,3.18,5.57c1.87,2.32,2.57,5.16,4.07,7.62.82,1.36,1.61,2.83,2.46,4.17,1.73,2.73,2.74,5.89,4.89,8.35.62.31,1-.19,1.54-.33,2.16-.62,3.59.64,3.17,2.87a13.54,13.54,0,0,1-3.49,6.35c-1.46,1.66-4.09.68-4.55-1.59A13.2,13.2,0,0,1,487.51,471.09Z"/><path class="cls-1" d="M662.55,239.9c.26-2.05,1.54-3.7,2.54-5.33,3.5-5.69,7.17-11.31,12-16,4.28-4.13,9.06-7.71,13.73-11.4,2.4-1.91,4.62-4.09,7.25-5.65a47.48,47.48,0,0,0,8.36-6.84,28,28,0,0,0,4.47-6.43c1-1.69.29-3.54-1.37-4.67-.85-.58-1.5-.14-2.28.13A61.67,61.67,0,0,1,692,187c.67-1.42,1.5-2.56,3.34-1.88.48.18.86-.07,1.29-.16,1.77-.38,3.37-1.84,5.38-.78.38.2.82-.23,1.21-.47.77-.48,1.56-.93,2.36-1.36,4.06-2.19,6.54.14,7.1,3.57a7.2,7.2,0,0,1-.67,4.22,25.48,25.48,0,0,1-8.24,9.62c-2.56,1.93-4.94,4.22-7.93,5.59a4.45,4.45,0,0,0-1.2,1.1,34.51,34.51,0,0,1-8.42,6.33,4.26,4.26,0,0,0-1.46,1.18,4.13,4.13,0,0,1-2.48,2,1.05,1.05,0,0,0-.69.38c-1.32,2.54-4.37,3.56-5.5,6.26a1.76,1.76,0,0,1-.48.66,27.43,27.43,0,0,0-6.48,8.56c-1.09,2.13-3,3.84-3.75,6.21C664.93,239.44,663.5,239.29,662.55,239.9Z"/><path class="cls-1" d="M483.14,571.4a71,71,0,0,0,20.65-7.14,21.08,21.08,0,0,0,7.86-7.22c1.43-2.18,3.39-4,4.82-6.19,4.85-7.34,9.11-15,11.49-23.53,1.7-6.14,3-12.3,2.61-18.7-.08-1.31.65-2.46.56-3.74a1.62,1.62,0,0,1,1.62,2c-.25,2.47.76,5.08-.8,7.41.87,2.9-.72,5.37-1.23,8-.4,2.06-1.35,4-1.57,6-.32,2.79-1.62,5.16-2.34,7.75a4.81,4.81,0,0,1-1.47,2.53c-1.17,1-1.17,2.58-1.72,3.87A22.63,22.63,0,0,1,519,550a13,13,0,0,0-1.86,3c-1.59,2.74-4,4.9-5.58,7.64-.95,1.61-2.84,2.49-4.36,3.51-2,1.37-3.91,3-6.4,3.85-4.64,1.66-9.42,2.91-14,4.81A2.63,2.63,0,0,1,483.14,571.4Z"/><path class="cls-1" d="M433,302.6c-1.13.74-2.26,1.48-3.38,2.23-1.58,1.06-1.65,1.56-.62,3a46,46,0,0,0,4.94,5.39,33.22,33.22,0,0,0,6.86,5.72,32,32,0,0,0,6.25,2.59,2.2,2.2,0,0,0,3-1.15c1.46-3,4.22-4.67,6.65-6.68,2.64-2.2,5.28-4.37,7-7.47.84-1.55,1.46-1.58,3.13-.93a54.11,54.11,0,0,1,12.72,7.61,21.26,21.26,0,0,1,4.63,5.64c1.76,2.71,3.62,5.38,4.47,8.58a2.22,2.22,0,0,1-2.74-1.92,23.11,23.11,0,0,0-4.28-7.77,26.92,26.92,0,0,0-7.63-6.34c-1.78-1.06-3.71-1.85-5.47-3s-2.66-.77-4.11.86c-1.69,1.88-3.54,3.63-5.32,5.44a1.55,1.55,0,0,1-.64.49c-3.24.62-4.56,3.48-6.47,5.62-.94,1.07-1.83,2-3.35,1.87a1.31,1.31,0,0,0-1,.26c-1.57,1.34-3.2.57-4.57-.16a37.9,37.9,0,0,1-13.72-12c-.43-.63-1.09-.93-1.58-1.45-2-2.13-1.5-4.77,1.24-5.87a20.52,20.52,0,0,0,4-2.2c.08.1.17.19.25.28A1.11,1.11,0,0,1,433,302.6Z"/><path class="cls-3" d="M900.74,219.78c1.47-.23,1.16-1.38,1.16-2.33,0-5.6,0-11.21,0-16.82V199a1.24,1.24,0,0,1,1.13-.54c.29.35.79.23,1.09.53l0,0a.63.63,0,0,1,0,.77,4,4,0,0,0-1,3c0,4.36.06,8.71,0,13.06a3.79,3.79,0,0,0,2.4,3.83c21.34,10.65,42.7,21.27,64.21,31.58,3.35,1.61,6.72,3.19,10,5,.71.4,1.43,1,1.33,1.9s-.74,1.19-1.6,1c-3.61-3.18-8.12-4.7-12.37-6.7-1.45-.68-1.71.34-1.72,1.49,0,2.72,0,5.44,0,8.16,0,1.17.19,2.38-.55,3.44a1.1,1.1,0,0,1-1.18.11c-.56-3.41-.24-6.86-.15-10.27a5,5,0,0,0-3.25-5.28c-18.83-9.27-37.74-18.38-56.45-27.9C902.63,221.63,901.08,221.42,900.74,219.78Z"/><path class="cls-2" d="M304.83,411.1v57.25c.44,1.84.12,3.08-2.18,2.73H291.74c-1.69.6-2.27-.56-2.73-1.79a9.22,9.22,0,0,1-.32-3.23V412.74a12.28,12.28,0,0,1,.19-2.71c.29-1.23.82-2.23,2.32-2.2h10.9C304.44,407.82,305.07,408.57,304.83,411.1Z"/><path class="cls-1" d="M408.44,128.67a132.29,132.29,0,0,1-8.9,13.55c-1.8,2.48-3.37,5.13-5.24,7.55-2.82,3.62-5.35,7.46-8.31,11-2,2.41-4.45,4.48-6.23,7.12a11.54,11.54,0,0,1-1.87,2c-5.22,4.73-10.53,9.38-16.95,12.42-2.08,1-4,2.47-6.49,2.57.69-2.11,2-3.39,4.35-3.27,1,0,2,.13,2.34-1.24a1.41,1.41,0,0,1,.95-.92c4-1.44,6.85-4.61,10.07-7.19a29.74,29.74,0,0,0,3.18-2.54,132.47,132.47,0,0,0,11.78-13.38c2.29-3.13,4.87-6,7-9.3,1.2-1.89,2.62-3.62,3.72-5.6,2.32-4.2,5.84-7.61,8.09-11.88A1.78,1.78,0,0,1,408.44,128.67Z"/><path class="cls-4" d="M963.41,265.46l1.23.07c3.72-2.95,8.29-4.21,12.46-6.26a1.17,1.17,0,0,1,1.26.23c.09,1.55-1.21,1.94-2.22,2.39-7.78,3.49-15.31,7.51-23,11.19-16,7.67-31.87,15.78-47.79,23.69a3.45,3.45,0,0,0-2.17,3.42c0,4.53,0,9.07,0,13.61a3.81,3.81,0,0,0,1,2.75.62.62,0,0,1,0,.77h0c-.3.31-.81.19-1.09.53h-.54a5.38,5.38,0,0,0-.55-.52l0,0q0-9.25,0-18.49c0-1,.26-2.09-1.19-2.32.22-1.31,1.41-1.56,2.34-2,19.14-9.59,38.27-19.21,57.56-28.51C961.48,265.57,962.34,264.88,963.41,265.46Z"/><path class="cls-2" d="M99.79,305.33v-5.46c-2.29-2.17-5.24-3.21-8-4.5-6.88-3.24-13.66-6.65-20.42-10.13-2.81-1.44-5.82-2.47-8.6-4A9.29,9.29,0,0,1,60,279.16l-1.09-.55c-2.15.35-3.46-1.37-5.11-2.17-7.1-3.43-14.29-6.68-21.27-10.36-.93-.49-2.16-.7-2-2.19,0-3.26.08-6.52,0-9.78a3.43,3.43,0,0,1,2.23-3.61A9.68,9.68,0,0,0,36,248.62c5.11-2.9,10.39-5.48,15.73-7.94,3.68-1.7,7.27-3.57,10.84-5.5,4.31-2.33,8.82-4.21,13.23-6.33a2.4,2.4,0,0,1,1.84-.19.71.71,0,0,1,.47.62c-.57,1.32-1.89,1.63-3,2.18-13,6.46-25.87,13.19-39.07,19.22-2.8,1.28-3.59,3.07-3.84,6.08-.4,4.91,1.07,7.65,5.81,9.72,10.72,4.68,21,10.26,31.53,15.42,9.68,4.77,19.42,9.43,29,14.37,1.76.91,2.76,2.13,2.46,4.07-.56,3.61,1.17,5.53,4.36,6.79,1.62.64,3.5,1.13,4.47,2.88a1,1,0,0,1-.22.78C106.66,311,100.77,307.76,99.79,305.33Z"/><path class="cls-1" d="M205.58,450.36c0-.91.16-1.65,1.31-1.63.72,0,1.45,0,2.18,0q17.85,0,35.7,0a25.09,25.09,0,0,0,5.11-.51c2.48-.5,5.12-.21,7.53-.71,6.76-1.41,11.8-4.67,14.1-12.68.69-2.42,1.13-4.91,1.69-7.37,1.24.14,1.84.75,1.42,2s-.43,2.84-1.17,4.16a5.93,5.93,0,0,0-.8,2.86,2.55,2.55,0,0,1-.91,2.18,2.69,2.69,0,0,0-1.29,2.51,2,2,0,0,1-.9,1.62,58.88,58.88,0,0,1-5.8,4.31c-4.85,3.08-10.31,3.1-15.65,3.17C233.93,450.49,219.76,450.36,205.58,450.36Z"/><path class="cls-1" d="M291.2,407.83c-1.33.63-1.66,1.72-1.66,3.13q0,28.47,0,57c0,1.61.32,2.9,2.19,3.17-1.19,1.47-2.76,1.49-3.14-.08-.48-2-1.28-3.9-1.27-6.07.08-17,.06-34.06,0-51.1a9.54,9.54,0,0,1,1.3-5.18C289.19,407.8,289.88,406.64,291.2,407.83Z"/><path class="cls-1" d="M442.79,407.83c-3.89.89-6.44,3.36-8.31,6.78-3.46,6.34-7.16,12.54-10.45,19-2.14,4.17-4.63,8.14-6.66,12.37s-4.57,8.21-6.77,12.36c-1.85,3.51-4,6.85-5.44,10.58-1.52-.29-1.32-1.54-.9-2.32,1.21-2.28,1.64-5.05,4-6.64a1.54,1.54,0,0,0,.68-1.13c.37-3.07,2.14-5.52,3.65-8.08,1.79-3,3.87-6,5.27-9.17a89.73,89.73,0,0,1,6.28-11.89c2.36-3.75,3.51-8.13,6.46-11.51a3,3,0,0,0,.77-1.7,2.19,2.19,0,0,1,.42-1.26c2-2,2.84-4.79,5-6.57a6.77,6.77,0,0,1,4.67-1.88C442.25,406.78,442.72,407,442.79,407.83Z"/><path class="cls-1" d="M476.05,395.83c-2.22.79-4.66.43-6.86,1.46-1.87.88-2.09,1.06-1.54,3,1.11,3.94,3.14,7.5,4.79,11.21,3.24,7.26,7.11,14.23,9.83,21.73.35,1,.86,2.44,2.1,2.1,1.52-.42.93-1.88.68-3-.57-2.52-.13-5.07-.27-7.6,2.79,1.56,2.94,2.42.74,5a2.7,2.7,0,0,1,1.16,3.68,2.9,2.9,0,0,0,.05,1.84,2,2,0,0,1-1.52,2.27,2,2,0,0,1-2.54-.95,32.58,32.58,0,0,1-4.62-9.34,15.25,15.25,0,0,0-1.84-3.31c-1.64-2.8-2.37-6.08-4.55-8.59a.58.58,0,0,1-.12-.25c-.78-3.85-3.35-7-4.36-10.75a24.35,24.35,0,0,0-1.67-4,2.49,2.49,0,0,1,.48-3c2-2.47,4.89-2.84,7.76-3.18C474.89,394.09,475.55,394.92,476.05,395.83Z"/><path class="cls-1" d="M334.27,187c-5.07-.8-10.16-1.52-15-3.38a2.7,2.7,0,0,0-3.51,2.6,6.52,6.52,0,0,0,1,3.07,28.66,28.66,0,0,0,9.44,10.31c6,3.91,11.36,8.64,17.06,12.93a20.79,20.79,0,0,1,4.7,4.47,4.32,4.32,0,0,1-4.09-1.57,18,18,0,0,0-3.14-2.54c-3.26-2.27-6.21-4.94-9.44-7.21-2.13-1.49-3.93-3.45-6.33-4.58a6.84,6.84,0,0,1-1.83-1.58c-2-2.11-3.95-4.26-5.95-6.38-1.58-1.67-2.18-3.9-3.34-5.82a2.34,2.34,0,0,1,.54-3,23.19,23.19,0,0,1,2.18-2,3.36,3.36,0,0,1,4.07-.2,9.45,9.45,0,0,0,3.49,1.26c2.18.46,4.53.31,6.46,1.74.46.34,1,.14,1.56,0C333.56,184.83,334.31,185.49,334.27,187Z"/><path class="cls-2" d="M904.08,199.67l.06-.66c7.51,3.18,14.64,7.14,22,10.71a2.27,2.27,0,0,1,1.47,2.34c-.05,1.17.1,2.37,0,3.53-.2,1.74.56,2.64,2.1,3.29,5.92,2.49,11.49,5.69,17.29,8.44,4.47,2.13,8.91,4.36,13.42,6.42,4.34,2,8.42,4.5,12.76,6.47,2.21,1,4.21,2.46,6.58,3.16a7,7,0,0,1,1.46.7,106.81,106.81,0,0,0,12.4,6.17,3.91,3.91,0,0,1,2.76,4.39c-.18,2.62-.09,5.26,0,7.89a2.46,2.46,0,0,1-1.69,2.75c-2,.72-3.48,2.75-5.91,2.48l-.14-.39c.81-1.5,2.42-1.85,3.78-2.49a3.43,3.43,0,0,0,2.17-3.67,52,52,0,0,1,0-5.72c.14-2.13-.79-3.32-2.65-4.24L962.3,236.65c-10.91-5.4-21.85-10.75-32.73-16.19-2.72-1.35-4.24-3-3.79-6.07.33-2.26-.85-3.46-2.8-4.39-5.49-2.63-10.89-5.44-16.34-8.16C905.64,201.34,904.32,201.11,904.08,199.67Z"/><path class="cls-1" d="M647.28,167.38c-3.22-2.54-5.47-6-8.07-9.06-3.77-4.5-7.09-9.33-10.44-14.14-3-4.29-5.73-8.75-8.66-13.09-2.78-4.1-5.65-8.14-8.52-12.18a24.94,24.94,0,0,1-2.48-3.87,3.13,3.13,0,0,1,3.47,2c1,2,2.53,3.74,3.75,5.63,2.77,4.32,6.1,8.24,8.64,12.74,1.89,3.36,4.48,6.31,6.71,9.48,3.86,5.45,7.6,11,11.87,16.11a4.44,4.44,0,0,0,1,.91A5.31,5.31,0,0,1,647.28,167.38Z"/><path class="cls-1" d="M489.12,328.23c.54,2.47,1.05,4.94,1.64,7.39.52,2.14,1.28,2.36,2.89.9.67-.61,1.27-1.3,1.93-1.91a4.5,4.5,0,0,1,5.72-.85,10.92,10.92,0,0,1,1.43.77c3.08,2,6.22,2.41,9.33.19,1.22-.87,2-.92,3.23.14,2.41,2,5.16,1.62,7.88.37,1.07-.49,2-1.26,3.09-1.68a4.44,4.44,0,0,1,4.37.48,21.58,21.58,0,0,1,3.36,2.75c1,1,1.89.91,2.59-.38,1,1,.48,1.78-.53,2a3.82,3.82,0,0,1-3.62-.47c-.76-.64-1.63-1.15-2.35-1.82a3.09,3.09,0,0,0-3.89-.64,21.29,21.29,0,0,0-3.89,2,5.7,5.7,0,0,1-6.15-.06c-1.8-1.11-3.14-.88-5,0a7.17,7.17,0,0,1-7.42-.32,14.83,14.83,0,0,0-4.53-1.72,2.43,2.43,0,0,0-2.28.58,14.53,14.53,0,0,0-1.57,1.47,4.43,4.43,0,0,1-4.55,1c-1.41-.33-1.31-1.85-1.59-2.92-.44-1.73-.6-3.54-1-5.29A1.58,1.58,0,0,1,489.12,328.23Z"/><path class="cls-1" d="M498.41,486.34a29,29,0,0,1-2.28,8.61c-1.6,4-3.17,8-4.93,12a84.57,84.57,0,0,1-7.47,13.17c-1.54,2.25-1,2.06.09,4.45,1.71,3.67,4.76,6.58,5.7,10.62a9.81,9.81,0,0,1,.15,1.34c-1.28.19-1.71-.71-2.18-1.63-.92-1.82-1.38-3.92-3.45-5-.53-.28-.8-1.2-1-1.88a20.75,20.75,0,0,0-2.05-4.11,2.67,2.67,0,0,1,.42-3.72c2.1-1.81,2.62-4.63,4.44-6.57s2.45-4.86,4.36-6.84a1.84,1.84,0,0,0,.58-1.47c-.19-2.11.79-3.87,1.71-5.62a14,14,0,0,0,1-3.36,8.41,8.41,0,0,1,.87-2.27,11.33,11.33,0,0,0,1.53-4.26C496,488.4,496.43,486.62,498.41,486.34Z"/><path class="cls-1" d="M525.13,391.47c-.73,0-1.45,0-1.62-1-.53-3.28-1.1-6.56-1.63-9.84a3.83,3.83,0,0,1,0-1.35c.69-4.17,1.38-8.34,2.11-12.49a21.45,21.45,0,0,1,9.63-14.44,27.8,27.8,0,0,0,2.84-2.06c1.18-1,.8-1.93-1-2.43.56-.8,1-1.81,2.3-1.3a2.37,2.37,0,0,1,1.54,2.57c0,2.78-.45,3.44-3.41,4.21a1.88,1.88,0,0,0-.77.23c-4.63,3.64-8.31,7.88-9.54,13.93-.38,1.88-.09,4.1-1.74,5.64a.55.55,0,0,0-.07.75c1.59,1.74.29,3.45-.13,5.1a3.72,3.72,0,0,0,0,2.57c.59,1.49.44,3.18.73,4.67C524.73,388,524.84,389.73,525.13,391.47Z"/><path class="cls-1" d="M536.59,334.77a35.74,35.74,0,0,1,11.92-22.44A32.36,32.36,0,0,1,558.82,306c3.37-1.28,3.43-1.28,5.31,1.65,1.71,2.65,4.16,4.48,6.63,6.3a14.07,14.07,0,0,1,3.45,3.39,3.61,3.61,0,0,1-3-1c-3-2.72-6.07-5.28-9-8-1.54-1.43-3-.48-4.25.08a35.8,35.8,0,0,0-13.11,10.47,18.44,18.44,0,0,0-2.81,4.58c-.17.41-.28.95-.59,1.18-1.21.87-1.92,1.77-1.2,3.38.18.4-.38,1.15-.63,1.72-.57,1.32-1.48,2.49-1.47,4C538.18,334.78,537.33,334.75,536.59,334.77Z"/><path class="cls-1" d="M99.79,305.33a8.49,8.49,0,0,0,3.68,2.63c2,1,3.9,2.28,6.13,2.82h.27a2.44,2.44,0,0,1,.53.14,3.16,3.16,0,0,1,.5.22l.75.35.52.22c.27.1.54.18.82.26a2.72,2.72,0,0,1,.56.22,5.25,5.25,0,0,1,.49.33l.25.17a4.31,4.31,0,0,0,.84.33l.58.2.88.32a3.91,3.91,0,0,1,1.1.55c.24.17.48.35.73.5s.33.18.49.27.5.28.75.4a4.3,4.3,0,0,1,.53.25l.53.26.53.26.54.27c.18.07.35.17.53.26l.51.26c.16.07.33.15.49.24a1.84,1.84,0,0,0,.74.19,1.2,1.2,0,0,0,.46-.24,3.19,3.19,0,0,0,.17-1.59c0-5.79-.16-11.57.08-17.34a2.46,2.46,0,0,1,.33-.8,1.17,1.17,0,0,1,.67-.44,2,2,0,0,1,1.1.16,4.85,4.85,0,0,1,.61.29c.26.14.53.31.8.45s.35.16.52.24a6,6,0,0,0,.8.3,2.88,2.88,0,0,1,.82.3,1.55,1.55,0,0,1,.4.45c0,.1,0,.2.05.3,1.57,1.52,3.9,1.75,5.46,3.27a20.77,20.77,0,0,1-6.59-2c-1.83-.89-2.11-.8-2.13,1.32,0,4.26,0,8.52,0,12.78a5,5,0,0,1-1.36,3.71c-1.19,1.26-1.91,1.52-3.33.63-1.61-1-3.48-1.48-5-2.66a5.6,5.6,0,0,0-3-1.23,2,2,0,0,1-1-.32c-2-1.62-4.67-1.91-6.69-3.38-2.19-1.59-5-2-7-3.93C99.54,306.79,98.77,306.3,99.79,305.33Z"/><path class="cls-1" d="M144.49,208.82c0,1-.66,1.26-1.42,1.7-5.2,3-10.69,5.38-16,8.12,0,.15-.09.31-.14.47a2,2,0,0,1-.67.68c-1.92.54-1.59-.88-1.59-1.89,0-5.81,0-11.62,0-17.42a4.81,4.81,0,0,0-.08-1,.76.76,0,0,0-.67-.37,4.42,4.42,0,0,0-.52.14l-.51.22c-.26.12-.51.25-.76.39s-.35.19-.53.28-.55.29-.83.43l-.62.28c-1.52.49-2.62,2.29-4.55,1.44a2.28,2.28,0,0,1,1.44-2.15c1.71-.62,3-1.83,4.58-2.64,3.32-1.74,5.8-.12,6,3.72.08,2.17,0,4.34,0,6.51v8.71c2.28-1,4.27-1.69,6.15-2.64A89.36,89.36,0,0,1,144,208.9,3.23,3.23,0,0,1,144.49,208.82Z"/><path class="cls-1" d="M393.71,471.08c2.08-1.8,2.17-2.07.53-4.11-3.88-4.85-7.83-9.65-11.73-14.48-.56-.69-1-1.46-1.66-2.38a21.22,21.22,0,0,0,5-2c4-2.44,5.79-6.32,6.7-10.68.2-1,.51-1.91.62-2.9.59.1,1,.36,1.06,1a11.71,11.71,0,0,1-2.89,9.26c-.3.33-.79.59-.92,1-.77,2.27-2.77,3.2-4.56,4.39-1.54,1-1.73,1.62-.43,2.95,2.57,2.66,4.19,6,6.84,8.62a48.41,48.41,0,0,1,3.15,3.7c1.38,1.63,1.15,3.59.9,5.45C396.17,472,394.89,472.08,393.71,471.08Z"/><path class="cls-1" d="M489.67,544.13a26.41,26.41,0,0,1-9.13,17.56,38.91,38.91,0,0,1-6.9,4.23c-1.72.93-2.21,1.7-1.93,3.4.25,1.44,1.06,2,3,2.07,1,0,2,0,3,0,0,.64,0,1.24-.68,1.65a5,5,0,0,1-6.28-1.44c-1.71-2.57-1.56-5,.52-6.49a20,20,0,0,1,4-2.26c2.14-.84,3.83-2.37,5.64-3.64,1-.72,1.69-2.23,2.6-3.33.4-.49.64-1.11,1.25-1.39a2.11,2.11,0,0,0,1.15-2.25,7.71,7.71,0,0,1,1.16-3.85,5,5,0,0,0,1-3C488,544.3,488.76,544.11,489.67,544.13Z"/><path class="cls-1" d="M77.92,229a6.53,6.53,0,0,0-1.57.34c-4.81,2.48-9.83,4.5-14.58,7.13-3.27,1.81-6.66,3.5-10.12,5-4.38,1.9-8.58,4.21-12.85,6.34a5,5,0,0,1-2.81.86c.24-1.75,1.57-2.38,3-2.65a3.35,3.35,0,0,0,2.3-1.15,5,5,0,0,1,1.82-1.12c3-1.4,6.11-2.69,9.16-4a21.57,21.57,0,0,0,4.92-2.6c2.06-1.61,4.7-2.24,7-3.6,3.07-1.84,6.41-3.19,9.51-5A4.86,4.86,0,0,1,78,227.9.68.68,0,0,1,77.92,229Z"/><path class="cls-1" d="M561.12,323.86c-3.79.63-4.68,3.87-3.19,7.51a18.19,18.19,0,0,0,4.65,6.22,7.63,7.63,0,0,1,2.14,2.76,1.64,1.64,0,0,1,0,1.55c-.42.61-1,.14-1.46,0a22.42,22.42,0,0,0-6.61-1.19c-1.3,0-2.45.68-3.73.59.48-2.33.8-2.64,2.88-2.72.91,0,1.81,0,2.71,0,1.43-.08,1.66-.39.9-1.66-1-1.61-2.17-3.07-3.22-4.63-2.25-3.37-1.31-7.46,2.39-9.8C559.63,321.82,560.32,322.27,561.12,323.86Z"/><path class="cls-1" d="M425.34,267.71c.25.86.51,1.72.76,2.59a3.08,3.08,0,0,1-1.34,4,39.86,39.86,0,0,1-6,3.08c-1.57.77-2.87,1.84-4.32,2.72a2.21,2.21,0,0,0-.89,2.84,24.15,24.15,0,0,0,2.48,4.79,91.26,91.26,0,0,1,4.39,8.37,2.31,2.31,0,0,1,.3,2.42l-.3.3a29.46,29.46,0,0,0-3.26-5.41,34.45,34.45,0,0,1-4.73-9c-1.18-3.94.22-6.61,4.23-7.93.25-.09.63-.05.76-.22,1.27-1.56,3.17-1.92,4.89-2.63s2-1.93,1.95-3.51C424.27,269.18,423.81,268,425.34,267.71Z"/><path class="cls-1" d="M484.78,420.37c.23-2.36.9-2.91,3.06-2.9,1.41,0,2.83-.1,3.82-1.43,1.18-1.59,3.29-1.29,4.84-2.16a6.51,6.51,0,0,1,1.3-.32c.81-.24,1.48-1.06,2.49-.33s2.16,1.4,2.4,2.78a100.89,100.89,0,0,1,1.71,12,3.21,3.21,0,0,1-2.27-3.22c-.18-2.29-1-4.51-1.09-6.88-.06-1.84-.9-2.16-2.88-1.95a7.91,7.91,0,0,0-5.19,2.32c-1.34,1.36-3.42,1.45-5.32,1.54A5.69,5.69,0,0,0,484.78,420.37Z"/><path class="cls-1" d="M682.18,187a48.67,48.67,0,0,1-15.83-4.47,51.25,51.25,0,0,1-9.25-6.11c-2.65-2.17-5.62-4-7.64-6.85a4.21,4.21,0,0,1,3.93,1.35c.47.52,1.29.76,1.7,1.32,3.56,4.68,8.87,6.6,13.88,9a9.26,9.26,0,0,1,1.61,1c.5.39.93.92,1.61,1,3,.14,5.59,1.77,8.55,1.92C681.88,185.19,682.28,185.94,682.18,187Z"/><path class="cls-1" d="M60,279.16c4.73,2.41,9.58,4.57,14.34,6.92,5.75,2.84,11.4,5.89,17.29,8.44,2.56,1.11,5,2.53,7.47,3.76.77.37.67,1,.71,1.59a4.59,4.59,0,0,1-3.1-.76c-4.49-3.06-9.5-5.1-14.42-7.29-1.87-.84-3.56-2-5.42-2.86a30.85,30.85,0,0,1-5.91-3.21,4.15,4.15,0,0,0-2-.93c-3-.23-5.17-2.42-7.83-3.45A2,2,0,0,1,60,279.16Z"/><path class="cls-1" d="M520.23,347.85c-2.57.7-5.24.23-7.79.62-4.46.69-9,.08-13.43,1-2,.42-3.13,2-3.32,4.91-1.94-1.67-2-2.6-.65-4.51a7.36,7.36,0,0,1,6.36-3c5.44.14,10.81-.87,16.24-.64C518.85,346.26,520.08,346.17,520.23,347.85Z"/><path class="cls-1" d="M208.85,194.1c.16,1.1-.47,1.64-1.37,2.07-1.95.93-3.88,1.91-5.82,2.88-6.41,3.21-12.8,6.44-19.22,9.61-2.43,1.19-4.94,2.22-7.39,3.32-.8-.76.16-1.4,0-2.07a15.29,15.29,0,0,0,5.76-2.09,42,42,0,0,1,7.17-3.73,41.48,41.48,0,0,0,5.85-2.82,66.4,66.4,0,0,1,6.61-3.59A69.54,69.54,0,0,1,208.85,194.1Z"/><path class="cls-1" d="M273.2,414.92c-.53-2.27-1.11-4.52-1.59-6.8a17.61,17.61,0,0,0-4.95-8.77,13,13,0,0,0-5.33-3.08,33.33,33.33,0,0,0-7.22-2.07c.14-1.47,1.08-1.88,2.3-1.49s2.52.41,3.6,1.16a1.12,1.12,0,0,0,.49.24c3.1.19,4.92,2.79,7.45,4a4.44,4.44,0,0,1,1.48,1.56c2.87,3.85,4.16,8.35,5.28,12.91C275,413.86,274.66,414.77,273.2,414.92Z"/><path class="cls-2" d="M988.7,267.75c-.92,2-3,2.31-4.64,3a107,107,0,0,0-10,4.91c-4.89,2.53-10,4.68-14.81,7.29s-9.89,4.43-14.59,7.15c-2.56,1.49-5.25,2.76-7.9,4.08a6.23,6.23,0,0,1-1.58.3l-.18-.31c0-.12.05-.24.08-.36l.24-.27c.38-.33.79-.62,1.2-.91q16.31-8.47,32.87-16.43c5.31-2.55,10.42-5.52,15.87-7.8,1-.44,2-1.4,3.28-.73Z"/><path class="cls-1" d="M445,340.22c1.49,6.79,5.23,12.4,9.36,17.8a27.53,27.53,0,0,0,3.72,4.28,6.88,6.88,0,0,1,1.65,2.46c-1.94.35-3-.94-4-2.21-2.37-2.93-5-5.71-6.84-9s-4.2-6.15-4.75-9.91C443.9,342.51,443,340.9,445,340.22Z"/><path class="cls-1" d="M458.06,251.35c2.54,1.72,5.08,3.43,7.61,5.16,3.62,2.49,3.71,2.38,5.88-.9s3.68-7,5.45-10.6c1.19-2.4,2.28-4.86,3.42-7.29a1.42,1.42,0,0,1,.33,1.95c-1,1.82-1.51,3.83-2.41,5.7-1.62,3.35-3.43,6.6-5.08,9.93a17.36,17.36,0,0,1-2.53,3.82c-.72.81-1.63,1.33-2.63.71a48.33,48.33,0,0,1-9.73-7.47C458.15,252.13,458.16,251.69,458.06,251.35Z"/><path class="cls-1" d="M507.14,106.86a35.07,35.07,0,0,1-17.26-6.48c-2.42-1.8-5.07-3.4-6.74-6.06a2.61,2.61,0,0,1,3.29,1.05A11.63,11.63,0,0,0,490,98.26a59.24,59.24,0,0,0,9.59,5c1.21.53,2.66.51,3.91,1C504.91,104.7,506.78,104.78,507.14,106.86Z"/><path class="cls-1" d="M504.38,456.35a73.74,73.74,0,0,0-1.49,9c-.28,6.09-2.27,11.81-3.41,17.7-.22,1.11-.24,2.34-1.07,3.27-1.08-2.22-.42-4.54.2-6.57,1.08-3.47,1.25-7,1.89-10.56.23-1.27,1.65-2.16,1.18-3.37a5.55,5.55,0,0,1-.05-3.37,24.15,24.15,0,0,0,.07-2.7A3.42,3.42,0,0,1,504.38,456.35Z"/><path class="cls-1" d="M475,379.48a22.71,22.71,0,0,1,6.67,5.74c1.84,2.13,2.55,2.34,5.11,1.2,4-1.78,6.19-5,7.31-9.12,1.63.2,2.1,1.37,1.38,2.51-2.23,3.52-4.18,7.38-8.77,8.6a4.58,4.58,0,0,1-4.69-1c-1.88-1.59-3.38-3.61-5.64-4.83C475.47,382.13,473.61,381.28,475,379.48Z"/><path class="cls-1" d="M495.68,357.67a35.39,35.39,0,0,0,5.13,8.09,8.78,8.78,0,0,1,2.07,4c.71,2.68,1.78,5.27,2.29,8a23.78,23.78,0,0,1,.87,5c-1.26.15-2.13-.65-2-1.66.34-3.54-2-6.34-2.44-9.57-.46-3-2.7-4.85-4.1-7.22a22.13,22.13,0,0,0-2.41-3.86C494.12,359.38,494.41,358.68,495.68,357.67Z"/><path class="cls-2" d="M77.92,229l.06-1a3.7,3.7,0,0,0,1.64-.54c.42-.55,1.15-.64,1.63-1.09a1.12,1.12,0,0,0,1.09-.55,84.73,84.73,0,0,1,10.91-5.45c1.91-1.09,3.75-2.37,6-2.73,1-1,.44-2.2.52-3.32s0-2.14,0-3.22c.22-2.38,2-2.6,3.82-2.73l1.09-.54a34,34,0,0,1,10.36-5.45h.55c1.89-.15,3.11-1.79,4.89-2.19a.88.88,0,0,1,.25.77c-.5,1.23-1.72,1.55-2.74,2.07-4.69,2.38-9.38,4.77-14.13,7-2.09,1-3.15,2.43-2.82,4.7.46,3.27-1.19,4.82-4,6.14-5.25,2.47-10.4,5.16-15.69,7.53-1,.47-2,1.36-3.29.79Z"/><path class="cls-1" d="M30.54,263.89c1.71,2,4.29,2.51,6.47,3.72,5.41,3,11.29,5.12,16.67,8.23,1.7,1,3.47,1.85,5.21,2.77-.19.43-.52,1-1,.77-1.06-.47-2.29-.58-3.15-1.46-.31-.31-.48-.81-1-.86-2.79-.27-5.13-1.86-7.35-3.22-2.78-1.7-5.86-2.67-8.68-4.25a44.6,44.6,0,0,0-6.48-3C29.76,266,29.55,265.21,30.54,263.89Z"/><path class="cls-1" d="M363.72,452c1.15,0,1.77.86,2.37,1.63,1.76,2.28,3.4,4.65,5.19,6.91,2.07,2.6,4,5.29,6,7.94.84,1.1,1.68,2.43,3.32,2.61-1.2,1.48-2.35,1.48-3.55-.12-2.47-3.3-5.13-6.46-7.51-9.84a40.76,40.76,0,0,0-4.89-6.4A3.36,3.36,0,0,1,363.72,452Z"/><path class="cls-1" d="M543.67,360.94c.46,1.65.88,3.31,1.4,4.94a7.38,7.38,0,0,1,.23,2.42c0,2.28-.51,2.66-2.83,2.12a13.55,13.55,0,0,0-4.87-.14,4.93,4.93,0,0,0-4.29,4.29c-1.21-1-1.51-2.2-.65-3.34,1.4-1.86,3.14-3.27,5.65-3.19,1.53,0,3.08-.27,4.56.36a1.11,1.11,0,0,0,1.52-.52c-1.1-1.25-1.46-2.91-2-4.51C542,362.1,542.3,361.26,543.67,360.94Z"/><path class="cls-1" d="M494.05,375.11c-1.23-4.6-2.92-5.2-9-4.83-.93.05-1.91.9-2.71-.24a3.44,3.44,0,0,1-.48-3.32c.58-1.7.9-3.49,1.33-5.24a1.13,1.13,0,0,1,1.08,1.28,13.41,13.41,0,0,1-.42,3.72c-.42,1.51,0,1.77,1.53,1.64a14.56,14.56,0,0,1,5.86.45c2.27.73,3.24,2.46,3.85,4.49C495.29,373.88,495.42,374.94,494.05,375.11Z"/><path class="cls-1" d="M208.85,329.32a3.06,3.06,0,0,0,1.5,1.51c8,3.54,15.73,7.7,23.59,11.57-.43.91-1.05,1.23-2,.65-2.44-1.57-5.29-2.34-7.7-4-1.06-.72-2.47-.67-3.55-1.22-4-2.05-8-4.26-11.9-6.5C208,330.85,207.54,330,208.85,329.32Z"/><path class="cls-2" d="M904.13,317.32l-.06-.67c.26-1.42,1.57-1.65,2.56-2.16,5.56-2.82,11.16-5.57,16.73-8.37,1.38-.69,2.65-1.54,2.37-3.23-.83-5,2.38-6.91,6.2-8.42a5.61,5.61,0,0,1,2.08-.57,2,2,0,0,1,1.16.49l.05.05c-1.78,1.63-4.22,2-6.19,3.28a2.55,2.55,0,0,0-1.47,2.59c.07,1-.12,2,0,3,.35,2.11-.81,3.32-2.48,4-5.14,2.05-9.81,5.08-15,7.07C908.07,315.16,906.35,316.77,904.13,317.32Z"/><path class="cls-1" d="M462.42,323.83a6.76,6.76,0,0,0-2.65,1.26c-4.24,2.68-8.27,5.71-12.83,7.88-1,.48-1.89,1.07-2,2.34a3.47,3.47,0,0,1,1.73-4.38c2.72-1.57,5.45-3.12,8.12-4.78,1.48-.92,3.11-1.41,4.3-2.89C459.94,322.22,461.41,322.65,462.42,323.83Z"/><path class="cls-1" d="M459.7,364.76a7.62,7.62,0,0,1,1.06.81c3.62,3.77,7.48,7.28,11.34,10.79a6.51,6.51,0,0,1,1.77,2c-1.63.21-2.78-.48-4.07-1.52-3.22-2.58-5.8-5.8-8.92-8.45C459.66,367.38,459.65,366.12,459.7,364.76Z"/><path class="cls-1" d="M427.52,224.63a33.84,33.84,0,0,0-5.44,15.08c-.1,1-.7,1.88-.56,2.92-1.17-.69-1.76-1.64-1-2.92s-.41-2.23,0-3.42c1.08-2.83,1.57-5.83,3.23-8.53C424.82,226.13,425.29,224.54,427.52,224.63Z"/><path class="cls-1" d="M489.69,233.9c-.06,2.84-1.77,5.08-2.84,7.52-1.71,3.94-3.73,7.75-5.73,11.57a28,28,0,0,1-2.34,3.27,3.39,3.39,0,0,1,.34-2.81c1.91-3.13,3.47-6.49,5.32-9.63,1.59-2.69,2.09-5.79,3.89-8.32C488.74,234.92,488.94,234.19,489.69,233.9Z"/><path class="cls-1" d="M489.69,393.65l-13.09,2.18a4.12,4.12,0,0,1,3.79-3c2.42-.24,4.83-.57,7.25-.81A1.64,1.64,0,0,1,489.69,393.65Z"/><path class="cls-1" d="M465.7,458.55a2.3,2.3,0,0,1,2.62,1.33c1.68,3.24,3.53,6.39,5.29,9.59.35.63.61,1.32,1.35,1.6-1.44,1.09-2.46.07-3.12-.92a26.27,26.27,0,0,1-2.75-5.25,5.69,5.69,0,0,0-1.45-2.51C466.47,461.37,466.36,459.82,465.7,458.55Z"/><path class="cls-1" d="M464.6,341.84l-.53.09c-.65.1-1.39.87-1.94,0s0-1.68.63-2.36a40.64,40.64,0,0,0,4.29-4.78,12.61,12.61,0,0,0,2.49-5,2.84,2.84,0,0,1,.3,4.28c-1.32,1.56-2.65,3.11-4.07,4.57A3.62,3.62,0,0,0,464.6,341.84Z"/><path class="cls-1" d="M481.51,235a4.53,4.53,0,0,1,.35-1.84c1.79-4.5,2.75-9.25,4.22-13.86a16,16,0,0,0,.8-3.65,9.24,9.24,0,0,1,1.17-3.55c.72.37,1.25.84.77,1.71a13.18,13.18,0,0,0-1.87,6.65,3.65,3.65,0,0,1-.58,1.79c-.72,1.18-.64,2.55-1,3.76C484.4,229.1,483.78,232.42,481.51,235Z"/><path class="cls-1" d="M478.78,256.26c-.77,1.42-1.55,2.84-2.31,4.27s-.59,2.13.84,2.86c2.64,1.33,5.34,2.52,8,3.77-.51,1.12-1.43,1.29-2.14.47a3.42,3.42,0,0,0-3-1.19,2.26,2.26,0,0,1-1.69-.73,4.94,4.94,0,0,0-2.7-1.67,2,2,0,0,1-1.32-2.61C475.31,259.24,476.23,257.05,478.78,256.26Z"/><path class="cls-1" d="M419.34,471.08c2-.23,2.42-2,3.18-3.33a64,64,0,0,1,4.46-7.58,9.58,9.58,0,0,1-1.58,6.41,18.32,18.32,0,0,0-1.88,3.56,3,3,0,0,1-3.18,2A1,1,0,0,1,419.34,471.08Z"/><path class="cls-1" d="M483.17,358.21c-1.35-3.88-5.22-5.41-9.71-3.69.58-2.33,1.72-4.39,2.06-6.67,1.7.4,1.09,1.61.81,2.58-.61,2.07-.2,2.85,1.93,2.84a14.31,14.31,0,0,1,4.24.69C484.54,354.57,484.84,356.8,483.17,358.21Z"/><path class="cls-1" d="M236.12,343.49c2,1,4,2,6,3,2.91,1.4,5.84,2.75,8.76,4.12-.85,1.63-2.14.6-3.27.55a86.19,86.19,0,0,0-9.55-5.05C236.9,345.51,235.93,345,236.12,343.49Z"/><path class="cls-1" d="M242.66,169.56l-14.18,7.09a2.18,2.18,0,0,1,1.29-2.45c3.44-1.29,6.54-3.28,9.89-4.75.57-.25,1.18-.42,1.77-.62S242.4,169.07,242.66,169.56Z"/><path class="cls-1" d="M150.51,318.41a3.77,3.77,0,0,1,1.8.44c4.29,2.25,8.61,4.44,12.92,6.65-1.34,1.17-2.69.09-3.73-.35-3.3-1.38-6.45-3.13-9.65-4.77C151.07,320,150.9,319.11,150.51,318.41Z"/><path class="cls-1" d="M157.59,194.64c-3.58,1.8-7.18,3.59-10.75,5.4-.87.43-1.9.66-2.34,1.69a1,1,0,0,1,0-1.79c1.22-.77,2.15-1.94,3.54-2.45a60.92,60.92,0,0,0,7.33-3.4C156.36,193.59,157.1,193.52,157.59,194.64Z"/><path class="cls-1" d="M475.51,343.49c-.65-2.06-2.33-2.54-4.2-2.73a20.84,20.84,0,0,0-5.62.55c.47-2.32.8-2.64,2.86-2.72.81,0,1.62,0,2.43,0a5.21,5.21,0,0,1,5,4A.87.87,0,0,1,475.51,343.49Z"/><path class="cls-1" d="M388.26,412.19c-3.39-2.58-7.35-3.66-11.45-4.36.08-.35.09-.77.47-.9,3-1,9,1.07,10.7,3.7A2.92,2.92,0,0,1,388.26,412.19Z"/><path class="cls-1" d="M551.3,346.76c.34,2.73,1.59,5.17,2.42,8-1.19-.14-2.06-1.14-3.28-.92s-2.33-.19-3.3.83c-.44.48-1.2.26-1.83.29,1.37-2.17,1.59-2.33,3.83-1.87.78.16,1.43.26,1.9-.49s0-1.31-.45-1.92C549.22,348.74,549.28,348.51,551.3,346.76Z"/><path class="cls-1" d="M393.17,423.64a1.94,1.94,0,0,1-.22-.49c-.42-3.86-2.24-7.15-4.14-10.41a2.47,2.47,0,0,1,2.35,1,13.6,13.6,0,0,1,3.09,8.64A1.1,1.1,0,0,1,393.17,423.64Z"/><path class="cls-1" d="M422.07,255.17c.74,1.78.69,3.72.91,5.57a17.57,17.57,0,0,0,1.8,5.33c-1.31.15-2.56-.22-2.57-1.64,0-2.08-1.07-3.77-1.58-5.66C420.08,256.7,420.36,256,422.07,255.17Z"/><path class="cls-1" d="M93.25,220.27c-1.48,1.83-3.82,2.21-5.73,3.33-1.59,1-3.16,2.13-5.18,2.12.43-2.1,2.26-2.62,3.88-3.34,1.29-.58,2.74-.65,3.87-1.75C90.89,219.85,92.18,220.36,93.25,220.27Z"/><path class="cls-1" d="M115.06,202.28c-1.77,1.72-4.14,2.46-6.27,3.53-1.32.67-2.56,1.66-4.09,1.92a2,2,0,0,1,1.15-2.21c2.32-1.12,4.64-2.28,6.93-3.47A2.27,2.27,0,0,1,115.06,202.28Z"/><path class="cls-1" d="M495.14,279.16a20.12,20.12,0,0,1-8.53,4.74c-1.07.26-1.77,1.27-2.92,1.24a1.73,1.73,0,0,1,1.38-2,27.11,27.11,0,0,0,6.69-3.37A5.42,5.42,0,0,1,495.14,279.16Z"/><path class="cls-1" d="M197.4,315.69c2.5.16,4.43,1.81,6.66,2.68a34.64,34.64,0,0,0,3.35,1.64,1.84,1.84,0,0,1,1.44,2.22c-3.32-2-7.06-3.08-10.33-5.16C198,316.73,197.4,316.45,197.4,315.69Z"/><path class="cls-1" d="M218.67,181c-2.15,2-5,2.88-7.47,4.29-.85.48-1.91.68-2.35,1.71-1.18-1.28-.06-2,.79-2.51C212.45,182.85,215.22,181,218.67,181Z"/><path class="cls-1" d="M166.32,326.05c2,.9,4.17,1.44,6,2.71,1.39,1,2.08,0,2.7-1.08,1.2.18,1.28.85.68,1.7-.79,1.15-2.54,1.43-4.16.62-1.4-.71-2.5-1.93-4.28-2C166.34,328,166.32,326.88,166.32,326.05Z"/><path class="cls-1" d="M173.41,187c-3.67,1.19-6.8,3.5-10.36,4.91a2.12,2.12,0,0,1,1.89-2.51,9.42,9.42,0,0,0,3.29-1.64C169.78,186.81,171.45,185.65,173.41,187Z"/><path class="cls-1" d="M506,387.11c-.61,3.67-2.91,5.44-7.08,5.45a3.32,3.32,0,0,1,2.61-2.42,3.51,3.51,0,0,0,2.7-2A1.91,1.91,0,0,1,506,387.11Z"/><path class="cls-1" d="M353.36,185.37,345.18,187a1.56,1.56,0,0,1,1.16-1.89q2.51-.57,5-1.27C352.46,183.51,353.25,184.09,353.36,185.37Z"/><path class="cls-1" d="M437.34,299.87a1.86,1.86,0,0,1-1.09,1.09c-1.1-.58-2.18,1-3.27,0,.09-.15.15-.39.28-.44,4.59-1.85,8.23-5.09,12-8.11.19-.15.52-.12.78-.17,0,.12.09.24.13.35-.1.82-.92,1.15-1.22,1.83-.52.4-1.12.68-1.63,1.09a15.34,15.34,0,0,0-2.18,1.64c-.19.17-.37.36-.55.54A12.21,12.21,0,0,0,437.34,299.87Z"/><path class="cls-1" d="M136.33,302.6a23.92,23.92,0,0,1,7.68,3.69,1.44,1.44,0,0,1,.48,1.22,4.68,4.68,0,0,1-1.07-.1c-2.31-.73-3.92-2.72-6.25-3.47C136.78,303.82,136.6,303.06,136.33,302.6Z"/><path class="cls-1" d="M498.41,392.56c-1.46-.16-2.79.47-4.17.79a10,10,0,0,1-2.37.3C493.75,390.18,496,389.8,498.41,392.56Z"/><path class="cls-1" d="M250.3,165.75c-1.94,1.58-4.47,2-6.55,3.27a2.26,2.26,0,0,1,2-2.68,5.48,5.48,0,0,0,2.29-1.27C249,164.5,250,164.24,250.3,165.75Z"/><path class="cls-1" d="M499,271.52a6.23,6.23,0,0,1,1.06,0c1.62.33,1.74.67,1,2.09a7.1,7.1,0,0,1-3.67,3.33,2.65,2.65,0,0,1,1-2.33A2.73,2.73,0,0,0,499,271.52Z"/><path class="cls-1" d="M445.5,489.89a1.49,1.49,0,0,1-1.66,1.69,1.53,1.53,0,0,1-1.59-1.74,1.51,1.51,0,0,1,1.67-1.65A1.48,1.48,0,0,1,445.5,489.89Z"/><path class="cls-1" d="M144.5,314.6c.88,1.72,3,1.41,4.25,2.63.49.48,1.33.54,1.76,1.18-1.92.44-5.54-.93-6.34-2.41A1,1,0,0,1,144.5,314.6Z"/><path class="cls-1" d="M325.55,407.82a3.5,3.5,0,0,0-3.27,3.83c-1.16-.69-1.72-1.59-1-2.91a3.42,3.42,0,0,1,3.26-2A1,1,0,0,1,325.55,407.82Z"/><path class="cls-1" d="M304.83,411.1c-.37-1.54-.85-3-2.73-3.28.93-1.17,1.76-1.37,2.78-.68s1.64,2.27,1,3.14A5,5,0,0,1,304.83,411.1Z"/><path class="cls-1" d="M443.34,291.15c-.66,1.43-2.32,1.51-3.41,2.41-1.76,1.44-3.92,2.38-5.66,3.94-.27.24-.85.14-1.29.19l-.09-.38a24.17,24.17,0,0,1,10.14-6.4Z"/><path class="cls-1" d="M99.25,217.54a13.05,13.05,0,0,1-6,2.73,7.36,7.36,0,0,1,3.47-2.85A2.42,2.42,0,0,1,99.25,217.54Z"/><path class="cls-1" d="M469.51,326c-.58-1.48-2.1-1.57-3.27-2.18,1-1.52,1.83-1.65,3.28-.5C470.59,324.21,470.59,324.83,469.51,326Z"/><path class="cls-1" d="M302.65,471.08c1.65-.17,1.88-1.48,2.18-2.73,1.14.18,1.49.86,1.22,1.93-.2.78-.33,1.66-1.34,1.8S302.83,472.44,302.65,471.08Z"/><path class="cls-1" d="M504.41,431.82c0,1.47.84,2.84.53,4.35a7.28,7.28,0,0,1-1.61-.93C502.21,434.13,502.7,432.67,504.41,431.82Z"/><path class="cls-1" d="M454.79,255.17a18.73,18.73,0,0,1,1.27-5.7,3.92,3.92,0,0,1,2,1.88c-1.24.28-2.48.43-2,2.33C456.28,254.37,455.43,254.83,454.79,255.17Z"/><path class="cls-1" d="M103.61,208.27c-1.36.8-3,1.12-3.82,2.73-.84-.44-1.34-1-.53-1.89A4.05,4.05,0,0,1,103.61,208.27Z"/><path class="cls-1" d="M335.37,471.08a2.29,2.29,0,0,0,2.18-2.19c1.31.17,1.12,1.13,1,2a1.3,1.3,0,0,1-1.2,1.2C336.5,472.19,335.54,472.39,335.37,471.08Z"/><path class="cls-1" d="M189.77,394.2a6.31,6.31,0,0,0-2.73,3.27c-.73-2-.54-2.53,1.64-4.36a.33.33,0,0,1,.54,0h.55A.75.75,0,0,1,189.77,394.2Z"/><path class="cls-1" d="M504.93,447.64c.33,1.51-.52,2.88-.52,4.35C502,450,502.11,449.22,504.93,447.64Z"/><path class="cls-1" d="M322.28,468.35a3,3,0,0,0,2.18,2.73c-.2.42-.49.92-1,.77a5.18,5.18,0,0,1-1.9-1C320.83,470.2,321.14,469.25,322.28,468.35Z"/><path class="cls-1" d="M482.05,285.15c-1.19.76-2.52.51-3.81.54C479.63,283.58,480.69,283.43,482.05,285.15Z"/><path class="cls-1" d="M552.4,341.86c-.37,1.09-.74,2.17-1.1,3.26-.77-.54-1.78-.93-1.32-2.21S551.44,341.85,552.4,341.86Z"/><path class="cls-1" d="M187,468.89a5.6,5.6,0,0,0,2.18,2.19c-.19.41-.45.87-.94.78a3,3,0,0,1-1.95-1.3C185.75,469.69,185.88,469.06,187,468.89Z"/><path class="cls-1" d="M477.14,285.69c-1.29,0-2.62.22-3.81-.54-.43-1.15-.08-1.53,1.09-1.09A2.18,2.18,0,0,1,477.14,285.69Z"/><path class="cls-1" d="M545.31,354.94c-.61,1.06-1.58,1.94-1.64,3.27-1.45-1.15-1.45-2.59,0-3.15A5.6,5.6,0,0,1,545.31,354.94Z"/><path class="cls-1" d="M247.57,351.13c1.09-.17,2.31.44,3.27-.55h.55c1.05.33,1.05-.41,1.09-1.09V348.4a1.89,1.89,0,0,1,1.05,2.23c-.06.49-.27.95-.77.94C251,351.54,249.22,352.18,247.57,351.13Z"/><path class="cls-1" d="M203.4,471.08a4.89,4.89,0,0,0,2.18-2.73,2.08,2.08,0,0,1,0,2.89C204.86,472.27,204.05,472.36,203.4,471.08Z"/><path class="cls-1" d="M457.51,275.34v-.55a8.46,8.46,0,0,0-1.63-3.27V271c2.53,1.12,3.28,3.18,2.18,6l-.26-.26C457.53,276.29,457.87,275.74,457.51,275.34Z"/><path class="cls-1" d="M454.79,267.71v-1.09c.37-.69-.29-1.62.54-2.19.84,1.29.78,2.81,1.06,4.24.13.72-.31,1.15-1.05,1.22V268.8A2.13,2.13,0,0,0,454.79,267.71Z"/><path class="cls-1" d="M225.21,177.74a3.46,3.46,0,0,1-3.27,1.64,5.24,5.24,0,0,1,1.51-1.73C224,177.14,224.66,177,225.21,177.74Z"/><path class="cls-1" d="M465.69,280.79c1.89,1,4,1.42,6,2.18l-.3.3a4.94,4.94,0,0,1-5.8-2.07C465.62,281.06,465.66,280.93,465.69,280.79Z"/><path class="cls-1" d="M421.52,251.35c.06.93.71,1.75.55,2.72-.71,0-1.5.05-1.6-1C420.39,252.28,420.37,251.46,421.52,251.35Z"/><path class="cls-1" d="M405.16,469.44a1.66,1.66,0,0,0,1.1,1.64c-.08.57-.25,1.07-1,1a1.24,1.24,0,0,1-1.16-1.23A1.48,1.48,0,0,1,405.16,469.44Z"/><path class="cls-1" d="M161.41,192.46c-.83.68-1.55,1.53-2.73,1.64C159.08,191.8,159.22,191.72,161.41,192.46Z"/><path class="cls-1" d="M489.14,268.8a5,5,0,0,1,3.27,1.09C490.83,271,490,269.8,489.14,268.8Z"/><path class="cls-1" d="M175,188.65c-.32-.57-.47-1.26-1.09-1.64a1,1,0,0,1,1.79,0C176.38,187.84,175.7,188.28,175,188.65Z"/><path class="cls-2" d="M542,413.56c-.05.58-.28,1.06-.92,1.13-.49.05-.57-.36-.56-.73a1,1,0,0,1,.78-1C541.67,412.86,541.91,413.14,542,413.56Z"/><path class="cls-1" d="M455.33,264.43c-.07.76.26,1.61-.54,2.19-.47-.87-1.37-1.56-1-2.73h.47C454.52,264.24,455,264.12,455.33,264.43Z"/><path class="cls-1" d="M431.88,298.24a3.43,3.43,0,0,1-3.27,1.63c0-.13-.05-.26-.08-.39a3.19,3.19,0,0,1,3-1.48Z"/><path class="cls-1" d="M474.42,284.06a1,1,0,0,0-1.09,1.09h-.55c-.44-.35-1-.64-.76-1.37l.22-.26C473,283.6,473.85,283.26,474.42,284.06Z"/><path class="cls-1" d="M461.88,280.24h-.55c-.6-.42-1.36.22-1.95-.28l-.23-.26C460.8,278.86,461.09,278.91,461.88,280.24Z"/><path class="cls-1" d="M448.79,286.24l-1.64,1.64-.25-.27a1.13,1.13,0,0,1,.25-1.37c.19-.17.37-.36.55-.54a.76.76,0,0,1,.95.21Z"/><path class="cls-1" d="M454.24,257.35a3.68,3.68,0,0,1,.55-1.64C455.68,256.62,455.4,257.13,454.24,257.35Z"/><path class="cls-1" d="M221.94,179.38a1.65,1.65,0,0,1-1.64,1.09C220.35,179.36,221.15,179.37,221.94,179.38Z"/><path class="cls-1" d="M463.51,280.79l-.54-.54c.92.13,2-.37,2.72.54A1.65,1.65,0,0,1,463.51,280.79Z"/><path class="cls-1" d="M81.25,226.27a1.64,1.64,0,0,1-1.63,1.09C79.66,226.25,80.46,226.26,81.25,226.27Z"/><path class="cls-1" d="M425.34,301.51a1.85,1.85,0,0,1-2.73,0l.27-.27a2.38,2.38,0,0,1,2.2,0Z"/><path class="cls-1" d="M448.79,289.51a1.66,1.66,0,0,1,1.64-1.09c0,.13.07.25.11.37a1.17,1.17,0,0,1-1.44.95Z"/><path class="cls-1" d="M446.06,289a1.64,1.64,0,0,1-1.63,1.09c0-.12-.08-.25-.11-.37a1.17,1.17,0,0,1,1.43-.95Z"/><path class="cls-1" d="M451,287.88a1.89,1.89,0,0,1,1.09-1.09l.21.34q.06,1-1,1Z"/><path class="cls-1" d="M421,299.87a1.12,1.12,0,0,1-.55-1.09c.75-.2.77.28.76.8Z"/><path class="cls-1" d="M428.61,299.87a1.12,1.12,0,0,1-1.09.55l-.08-.36C427.76,299.58,428.14,299.42,428.61,299.87Z"/><path class="cls-1" d="M427.52,300.42a1.11,1.11,0,0,1-1.09.54l-.08-.35C426.67,300.13,427.05,300,427.52,300.42Z"/><path class="cls-1" d="M426.43,301a1.12,1.12,0,0,1-1.09.55C425.34,300.59,425.8,300.61,426.43,301Z"/><path class="cls-2" d="M903,317.86a1.16,1.16,0,0,1,1.09-.53A1.11,1.11,0,0,1,903,317.86Z"/><path class="cls-1" d="M189.77,394.2v-1.09a1.11,1.11,0,0,1,.54,1.09Z"/><path class="cls-1" d="M455.33,284.06a1.13,1.13,0,0,1,.55-1.09l.21.29a.78.78,0,0,1-.41.89Z"/><path class="cls-2" d="M904.12,199a1.14,1.14,0,0,1-1.09-.53A1.14,1.14,0,0,1,904.12,199Z"/><path class="cls-1" d="M455.33,264.43a1.12,1.12,0,0,1-1.09-.54A1.12,1.12,0,0,1,455.33,264.43Z"/><path class="cls-1" d="M458.06,277a1.1,1.1,0,0,1-.55,1.09l-.21-.29C457.29,277.26,457.31,276.77,458.06,277Z"/><path class="cls-1" d="M449.88,285.7a1.11,1.11,0,0,1-1.09.54c-.22-.76.28-.76.79-.76Z"/><path class="cls-1" d="M455.88,283a1.11,1.11,0,0,1,1.09-.54l.08.35C456.73,283.27,456.35,283.41,455.88,283Z"/><path class="cls-1" d="M457.51,281.88a1.13,1.13,0,0,1,.55-1.09l.21.29a.78.78,0,0,1-.41.89Z"/><path class="cls-1" d="M453.7,285.15a1.11,1.11,0,0,1,1.09-.54l.08.34a.76.76,0,0,1-.88.41Z"/><path class="cls-1" d="M433,297.69a1.14,1.14,0,0,1-1.1.55C431.88,297.32,432.35,297.34,433,297.69Z"/><path class="cls-1" d="M496.78,277.52l-.55.54Z"/><path class="cls-1" d="M497.32,277l-.54.55Z"/><path class="cls-1" d="M481,235.54l.54-.55Z"/><path class="cls-1" d="M454.79,284.61l.54-.55C455.46,284.55,455.28,284.73,454.79,284.61Z"/><path class="cls-1" d="M451.52,284.06l-.55.55-.11-.27a.63.63,0,0,1,.39-.39Z"/><path class="cls-1" d="M189.22,393.11h-.54Q189,392.54,189.22,393.11Z"/><path class="cls-1" d="M443.88,290.61l-.54.54a.48.48,0,0,1,.18-.61Z"/><path class="cls-1" d="M452.06,283.52l-.54.54a.47.47,0,0,1,.18-.61Z"/><path class="cls-1" d="M471.69,283l.55.55C471.74,283.65,471.56,283.47,471.69,283Z"/><path class="cls-1" d="M446.61,288.42l-.55.55a.47.47,0,0,1,.19-.61Z"/><path class="cls-1" d="M453.15,285.7l.55-.55a.47.47,0,0,1-.19.61Z"/><path class="cls-1" d="M447.7,290.61l.54-.55.11.27a.61.61,0,0,1-.38.39Z"/><path class="cls-1" d="M421.52,300.42l-.54-.55a.47.47,0,0,1,.61.19Z"/><path class="cls-1" d="M444.43,290.06l-.55.55C443.76,290.12,443.94,289.93,444.43,290.06Z"/><path class="cls-1" d="M452.61,283l-.55.55a.48.48,0,0,1,.19-.61Z"/><path class="cls-1" d="M422.07,301l-.55-.54a.48.48,0,0,1,.61.19Z"/><path class="cls-1" d="M446.06,292.24l.55-.54.06.35A.47.47,0,0,1,446.06,292.24Z"/><path class="cls-1" d="M453.15,282.43l-.54.54a.48.48,0,0,1,.18-.61Z"/><path class="cls-1" d="M457,282.43l.54-.55C457.64,282.37,457.46,282.55,457,282.43Z"/><path class="cls-1" d="M453.7,281.88l-.55.55a.48.48,0,0,1,.19-.61Z"/><path class="cls-1" d="M450.43,288.42l.54-.54C451.1,288.38,450.91,288.55,450.43,288.42Z"/><path class="cls-1" d="M422.61,301.51l-.54-.55C422.56,300.84,422.75,301,422.61,301.51Z"/><path class="cls-1" d="M447.15,291.15l.55-.54a.47.47,0,0,1-.19.6Z"/><path class="cls-1" d="M447.15,287.88l-.54.54C446.49,287.94,446.66,287.74,447.15,287.88Z"/><path class="cls-1" d="M450.43,285.15l-.55.55a.47.47,0,0,1,.19-.61Z"/><path class="cls-1" d="M452.06,286.79l.55-.55.06.36A.47.47,0,0,1,452.06,286.79Z"/><path class="cls-1" d="M454.79,280.79l-.55.55-.11-.27a.63.63,0,0,1,.39-.39Z"/><path class="cls-1" d="M451,284.61l-.54.54Q450.24,284.42,451,284.61Z"/><path class="cls-1" d="M448.24,290.06l.55-.55C448.92,290,448.73,290.18,448.24,290.06Z"/><path class="cls-1" d="M446.61,291.7l.54-.55C447.28,291.64,447.1,291.82,446.61,291.7Z"/><path class="cls-1" d="M458.06,280.79l.55-.54.06.36A.48.48,0,0,1,458.06,280.79Z"/><path class="cls-1" d="M455.33,280.25l-.54.54a.48.48,0,0,1,.18-.61Z"/><path class="cls-1" d="M452.61,286.24l.54-.54Q453.35,286.44,452.61,286.24Z"/><path class="cls-1" d="M458.61,280.25l.54-.55C459.28,280.2,459.09,280.37,458.61,280.25Z"/><path class="cls-2" d="M901.94,317.35l.55.52Z"/><path class="cls-1" d="M455.88,279.7l-.55.55a.48.48,0,0,1,.19-.61Z"/><path class="cls-1" d="M456.42,279.16l-.54.54a.48.48,0,0,1,.19-.61Z"/><path class="cls-1" d="M495.69,278.61l-.55.55Z"/><path class="cls-1" d="M457,278.61l-.55.55a.49.49,0,0,1,.19-.61Z"/><path class="cls-1" d="M457.51,278.06l-.54.55C456.85,278.12,457,277.93,457.51,278.06Z"/><path class="cls-1" d="M454.24,281.34l-.54.54Q453.51,281.15,454.24,281.34Z"/><path class="cls-5" d="M776.13,349.37a4.45,4.45,0,0,1-.39-2.59c0-8.26,0-16.53,0-24.8a3.42,3.42,0,0,1,2.33-3.7c6-2.79,11.89-5.86,17.84-8.79q19.56-9.64,39.12-19.26c12.3-6.08,24.57-12.21,36.86-18.29,9-4.43,17.93-8.81,26.89-13.22.16-.08.26-.25.5-.48-.36-1.05-1.44-1.2-2.25-1.61-9.78-4.8-19.6-9.54-29.36-14.37-14.5-7.17-29-14.41-43.45-21.58-14.9-7.37-29.83-14.67-44.73-22.06-4.47-2.22-3.67-1.17-3.7-5.82,0-7.63,0-15.26,0-22.9A5.49,5.49,0,0,1,776,167c.93-.34,1.59.28,2.3.62,12.3,6.08,24.58,12.19,36.89,18.22,1.51.74,2.21,1.64,2.06,3.34-.13,1.44.1,2.92-.06,4.35-.24,2.07.72,3,2.51,3.88,7.71,3.66,15.35,7.47,23,11.25,8.71,4.31,17.4,8.67,26.11,13q24.93,12.3,49.89,24.52a2.4,2.4,0,0,1,1.65,2.45c0,6.36,0,12.72,0,19.08a2.45,2.45,0,0,1-1.66,2.47q-22.39,11-44.74,22c-6.43,3.18-12.83,6.43-19.26,9.61-11.65,5.74-23.29,11.51-35,17.13-2,.94-2.76,2-2.52,4.15.16,1.44-.06,2.92.06,4.36a2.68,2.68,0,0,1-1.81,3c-4.11,1.94-8.12,4.08-12.23,6-7.58,3.55-15,7.38-22.48,11.12A19.46,19.46,0,0,1,776.13,349.37Z"/><path class="cls-5" d="M963.41,265.46c-4.14,1.61-8,3.81-12,5.76-9.43,4.61-18.81,9.33-28.22,14-6.73,3.33-13.49,6.61-20.22,10a5.79,5.79,0,0,0-2.3,1.36c-6.15,2.51-12,5.71-17.91,8.61a1.89,1.89,0,0,0-1.14,1.95c0,1.91,0,3.81,0,5.72a2,2,0,0,1-1.17,2.21q-13.08,6.42-26.16,12.88a2.43,2.43,0,0,1-.77.09c-.6-.75-.37-1.6-.37-2.39,0-6,.07-12-.06-18a3.74,3.74,0,0,1,2.5-3.93c18.51-9.08,37-18.26,55.45-27.37,11.4-5.63,22.83-11.19,34.24-16.79.72-.35,1.56-.53,2-1.28-.2-.87-1-1-1.62-1.27q-15.49-7.68-31-15.33c-15.64-7.73-31.25-15.49-46.93-23.13l-12.74-6.19a2.85,2.85,0,0,1-1.92-2.9c.07-6.44,0-12.89,0-19.34,0-2,.33-2.22,2.28-1.27,6,3,12,6,18,9,2.12,1.05,4.23,2.1,6.4,3a2.45,2.45,0,0,1,1.75,2.68c-.1,1.81,0,3.63,0,5.45a2.28,2.28,0,0,0,1.44,2.35c5.82,2.95,11.68,5.83,17.65,8.47,2.27,1.7,4.93,2.67,7.43,3.92q15.35,7.68,30.74,15.26c7.65,3.78,15.29,7.59,23,11.27,1.71.82,2.44,1.8,2.32,3.73-.16,2.9,0,5.81,0,8.72C964.18,263.68,964.25,264.69,963.41,265.46Z"/><path class="cls-1" d="M945.44,258.39c-8.19,3.93-16.27,7.86-24.47,12.14V246.16C922.57,246.54,944.24,257.29,945.44,258.39Z"/><path class="cls-5" d="M127.88,258.11a1.12,1.12,0,0,0,.7.75c6.51,3.22,13,6.46,19.54,9.66,12.95,6.37,25.93,12.7,38.87,19.09,11.4,5.63,22.76,11.34,34.15,17q14.3,7.07,28.63,14a2.25,2.25,0,0,1,1.56,2.25c0,9.26,0,18.53-.06,27.79a2.36,2.36,0,0,1-.21.62c-1.32.17-2.37-.65-3.46-1.18-5.14-2.51-10.25-5.09-15.37-7.64-6.67-3.31-13.32-6.67-20-9.89-1.62-.78-2.42-1.68-2.21-3.53.15-1.34-.09-2.73.06-4.08.2-1.9-.54-2.94-2.27-3.76-5.26-2.48-10.43-5.13-15.64-7.7q-19.17-9.5-38.33-19c-14.9-7.36-29.79-14.74-44.72-22a3.71,3.71,0,0,1-2.49-3.93c.13-5.81.08-11.62,0-17.44a2.88,2.88,0,0,1,1.92-3.09c7.21-3.44,14.32-7.09,21.49-10.64,16.27-8.06,32.48-16.25,48.86-24.1,9.58-4.59,18.92-9.68,28.61-14a3.75,3.75,0,0,0,2.58-4.17c-.12-2.05-.81-4.43.37-6.12s3.39-2,5.17-2.87q16.57-8.26,33.18-16.49c.4-.2.81-.41,1.22-.59.77-.33,1.23-.12,1.27.76,0,.45,0,.91,0,1.36,0,8.45,0,16.9,0,25.34a3.18,3.18,0,0,1-2.06,3.34c-12.4,6.06-24.76,12.21-37.12,18.34-9.52,4.72-19,9.55-28.55,14.17-16,7.75-31.94,15.7-47.86,23.64-2.11,1.06-4.27,2-6.39,3C128.81,257.29,128.14,257.44,127.88,258.11Z"/><path class="cls-5" d="M87.27,262.24c6.23,2.75,12.17,6.08,18.28,9.06,9.21,4.51,18.39,9.07,27.59,13.6,12.78,6.29,25.55,12.61,38.36,18.83a3.68,3.68,0,0,1,2.45,3.93c-.13,6,0,12,0,18a5.63,5.63,0,0,1-.31,2.58c-2.55-1.15-5-2.19-7.44-3.38-6.35-3.14-12.64-6.38-19-9.49a2.71,2.71,0,0,1-1.77-3c.1-1.72,0-3.45,0-5.18a2,2,0,0,0-1.33-2.13c-4-1.85-7.85-4.15-12-5.81s-8.33-3.53-12.38-5.55c-13.31-6.61-26.69-13.07-40-19.65-4.79-2.37-9.48-4.95-14.32-7.2C63,265.72,61.8,264,62,261.31c.15-2.26.09-4.53,0-6.8a4.48,4.48,0,0,1,2.62-4.64c15.54-7.82,31.07-15.66,46.79-23.12,5.64-2.67,11.1-5.72,16.92-8,5.41-2.13,10.49-4.95,15.71-7.48a2.29,2.29,0,0,0,1.37-2.4c0-1.82.05-3.64,0-5.45a2.44,2.44,0,0,1,1.65-2.5c7.66-3.75,15.31-7.55,23-11.33a12.22,12.22,0,0,1,3.4-1.34c.7.61.51,1.28.51,1.88,0,6.36,0,12.71,0,19.07A3,3,0,0,1,172,212.3q-29.72,14.56-59.39,29.22c-6.83,3.37-13.63,6.82-20.47,10.2-2.84,1.41-5.73,2.71-8.61,4.07-1.16.79-3.37.86-3.4,2.28,0,1.69,2.24,1.69,3.48,2.49A17.11,17.11,0,0,0,87.27,262.24Z"/><path class="cls-6" d="M83.92,260.18c-.24-1.18-1.48-1.22-2.46-2.11,3.33-1.66,6.49-3.31,9.71-4.82,1.55-.73,3.09-1.45,4.57-2.3a91.32,91.32,0,0,1,10-4.93c.14,8.11-.18,16.11.23,24.46-3.35-1.67-6.59-3.16-9.74-4.9-3.57-2-7.31-3.61-11-5.35a3.86,3.86,0,0,0-1.33-.07Z"/><path class="cls-4" d="M128.33,218.72c-1.26,1.25-3,1.74-4.47,2.5-12.32,6.15-24.61,12.38-37,18.34-6.78,3.25-13.45,6.72-20.22,10-.56.27-1.16.47-1.74.7a17.6,17.6,0,0,0-2.63,1.43c-3.66.87-6.7,3.1-10.08,4.58-1.24.54-2.41,1.24-4,1.88,2.74,1.27,5.21,2.57,7.74,3.78.84.41,2.27.53,1.64,2.13-2.07.45-3.62-.86-5.32-1.63S49,260.88,47.39,260c-2.23-1.3-2.25-2.39.07-3.63,4.24-2.26,8.54-4.44,12.92-6.42,4.14-1.87,8.12-4,12.17-6.06q17.42-8.72,34.94-17.15c4.75-2.27,9.44-4.65,14.17-7a3.29,3.29,0,0,0,2-3.26c0-4.54-.17-9.09.06-13.61.14-2.89-2.22-1.28-3.14-2.13,0-.22,0-.43,0-.65l.57-.05a5,5,0,0,0,.54-.49l.54,0a6.64,6.64,0,0,0,.55-.51l.55,0a6.51,6.51,0,0,0,.54-.51h1.08c.18.19.36.38.55.56-.09,6.62.14,13.23-.11,19.85,0,1.29.77.31,1.21.27a6.39,6.39,0,0,0,.54-.5h0Z"/><path class="cls-7" d="M62.17,251.35c.86-.48,1.56-1.33,2.71-1.1a3.54,3.54,0,0,0-2,3.72,70.07,70.07,0,0,1,0,8.45A3.31,3.31,0,0,0,65.06,266c9.46,4.61,18.88,9.31,28.32,14,11.31,5.6,22.64,11.18,33.92,16.84,1.61.8,3.48,1.1,4.8,2.46l-1.23.07h0a3.43,3.43,0,0,0-.53-.48l-1.09-.07a6.52,6.52,0,0,0-.55-.5l-.55,0a5.08,5.08,0,0,0-.54-.5l-.55-.05a5.08,5.08,0,0,0-.54-.5l-.55,0c-.19-.08-.38-.54-.56,0q0,9.81,0,19.62a3.47,3.47,0,0,1-1.1,1.09h-.52c-.18-.18-.37-.35-.55-.51l-.55,0c-.17-.18-.36-.35-.55-.52a4.71,4.71,0,0,0-.53,0c-.18-.18-.37-.35-.56-.52l-.53,0c-.18-.18-.37-.35-.56-.52l-.54,0a6.64,6.64,0,0,0-.55-.51,4.89,4.89,0,0,0-.54,0l-.55-.52a3.54,3.54,0,0,0-1.64-.57,3.43,3.43,0,0,0-.53-.48l-.57-.06c-.27-.35-.78-.23-1.08-.54h0a4,4,0,0,0-.52-.49l-.56-.05c-.28-.35-.79-.24-1.09-.54h0c-.28-.34-.79-.22-1.08-.54h-.53a5.69,5.69,0,0,0-.56-.54h0l.06-.68c1.46-.61,2.65.24,3.85.79,2.64,1.23,5.24,2.54,7.81,3.9,1.56.83,2.34.66,2.32-1.31,0-4.54,0-9.09,0-13.63,0-1.83-1-2.76-2.47-3.52-13.79-7-27.8-13.47-41.58-20.46C74.4,273.24,69.22,270.6,64,268c-.89-.44-1.84-.87-2.07-2-1-4.3-.48-8.64-.48-13A2.12,2.12,0,0,1,62.17,251.35Z"/><path class="cls-8" d="M87.27,262.24c-2.79-.24-4.92-2-7.29-3.21-1-.51-.75-1.35.13-1.85,1.07-.61,2.08-1.43,3.42-1.39-.76,1.17-2.36,1.13-3.39,2.4a9.91,9.91,0,0,0,3.78,2v0C84.82,261.21,86.37,261.19,87.27,262.24Z"/><path class="cls-1" d="M252.48,349.49c.48.37.72.85.24,1.33s-1,.24-1.33-.24Z"/><path class="cls-5" d="M317.84,184.73c.58-.63,1.15-.17,1.74,0A84,84,0,0,0,335,188a46.76,46.76,0,0,0,22.91-3.3c9-3.66,16.35-9.66,22.93-16.7,9.78-10.47,17.59-22.39,25.57-34.2,7.22-10.68,14.45-21.37,23-31.11,7.58-8.69,16.1-16.24,26.47-21.5A61.55,61.55,0,0,1,468,76.57c2.86-.75,2.91-.75,3.85,2a44.17,44.17,0,0,0,7.88,13.91c6.05,7.21,13.42,12.43,22.72,14.6a25.06,25.06,0,0,0,6.73.81c4.26-.18,8.51.27,12.77-.36a38.26,38.26,0,0,0,20.08-9.64A45.51,45.51,0,0,0,555.39,78c.7-2.08.76-2.1,2.86-1.59,10.27,2.5,19.21,7.56,27.29,14.25,10,8.25,17.83,18.33,25.23,28.8,6.6,9.34,13,18.85,19.43,28.28a158.79,158.79,0,0,0,17,21.26c7.35,7.54,15.56,13.88,25.87,17.06a50.86,50.86,0,0,0,26.34.83c2.74-.6,5.44-1.37,8.13-2.15a2.12,2.12,0,0,1,2.43.56,1.82,1.82,0,0,1,.17,2.25,25.49,25.49,0,0,1-7.88,9.9c-1.19,1-2.48,1.84-3.72,2.75-7.52,5.56-15.15,11-21.8,17.59a79.32,79.32,0,0,0-18.23,28.77c-.93,2.46-1.82,4.93-2.78,7.38a15.12,15.12,0,0,1-1.31,2.68c-1.49,2.33-3.18,2.7-5.54,1.24a23.53,23.53,0,0,1-5.84-5.68c-4-5-7.91-10.17-11.8-15.31-1.48-1.93-1.42-2,.92-3,1.58-.67,3.17-1.35,4.75-2,.15-.06.26-.24.64-.59a37.66,37.66,0,0,0-6.1-5.6c-6.62-5.49-14.15-9.53-22-13A183.25,183.25,0,0,0,567,200.08a273.52,273.52,0,0,0-29.93-3.8c-4.26-.28-8.52-.29-12.76-.59s-8.34-.41-12.51-.33a336.73,336.73,0,0,0-37.15,2.4,226.24,226.24,0,0,0-44.53,10c-10.43,3.58-20.45,8-29.59,14.29a78.12,78.12,0,0,0-9.32,7.51c-.58.53-1.36,1-1.39,2a37.08,37.08,0,0,0,5.64,2.51c1.7.72,1.81.95.78,2.33-4.61,6.18-9.17,12.41-14.27,18.22a16.13,16.13,0,0,1-3.69,3.2c-2.43,1.46-4,1.13-5.56-1.21s-2.23-5-3.13-7.52c-4.4-12.43-11-23.49-20.54-32.66a57.2,57.2,0,0,0-4.89-4.32c-5.58-4.21-10.85-8.81-16.68-12.7-4-2.64-7.44-5.81-9.62-10.17a13.35,13.35,0,0,1-1-2.26v0a.72.72,0,0,1-.06-1.07h0C317.11,185.48,317.52,185.15,317.84,184.73Z"/><path class="cls-9" d="M316.87,187a2.57,2.57,0,0,1,1,2.26A2.06,2.06,0,0,1,316.87,187Z"/><path class="cls-9" d="M317.84,184.73a1.3,1.3,0,0,1-1,1.18A1.06,1.06,0,0,1,317.84,184.73Z"/><path class="cls-9" d="M316.8,185.9l.06,1.07C316.36,186.64,316.19,186.29,316.8,185.9Z"/><path class="cls-5" d="M480.86,427c-3.92-8.19-8.07-16.26-11.47-24.68q-.25-.63-.45-1.29c-.68-2.2-.61-2.41,1.7-3,5.3-1.28,10.71-2,16.11-2.74,4.77-.66,9.56-1.14,14.34-1.69a6.36,6.36,0,0,0,5.67-5.93,33.38,33.38,0,0,0-1-11.34q-1-3.53-2-7.08a10.81,10.81,0,0,0-2.55-4.38,25.71,25.71,0,0,1-4.14-6.35c-.83-1.88-.42-4.12,0-6.17.2-.93,1.19-1,2-1.14a77.74,77.74,0,0,1,13-1.49c6.62-.36,13.25-.7,19.89-.57a5.21,5.21,0,0,1,2.85.37,1.31,1.31,0,0,1-.79,1.14c-6.81,4.1-10.21,10.36-11.42,18-.36,2.24-.75,4.48-1.13,6.71-.91,5.32,0,10.48,1.13,15.65.35,1.59,1.38,1.62,2.63,1.65,6.81.18,13.63,0,20.44.54,3.8.28,7.62.37,11.43.57.61,0,1.29-.15,1.94.57-1.12,2-2.36,3.79-5,4.37a71.36,71.36,0,0,1-8,1.46,25.34,25.34,0,0,0-9.77,3.19c-1.82,1-3.62,2.08-5.45,3.09a11.82,11.82,0,0,0-4,4.36,3.83,3.83,0,0,0-.38,2.64c2.15,15.69,2.78,31.48,3.18,47.29.11,4.35.58,8.7.79,13.05a323,323,0,0,1-1,42.2,62,62,0,0,1-7.26,23.56,87.71,87.71,0,0,1-6.26,10.53c-4.65,6.5-10,12.35-17.41,15.69-6.91,3.12-14.17,5.12-21.88,4.89-1.33,0-3,.21-3.51-1.41s1.09-2.23,2.21-2.93,2.15-1.36,3.24-2c7.23-4.25,10.77-10.8,11.79-18.9a34.59,34.59,0,0,0,.22-8.69,24.89,24.89,0,0,0-6.19-13.08c-.6-.72-1.28-1.21-.48-2.27,4.49-5.9,7.56-12.59,10.67-19.25,3.56-7.56,5.58-15.61,7.43-23.69a176,176,0,0,0,3.41-21.08,198,198,0,0,0,.45-29c-.2-5.07-.41-10.12-.78-15.18-.13-1.86-1-2.25-2.62-2.13-5.59.41-10.72,2.33-15.75,4.59a5.15,5.15,0,0,0-3.26,5.41c.13,3.22.06,6.46,0,10.35C481.88,429.7,481.74,428.11,480.86,427Z"/><path class="cls-10" d="M480.86,427c1.16.73,1.28,2.1,2.25,3.66,0-3.3.17-6.12,0-8.91-.26-3.47,1.13-5.65,4.3-7A41.53,41.53,0,0,1,500,411.05a23.42,23.42,0,0,1,3.47-.53c1.32.07,2.09.6,2,2a34.88,34.88,0,0,0,.62,8.36c.62,3.09,0,6.09,0,9.12,0,4.52.91,9,.47,13.55-.46,4.76-.5,9.53-.94,14.3a185.47,185.47,0,0,1-5.55,29.48A116.92,116.92,0,0,1,496,499.92c-.31.81-.52,1.76-1.46,2.2,1.22-3.6,2.52-7.18,3.64-10.81a177.82,177.82,0,0,0,7.39-41.72c.71-11.47-.65-22.86-.8-34.29-.06-4.07-.3-4.1-4.31-3.65a18.54,18.54,0,0,0-6.48,1.81c-2.16,1.08-4.64,1.49-6.89,2.51s-3.45,2.46-3.31,5c.13,2.72,0,5.45.06,8.17a13.78,13.78,0,0,1-.22,4.11A19.26,19.26,0,0,1,480.86,427Z"/><path class="cls-5" d="M535.31,336.29c-1.35-.36-1.85-1.31-2.59-1.94-2.69-2.34-5.1-2.6-8.21-.9a31.91,31.91,0,0,1-3,1.39,5.89,5.89,0,0,1-6.13-1c-1.92-1.43-2-1.49-3.64-.12a6,6,0,0,1-6.61.94c-.92-.39-1.82-.82-2.71-1.29-3-1.61-5.37-1.35-8,.85-.75.64-1.23,1.6-2.26,1.9a.76.76,0,0,1-.28,0c-.71-.59-.49-1.49-.64-2.26-1.5-8.05-4.7-15.25-10.69-21A42.59,42.59,0,0,0,466,304c-1.25-.48-2-.32-2.64.94a21.69,21.69,0,0,1-7.24,8,25.27,25.27,0,0,0-6.78,6.62,2.06,2.06,0,0,1-2.56.89,20.72,20.72,0,0,1-8.21-4.11,54.38,54.38,0,0,1-8.52-8.77c-1-1.2-.94-1.4.54-2.22a119.51,119.51,0,0,0,16.79-11.14,122.41,122.41,0,0,0,12.87-11.75c1-1,1.68-1.19,3-.35,10,6.45,20.07,5.69,30-.25a32.54,32.54,0,0,0,10.06-9.8c-1.38-1.36-3.11-1.25-4.62-1.6a88.86,88.86,0,0,1-20.08-7.52c-1.89-1-1.92-1-.8-2.8C486.74,246,493.1,230.66,498,214.72a23,23,0,0,0,.91-3.42,2.09,2.09,0,0,1,2.31-2.06c3.89-.22,7.76-.77,11.64-.87a53.71,53.71,0,0,1,9,.6c2.08.3,4.16.31,6.23.45a353.38,353.38,0,0,1,35.42,3.7c10.13,1.68,20.13,3.88,29.65,7.91a13,13,0,0,1,6,4.85c3.48,5.25,4.84,11.13,5.12,17.28a72.41,72.41,0,0,1-.52,13.32,34.73,34.73,0,0,1-2.37,9.73,23,23,0,0,0-1.28,3.6c-.71,2.67,0,4.37,2.4,5.7,1.83,1,3.78,1.77,5.64,2.71,5.25,2.64,5.37,2.95,2.65,8.06C606,295.37,600.5,304,593.52,311.63c-3.52,3.82-7.36,7.32-12.65,8.62-2.19.54-2.19.57-3.55-1.3a23.57,23.57,0,0,0-5.2-5.16c-3.46-2.54-6.77-5.22-8.66-9.23-.55-1.17-1.41-.91-2.3-.57-11.18,4.21-19.54,11.29-23.52,22.93A96.44,96.44,0,0,0,535.31,336.29Z"/><path class="cls-1" d="M458.61,280.25l.54-.55c.75.08,1.61-.25,2.18.54a74.56,74.56,0,0,0-6.65,6.41,80.37,80.37,0,0,1-7.83,6.69,17.31,17.31,0,0,1-1.88,1.08c-.08-.95.79-1.42,1.09-2.18l.55-.54.54-.55.55-.54.54-.55.55-.55a1.64,1.64,0,0,0,1.64-1.09l.54-.54a1,1,0,0,0,1.09-1.09l.55-.55.54-.54.55-.55a1.12,1.12,0,0,0,1.09-.54l.54-.55a1.93,1.93,0,0,1,1.64-1.63l.54-.55a1.1,1.1,0,0,0,.55-1.09Z"/><path class="cls-1" d="M471.69,283l.55.55a3.79,3.79,0,0,0,.54,1.63,17.68,17.68,0,0,1-9.27-4.36h2.18C467.11,283.13,469.43,283,471.69,283Z"/><path class="cls-1" d="M433,301c1.09,0,2.17-1.25,3.27,0-1.2.33-2,1.53-3.27,1.64Z"/><path class="cls-1" d="M437.34,299.87a3.17,3.17,0,0,1,3.27-2.18A5.5,5.5,0,0,1,437.34,299.87Z"/><path class="cls-1" d="M441.16,297.15c.15-1.32,1.2-1.43,2.18-1.64A2.57,2.57,0,0,1,441.16,297.15Z"/><path class="cls-1" d="M443.34,295.51a1.64,1.64,0,0,1,1.63-1.09A1.64,1.64,0,0,1,443.34,295.51Z"/><path class="cls-1" d="M440.61,297.69l.55-.54Z"/><path class="cls-5" d="M811.87,470.3H785.43c-3.13-.07-3.36-.3-3.37-3.47,0-2.27,0-4.55,0-6.82,0-1.95.64-2.54,2.62-2.7.72-.06,1.45,0,2.18,0h45c5.17,0,6.45-1.29,6.47-6.4,0-.82,0-1.63,0-2.45-.12-3.72-1.64-5.29-5.36-5.3q-15.95-.06-31.89,0a49.81,49.81,0,0,1-6.79-.41c-7.17-1-11.69-6-12.16-13.2a89.12,89.12,0,0,1,0-11.44c.47-6.92,4.92-12.51,13.5-13,5.17-.28,10.36-.09,15.54-.1h34.61c.82,0,1.64,0,2.45,0a1.71,1.71,0,0,1,1.87,1.88c0,3,0,6,0,9a1.9,1.9,0,0,1-1.9,1.94,22.41,22.41,0,0,1-2.72.11h-41.7c-.91,0-1.82,0-2.72,0-3.19.15-4.56,1.47-4.79,4.71-.09,1.26,0,2.54,0,3.81,0,3,1.7,5,5.12,5,11.35-.12,22.71,0,34.07-.05a25.32,25.32,0,0,1,7.24,1c5.82,1.72,8.89,5.83,9.59,11.64a62.54,62.54,0,0,1,0,13.88c-.7,7-5.89,11.8-13.17,12.15-5.53.27-11.08.16-16.62.19C819,470.32,815.41,470.3,811.87,470.3Z"/><path class="cls-5" d="M578.79,433.82h22.62c3.12,0,3.38.29,3.42,3.45,0,1.46,0,2.91,0,4.36-.06,2.63-.35,2.89-3.06,3-.73,0-1.45,0-2.18,0H556.51c-3.47,0-3.56.11-3.28,3.49.06.73.14,1.45.23,2.17.58,4.79,2.95,7.17,7.71,7.62,1.81.17,3.63.27,5.44.27q17.17,0,34.34,0c4.36,0,4.4.05,4.4,4.41,0,1.54,0,3.09,0,4.63-.05,2.79-.33,3.1-3.2,3.1q-20.58,0-41.16-.11a31.8,31.8,0,0,1-8-1.2c-7.27-1.93-10.93-7-12.34-14.06A44.69,44.69,0,0,1,540,446c0-5.36,0-10.72,0-16.08a28.82,28.82,0,0,1,1.6-9.34,15.3,15.3,0,0,1,10.29-10.08,40.85,40.85,0,0,1,12.6-1.87c12.36-.1,24.72,0,37.07,0a10.86,10.86,0,0,1,1.9.09,2,2,0,0,1,1.82,2.05c0,2.72,0,5.45,0,8.17a1.88,1.88,0,0,1-2,2.06c-.72,0-1.45,0-2.18,0H565.4a24.84,24.84,0,0,0-6,.55,7.27,7.27,0,0,0-5.83,6.1c-1.22,6.2-1.23,6.2,5,6.2Z"/><path class="cls-5" d="M766.93,439.47q0,13.77,0,27.54c0,3-.22,3.24-3.25,3.28q-3.42,0-6.82,0c-3.07,0-3.36-.33-3.37-3.53,0-5.45,0-10.9,0-16.35,0-1.27,0-2.55,0-3.82s-.49-1.67-1.64-1.62c-.64,0-1.27,0-1.91,0H713.68a1.17,1.17,0,0,0-1.33,1.33c0,1,0,2,0,3,0,5.82,0,11.63,0,17.45,0,3.29-.23,3.49-3.61,3.52-2.09,0-4.18,0-6.27,0-3.38,0-3.57-.21-3.57-3.53q0-17.73,0-35.44c0-6.45,0-12.91,0-19.36,0-2.8.54-3.34,3.35-3.39,2.09,0,4.18,0,6.27,0,3.38,0,3.82.44,3.83,3.74,0,6.18,0,12.36,0,18.54,0,2.72,0,2.74,2.7,2.75q18,0,36,0c2.4,0,2.44,0,2.45-2.43,0-6.27,0-12.54,0-18.81,0-3.28.52-3.76,3.82-3.78,2.09,0,4.18,0,6.27,0,2.86.05,3.34.51,3.34,3.36Q767,425.71,766.93,439.47Z"/><path class="cls-5" d="M187.9,432.85V400.69a20,20,0,0,1,.07-2.45c.28-2,1.15-2.86,3.19-3.05.72-.06,1.45,0,2.18,0q27.25,0,54.52,0a43,43,0,0,1,10.54,1.08c8.07,2,12.15,7.76,13.2,15.5a69.16,69.16,0,0,1,0,19c-1.24,8.77-5.83,14.12-14.76,15.9a46.81,46.81,0,0,1-9.23.67h-39.8c-3.8,0-3.34,0-3.35,3.46,0,5.08,0,10.17,0,15.26,0,.73,0,1.46-.06,2.18a2,2,0,0,1-2.12,2q-6,0-12,0A2.22,2.22,0,0,1,188,468a19.94,19.94,0,0,1-.07-2.45Z"/><path class="cls-5" d="M453.11,261.37a27.76,27.76,0,0,0,2.6,12c.5,1.14.62,1.91-.3,2.9-8.4,9.1-17.86,16.78-29.22,21.93-2.16,1-2.2,1-3.46-.94a143.19,143.19,0,0,1-8-13.94,2.06,2.06,0,0,1,.72-3,39.41,39.41,0,0,1,7.14-3.93c.74-.36,1.51-.65,2.2-1.07a4.27,4.27,0,0,0,2.17-5.31,15.5,15.5,0,0,0-1-3.09c-1.83-3.65-2.35-7.6-2.8-11.57a60.91,60.91,0,0,1,.44-19,34.67,34.67,0,0,1,2.37-7.24,16.11,16.11,0,0,1,9.47-8.79,134.45,134.45,0,0,1,23.59-6.47c8.21-1.54,16.49-2.56,24.79-3.36,3.21-.31,3.19-.26,2.51,3a142.74,142.74,0,0,1-14.12,39c-.64,1.2-1.42,2.32-2.09,3.51s-1.52,1.36-2.65.53c-2.93-2.15-5.93-4.19-8.83-6.37-3.32-2.51-3.33-2.56-4.25,1.38A38.67,38.67,0,0,0,453.11,261.37Z"/><path class="cls-1" d="M447.15,287.88l-.54.54-.55.55a1.64,1.64,0,0,0-1.63,1.09l-.55.55-.54.54c-3.2.66-5.45,3-8.12,4.61a16.94,16.94,0,0,0-2.24,1.93,1.14,1.14,0,0,0-1.1.55,6.1,6.1,0,0,0-3.27,1.63,166,166,0,0,1-2.18,1.09,1.13,1.13,0,0,0-1.09.55h-2.73l-.54-.55-.55-.54-.54-.55a1.13,1.13,0,0,0-.55-1.09v-2.72c1.1.48,1.36,1.66,2,2.49,1.12,1.38,2,1.71,3.44,1a105.55,105.55,0,0,0,15.17-8.88c1.52-1.13,3-2.35,4.43-3.56a2.56,2.56,0,0,1,1.65-.83Z"/><path class="cls-1" d="M454.24,281.34l-.54.54-.55.55-.54.54-.55.55-.54.54-.55.55-.54.54-.55.55a1.11,1.11,0,0,0-1.09.54l-1.09-.54c2-2.58,4.52-4.63,6.72-7a20.51,20.51,0,0,0,3.09-3.36c.65.39.53,1,.55,1.63a1.14,1.14,0,0,0-.55,1.09l-.54.55-.55.55-.54.54-.55.55-.54.54Z"/><path class="cls-1" d="M455.88,271.52a2.87,2.87,0,0,1,1.63,3.27A6.06,6.06,0,0,1,455.88,271.52Z"/><path class="cls-1" d="M454.79,267.71c.34.28,1.21.3.54,1.09A1.13,1.13,0,0,1,454.79,267.71Z"/><path class="cls-1" d="M447.7,285.7l-.55.54Z"/><path class="cls-5" d="M323.26,439.67q0-13.49,0-27c0-3.41.69-4.11,4.19-4.12q22.89,0,45.78,0a32.16,32.16,0,0,1,8.32,1.25,12.65,12.65,0,0,1,9.44,9.29,40.38,40.38,0,0,1,.07,20.22c-1.26,5.12-4.76,8.21-9.8,9.63-2.11.6-2.12.69-.73,2.42,4.1,5.1,8.23,10.16,12.31,15.27.65.81,1.81,1.59,1.28,2.8s-1.9.79-2.92.81c-3,.06-6,0-9,0a4.08,4.08,0,0,1-3.68-1.82c-3.94-5.32-8-10.53-12-15.85a4,4,0,0,0-3.64-1.78c-7.91.06-15.81,0-23.71,0-2.42,0-2.46,0-2.48,2.4,0,4.63,0,9.26,0,13.89,0,2.82-.29,3.07-3.17,3.11-2.36,0-4.73,0-7.09,0-2.92,0-3.18-.32-3.18-3.37Q323.25,453.3,323.26,439.67Z"/><path class="cls-5" d="M660.44,470.18c-6.91,0-13.81,0-20.71,0a31,31,0,0,1-7.51-1.15c-7.28-1.85-11.08-6.79-12.46-13.9a37.76,37.76,0,0,1-.66-7.58c.06-6,0-12,0-18a28.32,28.32,0,0,1,1.69-9.32,15.32,15.32,0,0,1,10.23-9.78,40.11,40.11,0,0,1,12.33-1.84c12.81-.11,25.61,0,38.42,0a9.91,9.91,0,0,1,1.09,0c1.7.19,2.43.87,2.49,2.61.07,2.54.07,5.09,0,7.63,0,1.83-.63,2.34-2.51,2.5-.72.05-1.45,0-2.18,0q-17.57,0-35.15,0a46.66,46.66,0,0,0-5.16.2c-4.28.48-6.52,2.57-7.44,6.75a1.22,1.22,0,0,0-.06.26,128.62,128.62,0,0,0,.08,22c.52,4.81,3.16,6.44,8.22,7.17a24.52,24.52,0,0,0,3.54.08H681c.73,0,1.46,0,2.18,0,1.55.14,2.18.66,2.24,2.18.09,2.72,0,5.45,0,8.17a1.85,1.85,0,0,1-2.06,2c-.91,0-1.81.05-2.72.05H660.44Z"/><path class="cls-5" d="M413.16,470.3h-4.08c-3.6,0-3.81-.36-2.15-3.43q4-7.31,7.95-14.59,9.47-17.32,18.94-34.65c.78-1.44,1.58-2.87,2.45-4.25a9.4,9.4,0,0,1,7-4.66,31.76,31.76,0,0,1,7.61,0,10.26,10.26,0,0,1,8,5.53q3.56,6.29,7,12.61,10.72,19.42,21.43,38.88c.48.87,1,1.75,1.37,2.66.52,1.21.28,1.74-1.06,1.77-3.81.09-7.63,0-11.44,0-1.19,0-1.69-.92-2.18-1.81-1.57-2.86-3.23-5.68-4.69-8.6a3.27,3.27,0,0,0-3.42-2q-18.4.09-36.79,0a3.19,3.19,0,0,0-3.38,2c-1.28,2.7-2.89,5.25-4.17,8a3.9,3.9,0,0,1-4.3,2.52C415.9,470.21,414.53,470.3,413.16,470.3Z"/><path class="cls-5" d="M555.12,355.31c-.78-2.05-1.49-4-2.25-5.92a10.46,10.46,0,0,1-.67-3.73c0-2.46,1.38-3.84,3.86-4a14,14,0,0,1,6.14.94c.67.26,1.34.55,2,.77,1.3.42,1.51.23,1.64-1.21a4.75,4.75,0,0,0-1.58-4.15,29.22,29.22,0,0,1-4.77-5.58,7.26,7.26,0,0,1-1.35-4.61,3.11,3.11,0,0,1,1.47-2.48,6.51,6.51,0,0,1,6.92.24,109.94,109.94,0,0,0,12.85,8.19,3.18,3.18,0,0,1,1.83,3.05c.1,4.33-1.4,8.2-3.38,11.91-3.31,6.23-7.88,11.52-12.72,16.57-5.72,6-11.81,11.53-18.09,16.9a35.81,35.81,0,0,0-3.08,3.08,2.05,2.05,0,0,1-2.43.62c-3.94-1.38-8-5.33-7.35-10.84a4.1,4.1,0,0,1,3.8-4,11.92,11.92,0,0,1,4.33.21c2.92.66,4.45-.87,3.85-3.86-.34-1.69-.76-3.36-1.15-5a7.59,7.59,0,0,1-.22-.78c-.52-4.32.14-6.61,5.36-6.49C551.76,355.18,553.36,355.61,555.12,355.31Z"/><path class="cls-5" d="M472.08,355.17c1.95,0,3.84-.05,5.73,0,3.89.14,5.38,2.1,4.53,5.91-.4,1.77-.9,3.51-1.27,5.28a8.64,8.64,0,0,0-.22,2.43,2.63,2.63,0,0,0,3.51,2.63,14.35,14.35,0,0,1,4.32-.41,4.35,4.35,0,0,1,4.29,4.14c.52,4.52-2.79,9.39-7.82,10.78a2,2,0,0,1-2.16-.74c-7.21-7-15.08-13.39-21.93-20.8-5.17-5.6-10.15-11.4-13.22-18.52a21.89,21.89,0,0,1-2-8.7,3.49,3.49,0,0,1,2-3.51,95.58,95.58,0,0,0,12.61-8.06c2.22-1.65,4.46-1.32,6.7-.41,1.73.7,2.26,2.72,1.51,5a17.2,17.2,0,0,1-3.9,5.85c-.72.81-1.53,1.56-2.3,2.33a4.74,4.74,0,0,0-1.32,2.34,2.71,2.71,0,0,0,.32,2.6c.7.7,1.52,0,2.26-.27a16.27,16.27,0,0,1,6.89-1.38c3.17.16,4.61,1.8,4.22,5a25.94,25.94,0,0,1-2,6.49C472.55,353.81,471.9,354.44,472.08,355.17Z"/><path class="cls-2" d="M490.13,473.56a5.25,5.25,0,0,1,2.65-4.75C492.53,470.74,492,472.53,490.13,473.56Z"/><path class="cls-5" d="M934,294.33c-1.86.92-3.69,1.92-5.6,2.73-1.54.65-2.3,1.59-2.08,3.3.1.8-.07,1.64,0,2.44.24,1.86-.46,2.94-2.22,3.77-5.81,2.73-11.53,5.62-17.27,8.48a9.69,9.69,0,0,0-2.81,1.6c-.85.1-1.63.17-1.62-1.09,0-5.63,0-11.26,0-16.88,0-1.25.76-1.71,1.69-2.18,5.94-2.94,11.8-6,17.8-8.84,6.74-3.15,13.32-6.63,20-9.9,9.29-4.54,18.52-9.22,27.83-13.73,2.36-1.14,4.78-2.17,7.12-3.37a3.11,3.11,0,0,0,1.53-1.07.83.83,0,0,1,1-.49,1.82,1.82,0,0,0,1.58-.86c-.42-1-1.38-1.21-2.16-1.59-7.56-3.74-15.15-7.44-22.71-11.18-11.3-5.61-22.54-11.33-33.91-16.81-5.88-2.84-11.68-5.86-17.6-8.6a3.25,3.25,0,0,1-2.2-3.52c.13-5.08.07-10.17,0-15.25,0-1.23.21-2,1.64-1.62,5.73,2.89,11.48,5.77,17.2,8.69,1.61.82,3.66,1.2,4.68,2.64s.36,3.52.36,5.31a2.62,2.62,0,0,0,1.75,2.72c9.31,4.26,18.26,9.28,27.58,13.53,4.29,2,8.45,4.2,12.67,6.3,8.28,4.11,16.55,8.25,24.88,12.28a3.22,3.22,0,0,1,2.2,3.53c-.17,2.53-.09,5.08,0,7.61a2.39,2.39,0,0,1-1.54,2.55,29.4,29.4,0,0,0-5.25,2.8c-5,2.11-9.83,4.64-14.7,7.06Q956.44,283.36,939,292c-.9.44-1.77.92-2.66,1.39-.31.3-.8.21-1.13.49h0C934.89,294.25,934.38,294.11,934,294.33Z"/><path class="cls-11" d="M979.41,259.1a1.07,1.07,0,0,1-1,.49,4.36,4.36,0,0,0-2.51.85l-10.22,4.82a6.89,6.89,0,0,1-1,.27V251.08a9.73,9.73,0,0,1,4.23,1.35c3.19,1.48,6.3,3.13,9.46,4.67C979.21,257.53,980,257.93,979.41,259.1Z"/><path class="cls-5" d="M303.88,439.5v26.71c0,.72,0,1.45,0,2.18a1.77,1.77,0,0,1-1.92,1.85q-4.76,0-9.53,0a1.81,1.81,0,0,1-2-2.08c0-.63,0-1.27,0-1.9V412.85c0-.64,0-1.27,0-1.91a2.12,2.12,0,0,1,2.19-2.29c3-.1,6-.12,9,0,1.62.07,2.22.91,2.25,2.8.05,3.45,0,6.9,0,10.35Z"/><path class="cls-5" d="M62.1,266.15a134.91,134.91,0,0,0,12.75,6.61q23.37,11.63,46.83,23.06c2.23,1.08,3,2.32,2.92,4.76-.21,4.44,0,8.89-.07,13.33a4.57,4.57,0,0,1-.31,2.65c-1,.22-1.7-.5-2.5-.86-4-1.8-7.89-4.06-12.06-5.6a35.81,35.81,0,0,0-6.52-3.34c-2.11-.87-2.93-2.21-2.59-4.4a4.37,4.37,0,0,0,0-.81c0-4.07.48-3.33-3.1-5.1q-13.8-6.85-27.6-13.64c-12-5.9-23.94-11.81-36-17.62-1.68-.82-2.56-1.69-2.4-3.67a50.69,50.69,0,0,0,0-7.08,2.9,2.9,0,0,1,2-3.14c6.63-3.16,13.24-6.4,19.83-9.65,7.82-3.86,15.61-7.77,23.41-11.67a14.82,14.82,0,0,0,1.36-.86c5.44-2.27,10.59-5.13,15.9-7.68,1.64-.78,3.26-1.58,4.93-2.28a2.46,2.46,0,0,0,1.67-2.75c-.09-1.17.06-2.37,0-3.54a2.67,2.67,0,0,1,1.84-2.91c5.64-2.73,11.22-5.55,16.82-8.35.47-.24.9-.58,1.35-.87,1.32.09,2.29-1,3.53-1.07.63.55.45,1.22.45,1.82,0,5.08,0,10.17,0,15.25a3,3,0,0,1-1.86,3.19c-12.71,6.23-25.37,12.58-38.07,18.85q-18.54,9.16-37.12,18.27c-.55.27-1.21.43-1.5,1.46,3.89,1.79,7.58,4.06,11.7,5.47l.36-.05A8.55,8.55,0,0,1,62,265.81Z"/><path class="cls-2" d="M124.32,317.86a2.24,2.24,0,0,1,1.1-1.09A1,1,0,0,1,124.32,317.86Z"/><path class="cls-2" d="M110.7,311.33a1.15,1.15,0,0,1,1.08.54A1.11,1.11,0,0,1,110.7,311.33Z"/><path class="cls-2" d="M114,313a1.11,1.11,0,0,1,1.08.54A1.14,1.14,0,0,1,114,313Z"/><path class="cls-2" d="M111.79,311.88a1.13,1.13,0,0,1,1.09.54A1.16,1.16,0,0,1,111.79,311.88Z"/><path class="cls-2" d="M125.41,297.15l-.16-.38c.38-.15.57.08.72.38Z"/><path class="cls-2" d="M127.61,297.74l.54.5Z"/><path class="cls-2" d="M128.7,298.28l.55.5Z"/><path class="cls-2" d="M130.34,298.85l.53.48Z"/><path class="cls-2" d="M109.61,310.78l.56.54Z"/><path class="cls-2" d="M113.44,312.47l.52.49Z"/><path class="cls-2" d="M126.52,297.19l.54.5Z"/><path class="cls-2" d="M115.62,313.57l.53.48Z"/><path class="cls-2" d="M117.79,314.62l.55.52Z"/><path class="cls-2" d="M118.88,315.17l.55.51Z"/><path class="cls-2" d="M120,315.71l.56.52Z"/><path class="cls-2" d="M121.06,316.25l.56.52Z"/><path class="cls-2" d="M122.15,316.8l.55.52Z"/><path class="cls-2" d="M123.25,317.35l.55.51Z"/><path class="cls-2" d="M127.06,218.64l-.54.5Z"/><path class="cls-2" d="M121.61,199.55l-.54.49Z"/><path class="cls-2" d="M122.7,199l-.55.51Z"/><path class="cls-2" d="M125.42,199l-.55-.56Z"/><path class="cls-2" d="M123.79,198.46l-.54.51Z"/><path class="cls-12" d="M935.17,293.84a1,1,0,0,1,1.13-.49A.82.82,0,0,1,935.17,293.84Z"/><path class="cls-12" d="M934,294.33a.92.92,0,0,1,1.15-.49c0,.18,0,.37,0,.55Z"/><path class="cls-11" d="M62.17,251.35c0,3.25-.05,6.51,0,9.76,0,1.5-.39,3.07.65,4.46.21.27-.4.46-.72.58h0A10.9,10.9,0,0,0,57.71,264h0c-.15-.87-.88-1-1.54-1.29-3-1.41-6-2.9-9.27-4.52l14.09-7C61.46,250.91,61.85,250.89,62.17,251.35Z"/><path class="cls-1" d="M401.34,155.38c4.47-7.48,9.26-14.75,14.06-22a210.92,210.92,0,0,1,14.91-20.12,102.93,102.93,0,0,1,24.86-21.8c1.31-.8,2.66-1.54,4-2.33a2.43,2.43,0,0,1,2.8.21,25.68,25.68,0,0,1,4.18,3.47c4.15,4.2,8.43,8.25,13,12a71.22,71.22,0,0,0,23.37,13.1,18.77,18.77,0,0,0,7.23,1,52,52,0,0,1,7.59,0c5.3.43,10-1.74,14.58-3.82,8.45-3.81,15.64-9.42,22.36-15.76,3.23-3,6.22-6.35,9.7-9.14a4,4,0,0,1,5.15-.39,98.28,98.28,0,0,1,23.3,18.63c9.13,9.8,16.74,20.73,23.87,32,2.57,4.07,5.22,8.08,7.82,12.13.34.53.6,1.11.9,1.66a50.33,50.33,0,0,0,3.84,6.06v0c.44,1.28,0,1.53-1.07.87-.75-.45-1.14-1.29-1.83-1.82l0,0a.75.75,0,0,0-.57-.59l0,0a.8.8,0,0,0-.57-.59l0,0a10.1,10.1,0,0,0-2.24-2.76c-3.86-4.1-7.08-8.71-10.52-13.15-6-7.75-12.06-15.45-19.1-22.3a129.67,129.67,0,0,0-23.27-17.85c-2.4-1.46-2.45-1.42-4.16.77a74,74,0,0,1-23.9,20.26,52.74,52.74,0,0,1-23.41,6.5c-5.51.15-11,.32-16.47-.74a63.16,63.16,0,0,1-26.65-12.42,81.11,81.11,0,0,1-14-14c-1.37-1.73-1.39-1.68-3.24-.59a123.78,123.78,0,0,0-26.65,21A228,228,0,0,0,415.19,142q-5.08,6.57-10.22,13.09a7,7,0,0,1-1.85,2c-1.54,1.24-2.47,3-3.85,4.41a5.9,5.9,0,0,0-.49.51c-.17.17-.34.33-.52.48l-.31.15a.74.74,0,0,1-.67-.66,1.64,1.64,0,0,1,.2-.65v0a6,6,0,0,0,.59-.72,4.88,4.88,0,0,0,.51-.92h0c.39-.26.28-.78.57-1.08h0c.21-.18.43-.34.46-.64l0,0C400.54,157.38,400.64,156.18,401.34,155.38Z"/><path class="cls-1" d="M505.92,155.88a27.34,27.34,0,0,0-4.15-3.2c-4.27-3.09-8.57-6.12-12.85-9.19-1.74-1.25-1.74-1.3-.6-3,.61-.9,1.29-1.76,1.88-2.67s1.26-.95,2.21-.26q8.37,6.07,16.84,12c1.16.82,2.26,2.35,4,.93a.53.53,0,0,1,.52,0c1.84,1.51,2.94-.14,4.18-1,5.56-3.92,11.13-7.83,16.63-11.84,1.06-.78,1.68-.8,2.39.28,3.51,5.27,3.73,3.58-.92,7-4.46,3.29-9,6.48-13.47,9.73-1.79,1.29-1.83,1.38-.09,2.64,4.84,3.53,9.74,7,14.59,10.48,3,2.16,3.28,1.54.87,4.88-2.16,3-1.68,2.92-4.7.77l-15.49-11.11c-1.08-.77-2.18-1.34-3.53-.82a1.7,1.7,0,0,1-1.31,0c-1.59-.65-2.79.23-4,1.08l-15.27,11c-.29.21-.58.45-.88.65-1.69,1.12-1.79,1.16-3-.59-3-4.43-3.32-3.26,1.05-6.4,4.72-3.38,9.42-6.79,14.14-10.18A1.81,1.81,0,0,0,505.92,155.88Z"/><path class="cls-13" d="M625.9,159.28c.91.11,1.3.92,1.91,1.44s.86.08,1-.49c.9.45,1.11,1.42,1.63,2.15a5.1,5.1,0,0,0,.43.67v0c.5.7.36,1.08-.53,1.08h0a1.19,1.19,0,0,0-.59-.56C628.34,162.29,626.71,161.14,625.9,159.28Z"/><path class="cls-13" d="M628.81,160.26c-1.76-1.72-3.35-3.54-3.84-6.06A21.62,21.62,0,0,1,628.81,160.26Z"/><path class="cls-14" d="M398.56,161.86c1.58-1.53,2.36-3.83,4.56-4.76a17.37,17.37,0,0,1-4,4.81C398.9,162.14,398.72,162.13,398.56,161.86Z"/><path class="cls-15" d="M630.34,164.17a1.22,1.22,0,0,0,.53-1.08,3.32,3.32,0,0,1,1.22,1.5,2.6,2.6,0,0,0,.44.64h0c.43.63.42,1-.5,1h0a2.16,2.16,0,0,0-.63-.44A4,4,0,0,1,630.34,164.17Z"/><path class="cls-14" d="M397.53,161.93l.48.49c.19.11.26.23.21.35s-.11.2-.17.2l0,0a2.06,2.06,0,0,1-.51.51l0,0a1.52,1.52,0,0,1-.51.5l0,.05a1.86,1.86,0,0,1-.49.52l0,0c-.13.22-.35.37-.48.59l0,.05c-.93,0-1-.45-.58-1.15h.06a6.7,6.7,0,0,1,.45-.6v0a1.1,1.1,0,0,0,.49-.72.39.39,0,0,1,.18-.37l.42-.58v0A.41.41,0,0,1,397.53,161.93Z"/><path class="cls-16" d="M632,166.26a1.05,1.05,0,0,0,.5-1,5.11,5.11,0,0,1,1.64,2.31A2.08,2.08,0,0,1,632,166.26Z"/><path class="cls-13" d="M622.61,155.44c1.17.58,2.24,1.24,2.24,2.76A6.06,6.06,0,0,1,622.61,155.44Z"/><path class="cls-17" d="M394.88,166.39c-.4.54-.71,1.17-1.63,1.17-.23-.92.3-1.41.95-1.86A.78.78,0,0,1,394.88,166.39Z"/><path class="cls-14" d="M401.34,155.38c-.17,1.15-.45,2.24-1.75,2.65A4.8,4.8,0,0,1,401.34,155.38Z"/><path class="cls-18" d="M394.88,166.39l-.68-.69c.35-.55.56-1.21,1.17-1.57,0,.46.06.93.58,1.15C395.83,165.88,395.33,166.11,394.88,166.39Z"/><path class="cls-14" d="M399.15,158.65c.08.5,0,.91-.57,1.08A.94.94,0,0,1,399.15,158.65Z"/><path class="cls-14" d="M398.59,159.72a1.13,1.13,0,0,1-.47,1.18l-.26-.12a1.13,1.13,0,0,1,.19-.54A.62.62,0,0,1,398.59,159.72Z"/><path class="cls-16" d="M631.4,165.82a.69.69,0,0,1,.63.44A.63.63,0,0,1,631.4,165.82Z"/><path class="cls-19" d="M395.91,165.23a.73.73,0,0,1,.48-.59A.63.63,0,0,1,395.91,165.23Z"/><path class="cls-19" d="M396.42,164.61c.16-.18.33-.35.49-.52A.57.57,0,0,1,396.42,164.61Z"/><path class="cls-15" d="M629.75,163.61a.61.61,0,0,1,.59.56A.65.65,0,0,1,629.75,163.61Z"/><path class="cls-19" d="M397,164l.51-.5A.56.56,0,0,1,397,164Z"/><path class="cls-19" d="M395.88,163.54l-.45.6A.6.6,0,0,1,395.88,163.54Z"/><path class="cls-19" d="M397.51,163.51,398,163A.62.62,0,0,1,397.51,163.51Z"/><path class="cls-19" d="M396.36,162.84a.75.75,0,0,1-.49.72A.9.9,0,0,1,396.36,162.84Z"/><path class="cls-15" d="M630.86,163.05a.64.64,0,0,1-.43-.67A.6.6,0,0,1,630.86,163.05Z"/><path class="cls-19" d="M398.05,163c0-.18,0-.37,0-.55h0l.29-.15.27.18A.7.7,0,0,1,398.05,163Z"/><path class="cls-19" d="M398.56,161.86l.54,0a.65.65,0,0,1-.5.54l-.1-.1a.55.55,0,0,1,.06-.45Z"/><path class="cls-19" d="M397,161.89l-.42.58A.53.53,0,0,1,397,161.89Z"/><path class="cls-19" d="M397.53,161.93l-.57,0a.57.57,0,0,1,.52-.57C397.5,161.54,397.52,161.74,397.53,161.93Z"/><path class="cls-14" d="M398.12,160.9l-.63.46.12-.51c.15-.17.3-.19.46,0Z"/><path class="cls-19" d="M398.07,160.84a3.49,3.49,0,0,1-.46,0,.6.6,0,0,1,.44-.61C398.06,160.44,398.06,160.64,398.07,160.84Z"/><path class="cls-13" d="M625.37,158.73a.58.58,0,0,1,.57.59A.59.59,0,0,1,625.37,158.73Z"/><path class="cls-13" d="M624.83,158.18a.58.58,0,0,1,.57.59A.59.59,0,0,1,624.83,158.18Z"/><path class="cls-14" d="M399.61,158a.55.55,0,0,1-.46.64A.53.53,0,0,1,399.61,158Z"/><path class="cls-16" d="M632.53,165.23a.62.62,0,0,1-.44-.64A.75.75,0,0,1,632.53,165.23Z"/><path class="cls-1" d="M572.54,251.36c1.78,6.6,2.21,13.2-.28,19.72-3.39,8.87-10,13.91-19.25,15.17-9.55,1.29-17.63-2-24.47-8.63a23.79,23.79,0,0,1-4.86-5.91c5.64-1.57,11.26-2.78,16.57-5a115.13,115.13,0,0,0,15.31-7.66,161.75,161.75,0,0,0,14.32-9.88,2.23,2.23,0,0,1,.55-.51h0C571.92,248.8,571.92,248.8,572.54,251.36Z"/><path class="cls-1" d="M514.71,287.39c2.9,4.82,4.94,10.11,8,14.84,1.33,2,1.09,3.78-.59,5.74-1.24,1.44-2.68,2.7-4,4.08a1.2,1.2,0,0,1-2,0c-.24-.27-.51-.52-.78-.77-1.62-1.45-1.93-1.45-3.62.08-.34.31-.65.64-1,1a1,1,0,0,1-1.64-.06,40.4,40.4,0,0,1-4.65-5,4.09,4.09,0,0,1-.21-4.85c3.25-4.94,5.34-10.52,8.46-15.53a.83.83,0,0,1,.5-.58h0C514.19,286,514.31,286.87,514.71,287.39Z"/><path class="cls-20" d="M572.54,251.36c-.58-.28-.49-.88-.66-1.36-.25-.69-.57-1.31-1.44-1.33.34-.79.88-.85,1.36-.22A3.49,3.49,0,0,1,572.54,251.36Z"/><path class="cls-21" d="M514.71,287.39l-1.53-1.08C514.1,285.67,514.43,285.91,514.71,287.39Z"/><path class="cls-20" d="M570.43,248.68a.53.53,0,0,1-.55.51A.48.48,0,0,1,570.43,248.68Z"/><path class="cls-21" d="M513.19,286.3a.54.54,0,0,1-.5.58A.47.47,0,0,1,513.19,286.3Z"/><path class="cls-1" d="M226.81,433.22H208c-.55,0-1.09,0-1.64,0-1.33.1-2.08-.38-2-1.85.06-.63,0-1.27,0-1.9,0-5.53,0-11.07,0-16.6,0-2.72.26-3,2.94-3q18.78,0,37.56,0a22.76,22.76,0,0,1,4.58.56,6.64,6.64,0,0,1,5.62,5.55,28.74,28.74,0,0,1,0,11.09,6.81,6.81,0,0,1-5.3,5.59,17.14,17.14,0,0,1-4.57.57C239.15,433.2,233,433.22,226.81,433.22Z"/><path class="cls-1" d="M355.54,420.85h13.9c1,0,2,0,3,.11,3.7.36,5.52,2.18,6,5.85a28.88,28.88,0,0,1-.06,7.88,5.59,5.59,0,0,1-4.36,5,19.68,19.68,0,0,1-5.12.63H339.45c-2.67,0-2.68,0-2.69-2.72q0-6.68,0-13.35c0-3.35,0-3.36,3.25-3.36Z"/><path class="cls-1" d="M462.09,447.29c-.7.57-1.45.34-2.15.34q-12.22,0-24.47,0c-.54,0-1.09,0-1.63,0-.91-.05-1-.59-.71-1.31a12.46,12.46,0,0,1,.61-1.21q5.83-10.9,11.68-21.8a7.19,7.19,0,0,1,.69-1.17c.87-1.06,1.83-1,2.68.07a8.61,8.61,0,0,1,.68,1.18l12,22.22C461.81,446.14,462.23,446.64,462.09,447.29Z"/><path class="cls-7" d="M57.71,264a4.75,4.75,0,0,1,4.41,2.19A11.71,11.71,0,0,1,57.71,264Z"/><path class="cls-14" d="M398.56,161.9a.87.87,0,0,1-.06.45,1,1,0,0,1-.46.07Z"/></g></g></svg>