<svg width="1122" height="754" viewBox="0 0 1122 754" fill="none" xmlns="http://www.w3.org/2000/svg">
<rect x="579.723" y="80" width="462.273" height="594.351" rx="66.039" fill="#FFF1DA"/>
<path d="M909.919 278.117H777.841V344.156H909.919V278.117Z" fill="#1DAF9E"/>
<path d="M909.918 542.273L777.841 542.273L777.841 410.195C795.502 410.162 812.988 413.692 829.252 420.576C837.106 423.901 844.619 427.979 851.686 432.753C858.7 437.495 865.245 442.895 871.233 448.88C877.219 454.868 882.619 461.413 887.361 468.428C892.135 475.495 896.214 483.009 899.539 490.863C906.422 507.127 909.952 524.613 909.918 542.273V542.273Z" fill="#F4A261"/>
<path d="M778.082 146.525C778.082 146.525 718.164 80.3702 652.266 80.5002C586.368 80.6303 641.03 146.525 641.03 146.525H778.082Z" fill="#1DAF9E"/>
<path d="M711.802 146.039H645.763V212.078H711.802V146.039Z" fill="#FF9100"/>
<path d="M645.762 344.156V212.078C654.604 212.063 663.354 213.83 671.467 217.268C675.401 218.934 679.158 220.974 682.685 223.358C686.199 225.734 689.472 228.434 692.459 231.421C695.457 234.421 698.157 237.693 700.522 241.193C702.913 244.734 704.952 248.49 706.611 252.411C710.057 260.561 711.82 269.298 711.801 278.117C711.821 286.936 710.057 295.672 706.612 303.822C704.953 307.743 702.913 311.5 700.522 315.041C698.157 318.542 695.457 321.814 692.459 324.815C689.472 327.801 686.199 330.501 682.685 332.876C679.158 335.26 675.401 337.299 671.467 338.965C663.354 342.404 654.604 344.17 645.762 344.156Z" fill="#E56241"/>
<path d="M711.802 278.117H843.88C843.894 286.959 842.128 295.709 838.69 303.822C837.023 307.756 834.984 311.513 832.6 315.04C830.224 318.553 827.523 321.826 824.536 324.813C821.536 327.812 818.264 330.512 814.765 332.877C811.224 335.268 807.467 337.306 803.547 338.965C795.396 342.411 786.66 344.175 777.841 344.156C769.021 344.175 760.286 342.412 752.136 338.966C748.215 337.307 744.458 335.268 740.917 332.877C737.416 330.512 734.144 327.812 731.143 324.813C728.157 321.826 725.457 318.553 723.081 315.04C720.698 311.513 718.659 307.755 716.992 303.822C713.554 295.709 711.787 286.959 711.802 278.117Z" fill="#264653"/>
<path d="M711.801 278.403C711.781 287.137 710.017 295.78 706.612 303.823C704.949 307.75 702.91 311.506 700.524 315.04C698.153 318.547 695.452 321.82 692.46 324.814C689.466 327.807 686.193 330.507 682.686 332.877C679.152 335.264 675.395 337.304 671.468 338.967C663.336 342.408 654.593 344.173 645.762 344.156V343.868C645.783 335.135 647.548 326.493 650.952 318.45C652.615 314.524 654.654 310.767 657.04 307.234C659.411 303.726 662.111 300.454 665.104 297.46C668.098 294.467 671.37 291.767 674.878 289.396C678.412 287.009 682.168 284.97 686.096 283.307C694.228 279.865 702.971 278.1 711.801 278.117V278.403Z" fill="#1DAF9E"/>
<path d="M777.555 344.156C768.82 344.135 760.178 342.371 752.135 338.966C748.208 337.304 744.452 335.265 740.918 332.878C737.411 330.507 734.138 327.807 731.144 324.814C728.151 321.821 725.451 318.548 723.08 315.041C720.693 311.507 718.654 307.75 716.991 303.823C713.55 295.691 711.785 286.947 711.802 278.117H712.089C720.823 278.138 729.465 279.902 737.507 283.306C741.434 284.969 745.191 287.008 748.724 289.395C752.231 291.766 755.504 294.466 758.498 297.458C761.491 300.452 764.191 303.725 766.562 307.232C768.949 310.766 770.988 314.523 772.651 318.45C776.092 326.582 777.858 335.325 777.84 344.156H777.555Z" fill="#1DAF9E"/>
<path d="M711.802 476.234H777.841V542.273C769.01 542.29 760.267 540.524 752.135 537.083C748.208 535.42 744.452 533.381 740.918 530.994C737.411 528.623 734.138 525.923 731.144 522.931C728.151 519.937 725.451 516.664 723.081 513.157C720.693 509.623 718.654 505.866 716.991 501.939C713.55 493.807 711.785 485.064 711.802 476.234V476.234Z" fill="#E56241"/>
<path d="M777.841 410.195V476.234H711.802C711.785 467.404 713.55 458.66 716.992 450.528C718.655 446.602 720.694 442.845 723.081 439.311C725.451 435.804 728.151 432.532 731.144 429.538C734.138 426.545 737.411 423.845 740.918 421.474C744.452 419.087 748.209 417.048 752.136 415.385C760.268 411.943 769.01 410.178 777.841 410.195V410.195Z" fill="#F4A261"/>
<path d="M843.879 542.273L777.841 542.273L777.841 476.234C786.671 476.217 795.414 477.983 803.546 481.425C807.473 483.087 811.23 485.126 814.763 487.513C818.27 489.884 821.543 492.584 824.537 495.577C827.53 498.57 830.23 501.843 832.601 505.35C834.988 508.884 837.027 512.641 838.69 516.568C842.131 524.7 843.897 533.443 843.879 542.273V542.273Z" fill="#E56241"/>
<path d="M777.841 674.351V542.273H909.918C909.952 559.934 906.421 577.42 899.537 593.685C896.212 601.538 892.134 609.051 887.361 616.118C882.619 623.132 877.219 629.678 871.233 635.666C865.246 641.652 858.7 647.052 851.686 651.793C844.618 656.567 837.105 660.646 829.25 663.972C812.987 670.855 795.501 674.385 777.841 674.351V674.351Z" fill="#E9C46A"/>
<path d="M645.932 674.351V542.273H778.009C778.043 559.934 774.512 577.42 767.628 593.685C764.303 601.538 760.225 609.051 755.452 616.118C750.71 623.132 745.31 629.678 739.324 635.666C733.337 641.652 726.791 647.052 719.777 651.793C712.709 656.567 705.196 660.646 697.341 663.972C681.078 670.855 663.592 674.385 645.932 674.351V674.351Z" fill="#264653"/>
<path d="M852.885 422.202H919.924V355.163C910.96 355.145 902.084 356.938 893.829 360.432C889.843 362.119 886.029 364.189 882.442 366.612C878.882 369.019 875.56 371.76 872.52 374.798C869.482 377.837 866.741 381.16 864.335 384.72C861.911 388.307 859.841 392.121 858.153 396.108C854.659 404.363 852.868 413.238 852.885 422.202V422.202Z" fill="#0008FF"/>
<path d="M909.919 476.234C946.391 476.234 975.958 446.668 975.958 410.195C975.958 373.723 946.391 344.156 909.919 344.156C873.446 344.156 843.88 373.723 843.88 410.195C843.88 446.668 873.446 476.234 909.919 476.234Z" fill="#E56241"/>
<path d="M1042 344.156H909.919V476.234H1042V344.156Z" fill="#E56241"/>
<path d="M1041.04 344.638H910.876V475.752H1041.04V344.638Z" fill="#E56241"/>
<path d="M975.958 344.156H909.919V476.234H975.958V344.156Z" fill="#264653"/>
<path d="M975.479 344.638H910.397V475.752H975.479V344.638Z" fill="#264653"/>
<path d="M909.918 443.215C928.155 443.215 942.938 428.431 942.938 410.195C942.938 391.959 928.155 377.176 909.918 377.176C891.682 377.176 876.899 391.959 876.899 410.195C876.899 428.431 891.682 443.215 909.918 443.215Z" fill="#FFFCF7"/>
<path d="M579.724 410.195L645.762 410.195L645.762 476.234C636.932 476.251 628.189 474.485 620.057 471.043C616.13 469.381 612.373 467.342 608.84 464.955C605.333 462.584 602.06 459.884 599.066 456.891C596.073 453.897 593.373 450.625 591.002 447.117C588.615 443.584 586.576 439.827 584.913 435.9C581.472 427.768 579.706 419.025 579.724 410.195V410.195Z" fill="#264653"/>
<path d="M645.762 410.195V476.234H711.801C711.818 467.403 710.053 458.66 706.611 450.528C704.948 446.601 702.909 442.845 700.522 439.311C698.152 435.804 695.452 432.531 692.459 429.537C689.465 426.545 686.192 423.844 682.685 421.474C679.151 419.087 675.394 417.047 671.467 415.384C663.335 411.943 654.593 410.178 645.762 410.195V410.195Z" fill="#264653"/>
<path d="M646.048 410.195C654.783 410.216 663.425 411.98 671.469 415.385C675.395 417.047 679.152 419.086 682.685 421.473C686.192 423.844 689.465 426.544 692.459 429.537C695.452 432.53 698.152 435.803 700.523 439.31C702.91 442.844 704.949 446.601 706.612 450.528C710.054 458.66 711.819 467.404 711.802 476.234H711.514C702.78 476.213 694.139 474.449 686.096 471.045C682.169 469.382 678.413 467.343 674.879 464.956C671.372 462.585 668.099 459.885 665.105 456.893C662.112 453.899 659.412 450.626 657.041 447.119C654.654 443.585 652.615 439.828 650.952 435.901C647.511 427.769 645.745 419.026 645.763 410.195H646.048Z" fill="#E56241"/>
<path d="M579.631 476.141C566.538 462.988 556.202 447.354 549.23 430.154C545.829 421.755 543.248 413.047 541.524 404.151C539.82 395.316 538.962 386.338 538.963 377.34C538.963 368.347 539.822 359.374 541.529 350.544C543.252 341.647 545.833 332.938 549.235 324.539C556.283 307.149 566.768 291.36 580.062 278.117L580.494 278.549C593.585 291.703 603.919 307.339 610.889 324.539C614.292 332.938 616.872 341.646 618.596 350.543C620.301 359.373 621.159 368.346 621.159 377.34C621.16 386.336 620.301 395.313 618.594 404.146C616.872 413.044 614.292 421.754 610.891 430.154C603.842 447.543 593.356 463.331 580.062 476.572L579.631 476.141Z" fill="#1DAF9E"/>
<path d="M909.919 542.273V476.234H975.957C975.974 485.065 974.209 493.808 970.767 501.94C969.104 505.867 967.065 509.623 964.679 513.157C962.308 516.664 959.608 519.937 956.615 522.931C953.621 525.923 950.348 528.624 946.841 530.994C943.307 533.381 939.551 535.421 935.623 537.084C927.492 540.525 918.749 542.29 909.919 542.273V542.273Z" fill="#264653"/>
<path d="M909.828 673.583C896.779 660.475 886.478 644.894 879.53 627.753C876.14 619.382 873.568 610.704 871.85 601.838C870.152 593.033 869.297 584.086 869.298 575.119C869.298 566.157 870.154 557.214 871.855 548.415C873.573 539.548 876.145 530.869 879.535 522.498C886.559 505.167 897.008 489.432 910.257 476.234L910.687 476.664C923.734 489.774 934.033 505.357 940.979 522.498C944.37 530.868 946.942 539.547 948.659 548.413C950.359 557.213 951.214 566.156 951.214 575.119C951.215 584.085 950.359 593.03 948.658 601.833C946.942 610.701 944.371 619.382 940.981 627.753C933.955 645.083 923.506 660.817 910.257 674.013L909.828 673.583Z" fill="#1DAF9E"/>
<path d="M711.801 608.312C748.274 608.312 777.84 578.745 777.84 542.273C777.84 505.801 748.274 476.234 711.801 476.234C675.329 476.234 645.762 505.801 645.762 542.273C645.762 578.745 675.329 608.312 711.801 608.312Z" fill="#E9C46A"/>
<path d="M711.802 410.195C730.038 410.195 744.821 395.412 744.821 377.176C744.821 358.94 730.038 344.156 711.802 344.156C693.565 344.156 678.782 358.94 678.782 377.176C678.782 395.412 693.565 410.195 711.802 410.195Z" fill="#E9C46A"/>
<path d="M711.802 608.312C730.038 608.312 744.821 593.529 744.821 575.292C744.821 557.056 730.038 542.273 711.802 542.273C693.565 542.273 678.782 557.056 678.782 575.292C678.782 593.529 693.565 608.312 711.802 608.312Z" fill="#F4A261"/>
<path d="M645.762 212.078C682.235 212.078 711.801 182.511 711.801 146.039C711.801 109.567 682.235 80 645.762 80C609.29 80 579.723 109.567 579.723 146.039C579.723 182.511 609.29 212.078 645.762 212.078Z" fill="#E9C46A"/>
<path d="M843.88 278.117C880.352 278.117 909.919 248.55 909.919 212.078C909.919 175.606 880.352 146.039 843.88 146.039C807.407 146.039 777.841 175.606 777.841 212.078C777.841 248.55 807.407 278.117 843.88 278.117Z" fill="#F4A261"/>
<path d="M909.919 344.156C946.391 344.156 975.958 314.589 975.958 278.117C975.958 241.645 946.391 212.078 909.919 212.078C873.446 212.078 843.88 241.645 843.88 278.117C843.88 314.589 873.446 344.156 909.919 344.156Z" fill="#E9C46A"/>
<path d="M648.264 178.058C664.566 178.058 677.781 165.067 677.781 149.041C677.781 133.015 664.566 120.024 648.264 120.024C631.962 120.024 618.746 133.015 618.746 149.041C618.746 165.067 631.962 178.058 648.264 178.058Z" fill="#FFFCF7"/>
<path d="M1010.48 236.092C1018.49 236.092 1024.99 229.597 1024.99 221.584C1024.99 213.571 1018.49 207.075 1010.48 207.075C1002.47 207.075 995.97 213.571 995.97 221.584C995.97 229.597 1002.47 236.092 1010.48 236.092Z" fill="#E56241"/>
<path d="M877.399 134.032C885.412 134.032 891.908 127.536 891.908 119.523C891.908 111.511 885.412 105.015 877.399 105.015C869.386 105.015 862.891 111.511 862.891 119.523C862.891 127.536 869.386 134.032 877.399 134.032Z" fill="#E9C46A"/>
<path d="M1010.48 311.137C1018.49 311.137 1024.99 304.641 1024.99 296.628C1024.99 288.615 1018.49 282.119 1010.48 282.119C1002.47 282.119 995.97 288.615 995.97 296.628C995.97 304.641 1002.47 311.137 1010.48 311.137Z" fill="#1DAF9E"/>
<path d="M975.457 556.281C983.47 556.281 989.966 549.786 989.966 541.773C989.966 533.76 983.47 527.264 975.457 527.264C967.444 527.264 960.949 533.76 960.949 541.773C960.949 549.786 967.444 556.281 975.457 556.281Z" fill="#E56241"/>
<path d="M816.363 405.192C824.376 405.192 830.872 398.696 830.872 390.683C830.872 382.671 824.376 376.175 816.363 376.175C808.35 376.175 801.855 382.671 801.855 390.683C801.855 398.696 808.35 405.192 816.363 405.192Z" fill="#1DAF9E"/>
<path d="M612.243 523.262C620.256 523.262 626.751 516.766 626.751 508.753C626.751 500.74 620.256 494.245 612.243 494.245C604.23 494.245 597.734 500.74 597.734 508.753C597.734 516.766 604.23 523.262 612.243 523.262Z" fill="#E9C46A"/>
<path d="M711.301 523.262C719.314 523.262 725.81 516.766 725.81 508.753C725.81 500.74 719.314 494.245 711.301 494.245C703.288 494.245 696.793 500.74 696.793 508.753C696.793 516.766 703.288 523.262 711.301 523.262Z" fill="#FFFDFA"/>
<path d="M645.762 344.156V212.078C636.921 212.064 628.171 213.83 620.058 217.268C616.124 218.935 612.367 220.974 608.84 223.358C605.326 225.734 602.053 228.434 599.066 231.421C596.068 234.422 593.368 237.694 591.002 241.193C588.612 244.734 586.573 248.491 584.914 252.411C581.468 260.561 579.704 269.298 579.724 278.117C579.704 286.936 581.468 295.672 584.913 303.822C586.572 307.743 588.611 311.5 591.002 315.041C593.368 318.542 596.068 321.814 599.066 324.815C602.053 327.801 605.326 330.501 608.84 332.877C612.367 335.26 616.124 337.3 620.058 338.967C628.171 342.404 636.921 344.171 645.762 344.156V344.156Z" fill="#E56241"/>
<path d="M579.723 146.039V278.117C588.565 278.132 597.315 276.365 605.428 272.927C609.362 271.261 613.119 269.221 616.646 266.837C620.16 264.461 623.433 261.761 626.42 258.774C629.418 255.774 632.118 252.502 634.483 249.002C636.874 245.461 638.913 241.705 640.572 237.784C644.017 229.634 645.781 220.898 645.762 212.078C645.782 203.259 644.018 194.523 640.573 186.373C638.913 182.452 636.874 178.695 634.483 175.154C632.118 171.654 629.418 168.381 626.42 165.38C623.433 162.394 620.16 159.694 616.646 157.319C613.119 154.935 609.362 152.895 605.428 151.229C597.315 147.791 588.565 146.024 579.723 146.039V146.039Z" fill="#264653"/>
<path d="M1042 542.273L1042 410.195C1033.15 410.18 1024.4 411.947 1016.29 415.385C1012.36 417.051 1008.6 419.091 1005.07 421.475C1001.56 423.851 998.287 426.551 995.3 429.538C992.302 432.538 989.602 435.81 987.237 439.31C984.846 442.851 982.807 446.607 981.148 450.528C977.703 458.678 975.939 467.414 975.958 476.234C975.938 485.053 977.702 493.789 981.147 501.939C982.806 505.86 984.846 509.617 987.237 513.158C989.602 516.658 992.302 519.931 995.3 522.932C998.287 525.918 1001.56 528.618 1005.07 530.993C1008.6 533.377 1012.36 535.417 1016.29 537.083C1024.4 540.521 1033.15 542.288 1042 542.273V542.273Z" fill="#1DAF9E"/>
<path d="M843.88 146.039L711.802 146.039C711.787 154.881 713.553 163.631 716.991 171.744C718.658 175.678 720.698 179.435 723.081 182.962C725.458 186.475 728.158 189.748 731.145 192.735C734.145 195.734 737.417 198.434 740.917 200.799C744.458 203.19 748.214 205.228 752.135 206.887C760.285 210.333 769.021 212.097 777.841 212.078C786.66 212.097 795.396 210.334 803.546 206.888C807.467 205.229 811.223 203.19 814.765 200.799C818.265 198.434 821.538 195.734 824.538 192.735C827.525 189.748 830.224 186.475 832.6 182.962C834.984 179.435 837.023 175.678 838.69 171.744C842.128 163.631 843.894 154.881 843.88 146.039V146.039Z" fill="#1DAF9E"/>
<path d="M909.919 80L975.958 80V146.039C967.127 146.056 958.384 144.29 950.252 140.848C946.325 139.186 942.569 137.147 939.035 134.76C935.528 132.389 932.255 129.689 929.261 126.696C926.268 123.703 923.568 120.43 921.198 116.923C918.81 113.389 916.771 109.632 915.108 105.705C911.667 97.573 909.902 88.8302 909.919 80V80Z" fill="#1DAF9E"/>
<path d="M1042 146.039H975.958V80.0002C984.788 79.9834 993.531 81.7488 1001.66 85.1906C1005.59 86.8532 1009.35 88.8922 1012.88 91.279C1016.39 93.6499 1019.66 96.35 1022.65 99.3427C1025.65 102.336 1028.35 105.609 1030.72 109.116C1033.1 112.65 1035.14 116.407 1036.81 120.334C1040.25 128.466 1042.01 137.209 1042 146.039V146.039Z" fill="#1DAF9E"/>
<path fill-rule="evenodd" clip-rule="evenodd" d="M645.932 608.312L645.932 674.351C637.101 674.368 628.359 672.603 620.227 669.161C616.3 667.499 612.543 665.459 609.009 663.072C605.502 660.702 602.229 658.001 599.235 655.008C596.243 652.014 593.542 648.742 591.172 645.235C588.785 641.701 586.746 637.945 585.083 634.018C581.641 625.886 579.876 617.143 579.893 608.312L579.893 608.312L579.893 542.273C588.723 542.256 597.466 544.021 605.598 547.463C609.525 549.125 613.281 551.165 616.815 553.552C620.322 555.923 623.595 558.623 626.589 561.616C629.582 564.61 632.282 567.882 634.653 571.389C637.04 574.923 639.078 578.679 640.741 582.606C644.183 590.738 645.948 599.482 645.932 608.312L645.932 608.312Z" fill="#E56241"/>
<path fill-rule="evenodd" clip-rule="evenodd" d="M975.958 608.312L975.958 674.351C984.788 674.368 993.53 672.603 1001.66 669.161C1005.59 667.499 1009.35 665.459 1012.88 663.072C1016.39 660.702 1019.66 658.001 1022.65 655.008C1025.65 652.014 1028.35 648.742 1030.72 645.235C1033.1 641.701 1035.14 637.945 1036.81 634.018C1040.25 625.886 1042.01 617.143 1042 608.312L1042 608.312L1042 542.273C1033.17 542.256 1024.42 544.021 1016.29 547.463C1012.36 549.125 1008.61 551.165 1005.07 553.552C1001.57 555.923 998.294 558.623 995.3 561.616C992.307 564.61 989.607 567.882 987.236 571.389C984.85 574.923 982.811 578.679 981.148 582.606C977.706 590.738 975.941 599.482 975.958 608.312L975.958 608.312Z" fill="#F4A261"/>
<path d="M645.763 212.078H711.802V278.117C702.971 278.134 694.228 276.368 686.096 272.926C682.169 271.264 678.413 269.225 674.879 266.838C671.372 264.467 668.099 261.767 665.105 258.774C662.112 255.781 659.412 252.508 657.042 249.001C654.654 245.467 652.615 241.71 650.952 237.783C647.511 229.651 645.746 220.908 645.763 212.078V212.078Z" fill="#F4A261"/>
<path d="M777.841 278.117H711.802V212.078C720.632 212.061 729.375 213.827 737.508 217.269C741.434 218.931 745.191 220.97 748.724 223.357C752.231 225.728 755.504 228.428 758.498 231.421C761.491 234.414 764.191 237.687 766.562 241.194C768.949 244.728 770.988 248.485 772.651 252.412C776.093 260.544 777.858 269.287 777.841 278.117V278.117Z" fill="#F4A261"/>
<path d="M975.958 608.312V674.351H909.919C909.902 665.521 911.667 656.777 915.109 648.645C916.772 644.718 918.811 640.962 921.197 637.428C923.568 633.921 926.268 630.649 929.261 627.655C932.255 624.662 935.528 621.962 939.035 619.591C942.569 617.204 946.326 615.164 950.253 613.502C958.385 610.06 967.127 608.295 975.958 608.312V608.312Z" fill="#F4A261"/>
<path d="M810.86 179.058C829.096 179.058 843.88 164.275 843.88 146.039C843.88 127.803 829.096 113.019 810.86 113.019C792.624 113.019 777.841 127.803 777.841 146.039C777.841 164.275 792.624 179.058 810.86 179.058Z" fill="#264653"/>
<path d="M949.142 409.664C955.333 403.503 962.693 398.64 970.789 395.36C974.742 393.759 978.84 392.545 983.027 391.733C987.183 390.93 991.407 390.525 995.64 390.524C999.872 390.525 1004.09 390.93 1008.25 391.733C1012.44 392.544 1016.54 393.757 1020.49 395.358C1028.67 398.674 1036.1 403.608 1042.33 409.864L1042.13 410.069C1035.94 416.23 1028.58 421.093 1020.49 424.373C1016.53 425.973 1012.43 427.187 1008.25 427.996C1004.09 428.8 999.867 429.205 995.634 429.205C991.4 429.205 987.177 428.8 983.021 427.997C978.836 427.186 974.739 425.972 970.788 424.371C962.605 421.054 955.174 416.12 948.942 409.865L949.142 409.664Z" fill="#E9C46A"/>
<path d="M975.957 344.156H909.919V278.117C918.749 278.101 927.492 279.866 935.624 283.308C939.551 284.97 943.308 287.009 946.841 289.396C950.348 291.767 953.621 294.467 956.615 297.46C959.608 300.454 962.308 303.726 964.679 307.234C967.066 310.767 969.105 314.524 970.768 318.451C974.209 326.583 975.975 335.326 975.957 344.156V344.156Z" fill="#264653"/>
<path d="M909.919 344.156V278.117H843.88C843.863 286.948 845.628 295.691 849.07 303.823C850.733 307.75 852.772 311.506 855.159 315.04C857.529 318.547 860.229 321.82 863.222 324.814C866.216 327.807 869.489 330.507 872.996 332.877C876.53 335.265 880.287 337.304 884.214 338.967C892.346 342.408 901.088 344.173 909.919 344.156V344.156Z" fill="#264653"/>
<path d="M975.958 146.325C975.937 155.059 974.173 163.702 970.768 171.745C969.105 175.672 967.066 179.428 964.68 182.962C962.309 186.469 959.609 189.742 956.616 192.736C953.622 195.729 950.35 198.429 946.842 200.799C943.308 203.186 939.551 205.226 935.625 206.889C927.492 210.33 918.749 212.095 909.919 212.078V211.79C909.939 203.057 911.704 194.415 915.108 186.372C916.771 182.446 918.81 178.689 921.196 175.156C923.567 171.648 926.267 168.376 929.26 165.382C932.254 162.389 935.527 159.689 939.034 157.318C942.568 154.931 946.325 152.892 950.252 151.229C958.384 147.787 967.127 146.022 975.958 146.039V146.325Z" fill="#E56241"/>
<path d="M843.594 608.312C834.86 608.291 826.217 606.527 818.174 603.122C814.247 601.46 810.491 599.421 806.957 597.034C803.45 594.663 800.177 591.963 797.183 588.97C794.19 585.977 791.49 582.704 789.12 579.197C786.733 575.663 784.693 571.906 783.03 567.979C779.589 559.847 777.824 551.103 777.841 542.273H778.129C786.862 542.294 795.504 544.058 803.547 547.462C807.473 549.125 811.23 551.164 814.763 553.551C818.27 555.922 821.543 558.622 824.537 561.614C827.53 564.608 830.23 567.881 832.601 571.388C834.988 574.922 837.027 578.679 838.69 582.606C842.132 590.738 843.897 599.481 843.88 608.312H843.594Z" fill="#E56241"/>
<path d="M843.88 307.134C859.905 307.134 872.897 294.143 872.897 278.117C872.897 262.091 859.905 249.1 843.88 249.1C827.854 249.1 814.862 262.091 814.862 278.117C814.862 294.143 827.854 307.134 843.88 307.134Z" fill="#FFFCF7"/>
<path d="M879.901 656.341C893.164 656.341 903.915 645.589 903.915 632.326C903.915 619.064 893.164 608.312 879.901 608.312C866.638 608.312 855.887 619.064 855.887 632.326C855.887 645.589 866.638 656.341 879.901 656.341Z" fill="#264653"/>
<g filter="url(#filter0_d_208_139)">
<rect x="76" y="76" width="970" height="602" rx="70" stroke="url(#paint0_radial_208_139)" stroke-width="8" stroke-linecap="round" stroke-linejoin="round" shape-rendering="crispEdges"/>
</g>
<defs>
<filter id="filter0_d_208_139" x="0" y="0" width="1122" height="754" filterUnits="userSpaceOnUse" color-interpolation-filters="sRGB">
<feFlood flood-opacity="0" result="BackgroundImageFix"/>
<feColorMatrix in="SourceAlpha" type="matrix" values="0 0 0 0 0 0 0 0 0 0 0 0 0 0 0 0 0 0 127 0" result="hardAlpha"/>
<feMorphology radius="8" operator="dilate" in="SourceAlpha" result="effect1_dropShadow_208_139"/>
<feOffset/>
<feGaussianBlur stdDeviation="32"/>
<feComposite in2="hardAlpha" operator="out"/>
<feColorMatrix type="matrix" values="0 0 0 0 0.956863 0 0 0 0 0.635294 0 0 0 0 0.380392 0 0 0 0.4 0"/>
<feBlend mode="normal" in2="BackgroundImageFix" result="effect1_dropShadow_208_139"/>
<feBlend mode="normal" in="SourceGraphic" in2="effect1_dropShadow_208_139" result="shape"/>
</filter>
<radialGradient id="paint0_radial_208_139" cx="0" cy="0" r="1" gradientUnits="userSpaceOnUse" gradientTransform="translate(1042 674) rotate(-148.306) scale(1130.61 1831.06)">
<stop offset="0.109375" stop-color="#F4A261"/>
<stop offset="0.28125" stop-color="white" stop-opacity="0"/>
<stop offset="0.53125" stop-color="white" stop-opacity="0"/>
<stop offset="0.921875" stop-color="#F4A261"/>
</radialGradient>
</defs>
</svg>
