<svg width="93" height="72" viewBox="0 0 93 72" fill="none" xmlns="http://www.w3.org/2000/svg">
<path d="M78.5216 23.1621C78.0004 26.8995 77.1186 30.5776 75.8883 34.1449C74.6656 37.6858 73.1076 41.102 71.2358 44.3469C69.3626 47.5908 67.184 50.6484 64.7295 53.4781C62.2561 56.3286 59.5122 58.9326 56.5365 61.2538C50.3747 66.0591 43.3064 69.5714 35.7551 71.5803L35.7002 71.3755C33.7075 63.8934 33.2314 56.0882 34.3 48.4193C34.8211 44.682 35.703 41.0039 36.9333 37.4366C38.1558 33.8956 39.7138 30.4794 41.5859 27.2346C43.4589 23.9904 45.6374 20.9324 48.0919 18.1024C50.5654 15.252 53.3092 12.648 56.2849 10.3267C62.4468 5.5216 69.515 2.00932 77.0663 0.000175024C79.1047 7.54429 79.5997 15.4222 78.5216 23.1621V23.1621Z" fill="#E56241"/>
<path d="M35.701 71.4263C32.7294 60.2436 33.1604 48.4288 36.939 37.4923C38.162 33.9521 39.7201 30.5366 41.592 27.2923C42.188 26.261 42.8154 25.2473 43.474 24.2513C43.916 25.1473 44.326 26.0613 44.704 26.9933C45.704 29.4619 46.4625 32.0215 46.969 34.6363C47.4707 37.232 47.7235 39.8696 47.724 42.5133C47.7237 45.1574 47.4708 47.7954 46.969 50.3913C46.4629 53.0062 45.7043 55.5659 44.704 58.0343C42.6506 63.1025 39.6034 67.7083 35.742 71.5803L35.701 71.4263Z" fill="#AE4C33"/>
<path d="M35.5652 71.4909C30.848 68.7507 26.7254 65.0963 23.4391 60.7418C21.8341 58.6169 20.4385 56.3416 19.2718 53.9479C18.1168 51.5707 17.1912 49.0887 16.5075 46.5357C15.8231 43.9831 15.384 41.371 15.1962 38.735C15.0097 36.0786 15.0807 33.4103 15.4083 30.7676C16.0838 25.2927 17.8575 20.0104 20.6231 15.2373L20.7781 15.3268C25.4958 18.0655 29.6192 21.7185 32.9066 26.0716C34.5118 28.1964 35.9074 30.4717 37.074 32.8655C38.2291 35.2427 39.1547 37.7247 39.8383 40.2777C40.5227 42.8303 40.9618 45.4424 41.1496 48.0784C41.3364 50.7374 41.2651 53.4082 40.9366 56.0534C40.2585 61.5267 38.4828 66.807 35.7158 71.5779L35.5652 71.4909Z" fill="#F4A261"/>
</svg>
