<svg width="301" height="443" viewBox="0 0 301 443" fill="none" xmlns="http://www.w3.org/2000/svg">
<path d="M255.63 134.137C255.63 134.137 261.915 88.0432 272.391 100.614C282.867 113.185 272.391 132.041 272.391 132.041L264.01 142.517L255.63 136.232V134.137Z" fill="white"/>
<path d="M230.488 148.803C230.488 148.803 251.439 125.756 255.63 129.946C259.82 134.137 272.391 136.232 270.296 144.612C268.201 152.993 224.202 180.23 224.202 180.23L230.488 148.803Z" fill="white"/>
<path opacity="0.1" d="M230.488 148.803C230.488 148.803 251.439 125.756 255.63 129.946C259.82 134.137 272.391 136.232 270.296 144.612C268.201 152.993 224.202 180.23 224.202 180.23L230.488 148.803Z" fill="white"/>
<path d="M111.064 146.708V163.469C111.064 163.469 108.969 201.182 121.539 199.087C134.11 196.991 127.825 165.564 127.825 165.564L125.73 146.708H111.064Z" fill="white"/>
<path d="M117.349 268.227C117.349 268.227 98.4927 297.559 92.2072 299.654C85.9217 301.749 52.3992 320.606 48.2089 339.462L18.8766 377.175L33.5428 396.032C33.5428 396.032 100.588 324.796 119.444 318.511C138.301 312.225 157.157 280.798 157.157 280.798L117.349 268.227Z" fill="white"/>
<path d="M266.105 220.038C266.105 220.038 305.913 226.324 299.628 251.466C293.342 276.607 232.583 328.986 232.583 328.986L230.488 341.557L207.441 345.748L196.965 335.272L199.06 328.986C199.06 328.986 224.202 305.94 226.297 297.559C228.393 289.178 251.439 255.656 261.915 253.561L247.249 245.18L266.105 220.038Z" fill="white"/>
<path d="M25.1622 377.175C25.1622 377.175 33.5428 364.604 20.9718 366.699C8.40088 368.795 0.0202332 370.89 0.0202332 379.27C0.0202332 387.651 10.496 446.315 23.067 442.125C35.6379 437.935 25.1622 419.078 25.1622 419.078C25.1622 419.078 31.4476 402.317 35.6379 400.222C39.8283 398.127 39.8283 387.651 35.6379 387.651C31.4476 387.651 23.067 381.365 25.1622 377.175Z" fill="white"/>
<path d="M203.251 331.082C203.251 331.082 203.251 320.606 194.87 331.082C186.489 341.557 182.299 349.938 190.68 356.224C199.06 362.509 228.393 377.175 228.393 377.175C228.393 377.175 259.82 383.461 255.63 368.794C255.63 368.794 234.678 358.319 234.678 349.938C234.678 341.557 234.678 326.891 228.393 331.082C222.107 335.272 203.251 337.367 203.251 331.082Z" fill="white"/>
<path d="M163.443 173.945C163.443 173.945 134.11 178.135 136.206 220.038C136.206 220.038 98.4927 257.751 108.969 270.322C119.444 282.893 142.491 305.94 150.872 299.654C159.252 293.369 184.394 245.18 184.394 245.18C184.394 245.18 243.059 266.132 253.534 255.656C264.01 245.18 274.486 220.038 274.486 220.038L222.107 192.801L163.443 173.945Z" fill="white"/>
<path d="M245.154 54.5206C259.039 54.5206 270.296 43.2642 270.296 29.3787C270.296 15.4932 259.039 4.23682 245.154 4.23682C231.268 4.23682 220.012 15.4932 220.012 29.3787C220.012 43.2642 231.268 54.5206 245.154 54.5206Z" fill="white"/>
<path d="M226.297 31.4739C226.297 31.4739 211.631 54.5207 207.441 56.6158C203.251 58.711 236.773 79.6625 236.773 79.6625C236.773 79.6625 236.773 52.4255 247.249 46.14L226.297 31.4739Z" fill="white"/>
<path d="M224.202 54.5206C224.202 54.5206 190.68 44.0449 184.394 60.8061C178.109 77.5674 163.443 108.995 165.538 129.946C167.633 150.898 171.823 146.708 165.538 152.993C159.252 159.279 155.062 155.088 157.157 163.469C159.252 171.85 161.347 171.85 159.252 176.04C157.157 180.23 184.394 194.896 207.441 196.991L230.488 199.087C230.488 199.087 230.488 161.374 234.678 152.993C238.868 144.613 247.249 127.851 247.249 121.566V104.935C247.249 93.8656 244.36 82.9879 238.868 73.3771V73.3771C238.868 73.3771 226.297 54.5206 224.202 54.5206Z" fill="white"/>
<path d="M199.06 62.9013C199.06 62.9013 121.539 69.1867 113.159 90.1383C104.778 111.09 100.588 152.993 108.969 152.993C117.349 152.993 127.825 157.183 129.92 152.993C132.015 148.803 140.396 106.9 142.491 106.9C144.586 106.9 207.441 100.614 207.441 100.614C207.441 100.614 234.678 67.0916 199.06 62.9013Z" fill="white"/>
<path d="M246.164 23.1457C246.164 23.1457 252.836 11.5511 261.176 21.6221C269.516 31.693 283.083 13.1859 281 9.23685C278.917 5.28781 271.562 9.41439 258.958 5.294C246.353 1.17361 222.073 -7.22046 218.007 20.1613C213.94 47.543 223.625 44.6725 223.625 44.6725C223.625 44.6725 228.064 20.4093 232.076 27.3787L236.089 34.3481L239.569 35.2047L246.164 23.1457Z" fill="white"/>
</svg>
